<?xml version="1.0" standalone="no"?>
<!DOCTYPE svg PUBLIC "-//W3C//DTD SVG 1.1//EN" "http://www.w3.org/Graphics/SVG/1.1/DTD/svg11.dtd" >
<svg xmlns="http://www.w3.org/2000/svg" xmlns:xlink="http://www.w3.org/1999/xlink" version="1.1">
<metadata>
Created by FontForge 20190801 at Wed Jul 22 20:33:01 2020
 By Unknown
Copyright 2018 The Cabin Project Authors (https://github.com/impallari/Cabin)
</metadata>
<defs>
<font id="Cabin-SemiBoldItalic" horiz-adv-x="0" >
  <font-face 
    font-family="Cabin SemiBold"
    font-weight="600"
    font-style="italic"
    font-stretch="normal"
    units-per-em="2000"
    panose-1="0 0 0 0 0 0 0 0 0 0"
    ascent="1600"
    descent="-400"
    x-height="993"
    cap-height="1400"
    bbox="-545 -543 2534 2290"
    underline-thickness="50"
    underline-position="-125"
    slope="-10"
    unicode-range="U+000D-25CA"
  />
<missing-glyph horiz-adv-x="1206" 
d="M100 0v1400h1006v-1400h-1006zM260 140h686v1120h-686v-1120z" />
    <glyph glyph-name=".notdef" horiz-adv-x="1206" 
d="M100 0v1400h1006v-1400h-1006zM260 140h686v1120h-686v-1120z" />
    <glyph glyph-name="A" unicode="A" horiz-adv-x="1186" 
d="M-82 0l715 1400h222l221 -1400h-242l-55 369l-35 188l-77 593l59 -10l-280 -581l-103 -192l-183 -367h-242zM254 353l117 220h440l40 -220h-597z" />
    <glyph glyph-name="Aacute" unicode="&#xc1;" horiz-adv-x="1186" 
d="M-82 0l715 1400h222l221 -1400h-242l-55 369l-35 188l-77 593l59 -10l-280 -581l-103 -192l-183 -367h-242zM254 353l117 220h440l40 -220h-597zM589 1551l30 155l391 213l-37 -240z" />
    <glyph glyph-name="Abreve" unicode="&#x102;" horiz-adv-x="1186" 
d="M-82 0l715 1400h222l221 -1400h-242l-55 369l-35 188l-77 593l59 -10l-280 -581l-103 -192l-183 -367h-242zM254 353l117 220h440l40 -220h-597zM785 1573q-127 0 -194 62.5t-67 152.5q0 14 1.5 28t5.5 26h158q-2 -7 -3.5 -15.5t-1.5 -16.5q0 -45 30.5 -69.5t82.5 -24.5
q59 0 102.5 32.5t54.5 93.5h175q-25 -117 -111.5 -193t-232.5 -76z" />
    <glyph glyph-name="uni1EAE" unicode="&#x1eae;" horiz-adv-x="1186" 
d="M-82 0l715 1400h222l221 -1400h-242l-55 369l-35 188l-77 593l59 -10l-280 -581l-103 -192l-183 -367h-242zM254 353l117 220h440l40 -220h-597zM775 1529q-130 0 -196 61.5t-66 148.5q0 11 1.5 22.5t2.5 22.5h166q-1 -6 -2 -13.5t-1 -15.5q0 -46 32 -70t84 -24
q59 0 102.5 31.5t53.5 91.5h169q-19 -113 -109.5 -184t-236.5 -71zM691 1866l21 142l370 190l-33 -216z" />
    <glyph glyph-name="uni1EB6" unicode="&#x1eb6;" horiz-adv-x="1186" 
d="M-82 0l715 1400h222l221 -1400h-242l-55 369l-35 188l-77 593l59 -10l-280 -581l-103 -192l-183 -367h-242zM254 353l117 220h440l40 -220h-597zM760 1529q-130 0 -196 61.5t-66 148.5q0 11 1.5 22.5t2.5 22.5h166q-1 -6 -2 -13.5t-1 -15.5q0 -46 32 -70t84 -24
q59 0 102.5 31.5t53.5 91.5h169q-19 -113 -109.5 -184t-236.5 -71zM340 -351l36 189h194l-36 -189h-194z" />
    <glyph glyph-name="uni1EB0" unicode="&#x1eb0;" horiz-adv-x="1186" 
d="M-82 0l715 1400h222l221 -1400h-242l-55 369l-35 188l-77 593l59 -10l-280 -581l-103 -192l-183 -367h-242zM254 353l117 220h440l40 -220h-597zM762 1529q-130 0 -196 61.5t-66 148.5q0 11 1.5 22.5t2.5 22.5h166q-1 -6 -2 -13.5t-1 -15.5q0 -46 32 -70t84 -24
q59 0 102.5 31.5t53.5 91.5h169q-19 -113 -109.5 -184t-236.5 -71zM1027 1866l-346 116l37 204l334 -190z" />
    <glyph glyph-name="uni1EB2" unicode="&#x1eb2;" horiz-adv-x="1186" 
d="M-82 0l715 1400h222l221 -1400h-242l-55 369l-35 188l-77 593l59 -10l-280 -581l-103 -192l-183 -367h-242zM254 353l117 220h440l40 -220h-597zM792 1542q-130 0 -196 61.5t-66 148.5q0 11 1.5 22.5t2.5 22.5h166q-1 -6 -2 -13.5t-1 -15.5q0 -46 32 -70t84 -24
q59 0 102.5 31.5t53.5 91.5h169q-18 -113 -109 -184t-237 -71zM853 1828l-5 85q43 12 63.5 31.5t20.5 46.5q0 53 -66 53q-30 0 -61.5 -9.5t-63.5 -24.5l-15 115q38 16 79.5 24.5t85.5 8.5q74 0 122 -34.5t48 -100.5q0 -76 -55 -124t-153 -71z" />
    <glyph glyph-name="uni1EB4" unicode="&#x1eb4;" horiz-adv-x="1186" 
d="M-82 0l715 1400h222l221 -1400h-242l-55 369l-35 188l-77 593l59 -10l-280 -581l-103 -192l-183 -367h-242zM254 353l117 220h440l40 -220h-597zM785 1529q-130 0 -196 61.5t-66 148.5q0 11 1.5 22.5t2.5 22.5h166q-1 -6 -2 -13.5t-1 -15.5q0 -46 32 -70t84 -24
q59 0 102.5 31.5t53.5 91.5h169q-18 -113 -109 -184t-237 -71zM1016 1881q-44 0 -90 19t-89 38.5t-78 19.5q-25 0 -43.5 -16t-23.5 -49h-144q19 101 68 154t126 53q44 0 89 -19.5t88 -38.5t79 -19q27 0 44.5 17t22.5 50h144q-16 -104 -66 -156.5t-127 -52.5z" />
    <glyph glyph-name="Acircumflex" unicode="&#xc2;" horiz-adv-x="1186" 
d="M-82 0l715 1400h222l221 -1400h-242l-55 369l-35 188l-77 593l59 -10l-280 -581l-103 -192l-183 -367h-242zM254 353l117 220h440l40 -220h-597zM538 1545l32 149l261 196l217 -223l-29 -145l-227 164z" />
    <glyph glyph-name="uni1EA4" unicode="&#x1ea4;" horiz-adv-x="1186" 
d="M-82 0l715 1400h222l221 -1400h-242l-55 369l-35 188l-77 593l59 -10l-280 -581l-103 -192l-183 -367h-242zM254 353l117 220h440l40 -220h-597zM1016 1508l-236 140l-239 -116l24 139l247 158l227 -182zM924 1807l155 230h217l-225 -230h-147z" />
    <glyph glyph-name="uni1EAC" unicode="&#x1eac;" horiz-adv-x="1186" 
d="M-82 0l715 1400h222l221 -1400h-242l-55 369l-35 188l-77 593l59 -10l-280 -581l-103 -192l-183 -367h-242zM254 353l117 220h440l40 -220h-597zM1014 1496l-236 139l-239 -115l24 138l247 159l227 -183zM340 -351l36 189h194l-36 -189h-194z" />
    <glyph glyph-name="uni1EA6" unicode="&#x1ea6;" horiz-adv-x="1186" 
d="M-82 0l715 1400h222l221 -1400h-242l-55 369l-35 188l-77 593l59 -10l-280 -581l-103 -192l-183 -367h-242zM254 353l117 220h440l40 -220h-597zM1015 1508l-236 140l-239 -116l24 139l247 158l227 -182zM941 1807l-126 246h206l63 -246h-143z" />
    <glyph glyph-name="uni1EA8" unicode="&#x1ea8;" horiz-adv-x="1186" 
d="M-82 0l715 1400h222l221 -1400h-242l-55 369l-35 188l-77 593l59 -10l-280 -581l-103 -192l-183 -367h-242zM254 353l117 220h440l40 -220h-597zM1014 1496l-236 139l-239 -115l24 138l247 159l227 -183zM963 1744l-5 85q85 23 85 78q0 52 -67 52q-30 0 -61.5 -9.5
t-63.5 -23.5l-15 115q38 15 79.5 24t85.5 9q74 0 122 -35t48 -100q0 -76 -55 -124t-153 -71z" />
    <glyph glyph-name="uni1EAA" unicode="&#x1eaa;" horiz-adv-x="1186" 
d="M-82 0l715 1400h222l221 -1400h-242l-55 369l-35 188l-77 593l59 -10l-280 -581l-103 -192l-183 -367h-242zM254 353l117 220h440l40 -220h-597zM1014 1496l-236 139l-239 -115l24 138l247 159l227 -183zM985 1872q-43 0 -89 19.5t-89.5 38.5t-78.5 19q-25 0 -43 -15.5
t-23 -48.5h-144q19 100 68 153t126 53q44 0 89 -19t87.5 -38.5t79.5 -19.5q56 0 66 67h144q-15 -103 -65.5 -156t-127.5 -53z" />
    <glyph glyph-name="uni0200" unicode="&#x200;" horiz-adv-x="1186" 
d="M-82 0l715 1400h222l221 -1400h-242l-55 369l-35 188l-77 593l59 -10l-280 -581l-103 -192l-183 -367h-242zM254 353l117 220h440l40 -220h-597zM550 1576l-142 306h214l72 -306h-144zM835 1576l-128 306h213l59 -306h-144z" />
    <glyph glyph-name="Adieresis" unicode="&#xc4;" horiz-adv-x="1186" 
d="M-82 0l715 1400h222l221 -1400h-242l-55 369l-35 188l-77 593l59 -10l-280 -581l-103 -192l-183 -367h-242zM254 353l117 220h440l40 -220h-597zM487 1589l34 173h181l-34 -173h-181zM874 1589l34 173h181l-34 -173h-181z" />
    <glyph glyph-name="uni1EA0" unicode="&#x1ea0;" horiz-adv-x="1186" 
d="M-82 0l715 1400h222l221 -1400h-242l-55 369l-35 188l-77 593l59 -10l-280 -581l-103 -192l-183 -367h-242zM254 353l117 220h440l40 -220h-597zM340 -351l36 189h194l-36 -189h-194z" />
    <glyph glyph-name="Agrave" unicode="&#xc0;" horiz-adv-x="1186" 
d="M-82 0l715 1400h222l221 -1400h-242l-55 369l-35 188l-77 593l59 -10l-280 -581l-103 -192l-183 -367h-242zM254 353l117 220h440l40 -220h-597zM946 1551l-343 147l38 218l330 -220z" />
    <glyph glyph-name="uni1EA2" unicode="&#x1ea2;" horiz-adv-x="1186" 
d="M-82 0l715 1400h222l221 -1400h-242l-55 369l-35 188l-77 593l59 -10l-280 -581l-103 -192l-183 -367h-242zM254 353l117 220h440l40 -220h-597zM720 1540q45 35 79.5 68.5t34.5 75.5q0 54 -64 54q-30 0 -63.5 -10.5t-66.5 -26.5l-13 112q39 18 80.5 27.5t85.5 9.5
q71 0 119 -35.5t48 -102.5q0 -82 -52.5 -138.5t-128.5 -105.5z" />
    <glyph glyph-name="uni0202" unicode="&#x202;" horiz-adv-x="1186" 
d="M-82 0l715 1400h222l221 -1400h-242l-55 369l-35 188l-77 593l59 -10l-280 -581l-103 -192l-183 -367h-242zM254 353l117 220h440l40 -220h-597zM467 1559q12 68 57 126.5t117.5 93.5t168.5 35q129 0 193.5 -60.5t64.5 -148.5q0 -11 -1 -22.5t-3 -23.5h-166q3 16 3 28
q0 47 -31.5 71.5t-82.5 24.5q-58 0 -100.5 -31.5t-53.5 -92.5h-166z" />
    <glyph glyph-name="Amacron" unicode="&#x100;" horiz-adv-x="1186" 
d="M-82 0l715 1400h222l221 -1400h-242l-55 369l-35 188l-77 593l59 -10l-280 -581l-103 -192l-183 -367h-242zM254 353l117 220h440l40 -220h-597zM448 1586l27 146h637l-26 -146h-638z" />
    <glyph glyph-name="Aogonek" unicode="&#x104;" horiz-adv-x="1186" 
d="M-82 0l715 1400h222l221 -1400h-242l-55 369l-35 188l-77 593l59 -10l-280 -581l-103 -192l-183 -367h-242zM254 353l117 220h440l40 -220h-597zM969 10l107 -10q-47 -31 -91.5 -67.5t-73.5 -78t-29 -86.5q0 -73 74 -73q33 0 61 7t58 21l13 -106q-31 -15 -73 -26t-96 -11
q-73 0 -120.5 36.5t-47.5 102.5q0 86 66.5 162t151.5 129z" />
    <glyph glyph-name="Aring" unicode="&#xc5;" horiz-adv-x="1186" 
d="M-82 0l715 1400h222l221 -1400h-242l-55 369l-35 188l-77 593l59 -10l-280 -581l-103 -192l-183 -367h-242zM254 353l117 220h440l40 -220h-597zM763 1546q-83 0 -127 45.5t-44 110.5t34 119t90 86t122 32q84 0 127.5 -45.5t43.5 -111.5t-33 -119.5t-89 -85t-124 -31.5z
M781 1644q47 0 80 35t33 83q0 36 -21 57t-53 21q-45 0 -79 -36t-34 -84q0 -35 21 -55.5t53 -20.5z" />
    <glyph glyph-name="Aringacute" unicode="&#x1fa;" horiz-adv-x="1186" 
d="M-82 0l715 1400h222l221 -1400h-242l-55 369l-35 188l-77 593l59 -10l-280 -581l-103 -192l-183 -367h-242zM254 353l117 220h440l40 -220h-597zM761 1509q-86 0 -130 47t-44 113q0 64 32 116.5t85 83.5t115 31q86 0 129.5 -47t43.5 -114q0 -65 -31 -117t-83.5 -82.5
t-116.5 -30.5zM772 1607q46 0 77 36t30 79q-1 35 -20.5 56.5t-51.5 21.5q-43 0 -75 -34t-32 -81q0 -36 21 -57t51 -21zM667 1958l21 142l370 190l-33 -216z" />
    <glyph glyph-name="Atilde" unicode="&#xc3;" horiz-adv-x="1186" 
d="M-82 0l715 1400h222l221 -1400h-242l-55 369l-35 188l-77 593l59 -10l-280 -581l-103 -192l-183 -367h-242zM254 353l117 220h440l40 -220h-597zM940 1564q-43 0 -90 22t-92 43.5t-82 21.5q-33 0 -54 -19t-27 -52h-152q20 115 74 175t135 60q47 0 91.5 -21.5t86 -43.5
t79.5 -22q31 0 50.5 19t25.5 58h157q-22 -124 -72 -182.5t-130 -58.5z" />
    <glyph glyph-name="AE" unicode="&#xc6;" horiz-adv-x="1646" 
d="M-109 0l887 1400h925l-40 -221h-664l123 102l-206 -1163l-86 102h682l-39 -220h-819l225 1276l37 -13l-785 -1263h-240zM258 346l146 225h393l-40 -225h-499zM936 621l39 220h500l-39 -220h-500z" />
    <glyph glyph-name="AEacute" unicode="&#x1fc;" horiz-adv-x="1646" 
d="M-109 0l887 1400h925l-40 -221h-664l123 102l-206 -1163l-86 102h682l-39 -220h-819l225 1276l37 -13l-785 -1263h-240zM258 346l146 225h393l-40 -225h-499zM936 621l39 220h500l-39 -220h-500zM1096 1522l21 142l370 190l-33 -216z" />
    <glyph glyph-name="B" unicode="B" horiz-adv-x="1195" 
d="M53 0l246 1400h380q91 0 167 -15t131.5 -50t86.5 -95t31 -150q0 -135 -71 -232t-187 -142l-16 50q137 -23 208 -100t71 -203q0 -113 -42.5 -200t-118 -145t-175 -88t-214.5 -30h-497zM351 831h283q97 0 159.5 57.5t62.5 160.5q0 54 -18.5 87t-54 48t-87.5 15h-200
l-175 -998h223q84 0 152.5 28t109 84t40.5 139q0 90 -52 139t-157 49h-320z" />
    <glyph glyph-name="C" unicode="C" horiz-adv-x="1166" 
d="M629 -28q-166 0 -287.5 71.5t-188 205.5t-66.5 323q0 185 62 341.5t172 272t254 179t307 63.5q99 0 195 -22.5t161 -59.5l-65 -219q-64 27 -144 54.5t-178 27.5q-123 0 -218 -50.5t-159.5 -137t-97.5 -197.5t-33 -233q0 -118 33.5 -208t107 -141t191.5 -51q88 0 176 25
t171 57l-13 -220q-78 -36 -181.5 -58.5t-198.5 -22.5z" />
    <glyph glyph-name="Cacute" unicode="&#x106;" horiz-adv-x="1166" 
d="M629 -28q-166 0 -287.5 71.5t-188 205.5t-66.5 323q0 185 62 341.5t172 272t254 179t307 63.5q99 0 195 -22.5t161 -59.5l-65 -219q-64 27 -144 54.5t-178 27.5q-123 0 -218 -50.5t-159.5 -137t-97.5 -197.5t-33 -233q0 -118 33.5 -208t107 -141t191.5 -51q88 0 176 25
t171 57l-13 -220q-78 -36 -181.5 -58.5t-198.5 -22.5zM759 1522l21 142l370 190l-33 -216z" />
    <glyph glyph-name="Ccaron" unicode="&#x10c;" horiz-adv-x="1166" 
d="M629 -28q-166 0 -287.5 71.5t-188 205.5t-66.5 323q0 185 62 341.5t172 272t254 179t307 63.5q99 0 195 -22.5t161 -59.5l-65 -219q-64 27 -144 54.5t-178 27.5q-123 0 -218 -50.5t-159.5 -137t-97.5 -197.5t-33 -233q0 -118 33.5 -208t107 -141t191.5 -51q88 0 176 25
t171 57l-13 -220q-78 -36 -181.5 -58.5t-198.5 -22.5zM915 1496l-227 182l23 136l233 -145l245 142l-26 -155z" />
    <glyph glyph-name="Ccedilla" unicode="&#xc7;" horiz-adv-x="1166" 
d="M629 -28q-166 0 -287.5 71.5t-188 205.5t-66.5 323q0 185 62 341.5t172 272t254 179t307 63.5q99 0 195 -22.5t161 -59.5l-65 -219q-64 27 -144 54.5t-178 27.5q-123 0 -218 -50.5t-159.5 -137t-97.5 -197.5t-33 -233q0 -118 33.5 -208t107 -141t191.5 -51q88 0 176 25
t171 57l-13 -220q-78 -36 -181.5 -58.5t-198.5 -22.5zM626 -158l-68 30q27 9 52.5 14.5t52.5 5.5q72 0 112.5 -36.5t40.5 -103.5q0 -97 -74 -159t-184 -62q-52 0 -90.5 11.5t-64.5 26.5l55 111q28 -15 57.5 -24.5t65.5 -9.5q51 0 80 23t29 58q0 62 -90 62q-24 0 -47.5 -3
t-51.5 -11l95 225h107z" />
    <glyph glyph-name="uni1E08" unicode="&#x1e08;" horiz-adv-x="1166" 
d="M629 -28q-166 0 -287.5 71.5t-188 205.5t-66.5 323q0 185 62 341.5t172 272t254 179t307 63.5q99 0 195 -22.5t161 -59.5l-65 -219q-64 27 -144 54.5t-178 27.5q-123 0 -218 -50.5t-159.5 -137t-97.5 -197.5t-33 -233q0 -118 33.5 -208t107 -141t191.5 -51q88 0 176 25
t171 57l-13 -220q-78 -36 -181.5 -58.5t-198.5 -22.5zM626 -158l-68 30q27 9 52.5 14.5t52.5 5.5q72 0 112.5 -36.5t40.5 -103.5q0 -97 -74 -159t-184 -62q-52 0 -90.5 11.5t-64.5 26.5l55 111q28 -15 57.5 -24.5t65.5 -9.5q51 0 80 23t29 58q0 62 -90 62q-24 0 -47.5 -3
t-51.5 -11l95 225h107zM759 1522l21 142l370 190l-33 -216z" />
    <glyph glyph-name="Ccircumflex" unicode="&#x108;" horiz-adv-x="1166" 
d="M629 -28q-166 0 -287.5 71.5t-188 205.5t-66.5 323q0 185 62 341.5t172 272t254 179t307 63.5q99 0 195 -22.5t161 -59.5l-65 -219q-64 27 -144 54.5t-178 27.5q-123 0 -218 -50.5t-159.5 -137t-97.5 -197.5t-33 -233q0 -118 33.5 -208t107 -141t191.5 -51q88 0 176 25
t171 57l-13 -220q-78 -36 -181.5 -58.5t-198.5 -22.5zM1182 1496l-236 139l-239 -115l24 138l247 159l227 -183z" />
    <glyph glyph-name="Cdotaccent" unicode="&#x10a;" horiz-adv-x="1166" 
d="M629 -28q-166 0 -287.5 71.5t-188 205.5t-66.5 323q0 185 62 341.5t172 272t254 179t307 63.5q99 0 195 -22.5t161 -59.5l-65 -219q-64 27 -144 54.5t-178 27.5q-123 0 -218 -50.5t-159.5 -137t-97.5 -197.5t-33 -233q0 -118 33.5 -208t107 -141t191.5 -51q88 0 176 25
t171 57l-13 -220q-78 -36 -181.5 -58.5t-198.5 -22.5zM837 1583l34 189h198l-34 -189h-198z" />
    <glyph glyph-name="D" unicode="D" horiz-adv-x="1382" 
d="M53 0l246 1400h491q164 0 285.5 -66.5t188.5 -196t67 -319.5q0 -182 -61.5 -332t-169.5 -259t-250.5 -168t-305.5 -59h-491zM306 117l-86 102h363q120 0 211.5 46t154 126.5t94.5 185t32 222.5q0 184 -80 283t-242 99h-363l122 102z" />
    <glyph glyph-name="uni01C4" unicode="&#x1c4;" horiz-adv-x="2401" 
d="M53 0l246 1400h491q164 0 285.5 -66.5t188.5 -196t67 -319.5q0 -182 -61.5 -332t-169.5 -259t-250.5 -168t-305.5 -59h-491zM306 117l-86 102h363q120 0 211.5 46t154 126.5t94.5 185t32 222.5q0 184 -80 283t-242 99h-363l122 102zM1276 0l884 1265l45 -85h-637l39 220
h915l-885 -1265l-45 85h637l-39 -220h-914zM2088 1524l-216 223l29 145l227 -164l281 164l-29 -167z" />
    <glyph glyph-name="Eth" unicode="&#xd0;" horiz-adv-x="1401" 
d="M74 0l246 1400h491q163 0 284.5 -67.5t188.5 -193.5t67 -303q0 -191 -61.5 -345.5t-170 -264.5t-250.5 -168t-305 -58h-490zM325 117l-86 103h364q160 0 269.5 78.5t166 213t56.5 303.5q0 167 -79.5 266.5t-243.5 99.5h-364l123 102zM49 622l32 180h624l-31 -180h-625z
" />
    <glyph glyph-name="Dcaron" unicode="&#x10e;" horiz-adv-x="1382" 
d="M53 0l246 1400h491q164 0 285.5 -66.5t188.5 -196t67 -319.5q0 -182 -61.5 -332t-169.5 -259t-250.5 -168t-305.5 -59h-491zM306 117l-86 102h363q120 0 211.5 46t154 126.5t94.5 185t32 222.5q0 184 -80 283t-242 99h-363l122 102zM858 1496l-227 182l23 136l233 -145
l245 142l-26 -155z" />
    <glyph glyph-name="Dcroat" unicode="&#x110;" horiz-adv-x="1401" 
d="M74 0l246 1400h491q163 0 284.5 -67.5t188.5 -193.5t67 -303q0 -191 -61.5 -345.5t-170 -264.5t-250.5 -168t-305 -58h-490zM325 117l-86 103h364q160 0 269.5 78.5t166 213t56.5 303.5q0 167 -79.5 266.5t-243.5 99.5h-364l123 102zM49 622l32 180h624l-31 -180h-625z
" />
    <glyph glyph-name="uni1E0C" unicode="&#x1e0c;" horiz-adv-x="1382" 
d="M53 0l246 1400h491q164 0 285.5 -66.5t188.5 -196t67 -319.5q0 -182 -61.5 -332t-169.5 -259t-250.5 -168t-305.5 -59h-491zM306 117l-86 102h363q120 0 211.5 46t154 126.5t94.5 185t32 222.5q0 184 -80 283t-242 99h-363l122 102zM533 -351l36 189h194l-36 -189h-194z
" />
    <glyph glyph-name="uni1E0E" unicode="&#x1e0e;" horiz-adv-x="1382" 
d="M53 0l246 1400h491q164 0 285.5 -66.5t188.5 -196t67 -319.5q0 -182 -61.5 -332t-169.5 -259t-250.5 -168t-305.5 -59h-491zM306 117l-86 102h363q120 0 211.5 46t154 126.5t94.5 185t32 222.5q0 184 -80 283t-242 99h-363l122 102zM314 -337l30 155h635l-31 -155h-634z
" />
    <glyph glyph-name="uni01C5" unicode="&#x1c5;" horiz-adv-x="2267" 
d="M53 0l246 1400h491q164 0 285.5 -66.5t188.5 -196t67 -319.5q0 -182 -61.5 -332t-169.5 -259t-250.5 -168t-305.5 -59h-491zM306 117l-86 102h363q120 0 211.5 46t154 126.5t94.5 185t32 222.5q0 184 -80 283t-242 99h-363l122 102zM1310 0l638 887l43 -85h-521l34 191
h788l-636 -887l-44 85h520l-35 -191h-787zM1922 1117l-216 223l29 145l227 -164l281 164l-29 -167z" />
    <glyph glyph-name="E" unicode="E" horiz-adv-x="1080" 
d="M311 118l-86 102h721l-39 -220h-854l246 1400h837l-39 -220h-703l123 102zM363 841h541l-39 -220h-541z" />
    <glyph glyph-name="Eacute" unicode="&#xc9;" horiz-adv-x="1080" 
d="M311 118l-86 102h721l-39 -220h-854l246 1400h837l-39 -220h-703l123 102zM363 841h541l-39 -220h-541zM571 1551l30 155l391 213l-37 -240z" />
    <glyph glyph-name="Ebreve" unicode="&#x114;" horiz-adv-x="1080" 
d="M311 118l-86 102h721l-39 -220h-854l246 1400h837l-39 -220h-703l123 102zM363 841h541l-39 -220h-541zM743 1529q-130 0 -196 61.5t-66 148.5q0 11 1.5 22.5t2.5 22.5h166q-1 -6 -2 -13.5t-1 -15.5q0 -46 32 -70t84 -24q59 0 102.5 31.5t53.5 91.5h169
q-19 -113 -109.5 -184t-236.5 -71z" />
    <glyph glyph-name="Ecaron" unicode="&#x11a;" horiz-adv-x="1080" 
d="M311 118l-86 102h721l-39 -220h-854l246 1400h837l-39 -220h-703l123 102zM363 841h541l-39 -220h-541zM729 1496l-227 182l23 136l233 -145l245 142l-26 -155z" />
    <glyph glyph-name="uni1E1C" unicode="&#x1e1c;" horiz-adv-x="1080" 
d="M311 118l-86 102h721l-39 -220h-854l246 1400h837l-39 -220h-703l123 102zM363 841h541l-39 -220h-541zM483 -158l-68 30q27 9 52.5 14.5t52.5 5.5q72 0 112.5 -36.5t40.5 -103.5q0 -97 -74 -159t-184 -62q-52 0 -90.5 11.5t-64.5 26.5l55 111q28 -15 57.5 -24.5
t65.5 -9.5q51 0 80 23t29 58q0 62 -90 62q-24 0 -47.5 -3t-51.5 -11l95 225h107zM743 1529q-130 0 -196 61.5t-66 148.5q0 11 1.5 22.5t2.5 22.5h166q-1 -6 -2 -13.5t-1 -15.5q0 -46 32 -70t84 -24q59 0 102.5 31.5t53.5 91.5h169q-19 -113 -109.5 -184t-236.5 -71z" />
    <glyph glyph-name="Ecircumflex" unicode="&#xca;" horiz-adv-x="1080" 
d="M311 118l-86 102h721l-39 -220h-854l246 1400h837l-39 -220h-703l123 102zM363 841h541l-39 -220h-541zM521 1545l32 149l261 196l217 -223l-29 -145l-227 164z" />
    <glyph glyph-name="uni1EBE" unicode="&#x1ebe;" horiz-adv-x="1080" 
d="M311 118l-86 102h721l-39 -220h-854l246 1400h837l-39 -220h-703l123 102zM363 841h541l-39 -220h-541zM999 1508l-236 140l-239 -116l24 139l247 158l227 -182zM907 1807l155 230h217l-225 -230h-147z" />
    <glyph glyph-name="uni1EC6" unicode="&#x1ec6;" horiz-adv-x="1080" 
d="M311 118l-86 102h721l-39 -220h-854l246 1400h837l-39 -220h-703l123 102zM363 841h541l-39 -220h-541zM996 1496l-236 139l-239 -115l24 138l247 159l227 -183zM343 -351l36 189h194l-36 -189h-194z" />
    <glyph glyph-name="uni1EC0" unicode="&#x1ec0;" horiz-adv-x="1080" 
d="M311 118l-86 102h721l-39 -220h-854l246 1400h837l-39 -220h-703l123 102zM363 841h541l-39 -220h-541zM998 1508l-236 140l-239 -116l24 139l247 158l227 -182zM924 1807l-126 246h206l63 -246h-143z" />
    <glyph glyph-name="uni1EC2" unicode="&#x1ec2;" horiz-adv-x="1080" 
d="M311 118l-86 102h721l-39 -220h-854l246 1400h837l-39 -220h-703l123 102zM363 841h541l-39 -220h-541zM996 1496l-236 139l-239 -115l24 138l247 159l227 -183zM945 1744l-5 85q85 23 85 78q0 52 -67 52q-30 0 -61.5 -9.5t-63.5 -23.5l-15 115q38 15 79.5 24t85.5 9
q74 0 122 -35t48 -100q0 -76 -55 -124t-153 -71z" />
    <glyph glyph-name="uni1EC4" unicode="&#x1ec4;" horiz-adv-x="1080" 
d="M311 118l-86 102h721l-39 -220h-854l246 1400h837l-39 -220h-703l123 102zM363 841h541l-39 -220h-541zM996 1496l-236 139l-239 -115l24 138l247 159l227 -183zM967 1872q-43 0 -89 19.5t-89.5 38.5t-78.5 19q-25 0 -43 -15.5t-23 -48.5h-144q19 100 68 153t126 53
q44 0 89 -19t87.5 -38.5t79.5 -19.5q56 0 66 67h144q-15 -103 -65.5 -156t-127.5 -53z" />
    <glyph glyph-name="uni0204" unicode="&#x204;" horiz-adv-x="1080" 
d="M311 118l-86 102h721l-39 -220h-854l246 1400h837l-39 -220h-703l123 102zM363 841h541l-39 -220h-541zM533 1576l-142 306h214l72 -306h-144zM818 1576l-128 306h213l59 -306h-144z" />
    <glyph glyph-name="Edieresis" unicode="&#xcb;" horiz-adv-x="1080" 
d="M311 118l-86 102h721l-39 -220h-854l246 1400h837l-39 -220h-703l123 102zM363 841h541l-39 -220h-541zM470 1589l34 173h181l-34 -173h-181zM857 1589l34 173h181l-34 -173h-181z" />
    <glyph glyph-name="Edotaccent" unicode="&#x116;" horiz-adv-x="1080" 
d="M311 118l-86 102h721l-39 -220h-854l246 1400h837l-39 -220h-703l123 102zM363 841h541l-39 -220h-541zM651 1583l34 189h198l-34 -189h-198z" />
    <glyph glyph-name="uni1EB8" unicode="&#x1eb8;" horiz-adv-x="1080" 
d="M311 118l-86 102h721l-39 -220h-854l246 1400h837l-39 -220h-703l123 102zM363 841h541l-39 -220h-541zM343 -351l36 189h194l-36 -189h-194z" />
    <glyph glyph-name="Egrave" unicode="&#xc8;" horiz-adv-x="1080" 
d="M311 118l-86 102h721l-39 -220h-854l246 1400h837l-39 -220h-703l123 102zM363 841h541l-39 -220h-541zM928 1551l-343 147l38 218l330 -220z" />
    <glyph glyph-name="uni1EBA" unicode="&#x1eba;" horiz-adv-x="1080" 
d="M311 118l-86 102h721l-39 -220h-854l246 1400h837l-39 -220h-703l123 102zM363 841h541l-39 -220h-541zM703 1540q45 35 79.5 68.5t34.5 75.5q0 54 -64 54q-30 0 -63.5 -10.5t-66.5 -26.5l-13 112q39 18 80.5 27.5t85.5 9.5q71 0 119 -35.5t48 -102.5q0 -82 -52.5 -138.5
t-128.5 -105.5z" />
    <glyph glyph-name="uni0206" unicode="&#x206;" horiz-adv-x="1080" 
d="M311 118l-86 102h721l-39 -220h-854l246 1400h837l-39 -220h-703l123 102zM363 841h541l-39 -220h-541zM450 1559q12 68 57 126.5t117.5 93.5t168.5 35q129 0 193.5 -60.5t64.5 -148.5q0 -11 -1 -22.5t-3 -23.5h-166q3 16 3 28q0 47 -31.5 71.5t-82.5 24.5
q-58 0 -100.5 -31.5t-53.5 -92.5h-166z" />
    <glyph glyph-name="Emacron" unicode="&#x112;" horiz-adv-x="1080" 
d="M311 118l-86 102h721l-39 -220h-854l246 1400h837l-39 -220h-703l123 102zM363 841h541l-39 -220h-541zM431 1586l27 146h637l-26 -146h-638z" />
    <glyph glyph-name="uni1E16" unicode="&#x1e16;" horiz-adv-x="1080" 
d="M311 118l-86 102h721l-39 -220h-854l246 1400h837l-39 -220h-703l123 102zM363 841h541l-39 -220h-541zM431 1586l27 146h637l-26 -146h-638zM641 1849l21 142l370 190l-33 -216z" />
    <glyph glyph-name="uni1E14" unicode="&#x1e14;" horiz-adv-x="1080" 
d="M311 118l-86 102h721l-39 -220h-854l246 1400h837l-39 -220h-703l123 102zM363 841h541l-39 -220h-541zM431 1586l27 146h637l-26 -146h-638zM989 1849l-346 116l38 204l334 -190z" />
    <glyph glyph-name="Eogonek" unicode="&#x118;" horiz-adv-x="1080" 
d="M311 118l-86 102h721l-39 -220h-854l246 1400h837l-39 -220h-703l123 102zM363 841h541l-39 -220h-541zM800 10l107 -10q-47 -31 -91.5 -67.5t-73.5 -78t-29 -86.5q0 -73 74 -73q33 0 61 7t58 21l13 -106q-31 -15 -73 -26t-96 -11q-73 0 -120.5 36.5t-47.5 102.5
q0 86 66.5 162t151.5 129z" />
    <glyph glyph-name="uni1EBC" unicode="&#x1ebc;" horiz-adv-x="1080" 
d="M311 118l-86 102h721l-39 -220h-854l246 1400h837l-39 -220h-703l123 102zM363 841h541l-39 -220h-541zM922 1564q-43 0 -90 22t-92 43.5t-82 21.5q-33 0 -54 -19t-27 -52h-152q20 115 74 175t135 60q47 0 91.5 -21.5t86 -43.5t79.5 -22q31 0 50.5 19t25.5 58h157
q-22 -124 -72 -182.5t-130 -58.5z" />
    <glyph glyph-name="F" unicode="F" horiz-adv-x="1007" 
d="M285 0h-232l246 1400h809l-39 -220h-679l123 102zM364 841h515l-39 -220h-515z" />
    <glyph glyph-name="G" unicode="G" horiz-adv-x="1274" 
d="M646 -28q-162 0 -288.5 72.5t-198 207t-71.5 323.5q0 183 61.5 338.5t171 271t253 179.5t308.5 64q66 0 138 -10t137 -28.5t109 -42.5l-64 -216q-70 32 -165 55t-183 23q-127 0 -223 -51.5t-160 -139.5t-95.5 -196.5t-31.5 -223.5q0 -186 84.5 -296.5t260.5 -110.5
q55 0 125 12.5t142 39.5l-96 -127l87 491l86 -102h-257l35 197h384l-110 -624q-79 -43 -188.5 -74.5t-250.5 -31.5z" />
    <glyph glyph-name="Gbreve" unicode="&#x11e;" horiz-adv-x="1274" 
d="M646 -28q-162 0 -288.5 72.5t-198 207t-71.5 323.5q0 183 61.5 338.5t171 271t253 179.5t308.5 64q66 0 138 -10t137 -28.5t109 -42.5l-64 -216q-70 32 -165 55t-183 23q-127 0 -223 -51.5t-160 -139.5t-95.5 -196.5t-31.5 -223.5q0 -186 84.5 -296.5t260.5 -110.5
q55 0 125 12.5t142 39.5l-96 -127l87 491l86 -102h-257l35 197h384l-110 -624q-79 -43 -188.5 -74.5t-250.5 -31.5zM900 1529q-130 0 -196 61.5t-66 148.5q0 11 1.5 22.5t2.5 22.5h166q-1 -6 -2 -13.5t-1 -15.5q0 -46 32 -70t84 -24q59 0 102.5 31.5t53.5 91.5h169
q-19 -113 -109.5 -184t-236.5 -71z" />
    <glyph glyph-name="Gcaron" unicode="&#x1e6;" horiz-adv-x="1274" 
d="M646 -28q-162 0 -288.5 72.5t-198 207t-71.5 323.5q0 183 61.5 338.5t171 271t253 179.5t308.5 64q66 0 138 -10t137 -28.5t109 -42.5l-64 -216q-70 32 -165 55t-183 23q-127 0 -223 -51.5t-160 -139.5t-95.5 -196.5t-31.5 -223.5q0 -186 84.5 -296.5t260.5 -110.5
q55 0 125 12.5t142 39.5l-96 -127l87 491l86 -102h-257l35 197h384l-110 -624q-79 -43 -188.5 -74.5t-250.5 -31.5zM887 1496l-227 182l23 136l233 -145l245 142l-26 -155z" />
    <glyph glyph-name="Gcircumflex" unicode="&#x11c;" horiz-adv-x="1274" 
d="M646 -28q-162 0 -288.5 72.5t-198 207t-71.5 323.5q0 183 61.5 338.5t171 271t253 179.5t308.5 64q66 0 138 -10t137 -28.5t109 -42.5l-64 -216q-70 32 -165 55t-183 23q-127 0 -223 -51.5t-160 -139.5t-95.5 -196.5t-31.5 -223.5q0 -186 84.5 -296.5t260.5 -110.5
q55 0 125 12.5t142 39.5l-96 -127l87 491l86 -102h-257l35 197h384l-110 -624q-79 -43 -188.5 -74.5t-250.5 -31.5zM1154 1496l-236 139l-239 -115l24 138l247 159l227 -183z" />
    <glyph glyph-name="uni0122" unicode="&#x122;" horiz-adv-x="1274" 
d="M646 -28q-162 0 -288.5 72.5t-198 207t-71.5 323.5q0 183 61.5 338.5t171 271t253 179.5t308.5 64q66 0 138 -10t137 -28.5t109 -42.5l-64 -216q-70 32 -165 55t-183 23q-127 0 -223 -51.5t-160 -139.5t-95.5 -196.5t-31.5 -223.5q0 -186 84.5 -296.5t260.5 -110.5
q55 0 125 12.5t142 39.5l-96 -127l87 491l86 -102h-257l35 197h384l-110 -624q-79 -43 -188.5 -74.5t-250.5 -31.5zM538 -543h-82l96 175h-76l33 186h202l-33 -186z" />
    <glyph glyph-name="Gdotaccent" unicode="&#x120;" horiz-adv-x="1274" 
d="M646 -28q-162 0 -288.5 72.5t-198 207t-71.5 323.5q0 183 61.5 338.5t171 271t253 179.5t308.5 64q66 0 138 -10t137 -28.5t109 -42.5l-64 -216q-70 32 -165 55t-183 23q-127 0 -223 -51.5t-160 -139.5t-95.5 -196.5t-31.5 -223.5q0 -186 84.5 -296.5t260.5 -110.5
q55 0 125 12.5t142 39.5l-96 -127l87 491l86 -102h-257l35 197h384l-110 -624q-79 -43 -188.5 -74.5t-250.5 -31.5zM809 1583l34 189h198l-34 -189h-198z" />
    <glyph glyph-name="uni1E20" unicode="&#x1e20;" horiz-adv-x="1274" 
d="M646 -28q-162 0 -288.5 72.5t-198 207t-71.5 323.5q0 183 61.5 338.5t171 271t253 179.5t308.5 64q66 0 138 -10t137 -28.5t109 -42.5l-64 -216q-70 32 -165 55t-183 23q-127 0 -223 -51.5t-160 -139.5t-95.5 -196.5t-31.5 -223.5q0 -186 84.5 -296.5t260.5 -110.5
q55 0 125 12.5t142 39.5l-96 -127l87 491l86 -102h-257l35 197h384l-110 -624q-79 -43 -188.5 -74.5t-250.5 -31.5zM589 1586l27 146h637l-26 -146h-638z" />
    <glyph glyph-name="H" unicode="H" horiz-adv-x="1414" 
d="M53 0l246 1400h232l-246 -1400h-232zM921 0l247 1400h232l-247 -1400h-232zM293 619l39 223h847l-40 -223h-846z" />
    <glyph glyph-name="Hbar" unicode="&#x126;" horiz-adv-x="1422" 
d="M113 985l27 160h1329l-28 -160h-1328zM53 0l246 1400h232l-246 -1400h-232zM921 0l247 1400h232l-247 -1400h-232zM293 619l39 223h847l-40 -223h-846z" />
    <glyph glyph-name="uni1E2A" unicode="&#x1e2a;" horiz-adv-x="1414" 
d="M53 0l246 1400h232l-246 -1400h-232zM921 0l247 1400h232l-247 -1400h-232zM293 619l39 223h847l-40 -223h-846zM541 -451q-127 0 -194 62.5t-67 152.5q0 14 1.5 28t5.5 26h158q-2 -7 -3.5 -15.5t-1.5 -16.5q0 -45 30.5 -69.5t82.5 -24.5q59 0 102.5 32.5t54.5 93.5h175
q-25 -117 -111.5 -193t-232.5 -76z" />
    <glyph glyph-name="Hcircumflex" unicode="&#x124;" horiz-adv-x="1414" 
d="M53 0l246 1400h232l-246 -1400h-232zM921 0l247 1400h232l-247 -1400h-232zM293 619l39 223h847l-40 -223h-846zM1129 1496l-236 139l-239 -115l24 138l247 159l227 -183z" />
    <glyph glyph-name="uni1E24" unicode="&#x1e24;" horiz-adv-x="1414" 
d="M53 0l246 1400h232l-246 -1400h-232zM921 0l247 1400h232l-247 -1400h-232zM293 619l39 223h847l-40 -223h-846zM446 -351l36 189h194l-36 -189h-194z" />
    <glyph glyph-name="I" unicode="I" horiz-adv-x="546" 
d="M53 0l246 1400h232l-246 -1400h-232z" />
    <glyph glyph-name="IJ" unicode="&#x132;" horiz-adv-x="1370" 
d="M578 -28q-224 0 -335 113t-116 314l242 57q4 -78 27.5 -138t76 -93.5t142.5 -33.5q102 0 171.5 42.5t114.5 113.5t71.5 159t42.5 180l126 714h232l-142 -802q-33 -189 -116 -330t-217 -218.5t-320 -77.5zM143 597l143 803h231l-127 -714q-4 -22 -7 -45t-6 -44h-234z" />
    <glyph glyph-name="Iacute" unicode="&#xcd;" horiz-adv-x="546" 
d="M53 0l246 1400h232l-246 -1400h-232zM271 1551l30 155l391 213l-37 -240z" />
    <glyph glyph-name="Ibreve" unicode="&#x12c;" horiz-adv-x="546" 
d="M53 0l246 1400h232l-246 -1400h-232zM442 1529q-130 0 -196 61.5t-66 148.5q0 11 1.5 22.5t2.5 22.5h166q-1 -6 -2 -13.5t-1 -15.5q0 -46 32 -70t84 -24q59 0 102.5 31.5t53.5 91.5h169q-19 -113 -109.5 -184t-236.5 -71z" />
    <glyph glyph-name="Icircumflex" unicode="&#xce;" horiz-adv-x="546" 
d="M53 0l246 1400h232l-246 -1400h-232zM220 1545l32 149l261 196l217 -223l-29 -145l-227 164z" />
    <glyph glyph-name="uni0208" unicode="&#x208;" horiz-adv-x="546" 
d="M53 0l246 1400h232l-246 -1400h-232zM233 1576l-142 306h214l72 -306h-144zM518 1576l-128 306h213l59 -306h-144z" />
    <glyph glyph-name="Idieresis" unicode="&#xcf;" horiz-adv-x="546" 
d="M53 0l246 1400h232l-246 -1400h-232zM170 1589l34 173h181l-34 -173h-181zM557 1589l34 173h181l-34 -173h-181z" />
    <glyph glyph-name="uni1E2E" unicode="&#x1e2e;" horiz-adv-x="546" 
d="M53 0l246 1400h232l-246 -1400h-232zM548 1574l31 164h180l-30 -164h-181zM165 1574l30 164h181l-31 -164h-180zM326 1829l21 142l370 190l-33 -216z" />
    <glyph glyph-name="Idotaccent" unicode="&#x130;" horiz-adv-x="546" 
d="M53 0l246 1400h232l-246 -1400h-232zM351 1583l34 189h198l-34 -189h-198z" />
    <glyph glyph-name="uni1ECA" unicode="&#x1eca;" horiz-adv-x="546" 
d="M53 0l246 1400h232l-246 -1400h-232zM12 -351l36 189h194l-36 -189h-194z" />
    <glyph glyph-name="Igrave" unicode="&#xcc;" horiz-adv-x="546" 
d="M53 0l246 1400h232l-246 -1400h-232zM628 1551l-343 147l38 218l330 -220z" />
    <glyph glyph-name="uni1EC8" unicode="&#x1ec8;" horiz-adv-x="546" 
d="M53 0l246 1400h232l-246 -1400h-232zM403 1540q45 35 79.5 68.5t34.5 75.5q0 54 -64 54q-30 0 -63.5 -10.5t-66.5 -26.5l-13 112q39 18 80.5 27.5t85.5 9.5q71 0 119 -35.5t48 -102.5q0 -82 -52.5 -138.5t-128.5 -105.5z" />
    <glyph glyph-name="uni020A" unicode="&#x20a;" horiz-adv-x="546" 
d="M53 0l246 1400h232l-246 -1400h-232zM149 1559q12 68 57 126.5t117.5 93.5t168.5 35q129 0 193.5 -60.5t64.5 -148.5q0 -11 -1 -22.5t-3 -23.5h-166q3 16 3 28q0 47 -31.5 71.5t-82.5 24.5q-58 0 -100.5 -31.5t-53.5 -92.5h-166z" />
    <glyph glyph-name="Imacron" unicode="&#x12a;" horiz-adv-x="546" 
d="M53 0l246 1400h232l-246 -1400h-232zM131 1586l27 146h637l-26 -146h-638z" />
    <glyph glyph-name="Iogonek" unicode="&#x12e;" horiz-adv-x="546" 
d="M53 0l246 1400h232l-246 -1400h-232zM178 10l107 -10q-47 -31 -91.5 -67.5t-73.5 -78t-29 -86.5q0 -73 74 -73q33 0 61 7t58 21l13 -106q-31 -15 -73 -26t-96 -11q-73 0 -120.5 36.5t-47.5 102.5q0 86 66.5 162t151.5 129z" />
    <glyph glyph-name="Itilde" unicode="&#x128;" horiz-adv-x="546" 
d="M53 0l246 1400h232l-246 -1400h-232zM622 1564q-43 0 -90 22t-92 43.5t-82 21.5q-33 0 -54 -19t-27 -52h-152q20 115 74 175t135 60q47 0 91.5 -21.5t86 -43.5t79.5 -22q31 0 50.5 19t25.5 58h157q-22 -124 -72 -182.5t-130 -58.5z" />
    <glyph glyph-name="J" unicode="J" horiz-adv-x="546" 
d="M-144 -344l10 163h45q38 0 65 17t46.5 57t30.5 110l247 1397h232l-257 -1454q-25 -144 -119.5 -217t-236.5 -73h-63z" />
    <glyph glyph-name="Jcircumflex" unicode="&#x134;" horiz-adv-x="546" 
d="M-144 -344l10 163h45q38 0 65 17t46.5 57t30.5 110l247 1397h232l-257 -1454q-25 -144 -119.5 -217t-236.5 -73h-63zM695 1496l-236 139l-239 -115l24 138l247 159l227 -183z" />
    <glyph glyph-name="K" unicode="K" horiz-adv-x="1169" 
d="M790 0l-357 741l569 659h281l-670 -736l25 171l408 -835h-256zM53 0l246 1400h232l-246 -1400h-232z" />
    <glyph glyph-name="uni0136" unicode="&#x136;" horiz-adv-x="1169" 
d="M790 0l-357 741l569 659h281l-670 -736l25 171l408 -835h-256zM53 0l246 1400h232l-246 -1400h-232zM438 -543h-82l96 175h-76l33 186h202l-33 -186z" />
    <glyph glyph-name="L" unicode="L" horiz-adv-x="963" 
d="M53 0l246 1400h232l-225 -1282l-86 102h653l-40 -220h-780z" />
    <glyph glyph-name="uni01C7" unicode="&#x1c7;" horiz-adv-x="1510" 
d="M53 0l246 1400h232l-225 -1282l-86 102h653l-40 -220h-780zM819 -344l10 163h45q38 0 65 17t46.5 57t30.5 110l247 1397h232l-257 -1454q-25 -144 -119.5 -217t-236.5 -73h-63z" />
    <glyph glyph-name="Lacute" unicode="&#x139;" horiz-adv-x="963" 
d="M53 0l246 1400h232l-225 -1282l-86 102h653l-40 -220h-780zM271 1522l21 142l370 190l-33 -216z" />
    <glyph glyph-name="Lcaron" unicode="&#x13d;" horiz-adv-x="963" 
d="M53 0l246 1400h232l-225 -1282l-86 102h653l-40 -220h-780zM858 1053l63 347h191l-120 -347h-134z" />
    <glyph glyph-name="uni013B" unicode="&#x13b;" horiz-adv-x="963" 
d="M53 0l246 1400h232l-225 -1282l-86 102h653l-40 -220h-780zM383 -543h-82l96 175h-76l33 186h202l-33 -186z" />
    <glyph glyph-name="Ldot" unicode="&#x13f;" horiz-adv-x="963" 
d="M53 0l246 1400h232l-225 -1282l-86 102h653l-40 -220h-780zM635 658l41 240h224l-41 -240h-224z" />
    <glyph glyph-name="uni1E36" unicode="&#x1e36;" horiz-adv-x="963" 
d="M53 0l246 1400h232l-225 -1282l-86 102h653l-40 -220h-780zM324 -351l36 189h194l-36 -189h-194z" />
    <glyph glyph-name="uni01C8" unicode="&#x1c8;" horiz-adv-x="1428" 
d="M53 0l246 1400h232l-225 -1282l-86 102h653l-40 -220h-780zM799 -484l11 180q55 3 81.5 16.5t40 50t25.5 108.5l198 1122h224l-214 -1212q-20 -112 -88.5 -183.5t-195.5 -77.5zM1186 1169l41 231h224l-41 -231h-224z" />
    <glyph glyph-name="uni1E3A" unicode="&#x1e3a;" horiz-adv-x="963" 
d="M53 0l246 1400h232l-225 -1282l-86 102h653l-40 -220h-780zM105 -337l30 155h635l-31 -155h-634z" />
    <glyph glyph-name="Lslash" unicode="&#x141;" horiz-adv-x="963" 
d="M36 662l33 180l770 290l-33 -180zM53 0l246 1400h232l-225 -1282l-86 102h653l-40 -220h-780z" />
    <glyph glyph-name="M" unicode="M" horiz-adv-x="1577" 
d="M-12 0l428 1400h204l224 -759l-87 13l484 746h202l-64 -1400h-242l67 1071l53 -19l-518 -744l-260 758l64 1l-313 -1067h-242z" />
    <glyph glyph-name="uni1E42" unicode="&#x1e42;" horiz-adv-x="1577" 
d="M-12 0l428 1400h204l224 -759l-87 13l484 746h202l-64 -1400h-242l67 1071l53 -19l-518 -744l-260 758l64 1l-313 -1067h-242zM525 -351l36 189h194l-36 -189h-194z" />
    <glyph glyph-name="N" unicode="N" horiz-adv-x="1351" 
d="M53 0l246 1400h232l445 -1052l-59 -7l187 1059h232l-248 -1400h-190l-474 1109l59 7l-198 -1116h-232z" />
    <glyph glyph-name="uni01CA" unicode="&#x1ca;" horiz-adv-x="1897" 
d="M53 0l246 1400h232l445 -1052l-59 -7l187 1059h232l-248 -1400h-190l-474 1109l59 7l-198 -1116h-232zM1207 -344l10 163h45q38 0 65 17t46.5 57t30.5 110l247 1397h232l-257 -1454q-25 -144 -119.5 -217t-236.5 -73h-63z" />
    <glyph glyph-name="Nacute" unicode="&#x143;" horiz-adv-x="1351" 
d="M53 0l246 1400h232l445 -1052l-59 -7l187 1059h232l-248 -1400h-190l-474 1109l59 7l-198 -1116h-232zM673 1522l21 142l370 190l-33 -216z" />
    <glyph glyph-name="Ncaron" unicode="&#x147;" horiz-adv-x="1351" 
d="M53 0l246 1400h232l445 -1052l-59 -7l187 1059h232l-248 -1400h-190l-474 1109l59 7l-198 -1116h-232zM829 1496l-227 182l23 136l233 -145l245 142l-26 -155z" />
    <glyph glyph-name="uni0145" unicode="&#x145;" horiz-adv-x="1351" 
d="M53 0l246 1400h232l445 -1052l-59 -7l187 1059h232l-248 -1400h-190l-474 1109l59 7l-198 -1116h-232zM492 -543h-82l96 175h-76l33 186h202l-33 -186z" />
    <glyph glyph-name="uni1E44" unicode="&#x1e44;" horiz-adv-x="1351" 
d="M53 0l246 1400h232l445 -1052l-59 -7l187 1059h232l-248 -1400h-190l-474 1109l59 7l-198 -1116h-232zM751 1583l34 189h198l-34 -189h-198z" />
    <glyph glyph-name="uni1E46" unicode="&#x1e46;" horiz-adv-x="1351" 
d="M53 0l246 1400h232l445 -1052l-59 -7l187 1059h232l-248 -1400h-190l-474 1109l59 7l-198 -1116h-232zM434 -351l36 189h194l-36 -189h-194z" />
    <glyph glyph-name="Eng" unicode="&#x14a;" horiz-adv-x="1377" 
d="M487 1073l-190 -1073h-232l248 1400h197zM486 1251q93 88 201.5 132.5t225.5 44.5q130 0 215 -52t127 -144.5t42 -212.5q0 -36 -3.5 -73.5t-10.5 -78.5l-137 -790q-28 -161 -103 -265.5t-183 -155.5t-237 -51q-116 0 -216 38l63 212q42 -15 87 -23t91 -8q100 0 170.5 58
t92.5 185l134 767q6 33 8 61.5t2 53.5q0 125 -60.5 192.5t-181.5 67.5q-109 0 -194.5 -47t-144.5 -116z" />
    <glyph glyph-name="uni01CB" unicode="&#x1cb;" horiz-adv-x="1795" 
d="M53 0l246 1400h232l445 -1052l-59 -7l187 1059h232l-248 -1400h-190l-474 1109l59 7l-198 -1116h-232zM1167 -484l11 180q55 3 81.5 16.5t40 50t25.5 108.5l198 1122h224l-214 -1212q-20 -112 -88.5 -183.5t-195.5 -77.5zM1554 1169l41 231h224l-41 -231h-224z" />
    <glyph glyph-name="uni1E48" unicode="&#x1e48;" horiz-adv-x="1351" 
d="M53 0l246 1400h232l445 -1052l-59 -7l187 1059h232l-248 -1400h-190l-474 1109l59 7l-198 -1116h-232zM215 -337l30 155h635l-31 -155h-634z" />
    <glyph glyph-name="Ntilde" unicode="&#xd1;" horiz-adv-x="1351" 
d="M53 0l246 1400h232l445 -1052l-59 -7l187 1059h232l-248 -1400h-190l-474 1109l59 7l-198 -1116h-232zM1002 1562q-43 0 -89.5 19t-89.5 38t-78 19q-25 0 -43 -15.5t-23 -48.5h-144q19 101 68 154t126 53q44 0 89 -19.5t87.5 -38.5t79.5 -19q26 0 43.5 17t22.5 50h144
q-15 -104 -65.5 -156.5t-127.5 -52.5z" />
    <glyph glyph-name="O" unicode="O" horiz-adv-x="1461" 
d="M629 -28q-166 0 -288 71.5t-188 205.5t-66 321q0 185 62 341.5t171 272.5t250.5 180t300.5 64q166 0 287.5 -71.5t188 -205.5t66.5 -321q0 -185 -62 -341.5t-171 -272.5t-250.5 -180t-300.5 -64zM666 191q115 0 205.5 51t154 138.5t97.5 199t34 231.5q0 119 -34.5 208.5
t-106 139.5t-183.5 50q-115 0 -206 -51t-154 -138.5t-96.5 -198.5t-33.5 -232q0 -118 34 -208t105.5 -140t183.5 -50z" />
    <glyph glyph-name="Oacute" unicode="&#xd3;" horiz-adv-x="1461" 
d="M629 -28q-166 0 -288 71.5t-188 205.5t-66 321q0 185 62 341.5t171 272.5t250.5 180t300.5 64q166 0 287.5 -71.5t188 -205.5t66.5 -321q0 -185 -62 -341.5t-171 -272.5t-250.5 -180t-300.5 -64zM666 191q115 0 205.5 51t154 138.5t97.5 199t34 231.5q0 119 -34.5 208.5
t-106 139.5t-183.5 50q-115 0 -206 -51t-154 -138.5t-96.5 -198.5t-33.5 -232q0 -118 34 -208t105.5 -140t183.5 -50zM732 1551l30 155l391 213l-37 -240z" />
    <glyph glyph-name="Obreve" unicode="&#x14e;" horiz-adv-x="1461" 
d="M629 -28q-166 0 -288 71.5t-188 205.5t-66 321q0 185 62 341.5t171 272.5t250.5 180t300.5 64q166 0 287.5 -71.5t188 -205.5t66.5 -321q0 -185 -62 -341.5t-171 -272.5t-250.5 -180t-300.5 -64zM666 191q115 0 205.5 51t154 138.5t97.5 199t34 231.5q0 119 -34.5 208.5
t-106 139.5t-183.5 50q-115 0 -206 -51t-154 -138.5t-96.5 -198.5t-33.5 -232q0 -118 34 -208t105.5 -140t183.5 -50zM903 1529q-130 0 -196 61.5t-66 148.5q0 11 1.5 22.5t2.5 22.5h166q-1 -6 -2 -13.5t-1 -15.5q0 -46 32 -70t84 -24q59 0 102.5 31.5t53.5 91.5h169
q-19 -113 -109.5 -184t-236.5 -71z" />
    <glyph glyph-name="Ocircumflex" unicode="&#xd4;" horiz-adv-x="1461" 
d="M629 -28q-166 0 -288 71.5t-188 205.5t-66 321q0 185 62 341.5t171 272.5t250.5 180t300.5 64q166 0 287.5 -71.5t188 -205.5t66.5 -321q0 -185 -62 -341.5t-171 -272.5t-250.5 -180t-300.5 -64zM666 191q115 0 205.5 51t154 138.5t97.5 199t34 231.5q0 119 -34.5 208.5
t-106 139.5t-183.5 50q-115 0 -206 -51t-154 -138.5t-96.5 -198.5t-33.5 -232q0 -118 34 -208t105.5 -140t183.5 -50zM681 1545l32 149l261 196l217 -223l-29 -145l-227 164z" />
    <glyph glyph-name="uni1ED0" unicode="&#x1ed0;" horiz-adv-x="1461" 
d="M629 -28q-166 0 -288 71.5t-188 205.5t-66 321q0 185 62 341.5t171 272.5t250.5 180t300.5 64q166 0 287.5 -71.5t188 -205.5t66.5 -321q0 -185 -62 -341.5t-171 -272.5t-250.5 -180t-300.5 -64zM666 191q115 0 205.5 51t154 138.5t97.5 199t34 231.5q0 119 -34.5 208.5
t-106 139.5t-183.5 50q-115 0 -206 -51t-154 -138.5t-96.5 -198.5t-33.5 -232q0 -118 34 -208t105.5 -140t183.5 -50zM1160 1508l-236 140l-239 -116l24 139l247 158l227 -182zM1068 1807l155 230h217l-225 -230h-147z" />
    <glyph glyph-name="uni1ED8" unicode="&#x1ed8;" horiz-adv-x="1461" 
d="M629 -28q-166 0 -288 71.5t-188 205.5t-66 321q0 185 62 341.5t171 272.5t250.5 180t300.5 64q166 0 287.5 -71.5t188 -205.5t66.5 -321q0 -185 -62 -341.5t-171 -272.5t-250.5 -180t-300.5 -64zM666 191q115 0 205.5 51t154 138.5t97.5 199t34 231.5q0 119 -34.5 208.5
t-106 139.5t-183.5 50q-115 0 -206 -51t-154 -138.5t-96.5 -198.5t-33.5 -232q0 -118 34 -208t105.5 -140t183.5 -50zM1157 1496l-236 139l-239 -115l24 138l247 159l227 -183zM450 -351l36 189h194l-36 -189h-194z" />
    <glyph glyph-name="uni1ED2" unicode="&#x1ed2;" horiz-adv-x="1461" 
d="M629 -28q-166 0 -288 71.5t-188 205.5t-66 321q0 185 62 341.5t171 272.5t250.5 180t300.5 64q166 0 287.5 -71.5t188 -205.5t66.5 -321q0 -185 -62 -341.5t-171 -272.5t-250.5 -180t-300.5 -64zM666 191q115 0 205.5 51t154 138.5t97.5 199t34 231.5q0 119 -34.5 208.5
t-106 139.5t-183.5 50q-115 0 -206 -51t-154 -138.5t-96.5 -198.5t-33.5 -232q0 -118 34 -208t105.5 -140t183.5 -50zM1158 1508l-236 140l-239 -116l24 139l247 158l227 -182zM1084 1807l-126 246h206l63 -246h-143z" />
    <glyph glyph-name="uni1ED4" unicode="&#x1ed4;" horiz-adv-x="1461" 
d="M629 -28q-166 0 -288 71.5t-188 205.5t-66 321q0 185 62 341.5t171 272.5t250.5 180t300.5 64q166 0 287.5 -71.5t188 -205.5t66.5 -321q0 -185 -62 -341.5t-171 -272.5t-250.5 -180t-300.5 -64zM666 191q115 0 205.5 51t154 138.5t97.5 199t34 231.5q0 119 -34.5 208.5
t-106 139.5t-183.5 50q-115 0 -206 -51t-154 -138.5t-96.5 -198.5t-33.5 -232q0 -118 34 -208t105.5 -140t183.5 -50zM1157 1496l-236 139l-239 -115l24 138l247 159l227 -183zM1106 1744l-5 85q85 23 85 78q0 52 -67 52q-30 0 -61.5 -9.5t-63.5 -23.5l-15 115
q38 15 79.5 24t85.5 9q74 0 122 -35t48 -100q0 -76 -55 -124t-153 -71z" />
    <glyph glyph-name="uni1ED6" unicode="&#x1ed6;" horiz-adv-x="1461" 
d="M629 -28q-166 0 -288 71.5t-188 205.5t-66 321q0 185 62 341.5t171 272.5t250.5 180t300.5 64q166 0 287.5 -71.5t188 -205.5t66.5 -321q0 -185 -62 -341.5t-171 -272.5t-250.5 -180t-300.5 -64zM666 191q115 0 205.5 51t154 138.5t97.5 199t34 231.5q0 119 -34.5 208.5
t-106 139.5t-183.5 50q-115 0 -206 -51t-154 -138.5t-96.5 -198.5t-33.5 -232q0 -118 34 -208t105.5 -140t183.5 -50zM1157 1496l-236 139l-239 -115l24 138l247 159l227 -183zM1128 1872q-43 0 -89 19.5t-89.5 38.5t-78.5 19q-25 0 -43 -15.5t-23 -48.5h-144q19 100 68 153
t126 53q44 0 89 -19t87.5 -38.5t79.5 -19.5q56 0 66 67h144q-15 -103 -65.5 -156t-127.5 -53z" />
    <glyph glyph-name="uni020C" unicode="&#x20c;" horiz-adv-x="1461" 
d="M629 -28q-166 0 -288 71.5t-188 205.5t-66 321q0 185 62 341.5t171 272.5t250.5 180t300.5 64q166 0 287.5 -71.5t188 -205.5t66.5 -321q0 -185 -62 -341.5t-171 -272.5t-250.5 -180t-300.5 -64zM666 191q115 0 205.5 51t154 138.5t97.5 199t34 231.5q0 119 -34.5 208.5
t-106 139.5t-183.5 50q-115 0 -206 -51t-154 -138.5t-96.5 -198.5t-33.5 -232q0 -118 34 -208t105.5 -140t183.5 -50zM694 1576l-142 306h214l72 -306h-144zM979 1576l-128 306h213l59 -306h-144z" />
    <glyph glyph-name="Odieresis" unicode="&#xd6;" horiz-adv-x="1461" 
d="M629 -28q-166 0 -288 71.5t-188 205.5t-66 321q0 185 62 341.5t171 272.5t250.5 180t300.5 64q166 0 287.5 -71.5t188 -205.5t66.5 -321q0 -185 -62 -341.5t-171 -272.5t-250.5 -180t-300.5 -64zM666 191q115 0 205.5 51t154 138.5t97.5 199t34 231.5q0 119 -34.5 208.5
t-106 139.5t-183.5 50q-115 0 -206 -51t-154 -138.5t-96.5 -198.5t-33.5 -232q0 -118 34 -208t105.5 -140t183.5 -50zM631 1589l34 173h181l-34 -173h-181zM1018 1589l34 173h181l-34 -173h-181z" />
    <glyph glyph-name="uni022A" unicode="&#x22a;" horiz-adv-x="1461" 
d="M629 -28q-166 0 -288 71.5t-188 205.5t-66 321q0 185 62 341.5t171 272.5t250.5 180t300.5 64q166 0 287.5 -71.5t188 -205.5t66.5 -321q0 -185 -62 -341.5t-171 -272.5t-250.5 -180t-300.5 -64zM666 191q115 0 205.5 51t154 138.5t97.5 199t34 231.5q0 119 -34.5 208.5
t-106 139.5t-183.5 50q-115 0 -206 -51t-154 -138.5t-96.5 -198.5t-33.5 -232q0 -118 34 -208t105.5 -140t183.5 -50zM1009 1574l31 164h180l-30 -164h-181zM626 1574l30 164h181l-31 -164h-180zM645 1894l27 146h637l-26 -146h-638z" />
    <glyph glyph-name="uni0230" unicode="&#x230;" horiz-adv-x="1461" 
d="M629 -28q-166 0 -288 71.5t-188 205.5t-66 321q0 185 62 341.5t171 272.5t250.5 180t300.5 64q166 0 287.5 -71.5t188 -205.5t66.5 -321q0 -185 -62 -341.5t-171 -272.5t-250.5 -180t-300.5 -64zM666 191q115 0 205.5 51t154 138.5t97.5 199t34 231.5q0 119 -34.5 208.5
t-106 139.5t-183.5 50q-115 0 -206 -51t-154 -138.5t-96.5 -198.5t-33.5 -232q0 -118 34 -208t105.5 -140t183.5 -50zM812 1583l34 189h198l-34 -189h-198zM654 1936l27 146h637l-26 -146h-638z" />
    <glyph glyph-name="uni1ECC" unicode="&#x1ecc;" horiz-adv-x="1461" 
d="M629 -28q-166 0 -288 71.5t-188 205.5t-66 321q0 185 62 341.5t171 272.5t250.5 180t300.5 64q166 0 287.5 -71.5t188 -205.5t66.5 -321q0 -185 -62 -341.5t-171 -272.5t-250.5 -180t-300.5 -64zM666 191q115 0 205.5 51t154 138.5t97.5 199t34 231.5q0 119 -34.5 208.5
t-106 139.5t-183.5 50q-115 0 -206 -51t-154 -138.5t-96.5 -198.5t-33.5 -232q0 -118 34 -208t105.5 -140t183.5 -50zM450 -351l36 189h194l-36 -189h-194z" />
    <glyph glyph-name="Ograve" unicode="&#xd2;" horiz-adv-x="1461" 
d="M629 -28q-166 0 -288 71.5t-188 205.5t-66 321q0 185 62 341.5t171 272.5t250.5 180t300.5 64q166 0 287.5 -71.5t188 -205.5t66.5 -321q0 -185 -62 -341.5t-171 -272.5t-250.5 -180t-300.5 -64zM666 191q115 0 205.5 51t154 138.5t97.5 199t34 231.5q0 119 -34.5 208.5
t-106 139.5t-183.5 50q-115 0 -206 -51t-154 -138.5t-96.5 -198.5t-33.5 -232q0 -118 34 -208t105.5 -140t183.5 -50zM1089 1551l-343 147l38 218l330 -220z" />
    <glyph glyph-name="uni1ECE" unicode="&#x1ece;" horiz-adv-x="1461" 
d="M629 -28q-166 0 -288 71.5t-188 205.5t-66 321q0 185 62 341.5t171 272.5t250.5 180t300.5 64q166 0 287.5 -71.5t188 -205.5t66.5 -321q0 -185 -62 -341.5t-171 -272.5t-250.5 -180t-300.5 -64zM666 191q115 0 205.5 51t154 138.5t97.5 199t34 231.5q0 119 -34.5 208.5
t-106 139.5t-183.5 50q-115 0 -206 -51t-154 -138.5t-96.5 -198.5t-33.5 -232q0 -118 34 -208t105.5 -140t183.5 -50zM864 1540q45 35 79.5 68.5t34.5 75.5q0 54 -64 54q-30 0 -63.5 -10.5t-66.5 -26.5l-13 112q39 18 80.5 27.5t85.5 9.5q71 0 119 -35.5t48 -102.5
q0 -82 -52.5 -138.5t-128.5 -105.5z" />
    <glyph glyph-name="Ohorn" unicode="&#x1a0;" horiz-adv-x="1461" 
d="M629 -28q-166 0 -288 71.5t-188 205.5t-66 321q0 185 62 341.5t171 272.5t250.5 180t300.5 64q166 0 287.5 -71.5t188 -205.5t66.5 -321q0 -185 -62 -341.5t-171 -272.5t-250.5 -180t-300.5 -64zM666 191q115 0 205.5 51t154 138.5t97.5 199t34 231.5q0 119 -34.5 208.5
t-106 139.5t-183.5 50q-115 0 -206 -51t-154 -138.5t-96.5 -198.5t-33.5 -232q0 -118 34 -208t105.5 -140t183.5 -50zM1008 1248l28 152q75 0 123 34.5t63 113.5h198q-18 -92 -78.5 -159.5t-148 -104t-185.5 -36.5z" />
    <glyph glyph-name="uni1EDA" unicode="&#x1eda;" horiz-adv-x="1461" 
d="M629 -28q-166 0 -288 71.5t-188 205.5t-66 321q0 185 62 341.5t171 272.5t250.5 180t300.5 64q166 0 287.5 -71.5t188 -205.5t66.5 -321q0 -185 -62 -341.5t-171 -272.5t-250.5 -180t-300.5 -64zM666 191q115 0 205.5 51t154 138.5t97.5 199t34 231.5q0 119 -34.5 208.5
t-106 139.5t-183.5 50q-115 0 -206 -51t-154 -138.5t-96.5 -198.5t-33.5 -232q0 -118 34 -208t105.5 -140t183.5 -50zM1008 1248l28 152q75 0 123 34.5t63 113.5h198q-18 -92 -78.5 -159.5t-148 -104t-185.5 -36.5zM732 1551l30 155l391 213l-37 -240z" />
    <glyph glyph-name="uni1EE2" unicode="&#x1ee2;" horiz-adv-x="1461" 
d="M629 -28q-166 0 -288 71.5t-188 205.5t-66 321q0 185 62 341.5t171 272.5t250.5 180t300.5 64q166 0 287.5 -71.5t188 -205.5t66.5 -321q0 -185 -62 -341.5t-171 -272.5t-250.5 -180t-300.5 -64zM666 191q115 0 205.5 51t154 138.5t97.5 199t34 231.5q0 119 -34.5 208.5
t-106 139.5t-183.5 50q-115 0 -206 -51t-154 -138.5t-96.5 -198.5t-33.5 -232q0 -118 34 -208t105.5 -140t183.5 -50zM1008 1248l28 152q75 0 123 34.5t63 113.5h198q-18 -92 -78.5 -159.5t-148 -104t-185.5 -36.5zM450 -351l36 189h194l-36 -189h-194z" />
    <glyph glyph-name="uni1EDC" unicode="&#x1edc;" horiz-adv-x="1461" 
d="M629 -28q-166 0 -288 71.5t-188 205.5t-66 321q0 185 62 341.5t171 272.5t250.5 180t300.5 64q166 0 287.5 -71.5t188 -205.5t66.5 -321q0 -185 -62 -341.5t-171 -272.5t-250.5 -180t-300.5 -64zM666 191q115 0 205.5 51t154 138.5t97.5 199t34 231.5q0 119 -34.5 208.5
t-106 139.5t-183.5 50q-115 0 -206 -51t-154 -138.5t-96.5 -198.5t-33.5 -232q0 -118 34 -208t105.5 -140t183.5 -50zM1008 1248l28 152q75 0 123 34.5t63 113.5h198q-18 -92 -78.5 -159.5t-148 -104t-185.5 -36.5zM1089 1551l-343 147l38 218l330 -220z" />
    <glyph glyph-name="uni1EDE" unicode="&#x1ede;" horiz-adv-x="1461" 
d="M629 -28q-166 0 -288 71.5t-188 205.5t-66 321q0 185 62 341.5t171 272.5t250.5 180t300.5 64q166 0 287.5 -71.5t188 -205.5t66.5 -321q0 -185 -62 -341.5t-171 -272.5t-250.5 -180t-300.5 -64zM666 191q115 0 205.5 51t154 138.5t97.5 199t34 231.5q0 119 -34.5 208.5
t-106 139.5t-183.5 50q-115 0 -206 -51t-154 -138.5t-96.5 -198.5t-33.5 -232q0 -118 34 -208t105.5 -140t183.5 -50zM1008 1248l28 152q75 0 123 34.5t63 113.5h198q-18 -92 -78.5 -159.5t-148 -104t-185.5 -36.5zM864 1540q45 35 79.5 68.5t34.5 75.5q0 54 -64 54
q-30 0 -63.5 -10.5t-66.5 -26.5l-13 112q39 18 80.5 27.5t85.5 9.5q71 0 119 -35.5t48 -102.5q0 -82 -52.5 -138.5t-128.5 -105.5z" />
    <glyph glyph-name="uni1EE0" unicode="&#x1ee0;" horiz-adv-x="1461" 
d="M629 -28q-166 0 -288 71.5t-188 205.5t-66 321q0 185 62 341.5t171 272.5t250.5 180t300.5 64q166 0 287.5 -71.5t188 -205.5t66.5 -321q0 -185 -62 -341.5t-171 -272.5t-250.5 -180t-300.5 -64zM666 191q115 0 205.5 51t154 138.5t97.5 199t34 231.5q0 119 -34.5 208.5
t-106 139.5t-183.5 50q-115 0 -206 -51t-154 -138.5t-96.5 -198.5t-33.5 -232q0 -118 34 -208t105.5 -140t183.5 -50zM1008 1248l28 152q75 0 123 34.5t63 113.5h198q-18 -92 -78.5 -159.5t-148 -104t-185.5 -36.5zM1083 1564q-43 0 -90 22t-92 43.5t-82 21.5q-33 0 -54 -19
t-27 -52h-152q20 115 74 175t135 60q47 0 91.5 -21.5t86 -43.5t79.5 -22q31 0 50.5 19t25.5 58h157q-22 -124 -72 -182.5t-130 -58.5z" />
    <glyph glyph-name="Ohungarumlaut" unicode="&#x150;" horiz-adv-x="1461" 
d="M629 -28q-166 0 -288 71.5t-188 205.5t-66 321q0 185 62 341.5t171 272.5t250.5 180t300.5 64q166 0 287.5 -71.5t188 -205.5t66.5 -321q0 -185 -62 -341.5t-171 -272.5t-250.5 -180t-300.5 -64zM666 191q115 0 205.5 51t154 138.5t97.5 199t34 231.5q0 119 -34.5 208.5
t-106 139.5t-183.5 50q-115 0 -206 -51t-154 -138.5t-96.5 -198.5t-33.5 -232q0 -118 34 -208t105.5 -140t183.5 -50zM973 1576l181 306h216l-250 -306h-147zM686 1576l166 306h217l-236 -306h-147z" />
    <glyph glyph-name="uni020E" unicode="&#x20e;" horiz-adv-x="1461" 
d="M629 -28q-166 0 -288 71.5t-188 205.5t-66 321q0 185 62 341.5t171 272.5t250.5 180t300.5 64q166 0 287.5 -71.5t188 -205.5t66.5 -321q0 -185 -62 -341.5t-171 -272.5t-250.5 -180t-300.5 -64zM666 191q115 0 205.5 51t154 138.5t97.5 199t34 231.5q0 119 -34.5 208.5
t-106 139.5t-183.5 50q-115 0 -206 -51t-154 -138.5t-96.5 -198.5t-33.5 -232q0 -118 34 -208t105.5 -140t183.5 -50zM610 1559q12 68 57 126.5t117.5 93.5t168.5 35q129 0 193.5 -60.5t64.5 -148.5q0 -11 -1 -22.5t-3 -23.5h-166q3 16 3 28q0 47 -31.5 71.5t-82.5 24.5
q-58 0 -100.5 -31.5t-53.5 -92.5h-166z" />
    <glyph glyph-name="Omacron" unicode="&#x14c;" horiz-adv-x="1461" 
d="M629 -28q-166 0 -288 71.5t-188 205.5t-66 321q0 185 62 341.5t171 272.5t250.5 180t300.5 64q166 0 287.5 -71.5t188 -205.5t66.5 -321q0 -185 -62 -341.5t-171 -272.5t-250.5 -180t-300.5 -64zM666 191q115 0 205.5 51t154 138.5t97.5 199t34 231.5q0 119 -34.5 208.5
t-106 139.5t-183.5 50q-115 0 -206 -51t-154 -138.5t-96.5 -198.5t-33.5 -232q0 -118 34 -208t105.5 -140t183.5 -50zM592 1586l27 146h637l-26 -146h-638z" />
    <glyph glyph-name="uni1E52" unicode="&#x1e52;" horiz-adv-x="1461" 
d="M629 -28q-166 0 -288 71.5t-188 205.5t-66 321q0 185 62 341.5t171 272.5t250.5 180t300.5 64q166 0 287.5 -71.5t188 -205.5t66.5 -321q0 -185 -62 -341.5t-171 -272.5t-250.5 -180t-300.5 -64zM666 191q115 0 205.5 51t154 138.5t97.5 199t34 231.5q0 119 -34.5 208.5
t-106 139.5t-183.5 50q-115 0 -206 -51t-154 -138.5t-96.5 -198.5t-33.5 -232q0 -118 34 -208t105.5 -140t183.5 -50zM592 1586l27 146h637l-26 -146h-638zM801 1849l21 142l370 190l-33 -216z" />
    <glyph glyph-name="uni1E50" unicode="&#x1e50;" horiz-adv-x="1461" 
d="M629 -28q-166 0 -288 71.5t-188 205.5t-66 321q0 185 62 341.5t171 272.5t250.5 180t300.5 64q166 0 287.5 -71.5t188 -205.5t66.5 -321q0 -185 -62 -341.5t-171 -272.5t-250.5 -180t-300.5 -64zM666 191q115 0 205.5 51t154 138.5t97.5 199t34 231.5q0 119 -34.5 208.5
t-106 139.5t-183.5 50q-115 0 -206 -51t-154 -138.5t-96.5 -198.5t-33.5 -232q0 -118 34 -208t105.5 -140t183.5 -50zM592 1586l27 146h637l-26 -146h-638zM1149 1849l-346 116l38 204l334 -190z" />
    <glyph glyph-name="uni01EA" unicode="&#x1ea;" horiz-adv-x="1461" 
d="M629 -28q-166 0 -288 71.5t-188 205.5t-66 321q0 185 62 341.5t171 272.5t250.5 180t300.5 64q166 0 287.5 -71.5t188 -205.5t66.5 -321q0 -185 -62 -341.5t-171 -272.5t-250.5 -180t-300.5 -64zM666 191q115 0 205.5 51t154 138.5t97.5 199t34 231.5q0 119 -34.5 208.5
t-106 139.5t-183.5 50q-115 0 -206 -51t-154 -138.5t-96.5 -198.5t-33.5 -232q0 -118 34 -208t105.5 -140t183.5 -50zM651 10l107 -10q-47 -31 -91.5 -67.5t-73.5 -78t-29 -86.5q0 -73 74 -73q33 0 61 7t58 21l13 -106q-31 -15 -73 -26t-96 -11q-73 0 -120.5 36.5
t-47.5 102.5q0 86 66.5 162t151.5 129z" />
    <glyph glyph-name="Oslash" unicode="&#xd8;" horiz-adv-x="1461" 
d="M1256 1488h197l-1215 -1576h-195zM629 -28q-166 0 -288 71.5t-188 205.5t-66 321q0 185 62 341.5t171 272.5t250.5 180t300.5 64q166 0 287.5 -71.5t188 -205.5t66.5 -321q0 -185 -62 -341.5t-171 -272.5t-250.5 -180t-300.5 -64zM666 191q115 0 205.5 51t154 138.5
t97.5 199t34 231.5q0 119 -34.5 208.5t-106 139.5t-183.5 50q-115 0 -206 -51t-154 -138.5t-96.5 -198.5t-33.5 -232q0 -118 34 -208t105.5 -140t183.5 -50z" />
    <glyph glyph-name="Oslashacute" unicode="&#x1fe;" horiz-adv-x="1461" 
d="M1256 1488h197l-1215 -1576h-195zM629 -28q-166 0 -288 71.5t-188 205.5t-66 321q0 185 62 341.5t171 272.5t250.5 180t300.5 64q166 0 287.5 -71.5t188 -205.5t66.5 -321q0 -185 -62 -341.5t-171 -272.5t-250.5 -180t-300.5 -64zM666 191q115 0 205.5 51t154 138.5
t97.5 199t34 231.5q0 119 -34.5 208.5t-106 139.5t-183.5 50q-115 0 -206 -51t-154 -138.5t-96.5 -198.5t-33.5 -232q0 -118 34 -208t105.5 -140t183.5 -50zM734 1522l21 142l370 190l-33 -216z" />
    <glyph glyph-name="Otilde" unicode="&#xd5;" horiz-adv-x="1461" 
d="M629 -28q-166 0 -288 71.5t-188 205.5t-66 321q0 185 62 341.5t171 272.5t250.5 180t300.5 64q166 0 287.5 -71.5t188 -205.5t66.5 -321q0 -185 -62 -341.5t-171 -272.5t-250.5 -180t-300.5 -64zM666 191q115 0 205.5 51t154 138.5t97.5 199t34 231.5q0 119 -34.5 208.5
t-106 139.5t-183.5 50q-115 0 -206 -51t-154 -138.5t-96.5 -198.5t-33.5 -232q0 -118 34 -208t105.5 -140t183.5 -50zM1083 1564q-43 0 -90 22t-92 43.5t-82 21.5q-33 0 -54 -19t-27 -52h-152q20 115 74 175t135 60q47 0 91.5 -21.5t86 -43.5t79.5 -22q31 0 50.5 19t25.5 58
h157q-22 -124 -72 -182.5t-130 -58.5z" />
    <glyph glyph-name="uni1E4C" unicode="&#x1e4c;" horiz-adv-x="1461" 
d="M629 -28q-166 0 -288 71.5t-188 205.5t-66 321q0 185 62 341.5t171 272.5t250.5 180t300.5 64q166 0 287.5 -71.5t188 -205.5t66.5 -321q0 -185 -62 -341.5t-171 -272.5t-250.5 -180t-300.5 -64zM666 191q115 0 205.5 51t154 138.5t97.5 199t34 231.5q0 119 -34.5 208.5
t-106 139.5t-183.5 50q-115 0 -206 -51t-154 -138.5t-96.5 -198.5t-33.5 -232q0 -118 34 -208t105.5 -140t183.5 -50zM1063 1562q-43 0 -89.5 19t-89.5 38t-78 19q-25 0 -43 -15.5t-23 -48.5h-144q19 101 68 154t126 53q44 0 89 -19.5t87.5 -38.5t79.5 -19q26 0 43.5 17
t22.5 50h144q-15 -104 -65.5 -156.5t-127.5 -52.5zM792 1859l21 142l370 190l-33 -216z" />
    <glyph glyph-name="uni1E4E" unicode="&#x1e4e;" horiz-adv-x="1461" 
d="M629 -28q-166 0 -288 71.5t-188 205.5t-66 321q0 185 62 341.5t171 272.5t250.5 180t300.5 64q166 0 287.5 -71.5t188 -205.5t66.5 -321q0 -185 -62 -341.5t-171 -272.5t-250.5 -180t-300.5 -64zM666 191q115 0 205.5 51t154 138.5t97.5 199t34 231.5q0 119 -34.5 208.5
t-106 139.5t-183.5 50q-115 0 -206 -51t-154 -138.5t-96.5 -198.5t-33.5 -232q0 -118 34 -208t105.5 -140t183.5 -50zM1063 1562q-43 0 -89.5 19t-89.5 38t-78 19q-25 0 -43 -15.5t-23 -48.5h-144q19 101 68 154t126 53q44 0 89 -19.5t87.5 -38.5t79.5 -19q26 0 43.5 17
t22.5 50h144q-15 -104 -65.5 -156.5t-127.5 -52.5zM1068 1911l31 164h180l-30 -164h-181zM685 1911l30 164h181l-31 -164h-180z" />
    <glyph glyph-name="uni022C" unicode="&#x22c;" horiz-adv-x="1461" 
d="M629 -28q-166 0 -288 71.5t-188 205.5t-66 321q0 185 62 341.5t171 272.5t250.5 180t300.5 64q166 0 287.5 -71.5t188 -205.5t66.5 -321q0 -185 -62 -341.5t-171 -272.5t-250.5 -180t-300.5 -64zM666 191q115 0 205.5 51t154 138.5t97.5 199t34 231.5q0 119 -34.5 208.5
t-106 139.5t-183.5 50q-115 0 -206 -51t-154 -138.5t-96.5 -198.5t-33.5 -232q0 -118 34 -208t105.5 -140t183.5 -50zM1063 1562q-43 0 -89.5 19t-89.5 38t-78 19q-25 0 -43 -15.5t-23 -48.5h-144q19 101 68 154t126 53q44 0 89 -19.5t87.5 -38.5t79.5 -19q26 0 43.5 17
t22.5 50h144q-15 -104 -65.5 -156.5t-127.5 -52.5zM650 1923l27 146h637l-26 -146h-638z" />
    <glyph glyph-name="OE" unicode="&#x152;" horiz-adv-x="2017" 
d="M596 -28q-150 0 -265 70t-179 203.5t-64 324.5q0 183 57.5 339t159 272.5t234 181.5t281.5 65q154 0 264.5 -79.5t170 -213t59.5 -293.5q0 -182 -55 -340t-152.5 -277t-228.5 -186t-282 -67zM656 191q118 0 208 52t151.5 141.5t92.5 203.5t31 236q0 115 -33.5 201.5
t-103.5 135t-178 48.5q-112 0 -201 -51t-151.5 -138.5t-95.5 -198.5t-33 -232q0 -118 33.5 -208t102.5 -140t177 -50zM1021 0l246 1400h806l-39 -220h-703l123 102l-206 -1164l-86 102h722l-39 -220h-824zM1281 621l39 220h522l-39 -220h-522z" />
    <glyph glyph-name="P" unicode="P" horiz-adv-x="1138" 
d="M325 685h310q88 0 152 36.5t99 105t35 166.5q0 100 -45.5 154.5t-152.5 54.5h-328l122 102l-231 -1304h-233l246 1400h444q139 0 232.5 -45t140.5 -131t47 -209q0 -139 -42.5 -242t-118 -169.5t-175.5 -99.5t-216 -33h-324z" />
    <glyph glyph-name="Thorn" unicode="&#xde;" horiz-adv-x="1059" 
d="M35 0l248 1400h233l-248 -1400h-233zM251 349l35 198h294q127 0 192 54t65 156q0 49 -20.5 82t-63.5 49.5t-110 16.5h-294l35 198h319q186 0 281 -81.5t95 -228.5q0 -140 -63 -239t-177.5 -152t-268.5 -53h-319z" />
    <glyph glyph-name="Q" unicode="Q" horiz-adv-x="1460" 
d="M629 -28q-166 0 -288 71.5t-188 205.5t-66 321q0 185 62 341.5t171 272.5t250.5 180t300.5 64q166 0 287.5 -71.5t188 -205.5t66.5 -321q0 -173 -62.5 -327.5t-172 -274t-250.5 -188t-299 -68.5zM666 191q115 0 206 54.5t155.5 145t98.5 200t34 220.5q0 119 -35 208.5
t-107.5 139.5t-184.5 50q-115 0 -206 -51t-154 -138.5t-96.5 -198.5t-33.5 -232q0 -118 34 -208t105.5 -140t183.5 -50zM1135 -11l-401 412l162 158l400 -413z" />
    <glyph glyph-name="R" unicode="R" horiz-adv-x="1191" 
d="M53 0l246 1400h433q216 0 324 -89.5t108 -262.5q0 -108 -36.5 -191.5t-97 -145.5t-134.5 -102t-150 -60t-141 -20h-346l30 219h338q95 0 159.5 38t97.5 101t33 138q0 81 -44 131t-151 50h-340l137 108l-233 -1314h-233zM809 0l-209 609l234 50l218 -659h-243z" />
    <glyph glyph-name="Racute" unicode="&#x154;" horiz-adv-x="1191" 
d="M53 0l246 1400h433q216 0 324 -89.5t108 -262.5q0 -108 -36.5 -191.5t-97 -145.5t-134.5 -102t-150 -60t-141 -20h-346l30 219h338q95 0 159.5 38t97.5 101t33 138q0 81 -44 131t-151 50h-340l137 108l-233 -1314h-233zM809 0l-209 609l234 50l218 -659h-243zM617 1522
l21 142l370 190l-33 -216z" />
    <glyph glyph-name="Rcaron" unicode="&#x158;" horiz-adv-x="1191" 
d="M53 0l246 1400h433q216 0 324 -89.5t108 -262.5q0 -108 -36.5 -191.5t-97 -145.5t-134.5 -102t-150 -60t-141 -20h-346l30 219h338q95 0 159.5 38t97.5 101t33 138q0 81 -44 131t-151 50h-340l137 108l-233 -1314h-233zM809 0l-209 609l234 50l218 -659h-243zM773 1496
l-227 182l23 136l233 -145l245 142l-26 -155z" />
    <glyph glyph-name="uni0156" unicode="&#x156;" horiz-adv-x="1191" 
d="M53 0l246 1400h433q216 0 324 -89.5t108 -262.5q0 -108 -36.5 -191.5t-97 -145.5t-134.5 -102t-150 -60t-141 -20h-346l30 219h338q95 0 159.5 38t97.5 101t33 138q0 81 -44 131t-151 50h-340l137 108l-233 -1314h-233zM809 0l-209 609l234 50l218 -659h-243zM448 -543
h-82l96 175h-76l33 186h202l-33 -186z" />
    <glyph glyph-name="uni0210" unicode="&#x210;" horiz-adv-x="1191" 
d="M53 0l246 1400h433q216 0 324 -89.5t108 -262.5q0 -108 -36.5 -191.5t-97 -145.5t-134.5 -102t-150 -60t-141 -20h-346l30 219h338q95 0 159.5 38t97.5 101t33 138q0 81 -44 131t-151 50h-340l137 108l-233 -1314h-233zM809 0l-209 609l234 50l218 -659h-243zM577 1576
l-142 306h214l72 -306h-144zM862 1576l-128 306h213l59 -306h-144z" />
    <glyph glyph-name="uni1E5A" unicode="&#x1e5a;" horiz-adv-x="1191" 
d="M53 0l246 1400h433q216 0 324 -89.5t108 -262.5q0 -108 -36.5 -191.5t-97 -145.5t-134.5 -102t-150 -60t-141 -20h-346l30 219h338q95 0 159.5 38t97.5 101t33 138q0 81 -44 131t-151 50h-340l137 108l-233 -1314h-233zM809 0l-209 609l234 50l218 -659h-243zM390 -351
l36 189h194l-36 -189h-194z" />
    <glyph glyph-name="uni0212" unicode="&#x212;" horiz-adv-x="1191" 
d="M53 0l246 1400h433q216 0 324 -89.5t108 -262.5q0 -108 -36.5 -191.5t-97 -145.5t-134.5 -102t-150 -60t-141 -20h-346l30 219h338q95 0 159.5 38t97.5 101t33 138q0 81 -44 131t-151 50h-340l137 108l-233 -1314h-233zM809 0l-209 609l234 50l218 -659h-243zM494 1559
q12 68 57 126.5t117.5 93.5t168.5 35q129 0 193.5 -60.5t64.5 -148.5q0 -11 -1 -22.5t-3 -23.5h-166q3 16 3 28q0 47 -31.5 71.5t-82.5 24.5q-58 0 -100.5 -31.5t-53.5 -92.5h-166z" />
    <glyph glyph-name="uni1E5E" unicode="&#x1e5e;" horiz-adv-x="1191" 
d="M53 0l246 1400h433q216 0 324 -89.5t108 -262.5q0 -108 -36.5 -191.5t-97 -145.5t-134.5 -102t-150 -60t-141 -20h-346l30 219h338q95 0 159.5 38t97.5 101t33 138q0 81 -44 131t-151 50h-340l137 108l-233 -1314h-233zM809 0l-209 609l234 50l218 -659h-243zM171 -337
l30 155h635l-31 -155h-634z" />
    <glyph glyph-name="S" unicode="S" horiz-adv-x="1112" 
d="M439 -28q-142 0 -250.5 30t-177.5 68l74 266q61 -53 157.5 -99t226.5 -46q81 0 145 20t100.5 63t36.5 113q0 65 -31.5 106.5t-91 72.5t-144.5 62q-70 26 -131 55t-106 69t-70 96t-25 136q0 85 34.5 164t102 142.5t168 100.5t230.5 37q141 0 249.5 -34t168.5 -70l-66 -240
q-95 62 -180 94t-190 32q-68 0 -130.5 -19t-101.5 -60.5t-39 -108.5q0 -79 64.5 -118t167.5 -77q69 -24 137 -52.5t124 -71t90 -106.5t34 -161q0 -81 -28.5 -163t-95.5 -150t-178 -109.5t-274 -41.5z" />
    <glyph glyph-name="Sacute" unicode="&#x15a;" horiz-adv-x="1112" 
d="M439 -28q-142 0 -250.5 30t-177.5 68l74 266q61 -53 157.5 -99t226.5 -46q81 0 145 20t100.5 63t36.5 113q0 65 -31.5 106.5t-91 72.5t-144.5 62q-70 26 -131 55t-106 69t-70 96t-25 136q0 85 34.5 164t102 142.5t168 100.5t230.5 37q141 0 249.5 -34t168.5 -70l-66 -240
q-95 62 -180 94t-190 32q-68 0 -130.5 -19t-101.5 -60.5t-39 -108.5q0 -79 64.5 -118t167.5 -77q69 -24 137 -52.5t124 -71t90 -106.5t34 -161q0 -81 -28.5 -163t-95.5 -150t-178 -109.5t-274 -41.5zM559 1522l21 142l370 190l-33 -216z" />
    <glyph glyph-name="uni1E64" unicode="&#x1e64;" horiz-adv-x="1112" 
d="M439 -28q-142 0 -250.5 30t-177.5 68l74 266q61 -53 157.5 -99t226.5 -46q81 0 145 20t100.5 63t36.5 113q0 65 -31.5 106.5t-91 72.5t-144.5 62q-70 26 -131 55t-106 69t-70 96t-25 136q0 85 34.5 164t102 142.5t168 100.5t230.5 37q141 0 249.5 -34t168.5 -70l-66 -240
q-95 62 -180 94t-190 32q-68 0 -130.5 -19t-101.5 -60.5t-39 -108.5q0 -79 64.5 -118t167.5 -77q69 -24 137 -52.5t124 -71t90 -106.5t34 -161q0 -81 -28.5 -163t-95.5 -150t-178 -109.5t-274 -41.5zM559 1522l21 142l370 190l-33 -216zM708 1947l34 189h198l-34 -189h-198z
" />
    <glyph glyph-name="Scaron" unicode="&#x160;" horiz-adv-x="1112" 
d="M439 -28q-142 0 -250.5 30t-177.5 68l74 266q61 -53 157.5 -99t226.5 -46q81 0 145 20t100.5 63t36.5 113q0 65 -31.5 106.5t-91 72.5t-144.5 62q-70 26 -131 55t-106 69t-70 96t-25 136q0 85 34.5 164t102 142.5t168 100.5t230.5 37q141 0 249.5 -34t168.5 -70l-66 -240
q-95 62 -180 94t-190 32q-68 0 -130.5 -19t-101.5 -60.5t-39 -108.5q0 -79 64.5 -118t167.5 -77q69 -24 137 -52.5t124 -71t90 -106.5t34 -161q0 -81 -28.5 -163t-95.5 -150t-178 -109.5t-274 -41.5zM727 1524l-216 223l29 145l227 -164l281 164l-29 -167z" />
    <glyph glyph-name="uni1E66" unicode="&#x1e66;" horiz-adv-x="1112" 
d="M439 -28q-142 0 -250.5 30t-177.5 68l74 266q61 -53 157.5 -99t226.5 -46q81 0 145 20t100.5 63t36.5 113q0 65 -31.5 106.5t-91 72.5t-144.5 62q-70 26 -131 55t-106 69t-70 96t-25 136q0 85 34.5 164t102 142.5t168 100.5t230.5 37q141 0 249.5 -34t168.5 -70l-66 -240
q-95 62 -180 94t-190 32q-68 0 -130.5 -19t-101.5 -60.5t-39 -108.5q0 -79 64.5 -118t167.5 -77q69 -24 137 -52.5t124 -71t90 -106.5t34 -161q0 -81 -28.5 -163t-95.5 -150t-178 -109.5t-274 -41.5zM715 1496l-227 182l23 136l233 -145l245 142l-26 -155zM682 1881l34 189
h198l-34 -189h-198z" />
    <glyph glyph-name="Scedilla" unicode="&#x15e;" horiz-adv-x="1112" 
d="M439 -28q-142 0 -250.5 30t-177.5 68l74 266q61 -53 157.5 -99t226.5 -46q81 0 145 20t100.5 63t36.5 113q0 65 -31.5 106.5t-91 72.5t-144.5 62q-70 26 -131 55t-106 69t-70 96t-25 136q0 85 34.5 164t102 142.5t168 100.5t230.5 37q141 0 249.5 -34t168.5 -70l-66 -240
q-95 62 -180 94t-190 32q-68 0 -130.5 -19t-101.5 -60.5t-39 -108.5q0 -79 64.5 -118t167.5 -77q69 -24 137 -52.5t124 -71t90 -106.5t34 -161q0 -81 -28.5 -163t-95.5 -150t-178 -109.5t-274 -41.5zM461 -158l-68 30q27 9 52.5 14.5t52.5 5.5q72 0 112.5 -36.5t40.5 -103.5
q0 -97 -74 -159t-184 -62q-52 0 -90.5 11.5t-64.5 26.5l55 111q28 -15 57.5 -24.5t65.5 -9.5q51 0 80 23t29 58q0 62 -90 62q-24 0 -47.5 -3t-51.5 -11l95 225h107z" />
    <glyph glyph-name="Scircumflex" unicode="&#x15c;" horiz-adv-x="1112" 
d="M439 -28q-142 0 -250.5 30t-177.5 68l74 266q61 -53 157.5 -99t226.5 -46q81 0 145 20t100.5 63t36.5 113q0 65 -31.5 106.5t-91 72.5t-144.5 62q-70 26 -131 55t-106 69t-70 96t-25 136q0 85 34.5 164t102 142.5t168 100.5t230.5 37q141 0 249.5 -34t168.5 -70l-66 -240
q-95 62 -180 94t-190 32q-68 0 -130.5 -19t-101.5 -60.5t-39 -108.5q0 -79 64.5 -118t167.5 -77q69 -24 137 -52.5t124 -71t90 -106.5t34 -161q0 -81 -28.5 -163t-95.5 -150t-178 -109.5t-274 -41.5zM983 1496l-236 139l-239 -115l24 138l247 159l227 -183z" />
    <glyph glyph-name="uni0218" unicode="&#x218;" horiz-adv-x="1112" 
d="M439 -28q-142 0 -250.5 30t-177.5 68l74 266q61 -53 157.5 -99t226.5 -46q81 0 145 20t100.5 63t36.5 113q0 65 -31.5 106.5t-91 72.5t-144.5 62q-70 26 -131 55t-106 69t-70 96t-25 136q0 85 34.5 164t102 142.5t168 100.5t230.5 37q141 0 249.5 -34t168.5 -70l-66 -240
q-95 62 -180 94t-190 32q-68 0 -130.5 -19t-101.5 -60.5t-39 -108.5q0 -79 64.5 -118t167.5 -77q69 -24 137 -52.5t124 -71t90 -106.5t34 -161q0 -81 -28.5 -163t-95.5 -150t-178 -109.5t-274 -41.5zM379 -543h-82l96 175h-76l33 186h202l-33 -186z" />
    <glyph glyph-name="uni1E60" unicode="&#x1e60;" horiz-adv-x="1112" 
d="M439 -28q-142 0 -250.5 30t-177.5 68l74 266q61 -53 157.5 -99t226.5 -46q81 0 145 20t100.5 63t36.5 113q0 65 -31.5 106.5t-91 72.5t-144.5 62q-70 26 -131 55t-106 69t-70 96t-25 136q0 85 34.5 164t102 142.5t168 100.5t230.5 37q141 0 249.5 -34t168.5 -70l-66 -240
q-95 62 -180 94t-190 32q-68 0 -130.5 -19t-101.5 -60.5t-39 -108.5q0 -79 64.5 -118t167.5 -77q69 -24 137 -52.5t124 -71t90 -106.5t34 -161q0 -81 -28.5 -163t-95.5 -150t-178 -109.5t-274 -41.5zM638 1583l34 189h198l-34 -189h-198z" />
    <glyph glyph-name="uni1E62" unicode="&#x1e62;" horiz-adv-x="1112" 
d="M439 -28q-142 0 -250.5 30t-177.5 68l74 266q61 -53 157.5 -99t226.5 -46q81 0 145 20t100.5 63t36.5 113q0 65 -31.5 106.5t-91 72.5t-144.5 62q-70 26 -131 55t-106 69t-70 96t-25 136q0 85 34.5 164t102 142.5t168 100.5t230.5 37q141 0 249.5 -34t168.5 -70l-66 -240
q-95 62 -180 94t-190 32q-68 0 -130.5 -19t-101.5 -60.5t-39 -108.5q0 -79 64.5 -118t167.5 -77q69 -24 137 -52.5t124 -71t90 -106.5t34 -161q0 -81 -28.5 -163t-95.5 -150t-178 -109.5t-274 -41.5zM321 -351l36 189h194l-36 -189h-194z" />
    <glyph glyph-name="uni1E68" unicode="&#x1e68;" horiz-adv-x="1112" 
d="M439 -28q-142 0 -250.5 30t-177.5 68l74 266q61 -53 157.5 -99t226.5 -46q81 0 145 20t100.5 63t36.5 113q0 65 -31.5 106.5t-91 72.5t-144.5 62q-70 26 -131 55t-106 69t-70 96t-25 136q0 85 34.5 164t102 142.5t168 100.5t230.5 37q141 0 249.5 -34t168.5 -70l-66 -240
q-95 62 -180 94t-190 32q-68 0 -130.5 -19t-101.5 -60.5t-39 -108.5q0 -79 64.5 -118t167.5 -77q69 -24 137 -52.5t124 -71t90 -106.5t34 -161q0 -81 -28.5 -163t-95.5 -150t-178 -109.5t-274 -41.5zM638 1583l34 189h198l-34 -189h-198zM321 -351l36 189h194l-36 -189h-194
z" />
    <glyph glyph-name="uni1E9E" unicode="&#x1e9e;" horiz-adv-x="1217" 
d="M40 0l167 941q30 171 113 278.5t204 158t265 50.5q123 0 226 -29.5t179 -72.5l-41 -188l-340 -416l-103 97q193 -9 305 -108t112 -272q0 -143 -65 -248t-177 -162t-254 -57q-51 0 -106 8t-99 20l39 215q32 -11 71 -17.5t82 -6.5q110 0 181.5 62.5t71.5 177.5
q0 101 -62 152t-169 58l-35 2l33 178l400 479l-16 -138q-49 25 -106 40t-132 15q-135 0 -229 -76t-123 -240l-160 -901h-232z" />
    <glyph glyph-name="uni018F" unicode="&#x18f;" horiz-adv-x="1374" 
d="M596 191q116 0 205.5 52t150.5 141t92.5 202.5t31.5 237.5q0 182 -93 283.5t-276 101.5q-113 0 -227 -29.5t-221 -76.5l13 211q106 51 233.5 82.5t262.5 31.5q183 0 308 -72.5t189.5 -202.5t64.5 -300q0 -177 -57 -335.5t-160.5 -281.5t-244 -193.5t-307.5 -70.5
q-232 0 -368.5 129t-136.5 357q0 66 15 142.5t39 133.5h1109l-37 -206h-875q-2 -17 -3.5 -32.5t-1.5 -30.5q1 -122 72 -198t222 -76z" />
    <glyph glyph-name="T" unicode="T" horiz-adv-x="1098" 
d="M330 0l213 1219h232l-213 -1219h-232zM164 1180l39 220h978l-39 -220h-978z" />
    <glyph glyph-name="Tbar" unicode="&#x166;" horiz-adv-x="1098" 
d="M186 627l27 151h739l-27 -151h-739zM330 0l213 1219h232l-213 -1219h-232zM164 1180l39 220h978l-39 -220h-978z" />
    <glyph glyph-name="Tcaron" unicode="&#x164;" horiz-adv-x="1098" 
d="M330 0l213 1219h232l-213 -1219h-232zM164 1180l39 220h978l-39 -220h-978zM703 1496l-227 182l23 136l233 -145l245 142l-26 -155z" />
    <glyph glyph-name="uni0162" unicode="&#x162;" horiz-adv-x="1098" 
d="M330 0l213 1219h232l-213 -1219h-232zM164 1180l39 220h978l-39 -220h-978zM428 -158l-68 30q27 9 52.5 14.5t52.5 5.5q72 0 112.5 -36.5t40.5 -103.5q0 -97 -74 -159t-184 -62q-52 0 -90.5 11.5t-64.5 26.5l55 111q28 -15 57.5 -24.5t65.5 -9.5q51 0 80 23t29 58
q0 62 -90 62q-24 0 -47.5 -3t-51.5 -11l95 225h107z" />
    <glyph glyph-name="uni021A" unicode="&#x21a;" horiz-adv-x="1098" 
d="M330 0l213 1219h232l-213 -1219h-232zM164 1180l39 220h978l-39 -220h-978zM346 -543h-82l96 175h-76l33 186h202l-33 -186z" />
    <glyph glyph-name="uni1E6C" unicode="&#x1e6c;" horiz-adv-x="1098" 
d="M330 0l213 1219h232l-213 -1219h-232zM164 1180l39 220h978l-39 -220h-978zM288 -351l36 189h194l-36 -189h-194z" />
    <glyph glyph-name="uni1E6E" unicode="&#x1e6e;" horiz-adv-x="1098" 
d="M330 0l213 1219h232l-213 -1219h-232zM164 1180l39 220h978l-39 -220h-978zM69 -337l30 155h635l-31 -155h-634z" />
    <glyph glyph-name="U" unicode="U" horiz-adv-x="1370" 
d="M578 -28q-229 0 -340 118.5t-111 327.5q0 28 4 79t13 101l142 802h231l-126 -714q-9 -51 -15.5 -106t-6.5 -102q1 -83 23.5 -148t75.5 -102t147 -37q102 0 171.5 42.5t114.5 113.5t71.5 159t42.5 180l126 714h232l-142 -802q-33 -189 -116 -330t-217 -218.5t-320 -77.5z
" />
    <glyph glyph-name="Uacute" unicode="&#xda;" horiz-adv-x="1370" 
d="M578 -28q-229 0 -340 118.5t-111 327.5q0 28 4 79t13 101l142 802h231l-126 -714q-9 -51 -15.5 -106t-6.5 -102q1 -83 23.5 -148t75.5 -102t147 -37q102 0 171.5 42.5t114.5 113.5t71.5 159t42.5 180l126 714h232l-142 -802q-33 -189 -116 -330t-217 -218.5t-320 -77.5z
M684 1551l30 155l391 213l-37 -240z" />
    <glyph glyph-name="Ubreve" unicode="&#x16c;" horiz-adv-x="1370" 
d="M578 -28q-229 0 -340 118.5t-111 327.5q0 28 4 79t13 101l142 802h231l-126 -714q-9 -51 -15.5 -106t-6.5 -102q1 -83 23.5 -148t75.5 -102t147 -37q102 0 171.5 42.5t114.5 113.5t71.5 159t42.5 180l126 714h232l-142 -802q-33 -189 -116 -330t-217 -218.5t-320 -77.5z
M856 1529q-130 0 -196 61.5t-66 148.5q0 11 1.5 22.5t2.5 22.5h166q-1 -6 -2 -13.5t-1 -15.5q0 -46 32 -70t84 -24q59 0 102.5 31.5t53.5 91.5h169q-19 -113 -109.5 -184t-236.5 -71z" />
    <glyph glyph-name="Ucircumflex" unicode="&#xdb;" horiz-adv-x="1370" 
d="M578 -28q-229 0 -340 118.5t-111 327.5q0 28 4 79t13 101l142 802h231l-126 -714q-9 -51 -15.5 -106t-6.5 -102q1 -83 23.5 -148t75.5 -102t147 -37q102 0 171.5 42.5t114.5 113.5t71.5 159t42.5 180l126 714h232l-142 -802q-33 -189 -116 -330t-217 -218.5t-320 -77.5z
M633 1545l32 149l261 196l217 -223l-29 -145l-227 164z" />
    <glyph glyph-name="uni0214" unicode="&#x214;" horiz-adv-x="1370" 
d="M578 -28q-229 0 -340 118.5t-111 327.5q0 28 4 79t13 101l142 802h231l-126 -714q-9 -51 -15.5 -106t-6.5 -102q1 -83 23.5 -148t75.5 -102t147 -37q102 0 171.5 42.5t114.5 113.5t71.5 159t42.5 180l126 714h232l-142 -802q-33 -189 -116 -330t-217 -218.5t-320 -77.5z
M646 1576l-142 306h214l72 -306h-144zM931 1576l-128 306h213l59 -306h-144z" />
    <glyph glyph-name="Udieresis" unicode="&#xdc;" horiz-adv-x="1370" 
d="M578 -28q-229 0 -340 118.5t-111 327.5q0 28 4 79t13 101l142 802h231l-126 -714q-9 -51 -15.5 -106t-6.5 -102q1 -83 23.5 -148t75.5 -102t147 -37q102 0 171.5 42.5t114.5 113.5t71.5 159t42.5 180l126 714h232l-142 -802q-33 -189 -116 -330t-217 -218.5t-320 -77.5z
M583 1589l34 173h181l-34 -173h-181zM970 1589l34 173h181l-34 -173h-181z" />
    <glyph glyph-name="uni1EE4" unicode="&#x1ee4;" horiz-adv-x="1370" 
d="M578 -28q-229 0 -340 118.5t-111 327.5q0 28 4 79t13 101l142 802h231l-126 -714q-9 -51 -15.5 -106t-6.5 -102q1 -83 23.5 -148t75.5 -102t147 -37q102 0 171.5 42.5t114.5 113.5t71.5 159t42.5 180l126 714h232l-142 -802q-33 -189 -116 -330t-217 -218.5t-320 -77.5z
M409 -351l36 189h194l-36 -189h-194z" />
    <glyph glyph-name="Ugrave" unicode="&#xd9;" horiz-adv-x="1370" 
d="M578 -28q-229 0 -340 118.5t-111 327.5q0 28 4 79t13 101l142 802h231l-126 -714q-9 -51 -15.5 -106t-6.5 -102q1 -83 23.5 -148t75.5 -102t147 -37q102 0 171.5 42.5t114.5 113.5t71.5 159t42.5 180l126 714h232l-142 -802q-33 -189 -116 -330t-217 -218.5t-320 -77.5z
M1041 1551l-343 147l38 218l330 -220z" />
    <glyph glyph-name="uni1EE6" unicode="&#x1ee6;" horiz-adv-x="1370" 
d="M578 -28q-229 0 -340 118.5t-111 327.5q0 28 4 79t13 101l142 802h231l-126 -714q-9 -51 -15.5 -106t-6.5 -102q1 -83 23.5 -148t75.5 -102t147 -37q102 0 171.5 42.5t114.5 113.5t71.5 159t42.5 180l126 714h232l-142 -802q-33 -189 -116 -330t-217 -218.5t-320 -77.5z
M816 1540q45 35 79.5 68.5t34.5 75.5q0 54 -64 54q-30 0 -63.5 -10.5t-66.5 -26.5l-13 112q39 18 80.5 27.5t85.5 9.5q71 0 119 -35.5t48 -102.5q0 -82 -52.5 -138.5t-128.5 -105.5z" />
    <glyph glyph-name="Uhorn" unicode="&#x1af;" horiz-adv-x="1370" 
d="M578 -28q-229 0 -340 118.5t-111 327.5q0 28 4 79t13 101l142 802h231l-126 -714q-9 -51 -15.5 -106t-6.5 -102q1 -83 23.5 -148t75.5 -102t147 -37q102 0 171.5 42.5t114.5 113.5t71.5 159t42.5 180l126 714h232l-142 -802q-33 -189 -116 -330t-217 -218.5t-320 -77.5z
M1210 1248l28 152q75 0 123 34.5t63 113.5h198q-18 -92 -78.5 -159.5t-148 -104t-185.5 -36.5z" />
    <glyph glyph-name="uni1EE8" unicode="&#x1ee8;" horiz-adv-x="1370" 
d="M578 -28q-229 0 -340 118.5t-111 327.5q0 28 4 79t13 101l142 802h231l-126 -714q-9 -51 -15.5 -106t-6.5 -102q1 -83 23.5 -148t75.5 -102t147 -37q102 0 171.5 42.5t114.5 113.5t71.5 159t42.5 180l126 714h232l-142 -802q-33 -189 -116 -330t-217 -218.5t-320 -77.5z
M1210 1248l28 152q75 0 123 34.5t63 113.5h198q-18 -92 -78.5 -159.5t-148 -104t-185.5 -36.5zM684 1551l30 155l391 213l-37 -240z" />
    <glyph glyph-name="uni1EF0" unicode="&#x1ef0;" horiz-adv-x="1370" 
d="M578 -28q-229 0 -340 118.5t-111 327.5q0 28 4 79t13 101l142 802h231l-126 -714q-9 -51 -15.5 -106t-6.5 -102q1 -83 23.5 -148t75.5 -102t147 -37q102 0 171.5 42.5t114.5 113.5t71.5 159t42.5 180l126 714h232l-142 -802q-33 -189 -116 -330t-217 -218.5t-320 -77.5z
M1210 1248l28 152q75 0 123 34.5t63 113.5h198q-18 -92 -78.5 -159.5t-148 -104t-185.5 -36.5zM409 -351l36 189h194l-36 -189h-194z" />
    <glyph glyph-name="uni1EEA" unicode="&#x1eea;" horiz-adv-x="1370" 
d="M578 -28q-229 0 -340 118.5t-111 327.5q0 28 4 79t13 101l142 802h231l-126 -714q-9 -51 -15.5 -106t-6.5 -102q1 -83 23.5 -148t75.5 -102t147 -37q102 0 171.5 42.5t114.5 113.5t71.5 159t42.5 180l126 714h232l-142 -802q-33 -189 -116 -330t-217 -218.5t-320 -77.5z
M1210 1248l28 152q75 0 123 34.5t63 113.5h198q-18 -92 -78.5 -159.5t-148 -104t-185.5 -36.5zM1041 1551l-343 147l38 218l330 -220z" />
    <glyph glyph-name="uni1EEC" unicode="&#x1eec;" horiz-adv-x="1370" 
d="M578 -28q-229 0 -340 118.5t-111 327.5q0 28 4 79t13 101l142 802h231l-126 -714q-9 -51 -15.5 -106t-6.5 -102q1 -83 23.5 -148t75.5 -102t147 -37q102 0 171.5 42.5t114.5 113.5t71.5 159t42.5 180l126 714h232l-142 -802q-33 -189 -116 -330t-217 -218.5t-320 -77.5z
M1210 1248l28 152q75 0 123 34.5t63 113.5h198q-18 -92 -78.5 -159.5t-148 -104t-185.5 -36.5zM816 1540q45 35 79.5 68.5t34.5 75.5q0 54 -64 54q-30 0 -63.5 -10.5t-66.5 -26.5l-13 112q39 18 80.5 27.5t85.5 9.5q71 0 119 -35.5t48 -102.5q0 -82 -52.5 -138.5
t-128.5 -105.5z" />
    <glyph glyph-name="uni1EEE" unicode="&#x1eee;" horiz-adv-x="1370" 
d="M578 -28q-229 0 -340 118.5t-111 327.5q0 28 4 79t13 101l142 802h231l-126 -714q-9 -51 -15.5 -106t-6.5 -102q1 -83 23.5 -148t75.5 -102t147 -37q102 0 171.5 42.5t114.5 113.5t71.5 159t42.5 180l126 714h232l-142 -802q-33 -189 -116 -330t-217 -218.5t-320 -77.5z
M1210 1248l28 152q75 0 123 34.5t63 113.5h198q-18 -92 -78.5 -159.5t-148 -104t-185.5 -36.5zM1035 1564q-43 0 -90 22t-92 43.5t-82 21.5q-33 0 -54 -19t-27 -52h-152q20 115 74 175t135 60q47 0 91.5 -21.5t86 -43.5t79.5 -22q31 0 50.5 19t25.5 58h157
q-22 -124 -72 -182.5t-130 -58.5z" />
    <glyph glyph-name="Uhungarumlaut" unicode="&#x170;" horiz-adv-x="1370" 
d="M578 -28q-229 0 -340 118.5t-111 327.5q0 28 4 79t13 101l142 802h231l-126 -714q-9 -51 -15.5 -106t-6.5 -102q1 -83 23.5 -148t75.5 -102t147 -37q102 0 171.5 42.5t114.5 113.5t71.5 159t42.5 180l126 714h232l-142 -802q-33 -189 -116 -330t-217 -218.5t-320 -77.5z
M925 1576l181 306h216l-250 -306h-147zM638 1576l166 306h217l-236 -306h-147z" />
    <glyph glyph-name="uni0216" unicode="&#x216;" horiz-adv-x="1370" 
d="M578 -28q-229 0 -340 118.5t-111 327.5q0 28 4 79t13 101l142 802h231l-126 -714q-9 -51 -15.5 -106t-6.5 -102q1 -83 23.5 -148t75.5 -102t147 -37q102 0 171.5 42.5t114.5 113.5t71.5 159t42.5 180l126 714h232l-142 -802q-33 -189 -116 -330t-217 -218.5t-320 -77.5z
M562 1559q12 68 57 126.5t117.5 93.5t168.5 35q129 0 193.5 -60.5t64.5 -148.5q0 -11 -1 -22.5t-3 -23.5h-166q3 16 3 28q0 47 -31.5 71.5t-82.5 24.5q-58 0 -100.5 -31.5t-53.5 -92.5h-166z" />
    <glyph glyph-name="Umacron" unicode="&#x16a;" horiz-adv-x="1370" 
d="M578 -28q-229 0 -340 118.5t-111 327.5q0 28 4 79t13 101l142 802h231l-126 -714q-9 -51 -15.5 -106t-6.5 -102q1 -83 23.5 -148t75.5 -102t147 -37q102 0 171.5 42.5t114.5 113.5t71.5 159t42.5 180l126 714h232l-142 -802q-33 -189 -116 -330t-217 -218.5t-320 -77.5z
M544 1586l27 146h637l-26 -146h-638z" />
    <glyph glyph-name="uni1E7A" unicode="&#x1e7a;" horiz-adv-x="1370" 
d="M578 -28q-229 0 -340 118.5t-111 327.5q0 28 4 79t13 101l142 802h231l-126 -714q-9 -51 -15.5 -106t-6.5 -102q1 -83 23.5 -148t75.5 -102t147 -37q102 0 171.5 42.5t114.5 113.5t71.5 159t42.5 180l126 714h232l-142 -802q-33 -189 -116 -330t-217 -218.5t-320 -77.5z
M544 1586l27 146h637l-26 -146h-638zM1029 1901l31 164h180l-30 -164h-181zM646 1901l30 164h181l-31 -164h-180z" />
    <glyph glyph-name="Uogonek" unicode="&#x172;" horiz-adv-x="1370" 
d="M578 -28q-229 0 -340 118.5t-111 327.5q0 28 4 79t13 101l142 802h231l-126 -714q-9 -51 -15.5 -106t-6.5 -102q1 -83 23.5 -148t75.5 -102t147 -37q102 0 171.5 42.5t114.5 113.5t71.5 159t42.5 180l126 714h232l-142 -802q-33 -189 -116 -330t-217 -218.5t-320 -77.5z
M632 10l107 -10q-47 -31 -91.5 -67.5t-73.5 -78t-29 -86.5q0 -73 74 -73q33 0 61 7t58 21l13 -106q-31 -15 -73 -26t-96 -11q-73 0 -120.5 36.5t-47.5 102.5q0 86 66.5 162t151.5 129z" />
    <glyph glyph-name="Uring" unicode="&#x16e;" horiz-adv-x="1370" 
d="M578 -28q-229 0 -340 118.5t-111 327.5q0 28 4 79t13 101l142 802h231l-126 -714q-9 -51 -15.5 -106t-6.5 -102q1 -83 23.5 -148t75.5 -102t147 -37q102 0 171.5 42.5t114.5 113.5t71.5 159t42.5 180l126 714h232l-142 -802q-33 -189 -116 -330t-217 -218.5t-320 -77.5z
M857 1509q-86 0 -130 47t-44 113q0 64 32 116.5t85 83.5t115 31q86 0 129.5 -47t43.5 -114q0 -65 -31 -117t-83.5 -82.5t-116.5 -30.5zM868 1607q46 0 77 36t30 79q-1 35 -20.5 56.5t-51.5 21.5q-43 0 -75 -34t-32 -81q0 -36 21 -57t51 -21z" />
    <glyph glyph-name="Utilde" unicode="&#x168;" horiz-adv-x="1370" 
d="M578 -28q-229 0 -340 118.5t-111 327.5q0 28 4 79t13 101l142 802h231l-126 -714q-9 -51 -15.5 -106t-6.5 -102q1 -83 23.5 -148t75.5 -102t147 -37q102 0 171.5 42.5t114.5 113.5t71.5 159t42.5 180l126 714h232l-142 -802q-33 -189 -116 -330t-217 -218.5t-320 -77.5z
M1035 1564q-43 0 -90 22t-92 43.5t-82 21.5q-33 0 -54 -19t-27 -52h-152q20 115 74 175t135 60q47 0 91.5 -21.5t86 -43.5t79.5 -22q31 0 50.5 19t25.5 58h157q-22 -124 -72 -182.5t-130 -58.5z" />
    <glyph glyph-name="uni1E78" unicode="&#x1e78;" horiz-adv-x="1370" 
d="M578 -28q-229 0 -340 118.5t-111 327.5q0 28 4 79t13 101l142 802h231l-126 -714q-9 -51 -15.5 -106t-6.5 -102q1 -83 23.5 -148t75.5 -102t147 -37q102 0 171.5 42.5t114.5 113.5t71.5 159t42.5 180l126 714h232l-142 -802q-33 -189 -116 -330t-217 -218.5t-320 -77.5z
M1015 1562q-43 0 -89.5 19t-89.5 38t-78 19q-25 0 -43 -15.5t-23 -48.5h-144q19 101 68 154t126 53q44 0 89 -19.5t87.5 -38.5t79.5 -19q26 0 43.5 17t22.5 50h144q-15 -104 -65.5 -156.5t-127.5 -52.5zM744 1859l21 142l370 190l-33 -216z" />
    <glyph glyph-name="V" unicode="V" horiz-adv-x="1245" 
d="M373 0l-229 1400h242l196 -1230l-63 10l607 1220h241l-715 -1400h-279z" />
    <glyph glyph-name="W" unicode="W" horiz-adv-x="1835" 
d="M301 0l-123 1400h242l84 -1160l-52 10l523 1140h181l128 -1132l-53 7l483 1135h241l-631 -1400h-210l-130 1115l58 -9l-519 -1106h-222z" />
    <glyph glyph-name="Wacute" unicode="&#x1e82;" horiz-adv-x="1835" 
d="M301 0l-123 1400h242l84 -1160l-52 10l523 1140h181l128 -1132l-53 7l483 1135h241l-631 -1400h-210l-130 1115l58 -9l-519 -1106h-222zM921 1522l21 142l370 190l-33 -216z" />
    <glyph glyph-name="Wcircumflex" unicode="&#x174;" horiz-adv-x="1835" 
d="M301 0l-123 1400h242l84 -1160l-52 10l523 1140h181l128 -1132l-53 7l483 1135h241l-631 -1400h-210l-130 1115l58 -9l-519 -1106h-222zM1344 1496l-236 139l-239 -115l24 138l247 159l227 -183z" />
    <glyph glyph-name="Wdieresis" unicode="&#x1e84;" horiz-adv-x="1835" 
d="M301 0l-123 1400h242l84 -1160l-52 10l523 1140h181l128 -1132l-53 7l483 1135h241l-631 -1400h-210l-130 1115l58 -9l-519 -1106h-222zM1197 1574l31 164h180l-30 -164h-181zM814 1574l30 164h181l-31 -164h-180z" />
    <glyph glyph-name="Wgrave" unicode="&#x1e80;" horiz-adv-x="1835" 
d="M301 0l-123 1400h242l84 -1160l-52 10l523 1140h181l128 -1132l-53 7l483 1135h241l-631 -1400h-210l-130 1115l58 -9l-519 -1106h-222zM1269 1522l-346 116l38 204l334 -190z" />
    <glyph glyph-name="X" unicode="X" horiz-adv-x="1193" 
d="M-91 0l607 755l95 -181l-438 -574h-264zM742 725l338 -725h-266l-238 551l-84 152l-317 697h268l217 -538zM722 677l-94 166l412 557h264z" />
    <glyph glyph-name="Y" unicode="Y" horiz-adv-x="1165" 
d="M356 0l128 732l22 -199l-356 867h245l267 -665l-101 13l481 652h246l-652 -854l82 186l-129 -732h-233z" />
    <glyph glyph-name="Yacute" unicode="&#xdd;" horiz-adv-x="1165" 
d="M356 0l128 732l22 -199l-356 867h245l267 -665l-101 13l481 652h246l-652 -854l82 186l-129 -732h-233zM572 1551l30 155l391 213l-37 -240z" />
    <glyph glyph-name="Ycircumflex" unicode="&#x176;" horiz-adv-x="1165" 
d="M356 0l128 732l22 -199l-356 867h245l267 -665l-101 13l481 652h246l-652 -854l82 186l-129 -732h-233zM997 1496l-236 139l-239 -115l24 138l247 159l227 -183z" />
    <glyph glyph-name="Ydieresis" unicode="&#x178;" horiz-adv-x="1165" 
d="M356 0l128 732l22 -199l-356 867h245l267 -665l-101 13l481 652h246l-652 -854l82 186l-129 -732h-233zM471 1589l34 173h181l-34 -173h-181zM858 1589l34 173h181l-34 -173h-181z" />
    <glyph glyph-name="uni1E8E" unicode="&#x1e8e;" horiz-adv-x="1165" 
d="M356 0l128 732l22 -199l-356 867h245l267 -665l-101 13l481 652h246l-652 -854l82 186l-129 -732h-233zM652 1583l34 189h198l-34 -189h-198z" />
    <glyph glyph-name="uni1EF4" unicode="&#x1ef4;" horiz-adv-x="1165" 
d="M356 0l128 732l22 -199l-356 867h245l267 -665l-101 13l481 652h246l-652 -854l82 186l-129 -732h-233zM315 -351l36 189h194l-36 -189h-194z" />
    <glyph glyph-name="Ygrave" unicode="&#x1ef2;" horiz-adv-x="1165" 
d="M356 0l128 732l22 -199l-356 867h245l267 -665l-101 13l481 652h246l-652 -854l82 186l-129 -732h-233zM929 1551l-343 147l38 218l330 -220z" />
    <glyph glyph-name="uni1EF6" unicode="&#x1ef6;" horiz-adv-x="1165" 
d="M356 0l128 732l22 -199l-356 867h245l267 -665l-101 13l481 652h246l-652 -854l82 186l-129 -732h-233zM704 1540q45 35 79.5 68.5t34.5 75.5q0 54 -64 54q-30 0 -63.5 -10.5t-66.5 -26.5l-13 112q39 18 80.5 27.5t85.5 9.5q71 0 119 -35.5t48 -102.5q0 -82 -52.5 -138.5
t-128.5 -105.5z" />
    <glyph glyph-name="uni0232" unicode="&#x232;" horiz-adv-x="1165" 
d="M356 0l128 732l22 -199l-356 867h245l267 -665l-101 13l481 652h246l-652 -854l82 186l-129 -732h-233zM432 1586l27 146h637l-26 -146h-638z" />
    <glyph glyph-name="uni1EF8" unicode="&#x1ef8;" horiz-adv-x="1165" 
d="M356 0l128 732l22 -199l-356 867h245l267 -665l-101 13l481 652h246l-652 -854l82 186l-129 -732h-233zM923 1564q-43 0 -90 22t-92 43.5t-82 21.5q-33 0 -54 -19t-27 -52h-152q20 115 74 175t135 60q47 0 91.5 -21.5t86 -43.5t79.5 -22q31 0 50.5 19t25.5 58h157
q-22 -124 -72 -182.5t-130 -58.5z" />
    <glyph glyph-name="Z" unicode="Z" horiz-adv-x="1046" 
d="M-79 0l884 1265l45 -85h-637l39 220h915l-885 -1265l-45 85h637l-39 -220h-914z" />
    <glyph glyph-name="Zacute" unicode="&#x179;" horiz-adv-x="1046" 
d="M-79 0l884 1265l45 -85h-637l39 220h915l-885 -1265l-45 85h637l-39 -220h-914zM565 1522l21 142l370 190l-33 -216z" />
    <glyph glyph-name="Zcaron" unicode="&#x17d;" horiz-adv-x="1046" 
d="M-79 0l884 1265l45 -85h-637l39 220h915l-885 -1265l-45 85h637l-39 -220h-914zM733 1524l-216 223l29 145l227 -164l281 164l-29 -167z" />
    <glyph glyph-name="Zdotaccent" unicode="&#x17b;" horiz-adv-x="1046" 
d="M-79 0l884 1265l45 -85h-637l39 220h915l-885 -1265l-45 85h637l-39 -220h-914zM643 1583l34 189h198l-34 -189h-198z" />
    <glyph glyph-name="uni1E92" unicode="&#x1e92;" horiz-adv-x="1046" 
d="M-79 0l884 1265l45 -85h-637l39 220h915l-885 -1265l-45 85h637l-39 -220h-914zM220 -351l36 189h194l-36 -189h-194z" />
    <glyph glyph-name="Iacute_J.loclNLD" horiz-adv-x="1370" 
d="M578 -28q-224 0 -335 113t-116 314l242 57q4 -78 27.5 -138t76 -93.5t142.5 -33.5q102 0 171.5 42.5t114.5 113.5t71.5 159t42.5 180l126 714h232l-142 -802q-33 -189 -116 -330t-217 -218.5t-320 -77.5zM143 597l143 803h231l-127 -714q-4 -22 -7 -45t-6 -44h-234z
M246 1522l21 142l370 190l-33 -216zM1108 1522l21 142l370 190l-33 -216z" />
    <glyph glyph-name="a" unicode="a" horiz-adv-x="1136" 
d="M392 -20q-110 0 -189.5 52t-122 144t-42.5 211q0 118 38.5 229t110.5 200t172.5 141.5t223.5 52.5q63 0 113 -16t90.5 -51.5t69.5 -94.5l-80 -35l70 180h195l-116 -688q-8 -47 -8 -77q0 -44 21 -55t75 -11l-54 -182q-78 0 -127 6.5t-79 27.5t-50 63.5t-40 112.5l70 -40
q-39 -44 -87.5 -83t-110.5 -63t-143 -24zM467 168q74 0 128 35t89 94.5t52 131t17 144.5q0 121 -48 185t-140 64q-86 0 -152.5 -55t-104 -146t-37.5 -200q0 -110 46.5 -181.5t149.5 -71.5z" />
    <glyph glyph-name="aacute" unicode="&#xe1;" horiz-adv-x="1136" 
d="M392 -20q-110 0 -189.5 52t-122 144t-42.5 211q0 118 38.5 229t110.5 200t172.5 141.5t223.5 52.5q63 0 113 -16t90.5 -51.5t69.5 -94.5l-80 -35l70 180h195l-116 -688q-8 -47 -8 -77q0 -44 21 -55t75 -11l-54 -182q-78 0 -127 6.5t-79 27.5t-50 63.5t-40 112.5l70 -40
q-39 -44 -87.5 -83t-110.5 -63t-143 -24zM467 168q74 0 128 35t89 94.5t52 131t17 144.5q0 121 -48 185t-140 64q-86 0 -152.5 -55t-104 -146t-37.5 -200q0 -110 46.5 -181.5t149.5 -71.5zM511 1144l30 155l391 213l-37 -240z" />
    <glyph glyph-name="abreve" unicode="&#x103;" horiz-adv-x="1136" 
d="M392 -20q-110 0 -189.5 52t-122 144t-42.5 211q0 118 38.5 229t110.5 200t172.5 141.5t223.5 52.5q63 0 113 -16t90.5 -51.5t69.5 -94.5l-80 -35l70 180h195l-116 -688q-8 -47 -8 -77q0 -44 21 -55t75 -11l-54 -182q-78 0 -127 6.5t-79 27.5t-50 63.5t-40 112.5l70 -40
q-39 -44 -87.5 -83t-110.5 -63t-143 -24zM467 168q74 0 128 35t89 94.5t52 131t17 144.5q0 121 -48 185t-140 64q-86 0 -152.5 -55t-104 -146t-37.5 -200q0 -110 46.5 -181.5t149.5 -71.5zM707 1166q-127 0 -194 62.5t-67 152.5q0 14 1.5 28t5.5 26h158q-2 -7 -3.5 -15.5
t-1.5 -16.5q0 -45 30.5 -69.5t82.5 -24.5q59 0 102.5 32.5t54.5 93.5h175q-25 -117 -111.5 -193t-232.5 -76z" />
    <glyph glyph-name="uni1EAF" unicode="&#x1eaf;" horiz-adv-x="1136" 
d="M392 -20q-110 0 -189.5 52t-122 144t-42.5 211q0 118 38.5 229t110.5 200t172.5 141.5t223.5 52.5q63 0 113 -16t90.5 -51.5t69.5 -94.5l-80 -35l70 180h195l-116 -688q-8 -47 -8 -77q0 -44 21 -55t75 -11l-54 -182q-78 0 -127 6.5t-79 27.5t-50 63.5t-40 112.5l70 -40
q-39 -44 -87.5 -83t-110.5 -63t-143 -24zM467 168q74 0 128 35t89 94.5t52 131t17 144.5q0 121 -48 185t-140 64q-86 0 -152.5 -55t-104 -146t-37.5 -200q0 -110 46.5 -181.5t149.5 -71.5zM697 1122q-130 0 -196 61.5t-66 148.5q0 11 1.5 22.5t2.5 22.5h166q-1 -6 -2 -13.5
t-1 -15.5q0 -46 32 -70t84 -24q59 0 102.5 31.5t53.5 91.5h169q-19 -113 -109.5 -184t-236.5 -71zM613 1459l21 142l370 190l-33 -216z" />
    <glyph glyph-name="uni1EB7" unicode="&#x1eb7;" horiz-adv-x="1136" 
d="M392 -20q-110 0 -189.5 52t-122 144t-42.5 211q0 118 38.5 229t110.5 200t172.5 141.5t223.5 52.5q63 0 113 -16t90.5 -51.5t69.5 -94.5l-80 -35l70 180h195l-116 -688q-8 -47 -8 -77q0 -44 21 -55t75 -11l-54 -182q-78 0 -127 6.5t-79 27.5t-50 63.5t-40 112.5l70 -40
q-39 -44 -87.5 -83t-110.5 -63t-143 -24zM467 168q74 0 128 35t89 94.5t52 131t17 144.5q0 121 -48 185t-140 64q-86 0 -152.5 -55t-104 -146t-37.5 -200q0 -110 46.5 -181.5t149.5 -71.5zM707 1166q-127 0 -194 62.5t-67 152.5q0 14 1.5 28t5.5 26h158q-2 -7 -3.5 -15.5
t-1.5 -16.5q0 -45 30.5 -69.5t82.5 -24.5q59 0 102.5 32.5t54.5 93.5h175q-25 -117 -111.5 -193t-232.5 -76zM270 -351l36 189h194l-36 -189h-194z" />
    <glyph glyph-name="uni1EB1" unicode="&#x1eb1;" horiz-adv-x="1136" 
d="M392 -20q-110 0 -189.5 52t-122 144t-42.5 211q0 118 38.5 229t110.5 200t172.5 141.5t223.5 52.5q63 0 113 -16t90.5 -51.5t69.5 -94.5l-80 -35l70 180h195l-116 -688q-8 -47 -8 -77q0 -44 21 -55t75 -11l-54 -182q-78 0 -127 6.5t-79 27.5t-50 63.5t-40 112.5l70 -40
q-39 -44 -87.5 -83t-110.5 -63t-143 -24zM467 168q74 0 128 35t89 94.5t52 131t17 144.5q0 121 -48 185t-140 64q-86 0 -152.5 -55t-104 -146t-37.5 -200q0 -110 46.5 -181.5t149.5 -71.5zM684 1121q-130 0 -196 61.5t-66 148.5q0 11 1.5 22.5t2.5 22.5h166q-1 -6 -2 -13.5
t-1 -15.5q0 -46 32 -70t84 -24q59 0 102.5 31.5t53.5 91.5h169q-19 -113 -109.5 -184t-236.5 -71zM949 1458l-346 116l37 204l334 -190z" />
    <glyph glyph-name="uni1EB3" unicode="&#x1eb3;" horiz-adv-x="1136" 
d="M392 -20q-110 0 -189.5 52t-122 144t-42.5 211q0 118 38.5 229t110.5 200t172.5 141.5t223.5 52.5q63 0 113 -16t90.5 -51.5t69.5 -94.5l-80 -35l70 180h195l-116 -688q-8 -47 -8 -77q0 -44 21 -55t75 -11l-54 -182q-78 0 -127 6.5t-79 27.5t-50 63.5t-40 112.5l70 -40
q-39 -44 -87.5 -83t-110.5 -63t-143 -24zM467 168q74 0 128 35t89 94.5t52 131t17 144.5q0 121 -48 185t-140 64q-86 0 -152.5 -55t-104 -146t-37.5 -200q0 -110 46.5 -181.5t149.5 -71.5zM714 1135q-130 0 -196 61.5t-66 148.5q0 11 1.5 22.5t2.5 22.5h166q-1 -6 -2 -13.5
t-1 -15.5q0 -46 32 -70t84 -24q59 0 102.5 31.5t53.5 91.5h169q-18 -113 -109 -184t-237 -71zM775 1421l-5 85q43 12 63.5 31.5t20.5 46.5q0 53 -66 53q-30 0 -61.5 -9.5t-63.5 -24.5l-15 115q38 16 79.5 24.5t85.5 8.5q74 0 122 -34.5t48 -100.5q0 -76 -55 -124t-153 -71z
" />
    <glyph glyph-name="uni1EB5" unicode="&#x1eb5;" horiz-adv-x="1136" 
d="M392 -20q-110 0 -189.5 52t-122 144t-42.5 211q0 118 38.5 229t110.5 200t172.5 141.5t223.5 52.5q63 0 113 -16t90.5 -51.5t69.5 -94.5l-80 -35l70 180h195l-116 -688q-8 -47 -8 -77q0 -44 21 -55t75 -11l-54 -182q-78 0 -127 6.5t-79 27.5t-50 63.5t-40 112.5l70 -40
q-39 -44 -87.5 -83t-110.5 -63t-143 -24zM467 168q74 0 128 35t89 94.5t52 131t17 144.5q0 121 -48 185t-140 64q-86 0 -152.5 -55t-104 -146t-37.5 -200q0 -110 46.5 -181.5t149.5 -71.5zM707 1122q-130 0 -196 61.5t-66 148.5q0 11 1.5 22.5t2.5 22.5h166q-1 -6 -2 -13.5
t-1 -15.5q0 -46 32 -70t84 -24q59 0 102.5 31.5t53.5 91.5h169q-18 -113 -109 -184t-237 -71zM938 1474q-44 0 -90 19t-89 38.5t-78 19.5q-25 0 -43.5 -16t-23.5 -49h-144q19 101 68 154t126 53q44 0 89 -19.5t88 -38.5t79 -19q27 0 44.5 17t22.5 50h144
q-16 -104 -66 -156.5t-127 -52.5z" />
    <glyph glyph-name="acircumflex" unicode="&#xe2;" horiz-adv-x="1136" 
d="M392 -20q-110 0 -189.5 52t-122 144t-42.5 211q0 118 38.5 229t110.5 200t172.5 141.5t223.5 52.5q63 0 113 -16t90.5 -51.5t69.5 -94.5l-80 -35l70 180h195l-116 -688q-8 -47 -8 -77q0 -44 21 -55t75 -11l-54 -182q-78 0 -127 6.5t-79 27.5t-50 63.5t-40 112.5l70 -40
q-39 -44 -87.5 -83t-110.5 -63t-143 -24zM467 168q74 0 128 35t89 94.5t52 131t17 144.5q0 121 -48 185t-140 64q-86 0 -152.5 -55t-104 -146t-37.5 -200q0 -110 46.5 -181.5t149.5 -71.5zM460 1138l32 149l261 196l217 -223l-29 -145l-227 164z" />
    <glyph glyph-name="uni1EA5" unicode="&#x1ea5;" horiz-adv-x="1136" 
d="M392 -20q-110 0 -189.5 52t-122 144t-42.5 211q0 118 38.5 229t110.5 200t172.5 141.5t223.5 52.5q63 0 113 -16t90.5 -51.5t69.5 -94.5l-80 -35l70 180h195l-116 -688q-8 -47 -8 -77q0 -44 21 -55t75 -11l-54 -182q-78 0 -127 6.5t-79 27.5t-50 63.5t-40 112.5l70 -40
q-39 -44 -87.5 -83t-110.5 -63t-143 -24zM467 168q74 0 128 35t89 94.5t52 131t17 144.5q0 121 -48 185t-140 64q-86 0 -152.5 -55t-104 -146t-37.5 -200q0 -110 46.5 -181.5t149.5 -71.5zM938 1101l-236 140l-239 -116l24 139l247 158l227 -182zM846 1400l155 230h217
l-225 -230h-147z" />
    <glyph glyph-name="uni1EAD" unicode="&#x1ead;" horiz-adv-x="1136" 
d="M392 -20q-110 0 -189.5 52t-122 144t-42.5 211q0 118 38.5 229t110.5 200t172.5 141.5t223.5 52.5q63 0 113 -16t90.5 -51.5t69.5 -94.5l-80 -35l70 180h195l-116 -688q-8 -47 -8 -77q0 -44 21 -55t75 -11l-54 -182q-78 0 -127 6.5t-79 27.5t-50 63.5t-40 112.5l70 -40
q-39 -44 -87.5 -83t-110.5 -63t-143 -24zM467 168q74 0 128 35t89 94.5t52 131t17 144.5q0 121 -48 185t-140 64q-86 0 -152.5 -55t-104 -146t-37.5 -200q0 -110 46.5 -181.5t149.5 -71.5zM460 1138l32 149l261 196l217 -223l-29 -145l-227 164zM270 -351l36 189h194
l-36 -189h-194z" />
    <glyph glyph-name="uni1EA7" unicode="&#x1ea7;" horiz-adv-x="1136" 
d="M392 -20q-110 0 -189.5 52t-122 144t-42.5 211q0 118 38.5 229t110.5 200t172.5 141.5t223.5 52.5q63 0 113 -16t90.5 -51.5t69.5 -94.5l-80 -35l70 180h195l-116 -688q-8 -47 -8 -77q0 -44 21 -55t75 -11l-54 -182q-78 0 -127 6.5t-79 27.5t-50 63.5t-40 112.5l70 -40
q-39 -44 -87.5 -83t-110.5 -63t-143 -24zM467 168q74 0 128 35t89 94.5t52 131t17 144.5q0 121 -48 185t-140 64q-86 0 -152.5 -55t-104 -146t-37.5 -200q0 -110 46.5 -181.5t149.5 -71.5zM937 1101l-236 140l-239 -116l24 139l247 158l227 -182zM863 1400l-126 246h206
l63 -246h-143z" />
    <glyph glyph-name="uni1EA9" unicode="&#x1ea9;" horiz-adv-x="1136" 
d="M392 -20q-110 0 -189.5 52t-122 144t-42.5 211q0 118 38.5 229t110.5 200t172.5 141.5t223.5 52.5q63 0 113 -16t90.5 -51.5t69.5 -94.5l-80 -35l70 180h195l-116 -688q-8 -47 -8 -77q0 -44 21 -55t75 -11l-54 -182q-78 0 -127 6.5t-79 27.5t-50 63.5t-40 112.5l70 -40
q-39 -44 -87.5 -83t-110.5 -63t-143 -24zM467 168q74 0 128 35t89 94.5t52 131t17 144.5q0 121 -48 185t-140 64q-86 0 -152.5 -55t-104 -146t-37.5 -200q0 -110 46.5 -181.5t149.5 -71.5zM936 1089l-236 139l-239 -115l24 138l247 159l227 -183zM885 1337l-5 85
q85 23 85 78q0 52 -67 52q-30 0 -61.5 -9.5t-63.5 -23.5l-15 115q38 15 79.5 24t85.5 9q74 0 122 -35t48 -100q0 -76 -55 -124t-153 -71z" />
    <glyph glyph-name="uni1EAB" unicode="&#x1eab;" horiz-adv-x="1136" 
d="M392 -20q-110 0 -189.5 52t-122 144t-42.5 211q0 118 38.5 229t110.5 200t172.5 141.5t223.5 52.5q63 0 113 -16t90.5 -51.5t69.5 -94.5l-80 -35l70 180h195l-116 -688q-8 -47 -8 -77q0 -44 21 -55t75 -11l-54 -182q-78 0 -127 6.5t-79 27.5t-50 63.5t-40 112.5l70 -40
q-39 -44 -87.5 -83t-110.5 -63t-143 -24zM467 168q74 0 128 35t89 94.5t52 131t17 144.5q0 121 -48 185t-140 64q-86 0 -152.5 -55t-104 -146t-37.5 -200q0 -110 46.5 -181.5t149.5 -71.5zM936 1089l-236 139l-239 -115l24 138l247 159l227 -183zM907 1465q-43 0 -89 19.5
t-89.5 38.5t-78.5 19q-25 0 -43 -15.5t-23 -48.5h-144q19 100 68 153t126 53q44 0 89 -19t87.5 -38.5t79.5 -19.5q56 0 66 67h144q-15 -103 -65.5 -156t-127.5 -53z" />
    <glyph glyph-name="uni0201" unicode="&#x201;" horiz-adv-x="1136" 
d="M392 -20q-110 0 -189.5 52t-122 144t-42.5 211q0 118 38.5 229t110.5 200t172.5 141.5t223.5 52.5q63 0 113 -16t90.5 -51.5t69.5 -94.5l-80 -35l70 180h195l-116 -688q-8 -47 -8 -77q0 -44 21 -55t75 -11l-54 -182q-78 0 -127 6.5t-79 27.5t-50 63.5t-40 112.5l70 -40
q-39 -44 -87.5 -83t-110.5 -63t-143 -24zM467 168q74 0 128 35t89 94.5t52 131t17 144.5q0 121 -48 185t-140 64q-86 0 -152.5 -55t-104 -146t-37.5 -200q0 -110 46.5 -181.5t149.5 -71.5zM913 1169h-148l-136 346h217zM625 1169h-148l-150 346h217z" />
    <glyph glyph-name="adieresis" unicode="&#xe4;" horiz-adv-x="1136" 
d="M392 -20q-110 0 -189.5 52t-122 144t-42.5 211q0 118 38.5 229t110.5 200t172.5 141.5t223.5 52.5q63 0 113 -16t90.5 -51.5t69.5 -94.5l-80 -35l70 180h195l-116 -688q-8 -47 -8 -77q0 -44 21 -55t75 -11l-54 -182q-78 0 -127 6.5t-79 27.5t-50 63.5t-40 112.5l70 -40
q-39 -44 -87.5 -83t-110.5 -63t-143 -24zM467 168q74 0 128 35t89 94.5t52 131t17 144.5q0 121 -48 185t-140 64q-86 0 -152.5 -55t-104 -146t-37.5 -200q0 -110 46.5 -181.5t149.5 -71.5zM409 1182l34 173h181l-34 -173h-181zM796 1182l34 173h181l-34 -173h-181z" />
    <glyph glyph-name="uni1EA1" unicode="&#x1ea1;" horiz-adv-x="1136" 
d="M392 -20q-110 0 -189.5 52t-122 144t-42.5 211q0 118 38.5 229t110.5 200t172.5 141.5t223.5 52.5q63 0 113 -16t90.5 -51.5t69.5 -94.5l-80 -35l70 180h195l-116 -688q-8 -47 -8 -77q0 -44 21 -55t75 -11l-54 -182q-78 0 -127 6.5t-79 27.5t-50 63.5t-40 112.5l70 -40
q-39 -44 -87.5 -83t-110.5 -63t-143 -24zM467 168q74 0 128 35t89 94.5t52 131t17 144.5q0 121 -48 185t-140 64q-86 0 -152.5 -55t-104 -146t-37.5 -200q0 -110 46.5 -181.5t149.5 -71.5zM270 -351l36 189h194l-36 -189h-194z" />
    <glyph glyph-name="agrave" unicode="&#xe0;" horiz-adv-x="1136" 
d="M392 -20q-110 0 -189.5 52t-122 144t-42.5 211q0 118 38.5 229t110.5 200t172.5 141.5t223.5 52.5q63 0 113 -16t90.5 -51.5t69.5 -94.5l-80 -35l70 180h195l-116 -688q-8 -47 -8 -77q0 -44 21 -55t75 -11l-54 -182q-78 0 -127 6.5t-79 27.5t-50 63.5t-40 112.5l70 -40
q-39 -44 -87.5 -83t-110.5 -63t-143 -24zM467 168q74 0 128 35t89 94.5t52 131t17 144.5q0 121 -48 185t-140 64q-86 0 -152.5 -55t-104 -146t-37.5 -200q0 -110 46.5 -181.5t149.5 -71.5zM868 1144l-343 147l38 218l330 -220z" />
    <glyph glyph-name="uni1EA3" unicode="&#x1ea3;" horiz-adv-x="1136" 
d="M392 -20q-110 0 -189.5 52t-122 144t-42.5 211q0 118 38.5 229t110.5 200t172.5 141.5t223.5 52.5q63 0 113 -16t90.5 -51.5t69.5 -94.5l-80 -35l70 180h195l-116 -688q-8 -47 -8 -77q0 -44 21 -55t75 -11l-54 -182q-78 0 -127 6.5t-79 27.5t-50 63.5t-40 112.5l70 -40
q-39 -44 -87.5 -83t-110.5 -63t-143 -24zM467 168q74 0 128 35t89 94.5t52 131t17 144.5q0 121 -48 185t-140 64q-86 0 -152.5 -55t-104 -146t-37.5 -200q0 -110 46.5 -181.5t149.5 -71.5zM642 1133q45 35 79.5 68.5t34.5 75.5q0 54 -64 54q-30 0 -63.5 -10.5t-66.5 -26.5
l-13 112q39 18 80.5 27.5t85.5 9.5q71 0 119 -35.5t48 -102.5q0 -82 -52.5 -138.5t-128.5 -105.5z" />
    <glyph glyph-name="uni0203" unicode="&#x203;" horiz-adv-x="1136" 
d="M392 -20q-110 0 -189.5 52t-122 144t-42.5 211q0 118 38.5 229t110.5 200t172.5 141.5t223.5 52.5q63 0 113 -16t90.5 -51.5t69.5 -94.5l-80 -35l70 180h195l-116 -688q-8 -47 -8 -77q0 -44 21 -55t75 -11l-54 -182q-78 0 -127 6.5t-79 27.5t-50 63.5t-40 112.5l70 -40
q-39 -44 -87.5 -83t-110.5 -63t-143 -24zM467 168q74 0 128 35t89 94.5t52 131t17 144.5q0 121 -48 185t-140 64q-86 0 -152.5 -55t-104 -146t-37.5 -200q0 -110 46.5 -181.5t149.5 -71.5zM734 1435q130 0 195 -64t65 -156q0 -12 -1 -24t-3 -25h-164q2 9 2 15v12
q0 48 -31.5 73.5t-85.5 25.5q-60 0 -103.5 -32t-54.5 -94h-168q13 72 59 133.5t119.5 98.5t170.5 37z" />
    <glyph glyph-name="amacron" unicode="&#x101;" horiz-adv-x="1136" 
d="M392 -20q-110 0 -189.5 52t-122 144t-42.5 211q0 118 38.5 229t110.5 200t172.5 141.5t223.5 52.5q63 0 113 -16t90.5 -51.5t69.5 -94.5l-80 -35l70 180h195l-116 -688q-8 -47 -8 -77q0 -44 21 -55t75 -11l-54 -182q-78 0 -127 6.5t-79 27.5t-50 63.5t-40 112.5l70 -40
q-39 -44 -87.5 -83t-110.5 -63t-143 -24zM467 168q74 0 128 35t89 94.5t52 131t17 144.5q0 121 -48 185t-140 64q-86 0 -152.5 -55t-104 -146t-37.5 -200q0 -110 46.5 -181.5t149.5 -71.5zM380 1195l30 155h635l-31 -155h-634z" />
    <glyph glyph-name="aogonek" unicode="&#x105;" horiz-adv-x="1136" 
d="M392 -20q-110 0 -189.5 52t-122 144t-42.5 211q0 118 38.5 229t110.5 200t172.5 141.5t223.5 52.5q63 0 113 -16t90.5 -51.5t69.5 -94.5l-80 -35l70 180h195l-116 -688q-8 -47 -8 -77q0 -44 21 -55t75 -11l-54 -182q-78 0 -127 6.5t-79 27.5t-50 63.5t-40 112.5l70 -40
q-39 -44 -87.5 -83t-110.5 -63t-143 -24zM467 168q74 0 128 35t89 94.5t52 131t17 144.5q0 121 -48 185t-140 64q-86 0 -152.5 -55t-104 -146t-37.5 -200q0 -110 46.5 -181.5t149.5 -71.5zM814 10l107 -10q-47 -31 -91.5 -67.5t-73.5 -78t-29 -86.5q0 -73 74 -73q33 0 61 7
t58 21l13 -106q-31 -15 -73 -26t-96 -11q-73 0 -120.5 36.5t-47.5 102.5q0 86 66.5 162t151.5 129z" />
    <glyph glyph-name="aring" unicode="&#xe5;" horiz-adv-x="1136" 
d="M392 -20q-110 0 -189.5 52t-122 144t-42.5 211q0 118 38.5 229t110.5 200t172.5 141.5t223.5 52.5q63 0 113 -16t90.5 -51.5t69.5 -94.5l-80 -35l70 180h195l-116 -688q-8 -47 -8 -77q0 -44 21 -55t75 -11l-54 -182q-78 0 -127 6.5t-79 27.5t-50 63.5t-40 112.5l70 -40
q-39 -44 -87.5 -83t-110.5 -63t-143 -24zM467 168q74 0 128 35t89 94.5t52 131t17 144.5q0 121 -48 185t-140 64q-86 0 -152.5 -55t-104 -146t-37.5 -200q0 -110 46.5 -181.5t149.5 -71.5zM685 1139q-83 0 -127 45.5t-44 110.5t34 119t90 86t122 32q84 0 127.5 -45.5
t43.5 -111.5t-33 -119.5t-89 -85t-124 -31.5zM703 1237q47 0 80 35t33 83q0 36 -21 57t-53 21q-45 0 -79 -36t-34 -84q0 -35 21 -55.5t53 -20.5z" />
    <glyph glyph-name="aringacute" unicode="&#x1fb;" horiz-adv-x="1136" 
d="M392 -20q-110 0 -189.5 52t-122 144t-42.5 211q0 118 38.5 229t110.5 200t172.5 141.5t223.5 52.5q63 0 113 -16t90.5 -51.5t69.5 -94.5l-80 -35l70 180h195l-116 -688q-8 -47 -8 -77q0 -44 21 -55t75 -11l-54 -182q-78 0 -127 6.5t-79 27.5t-50 63.5t-40 112.5l70 -40
q-39 -44 -87.5 -83t-110.5 -63t-143 -24zM467 168q74 0 128 35t89 94.5t52 131t17 144.5q0 121 -48 185t-140 64q-86 0 -152.5 -55t-104 -146t-37.5 -200q0 -110 46.5 -181.5t149.5 -71.5zM683 1102q-86 0 -130 47t-44 113q0 64 32 116.5t85 83.5t115 31q86 0 129.5 -47
t43.5 -114q0 -65 -31 -117t-83.5 -82.5t-116.5 -30.5zM694 1200q46 0 77 36t30 79q-1 35 -20.5 56.5t-51.5 21.5q-43 0 -75 -34t-32 -81q0 -36 21 -57t51 -21zM589 1550l21 142l370 190l-33 -216z" />
    <glyph glyph-name="atilde" unicode="&#xe3;" horiz-adv-x="1136" 
d="M392 -20q-110 0 -189.5 52t-122 144t-42.5 211q0 118 38.5 229t110.5 200t172.5 141.5t223.5 52.5q63 0 113 -16t90.5 -51.5t69.5 -94.5l-80 -35l70 180h195l-116 -688q-8 -47 -8 -77q0 -44 21 -55t75 -11l-54 -182q-78 0 -127 6.5t-79 27.5t-50 63.5t-40 112.5l70 -40
q-39 -44 -87.5 -83t-110.5 -63t-143 -24zM467 168q74 0 128 35t89 94.5t52 131t17 144.5q0 121 -48 185t-140 64q-86 0 -152.5 -55t-104 -146t-37.5 -200q0 -110 46.5 -181.5t149.5 -71.5zM862 1157q-43 0 -90 22t-92 43.5t-82 21.5q-33 0 -54 -19t-27 -52h-152
q20 115 74 175t135 60q47 0 91.5 -21.5t86 -43.5t79.5 -22q31 0 50.5 19t25.5 58h157q-22 -124 -72 -182.5t-130 -58.5z" />
    <glyph glyph-name="ae" unicode="&#xe6;" horiz-adv-x="1507" 
d="M600 471q-56 1 -121 -10.5t-123.5 -38t-95.5 -70t-37 -108.5q0 -47 28.5 -71.5t70.5 -24.5q45 0 96 27t92 83t56 143q3 17 5.5 33t5 38.5t6 57t7.5 88.5q9 101 -18 149.5t-127 48.5q-63 0 -124.5 -17t-141.5 -53l12 180q91 42 179 63t169 21q61 0 110.5 -13t83.5 -46
t49 -92.5t8 -153.5l-18 50q12 73 67.5 130.5t138.5 91t175 33.5q140 0 222.5 -89t82.5 -245q0 -56 -11 -103.5t-34 -110.5h-702l34 152h505q4 17 5 33.5t1 29.5q-1 63 -33.5 104t-112.5 41q-71 0 -127 -33.5t-94.5 -91t-59 -127.5t-20.5 -142q0 -99 32.5 -157t84 -83.5
t107.5 -25.5q45 0 97 10.5t104.5 28.5t96.5 40l-18 -184q-61 -31 -143.5 -54t-181.5 -23q-164 0 -252.5 70t-99.5 198l57 -9q-55 -79 -121.5 -139.5t-147 -94.5t-180.5 -34q-129 0 -195 61t-66 165q0 107 43.5 180.5t114.5 120.5t155.5 73.5t167.5 38t148 14.5z" />
    <glyph glyph-name="aeacute" unicode="&#x1fd;" horiz-adv-x="1507" 
d="M600 471q-56 1 -121 -10.5t-123.5 -38t-95.5 -70t-37 -108.5q0 -47 28.5 -71.5t70.5 -24.5q45 0 96 27t92 83t56 143q3 17 5.5 33t5 38.5t6 57t7.5 88.5q9 101 -18 149.5t-127 48.5q-63 0 -124.5 -17t-141.5 -53l12 180q91 42 179 63t169 21q61 0 110.5 -13t83.5 -46
t49 -92.5t8 -153.5l-18 50q12 73 67.5 130.5t138.5 91t175 33.5q140 0 222.5 -89t82.5 -245q0 -56 -11 -103.5t-34 -110.5h-702l34 152h505q4 17 5 33.5t1 29.5q-1 63 -33.5 104t-112.5 41q-71 0 -127 -33.5t-94.5 -91t-59 -127.5t-20.5 -142q0 -99 32.5 -157t84 -83.5
t107.5 -25.5q45 0 97 10.5t104.5 28.5t96.5 40l-18 -184q-61 -31 -143.5 -54t-181.5 -23q-164 0 -252.5 70t-99.5 198l57 -9q-55 -79 -121.5 -139.5t-147 -94.5t-180.5 -34q-129 0 -195 61t-66 165q0 107 43.5 180.5t114.5 120.5t155.5 73.5t167.5 38t148 14.5zM698 1144
l30 155l391 213l-37 -240z" />
    <glyph glyph-name="b" unicode="b" horiz-adv-x="1091" 
d="M529 -20q-116 0 -194 54t-119 149l60 40l-59 -223h-201l264 1500h225l-124 -702l-32 42q41 62 93.5 99t110.5 54t114 17q116 0 194.5 -56.5t118.5 -152t40 -212.5q0 -126 -35.5 -237t-100 -194.5t-155 -130.5t-200.5 -47zM504 168q85 0 149 54t100 145t36 200
q0 113 -44.5 184t-141.5 71q-90 0 -156.5 -55t-103.5 -147.5t-37 -205.5q0 -121 49.5 -183.5t148.5 -62.5z" />
    <glyph glyph-name="c" unicode="c" horiz-adv-x="860" 
d="M428 -20q-140 0 -225 56.5t-124 152t-39 212.5t36.5 226.5t109 195.5t179.5 136.5t247 50.5q86 0 150 -19t106 -49l-56 -194q-45 34 -95.5 54t-105.5 20q-108 0 -184 -53.5t-116 -143.5t-40 -198q0 -119 54 -189.5t172 -70.5q105 0 226 74l-12 -191q-51 -30 -122.5 -50
t-160.5 -20z" />
    <glyph glyph-name="cacute" unicode="&#x107;" horiz-adv-x="860" 
d="M428 -20q-140 0 -225 56.5t-124 152t-39 212.5t36.5 226.5t109 195.5t179.5 136.5t247 50.5q86 0 150 -19t106 -49l-56 -194q-45 34 -95.5 54t-105.5 20q-108 0 -184 -53.5t-116 -143.5t-40 -198q0 -119 54 -189.5t172 -70.5q105 0 226 74l-12 -191q-51 -30 -122.5 -50
t-160.5 -20zM481 1144l30 155l391 213l-37 -240z" />
    <glyph glyph-name="ccaron" unicode="&#x10d;" horiz-adv-x="860" 
d="M428 -20q-140 0 -225 56.5t-124 152t-39 212.5t36.5 226.5t109 195.5t179.5 136.5t247 50.5q86 0 150 -19t106 -49l-56 -194q-45 34 -95.5 54t-105.5 20q-108 0 -184 -53.5t-116 -143.5t-40 -198q0 -119 54 -189.5t172 -70.5q105 0 226 74l-12 -191q-51 -30 -122.5 -50
t-160.5 -20zM651 1117l-216 223l29 145l227 -164l281 164l-29 -167z" />
    <glyph glyph-name="ccedilla" unicode="&#xe7;" horiz-adv-x="860" 
d="M428 -20q-140 0 -225 56.5t-124 152t-39 212.5t36.5 226.5t109 195.5t179.5 136.5t247 50.5q86 0 150 -19t106 -49l-56 -194q-45 34 -95.5 54t-105.5 20q-108 0 -184 -53.5t-116 -143.5t-40 -198q0 -119 54 -189.5t172 -70.5q105 0 226 74l-12 -191q-51 -30 -122.5 -50
t-160.5 -20zM414 -158l-68 30q27 9 52.5 14.5t52.5 5.5q72 0 112.5 -36.5t40.5 -103.5q0 -97 -74 -159t-184 -62q-52 0 -90.5 11.5t-64.5 26.5l55 111q28 -15 57.5 -24.5t65.5 -9.5q51 0 80 23t29 58q0 62 -90 62q-24 0 -47.5 -3t-51.5 -11l95 225h107z" />
    <glyph glyph-name="uni1E09" unicode="&#x1e09;" horiz-adv-x="860" 
d="M428 -20q-140 0 -225 56.5t-124 152t-39 212.5t36.5 226.5t109 195.5t179.5 136.5t247 50.5q86 0 150 -19t106 -49l-56 -194q-45 34 -95.5 54t-105.5 20q-108 0 -184 -53.5t-116 -143.5t-40 -198q0 -119 54 -189.5t172 -70.5q105 0 226 74l-12 -191q-51 -30 -122.5 -50
t-160.5 -20zM414 -158l-68 30q27 9 52.5 14.5t52.5 5.5q72 0 112.5 -36.5t40.5 -103.5q0 -97 -74 -159t-184 -62q-52 0 -90.5 11.5t-64.5 26.5l55 111q28 -15 57.5 -24.5t65.5 -9.5q51 0 80 23t29 58q0 62 -90 62q-24 0 -47.5 -3t-51.5 -11l95 225h107zM481 1144l30 155
l391 213l-37 -240z" />
    <glyph glyph-name="ccircumflex" unicode="&#x109;" horiz-adv-x="860" 
d="M428 -20q-140 0 -225 56.5t-124 152t-39 212.5t36.5 226.5t109 195.5t179.5 136.5t247 50.5q86 0 150 -19t106 -49l-56 -194q-45 34 -95.5 54t-105.5 20q-108 0 -184 -53.5t-116 -143.5t-40 -198q0 -119 54 -189.5t172 -70.5q105 0 226 74l-12 -191q-51 -30 -122.5 -50
t-160.5 -20zM430 1138l32 149l261 196l217 -223l-29 -145l-227 164z" />
    <glyph glyph-name="cdotaccent" unicode="&#x10b;" horiz-adv-x="860" 
d="M428 -20q-140 0 -225 56.5t-124 152t-39 212.5t36.5 226.5t109 195.5t179.5 136.5t247 50.5q86 0 150 -19t106 -49l-56 -194q-45 34 -95.5 54t-105.5 20q-108 0 -184 -53.5t-116 -143.5t-40 -198q0 -119 54 -189.5t172 -70.5q105 0 226 74l-12 -191q-51 -30 -122.5 -50
t-160.5 -20zM569 1196l36 189h194l-36 -189h-194z" />
    <glyph glyph-name="d" unicode="d" horiz-adv-x="1092" 
d="M385 -20q-111 0 -188.5 54t-118 146.5t-40.5 207.5q0 117 35.5 228.5t103 200.5t161.5 141t210 52q85 0 144.5 -31t98 -84t60.5 -121l-68 18l126 708h224l-264 -1500h-211l31 215l38 -44q-72 -91 -158 -141t-184 -50zM461 168q68 0 122 33t92 90t58 130t20 152
q0 116 -45.5 182.5t-141.5 66.5q-87 0 -153.5 -56t-104 -148.5t-37.5 -202.5q0 -107 45 -177t145 -70z" />
    <glyph glyph-name="eth" unicode="&#xf0;" horiz-adv-x="991" 
d="M389 -25q-116 0 -201.5 48t-131.5 132t-46 191q0 133 57 248.5t160 186.5t242 71q79 0 132.5 -26t86 -64t48.5 -75l-28 -30q15 141 -23.5 266t-121.5 222.5t-202 153.5l72 103q136 -57 244 -160.5t170.5 -250t62.5 -332.5q0 -203 -64 -357t-181 -240.5t-276 -86.5z
M414 164q60 0 116 34t92 99.5t36 160.5q0 96 -43 153t-128 57q-79 0 -136 -42.5t-88 -110t-31 -143.5q0 -90 46 -149t136 -59zM366 982l-60 126l556 237l58 -126z" />
    <glyph glyph-name="dcaron" unicode="&#x10f;" horiz-adv-x="1185" 
d="M385 -20q-111 0 -188.5 54t-118 146.5t-40.5 207.5q0 117 35.5 228.5t103 200.5t161.5 141t210 52q85 0 144.5 -31t98 -84t60.5 -121l-68 18l126 708h224l-264 -1500h-211l31 215l38 -44q-72 -91 -158 -141t-184 -50zM461 168q68 0 122 33t92 90t58 130t20 152
q0 116 -45.5 182.5t-141.5 66.5q-87 0 -153.5 -56t-104 -148.5t-37.5 -202.5q0 -107 45 -177t145 -70zM1143 1153l63 347h191l-120 -347h-134z" />
    <glyph glyph-name="dcroat" unicode="&#x111;" horiz-adv-x="1092" 
d="M385 -20q-111 0 -188.5 54t-118 146.5t-40.5 207.5q0 117 35.5 228.5t103 200.5t161.5 141t210 52q85 0 144.5 -31t98 -84t60.5 -121l-68 18l126 708h224l-264 -1500h-211l31 215l38 -44q-72 -91 -158 -141t-184 -50zM461 168q68 0 122 33t92 90t58 130t20 152
q0 116 -45.5 182.5t-141.5 66.5q-87 0 -153.5 -56t-104 -148.5t-37.5 -202.5q0 -107 45 -177t145 -70zM616 1181l27 151h569l-27 -151h-569z" />
    <glyph glyph-name="uni1E0D" unicode="&#x1e0d;" horiz-adv-x="1092" 
d="M385 -20q-111 0 -188.5 54t-118 146.5t-40.5 207.5q0 117 35.5 228.5t103 200.5t161.5 141t210 52q85 0 144.5 -31t98 -84t60.5 -121l-68 18l126 708h224l-264 -1500h-211l31 215l38 -44q-72 -91 -158 -141t-184 -50zM461 168q68 0 122 33t92 90t58 130t20 152
q0 116 -45.5 182.5t-141.5 66.5q-87 0 -153.5 -56t-104 -148.5t-37.5 -202.5q0 -107 45 -177t145 -70zM388 -351l36 189h194l-36 -189h-194z" />
    <glyph glyph-name="uni1E0F" unicode="&#x1e0f;" horiz-adv-x="1092" 
d="M385 -20q-111 0 -188.5 54t-118 146.5t-40.5 207.5q0 117 35.5 228.5t103 200.5t161.5 141t210 52q85 0 144.5 -31t98 -84t60.5 -121l-68 18l126 708h224l-264 -1500h-211l31 215l38 -44q-72 -91 -158 -141t-184 -50zM461 168q68 0 122 33t92 90t58 130t20 152
q0 116 -45.5 182.5t-141.5 66.5q-87 0 -153.5 -56t-104 -148.5t-37.5 -202.5q0 -107 45 -177t145 -70zM169 -337l30 155h635l-31 -155h-634z" />
    <glyph glyph-name="uni01C6" unicode="&#x1c6;" horiz-adv-x="1992" 
d="M385 -20q-111 0 -188.5 54t-118 146.5t-40.5 207.5q0 117 35.5 228.5t103 200.5t161.5 141t210 52q85 0 144.5 -31t98 -84t60.5 -121l-68 18l126 708h224l-264 -1500h-211l31 215l38 -44q-72 -91 -158 -141t-184 -50zM461 168q68 0 122 33t92 90t58 130t20 152
q0 116 -45.5 182.5t-141.5 66.5q-87 0 -153.5 -56t-104 -148.5t-37.5 -202.5q0 -107 45 -177t145 -70zM1035 0l638 887l43 -85h-521l34 191h788l-636 -887l-44 85h520l-35 -191h-787zM1647 1117l-216 223l29 145l227 -164l281 164l-29 -167z" />
    <glyph glyph-name="e" unicode="e" horiz-adv-x="954" 
d="M261 575q37 -12 69 -17t74 -5q121 0 188 25.5t93.5 63.5t26.5 77q0 43 -22.5 65.5t-54 30t-57.5 7.5q-76 0 -134.5 -41t-98.5 -106t-59 -135l-12 -83q-3 -111 29.5 -174t88.5 -89t121 -26q79 0 156.5 20.5t141.5 52.5l-21 -185q-59 -33 -142 -54.5t-183 -21.5
q-146 0 -240.5 57t-140.5 154t-46 217q0 115 39.5 222.5t112.5 193.5t174.5 136t226.5 50q153 0 233.5 -76t80.5 -199q0 -78 -33 -139.5t-94.5 -104t-148 -64t-194.5 -21.5q-57 0 -107.5 6t-82.5 16z" />
    <glyph glyph-name="eacute" unicode="&#xe9;" horiz-adv-x="954" 
d="M261 575q37 -12 69 -17t74 -5q121 0 188 25.5t93.5 63.5t26.5 77q0 43 -22.5 65.5t-54 30t-57.5 7.5q-76 0 -134.5 -41t-98.5 -106t-59 -135l-12 -83q-3 -111 29.5 -174t88.5 -89t121 -26q79 0 156.5 20.5t141.5 52.5l-21 -185q-59 -33 -142 -54.5t-183 -21.5
q-146 0 -240.5 57t-140.5 154t-46 217q0 115 39.5 222.5t112.5 193.5t174.5 136t226.5 50q153 0 233.5 -76t80.5 -199q0 -78 -33 -139.5t-94.5 -104t-148 -64t-194.5 -21.5q-57 0 -107.5 6t-82.5 16zM461 1144l30 155l391 213l-37 -240z" />
    <glyph glyph-name="ebreve" unicode="&#x115;" horiz-adv-x="954" 
d="M261 575q37 -12 69 -17t74 -5q121 0 188 25.5t93.5 63.5t26.5 77q0 43 -22.5 65.5t-54 30t-57.5 7.5q-76 0 -134.5 -41t-98.5 -106t-59 -135l-12 -83q-3 -111 29.5 -174t88.5 -89t121 -26q79 0 156.5 20.5t141.5 52.5l-21 -185q-59 -33 -142 -54.5t-183 -21.5
q-146 0 -240.5 57t-140.5 154t-46 217q0 115 39.5 222.5t112.5 193.5t174.5 136t226.5 50q153 0 233.5 -76t80.5 -199q0 -78 -33 -139.5t-94.5 -104t-148 -64t-194.5 -21.5q-57 0 -107.5 6t-82.5 16zM657 1166q-127 0 -194 62.5t-67 152.5q0 14 1.5 28t5.5 26h158
q-2 -7 -3.5 -15.5t-1.5 -16.5q0 -45 30.5 -69.5t82.5 -24.5q59 0 102.5 32.5t54.5 93.5h175q-25 -117 -111.5 -193t-232.5 -76z" />
    <glyph glyph-name="ecaron" unicode="&#x11b;" horiz-adv-x="954" 
d="M261 575q37 -12 69 -17t74 -5q121 0 188 25.5t93.5 63.5t26.5 77q0 43 -22.5 65.5t-54 30t-57.5 7.5q-76 0 -134.5 -41t-98.5 -106t-59 -135l-12 -83q-3 -111 29.5 -174t88.5 -89t121 -26q79 0 156.5 20.5t141.5 52.5l-21 -185q-59 -33 -142 -54.5t-183 -21.5
q-146 0 -240.5 57t-140.5 154t-46 217q0 115 39.5 222.5t112.5 193.5t174.5 136t226.5 50q153 0 233.5 -76t80.5 -199q0 -78 -33 -139.5t-94.5 -104t-148 -64t-194.5 -21.5q-57 0 -107.5 6t-82.5 16zM631 1117l-216 223l29 145l227 -164l281 164l-29 -167z" />
    <glyph glyph-name="uni1E1D" unicode="&#x1e1d;" horiz-adv-x="954" 
d="M261 575q37 -12 69 -17t74 -5q121 0 188 25.5t93.5 63.5t26.5 77q0 43 -22.5 65.5t-54 30t-57.5 7.5q-76 0 -134.5 -41t-98.5 -106t-59 -135l-12 -83q-3 -111 29.5 -174t88.5 -89t121 -26q79 0 156.5 20.5t141.5 52.5l-21 -185q-59 -33 -142 -54.5t-183 -21.5
q-146 0 -240.5 57t-140.5 154t-46 217q0 115 39.5 222.5t112.5 193.5t174.5 136t226.5 50q153 0 233.5 -76t80.5 -199q0 -78 -33 -139.5t-94.5 -104t-148 -64t-194.5 -21.5q-57 0 -107.5 6t-82.5 16zM471 -158l-68 30q27 9 52.5 14.5t52.5 5.5q72 0 112.5 -36.5t40.5 -103.5
q0 -97 -74 -159t-184 -62q-52 0 -90.5 11.5t-64.5 26.5l55 111q28 -15 57.5 -24.5t65.5 -9.5q51 0 80 23t29 58q0 62 -90 62q-24 0 -47.5 -3t-51.5 -11l95 225h107zM657 1166q-127 0 -194 62.5t-67 152.5q0 14 1.5 28t5.5 26h158q-2 -7 -3.5 -15.5t-1.5 -16.5
q0 -45 30.5 -69.5t82.5 -24.5q59 0 102.5 32.5t54.5 93.5h175q-25 -117 -111.5 -193t-232.5 -76z" />
    <glyph glyph-name="ecircumflex" unicode="&#xea;" horiz-adv-x="954" 
d="M261 575q37 -12 69 -17t74 -5q121 0 188 25.5t93.5 63.5t26.5 77q0 43 -22.5 65.5t-54 30t-57.5 7.5q-76 0 -134.5 -41t-98.5 -106t-59 -135l-12 -83q-3 -111 29.5 -174t88.5 -89t121 -26q79 0 156.5 20.5t141.5 52.5l-21 -185q-59 -33 -142 -54.5t-183 -21.5
q-146 0 -240.5 57t-140.5 154t-46 217q0 115 39.5 222.5t112.5 193.5t174.5 136t226.5 50q153 0 233.5 -76t80.5 -199q0 -78 -33 -139.5t-94.5 -104t-148 -64t-194.5 -21.5q-57 0 -107.5 6t-82.5 16zM411 1138l32 149l261 196l217 -223l-29 -145l-227 164z" />
    <glyph glyph-name="uni1EBF" unicode="&#x1ebf;" horiz-adv-x="954" 
d="M261 575q37 -12 69 -17t74 -5q121 0 188 25.5t93.5 63.5t26.5 77q0 43 -22.5 65.5t-54 30t-57.5 7.5q-76 0 -134.5 -41t-98.5 -106t-59 -135l-12 -83q-3 -111 29.5 -174t88.5 -89t121 -26q79 0 156.5 20.5t141.5 52.5l-21 -185q-59 -33 -142 -54.5t-183 -21.5
q-146 0 -240.5 57t-140.5 154t-46 217q0 115 39.5 222.5t112.5 193.5t174.5 136t226.5 50q153 0 233.5 -76t80.5 -199q0 -78 -33 -139.5t-94.5 -104t-148 -64t-194.5 -21.5q-57 0 -107.5 6t-82.5 16zM889 1101l-236 140l-239 -116l24 139l247 158l227 -182zM797 1400
l155 230h217l-225 -230h-147z" />
    <glyph glyph-name="uni1EC7" unicode="&#x1ec7;" horiz-adv-x="954" 
d="M261 575q37 -12 69 -17t74 -5q121 0 188 25.5t93.5 63.5t26.5 77q0 43 -22.5 65.5t-54 30t-57.5 7.5q-76 0 -134.5 -41t-98.5 -106t-59 -135l-12 -83q-3 -111 29.5 -174t88.5 -89t121 -26q79 0 156.5 20.5t141.5 52.5l-21 -185q-59 -33 -142 -54.5t-183 -21.5
q-146 0 -240.5 57t-140.5 154t-46 217q0 115 39.5 222.5t112.5 193.5t174.5 136t226.5 50q153 0 233.5 -76t80.5 -199q0 -78 -33 -139.5t-94.5 -104t-148 -64t-194.5 -21.5q-57 0 -107.5 6t-82.5 16zM411 1138l32 149l261 196l217 -223l-29 -145l-227 164zM331 -351l36 189
h194l-36 -189h-194z" />
    <glyph glyph-name="uni1EC1" unicode="&#x1ec1;" horiz-adv-x="954" 
d="M261 575q37 -12 69 -17t74 -5q121 0 188 25.5t93.5 63.5t26.5 77q0 43 -22.5 65.5t-54 30t-57.5 7.5q-76 0 -134.5 -41t-98.5 -106t-59 -135l-12 -83q-3 -111 29.5 -174t88.5 -89t121 -26q79 0 156.5 20.5t141.5 52.5l-21 -185q-59 -33 -142 -54.5t-183 -21.5
q-146 0 -240.5 57t-140.5 154t-46 217q0 115 39.5 222.5t112.5 193.5t174.5 136t226.5 50q153 0 233.5 -76t80.5 -199q0 -78 -33 -139.5t-94.5 -104t-148 -64t-194.5 -21.5q-57 0 -107.5 6t-82.5 16zM888 1101l-236 140l-239 -116l24 139l247 158l227 -182zM814 1400
l-126 246h206l63 -246h-143z" />
    <glyph glyph-name="uni1EC3" unicode="&#x1ec3;" horiz-adv-x="954" 
d="M261 575q37 -12 69 -17t74 -5q121 0 188 25.5t93.5 63.5t26.5 77q0 43 -22.5 65.5t-54 30t-57.5 7.5q-76 0 -134.5 -41t-98.5 -106t-59 -135l-12 -83q-3 -111 29.5 -174t88.5 -89t121 -26q79 0 156.5 20.5t141.5 52.5l-21 -185q-59 -33 -142 -54.5t-183 -21.5
q-146 0 -240.5 57t-140.5 154t-46 217q0 115 39.5 222.5t112.5 193.5t174.5 136t226.5 50q153 0 233.5 -76t80.5 -199q0 -78 -33 -139.5t-94.5 -104t-148 -64t-194.5 -21.5q-57 0 -107.5 6t-82.5 16zM886 1089l-236 139l-239 -115l24 138l247 159l227 -183zM835 1337l-5 85
q85 23 85 78q0 52 -67 52q-30 0 -61.5 -9.5t-63.5 -23.5l-15 115q38 15 79.5 24t85.5 9q74 0 122 -35t48 -100q0 -76 -55 -124t-153 -71z" />
    <glyph glyph-name="uni1EC5" unicode="&#x1ec5;" horiz-adv-x="954" 
d="M261 575q37 -12 69 -17t74 -5q121 0 188 25.5t93.5 63.5t26.5 77q0 43 -22.5 65.5t-54 30t-57.5 7.5q-76 0 -134.5 -41t-98.5 -106t-59 -135l-12 -83q-3 -111 29.5 -174t88.5 -89t121 -26q79 0 156.5 20.5t141.5 52.5l-21 -185q-59 -33 -142 -54.5t-183 -21.5
q-146 0 -240.5 57t-140.5 154t-46 217q0 115 39.5 222.5t112.5 193.5t174.5 136t226.5 50q153 0 233.5 -76t80.5 -199q0 -78 -33 -139.5t-94.5 -104t-148 -64t-194.5 -21.5q-57 0 -107.5 6t-82.5 16zM886 1089l-236 139l-239 -115l24 138l247 159l227 -183zM857 1465
q-43 0 -89 19.5t-89.5 38.5t-78.5 19q-25 0 -43 -15.5t-23 -48.5h-144q19 100 68 153t126 53q44 0 89 -19t87.5 -38.5t79.5 -19.5q56 0 66 67h144q-15 -103 -65.5 -156t-127.5 -53z" />
    <glyph glyph-name="uni0205" unicode="&#x205;" horiz-adv-x="954" 
d="M261 575q37 -12 69 -17t74 -5q121 0 188 25.5t93.5 63.5t26.5 77q0 43 -22.5 65.5t-54 30t-57.5 7.5q-76 0 -134.5 -41t-98.5 -106t-59 -135l-12 -83q-3 -111 29.5 -174t88.5 -89t121 -26q79 0 156.5 20.5t141.5 52.5l-21 -185q-59 -33 -142 -54.5t-183 -21.5
q-146 0 -240.5 57t-140.5 154t-46 217q0 115 39.5 222.5t112.5 193.5t174.5 136t226.5 50q153 0 233.5 -76t80.5 -199q0 -78 -33 -139.5t-94.5 -104t-148 -64t-194.5 -21.5q-57 0 -107.5 6t-82.5 16zM864 1169h-148l-136 346h217zM576 1169h-148l-150 346h217z" />
    <glyph glyph-name="edieresis" unicode="&#xeb;" horiz-adv-x="954" 
d="M261 575q37 -12 69 -17t74 -5q121 0 188 25.5t93.5 63.5t26.5 77q0 43 -22.5 65.5t-54 30t-57.5 7.5q-76 0 -134.5 -41t-98.5 -106t-59 -135l-12 -83q-3 -111 29.5 -174t88.5 -89t121 -26q79 0 156.5 20.5t141.5 52.5l-21 -185q-59 -33 -142 -54.5t-183 -21.5
q-146 0 -240.5 57t-140.5 154t-46 217q0 115 39.5 222.5t112.5 193.5t174.5 136t226.5 50q153 0 233.5 -76t80.5 -199q0 -78 -33 -139.5t-94.5 -104t-148 -64t-194.5 -21.5q-57 0 -107.5 6t-82.5 16zM360 1182l34 173h181l-34 -173h-181zM747 1182l34 173h181l-34 -173h-181
z" />
    <glyph glyph-name="edotaccent" unicode="&#x117;" horiz-adv-x="954" 
d="M261 575q37 -12 69 -17t74 -5q121 0 188 25.5t93.5 63.5t26.5 77q0 43 -22.5 65.5t-54 30t-57.5 7.5q-76 0 -134.5 -41t-98.5 -106t-59 -135l-12 -83q-3 -111 29.5 -174t88.5 -89t121 -26q79 0 156.5 20.5t141.5 52.5l-21 -185q-59 -33 -142 -54.5t-183 -21.5
q-146 0 -240.5 57t-140.5 154t-46 217q0 115 39.5 222.5t112.5 193.5t174.5 136t226.5 50q153 0 233.5 -76t80.5 -199q0 -78 -33 -139.5t-94.5 -104t-148 -64t-194.5 -21.5q-57 0 -107.5 6t-82.5 16zM550 1196l36 189h194l-36 -189h-194z" />
    <glyph glyph-name="uni1EB9" unicode="&#x1eb9;" horiz-adv-x="954" 
d="M261 575q37 -12 69 -17t74 -5q121 0 188 25.5t93.5 63.5t26.5 77q0 43 -22.5 65.5t-54 30t-57.5 7.5q-76 0 -134.5 -41t-98.5 -106t-59 -135l-12 -83q-3 -111 29.5 -174t88.5 -89t121 -26q79 0 156.5 20.5t141.5 52.5l-21 -185q-59 -33 -142 -54.5t-183 -21.5
q-146 0 -240.5 57t-140.5 154t-46 217q0 115 39.5 222.5t112.5 193.5t174.5 136t226.5 50q153 0 233.5 -76t80.5 -199q0 -78 -33 -139.5t-94.5 -104t-148 -64t-194.5 -21.5q-57 0 -107.5 6t-82.5 16zM331 -351l36 189h194l-36 -189h-194z" />
    <glyph glyph-name="egrave" unicode="&#xe8;" horiz-adv-x="954" 
d="M261 575q37 -12 69 -17t74 -5q121 0 188 25.5t93.5 63.5t26.5 77q0 43 -22.5 65.5t-54 30t-57.5 7.5q-76 0 -134.5 -41t-98.5 -106t-59 -135l-12 -83q-3 -111 29.5 -174t88.5 -89t121 -26q79 0 156.5 20.5t141.5 52.5l-21 -185q-59 -33 -142 -54.5t-183 -21.5
q-146 0 -240.5 57t-140.5 154t-46 217q0 115 39.5 222.5t112.5 193.5t174.5 136t226.5 50q153 0 233.5 -76t80.5 -199q0 -78 -33 -139.5t-94.5 -104t-148 -64t-194.5 -21.5q-57 0 -107.5 6t-82.5 16zM818 1144l-343 147l38 218l330 -220z" />
    <glyph glyph-name="uni1EBB" unicode="&#x1ebb;" horiz-adv-x="954" 
d="M261 575q37 -12 69 -17t74 -5q121 0 188 25.5t93.5 63.5t26.5 77q0 43 -22.5 65.5t-54 30t-57.5 7.5q-76 0 -134.5 -41t-98.5 -106t-59 -135l-12 -83q-3 -111 29.5 -174t88.5 -89t121 -26q79 0 156.5 20.5t141.5 52.5l-21 -185q-59 -33 -142 -54.5t-183 -21.5
q-146 0 -240.5 57t-140.5 154t-46 217q0 115 39.5 222.5t112.5 193.5t174.5 136t226.5 50q153 0 233.5 -76t80.5 -199q0 -78 -33 -139.5t-94.5 -104t-148 -64t-194.5 -21.5q-57 0 -107.5 6t-82.5 16zM593 1133q45 35 79.5 68.5t34.5 75.5q0 54 -64 54q-30 0 -63.5 -10.5
t-66.5 -26.5l-13 112q39 18 80.5 27.5t85.5 9.5q71 0 119 -35.5t48 -102.5q0 -82 -52.5 -138.5t-128.5 -105.5z" />
    <glyph glyph-name="uni0207" unicode="&#x207;" horiz-adv-x="954" 
d="M261 575q37 -12 69 -17t74 -5q121 0 188 25.5t93.5 63.5t26.5 77q0 43 -22.5 65.5t-54 30t-57.5 7.5q-76 0 -134.5 -41t-98.5 -106t-59 -135l-12 -83q-3 -111 29.5 -174t88.5 -89t121 -26q79 0 156.5 20.5t141.5 52.5l-21 -185q-59 -33 -142 -54.5t-183 -21.5
q-146 0 -240.5 57t-140.5 154t-46 217q0 115 39.5 222.5t112.5 193.5t174.5 136t226.5 50q153 0 233.5 -76t80.5 -199q0 -78 -33 -139.5t-94.5 -104t-148 -64t-194.5 -21.5q-57 0 -107.5 6t-82.5 16zM684 1435q130 0 195 -64t65 -156q0 -12 -1 -24t-3 -25h-164q2 9 2 15v12
q0 48 -31.5 73.5t-85.5 25.5q-60 0 -103.5 -32t-54.5 -94h-168q13 72 59 133.5t119.5 98.5t170.5 37z" />
    <glyph glyph-name="emacron" unicode="&#x113;" horiz-adv-x="954" 
d="M261 575q37 -12 69 -17t74 -5q121 0 188 25.5t93.5 63.5t26.5 77q0 43 -22.5 65.5t-54 30t-57.5 7.5q-76 0 -134.5 -41t-98.5 -106t-59 -135l-12 -83q-3 -111 29.5 -174t88.5 -89t121 -26q79 0 156.5 20.5t141.5 52.5l-21 -185q-59 -33 -142 -54.5t-183 -21.5
q-146 0 -240.5 57t-140.5 154t-46 217q0 115 39.5 222.5t112.5 193.5t174.5 136t226.5 50q153 0 233.5 -76t80.5 -199q0 -78 -33 -139.5t-94.5 -104t-148 -64t-194.5 -21.5q-57 0 -107.5 6t-82.5 16zM331 1195l30 155h635l-31 -155h-634z" />
    <glyph glyph-name="uni1E17" unicode="&#x1e17;" horiz-adv-x="954" 
d="M261 575q37 -12 69 -17t74 -5q121 0 188 25.5t93.5 63.5t26.5 77q0 43 -22.5 65.5t-54 30t-57.5 7.5q-76 0 -134.5 -41t-98.5 -106t-59 -135l-12 -83q-3 -111 29.5 -174t88.5 -89t121 -26q79 0 156.5 20.5t141.5 52.5l-21 -185q-59 -33 -142 -54.5t-183 -21.5
q-146 0 -240.5 57t-140.5 154t-46 217q0 115 39.5 222.5t112.5 193.5t174.5 136t226.5 50q153 0 233.5 -76t80.5 -199q0 -78 -33 -139.5t-94.5 -104t-148 -64t-194.5 -21.5q-57 0 -107.5 6t-82.5 16zM321 1179l27 146h637l-26 -146h-638zM531 1442l21 142l370 190l-33 -216z
" />
    <glyph glyph-name="uni1E15" unicode="&#x1e15;" horiz-adv-x="954" 
d="M261 575q37 -12 69 -17t74 -5q121 0 188 25.5t93.5 63.5t26.5 77q0 43 -22.5 65.5t-54 30t-57.5 7.5q-76 0 -134.5 -41t-98.5 -106t-59 -135l-12 -83q-3 -111 29.5 -174t88.5 -89t121 -26q79 0 156.5 20.5t141.5 52.5l-21 -185q-59 -33 -142 -54.5t-183 -21.5
q-146 0 -240.5 57t-140.5 154t-46 217q0 115 39.5 222.5t112.5 193.5t174.5 136t226.5 50q153 0 233.5 -76t80.5 -199q0 -78 -33 -139.5t-94.5 -104t-148 -64t-194.5 -21.5q-57 0 -107.5 6t-82.5 16zM321 1179l27 146h637l-26 -146h-638zM879 1442l-346 116l38 204l334 -190
z" />
    <glyph glyph-name="eogonek" unicode="&#x119;" horiz-adv-x="954" 
d="M261 575q37 -12 69 -17t74 -5q121 0 188 25.5t93.5 63.5t26.5 77q0 43 -22.5 65.5t-54 30t-57.5 7.5q-76 0 -134.5 -41t-98.5 -106t-59 -135l-12 -83q-3 -111 29.5 -174t88.5 -89t121 -26q79 0 156.5 20.5t141.5 52.5l-21 -185q-59 -33 -142 -54.5t-183 -21.5
q-146 0 -240.5 57t-140.5 154t-46 217q0 115 39.5 222.5t112.5 193.5t174.5 136t226.5 50q153 0 233.5 -76t80.5 -199q0 -78 -33 -139.5t-94.5 -104t-148 -64t-194.5 -21.5q-57 0 -107.5 6t-82.5 16zM683 66l107 -10q-47 -31 -91.5 -67.5t-73.5 -78t-29 -86.5q0 -73 74 -73
q33 0 61 7t58 21l13 -106q-31 -15 -73 -26t-96 -11q-73 0 -120.5 36.5t-47.5 102.5q0 86 66.5 162t151.5 129z" />
    <glyph glyph-name="uni1EBD" unicode="&#x1ebd;" horiz-adv-x="954" 
d="M261 575q37 -12 69 -17t74 -5q121 0 188 25.5t93.5 63.5t26.5 77q0 43 -22.5 65.5t-54 30t-57.5 7.5q-76 0 -134.5 -41t-98.5 -106t-59 -135l-12 -83q-3 -111 29.5 -174t88.5 -89t121 -26q79 0 156.5 20.5t141.5 52.5l-21 -185q-59 -33 -142 -54.5t-183 -21.5
q-146 0 -240.5 57t-140.5 154t-46 217q0 115 39.5 222.5t112.5 193.5t174.5 136t226.5 50q153 0 233.5 -76t80.5 -199q0 -78 -33 -139.5t-94.5 -104t-148 -64t-194.5 -21.5q-57 0 -107.5 6t-82.5 16zM812 1157q-43 0 -90 22t-92 43.5t-82 21.5q-33 0 -54 -19t-27 -52h-152
q20 115 74 175t135 60q47 0 91.5 -21.5t86 -43.5t79.5 -22q31 0 50.5 19t25.5 58h157q-22 -124 -72 -182.5t-130 -58.5z" />
    <glyph glyph-name="f" unicode="f" horiz-adv-x="647" 
d="M287 1234q12 70 44 130.5t95.5 98t171.5 37.5q45 0 89.5 -6t76.5 -11l-55 -186q-31 7 -49.5 9.5t-36.5 2.5q-49 0 -73 -18.5t-35.5 -59.5t-23.5 -108l-198 -1123h-224zM76 812l53 181h552l-32 -181h-573z" />
    <glyph glyph-name="g" unicode="g" horiz-adv-x="954" 
d="M394 227q-155 0 -239 86t-84 240q0 118 56 222.5t157.5 169.5t240.5 65q147 0 234 -85t87 -240q0 -87 -31.5 -168.5t-90.5 -147t-143 -104t-187 -38.5zM421 393q70 0 119.5 38.5t76 101.5t26.5 135q0 85 -37 129.5t-111 44.5q-70 0 -119.5 -38t-75 -100t-25.5 -135
q0 -84 36.5 -130t109.5 -46zM307 -500q-144 0 -231 38.5t-126 98t-39 122.5q0 52 24 101t72.5 92t121.5 76l151 -60q-44 -12 -84.5 -36t-66 -58t-25.5 -77q0 -60 57 -97t164 -37q80 0 144 20.5t101 55.5t37 77q0 49 -40.5 74t-104.5 38t-135.5 24t-135.5 29.5t-104.5 54.5
t-40.5 101q0 47 35 91t107 76l117 -56q-20 -8 -33.5 -22.5t-13.5 -33.5q0 -34 58 -49.5t168 -34.5q48 -8 104.5 -22t108 -41t84.5 -73.5t33 -120.5q0 -95 -60.5 -174.5t-174.5 -128t-272 -48.5zM799 841l-75 99q32 21 91 37.5t130 16.5h54l-41 -143h-79q-10 0 -34 -2t-46 -8
z" />
    <glyph glyph-name="gbreve" unicode="&#x11f;" horiz-adv-x="954" 
d="M394 227q-155 0 -239 86t-84 240q0 118 56 222.5t157.5 169.5t240.5 65q147 0 234 -85t87 -240q0 -87 -31.5 -168.5t-90.5 -147t-143 -104t-187 -38.5zM421 393q70 0 119.5 38.5t76 101.5t26.5 135q0 85 -37 129.5t-111 44.5q-70 0 -119.5 -38t-75 -100t-25.5 -135
q0 -84 36.5 -130t109.5 -46zM307 -500q-144 0 -231 38.5t-126 98t-39 122.5q0 52 24 101t72.5 92t121.5 76l151 -60q-44 -12 -84.5 -36t-66 -58t-25.5 -77q0 -60 57 -97t164 -37q80 0 144 20.5t101 55.5t37 77q0 49 -40.5 74t-104.5 38t-135.5 24t-135.5 29.5t-104.5 54.5
t-40.5 101q0 47 35 91t107 76l117 -56q-20 -8 -33.5 -22.5t-13.5 -33.5q0 -34 58 -49.5t168 -34.5q48 -8 104.5 -22t108 -41t84.5 -73.5t33 -120.5q0 -95 -60.5 -174.5t-174.5 -128t-272 -48.5zM799 841l-75 99q32 21 91 37.5t130 16.5h54l-41 -143h-79q-10 0 -34 -2t-46 -8
zM560 1166q-127 0 -194 62.5t-67 152.5q0 14 1.5 28t5.5 26h158q-2 -7 -3.5 -15.5t-1.5 -16.5q0 -45 30.5 -69.5t82.5 -24.5q59 0 102.5 32.5t54.5 93.5h175q-25 -117 -111.5 -193t-232.5 -76z" />
    <glyph glyph-name="gcaron" unicode="&#x1e7;" horiz-adv-x="954" 
d="M394 227q-155 0 -239 86t-84 240q0 118 56 222.5t157.5 169.5t240.5 65q147 0 234 -85t87 -240q0 -87 -31.5 -168.5t-90.5 -147t-143 -104t-187 -38.5zM421 393q70 0 119.5 38.5t76 101.5t26.5 135q0 85 -37 129.5t-111 44.5q-70 0 -119.5 -38t-75 -100t-25.5 -135
q0 -84 36.5 -130t109.5 -46zM307 -500q-144 0 -231 38.5t-126 98t-39 122.5q0 52 24 101t72.5 92t121.5 76l151 -60q-44 -12 -84.5 -36t-66 -58t-25.5 -77q0 -60 57 -97t164 -37q80 0 144 20.5t101 55.5t37 77q0 49 -40.5 74t-104.5 38t-135.5 24t-135.5 29.5t-104.5 54.5
t-40.5 101q0 47 35 91t107 76l117 -56q-20 -8 -33.5 -22.5t-13.5 -33.5q0 -34 58 -49.5t168 -34.5q48 -8 104.5 -22t108 -41t84.5 -73.5t33 -120.5q0 -95 -60.5 -174.5t-174.5 -128t-272 -48.5zM799 841l-75 99q32 21 91 37.5t130 16.5h54l-41 -143h-79q-10 0 -34 -2t-46 -8
zM534 1117l-216 223l29 145l227 -164l281 164l-29 -167z" />
    <glyph glyph-name="gcircumflex" unicode="&#x11d;" horiz-adv-x="954" 
d="M394 227q-155 0 -239 86t-84 240q0 118 56 222.5t157.5 169.5t240.5 65q147 0 234 -85t87 -240q0 -87 -31.5 -168.5t-90.5 -147t-143 -104t-187 -38.5zM421 393q70 0 119.5 38.5t76 101.5t26.5 135q0 85 -37 129.5t-111 44.5q-70 0 -119.5 -38t-75 -100t-25.5 -135
q0 -84 36.5 -130t109.5 -46zM307 -500q-144 0 -231 38.5t-126 98t-39 122.5q0 52 24 101t72.5 92t121.5 76l151 -60q-44 -12 -84.5 -36t-66 -58t-25.5 -77q0 -60 57 -97t164 -37q80 0 144 20.5t101 55.5t37 77q0 49 -40.5 74t-104.5 38t-135.5 24t-135.5 29.5t-104.5 54.5
t-40.5 101q0 47 35 91t107 76l117 -56q-20 -8 -33.5 -22.5t-13.5 -33.5q0 -34 58 -49.5t168 -34.5q48 -8 104.5 -22t108 -41t84.5 -73.5t33 -120.5q0 -95 -60.5 -174.5t-174.5 -128t-272 -48.5zM799 841l-75 99q32 21 91 37.5t130 16.5h54l-41 -143h-79q-10 0 -34 -2t-46 -8
zM313 1138l32 149l261 196l217 -223l-29 -145l-227 164z" />
    <glyph glyph-name="uni0123" unicode="&#x123;" horiz-adv-x="954" 
d="M394 227q-155 0 -239 86t-84 240q0 118 56 222.5t157.5 169.5t240.5 65q147 0 234 -85t87 -240q0 -87 -31.5 -168.5t-90.5 -147t-143 -104t-187 -38.5zM421 393q70 0 119.5 38.5t76 101.5t26.5 135q0 85 -37 129.5t-111 44.5q-70 0 -119.5 -38t-75 -100t-25.5 -135
q0 -84 36.5 -130t109.5 -46zM307 -500q-144 0 -231 38.5t-126 98t-39 122.5q0 52 24 101t72.5 92t121.5 76l151 -60q-44 -12 -84.5 -36t-66 -58t-25.5 -77q0 -60 57 -97t164 -37q80 0 144 20.5t101 55.5t37 77q0 49 -40.5 74t-104.5 38t-135.5 24t-135.5 29.5t-104.5 54.5
t-40.5 101q0 47 35 91t107 76l117 -56q-20 -8 -33.5 -22.5t-13.5 -33.5q0 -34 58 -49.5t168 -34.5q48 -8 104.5 -22t108 -41t84.5 -73.5t33 -120.5q0 -95 -60.5 -174.5t-174.5 -128t-272 -48.5zM799 841l-75 99q32 21 91 37.5t130 16.5h54l-41 -143h-79q-10 0 -34 -2t-46 -8
z" />
    <glyph glyph-name="gdotaccent" unicode="&#x121;" horiz-adv-x="954" 
d="M394 227q-155 0 -239 86t-84 240q0 118 56 222.5t157.5 169.5t240.5 65q147 0 234 -85t87 -240q0 -87 -31.5 -168.5t-90.5 -147t-143 -104t-187 -38.5zM421 393q70 0 119.5 38.5t76 101.5t26.5 135q0 85 -37 129.5t-111 44.5q-70 0 -119.5 -38t-75 -100t-25.5 -135
q0 -84 36.5 -130t109.5 -46zM307 -500q-144 0 -231 38.5t-126 98t-39 122.5q0 52 24 101t72.5 92t121.5 76l151 -60q-44 -12 -84.5 -36t-66 -58t-25.5 -77q0 -60 57 -97t164 -37q80 0 144 20.5t101 55.5t37 77q0 49 -40.5 74t-104.5 38t-135.5 24t-135.5 29.5t-104.5 54.5
t-40.5 101q0 47 35 91t107 76l117 -56q-20 -8 -33.5 -22.5t-13.5 -33.5q0 -34 58 -49.5t168 -34.5q48 -8 104.5 -22t108 -41t84.5 -73.5t33 -120.5q0 -95 -60.5 -174.5t-174.5 -128t-272 -48.5zM799 841l-75 99q32 21 91 37.5t130 16.5h54l-41 -143h-79q-10 0 -34 -2t-46 -8
zM453 1196l36 189h194l-36 -189h-194z" />
    <glyph glyph-name="uni1E21" unicode="&#x1e21;" horiz-adv-x="954" 
d="M394 227q-155 0 -239 86t-84 240q0 118 56 222.5t157.5 169.5t240.5 65q147 0 234 -85t87 -240q0 -87 -31.5 -168.5t-90.5 -147t-143 -104t-187 -38.5zM421 393q70 0 119.5 38.5t76 101.5t26.5 135q0 85 -37 129.5t-111 44.5q-70 0 -119.5 -38t-75 -100t-25.5 -135
q0 -84 36.5 -130t109.5 -46zM307 -500q-144 0 -231 38.5t-126 98t-39 122.5q0 52 24 101t72.5 92t121.5 76l151 -60q-44 -12 -84.5 -36t-66 -58t-25.5 -77q0 -60 57 -97t164 -37q80 0 144 20.5t101 55.5t37 77q0 49 -40.5 74t-104.5 38t-135.5 24t-135.5 29.5t-104.5 54.5
t-40.5 101q0 47 35 91t107 76l117 -56q-20 -8 -33.5 -22.5t-13.5 -33.5q0 -34 58 -49.5t168 -34.5q48 -8 104.5 -22t108 -41t84.5 -73.5t33 -120.5q0 -95 -60.5 -174.5t-174.5 -128t-272 -48.5zM799 841l-75 99q32 21 91 37.5t130 16.5h54l-41 -143h-79q-10 0 -34 -2t-46 -8
zM234 1195l30 155h635l-31 -155h-634z" />
    <glyph glyph-name="h" unicode="h" horiz-adv-x="1053" 
d="M16 0l264 1500h225l-265 -1500h-224zM617 0l84 491q9 51 14.5 96t5.5 84q0 70 -36.5 110.5t-103.5 40.5q-68 0 -121.5 -31t-104.5 -82l30 176q70 68 139.5 96.5t149.5 28.5q92 0 153 -39t91.5 -107t30.5 -154q0 -34 -4.5 -81t-15.5 -112l-88 -517h-224z" />
    <glyph glyph-name="hbar" unicode="&#x127;" horiz-adv-x="1053" 
d="M16 0l264 1500h225l-265 -1500h-224zM617 0l84 491q9 51 14.5 96t5.5 84q0 70 -36.5 110.5t-103.5 40.5q-68 0 -121.5 -31t-104.5 -82l30 176q70 68 139.5 96.5t149.5 28.5q92 0 153 -39t91.5 -107t30.5 -154q0 -34 -4.5 -81t-15.5 -112l-88 -517h-224zM115 1181l27 151
h569l-27 -151h-569z" />
    <glyph glyph-name="uni1E2B" unicode="&#x1e2b;" horiz-adv-x="1053" 
d="M16 0l264 1500h225l-265 -1500h-224zM617 0l84 491q9 51 14.5 96t5.5 84q0 70 -36.5 110.5t-103.5 40.5q-68 0 -121.5 -31t-104.5 -82l30 176q70 68 139.5 96.5t149.5 28.5q92 0 153 -39t91.5 -107t30.5 -154q0 -34 -4.5 -81t-15.5 -112l-88 -517h-224zM365 -451
q-127 0 -194 62.5t-67 152.5q0 14 1.5 28t5.5 26h158q-2 -7 -3.5 -15.5t-1.5 -16.5q0 -45 30.5 -69.5t82.5 -24.5q59 0 102.5 32.5t54.5 93.5h175q-25 -117 -111.5 -193t-232.5 -76z" />
    <glyph glyph-name="hcircumflex" unicode="&#x125;" horiz-adv-x="1053" 
d="M16 0l264 1500h225l-265 -1500h-224zM617 0l84 491q9 51 14.5 96t5.5 84q0 70 -36.5 110.5t-103.5 40.5q-68 0 -121.5 -31t-104.5 -82l30 176q70 68 139.5 96.5t149.5 28.5q92 0 153 -39t91.5 -107t30.5 -154q0 -34 -4.5 -81t-15.5 -112l-88 -517h-224zM671 1596
l-236 139l-239 -115l24 138l247 159l227 -183z" />
    <glyph glyph-name="uni1E25" unicode="&#x1e25;" horiz-adv-x="1053" 
d="M16 0l264 1500h225l-265 -1500h-224zM617 0l84 491q9 51 14.5 96t5.5 84q0 70 -36.5 110.5t-103.5 40.5q-68 0 -121.5 -31t-104.5 -82l30 176q70 68 139.5 96.5t149.5 28.5q92 0 153 -39t91.5 -107t30.5 -154q0 -34 -4.5 -81t-15.5 -112l-88 -517h-224zM270 -351l36 189
h194l-36 -189h-194z" />
    <glyph glyph-name="i" unicode="i" horiz-adv-x="464" 
d="M16 0l175 993h224l-175 -993h-224zM223 1169l39 231h225l-40 -231h-224z" />
    <glyph glyph-name="dotlessi" unicode="&#x131;" horiz-adv-x="464" 
d="M16 0l175 993h224l-175 -993h-224z" />
    <glyph glyph-name="iacute" unicode="&#xed;" horiz-adv-x="464" 
d="M16 0l175 993h224l-175 -993h-224zM156 1144l30 155l391 213l-37 -240z" />
    <glyph glyph-name="ibreve" unicode="&#x12d;" horiz-adv-x="464" 
d="M16 0l175 993h224l-175 -993h-224zM353 1166q-127 0 -194 62.5t-67 152.5q0 14 1.5 28t5.5 26h158q-2 -7 -3.5 -15.5t-1.5 -16.5q0 -45 30.5 -69.5t82.5 -24.5q59 0 102.5 32.5t54.5 93.5h175q-25 -117 -111.5 -193t-232.5 -76z" />
    <glyph glyph-name="icircumflex" unicode="&#xee;" horiz-adv-x="464" 
d="M16 0l175 993h224l-175 -993h-224zM106 1138l32 149l261 196l217 -223l-29 -145l-227 164z" />
    <glyph glyph-name="uni0209" unicode="&#x209;" horiz-adv-x="464" 
d="M16 0l175 993h224l-175 -993h-224zM559 1169h-148l-136 346h217zM271 1169h-148l-150 346h217z" />
    <glyph glyph-name="idieresis" unicode="&#xef;" horiz-adv-x="464" 
d="M16 0l175 993h224l-175 -993h-224zM55 1182l34 173h181l-34 -173h-181zM442 1182l34 173h181l-34 -173h-181z" />
    <glyph glyph-name="uni1E2F" unicode="&#x1e2f;" horiz-adv-x="464" 
d="M16 0l175 993h224l-175 -993h-224zM434 1167l31 164h180l-30 -164h-181zM51 1167l30 164h181l-31 -164h-180zM212 1422l21 142l370 190l-33 -216z" />
    <glyph glyph-name="i.loclTRK" horiz-adv-x="464" 
d="M16 0l175 993h224l-175 -993h-224zM245 1196l36 189h194l-36 -189h-194z" />
    <glyph glyph-name="uni1ECB" unicode="&#x1ecb;" horiz-adv-x="464" 
d="M16 0l175 993h224l-175 -993h-224zM223 1169l39 231h225l-40 -231h-224zM-30 -351l36 189h194l-36 -189h-194z" />
    <glyph glyph-name="igrave" unicode="&#xec;" horiz-adv-x="464" 
d="M16 0l175 993h224l-175 -993h-224zM513 1144l-343 147l38 218l330 -220z" />
    <glyph glyph-name="uni1EC9" unicode="&#x1ec9;" horiz-adv-x="464" 
d="M16 0l175 993h224l-175 -993h-224zM288 1133q45 35 79.5 68.5t34.5 75.5q0 54 -64 54q-30 0 -63.5 -10.5t-66.5 -26.5l-13 112q39 18 80.5 27.5t85.5 9.5q71 0 119 -35.5t48 -102.5q0 -82 -52.5 -138.5t-128.5 -105.5z" />
    <glyph glyph-name="uni020B" unicode="&#x20b;" horiz-adv-x="464" 
d="M16 0l175 993h224l-175 -993h-224zM379 1435q130 0 195 -64t65 -156q0 -12 -1 -24t-3 -25h-164q2 9 2 15v12q0 48 -31.5 73.5t-85.5 25.5q-60 0 -103.5 -32t-54.5 -94h-168q13 72 59 133.5t119.5 98.5t170.5 37z" />
    <glyph glyph-name="ij" unicode="&#x133;" horiz-adv-x="929" 
d="M16 0l175 993h224l-175 -993h-224zM223 1169l39 231h225l-40 -231h-224zM300 -484l11 180q55 3 81.5 16.5t40 50t25.5 108.5l198 1122h224l-214 -1212q-20 -112 -88.5 -183.5t-195.5 -77.5zM687 1169l41 231h224l-41 -231h-224z" />
    <glyph glyph-name="imacron" unicode="&#x12b;" horiz-adv-x="464" 
d="M16 0l175 993h224l-175 -993h-224zM26 1195l30 155h635l-31 -155h-634z" />
    <glyph glyph-name="iogonek" unicode="&#x12f;" horiz-adv-x="464" 
d="M16 0l175 993h224l-175 -993h-224zM245 1196l36 189h194l-36 -189h-194zM133 10l107 -10q-47 -31 -91.5 -67.5t-73.5 -78t-29 -86.5q0 -73 74 -73q33 0 61 7t58 21l13 -106q-31 -15 -73 -26t-96 -11q-73 0 -120.5 36.5t-47.5 102.5q0 86 66.5 162t151.5 129z" />
    <glyph glyph-name="itilde" unicode="&#x129;" horiz-adv-x="464" 
d="M16 0l175 993h224l-175 -993h-224zM507 1157q-43 0 -90 22t-92 43.5t-82 21.5q-33 0 -54 -19t-27 -52h-152q20 115 74 175t135 60q47 0 91.5 -21.5t86 -43.5t79.5 -22q31 0 50.5 19t25.5 58h157q-22 -124 -72 -182.5t-130 -58.5z" />
    <glyph glyph-name="j" unicode="j" horiz-adv-x="465" 
d="M-164 -484l11 180q55 3 81.5 16.5t40 50t25.5 108.5l198 1122h224l-214 -1212q-20 -112 -88.5 -183.5t-195.5 -77.5zM223 1169l41 231h224l-41 -231h-224z" />
    <glyph glyph-name="uni0237" unicode="&#x237;" horiz-adv-x="465" 
d="M-164 -484l11 180q54 3 80.5 15.5t40 49t26.5 110.5l198 1122h224l-214 -1212q-20 -112 -88.5 -183.5t-195.5 -77.5z" />
    <glyph glyph-name="jcircumflex" unicode="&#x135;" horiz-adv-x="465" 
d="M-164 -484l11 180q54 3 80.5 15.5t40 49t26.5 110.5l198 1122h224l-214 -1212q-20 -112 -88.5 -183.5t-195.5 -77.5zM107 1138l32 149l261 196l217 -223l-29 -145l-227 164z" />
    <glyph glyph-name="k" unicode="k" horiz-adv-x="922" 
d="M16 0l264 1500h225l-265 -1500h-224zM545 0l-251 520l425 473h256l-502 -547l25 171l302 -617h-255z" />
    <glyph glyph-name="uni0137" unicode="&#x137;" horiz-adv-x="922" 
d="M16 0l264 1500h225l-265 -1500h-224zM545 0l-251 520l425 473h256l-502 -547l25 171l302 -617h-255zM294 -543h-82l96 175h-76l33 186h202l-33 -186z" />
    <glyph glyph-name="kgreenlandic" unicode="&#x138;" horiz-adv-x="975" 
d="M16 0l173 993h226l-72 -408l417 408h275l-504 -473l328 -520h-254l-281 478l-84 -478h-224z" />
    <glyph glyph-name="l" unicode="l" horiz-adv-x="506" 
d="M249 -20q-107 0 -154 54.5t-47 134.5q0 22 6 62t19 114l204 1155h224l-206 -1175q-7 -39 -9.5 -60t-2.5 -34q0 -47 25.5 -58t74.5 -11l-54 -182h-80z" />
    <glyph glyph-name="lacute" unicode="&#x13a;" horiz-adv-x="506" 
d="M249 -20q-107 0 -154 54.5t-47 134.5q0 22 6 62t19 114l204 1155h224l-206 -1175q-7 -39 -9.5 -60t-2.5 -34q0 -47 25.5 -58t74.5 -11l-54 -182h-80zM244 1622l21 142l370 190l-33 -216z" />
    <glyph glyph-name="lcaron" unicode="&#x13e;" horiz-adv-x="557" 
d="M249 -20q-107 0 -154 54.5t-47 134.5q0 22 6 62t19 114l204 1155h224l-206 -1175q-7 -39 -9.5 -60t-2.5 -34q0 -47 25.5 -58t74.5 -11l-54 -182h-80zM513 1153l63 347h191l-120 -347h-134z" />
    <glyph glyph-name="uni013C" unicode="&#x13c;" horiz-adv-x="506" 
d="M249 -20q-107 0 -154 54.5t-47 134.5q0 22 6 62t19 114l204 1155h224l-206 -1175q-7 -39 -9.5 -60t-2.5 -34q0 -47 25.5 -58t74.5 -11l-54 -182h-80zM128 -543h-82l96 175h-76l33 186h202l-33 -186z" />
    <glyph glyph-name="ldot" unicode="&#x140;" horiz-adv-x="620" 
d="M249 -20q-107 0 -154 54.5t-47 134.5q0 22 6 62t19 114l204 1155h224l-206 -1175q-7 -39 -9.5 -60t-2.5 -34q0 -47 25.5 -58t74.5 -11l-54 -182h-80zM467 721l40 218h190l-40 -218h-190z" />
    <glyph glyph-name="uni1E37" unicode="&#x1e37;" horiz-adv-x="506" 
d="M249 -20q-107 0 -154 54.5t-47 134.5q0 22 6 62t19 114l204 1155h224l-206 -1175q-7 -39 -9.5 -60t-2.5 -34q0 -47 25.5 -58t74.5 -11l-54 -182h-80zM69 -351l36 189h194l-36 -189h-194z" />
    <glyph glyph-name="uni01C9" unicode="&#x1c9;" horiz-adv-x="971" 
d="M249 -20q-107 0 -154 54.5t-47 134.5q0 22 6 62t19 114l204 1155h224l-206 -1175q-7 -39 -9.5 -60t-2.5 -34q0 -47 25.5 -58t74.5 -11l-54 -182h-80zM342 -484l11 180q55 3 81.5 16.5t40 50t25.5 108.5l198 1122h224l-214 -1212q-20 -112 -88.5 -183.5t-195.5 -77.5z
M729 1169l41 231h224l-41 -231h-224z" />
    <glyph glyph-name="uni1E3B" unicode="&#x1e3b;" horiz-adv-x="506" 
d="M249 -20q-107 0 -154 54.5t-47 134.5q0 22 6 62t19 114l204 1155h224l-206 -1175q-7 -39 -9.5 -60t-2.5 -34q0 -47 25.5 -58t74.5 -11l-54 -182h-80zM-150 -337l30 155h635l-31 -155h-634z" />
    <glyph glyph-name="lslash" unicode="&#x142;" horiz-adv-x="506" 
d="M-1 681l29 161l555 208l-29 -161zM249 -20q-107 0 -154 54.5t-47 134.5q0 22 6 62t19 114l204 1155h224l-206 -1175q-7 -39 -9.5 -60t-2.5 -34q0 -47 25.5 -58t74.5 -11l-54 -182h-80z" />
    <glyph glyph-name="m" unicode="m" horiz-adv-x="1647" 
d="M16 0l175 993h182l1 -243l-134 -750h-224zM615 0q29 169 49 282t32 183.5t18 109.5t8 59t2 34q0 92 -46 123t-108 31q-67 0 -118.5 -28.5t-94.5 -83.5l4 184q57 55 127.5 85.5t148.5 30.5q64 0 124 -23t103 -78.5t54 -155.5l42 -56l-123 -697h-222zM1210 0q32 179 52 295
t31.5 185t17 104t7 50t1.5 26q0 92 -37 127t-105 35q-82 0 -130 -35t-72 -86t-33 -101l-65 192q9 48 56.5 98t126.5 85t182 35q154 0 228.5 -84t74.5 -230q0 -14 -1.5 -33.5t-7 -58.5t-17.5 -112t-32.5 -192.5t-52.5 -299.5h-224z" />
    <glyph glyph-name="uni1E43" unicode="&#x1e43;" horiz-adv-x="1647" 
d="M16 0l175 993h182l1 -243l-134 -750h-224zM615 0q29 169 49 282t32 183.5t18 109.5t8 59t2 34q0 92 -46 123t-108 31q-67 0 -118.5 -28.5t-94.5 -83.5l4 184q57 55 127.5 85.5t148.5 30.5q64 0 124 -23t103 -78.5t54 -155.5l42 -56l-123 -697h-222zM1210 0q32 179 52 295
t31.5 185t17 104t7 50t1.5 26q0 92 -37 127t-105 35q-82 0 -130 -35t-72 -86t-33 -101l-65 192q9 48 56.5 98t126.5 85t182 35q154 0 228.5 -84t74.5 -230q0 -14 -1.5 -33.5t-7 -58.5t-17.5 -112t-32.5 -192.5t-52.5 -299.5h-224zM565 -351l36 189h194l-36 -189h-194z" />
    <glyph glyph-name="n" unicode="n" horiz-adv-x="1057" 
d="M16 0l175 993h194l5 -146l-150 -847h-224zM619 0q31 175 51 289.5t31 183t16 104t6.5 50.5t1.5 24q0 88 -36 129.5t-116 41.5q-67 0 -120 -29t-96 -86l20 199q63 53 130 78.5t148 25.5q155 0 226.5 -90t71.5 -239q0 -12 -1.5 -30.5t-6.5 -57t-17 -110t-32 -189
t-51 -294.5h-226z" />
    <glyph glyph-name="nacute" unicode="&#x144;" horiz-adv-x="1057" 
d="M16 0l175 993h194l5 -146l-150 -847h-224zM619 0q31 175 51 289.5t31 183t16 104t6.5 50.5t1.5 24q0 88 -36 129.5t-116 41.5q-67 0 -120 -29t-96 -86l20 199q63 53 130 78.5t148 25.5q155 0 226.5 -90t71.5 -239q0 -12 -1.5 -30.5t-6.5 -57t-17 -110t-32 -189
t-51 -294.5h-226zM468 1131l30 155l391 213l-37 -240z" />
    <glyph glyph-name="napostrophe" unicode="&#x149;" horiz-adv-x="1091" 
d="M50 0l175 993h194l5 -146l-150 -847h-224zM653 0q31 175 51 289.5t31 183t16 104t6.5 50.5t1.5 24q0 88 -36 129.5t-116 41.5q-67 0 -120 -29t-96 -86l20 199q63 53 130 78.5t148 25.5q155 0 226.5 -90t71.5 -239q0 -12 -1.5 -30.5t-6.5 -57t-17 -110t-32 -189
t-51 -294.5h-226zM149 1039h-82l96 175h-76l33 186h202l-33 -186z" />
    <glyph glyph-name="ncaron" unicode="&#x148;" horiz-adv-x="1057" 
d="M16 0l175 993h194l5 -146l-150 -847h-224zM619 0q31 175 51 289.5t31 183t16 104t6.5 50.5t1.5 24q0 88 -36 129.5t-116 41.5q-67 0 -120 -29t-96 -86l20 199q63 53 130 78.5t148 25.5q155 0 226.5 -90t71.5 -239q0 -12 -1.5 -30.5t-6.5 -57t-17 -110t-32 -189
t-51 -294.5h-226zM638 1104l-216 223l29 145l227 -164l281 164l-29 -167z" />
    <glyph glyph-name="uni0146" unicode="&#x146;" horiz-adv-x="1057" 
d="M16 0l175 993h194l5 -146l-150 -847h-224zM619 0q31 175 51 289.5t31 183t16 104t6.5 50.5t1.5 24q0 88 -36 129.5t-116 41.5q-67 0 -120 -29t-96 -86l20 199q63 53 130 78.5t148 25.5q155 0 226.5 -90t71.5 -239q0 -12 -1.5 -30.5t-6.5 -57t-17 -110t-32 -189
t-51 -294.5h-226zM331 -543h-82l96 175h-76l33 186h202l-33 -186z" />
    <glyph glyph-name="uni1E45" unicode="&#x1e45;" horiz-adv-x="1057" 
d="M16 0l175 993h194l5 -146l-150 -847h-224zM619 0q31 175 51 289.5t31 183t16 104t6.5 50.5t1.5 24q0 88 -36 129.5t-116 41.5q-67 0 -120 -29t-96 -86l20 199q63 53 130 78.5t148 25.5q155 0 226.5 -90t71.5 -239q0 -12 -1.5 -30.5t-6.5 -57t-17 -110t-32 -189
t-51 -294.5h-226zM557 1183l36 189h194l-36 -189h-194z" />
    <glyph glyph-name="uni1E47" unicode="&#x1e47;" horiz-adv-x="1057" 
d="M16 0l175 993h194l5 -146l-150 -847h-224zM619 0q31 175 51 289.5t31 183t16 104t6.5 50.5t1.5 24q0 88 -36 129.5t-116 41.5q-67 0 -120 -29t-96 -86l20 199q63 53 130 78.5t148 25.5q155 0 226.5 -90t71.5 -239q0 -12 -1.5 -30.5t-6.5 -57t-17 -110t-32 -189
t-51 -294.5h-226zM272 -351l36 189h194l-36 -189h-194z" />
    <glyph glyph-name="eng" unicode="&#x14b;" horiz-adv-x="1148" 
d="M896 28q-32 -189 -144 -287.5t-279 -98.5q-106 0 -200 34l60 184q34 -14 68.5 -22t69.5 -8q53 0 94 20.5t68 62.5t38 106l91 520q5 30 8.5 56t3.5 51q0 91 -35.5 133.5t-113.5 42.5q-63 0 -117 -24.5t-96 -68.5l-128 -729h-224l175 993h199l-4 -83q69 52 140 76t148 24
q148 0 215.5 -89.5t67.5 -233.5q0 -30 -3 -64.5t-10 -71.5z" />
    <glyph glyph-name="uni01CC" unicode="&#x1cc;" horiz-adv-x="1522" 
d="M16 0l175 993h194l5 -146l-150 -847h-224zM619 0q31 175 51 289.5t31 183t16 104t6.5 50.5t1.5 24q0 88 -36 129.5t-116 41.5q-67 0 -120 -29t-96 -86l20 199q63 53 130 78.5t148 25.5q155 0 226.5 -90t71.5 -239q0 -12 -1.5 -30.5t-6.5 -57t-17 -110t-32 -189
t-51 -294.5h-226zM893 -484l11 180q55 3 81.5 16.5t40 50t25.5 108.5l198 1122h224l-214 -1212q-20 -112 -88.5 -183.5t-195.5 -77.5zM1280 1169l41 231h224l-41 -231h-224z" />
    <glyph glyph-name="uni1E49" unicode="&#x1e49;" horiz-adv-x="1057" 
d="M16 0l175 993h194l5 -146l-150 -847h-224zM619 0q31 175 51 289.5t31 183t16 104t6.5 50.5t1.5 24q0 88 -36 129.5t-116 41.5q-67 0 -120 -29t-96 -86l20 199q63 53 130 78.5t148 25.5q155 0 226.5 -90t71.5 -239q0 -12 -1.5 -30.5t-6.5 -57t-17 -110t-32 -189
t-51 -294.5h-226zM53 -337l30 155h635l-31 -155h-634z" />
    <glyph glyph-name="ntilde" unicode="&#xf1;" horiz-adv-x="1057" 
d="M16 0l175 993h194l5 -146l-150 -847h-224zM619 0q31 175 51 289.5t31 183t16 104t6.5 50.5t1.5 24q0 88 -36 129.5t-116 41.5q-67 0 -120 -29t-96 -86l20 199q63 53 130 78.5t148 25.5q155 0 226.5 -90t71.5 -239q0 -12 -1.5 -30.5t-6.5 -57t-17 -110t-32 -189
t-51 -294.5h-226zM819 1144q-43 0 -90 22t-92 43.5t-82 21.5q-33 0 -54 -19t-27 -52h-152q20 115 74 175t135 60q47 0 91.5 -21.5t86 -43.5t79.5 -22q31 0 50.5 19t25.5 58h157q-22 -124 -72 -182.5t-130 -58.5z" />
    <glyph glyph-name="o" unicode="o" horiz-adv-x="1073" 
d="M435 -20q-134 0 -222.5 57t-132 153.5t-43.5 213.5q0 119 41.5 228t117.5 194t180 134.5t228 49.5q134 0 222.5 -57t132 -153.5t43.5 -214.5t-41.5 -226.5t-117.5 -194t-180 -135t-228 -49.5zM466 168q92 0 160.5 55t107 146t38.5 200q0 121 -50.5 187t-148.5 66
q-91 0 -160 -54t-107.5 -145t-38.5 -200q0 -121 50 -188t149 -67z" />
    <glyph glyph-name="oacute" unicode="&#xf3;" horiz-adv-x="1073" 
d="M435 -20q-134 0 -222.5 57t-132 153.5t-43.5 213.5q0 119 41.5 228t117.5 194t180 134.5t228 49.5q134 0 222.5 -57t132 -153.5t43.5 -214.5t-41.5 -226.5t-117.5 -194t-180 -135t-228 -49.5zM466 168q92 0 160.5 55t107 146t38.5 200q0 121 -50.5 187t-148.5 66
q-91 0 -160 -54t-107.5 -145t-38.5 -200q0 -121 50 -188t149 -67zM471 1144l30 155l391 213l-37 -240z" />
    <glyph glyph-name="obreve" unicode="&#x14f;" horiz-adv-x="1073" 
d="M435 -20q-134 0 -222.5 57t-132 153.5t-43.5 213.5q0 119 41.5 228t117.5 194t180 134.5t228 49.5q134 0 222.5 -57t132 -153.5t43.5 -214.5t-41.5 -226.5t-117.5 -194t-180 -135t-228 -49.5zM466 168q92 0 160.5 55t107 146t38.5 200q0 121 -50.5 187t-148.5 66
q-91 0 -160 -54t-107.5 -145t-38.5 -200q0 -121 50 -188t149 -67zM667 1166q-127 0 -194 62.5t-67 152.5q0 14 1.5 28t5.5 26h158q-2 -7 -3.5 -15.5t-1.5 -16.5q0 -45 30.5 -69.5t82.5 -24.5q59 0 102.5 32.5t54.5 93.5h175q-25 -117 -111.5 -193t-232.5 -76z" />
    <glyph glyph-name="ocircumflex" unicode="&#xf4;" horiz-adv-x="1073" 
d="M435 -20q-134 0 -222.5 57t-132 153.5t-43.5 213.5q0 119 41.5 228t117.5 194t180 134.5t228 49.5q134 0 222.5 -57t132 -153.5t43.5 -214.5t-41.5 -226.5t-117.5 -194t-180 -135t-228 -49.5zM466 168q92 0 160.5 55t107 146t38.5 200q0 121 -50.5 187t-148.5 66
q-91 0 -160 -54t-107.5 -145t-38.5 -200q0 -121 50 -188t149 -67zM420 1138l32 149l261 196l217 -223l-29 -145l-227 164z" />
    <glyph glyph-name="uni1ED1" unicode="&#x1ed1;" horiz-adv-x="1073" 
d="M435 -20q-134 0 -222.5 57t-132 153.5t-43.5 213.5q0 119 41.5 228t117.5 194t180 134.5t228 49.5q134 0 222.5 -57t132 -153.5t43.5 -214.5t-41.5 -226.5t-117.5 -194t-180 -135t-228 -49.5zM466 168q92 0 160.5 55t107 146t38.5 200q0 121 -50.5 187t-148.5 66
q-91 0 -160 -54t-107.5 -145t-38.5 -200q0 -121 50 -188t149 -67zM899 1101l-236 140l-239 -116l24 139l247 158l227 -182zM807 1400l155 230h217l-225 -230h-147z" />
    <glyph glyph-name="uni1ED9" unicode="&#x1ed9;" horiz-adv-x="1073" 
d="M435 -20q-134 0 -222.5 57t-132 153.5t-43.5 213.5q0 119 41.5 228t117.5 194t180 134.5t228 49.5q134 0 222.5 -57t132 -153.5t43.5 -214.5t-41.5 -226.5t-117.5 -194t-180 -135t-228 -49.5zM466 168q92 0 160.5 55t107 146t38.5 200q0 121 -50.5 187t-148.5 66
q-91 0 -160 -54t-107.5 -145t-38.5 -200q0 -121 50 -188t149 -67zM420 1138l32 149l261 196l217 -223l-29 -145l-227 164zM266 -351l36 189h194l-36 -189h-194z" />
    <glyph glyph-name="uni1ED3" unicode="&#x1ed3;" horiz-adv-x="1073" 
d="M435 -20q-134 0 -222.5 57t-132 153.5t-43.5 213.5q0 119 41.5 228t117.5 194t180 134.5t228 49.5q134 0 222.5 -57t132 -153.5t43.5 -214.5t-41.5 -226.5t-117.5 -194t-180 -135t-228 -49.5zM466 168q92 0 160.5 55t107 146t38.5 200q0 121 -50.5 187t-148.5 66
q-91 0 -160 -54t-107.5 -145t-38.5 -200q0 -121 50 -188t149 -67zM897 1101l-236 140l-239 -116l24 139l247 158l227 -182zM823 1400l-126 246h206l63 -246h-143z" />
    <glyph glyph-name="uni1ED5" unicode="&#x1ed5;" horiz-adv-x="1073" 
d="M435 -20q-134 0 -222.5 57t-132 153.5t-43.5 213.5q0 119 41.5 228t117.5 194t180 134.5t228 49.5q134 0 222.5 -57t132 -153.5t43.5 -214.5t-41.5 -226.5t-117.5 -194t-180 -135t-228 -49.5zM466 168q92 0 160.5 55t107 146t38.5 200q0 121 -50.5 187t-148.5 66
q-91 0 -160 -54t-107.5 -145t-38.5 -200q0 -121 50 -188t149 -67zM896 1089l-236 139l-239 -115l24 138l247 159l227 -183zM845 1337l-5 85q85 23 85 78q0 52 -67 52q-30 0 -61.5 -9.5t-63.5 -23.5l-15 115q38 15 79.5 24t85.5 9q74 0 122 -35t48 -100q0 -76 -55 -124
t-153 -71z" />
    <glyph glyph-name="uni1ED7" unicode="&#x1ed7;" horiz-adv-x="1073" 
d="M435 -20q-134 0 -222.5 57t-132 153.5t-43.5 213.5q0 119 41.5 228t117.5 194t180 134.5t228 49.5q134 0 222.5 -57t132 -153.5t43.5 -214.5t-41.5 -226.5t-117.5 -194t-180 -135t-228 -49.5zM466 168q92 0 160.5 55t107 146t38.5 200q0 121 -50.5 187t-148.5 66
q-91 0 -160 -54t-107.5 -145t-38.5 -200q0 -121 50 -188t149 -67zM896 1089l-236 139l-239 -115l24 138l247 159l227 -183zM867 1465q-43 0 -89 19.5t-89.5 38.5t-78.5 19q-25 0 -43 -15.5t-23 -48.5h-144q19 100 68 153t126 53q44 0 89 -19t87.5 -38.5t79.5 -19.5
q56 0 66 67h144q-15 -103 -65.5 -156t-127.5 -53z" />
    <glyph glyph-name="uni020D" unicode="&#x20d;" horiz-adv-x="1073" 
d="M435 -20q-134 0 -222.5 57t-132 153.5t-43.5 213.5q0 119 41.5 228t117.5 194t180 134.5t228 49.5q134 0 222.5 -57t132 -153.5t43.5 -214.5t-41.5 -226.5t-117.5 -194t-180 -135t-228 -49.5zM466 168q92 0 160.5 55t107 146t38.5 200q0 121 -50.5 187t-148.5 66
q-91 0 -160 -54t-107.5 -145t-38.5 -200q0 -121 50 -188t149 -67zM874 1169h-148l-136 346h217zM586 1169h-148l-150 346h217z" />
    <glyph glyph-name="odieresis" unicode="&#xf6;" horiz-adv-x="1073" 
d="M435 -20q-134 0 -222.5 57t-132 153.5t-43.5 213.5q0 119 41.5 228t117.5 194t180 134.5t228 49.5q134 0 222.5 -57t132 -153.5t43.5 -214.5t-41.5 -226.5t-117.5 -194t-180 -135t-228 -49.5zM466 168q92 0 160.5 55t107 146t38.5 200q0 121 -50.5 187t-148.5 66
q-91 0 -160 -54t-107.5 -145t-38.5 -200q0 -121 50 -188t149 -67zM370 1182l34 173h181l-34 -173h-181zM757 1182l34 173h181l-34 -173h-181z" />
    <glyph glyph-name="uni022B" unicode="&#x22b;" horiz-adv-x="1073" 
d="M435 -20q-134 0 -222.5 57t-132 153.5t-43.5 213.5q0 119 41.5 228t117.5 194t180 134.5t228 49.5q134 0 222.5 -57t132 -153.5t43.5 -214.5t-41.5 -226.5t-117.5 -194t-180 -135t-228 -49.5zM466 168q92 0 160.5 55t107 146t38.5 200q0 121 -50.5 187t-148.5 66
q-91 0 -160 -54t-107.5 -145t-38.5 -200q0 -121 50 -188t149 -67zM749 1167l31 164h180l-30 -164h-181zM366 1167l30 164h181l-31 -164h-180zM384 1486l27 146h637l-26 -146h-638z" />
    <glyph glyph-name="uni0231" unicode="&#x231;" horiz-adv-x="1073" 
d="M435 -20q-134 0 -222.5 57t-132 153.5t-43.5 213.5q0 119 41.5 228t117.5 194t180 134.5t228 49.5q134 0 222.5 -57t132 -153.5t43.5 -214.5t-41.5 -226.5t-117.5 -194t-180 -135t-228 -49.5zM466 168q92 0 160.5 55t107 146t38.5 200q0 121 -50.5 187t-148.5 66
q-91 0 -160 -54t-107.5 -145t-38.5 -200q0 -121 50 -188t149 -67zM551 1176l34 189h198l-34 -189h-198zM393 1529l27 146h637l-26 -146h-638z" />
    <glyph glyph-name="uni1ECD" unicode="&#x1ecd;" horiz-adv-x="1073" 
d="M435 -20q-134 0 -222.5 57t-132 153.5t-43.5 213.5q0 119 41.5 228t117.5 194t180 134.5t228 49.5q134 0 222.5 -57t132 -153.5t43.5 -214.5t-41.5 -226.5t-117.5 -194t-180 -135t-228 -49.5zM466 168q92 0 160.5 55t107 146t38.5 200q0 121 -50.5 187t-148.5 66
q-91 0 -160 -54t-107.5 -145t-38.5 -200q0 -121 50 -188t149 -67zM266 -351l36 189h194l-36 -189h-194z" />
    <glyph glyph-name="ograve" unicode="&#xf2;" horiz-adv-x="1073" 
d="M435 -20q-134 0 -222.5 57t-132 153.5t-43.5 213.5q0 119 41.5 228t117.5 194t180 134.5t228 49.5q134 0 222.5 -57t132 -153.5t43.5 -214.5t-41.5 -226.5t-117.5 -194t-180 -135t-228 -49.5zM466 168q92 0 160.5 55t107 146t38.5 200q0 121 -50.5 187t-148.5 66
q-91 0 -160 -54t-107.5 -145t-38.5 -200q0 -121 50 -188t149 -67zM828 1144l-343 147l38 218l330 -220z" />
    <glyph glyph-name="uni1ECF" unicode="&#x1ecf;" horiz-adv-x="1073" 
d="M435 -20q-134 0 -222.5 57t-132 153.5t-43.5 213.5q0 119 41.5 228t117.5 194t180 134.5t228 49.5q134 0 222.5 -57t132 -153.5t43.5 -214.5t-41.5 -226.5t-117.5 -194t-180 -135t-228 -49.5zM466 168q92 0 160.5 55t107 146t38.5 200q0 121 -50.5 187t-148.5 66
q-91 0 -160 -54t-107.5 -145t-38.5 -200q0 -121 50 -188t149 -67zM603 1133q45 35 79.5 68.5t34.5 75.5q0 54 -64 54q-30 0 -63.5 -10.5t-66.5 -26.5l-13 112q39 18 80.5 27.5t85.5 9.5q71 0 119 -35.5t48 -102.5q0 -82 -52.5 -138.5t-128.5 -105.5z" />
    <glyph glyph-name="ohorn" unicode="&#x1a1;" horiz-adv-x="1073" 
d="M435 -20q-134 0 -222.5 57t-132 153.5t-43.5 213.5q0 119 41.5 228t117.5 194t180 134.5t228 49.5q134 0 222.5 -57t132 -153.5t43.5 -214.5t-41.5 -226.5t-117.5 -194t-180 -135t-228 -49.5zM466 168q92 0 160.5 55t107 146t38.5 200q0 121 -50.5 187t-148.5 66
q-91 0 -160 -54t-107.5 -145t-38.5 -200q0 -121 50 -188t149 -67zM668 841l28 152q75 0 123 34.5t63 113.5h198q-18 -92 -78.5 -159.5t-148 -104t-185.5 -36.5z" />
    <glyph glyph-name="uni1EDB" unicode="&#x1edb;" horiz-adv-x="1073" 
d="M435 -20q-134 0 -222.5 57t-132 153.5t-43.5 213.5q0 119 41.5 228t117.5 194t180 134.5t228 49.5q134 0 222.5 -57t132 -153.5t43.5 -214.5t-41.5 -226.5t-117.5 -194t-180 -135t-228 -49.5zM466 168q92 0 160.5 55t107 146t38.5 200q0 121 -50.5 187t-148.5 66
q-91 0 -160 -54t-107.5 -145t-38.5 -200q0 -121 50 -188t149 -67zM668 841l28 152q75 0 123 34.5t63 113.5h198q-18 -92 -78.5 -159.5t-148 -104t-185.5 -36.5zM471 1144l30 155l391 213l-37 -240z" />
    <glyph glyph-name="uni1EE3" unicode="&#x1ee3;" horiz-adv-x="1073" 
d="M435 -20q-134 0 -222.5 57t-132 153.5t-43.5 213.5q0 119 41.5 228t117.5 194t180 134.5t228 49.5q134 0 222.5 -57t132 -153.5t43.5 -214.5t-41.5 -226.5t-117.5 -194t-180 -135t-228 -49.5zM466 168q92 0 160.5 55t107 146t38.5 200q0 121 -50.5 187t-148.5 66
q-91 0 -160 -54t-107.5 -145t-38.5 -200q0 -121 50 -188t149 -67zM668 841l28 152q75 0 123 34.5t63 113.5h198q-18 -92 -78.5 -159.5t-148 -104t-185.5 -36.5zM266 -351l36 189h194l-36 -189h-194z" />
    <glyph glyph-name="uni1EDD" unicode="&#x1edd;" horiz-adv-x="1073" 
d="M435 -20q-134 0 -222.5 57t-132 153.5t-43.5 213.5q0 119 41.5 228t117.5 194t180 134.5t228 49.5q134 0 222.5 -57t132 -153.5t43.5 -214.5t-41.5 -226.5t-117.5 -194t-180 -135t-228 -49.5zM466 168q92 0 160.5 55t107 146t38.5 200q0 121 -50.5 187t-148.5 66
q-91 0 -160 -54t-107.5 -145t-38.5 -200q0 -121 50 -188t149 -67zM668 841l28 152q75 0 123 34.5t63 113.5h198q-18 -92 -78.5 -159.5t-148 -104t-185.5 -36.5zM828 1144l-343 147l38 218l330 -220z" />
    <glyph glyph-name="uni1EDF" unicode="&#x1edf;" horiz-adv-x="1073" 
d="M435 -20q-134 0 -222.5 57t-132 153.5t-43.5 213.5q0 119 41.5 228t117.5 194t180 134.5t228 49.5q134 0 222.5 -57t132 -153.5t43.5 -214.5t-41.5 -226.5t-117.5 -194t-180 -135t-228 -49.5zM466 168q92 0 160.5 55t107 146t38.5 200q0 121 -50.5 187t-148.5 66
q-91 0 -160 -54t-107.5 -145t-38.5 -200q0 -121 50 -188t149 -67zM668 841l28 152q75 0 123 34.5t63 113.5h198q-18 -92 -78.5 -159.5t-148 -104t-185.5 -36.5zM603 1133q45 35 79.5 68.5t34.5 75.5q0 54 -64 54q-30 0 -63.5 -10.5t-66.5 -26.5l-13 112q39 18 80.5 27.5
t85.5 9.5q71 0 119 -35.5t48 -102.5q0 -82 -52.5 -138.5t-128.5 -105.5z" />
    <glyph glyph-name="uni1EE1" unicode="&#x1ee1;" horiz-adv-x="1073" 
d="M435 -20q-134 0 -222.5 57t-132 153.5t-43.5 213.5q0 119 41.5 228t117.5 194t180 134.5t228 49.5q134 0 222.5 -57t132 -153.5t43.5 -214.5t-41.5 -226.5t-117.5 -194t-180 -135t-228 -49.5zM466 168q92 0 160.5 55t107 146t38.5 200q0 121 -50.5 187t-148.5 66
q-91 0 -160 -54t-107.5 -145t-38.5 -200q0 -121 50 -188t149 -67zM668 841l28 152q75 0 123 34.5t63 113.5h198q-18 -92 -78.5 -159.5t-148 -104t-185.5 -36.5zM822 1157q-43 0 -90 22t-92 43.5t-82 21.5q-33 0 -54 -19t-27 -52h-152q20 115 74 175t135 60q47 0 91.5 -21.5
t86 -43.5t79.5 -22q31 0 50.5 19t25.5 58h157q-22 -124 -72 -182.5t-130 -58.5z" />
    <glyph glyph-name="ohungarumlaut" unicode="&#x151;" horiz-adv-x="1073" 
d="M435 -20q-134 0 -222.5 57t-132 153.5t-43.5 213.5q0 119 41.5 228t117.5 194t180 134.5t228 49.5q134 0 222.5 -57t132 -153.5t43.5 -214.5t-41.5 -226.5t-117.5 -194t-180 -135t-228 -49.5zM466 168q92 0 160.5 55t107 146t38.5 200q0 121 -50.5 187t-148.5 66
q-91 0 -160 -54t-107.5 -145t-38.5 -200q0 -121 50 -188t149 -67zM428 1169l212 346h217l-281 -346h-148zM717 1169l225 346h218l-295 -346h-148z" />
    <glyph glyph-name="uni020F" unicode="&#x20f;" horiz-adv-x="1073" 
d="M435 -20q-134 0 -222.5 57t-132 153.5t-43.5 213.5q0 119 41.5 228t117.5 194t180 134.5t228 49.5q134 0 222.5 -57t132 -153.5t43.5 -214.5t-41.5 -226.5t-117.5 -194t-180 -135t-228 -49.5zM466 168q92 0 160.5 55t107 146t38.5 200q0 121 -50.5 187t-148.5 66
q-91 0 -160 -54t-107.5 -145t-38.5 -200q0 -121 50 -188t149 -67zM694 1435q130 0 195 -64t65 -156q0 -12 -1 -24t-3 -25h-164q2 9 2 15v12q0 48 -31.5 73.5t-85.5 25.5q-60 0 -103.5 -32t-54.5 -94h-168q13 72 59 133.5t119.5 98.5t170.5 37z" />
    <glyph glyph-name="omacron" unicode="&#x14d;" horiz-adv-x="1073" 
d="M435 -20q-134 0 -222.5 57t-132 153.5t-43.5 213.5q0 119 41.5 228t117.5 194t180 134.5t228 49.5q134 0 222.5 -57t132 -153.5t43.5 -214.5t-41.5 -226.5t-117.5 -194t-180 -135t-228 -49.5zM466 168q92 0 160.5 55t107 146t38.5 200q0 121 -50.5 187t-148.5 66
q-91 0 -160 -54t-107.5 -145t-38.5 -200q0 -121 50 -188t149 -67zM341 1195l30 155h635l-31 -155h-634z" />
    <glyph glyph-name="uni1E53" unicode="&#x1e53;" horiz-adv-x="1073" 
d="M435 -20q-134 0 -222.5 57t-132 153.5t-43.5 213.5q0 119 41.5 228t117.5 194t180 134.5t228 49.5q134 0 222.5 -57t132 -153.5t43.5 -214.5t-41.5 -226.5t-117.5 -194t-180 -135t-228 -49.5zM466 168q92 0 160.5 55t107 146t38.5 200q0 121 -50.5 187t-148.5 66
q-91 0 -160 -54t-107.5 -145t-38.5 -200q0 -121 50 -188t149 -67zM331 1179l27 146h637l-26 -146h-638zM540 1442l21 142l370 190l-33 -216z" />
    <glyph glyph-name="uni1E51" unicode="&#x1e51;" horiz-adv-x="1073" 
d="M435 -20q-134 0 -222.5 57t-132 153.5t-43.5 213.5q0 119 41.5 228t117.5 194t180 134.5t228 49.5q134 0 222.5 -57t132 -153.5t43.5 -214.5t-41.5 -226.5t-117.5 -194t-180 -135t-228 -49.5zM466 168q92 0 160.5 55t107 146t38.5 200q0 121 -50.5 187t-148.5 66
q-91 0 -160 -54t-107.5 -145t-38.5 -200q0 -121 50 -188t149 -67zM331 1179l27 146h637l-26 -146h-638zM888 1442l-346 116l38 204l334 -190z" />
    <glyph glyph-name="uni01EB" unicode="&#x1eb;" horiz-adv-x="1073" 
d="M435 -20q-134 0 -222.5 57t-132 153.5t-43.5 213.5q0 119 41.5 228t117.5 194t180 134.5t228 49.5q134 0 222.5 -57t132 -153.5t43.5 -214.5t-41.5 -226.5t-117.5 -194t-180 -135t-228 -49.5zM466 168q92 0 160.5 55t107 146t38.5 200q0 121 -50.5 187t-148.5 66
q-91 0 -160 -54t-107.5 -145t-38.5 -200q0 -121 50 -188t149 -67zM453 10l107 -10q-47 -31 -91.5 -67.5t-73.5 -78t-29 -86.5q0 -73 74 -73q33 0 61 7t58 21l13 -106q-31 -15 -73 -26t-96 -11q-73 0 -120.5 36.5t-47.5 102.5q0 86 66.5 162t151.5 129z" />
    <glyph glyph-name="oslash" unicode="&#xf8;" horiz-adv-x="1073" 
d="M865 1060h169l-853 -1140h-169zM435 -20q-134 0 -222.5 57t-132 153.5t-43.5 213.5q0 119 41.5 228t117.5 194t180 134.5t228 49.5q134 0 222.5 -57t132 -153.5t43.5 -214.5t-41.5 -226.5t-117.5 -194t-180 -135t-228 -49.5zM466 168q92 0 160.5 55t107 146t38.5 200
q0 121 -50.5 187t-148.5 66q-91 0 -160 -54t-107.5 -145t-38.5 -200q0 -121 50 -188t149 -67z" />
    <glyph glyph-name="oslashacute" unicode="&#x1ff;" horiz-adv-x="1073" 
d="M865 1060h169l-853 -1140h-169zM435 -20q-134 0 -222.5 57t-132 153.5t-43.5 213.5q0 119 41.5 228t117.5 194t180 134.5t228 49.5q134 0 222.5 -57t132 -153.5t43.5 -214.5t-41.5 -226.5t-117.5 -194t-180 -135t-228 -49.5zM466 168q92 0 160.5 55t107 146t38.5 200
q0 121 -50.5 187t-148.5 66q-91 0 -160 -54t-107.5 -145t-38.5 -200q0 -121 50 -188t149 -67zM471 1144l30 155l391 213l-37 -240z" />
    <glyph glyph-name="otilde" unicode="&#xf5;" horiz-adv-x="1073" 
d="M435 -20q-134 0 -222.5 57t-132 153.5t-43.5 213.5q0 119 41.5 228t117.5 194t180 134.5t228 49.5q134 0 222.5 -57t132 -153.5t43.5 -214.5t-41.5 -226.5t-117.5 -194t-180 -135t-228 -49.5zM466 168q92 0 160.5 55t107 146t38.5 200q0 121 -50.5 187t-148.5 66
q-91 0 -160 -54t-107.5 -145t-38.5 -200q0 -121 50 -188t149 -67zM822 1157q-43 0 -90 22t-92 43.5t-82 21.5q-33 0 -54 -19t-27 -52h-152q20 115 74 175t135 60q47 0 91.5 -21.5t86 -43.5t79.5 -22q31 0 50.5 19t25.5 58h157q-22 -124 -72 -182.5t-130 -58.5z" />
    <glyph glyph-name="uni1E4D" unicode="&#x1e4d;" horiz-adv-x="1073" 
d="M435 -20q-134 0 -222.5 57t-132 153.5t-43.5 213.5q0 119 41.5 228t117.5 194t180 134.5t228 49.5q134 0 222.5 -57t132 -153.5t43.5 -214.5t-41.5 -226.5t-117.5 -194t-180 -135t-228 -49.5zM466 168q92 0 160.5 55t107 146t38.5 200q0 121 -50.5 187t-148.5 66
q-91 0 -160 -54t-107.5 -145t-38.5 -200q0 -121 50 -188t149 -67zM802 1155q-43 0 -89.5 19t-89.5 38t-78 19q-25 0 -43 -15.5t-23 -48.5h-144q19 101 68 154t126 53q44 0 89 -19.5t87.5 -38.5t79.5 -19q26 0 43.5 17t22.5 50h144q-15 -104 -65.5 -156.5t-127.5 -52.5z
M531 1451l21 142l370 190l-33 -216z" />
    <glyph glyph-name="uni1E4F" unicode="&#x1e4f;" horiz-adv-x="1073" 
d="M435 -20q-134 0 -222.5 57t-132 153.5t-43.5 213.5q0 119 41.5 228t117.5 194t180 134.5t228 49.5q134 0 222.5 -57t132 -153.5t43.5 -214.5t-41.5 -226.5t-117.5 -194t-180 -135t-228 -49.5zM466 168q92 0 160.5 55t107 146t38.5 200q0 121 -50.5 187t-148.5 66
q-91 0 -160 -54t-107.5 -145t-38.5 -200q0 -121 50 -188t149 -67zM802 1155q-43 0 -89.5 19t-89.5 38t-78 19q-25 0 -43 -15.5t-23 -48.5h-144q19 101 68 154t126 53q44 0 89 -19.5t87.5 -38.5t79.5 -19q26 0 43.5 17t22.5 50h144q-15 -104 -65.5 -156.5t-127.5 -52.5z
M807 1504l31 164h180l-30 -164h-181zM424 1504l30 164h181l-31 -164h-180z" />
    <glyph glyph-name="uni022D" unicode="&#x22d;" horiz-adv-x="1073" 
d="M435 -20q-134 0 -222.5 57t-132 153.5t-43.5 213.5q0 119 41.5 228t117.5 194t180 134.5t228 49.5q134 0 222.5 -57t132 -153.5t43.5 -214.5t-41.5 -226.5t-117.5 -194t-180 -135t-228 -49.5zM466 168q92 0 160.5 55t107 146t38.5 200q0 121 -50.5 187t-148.5 66
q-91 0 -160 -54t-107.5 -145t-38.5 -200q0 -121 50 -188t149 -67zM802 1155q-43 0 -89.5 19t-89.5 38t-78 19q-25 0 -43 -15.5t-23 -48.5h-144q19 101 68 154t126 53q44 0 89 -19.5t87.5 -38.5t79.5 -19q26 0 43.5 17t22.5 50h144q-15 -104 -65.5 -156.5t-127.5 -52.5z
M389 1516l27 146h637l-26 -146h-638z" />
    <glyph glyph-name="oe" unicode="&#x153;" horiz-adv-x="1697" 
d="M952 614h464q2 10 3.5 27.5t1.5 27.5q0 60 -31.5 106.5t-113.5 46.5q-97 0 -162.5 -64t-97.5 -169q-14 -54 -21 -93.5t-7 -72.5q0 -89 30 -146.5t82.5 -86t120.5 -28.5t154.5 23.5t149.5 55.5l-21 -189q-59 -29 -141.5 -50.5t-181.5 -21.5q-161 0 -255.5 63.5
t-131.5 175.5l71 -2q-76 -111 -189 -174t-247 -63q-129 0 -216 57.5t-131 154t-44 213.5q0 120 40.5 229t116.5 193.5t180.5 133.5t231.5 49q90 0 162 -28t121 -80.5t73 -128.5l-73 5q50 74 114 125.5t140 79t160 27.5q154 0 249 -93.5t95 -254.5q0 -71 -13.5 -113
t-31.5 -87h-683zM464 168q94 0 163.5 55.5t107.5 148t38 201.5q0 111 -49 180t-145 69t-165.5 -53.5t-108 -145.5t-38.5 -208q0 -111 50 -179t147 -68z" />
    <glyph glyph-name="p" unicode="p" horiz-adv-x="1092" 
d="M-70 -484l261 1477h192v-211l-53 53q74 79 154.5 127t190.5 48q112 0 188.5 -53.5t116.5 -148.5t40 -217q0 -129 -35 -240.5t-100.5 -194.5t-157 -129.5t-204.5 -46.5q-115 0 -187.5 54t-105.5 141l47 44l-123 -703h-224zM507 168q83 0 147 54t99.5 145t35.5 204
q0 112 -43.5 181.5t-137.5 69.5q-87 0 -155.5 -53t-108 -146.5t-39.5 -213.5q0 -122 52 -181.5t150 -59.5z" />
    <glyph glyph-name="thorn" unicode="&#xfe;" horiz-adv-x="1092" 
d="M-70 -484l350 1984h224l-124 -693l-32 58q65 65 145 105t185 40q111 0 187 -53.5t115.5 -148.5t39.5 -217q0 -129 -35 -240.5t-100.5 -194.5t-157 -129.5t-204.5 -46.5q-115 0 -187.5 54t-105.5 141l47 44l-123 -703h-224zM507 168q83 0 147 54t99.5 145t35.5 204
q0 112 -43.5 181.5t-137.5 69.5q-87 0 -155.5 -53t-108 -146.5t-39.5 -213.5q0 -122 52 -181.5t150 -59.5z" />
    <glyph glyph-name="q" unicode="q" horiz-adv-x="1093" 
d="M558 -484l120 679l36 -48q-68 -81 -149.5 -124t-172.5 -43q-120 0 -198.5 55.5t-117 149.5t-38.5 211q0 118 37 227.5t106 197t166 138.5t215 51q116 0 179.5 -53t113.5 -157l-78 -27l90 220h177l-261 -1477h-225zM467 168q87 0 151.5 52.5t100 145t35.5 210.5
q0 121 -46 183.5t-139 62.5q-89 0 -156.5 -55t-105 -146t-37.5 -198q0 -113 47 -184t150 -71z" />
    <glyph glyph-name="r" unicode="r" horiz-adv-x="656" 
d="M16 0l175 993h207l-32 -291l-125 -702h-225zM354 669l17 182q34 45 82 82.5t103.5 60t112.5 22.5h54l-82 -221h-84q-41 0 -82 -17.5t-73 -46.5t-48 -62z" />
    <glyph glyph-name="racute" unicode="&#x155;" horiz-adv-x="656" 
d="M16 0l175 993h207l-32 -291l-125 -702h-225zM354 669l17 182q34 45 82 82.5t103.5 60t112.5 22.5h54l-82 -221h-84q-41 0 -82 -17.5t-73 -46.5t-48 -62zM302 1144l30 155l391 213l-37 -240z" />
    <glyph glyph-name="rcaron" unicode="&#x159;" horiz-adv-x="656" 
d="M16 0l175 993h207l-32 -291l-125 -702h-225zM354 669l17 182q34 45 82 82.5t103.5 60t112.5 22.5h54l-82 -221h-84q-41 0 -82 -17.5t-73 -46.5t-48 -62zM472 1117l-216 223l29 145l227 -164l281 164l-29 -167z" />
    <glyph glyph-name="uni0157" unicode="&#x157;" horiz-adv-x="656" 
d="M16 0l175 993h207l-32 -291l-125 -702h-225zM354 669l17 182q34 45 82 82.5t103.5 60t112.5 22.5h54l-82 -221h-84q-41 0 -82 -17.5t-73 -46.5t-48 -62zM29 -543h-82l96 175h-76l33 186h202l-33 -186z" />
    <glyph glyph-name="uni0211" unicode="&#x211;" horiz-adv-x="656" 
d="M16 0l175 993h207l-32 -291l-125 -702h-225zM354 669l17 182q34 45 82 82.5t103.5 60t112.5 22.5h54l-82 -221h-84q-41 0 -82 -17.5t-73 -46.5t-48 -62zM704 1169h-148l-136 346h217zM416 1169h-148l-150 346h217z" />
    <glyph glyph-name="uni1E5B" unicode="&#x1e5b;" horiz-adv-x="656" 
d="M16 0l175 993h207l-32 -291l-125 -702h-225zM354 669l17 182q34 45 82 82.5t103.5 60t112.5 22.5h54l-82 -221h-84q-41 0 -82 -17.5t-73 -46.5t-48 -62zM-29 -351l36 189h194l-36 -189h-194z" />
    <glyph glyph-name="uni0213" unicode="&#x213;" horiz-adv-x="656" 
d="M16 0l175 993h207l-32 -291l-125 -702h-225zM354 669l17 182q34 45 82 82.5t103.5 60t112.5 22.5h54l-82 -221h-84q-41 0 -82 -17.5t-73 -46.5t-48 -62zM525 1435q130 0 195 -64t65 -156q0 -12 -1 -24t-3 -25h-164q2 9 2 15v12q0 48 -31.5 73.5t-85.5 25.5
q-60 0 -103.5 -32t-54.5 -94h-168q13 72 59 133.5t119.5 98.5t170.5 37z" />
    <glyph glyph-name="uni1E5F" unicode="&#x1e5f;" horiz-adv-x="656" 
d="M16 0l175 993h207l-32 -291l-125 -702h-225zM354 669l17 182q34 45 82 82.5t103.5 60t112.5 22.5h54l-82 -221h-84q-41 0 -82 -17.5t-73 -46.5t-48 -62zM-248 -337l30 155h635l-31 -155h-634z" />
    <glyph glyph-name="s" unicode="s" horiz-adv-x="812" 
d="M295 -20q-104 0 -184 25t-135 53l55 199q48 -34 121 -67t160 -33q84 0 122.5 35t38.5 88q0 62 -41 90t-108 50q-64 21 -117.5 49t-85.5 75.5t-32 127.5q0 89 44.5 166t134.5 124.5t228 47.5q93 0 163 -21.5t115 -48.5l-52 -187q-44 37 -106 64.5t-143 27.5
q-73 0 -121.5 -29.5t-48.5 -94.5q0 -62 50.5 -88t137.5 -58q61 -22 109 -53.5t75.5 -81t27.5 -126.5q0 -59 -22 -118.5t-70.5 -108t-126.5 -78t-189 -29.5z" />
    <glyph glyph-name="sacute" unicode="&#x15b;" horiz-adv-x="812" 
d="M295 -20q-104 0 -184 25t-135 53l55 199q48 -34 121 -67t160 -33q84 0 122.5 35t38.5 88q0 62 -41 90t-108 50q-64 21 -117.5 49t-85.5 75.5t-32 127.5q0 89 44.5 166t134.5 124.5t228 47.5q93 0 163 -21.5t115 -48.5l-52 -187q-44 37 -106 64.5t-143 27.5
q-73 0 -121.5 -29.5t-48.5 -94.5q0 -62 50.5 -88t137.5 -58q61 -22 109 -53.5t75.5 -81t27.5 -126.5q0 -59 -22 -118.5t-70.5 -108t-126.5 -78t-189 -29.5zM348 1131l30 155l391 213l-37 -240z" />
    <glyph glyph-name="uni1E65" unicode="&#x1e65;" horiz-adv-x="812" 
d="M295 -20q-104 0 -184 25t-135 53l55 199q48 -34 121 -67t160 -33q84 0 122.5 35t38.5 88q0 62 -41 90t-108 50q-64 21 -117.5 49t-85.5 75.5t-32 127.5q0 89 44.5 166t134.5 124.5t228 47.5q93 0 163 -21.5t115 -48.5l-52 -187q-44 37 -106 64.5t-143 27.5
q-73 0 -121.5 -29.5t-48.5 -94.5q0 -62 50.5 -88t137.5 -58q61 -22 109 -53.5t75.5 -81t27.5 -126.5q0 -59 -22 -118.5t-70.5 -108t-126.5 -78t-189 -29.5zM350 1102l21 142l370 190l-33 -216zM498 1527l34 189h198l-34 -189h-198z" />
    <glyph glyph-name="scaron" unicode="&#x161;" horiz-adv-x="812" 
d="M295 -20q-104 0 -184 25t-135 53l55 199q48 -34 121 -67t160 -33q84 0 122.5 35t38.5 88q0 62 -41 90t-108 50q-64 21 -117.5 49t-85.5 75.5t-32 127.5q0 89 44.5 166t134.5 124.5t228 47.5q93 0 163 -21.5t115 -48.5l-52 -187q-44 37 -106 64.5t-143 27.5
q-73 0 -121.5 -29.5t-48.5 -94.5q0 -62 50.5 -88t137.5 -58q61 -22 109 -53.5t75.5 -81t27.5 -126.5q0 -59 -22 -118.5t-70.5 -108t-126.5 -78t-189 -29.5zM518 1104l-216 223l29 145l227 -164l281 164l-29 -167z" />
    <glyph glyph-name="uni1E67" unicode="&#x1e67;" horiz-adv-x="812" 
d="M295 -20q-104 0 -184 25t-135 53l55 199q48 -34 121 -67t160 -33q84 0 122.5 35t38.5 88q0 62 -41 90t-108 50q-64 21 -117.5 49t-85.5 75.5t-32 127.5q0 89 44.5 166t134.5 124.5t228 47.5q93 0 163 -21.5t115 -48.5l-52 -187q-44 37 -106 64.5t-143 27.5
q-73 0 -121.5 -29.5t-48.5 -94.5q0 -62 50.5 -88t137.5 -58q61 -22 109 -53.5t75.5 -81t27.5 -126.5q0 -59 -22 -118.5t-70.5 -108t-126.5 -78t-189 -29.5zM506 1076l-227 182l23 136l233 -145l245 142l-26 -155zM473 1461l34 189h198l-34 -189h-198z" />
    <glyph glyph-name="scedilla" unicode="&#x15f;" horiz-adv-x="812" 
d="M295 -20q-104 0 -184 25t-135 53l55 199q48 -34 121 -67t160 -33q84 0 122.5 35t38.5 88q0 62 -41 90t-108 50q-64 21 -117.5 49t-85.5 75.5t-32 127.5q0 89 44.5 166t134.5 124.5t228 47.5q93 0 163 -21.5t115 -48.5l-52 -187q-44 37 -106 64.5t-143 27.5
q-73 0 -121.5 -29.5t-48.5 -94.5q0 -62 50.5 -88t137.5 -58q61 -22 109 -53.5t75.5 -81t27.5 -126.5q0 -59 -22 -118.5t-70.5 -108t-126.5 -78t-189 -29.5zM283 -158l-68 30q27 9 52.5 14.5t52.5 5.5q72 0 112.5 -36.5t40.5 -103.5q0 -97 -74 -159t-184 -62
q-52 0 -90.5 11.5t-64.5 26.5l55 111q28 -15 57.5 -24.5t65.5 -9.5q51 0 80 23t29 58q0 62 -90 62q-24 0 -47.5 -3t-51.5 -11l95 225h107z" />
    <glyph glyph-name="scircumflex" unicode="&#x15d;" horiz-adv-x="812" 
d="M295 -20q-104 0 -184 25t-135 53l55 199q48 -34 121 -67t160 -33q84 0 122.5 35t38.5 88q0 62 -41 90t-108 50q-64 21 -117.5 49t-85.5 75.5t-32 127.5q0 89 44.5 166t134.5 124.5t228 47.5q93 0 163 -21.5t115 -48.5l-52 -187q-44 37 -106 64.5t-143 27.5
q-73 0 -121.5 -29.5t-48.5 -94.5q0 -62 50.5 -88t137.5 -58q61 -22 109 -53.5t75.5 -81t27.5 -126.5q0 -59 -22 -118.5t-70.5 -108t-126.5 -78t-189 -29.5zM298 1125l32 149l261 196l217 -223l-29 -145l-227 164z" />
    <glyph glyph-name="uni0219" unicode="&#x219;" horiz-adv-x="812" 
d="M295 -20q-104 0 -184 25t-135 53l55 199q48 -34 121 -67t160 -33q84 0 122.5 35t38.5 88q0 62 -41 90t-108 50q-64 21 -117.5 49t-85.5 75.5t-32 127.5q0 89 44.5 166t134.5 124.5t228 47.5q93 0 163 -21.5t115 -48.5l-52 -187q-44 37 -106 64.5t-143 27.5
q-73 0 -121.5 -29.5t-48.5 -94.5q0 -62 50.5 -88t137.5 -58q61 -22 109 -53.5t75.5 -81t27.5 -126.5q0 -59 -22 -118.5t-70.5 -108t-126.5 -78t-189 -29.5zM201 -543h-82l96 175h-76l33 186h202l-33 -186z" />
    <glyph glyph-name="uni1E61" unicode="&#x1e61;" horiz-adv-x="812" 
d="M295 -20q-104 0 -184 25t-135 53l55 199q48 -34 121 -67t160 -33q84 0 122.5 35t38.5 88q0 62 -41 90t-108 50q-64 21 -117.5 49t-85.5 75.5t-32 127.5q0 89 44.5 166t134.5 124.5t228 47.5q93 0 163 -21.5t115 -48.5l-52 -187q-44 37 -106 64.5t-143 27.5
q-73 0 -121.5 -29.5t-48.5 -94.5q0 -62 50.5 -88t137.5 -58q61 -22 109 -53.5t75.5 -81t27.5 -126.5q0 -59 -22 -118.5t-70.5 -108t-126.5 -78t-189 -29.5zM437 1183l36 189h194l-36 -189h-194z" />
    <glyph glyph-name="uni1E63" unicode="&#x1e63;" horiz-adv-x="812" 
d="M295 -20q-104 0 -184 25t-135 53l55 199q48 -34 121 -67t160 -33q84 0 122.5 35t38.5 88q0 62 -41 90t-108 50q-64 21 -117.5 49t-85.5 75.5t-32 127.5q0 89 44.5 166t134.5 124.5t228 47.5q93 0 163 -21.5t115 -48.5l-52 -187q-44 37 -106 64.5t-143 27.5
q-73 0 -121.5 -29.5t-48.5 -94.5q0 -62 50.5 -88t137.5 -58q61 -22 109 -53.5t75.5 -81t27.5 -126.5q0 -59 -22 -118.5t-70.5 -108t-126.5 -78t-189 -29.5zM143 -351l36 189h194l-36 -189h-194z" />
    <glyph glyph-name="uni1E69" unicode="&#x1e69;" horiz-adv-x="812" 
d="M295 -20q-104 0 -184 25t-135 53l55 199q48 -34 121 -67t160 -33q84 0 122.5 35t38.5 88q0 62 -41 90t-108 50q-64 21 -117.5 49t-85.5 75.5t-32 127.5q0 89 44.5 166t134.5 124.5t228 47.5q93 0 163 -21.5t115 -48.5l-52 -187q-44 37 -106 64.5t-143 27.5
q-73 0 -121.5 -29.5t-48.5 -94.5q0 -62 50.5 -88t137.5 -58q61 -22 109 -53.5t75.5 -81t27.5 -126.5q0 -59 -22 -118.5t-70.5 -108t-126.5 -78t-189 -29.5zM437 1183l36 189h194l-36 -189h-194zM143 -351l36 189h194l-36 -189h-194z" />
    <glyph glyph-name="germandbls" unicode="&#xdf;" horiz-adv-x="1205" 
d="M611 -28q-55 0 -104 5t-101 17l32 188q49 -11 98.5 -16.5t103.5 -5.5q101 0 171.5 47.5t70.5 139.5q0 57 -28.5 96t-71 69.5l-85 61t-71.5 69t-29 94.5q0 70 52 133.5t135 136.5q65 57 101.5 102t35.5 108q0 58 -43 90.5t-124 32.5q-118 0 -187.5 -69.5t-91.5 -191.5
l-190 -1079h-226l143 812h-136l51 181h117l14 82q26 153 103.5 254t191.5 150t249 49q166 0 262 -71t96 -192q0 -101 -44 -165.5t-120 -133.5q-66 -61 -109.5 -102.5t-43.5 -90.5q0 -40 28 -71.5t69.5 -61.5t83.5 -66.5t70 -87.5t29 -123q0 -92 -41 -164.5t-111.5 -122.5
t-161 -77t-188.5 -27z" />
    <glyph glyph-name="uni0259" unicode="&#x259;" horiz-adv-x="954" 
d="M693 418q-37 12 -69 17t-74 5q-121 0 -188 -25.5t-93.5 -63.5t-26.5 -77q0 -43 22.5 -65.5t54 -30t57.5 -7.5q76 0 134.5 41t98.5 106t59 135l12 83q3 111 -29.5 174t-88.5 89t-121 26q-79 0 -156.5 -20.5t-141.5 -52.5l21 185q59 33 142 54.5t183 21.5q146 0 240.5 -57
t140.5 -154t46 -217q0 -115 -39.5 -222.5t-112.5 -193.5t-174.5 -136t-226.5 -50q-153 0 -233.5 76t-80.5 199q0 78 33 139.5t94.5 104t148 64t194.5 21.5q57 0 107.5 -6t82.5 -16z" />
    <glyph glyph-name="t" unicode="t" horiz-adv-x="651" 
d="M315 -20q-114 0 -162 60t-48 140q0 6 2 22t10 67t27 160.5t53 301t88 490.5l227 23l-173 -1013q0 -48 28.5 -58.5t102.5 -10.5h62l-53 -182h-164zM75 812l52 181h552l-32 -181h-572z" />
    <glyph glyph-name="tbar" unicode="&#x167;" horiz-adv-x="652" 
d="M13 461l29 152h568l-29 -152h-568zM316 -20q-114 0 -162 60t-48 140q0 6 2 22t10 67t27 160.5t53 301t88 490.5l227 23l-173 -1013q0 -48 28.5 -58.5t102.5 -10.5h62l-53 -182h-164zM76 812l52 181h552l-32 -181h-572z" />
    <glyph glyph-name="tcaron" unicode="&#x165;" horiz-adv-x="651" 
d="M315 -20q-114 0 -162 60t-48 140q0 6 2 22t10 67t27 160.5t53 301t88 490.5l227 23l-173 -1013q0 -48 28.5 -58.5t102.5 -10.5h62l-53 -182h-164zM75 812l52 181h552l-32 -181h-572zM578 1087l63 347h191l-120 -347h-134z" />
    <glyph glyph-name="uni0163" unicode="&#x163;" horiz-adv-x="651" 
d="M315 -20q-114 0 -162 60t-48 140q0 6 2 22t10 67t27 160.5t53 301t88 490.5l227 23l-173 -1013q0 -48 28.5 -58.5t102.5 -10.5h62l-53 -182h-164zM75 812l52 181h552l-32 -181h-572zM308 -158l-68 30q27 9 52.5 14.5t52.5 5.5q72 0 112.5 -36.5t40.5 -103.5
q0 -97 -74 -159t-184 -62q-52 0 -90.5 11.5t-64.5 26.5l55 111q28 -15 57.5 -24.5t65.5 -9.5q51 0 80 23t29 58q0 62 -90 62q-24 0 -47.5 -3t-51.5 -11l95 225h107z" />
    <glyph glyph-name="uni021B" unicode="&#x21b;" horiz-adv-x="651" 
d="M315 -20q-114 0 -162 60t-48 140q0 6 2 22t10 67t27 160.5t53 301t88 490.5l227 23l-173 -1013q0 -48 28.5 -58.5t102.5 -10.5h62l-53 -182h-164zM75 812l52 181h552l-32 -181h-572zM226 -543h-82l96 175h-76l33 186h202l-33 -186z" />
    <glyph glyph-name="uni1E97" unicode="&#x1e97;" horiz-adv-x="651" 
d="M315 -20q-114 0 -162 60t-48 140q0 6 2 22t10 67t27 160.5t53 301t88 490.5l227 23l-173 -1013q0 -48 28.5 -58.5t102.5 -10.5h62l-53 -182h-164zM75 812l52 181h552l-32 -181h-572zM150 1415l34 173h181l-34 -173h-181zM537 1415l34 173h181l-34 -173h-181z" />
    <glyph glyph-name="uni1E6D" unicode="&#x1e6d;" horiz-adv-x="651" 
d="M315 -20q-114 0 -162 60t-48 140q0 6 2 22t10 67t27 160.5t53 301t88 490.5l227 23l-173 -1013q0 -48 28.5 -58.5t102.5 -10.5h62l-53 -182h-164zM75 812l52 181h552l-32 -181h-572zM168 -351l36 189h194l-36 -189h-194z" />
    <glyph glyph-name="uni1E6F" unicode="&#x1e6f;" horiz-adv-x="651" 
d="M315 -20q-114 0 -162 60t-48 140q0 6 2 22t10 67t27 160.5t53 301t88 490.5l227 23l-173 -1013q0 -48 28.5 -58.5t102.5 -10.5h62l-53 -182h-164zM75 812l52 181h552l-32 -181h-572zM-51 -337l30 155h635l-31 -155h-634z" />
    <glyph glyph-name="u" unicode="u" horiz-adv-x="1048" 
d="M373 -20q-151 0 -227.5 86.5t-76.5 235.5q0 27 4 59t11 75l95 557h224l-91 -536q-7 -39 -10 -65.5t-3 -47.5q0 -173 151 -173q62 0 114 27t93 81l-21 -182q-55 -51 -117 -84t-146 -33zM615 0l21 212l139 781h224l-175 -993h-209z" />
    <glyph glyph-name="uacute" unicode="&#xfa;" horiz-adv-x="1048" 
d="M373 -20q-151 0 -227.5 86.5t-76.5 235.5q0 27 4 59t11 75l95 557h224l-91 -536q-7 -39 -10 -65.5t-3 -47.5q0 -173 151 -173q62 0 114 27t93 81l-21 -182q-55 -51 -117 -84t-146 -33zM615 0l21 212l139 781h224l-175 -993h-209zM443 1144l30 155l391 213l-37 -240z" />
    <glyph glyph-name="ubreve" unicode="&#x16d;" horiz-adv-x="1048" 
d="M373 -20q-151 0 -227.5 86.5t-76.5 235.5q0 27 4 59t11 75l95 557h224l-91 -536q-7 -39 -10 -65.5t-3 -47.5q0 -173 151 -173q62 0 114 27t93 81l-21 -182q-55 -51 -117 -84t-146 -33zM615 0l21 212l139 781h224l-175 -993h-209zM639 1166q-127 0 -194 62.5t-67 152.5
q0 14 1.5 28t5.5 26h158q-2 -7 -3.5 -15.5t-1.5 -16.5q0 -45 30.5 -69.5t82.5 -24.5q59 0 102.5 32.5t54.5 93.5h175q-25 -117 -111.5 -193t-232.5 -76z" />
    <glyph glyph-name="ucircumflex" unicode="&#xfb;" horiz-adv-x="1048" 
d="M373 -20q-151 0 -227.5 86.5t-76.5 235.5q0 27 4 59t11 75l95 557h224l-91 -536q-7 -39 -10 -65.5t-3 -47.5q0 -173 151 -173q62 0 114 27t93 81l-21 -182q-55 -51 -117 -84t-146 -33zM615 0l21 212l139 781h224l-175 -993h-209zM392 1138l32 149l261 196l217 -223
l-29 -145l-227 164z" />
    <glyph glyph-name="uni0215" unicode="&#x215;" horiz-adv-x="1048" 
d="M373 -20q-151 0 -227.5 86.5t-76.5 235.5q0 27 4 59t11 75l95 557h224l-91 -536q-7 -39 -10 -65.5t-3 -47.5q0 -173 151 -173q62 0 114 27t93 81l-21 -182q-55 -51 -117 -84t-146 -33zM615 0l21 212l139 781h224l-175 -993h-209zM846 1169h-148l-136 346h217zM558 1169
h-148l-150 346h217z" />
    <glyph glyph-name="udieresis" unicode="&#xfc;" horiz-adv-x="1048" 
d="M373 -20q-151 0 -227.5 86.5t-76.5 235.5q0 27 4 59t11 75l95 557h224l-91 -536q-7 -39 -10 -65.5t-3 -47.5q0 -173 151 -173q62 0 114 27t93 81l-21 -182q-55 -51 -117 -84t-146 -33zM615 0l21 212l139 781h224l-175 -993h-209zM342 1182l34 173h181l-34 -173h-181z
M729 1182l34 173h181l-34 -173h-181z" />
    <glyph glyph-name="uni1EE5" unicode="&#x1ee5;" horiz-adv-x="1048" 
d="M373 -20q-151 0 -227.5 86.5t-76.5 235.5q0 27 4 59t11 75l95 557h224l-91 -536q-7 -39 -10 -65.5t-3 -47.5q0 -173 151 -173q62 0 114 27t93 81l-21 -182q-55 -51 -117 -84t-146 -33zM615 0l21 212l139 781h224l-175 -993h-209zM202 -351l36 189h194l-36 -189h-194z" />
    <glyph glyph-name="ugrave" unicode="&#xf9;" horiz-adv-x="1048" 
d="M373 -20q-151 0 -227.5 86.5t-76.5 235.5q0 27 4 59t11 75l95 557h224l-91 -536q-7 -39 -10 -65.5t-3 -47.5q0 -173 151 -173q62 0 114 27t93 81l-21 -182q-55 -51 -117 -84t-146 -33zM615 0l21 212l139 781h224l-175 -993h-209zM800 1144l-343 147l38 218l330 -220z" />
    <glyph glyph-name="uni1EE7" unicode="&#x1ee7;" horiz-adv-x="1048" 
d="M373 -20q-151 0 -227.5 86.5t-76.5 235.5q0 27 4 59t11 75l95 557h224l-91 -536q-7 -39 -10 -65.5t-3 -47.5q0 -173 151 -173q62 0 114 27t93 81l-21 -182q-55 -51 -117 -84t-146 -33zM615 0l21 212l139 781h224l-175 -993h-209zM575 1133q45 35 79.5 68.5t34.5 75.5
q0 54 -64 54q-30 0 -63.5 -10.5t-66.5 -26.5l-13 112q39 18 80.5 27.5t85.5 9.5q71 0 119 -35.5t48 -102.5q0 -82 -52.5 -138.5t-128.5 -105.5z" />
    <glyph glyph-name="uhorn" unicode="&#x1b0;" horiz-adv-x="1048" 
d="M373 -20q-151 0 -227.5 86.5t-76.5 235.5q0 27 4 59t11 75l95 557h224l-91 -536q-7 -39 -10 -65.5t-3 -47.5q0 -173 151 -173q62 0 114 27t93 81l-21 -182q-55 -51 -117 -84t-146 -33zM615 0l21 212l139 781h224l-175 -993h-209zM840 841l28 152q75 0 123 34.5t63 113.5
h198q-18 -92 -78.5 -159.5t-148 -104t-185.5 -36.5z" />
    <glyph glyph-name="uni1EE9" unicode="&#x1ee9;" horiz-adv-x="1048" 
d="M373 -20q-151 0 -227.5 86.5t-76.5 235.5q0 27 4 59t11 75l95 557h224l-91 -536q-7 -39 -10 -65.5t-3 -47.5q0 -173 151 -173q62 0 114 27t93 81l-21 -182q-55 -51 -117 -84t-146 -33zM615 0l21 212l139 781h224l-175 -993h-209zM840 841l28 152q75 0 123 34.5t63 113.5
h198q-18 -92 -78.5 -159.5t-148 -104t-185.5 -36.5zM443 1144l30 155l391 213l-37 -240z" />
    <glyph glyph-name="uni1EF1" unicode="&#x1ef1;" horiz-adv-x="1048" 
d="M373 -20q-151 0 -227.5 86.5t-76.5 235.5q0 27 4 59t11 75l95 557h224l-91 -536q-7 -39 -10 -65.5t-3 -47.5q0 -173 151 -173q62 0 114 27t93 81l-21 -182q-55 -51 -117 -84t-146 -33zM615 0l21 212l139 781h224l-175 -993h-209zM840 841l28 152q75 0 123 34.5t63 113.5
h198q-18 -92 -78.5 -159.5t-148 -104t-185.5 -36.5zM202 -351l36 189h194l-36 -189h-194z" />
    <glyph glyph-name="uni1EEB" unicode="&#x1eeb;" horiz-adv-x="1048" 
d="M373 -20q-151 0 -227.5 86.5t-76.5 235.5q0 27 4 59t11 75l95 557h224l-91 -536q-7 -39 -10 -65.5t-3 -47.5q0 -173 151 -173q62 0 114 27t93 81l-21 -182q-55 -51 -117 -84t-146 -33zM615 0l21 212l139 781h224l-175 -993h-209zM840 841l28 152q75 0 123 34.5t63 113.5
h198q-18 -92 -78.5 -159.5t-148 -104t-185.5 -36.5zM800 1144l-343 147l38 218l330 -220z" />
    <glyph glyph-name="uni1EED" unicode="&#x1eed;" horiz-adv-x="1048" 
d="M373 -20q-151 0 -227.5 86.5t-76.5 235.5q0 27 4 59t11 75l95 557h224l-91 -536q-7 -39 -10 -65.5t-3 -47.5q0 -173 151 -173q62 0 114 27t93 81l-21 -182q-55 -51 -117 -84t-146 -33zM615 0l21 212l139 781h224l-175 -993h-209zM840 841l28 152q75 0 123 34.5t63 113.5
h198q-18 -92 -78.5 -159.5t-148 -104t-185.5 -36.5zM575 1133q45 35 79.5 68.5t34.5 75.5q0 54 -64 54q-30 0 -63.5 -10.5t-66.5 -26.5l-13 112q39 18 80.5 27.5t85.5 9.5q71 0 119 -35.5t48 -102.5q0 -82 -52.5 -138.5t-128.5 -105.5z" />
    <glyph glyph-name="uni1EEF" unicode="&#x1eef;" horiz-adv-x="1048" 
d="M373 -20q-151 0 -227.5 86.5t-76.5 235.5q0 27 4 59t11 75l95 557h224l-91 -536q-7 -39 -10 -65.5t-3 -47.5q0 -173 151 -173q62 0 114 27t93 81l-21 -182q-55 -51 -117 -84t-146 -33zM615 0l21 212l139 781h224l-175 -993h-209zM840 841l28 152q75 0 123 34.5t63 113.5
h198q-18 -92 -78.5 -159.5t-148 -104t-185.5 -36.5zM794 1157q-43 0 -90 22t-92 43.5t-82 21.5q-33 0 -54 -19t-27 -52h-152q20 115 74 175t135 60q47 0 91.5 -21.5t86 -43.5t79.5 -22q31 0 50.5 19t25.5 58h157q-22 -124 -72 -182.5t-130 -58.5z" />
    <glyph glyph-name="uhungarumlaut" unicode="&#x171;" horiz-adv-x="1048" 
d="M373 -20q-151 0 -227.5 86.5t-76.5 235.5q0 27 4 59t11 75l95 557h224l-91 -536q-7 -39 -10 -65.5t-3 -47.5q0 -173 151 -173q62 0 114 27t93 81l-21 -182q-55 -51 -117 -84t-146 -33zM615 0l21 212l139 781h224l-175 -993h-209zM400 1169l212 346h217l-281 -346h-148z
M689 1169l225 346h218l-295 -346h-148z" />
    <glyph glyph-name="uni0217" unicode="&#x217;" horiz-adv-x="1048" 
d="M373 -20q-151 0 -227.5 86.5t-76.5 235.5q0 27 4 59t11 75l95 557h224l-91 -536q-7 -39 -10 -65.5t-3 -47.5q0 -173 151 -173q62 0 114 27t93 81l-21 -182q-55 -51 -117 -84t-146 -33zM615 0l21 212l139 781h224l-175 -993h-209zM666 1435q130 0 195 -64t65 -156
q0 -12 -1 -24t-3 -25h-164q2 9 2 15v12q0 48 -31.5 73.5t-85.5 25.5q-60 0 -103.5 -32t-54.5 -94h-168q13 72 59 133.5t119.5 98.5t170.5 37z" />
    <glyph glyph-name="umacron" unicode="&#x16b;" horiz-adv-x="1048" 
d="M373 -20q-151 0 -227.5 86.5t-76.5 235.5q0 27 4 59t11 75l95 557h224l-91 -536q-7 -39 -10 -65.5t-3 -47.5q0 -173 151 -173q62 0 114 27t93 81l-21 -182q-55 -51 -117 -84t-146 -33zM615 0l21 212l139 781h224l-175 -993h-209zM313 1195l30 155h635l-31 -155h-634z" />
    <glyph glyph-name="uni1E7B" unicode="&#x1e7b;" horiz-adv-x="1048" 
d="M373 -20q-151 0 -227.5 86.5t-76.5 235.5q0 27 4 59t11 75l95 557h224l-91 -536q-7 -39 -10 -65.5t-3 -47.5q0 -173 151 -173q62 0 114 27t93 81l-21 -182q-55 -51 -117 -84t-146 -33zM615 0l21 212l139 781h224l-175 -993h-209zM303 1179l27 146h637l-26 -146h-638z
M788 1494l31 164h180l-30 -164h-181zM405 1494l30 164h181l-31 -164h-180z" />
    <glyph glyph-name="uogonek" unicode="&#x173;" horiz-adv-x="1048" 
d="M373 -20q-151 0 -227.5 86.5t-76.5 235.5q0 27 4 59t11 75l95 557h224l-91 -536q-7 -39 -10 -65.5t-3 -47.5q0 -173 151 -173q62 0 114 27t93 81l-21 -182q-55 -51 -117 -84t-146 -33zM615 0l21 212l139 781h224l-175 -993h-209zM718 10l107 -10q-47 -31 -91.5 -67.5
t-73.5 -78t-29 -86.5q0 -73 74 -73q33 0 61 7t58 21l13 -106q-31 -15 -73 -26t-96 -11q-73 0 -120.5 36.5t-47.5 102.5q0 86 66.5 162t151.5 129z" />
    <glyph glyph-name="uring" unicode="&#x16f;" horiz-adv-x="1048" 
d="M373 -20q-151 0 -227.5 86.5t-76.5 235.5q0 27 4 59t11 75l95 557h224l-91 -536q-7 -39 -10 -65.5t-3 -47.5q0 -173 151 -173q62 0 114 27t93 81l-21 -182q-55 -51 -117 -84t-146 -33zM615 0l21 212l139 781h224l-175 -993h-209zM617 1139q-83 0 -127 45.5t-44 110.5
t34 119t90 86t122 32q84 0 127.5 -45.5t43.5 -111.5t-33 -119.5t-89 -85t-124 -31.5zM635 1237q47 0 80 35t33 83q0 36 -21 57t-53 21q-45 0 -79 -36t-34 -84q0 -35 21 -55.5t53 -20.5z" />
    <glyph glyph-name="utilde" unicode="&#x169;" horiz-adv-x="1048" 
d="M373 -20q-151 0 -227.5 86.5t-76.5 235.5q0 27 4 59t11 75l95 557h224l-91 -536q-7 -39 -10 -65.5t-3 -47.5q0 -173 151 -173q62 0 114 27t93 81l-21 -182q-55 -51 -117 -84t-146 -33zM615 0l21 212l139 781h224l-175 -993h-209zM794 1157q-43 0 -90 22t-92 43.5
t-82 21.5q-33 0 -54 -19t-27 -52h-152q20 115 74 175t135 60q47 0 91.5 -21.5t86 -43.5t79.5 -22q31 0 50.5 19t25.5 58h157q-22 -124 -72 -182.5t-130 -58.5z" />
    <glyph glyph-name="uni1E79" unicode="&#x1e79;" horiz-adv-x="1048" 
d="M373 -20q-151 0 -227.5 86.5t-76.5 235.5q0 27 4 59t11 75l95 557h224l-91 -536q-7 -39 -10 -65.5t-3 -47.5q0 -173 151 -173q62 0 114 27t93 81l-21 -182q-55 -51 -117 -84t-146 -33zM615 0l21 212l139 781h224l-175 -993h-209zM774 1155q-43 0 -89.5 19t-89.5 38
t-78 19q-25 0 -43 -15.5t-23 -48.5h-144q19 101 68 154t126 53q44 0 89 -19.5t87.5 -38.5t79.5 -19q26 0 43.5 17t22.5 50h144q-15 -104 -65.5 -156.5t-127.5 -52.5zM503 1451l21 142l370 190l-33 -216z" />
    <glyph glyph-name="v" unicode="v" horiz-adv-x="933" 
d="M256 0l-183 993h223l122 -828l-63 10l410 818h223l-534 -993h-198z" />
    <glyph glyph-name="w" unicode="w" horiz-adv-x="1376" 
d="M196 0l-99 993h223l40 -833l-47 9l345 800h192l62 -809l-47 8l332 825h223l-449 -993h-195l-84 782l56 -9l-358 -773h-194z" />
    <glyph glyph-name="wacute" unicode="&#x1e83;" horiz-adv-x="1376" 
d="M196 0l-99 993h223l40 -833l-47 9l345 800h192l62 -809l-47 8l332 825h223l-449 -993h-195l-84 782l56 -9l-358 -773h-194zM609 1144l30 155l391 213l-37 -240z" />
    <glyph glyph-name="wcircumflex" unicode="&#x175;" horiz-adv-x="1376" 
d="M196 0l-99 993h223l40 -833l-47 9l345 800h192l62 -809l-47 8l332 825h223l-449 -993h-195l-84 782l56 -9l-358 -773h-194zM558 1138l32 149l261 196l217 -223l-29 -145l-227 164z" />
    <glyph glyph-name="wdieresis" unicode="&#x1e85;" horiz-adv-x="1376" 
d="M196 0l-99 993h223l40 -833l-47 9l345 800h192l62 -809l-47 8l332 825h223l-449 -993h-195l-84 782l56 -9l-358 -773h-194zM507 1182l34 173h181l-34 -173h-181zM894 1182l34 173h181l-34 -173h-181z" />
    <glyph glyph-name="wgrave" unicode="&#x1e81;" horiz-adv-x="1376" 
d="M196 0l-99 993h223l40 -833l-47 9l345 800h192l62 -809l-47 8l332 825h223l-449 -993h-195l-84 782l56 -9l-358 -773h-194zM966 1144l-343 147l38 218l330 -220z" />
    <glyph glyph-name="x" unicode="x" horiz-adv-x="931" 
d="M537 0l-129 342l-87 140l-221 511h265l120 -358l82 -129l235 -506h-265zM-77 0l416 528l97 -168l-247 -360h-266zM553 466l-92 156l247 371h268z" />
    <glyph glyph-name="y" unicode="y" horiz-adv-x="999" 
d="M-13 -484l356 633l-27 -193l-249 1037h249l147 -777l-70 11l416 766h249l-844 -1477h-227z" />
    <glyph glyph-name="yacute" unicode="&#xfd;" horiz-adv-x="999" 
d="M-13 -484l356 633l-27 -193l-249 1037h249l147 -777l-70 11l416 766h249l-844 -1477h-227zM417 1144l30 155l391 213l-37 -240z" />
    <glyph glyph-name="ycircumflex" unicode="&#x177;" horiz-adv-x="999" 
d="M-13 -484l356 633l-27 -193l-249 1037h249l147 -777l-70 11l416 766h249l-844 -1477h-227zM366 1138l32 149l261 196l217 -223l-29 -145l-227 164z" />
    <glyph glyph-name="ydieresis" unicode="&#xff;" horiz-adv-x="999" 
d="M-13 -484l356 633l-27 -193l-249 1037h249l147 -777l-70 11l416 766h249l-844 -1477h-227zM315 1182l34 173h181l-34 -173h-181zM702 1182l34 173h181l-34 -173h-181z" />
    <glyph glyph-name="uni1E8F" unicode="&#x1e8f;" horiz-adv-x="999" 
d="M-13 -484l356 633l-27 -193l-249 1037h249l147 -777l-70 11l416 766h249l-844 -1477h-227zM505 1196l36 189h194l-36 -189h-194z" />
    <glyph glyph-name="uni1EF5" unicode="&#x1ef5;" horiz-adv-x="999" 
d="M-13 -484l356 633l-27 -193l-249 1037h249l147 -777l-70 11l416 766h249l-844 -1477h-227zM528 -351l36 189h194l-36 -189h-194z" />
    <glyph glyph-name="ygrave" unicode="&#x1ef3;" horiz-adv-x="999" 
d="M-13 -484l356 633l-27 -193l-249 1037h249l147 -777l-70 11l416 766h249l-844 -1477h-227zM774 1144l-343 147l38 218l330 -220z" />
    <glyph glyph-name="uni1EF7" unicode="&#x1ef7;" horiz-adv-x="999" 
d="M-13 -484l356 633l-27 -193l-249 1037h249l147 -777l-70 11l416 766h249l-844 -1477h-227zM548 1133q45 35 79.5 68.5t34.5 75.5q0 54 -64 54q-30 0 -63.5 -10.5t-66.5 -26.5l-13 112q39 18 80.5 27.5t85.5 9.5q71 0 119 -35.5t48 -102.5q0 -82 -52.5 -138.5
t-128.5 -105.5z" />
    <glyph glyph-name="uni0233" unicode="&#x233;" horiz-adv-x="999" 
d="M-13 -484l356 633l-27 -193l-249 1037h249l147 -777l-70 11l416 766h249l-844 -1477h-227zM286 1195l30 155h635l-31 -155h-634z" />
    <glyph glyph-name="uni1EF9" unicode="&#x1ef9;" horiz-adv-x="999" 
d="M-13 -484l356 633l-27 -193l-249 1037h249l147 -777l-70 11l416 766h249l-844 -1477h-227zM768 1157q-43 0 -90 22t-92 43.5t-82 21.5q-33 0 -54 -19t-27 -52h-152q20 115 74 175t135 60q47 0 91.5 -21.5t86 -43.5t79.5 -22q31 0 50.5 19t25.5 58h157
q-22 -124 -72 -182.5t-130 -58.5z" />
    <glyph glyph-name="z" unicode="z" horiz-adv-x="899" 
d="M-57 0l638 887l43 -85h-521l34 191h788l-636 -887l-44 85h520l-35 -191h-787z" />
    <glyph glyph-name="zacute" unicode="&#x17a;" horiz-adv-x="899" 
d="M-57 0l638 887l43 -85h-521l34 191h788l-636 -887l-44 85h520l-35 -191h-787zM385 1144l30 155l391 213l-37 -240z" />
    <glyph glyph-name="zcaron" unicode="&#x17e;" horiz-adv-x="899" 
d="M-57 0l638 887l43 -85h-521l34 191h788l-636 -887l-44 85h520l-35 -191h-787zM555 1117l-216 223l29 145l227 -164l281 164l-29 -167z" />
    <glyph glyph-name="zdotaccent" unicode="&#x17c;" horiz-adv-x="899" 
d="M-57 0l638 887l43 -85h-521l34 191h788l-636 -887l-44 85h520l-35 -191h-787zM474 1196l36 189h194l-36 -189h-194z" />
    <glyph glyph-name="uni1E93" unicode="&#x1e93;" horiz-adv-x="899" 
d="M-57 0l638 887l43 -85h-521l34 191h788l-636 -887l-44 85h520l-35 -191h-787zM180 -351l36 189h194l-36 -189h-194z" />
    <glyph glyph-name="iacute_j.loclNLD" horiz-adv-x="916" 
d="M165 1141l26 145l358 228l-39 -217zM624 1141l26 145l358 228l-39 -217zM16 0l175 993h224l-175 -993h-224zM300 -484l11 180q54 3 80.5 15.5t40 49t26.5 110.5l198 1122h224l-215 -1212q-20 -112 -88.5 -183.5t-194.5 -77.5z" />
    <glyph glyph-name="ordfeminine" unicode="&#xaa;" horiz-adv-x="625" 
d="M265 868q-72 0 -115 38.5t-43 105.5q0 61 33 104.5t87.5 71.5t121.5 43.5t135 21.5l-20 -120q-36 -3 -72 -12.5t-59.5 -29t-23.5 -52.5q0 -40 47 -40q19 0 36.5 6t35.5 18l21 124q6 31 9.5 51.5t5.5 36t3 28.5q0 20 -17 31t-64 11q-42 0 -86 -8.5t-89 -23.5l15 146
q63 20 121 30t112 10q94 0 146.5 -42t52.5 -122q0 -12 -1.5 -24t-3.5 -22l-29 -165q-2 -11 -3.5 -20t-1.5 -17q0 -15 7.5 -20.5t25.5 -5.5h6l-37 -153h-64q-71 0 -104.5 33.5t-3.5 110.5l20 -30q-8 -34 -42 -60t-78 -40t-84 -14z" />
    <glyph glyph-name="ordmasculine" unicode="&#xba;" horiz-adv-x="672" 
d="M375 868q-126 0 -190.5 71.5t-64.5 170.5q1 99 49 177.5t130 125t180 46.5q126 0 191 -70t65 -170q0 -101 -49 -180.5t-131 -125t-180 -45.5zM399 1010q48 0 80 29.5t48 75.5t16 96t-22 78.5t-67 28.5q-47 0 -79.5 -29.5t-48.5 -75t-16 -92.5q0 -52 23 -81.5t66 -29.5z
" />
    <glyph glyph-name="pi" unicode="&#x3c0;" horiz-adv-x="1345" 
d="M481 842l-149 -842h-223l149 842h223zM1018 842l-98 -551q-2 -13 -4 -24t-2 -23q0 -77 80 -77q26 0 51 4t43 10l-31 -171q-27 -12 -70.5 -21t-91.5 -9q-103 0 -158.5 49.5t-54.5 145.5q0 20 2.5 37t6.5 40l104 590h223zM57 812l32 181h1149l-32 -181h-1149z" />
    <glyph glyph-name="zero" unicode="0" horiz-adv-x="1370" 
d="M536 -28q-147 0 -250.5 67.5t-158 190.5t-54.5 289q0 175 51 337.5t146 291.5t227.5 204.5t294.5 75.5q147 0 251 -66t159 -185.5t55 -281.5q0 -173 -51.5 -338t-147 -297t-228 -210t-294.5 -78zM573 181q111 0 194.5 63t139.5 167t84.5 227.5t28.5 242.5q0 173 -72 257
t-192 84q-112 0 -196 -62t-139.5 -164t-83.5 -224.5t-28 -243.5q0 -176 71 -261.5t193 -85.5z" />
    <glyph glyph-name="one" unicode="1" horiz-adv-x="692" 
d="M133 0l208 1172l52 -54q-54 -40 -100 -67.5t-88.5 -44t-85.5 -26.5l9 202q50 12 110 46t114.5 79t86.5 93h172l-248 -1400h-230z" />
    <glyph glyph-name="two" unicode="2" horiz-adv-x="1017" 
d="M-60 1l466 571q88 109 149 189.5t92.5 148.5t31.5 136q0 76 -41 120t-116 44q-100 0 -188.5 -49.5t-177.5 -123.5l14 237q91 69 196.5 111.5t225.5 42.5q165 0 245 -90t80 -226q0 -116 -47.5 -221t-127.5 -211t-180 -224l-267 -320l-37 80h566l-38 -215h-846z" />
    <glyph glyph-name="three" unicode="3" horiz-adv-x="1040" 
d="M359 -28q-123 0 -227.5 33.5t-191.5 87.5l92 202q75 -54 158 -87t177 -33q114 0 187 61.5t74 176.5q0 100 -60.5 153t-184.5 53h-107l38 215h105q126 0 204 61.5t78 166.5q0 77 -47 120t-136 43q-81 0 -161 -30t-160 -77l2 214q79 43 175 69.5t205 26.5q170 0 264 -88.5
t94 -229.5q0 -96 -44.5 -177t-123.5 -137t-184 -77l7 46q128 -28 201.5 -115.5t73.5 -228.5q0 -134 -67 -235t-182.5 -157.5t-258.5 -56.5z" />
    <glyph glyph-name="four" unicode="4" horiz-adv-x="1159" 
d="M583 0l201 1133l47 -66l-535 -614l-37 74h796l-35 -192h-1068l937 1065h161l-248 -1400h-219z" />
    <glyph glyph-name="five" unicode="5" horiz-adv-x="1017" 
d="M333 -27q-118 0 -212.5 30t-173.5 86l107 195q66 -45 135.5 -73.5t157.5 -28.5q85 0 150.5 34t103 95.5t37.5 144.5q0 110 -67 171t-197 61q-65 0 -130.5 -6.5t-130.5 -19.5l216 738h644l-53 -223h-556l135 100l-154 -506l-65 87q44 12 91 17.5t98 5.5q188 0 295.5 -105
t107.5 -287q0 -154 -72.5 -270.5t-195 -181t-271.5 -64.5z" />
    <glyph glyph-name="six" unicode="6" horiz-adv-x="1132" 
d="M471 -28q-126 0 -220 51t-146 144t-52 220q0 161 68 317t184 294.5t261 248.5t298 181l131 -153q-74 -33 -161.5 -83t-176 -115.5t-166 -145.5t-133 -172.5t-74.5 -195.5l-39 80q65 90 164 144t234 54q162 0 258.5 -100.5t96.5 -263.5q0 -142 -68.5 -256.5t-188 -181.5
t-270.5 -67zM489 167q82 0 146.5 38.5t101.5 103.5t37 143q0 85 -54 140t-143 55q-83 0 -149 -39.5t-104 -104.5t-37 -144q2 -85 58.5 -138.5t143.5 -53.5z" />
    <glyph glyph-name="seven" unicode="7" horiz-adv-x="1012" 
d="M39 0l733 1275l50 -93h-653l38 218h885l-810 -1400h-243z" />
    <glyph glyph-name="eight" unicode="8" horiz-adv-x="1178" 
d="M581 682q-101 0 -181 38t-126 106t-47 161q0 125 63 225t172 158t244 58q123 0 199 -42.5t111.5 -112.5t35.5 -153q0 -130 -63 -228.5t-170 -154t-238 -55.5zM610 857q102 0 165.5 67t63.5 160q0 70 -40 112t-122 42q-104 0 -170.5 -64.5t-66.5 -158.5q1 -69 45.5 -113.5
t124.5 -44.5zM466 -28q-128 0 -222.5 44t-145.5 123.5t-51 185.5q0 110 43 201.5t120 159.5t178.5 105t215.5 37q189 0 298 -95t109 -254q0 -149 -74 -263t-197.5 -179t-273.5 -65zM489 175q88 0 156 36t106 99t38 144q0 89 -56 144t-159 55q-88 0 -156.5 -38.5
t-106.5 -104.5t-38 -149q0 -86 56.5 -136t159.5 -50z" />
    <glyph glyph-name="nine" unicode="9" horiz-adv-x="1150" 
d="M646 1428q126 0 220 -51t146 -144t52 -220q0 -161 -68 -317t-184 -294.5t-261 -248.5t-298 -181l-131 153q74 33 161.5 83t176 115.5t166 145.5t133 172.5t74.5 195.5l39 -80q-65 -90 -164 -144t-234 -54q-162 0 -258.5 100.5t-96.5 263.5q0 142 68.5 256.5t188 181.5
t270.5 67zM628 1233q-82 0 -146.5 -38.5t-101.5 -103.5t-37 -143q0 -85 54 -140t143 -55q83 0 149 39.5t104 104.5t37 144q-2 85 -58.5 138.5t-143.5 53.5z" />
    <glyph glyph-name="uni2080" unicode="&#x2080;" horiz-adv-x="750" 
d="M223 -144q-138 0 -207.5 84.5t-68.5 220.5q0 128 51.5 241.5t145 183.5t219.5 70q131 0 205 -79.5t74 -215.5q0 -98 -30 -188.5t-85 -162t-132 -113t-172 -41.5zM251 19q67 0 111.5 52t67 127t22.5 145q0 76 -31 113t-86 37q-69 0 -113 -52t-65 -127.5t-21 -145.5
q0 -72 28.5 -110.5t86.5 -38.5z" />
    <glyph glyph-name="uni2081" unicode="&#x2081;" horiz-adv-x="441" 
d="M33 -116l113 643l49 -48q-54 -51 -106 -80.5t-98 -40.5l15 150q52 17 108.5 50.5t90.5 69.5h135l-132 -744h-175z" />
    <glyph glyph-name="uni2082" unicode="&#x2082;" horiz-adv-x="598" 
d="M-104 -116l278 316q58 66 88.5 115.5t30.5 97.5q0 36 -21.5 58t-66.5 22q-54 0 -103.5 -25t-97.5 -61l15 173q54 32 119.5 54t136.5 22q101 0 158.5 -51.5t57.5 -137.5q0 -87 -49 -164.5t-125 -164.5l-202 -232l-10 138h349l-28 -160h-530z" />
    <glyph glyph-name="uni2083" unicode="&#x2083;" horiz-adv-x="609" 
d="M121 -144q-76 0 -138 19t-111 51l66 159q39 -31 81 -51t98 -20q58 0 93.5 25t35.5 73q0 38 -26.5 60t-83.5 22h-60l27 146h62q52 0 84 24t32 64q0 31 -20 50.5t-66 19.5q-48 0 -93.5 -16.5t-90.5 -44.5l15 166q53 25 113 39t126 14q102 0 156 -49t54 -128q0 -80 -48 -136
t-126 -83l4 24q60 -17 95 -56.5t35 -106.5q0 -78 -43 -138t-114.5 -93.5t-156.5 -33.5z" />
    <glyph glyph-name="uni2084" unicode="&#x2084;" horiz-adv-x="655" 
d="M386 -116h-156l115 632l48 -42l-302 -344l-56 48h501l-24 -135h-659l521 585h144z" />
    <glyph glyph-name="uni2085" unicode="&#x2085;" horiz-adv-x="605" 
d="M116 -144q-66 0 -122 14t-106 41l63 159q39 -25 80.5 -40.5t92.5 -15.5q59 0 94 26t35 77q0 42 -32 65t-96 23q-41 0 -79 -3.5t-72 -9.5l121 436h405l-40 -158h-315l75 89l-74 -257l-46 41q26 7 55 11t58 4q113 0 172 -57t60 -157q0 -87 -44 -151.5t-118.5 -100.5
t-166.5 -36z" />
    <glyph glyph-name="uni2086" unicode="&#x2086;" horiz-adv-x="602" 
d="M179 -144q-114 0 -180.5 65.5t-66.5 178.5q0 123 67 230t176 190t233 136l83 -116q-90 -34 -178.5 -89.5t-152 -129t-78.5 -160.5l-32 63q38 56 97.5 87t130.5 31q98 0 152 -54t54 -141q0 -82 -40.5 -148t-109.5 -104.5t-155 -38.5zM195 1q52 0 84.5 35.5t32.5 84.5
q0 34 -22 56.5t-62 22.5q-50 0 -84.5 -35.5t-34.5 -82.5q0 -35 23 -58t63 -23z" />
    <glyph glyph-name="uni2087" unicode="&#x2087;" horiz-adv-x="579" 
d="M-57 -116l414 679l33 -81h-382l27 158h540l-459 -756h-173z" />
    <glyph glyph-name="uni2088" unicode="&#x2088;" horiz-adv-x="603" 
d="M287 656q102 0 148 -50t46 -118q0 -69 -36 -123t-97 -85.5t-137 -31.5q-93 0 -145.5 45t-52.5 118q0 70 36.5 125.5t98.5 87.5t139 32zM231 359q41 0 66 31.5t25 68.5q0 28 -15.5 44.5t-46.5 16.5q-44 0 -68 -31.5t-24 -67.5q0 -26 16 -44t47 -18zM143 -144
q-114 0 -178.5 53.5t-64.5 140.5q0 82 44 144.5t117.5 98t163.5 35.5q112 0 175.5 -52t63.5 -141q0 -84 -43.5 -147t-116 -97.5t-161.5 -34.5zM166 -7q58 0 91 42t33 91q0 37 -22 60t-63 23q-57 0 -90.5 -37t-33.5 -95q0 -38 22 -61t63 -23z" />
    <glyph glyph-name="uni2089" unicode="&#x2089;" horiz-adv-x="648" 
d="M285 656q110 0 176 -65.5t66 -180.5q0 -123 -67.5 -229t-176 -189t-233.5 -136l-83 116q91 34 179 90t152 129t79 160l31 -63q-35 -55 -92.5 -86.5t-126.5 -31.5q-99 0 -156.5 55t-57.5 144q0 81 41 146t111 103t158 38zM264 508q-51 0 -83 -34.5t-32 -82.5
q0 -33 21.5 -54.5t59.5 -21.5q50 0 83.5 34.5t33.5 80.5q0 35 -22 56.5t-61 21.5z" />
    <glyph glyph-name="zero.dnom" horiz-adv-x="750" 
d="M244 -28q-138 0 -207.5 84.5t-68.5 220.5q0 128 51.5 241.5t145 183.5t219.5 70q131 0 205 -79.5t74 -215.5q0 -98 -30 -188.5t-85 -162t-132 -113t-172 -41.5zM272 135q67 0 111.5 52t67 127t22.5 145q0 76 -31 113t-86 37q-69 0 -113 -52t-65 -127.5t-21 -145.5
q0 -72 28.5 -110.5t86.5 -38.5z" />
    <glyph glyph-name="one.dnom" horiz-adv-x="441" 
d="M54 0l113 643l49 -48q-54 -51 -106 -80.5t-98 -40.5l15 150q52 17 108.5 50.5t90.5 69.5h135l-132 -744h-175z" />
    <glyph glyph-name="two.dnom" horiz-adv-x="598" 
d="M-84 0l278 316q58 66 88.5 115.5t30.5 97.5q0 36 -21.5 58t-66.5 22q-54 0 -103.5 -25t-97.5 -61l15 173q54 32 119.5 54t136.5 22q101 0 158.5 -51.5t57.5 -137.5q0 -87 -49 -164.5t-125 -164.5l-202 -232l-10 138h349l-28 -160h-530z" />
    <glyph glyph-name="three.dnom" horiz-adv-x="609" 
d="M142 -28q-76 0 -138 19t-111 51l66 159q39 -31 81 -51t98 -20q58 0 93.5 25t35.5 73q0 38 -26.5 60t-83.5 22h-60l27 146h62q52 0 84 24t32 64q0 31 -20 50.5t-66 19.5q-48 0 -93.5 -16.5t-90.5 -44.5l15 166q53 25 113 39t126 14q102 0 156 -49t54 -128q0 -80 -48 -136
t-126 -83l4 24q60 -17 95 -56.5t35 -106.5q0 -78 -43 -138t-114.5 -93.5t-156.5 -33.5z" />
    <glyph glyph-name="four.dnom" horiz-adv-x="655" 
d="M406 0h-156l115 632l48 -42l-302 -344l-56 48h501l-24 -135h-659l521 585h144z" />
    <glyph glyph-name="five.dnom" horiz-adv-x="606" 
d="M137 -28q-66 0 -122 14t-106 41l63 159q39 -25 80.5 -40.5t92.5 -15.5q59 0 94 26t35 77q0 42 -32 65t-96 23q-41 0 -79 -3.5t-72 -9.5l121 436h405l-40 -158h-315l75 89l-74 -257l-46 41q26 7 55 11t58 4q113 0 172 -57t60 -157q0 -87 -44 -151.5t-118.5 -100.5
t-166.5 -36z" />
    <glyph glyph-name="six.dnom" horiz-adv-x="602" 
d="M200 -28q-114 0 -180.5 65.5t-66.5 178.5q0 123 67 230t176 190t233 136l83 -116q-90 -34 -178.5 -89.5t-152 -129t-78.5 -160.5l-32 63q38 56 97.5 87t130.5 31q98 0 152 -54t54 -141q0 -82 -40.5 -148t-109.5 -104.5t-155 -38.5zM216 117q52 0 84.5 35.5t32.5 84.5
q0 34 -22 56.5t-62 22.5q-50 0 -84.5 -35.5t-34.5 -82.5q0 -35 23 -58t63 -23z" />
    <glyph glyph-name="seven.dnom" horiz-adv-x="579" 
d="M-37 0l414 679l33 -81h-382l27 158h540l-459 -756h-173z" />
    </font>
</defs>
</svg>
