<?xml version="1.0" standalone="no"?>
<!DOCTYPE svg PUBLIC "-//W3C//DTD SVG 1.1//EN" "http://www.w3.org/Graphics/SVG/1.1/DTD/svg11.dtd" >
<svg xmlns="http://www.w3.org/2000/svg" xmlns:xlink="http://www.w3.org/1999/xlink" version="1.1">
<metadata>
Created by FontForge 20190801 at Wed Jul 22 20:33:01 2020
 By Unknown
Copyright 2018 The Cabin Project Authors (https://github.com/impallari/Cabin)
</metadata>
<defs>
<font id="Cabin-MediumItalic" horiz-adv-x="0" >
  <font-face 
    font-family="Cabin Medium"
    font-weight="500"
    font-style="italic"
    font-stretch="normal"
    units-per-em="2000"
    panose-1="0 0 0 0 0 0 0 0 0 0"
    ascent="1600"
    descent="-400"
    x-height="988"
    cap-height="1400"
    bbox="-548 -537 2496 2289"
    underline-thickness="50"
    underline-position="-125"
    slope="-10"
    unicode-range="U+000D-25CA"
  />
<missing-glyph horiz-adv-x="1206" 
d="M100 0v1400h1006v-1400h-1006zM260 140h686v1120h-686v-1120z" />
    <glyph glyph-name=".notdef" horiz-adv-x="1206" 
d="M100 0v1400h1006v-1400h-1006zM260 140h686v1120h-686v-1120z" />
    <glyph glyph-name="A" unicode="A" horiz-adv-x="1169" 
d="M-79 0l709 1400h212l215 -1400h-228l-54 377l-32 172l-78 624l55 -9l-291 -613l-95 -176l-185 -375h-228zM246 361l109 204h457l37 -204h-603z" />
    <glyph glyph-name="Aacute" unicode="&#xc1;" horiz-adv-x="1169" 
d="M-79 0l709 1400h212l215 -1400h-228l-54 377l-32 172l-78 624l55 -9l-291 -613l-95 -176l-185 -375h-228zM246 361l109 204h457l37 -204h-603zM588 1558l28 148l382 212l-36 -234z" />
    <glyph glyph-name="Abreve" unicode="&#x102;" horiz-adv-x="1169" 
d="M-79 0l709 1400h212l215 -1400h-228l-54 377l-32 172l-78 624l55 -9l-291 -613l-95 -176l-185 -375h-228zM246 361l109 204h457l37 -204h-603zM777 1573q-128 0 -192 62t-64 149q0 14 1.5 27.5t5.5 26.5h157q-2 -7 -3.5 -16t-1.5 -18q0 -44 30 -67.5t81 -23.5
q57 0 99.5 32t53.5 93h172q-22 -114 -107.5 -189.5t-231.5 -75.5z" />
    <glyph glyph-name="uni1EAE" unicode="&#x1eae;" horiz-adv-x="1169" 
d="M-79 0l709 1400h212l215 -1400h-228l-54 377l-32 172l-78 624l55 -9l-291 -613l-95 -176l-185 -375h-228zM246 361l109 204h457l37 -204h-603zM770 1529q-132 0 -196 61t-64 145q0 11 1.5 22.5t2.5 22.5h164q-1 -6 -2 -13.5t-1 -14.5q0 -46 32 -70t83 -24q57 0 101 31
t54 91h166q-18 -111 -106 -181t-235 -70zM687 1863l20 138l361 190l-32 -212z" />
    <glyph glyph-name="uni1EB6" unicode="&#x1eb6;" horiz-adv-x="1169" 
d="M-79 0l709 1400h212l215 -1400h-228l-54 377l-32 172l-78 624l55 -9l-291 -613l-95 -176l-185 -375h-228zM246 361l109 204h457l37 -204h-603zM755 1529q-132 0 -196 61t-64 145q0 11 1.5 22.5t2.5 22.5h164q-1 -6 -2 -13.5t-1 -14.5q0 -46 32 -70t83 -24q57 0 101 31
t54 91h166q-18 -111 -106 -181t-235 -70zM332 -348l36 186h191l-36 -186h-191z" />
    <glyph glyph-name="uni1EB0" unicode="&#x1eb0;" horiz-adv-x="1169" 
d="M-79 0l709 1400h212l215 -1400h-228l-54 377l-32 172l-78 624l55 -9l-291 -613l-95 -176l-185 -375h-228zM246 361l109 204h457l37 -204h-603zM759 1527q-132 0 -196 61t-64 145q0 11 1.5 22.5t2.5 22.5h164q-1 -6 -2 -13.5t-1 -14.5q0 -46 32 -70t83 -24q57 0 101 31
t54 91h166q-18 -111 -106 -181t-235 -70zM1018 1861l-341 116l36 200l330 -190z" />
    <glyph glyph-name="uni1EB2" unicode="&#x1eb2;" horiz-adv-x="1169" 
d="M-79 0l709 1400h212l215 -1400h-228l-54 377l-32 172l-78 624l55 -9l-291 -613l-95 -176l-185 -375h-228zM246 361l109 204h457l37 -204h-603zM786 1537q-132 0 -196 61t-64 145q0 11 1.5 22.5t2.5 22.5h164q-1 -6 -2 -13.5t-1 -14.5q0 -46 32 -70t83 -24q57 0 101 31
t54 91h166q-18 -111 -106 -181t-235 -70zM844 1819l-5 83q41 13 62.5 33t21.5 48q0 53 -69 53q-29 0 -60.5 -9.5t-63.5 -24.5l-15 111q37 16 78.5 25t85.5 9q73 0 120.5 -35t47.5 -100q0 -77 -55 -124.5t-148 -68.5z" />
    <glyph glyph-name="uni1EB4" unicode="&#x1eb4;" horiz-adv-x="1169" 
d="M-79 0l709 1400h212l215 -1400h-228l-54 377l-32 172l-78 624l55 -9l-291 -613l-95 -176l-185 -375h-228zM246 361l109 204h457l37 -204h-603zM780 1529q-131 0 -195.5 61t-64.5 145q0 11 1.5 22.5t2.5 22.5h164q-1 -6 -2 -13.5t-1 -14.5q0 -46 32 -70t83 -24
q57 0 101.5 31t54.5 91h166q-19 -111 -107 -181t-235 -70zM1010 1875q-43 0 -90 19.5t-90.5 38.5t-78.5 19q-25 0 -44 -15.5t-23 -49.5h-139q18 100 67 152t124 52q44 0 89.5 -19t89 -38.5t80.5 -19.5q26 0 44 17.5t23 49.5h139q-15 -102 -65.5 -154t-125.5 -52z" />
    <glyph glyph-name="Acircumflex" unicode="&#xc2;" horiz-adv-x="1169" 
d="M-79 0l709 1400h212l215 -1400h-228l-54 377l-32 172l-78 624l55 -9l-291 -613l-95 -176l-185 -375h-228zM246 361l109 204h457l37 -204h-603zM535 1553l32 143l259 194l215 -221l-28 -137l-225 162z" />
    <glyph glyph-name="uni1EA4" unicode="&#x1ea4;" horiz-adv-x="1169" 
d="M-79 0l709 1400h212l215 -1400h-228l-54 377l-32 172l-78 624l55 -9l-291 -613l-95 -176l-185 -375h-228zM246 361l109 204h457l37 -204h-603zM1009 1508l-235 137l-236 -113l23 133l245 158l225 -182zM923 1804l158 229h208l-226 -229h-140z" />
    <glyph glyph-name="uni1EAC" unicode="&#x1eac;" horiz-adv-x="1169" 
d="M-79 0l709 1400h212l215 -1400h-228l-54 377l-32 172l-78 624l55 -9l-291 -613l-95 -176l-185 -375h-228zM246 361l109 204h457l37 -204h-603zM1007 1500l-235 137l-236 -113l23 133l245 157l225 -181zM332 -348l36 186h191l-36 -186h-191z" />
    <glyph glyph-name="uni1EA6" unicode="&#x1ea6;" horiz-adv-x="1169" 
d="M-79 0l709 1400h212l215 -1400h-228l-54 377l-32 172l-78 624l55 -9l-291 -613l-95 -176l-185 -375h-228zM246 361l109 204h457l37 -204h-603zM1008 1508l-235 137l-236 -113l23 133l245 158l225 -182zM929 1804l-128 243h200l66 -243h-138z" />
    <glyph glyph-name="uni1EA8" unicode="&#x1ea8;" horiz-adv-x="1169" 
d="M-79 0l709 1400h212l215 -1400h-228l-54 377l-32 172l-78 624l55 -9l-291 -613l-95 -176l-185 -375h-228zM246 361l109 204h457l37 -204h-603zM1007 1500l-235 137l-236 -113l23 133l245 157l225 -181zM960 1744l-5 84q84 24 84 81q0 53 -69 53q-29 0 -60.5 -9.5
t-63.5 -24.5l-15 110q37 17 78.5 26t85.5 9q73 0 121 -35t48 -100q0 -77 -55 -124.5t-149 -69.5z" />
    <glyph glyph-name="uni1EAA" unicode="&#x1eaa;" horiz-adv-x="1169" 
d="M-79 0l709 1400h212l215 -1400h-228l-54 377l-32 172l-78 624l55 -9l-291 -613l-95 -176l-185 -375h-228zM246 361l109 204h457l37 -204h-603zM1007 1500l-235 137l-236 -113l23 133l245 157l225 -181zM977 1872q-43 0 -90 19.5t-90.5 38.5t-77.5 19q-25 0 -44 -15.5
t-24 -49.5h-139q18 100 67 152t124 52q44 0 90 -19t89 -38.5t80 -19.5q57 0 67 67h140q-16 -102 -66 -154t-126 -52z" />
    <glyph glyph-name="uni0200" unicode="&#x200;" horiz-adv-x="1169" 
d="M-79 0l709 1400h212l215 -1400h-228l-54 377l-32 172l-78 624l55 -9l-291 -613l-95 -176l-185 -375h-228zM246 361l109 204h457l37 -204h-603zM550 1576l-141 303h207l73 -303h-139zM832 1576l-128 303h206l61 -303h-139z" />
    <glyph glyph-name="Adieresis" unicode="&#xc4;" horiz-adv-x="1169" 
d="M-79 0l709 1400h212l215 -1400h-228l-54 377l-32 172l-78 624l55 -9l-291 -613l-95 -176l-185 -375h-228zM246 361l109 204h457l37 -204h-603zM488 1594l33 168h177l-34 -168h-176zM870 1594l34 168h176l-33 -168h-177z" />
    <glyph glyph-name="uni1EA0" unicode="&#x1ea0;" horiz-adv-x="1169" 
d="M-79 0l709 1400h212l215 -1400h-228l-54 377l-32 172l-78 624l55 -9l-291 -613l-95 -176l-185 -375h-228zM246 361l109 204h457l37 -204h-603zM332 -348l36 186h191l-36 -186h-191z" />
    <glyph glyph-name="Agrave" unicode="&#xc0;" horiz-adv-x="1169" 
d="M-79 0l709 1400h212l215 -1400h-228l-54 377l-32 172l-78 624l55 -9l-291 -613l-95 -176l-185 -375h-228zM246 361l109 204h457l37 -204h-603zM939 1559l-339 144l37 210l326 -217z" />
    <glyph glyph-name="uni1EA2" unicode="&#x1ea2;" horiz-adv-x="1169" 
d="M-79 0l709 1400h212l215 -1400h-228l-54 377l-32 172l-78 624l55 -9l-291 -613l-95 -176l-185 -375h-228zM246 361l109 204h457l37 -204h-603zM716 1539q47 37 81 70.5t34 76.5q0 54 -66 54q-31 0 -64 -10.5t-67 -26.5l-14 109q39 17 80.5 27t86.5 10q71 0 119.5 -35.5
t48.5 -101.5q0 -80 -52.5 -136.5t-128.5 -105.5z" />
    <glyph glyph-name="uni0202" unicode="&#x202;" horiz-adv-x="1169" 
d="M-79 0l709 1400h212l215 -1400h-228l-54 377l-32 172l-78 624l55 -9l-291 -613l-95 -176l-185 -375h-228zM246 361l109 204h457l37 -204h-603zM464 1559q12 67 56 124t115.5 92t168.5 35q130 0 192.5 -60t62.5 -146q0 -11 -1 -22t-3 -23h-164q2 15 2 27q0 47 -31 70.5
t-81 23.5q-56 0 -98.5 -30t-53.5 -91h-165z" />
    <glyph glyph-name="Amacron" unicode="&#x100;" horiz-adv-x="1169" 
d="M-79 0l709 1400h212l215 -1400h-228l-54 377l-32 172l-78 624l55 -9l-291 -613l-95 -176l-185 -375h-228zM246 361l109 204h457l37 -204h-603zM444 1586l26 143h635l-25 -143h-636z" />
    <glyph glyph-name="Aogonek" unicode="&#x104;" horiz-adv-x="1169" 
d="M-79 0l709 1400h212l215 -1400h-228l-54 377l-32 172l-78 624l55 -9l-291 -613l-95 -176l-185 -375h-228zM246 361l109 204h457l37 -204h-603zM954 10l103 -10q-47 -32 -91.5 -68.5t-73.5 -78t-29 -87.5q0 -74 74 -74q33 0 61 7.5t58 22.5l13 -103q-30 -15 -71.5 -26.5
t-94.5 -11.5q-73 0 -121 36.5t-48 102.5q0 86 67 162t153 128z" />
    <glyph glyph-name="Aring" unicode="&#xc5;" horiz-adv-x="1169" 
d="M-79 0l709 1400h212l215 -1400h-228l-54 377l-32 172l-78 624l55 -9l-291 -613l-95 -176l-185 -375h-228zM246 361l109 204h457l37 -204h-603zM758 1550q-85 0 -128.5 46t-43.5 111q0 66 33.5 120t89.5 86t123 32q85 0 128.5 -45.5t43.5 -111.5t-33 -120.5t-88.5 -86
t-124.5 -31.5zM775 1644q48 0 83 37t35 87q0 37 -22 59.5t-56 22.5q-47 0 -82 -37.5t-35 -87.5q0 -37 22 -59t55 -22z" />
    <glyph glyph-name="Aringacute" unicode="&#x1fa;" horiz-adv-x="1169" 
d="M-79 0l709 1400h212l215 -1400h-228l-54 377l-32 172l-78 624l55 -9l-291 -613l-95 -176l-185 -375h-228zM246 361l109 204h457l37 -204h-603zM755 1511q-87 0 -130.5 46.5t-43.5 113.5q0 64 32 116.5t85 83.5t116 31q87 0 130 -47.5t43 -113.5q0 -64 -31 -116t-84 -83
t-117 -31zM766 1606q47 0 79.5 36.5t31.5 82.5q0 37 -21 59t-54 22q-44 0 -78 -35.5t-34 -83.5q0 -38 22 -59.5t54 -21.5zM667 1962l19 137l361 190l-32 -211z" />
    <glyph glyph-name="Atilde" unicode="&#xc3;" horiz-adv-x="1169" 
d="M-79 0l709 1400h212l215 -1400h-228l-54 377l-32 172l-78 624l55 -9l-291 -613l-95 -176l-185 -375h-228zM246 361l109 204h457l37 -204h-603zM931 1570q-44 0 -90 22t-90 43.5t-81 21.5q-32 0 -52 -19t-27 -52h-149q22 113 75.5 172t133.5 59q47 0 90 -22t83.5 -43.5
t79.5 -21.5q32 0 51 19t25 58h153q-24 -123 -74 -180t-128 -57z" />
    <glyph glyph-name="AE" unicode="&#xc6;" horiz-adv-x="1623" 
d="M-107 0l879 1400h908l-37 -205h-655l115 96l-209 -1183l-81 96h673l-36 -204h-807l226 1286l35 -13l-788 -1273h-223zM250 351l137 211h388l-38 -211h-487zM914 629l36 204h502l-36 -204h-502z" />
    <glyph glyph-name="AEacute" unicode="&#x1fc;" horiz-adv-x="1623" 
d="M-107 0l879 1400h908l-37 -205h-655l115 96l-209 -1183l-81 96h673l-36 -204h-807l226 1286l35 -13l-788 -1273h-223zM250 351l137 211h388l-38 -211h-487zM914 629l36 204h502l-36 -204h-502zM1086 1524l19 137l361 190l-32 -211z" />
    <glyph glyph-name="B" unicode="B" horiz-adv-x="1173" 
d="M54 0l246 1400h359q92 0 168 -15t131 -50t85 -94t30 -148q0 -137 -70 -233t-185 -139l-14 47q133 -24 202 -102t69 -203q0 -114 -41.5 -201t-117 -145t-176 -87.5t-218.5 -29.5h-468zM345 826h269q104 0 170 60t66 165q0 56 -20 91t-59 51.5t-95 16.5h-191l-179 -1018
h213q89 0 161.5 28t116 85.5t43.5 143.5q0 94 -54 143.5t-162 49.5h-312z" />
    <glyph glyph-name="C" unicode="C" horiz-adv-x="1154" 
d="M623 -28q-164 0 -284 71t-185 205t-65 323q0 185 61.5 341.5t170.5 272t251.5 179.5t303.5 64q98 0 192.5 -23t157.5 -59l-61 -205q-65 28 -143.5 56t-175.5 28q-124 0 -220 -52.5t-162 -142.5t-100.5 -204t-34.5 -240q0 -121 35 -213.5t109 -145t193 -52.5
q88 0 174.5 26.5t168.5 56.5l-12 -205q-77 -35 -178.5 -58t-195.5 -23z" />
    <glyph glyph-name="Cacute" unicode="&#x106;" horiz-adv-x="1154" 
d="M623 -28q-164 0 -284 71t-185 205t-65 323q0 185 61.5 341.5t170.5 272t251.5 179.5t303.5 64q98 0 192.5 -23t157.5 -59l-61 -205q-65 28 -143.5 56t-175.5 28q-124 0 -220 -52.5t-162 -142.5t-100.5 -204t-34.5 -240q0 -121 35 -213.5t109 -145t193 -52.5
q88 0 174.5 26.5t168.5 56.5l-12 -205q-77 -35 -178.5 -58t-195.5 -23zM758 1524l19 137l361 190l-32 -211z" />
    <glyph glyph-name="Ccaron" unicode="&#x10c;" horiz-adv-x="1154" 
d="M623 -28q-164 0 -284 71t-185 205t-65 323q0 185 61.5 341.5t170.5 272t251.5 179.5t303.5 64q98 0 192.5 -23t157.5 -59l-61 -205q-65 28 -143.5 56t-175.5 28q-124 0 -220 -52.5t-162 -142.5t-100.5 -204t-34.5 -240q0 -121 35 -213.5t109 -145t193 -52.5
q88 0 174.5 26.5t168.5 56.5l-12 -205q-77 -35 -178.5 -58t-195.5 -23zM909 1500l-226 181l22 129l233 -138l243 136l-23 -147z" />
    <glyph glyph-name="Ccedilla" unicode="&#xc7;" horiz-adv-x="1154" 
d="M623 -28q-164 0 -284 71t-185 205t-65 323q0 185 61.5 341.5t170.5 272t251.5 179.5t303.5 64q98 0 192.5 -23t157.5 -59l-61 -205q-65 28 -143.5 56t-175.5 28q-124 0 -220 -52.5t-162 -142.5t-100.5 -204t-34.5 -240q0 -121 35 -213.5t109 -145t193 -52.5
q88 0 174.5 26.5t168.5 56.5l-12 -205q-77 -35 -178.5 -58t-195.5 -23zM619 -158l-66 30q27 9 51.5 14.5t52.5 5.5q71 0 111.5 -36t40.5 -101q0 -96 -73.5 -157t-181.5 -61q-52 0 -89.5 11.5t-64.5 26.5l53 106q28 -15 57.5 -24.5t64.5 -9.5q52 0 81 24t29 59q0 65 -89 65
q-23 0 -46.5 -3.5t-51.5 -11.5l93 220h105z" />
    <glyph glyph-name="uni1E08" unicode="&#x1e08;" horiz-adv-x="1154" 
d="M623 -28q-164 0 -284 71t-185 205t-65 323q0 185 61.5 341.5t170.5 272t251.5 179.5t303.5 64q98 0 192.5 -23t157.5 -59l-61 -205q-65 28 -143.5 56t-175.5 28q-124 0 -220 -52.5t-162 -142.5t-100.5 -204t-34.5 -240q0 -121 35 -213.5t109 -145t193 -52.5
q88 0 174.5 26.5t168.5 56.5l-12 -205q-77 -35 -178.5 -58t-195.5 -23zM619 -158l-66 30q27 9 51.5 14.5t52.5 5.5q71 0 111.5 -36t40.5 -101q0 -96 -73.5 -157t-181.5 -61q-52 0 -89.5 11.5t-64.5 26.5l53 106q28 -15 57.5 -24.5t64.5 -9.5q52 0 81 24t29 59q0 65 -89 65
q-23 0 -46.5 -3.5t-51.5 -11.5l93 220h105zM758 1524l19 137l361 190l-32 -211z" />
    <glyph glyph-name="Ccircumflex" unicode="&#x108;" horiz-adv-x="1154" 
d="M623 -28q-164 0 -284 71t-185 205t-65 323q0 185 61.5 341.5t170.5 272t251.5 179.5t303.5 64q98 0 192.5 -23t157.5 -59l-61 -205q-65 28 -143.5 56t-175.5 28q-124 0 -220 -52.5t-162 -142.5t-100.5 -204t-34.5 -240q0 -121 35 -213.5t109 -145t193 -52.5
q88 0 174.5 26.5t168.5 56.5l-12 -205q-77 -35 -178.5 -58t-195.5 -23zM1175 1500l-235 137l-236 -113l23 133l245 157l225 -181z" />
    <glyph glyph-name="Cdotaccent" unicode="&#x10a;" horiz-adv-x="1154" 
d="M623 -28q-164 0 -284 71t-185 205t-65 323q0 185 61.5 341.5t170.5 272t251.5 179.5t303.5 64q98 0 192.5 -23t157.5 -59l-61 -205q-65 28 -143.5 56t-175.5 28q-124 0 -220 -52.5t-162 -142.5t-100.5 -204t-34.5 -240q0 -121 35 -213.5t109 -145t193 -52.5
q88 0 174.5 26.5t168.5 56.5l-12 -205q-77 -35 -178.5 -58t-195.5 -23zM833 1583l33 186h195l-33 -186h-195z" />
    <glyph glyph-name="D" unicode="D" horiz-adv-x="1369" 
d="M54 0l246 1400h484q161 0 281 -66t186 -195.5t66 -319.5q0 -182 -61 -332.5t-168 -259t-248 -168t-302 -59.5h-484zM291 107l-80 96h363q121 0 214.5 48t157.5 131.5t97 191.5t33 230q0 187 -81 290t-247 103h-363l115 96z" />
    <glyph glyph-name="uni01C4" unicode="&#x1c4;" horiz-adv-x="2373" 
d="M54 0l246 1400h484q161 0 281 -66t186 -195.5t66 -319.5q0 -182 -61 -332.5t-168 -259t-248 -168t-302 -59.5h-484zM291 107l-80 96h363q121 0 214.5 48t157.5 131.5t97 191.5t33 230q0 187 -81 290t-247 103h-363l115 96zM1263 0l893 1276l42 -80h-641l36 204h903
l-895 -1276l-41 80h641l-36 -204h-902zM2069 1529l-214 222l28 137l225 -163l278 163l-27 -161z" />
    <glyph glyph-name="Eth" unicode="&#xd0;" horiz-adv-x="1384" 
d="M72 0l246 1400h482q161 0 280 -67t185 -193t66 -302q0 -192 -60.5 -346.5t-167.5 -264.5t-247.5 -168.5t-302.5 -58.5h-481zM306 108l-81 97h364q163 0 275 81.5t170 220.5t58 313q0 171 -81 274t-247 103h-364l115 96zM46 625l30 174h613l-30 -174h-613z" />
    <glyph glyph-name="Dcaron" unicode="&#x10e;" horiz-adv-x="1369" 
d="M54 0l246 1400h484q161 0 281 -66t186 -195.5t66 -319.5q0 -182 -61 -332.5t-168 -259t-248 -168t-302 -59.5h-484zM291 107l-80 96h363q121 0 214.5 48t157.5 131.5t97 191.5t33 230q0 187 -81 290t-247 103h-363l115 96zM851 1500l-226 181l22 129l233 -138l243 136
l-23 -147z" />
    <glyph glyph-name="Dcroat" unicode="&#x110;" horiz-adv-x="1384" 
d="M72 0l246 1400h482q161 0 280 -67t185 -193t66 -302q0 -192 -60.5 -346.5t-167.5 -264.5t-247.5 -168.5t-302.5 -58.5h-481zM306 108l-81 97h364q163 0 275 81.5t170 220.5t58 313q0 171 -81 274t-247 103h-364l115 96zM46 625l30 174h613l-30 -174h-613z" />
    <glyph glyph-name="uni1E0C" unicode="&#x1e0c;" horiz-adv-x="1369" 
d="M54 0l246 1400h484q161 0 281 -66t186 -195.5t66 -319.5q0 -182 -61 -332.5t-168 -259t-248 -168t-302 -59.5h-484zM291 107l-80 96h363q121 0 214.5 48t157.5 131.5t97 191.5t33 230q0 187 -81 290t-247 103h-363l115 96zM527 -348l36 186h191l-36 -186h-191z" />
    <glyph glyph-name="uni1E0E" unicode="&#x1e0e;" horiz-adv-x="1369" 
d="M54 0l246 1400h484q161 0 281 -66t186 -195.5t66 -319.5q0 -182 -61 -332.5t-168 -259t-248 -168t-302 -59.5h-484zM291 107l-80 96h363q121 0 214.5 48t157.5 131.5t97 191.5t33 230q0 187 -81 290t-247 103h-363l115 96zM312 -332l29 150h631l-30 -150h-630z" />
    <glyph glyph-name="uni01C5" unicode="&#x1c5;" horiz-adv-x="2241" 
d="M54 0l246 1400h484q161 0 281 -66t186 -195.5t66 -319.5q0 -182 -61 -332.5t-168 -259t-248 -168t-302 -59.5h-484zM291 107l-80 96h363q121 0 214.5 48t157.5 131.5t97 191.5t33 230q0 187 -81 290t-247 103h-363l115 96zM1297 0l650 894l40 -79h-528l30 173h776
l-649 -894l-40 80h529l-32 -174h-776zM1902 1117l-214 222l28 137l225 -163l278 163l-27 -161z" />
    <glyph glyph-name="E" unicode="E" horiz-adv-x="1063" 
d="M295 108l-81 96h712l-36 -204h-836l246 1400h819l-36 -204h-694l115 96zM347 833h541l-36 -204h-541z" />
    <glyph glyph-name="Eacute" unicode="&#xc9;" horiz-adv-x="1063" 
d="M295 108l-81 96h712l-36 -204h-836l246 1400h819l-36 -204h-694l115 96zM347 833h541l-36 -204h-541zM567 1558l28 148l382 212l-36 -234z" />
    <glyph glyph-name="Ebreve" unicode="&#x114;" horiz-adv-x="1063" 
d="M295 108l-81 96h712l-36 -204h-836l246 1400h819l-36 -204h-694l115 96zM347 833h541l-36 -204h-541zM734 1529q-132 0 -196 61t-64 145q0 11 1.5 22.5t2.5 22.5h164q-1 -6 -2 -13.5t-1 -14.5q0 -46 32 -70t83 -24q57 0 101 31t54 91h166q-18 -111 -106 -181t-235 -70z
" />
    <glyph glyph-name="Ecaron" unicode="&#x11a;" horiz-adv-x="1063" 
d="M295 108l-81 96h712l-36 -204h-836l246 1400h819l-36 -204h-694l115 96zM347 833h541l-36 -204h-541zM720 1500l-226 181l22 129l233 -138l243 136l-23 -147z" />
    <glyph glyph-name="uni1E1C" unicode="&#x1e1c;" horiz-adv-x="1063" 
d="M295 108l-81 96h712l-36 -204h-836l246 1400h819l-36 -204h-694l115 96zM347 833h541l-36 -204h-541zM474 -158l-66 30q27 9 51.5 14.5t52.5 5.5q71 0 111.5 -36t40.5 -101q0 -96 -73.5 -157t-181.5 -61q-52 0 -89.5 11.5t-64.5 26.5l53 106q28 -15 57.5 -24.5t64.5 -9.5
q52 0 81 24t29 59q0 65 -89 65q-23 0 -46.5 -3.5t-51.5 -11.5l93 220h105zM734 1529q-132 0 -196 61t-64 145q0 11 1.5 22.5t2.5 22.5h164q-1 -6 -2 -13.5t-1 -14.5q0 -46 32 -70t83 -24q57 0 101 31t54 91h166q-18 -111 -106 -181t-235 -70z" />
    <glyph glyph-name="Ecircumflex" unicode="&#xca;" horiz-adv-x="1063" 
d="M295 108l-81 96h712l-36 -204h-836l246 1400h819l-36 -204h-694l115 96zM347 833h541l-36 -204h-541zM513 1553l32 143l259 194l215 -221l-28 -137l-225 162z" />
    <glyph glyph-name="uni1EBE" unicode="&#x1ebe;" horiz-adv-x="1063" 
d="M295 108l-81 96h712l-36 -204h-836l246 1400h819l-36 -204h-694l115 96zM347 833h541l-36 -204h-541zM987 1508l-235 137l-236 -113l23 133l245 158l225 -182zM901 1804l158 229h208l-226 -229h-140z" />
    <glyph glyph-name="uni1EC6" unicode="&#x1ec6;" horiz-adv-x="1063" 
d="M295 108l-81 96h712l-36 -204h-836l246 1400h819l-36 -204h-694l115 96zM347 833h541l-36 -204h-541zM986 1500l-235 137l-236 -113l23 133l245 157l225 -181zM335 -348l36 186h191l-36 -186h-191z" />
    <glyph glyph-name="uni1EC0" unicode="&#x1ec0;" horiz-adv-x="1063" 
d="M295 108l-81 96h712l-36 -204h-836l246 1400h819l-36 -204h-694l115 96zM347 833h541l-36 -204h-541zM986 1508l-235 137l-236 -113l23 133l245 158l225 -182zM907 1804l-128 243h200l66 -243h-138z" />
    <glyph glyph-name="uni1EC2" unicode="&#x1ec2;" horiz-adv-x="1063" 
d="M295 108l-81 96h712l-36 -204h-836l246 1400h819l-36 -204h-694l115 96zM347 833h541l-36 -204h-541zM986 1500l-235 137l-236 -113l23 133l245 157l225 -181zM939 1744l-5 84q84 24 84 81q0 53 -69 53q-29 0 -60.5 -9.5t-63.5 -24.5l-15 110q37 17 78.5 26t85.5 9
q73 0 121 -35t48 -100q0 -77 -55 -124.5t-149 -69.5z" />
    <glyph glyph-name="uni1EC4" unicode="&#x1ec4;" horiz-adv-x="1063" 
d="M295 108l-81 96h712l-36 -204h-836l246 1400h819l-36 -204h-694l115 96zM347 833h541l-36 -204h-541zM986 1500l-235 137l-236 -113l23 133l245 157l225 -181zM956 1872q-43 0 -90 19.5t-90.5 38.5t-77.5 19q-25 0 -44 -15.5t-24 -49.5h-139q18 100 67 152t124 52
q44 0 90 -19t89 -38.5t80 -19.5q57 0 67 67h140q-16 -102 -66 -154t-126 -52z" />
    <glyph glyph-name="uni0204" unicode="&#x204;" horiz-adv-x="1063" 
d="M295 108l-81 96h712l-36 -204h-836l246 1400h819l-36 -204h-694l115 96zM347 833h541l-36 -204h-541zM529 1576l-141 303h207l73 -303h-139zM811 1576l-128 303h206l61 -303h-139z" />
    <glyph glyph-name="Edieresis" unicode="&#xcb;" horiz-adv-x="1063" 
d="M295 108l-81 96h712l-36 -204h-836l246 1400h819l-36 -204h-694l115 96zM347 833h541l-36 -204h-541zM466 1594l33 168h177l-34 -168h-176zM848 1594l34 168h176l-33 -168h-177z" />
    <glyph glyph-name="Edotaccent" unicode="&#x116;" horiz-adv-x="1063" 
d="M295 108l-81 96h712l-36 -204h-836l246 1400h819l-36 -204h-694l115 96zM347 833h541l-36 -204h-541zM644 1583l33 186h195l-33 -186h-195z" />
    <glyph glyph-name="uni1EB8" unicode="&#x1eb8;" horiz-adv-x="1063" 
d="M295 108l-81 96h712l-36 -204h-836l246 1400h819l-36 -204h-694l115 96zM347 833h541l-36 -204h-541zM335 -348l36 186h191l-36 -186h-191z" />
    <glyph glyph-name="Egrave" unicode="&#xc8;" horiz-adv-x="1063" 
d="M295 108l-81 96h712l-36 -204h-836l246 1400h819l-36 -204h-694l115 96zM347 833h541l-36 -204h-541zM918 1559l-339 144l37 210l326 -217z" />
    <glyph glyph-name="uni1EBA" unicode="&#x1eba;" horiz-adv-x="1063" 
d="M295 108l-81 96h712l-36 -204h-836l246 1400h819l-36 -204h-694l115 96zM347 833h541l-36 -204h-541zM695 1539q47 37 81 70.5t34 76.5q0 54 -66 54q-31 0 -64 -10.5t-67 -26.5l-14 109q39 17 80.5 27t86.5 10q71 0 119.5 -35.5t48.5 -101.5q0 -80 -52.5 -136.5
t-128.5 -105.5z" />
    <glyph glyph-name="uni0206" unicode="&#x206;" horiz-adv-x="1063" 
d="M295 108l-81 96h712l-36 -204h-836l246 1400h819l-36 -204h-694l115 96zM347 833h541l-36 -204h-541zM442 1559q12 67 56 124t115.5 92t168.5 35q130 0 192.5 -60t62.5 -146q0 -11 -1 -22t-3 -23h-164q2 15 2 27q0 47 -31 70.5t-81 23.5q-56 0 -98.5 -30t-53.5 -91h-165z
" />
    <glyph glyph-name="Emacron" unicode="&#x112;" horiz-adv-x="1063" 
d="M295 108l-81 96h712l-36 -204h-836l246 1400h819l-36 -204h-694l115 96zM347 833h541l-36 -204h-541zM423 1586l26 143h635l-25 -143h-636z" />
    <glyph glyph-name="uni1E16" unicode="&#x1e16;" horiz-adv-x="1063" 
d="M295 108l-81 96h712l-36 -204h-836l246 1400h819l-36 -204h-694l115 96zM347 833h541l-36 -204h-541zM423 1586l26 143h635l-25 -143h-636zM638 1843l19 137l361 190l-32 -211z" />
    <glyph glyph-name="uni1E14" unicode="&#x1e14;" horiz-adv-x="1063" 
d="M295 108l-81 96h712l-36 -204h-836l246 1400h819l-36 -204h-694l115 96zM347 833h541l-36 -204h-541zM423 1586l26 143h635l-25 -143h-636zM979 1843l-341 116l37 199l329 -190z" />
    <glyph glyph-name="Eogonek" unicode="&#x118;" horiz-adv-x="1063" 
d="M295 108l-81 96h712l-36 -204h-836l246 1400h819l-36 -204h-694l115 96zM347 833h541l-36 -204h-541zM786 10l103 -10q-47 -32 -91.5 -68.5t-73.5 -78t-29 -87.5q0 -74 74 -74q33 0 61 7.5t58 22.5l13 -103q-30 -15 -71.5 -26.5t-94.5 -11.5q-73 0 -121 36.5t-48 102.5
q0 86 67 162t153 128z" />
    <glyph glyph-name="uni1EBC" unicode="&#x1ebc;" horiz-adv-x="1063" 
d="M295 108l-81 96h712l-36 -204h-836l246 1400h819l-36 -204h-694l115 96zM347 833h541l-36 -204h-541zM910 1570q-44 0 -90 22t-90 43.5t-81 21.5q-32 0 -52 -19t-27 -52h-149q22 113 75.5 172t133.5 59q47 0 90 -22t83.5 -43.5t79.5 -21.5q32 0 51 19t25 58h153
q-24 -123 -74 -180t-128 -57z" />
    <glyph glyph-name="F" unicode="F" horiz-adv-x="996" 
d="M272 0h-218l246 1400h797l-36 -204h-676l116 96zM347 833h518l-36 -204h-518z" />
    <glyph glyph-name="G" unicode="G" horiz-adv-x="1263" 
d="M643 -28q-160 0 -285.5 72t-196.5 206.5t-71 322.5q0 184 61 340t169.5 271.5t251 179.5t304.5 64q66 0 136.5 -10.5t134 -28.5t107.5 -42l-58 -199q-72 31 -165 54t-180 23q-130 0 -227.5 -54t-163 -145t-98 -203.5t-32.5 -230.5q0 -189 86.5 -303t266.5 -114
q53 0 124.5 13t139.5 44l-86 -122l88 499l81 -96h-260l33 189h380l-110 -624q-79 -43 -186.5 -74.5t-243.5 -31.5z" />
    <glyph glyph-name="Gbreve" unicode="&#x11e;" horiz-adv-x="1263" 
d="M643 -28q-160 0 -285.5 72t-196.5 206.5t-71 322.5q0 184 61 340t169.5 271.5t251 179.5t304.5 64q66 0 136.5 -10.5t134 -28.5t107.5 -42l-58 -199q-72 31 -165 54t-180 23q-130 0 -227.5 -54t-163 -145t-98 -203.5t-32.5 -230.5q0 -189 86.5 -303t266.5 -114
q53 0 124.5 13t139.5 44l-86 -122l88 499l81 -96h-260l33 189h380l-110 -624q-79 -43 -186.5 -74.5t-243.5 -31.5zM894 1529q-132 0 -196 61t-64 145q0 11 1.5 22.5t2.5 22.5h164q-1 -6 -2 -13.5t-1 -14.5q0 -46 32 -70t83 -24q57 0 101 31t54 91h166q-18 -111 -106 -181
t-235 -70z" />
    <glyph glyph-name="Gcaron" unicode="&#x1e6;" horiz-adv-x="1263" 
d="M643 -28q-160 0 -285.5 72t-196.5 206.5t-71 322.5q0 184 61 340t169.5 271.5t251 179.5t304.5 64q66 0 136.5 -10.5t134 -28.5t107.5 -42l-58 -199q-72 31 -165 54t-180 23q-130 0 -227.5 -54t-163 -145t-98 -203.5t-32.5 -230.5q0 -189 86.5 -303t266.5 -114
q53 0 124.5 13t139.5 44l-86 -122l88 499l81 -96h-260l33 189h380l-110 -624q-79 -43 -186.5 -74.5t-243.5 -31.5zM880 1500l-226 181l22 129l233 -138l243 136l-23 -147z" />
    <glyph glyph-name="Gcircumflex" unicode="&#x11c;" horiz-adv-x="1263" 
d="M643 -28q-160 0 -285.5 72t-196.5 206.5t-71 322.5q0 184 61 340t169.5 271.5t251 179.5t304.5 64q66 0 136.5 -10.5t134 -28.5t107.5 -42l-58 -199q-72 31 -165 54t-180 23q-130 0 -227.5 -54t-163 -145t-98 -203.5t-32.5 -230.5q0 -189 86.5 -303t266.5 -114
q53 0 124.5 13t139.5 44l-86 -122l88 499l81 -96h-260l33 189h380l-110 -624q-79 -43 -186.5 -74.5t-243.5 -31.5zM1145 1500l-235 137l-236 -113l23 133l245 157l225 -181z" />
    <glyph glyph-name="uni0122" unicode="&#x122;" horiz-adv-x="1263" 
d="M643 -28q-160 0 -285.5 72t-196.5 206.5t-71 322.5q0 184 61 340t169.5 271.5t251 179.5t304.5 64q66 0 136.5 -10.5t134 -28.5t107.5 -42l-58 -199q-72 31 -165 54t-180 23q-130 0 -227.5 -54t-163 -145t-98 -203.5t-32.5 -230.5q0 -189 86.5 -303t266.5 -114
q53 0 124.5 13t139.5 44l-86 -122l88 499l81 -96h-260l33 189h380l-110 -624q-79 -43 -186.5 -74.5t-243.5 -31.5zM536 -537h-79l93 174h-74l31 181h199l-32 -181z" />
    <glyph glyph-name="Gdotaccent" unicode="&#x120;" horiz-adv-x="1263" 
d="M643 -28q-160 0 -285.5 72t-196.5 206.5t-71 322.5q0 184 61 340t169.5 271.5t251 179.5t304.5 64q66 0 136.5 -10.5t134 -28.5t107.5 -42l-58 -199q-72 31 -165 54t-180 23q-130 0 -227.5 -54t-163 -145t-98 -203.5t-32.5 -230.5q0 -189 86.5 -303t266.5 -114
q53 0 124.5 13t139.5 44l-86 -122l88 499l81 -96h-260l33 189h380l-110 -624q-79 -43 -186.5 -74.5t-243.5 -31.5zM803 1583l33 186h195l-33 -186h-195z" />
    <glyph glyph-name="uni1E20" unicode="&#x1e20;" horiz-adv-x="1263" 
d="M643 -28q-160 0 -285.5 72t-196.5 206.5t-71 322.5q0 184 61 340t169.5 271.5t251 179.5t304.5 64q66 0 136.5 -10.5t134 -28.5t107.5 -42l-58 -199q-72 31 -165 54t-180 23q-130 0 -227.5 -54t-163 -145t-98 -203.5t-32.5 -230.5q0 -189 86.5 -303t266.5 -114
q53 0 124.5 13t139.5 44l-86 -122l88 499l81 -96h-260l33 189h380l-110 -624q-79 -43 -186.5 -74.5t-243.5 -31.5zM582 1586l26 143h635l-25 -143h-636z" />
    <glyph glyph-name="H" unicode="H" horiz-adv-x="1401" 
d="M54 0l246 1400h218l-246 -1400h-218zM921 0l247 1400h218l-247 -1400h-218zM290 627l36 209h847l-37 -209h-846z" />
    <glyph glyph-name="Hbar" unicode="&#x126;" horiz-adv-x="1407" 
d="M113 991l24 148h1319l-26 -148h-1317zM54 0l246 1400h218l-246 -1400h-218zM921 0l247 1400h218l-247 -1400h-218zM290 627l36 209h847l-37 -209h-846z" />
    <glyph glyph-name="uni1E2A" unicode="&#x1e2a;" horiz-adv-x="1401" 
d="M54 0l246 1400h218l-246 -1400h-218zM921 0l247 1400h218l-247 -1400h-218zM290 627l36 209h847l-37 -209h-846zM530 -447q-128 0 -192 62t-64 149q0 14 1.5 27.5t5.5 26.5h157q-2 -7 -3.5 -16t-1.5 -18q0 -44 30 -67.5t81 -23.5q57 0 99.5 32t53.5 93h172
q-22 -114 -107.5 -189.5t-231.5 -75.5z" />
    <glyph glyph-name="Hcircumflex" unicode="&#x124;" horiz-adv-x="1401" 
d="M54 0l246 1400h218l-246 -1400h-218zM921 0l247 1400h218l-247 -1400h-218zM290 627l36 209h847l-37 -209h-846zM1120 1500l-235 137l-236 -113l23 133l245 157l225 -181z" />
    <glyph glyph-name="uni1E24" unicode="&#x1e24;" horiz-adv-x="1401" 
d="M54 0l246 1400h218l-246 -1400h-218zM921 0l247 1400h218l-247 -1400h-218zM290 627l36 209h847l-37 -209h-846zM440 -348l36 186h191l-36 -186h-191z" />
    <glyph glyph-name="I" unicode="I" horiz-adv-x="534" 
d="M54 0l246 1400h218l-246 -1400h-218z" />
    <glyph glyph-name="IJ" unicode="&#x132;" horiz-adv-x="1359" 
d="M572 -28q-222 0 -330.5 113t-113.5 313l228 53q3 -80 27 -142.5t78 -98t146 -35.5q105 0 176.5 45t117.5 119.5t72.5 165t42.5 181.5l126 714h218l-142 -803q-33 -190 -115.5 -330.5t-215 -217.5t-315.5 -77zM144 592l143 808h218l-127 -714q-4 -23 -7.5 -47t-6.5 -47
h-220z" />
    <glyph glyph-name="Iacute" unicode="&#xcd;" horiz-adv-x="534" 
d="M54 0l246 1400h218l-246 -1400h-218zM268 1558l28 148l382 212l-36 -234z" />
    <glyph glyph-name="Ibreve" unicode="&#x12c;" horiz-adv-x="534" 
d="M54 0l246 1400h218l-246 -1400h-218zM436 1529q-132 0 -196 61t-64 145q0 11 1.5 22.5t2.5 22.5h164q-1 -6 -2 -13.5t-1 -14.5q0 -46 32 -70t83 -24q57 0 101 31t54 91h166q-18 -111 -106 -181t-235 -70z" />
    <glyph glyph-name="Icircumflex" unicode="&#xce;" horiz-adv-x="534" 
d="M54 0l246 1400h218l-246 -1400h-218zM215 1553l32 143l259 194l215 -221l-28 -137l-225 162z" />
    <glyph glyph-name="uni0208" unicode="&#x208;" horiz-adv-x="534" 
d="M54 0l246 1400h218l-246 -1400h-218zM230 1576l-141 303h207l73 -303h-139zM512 1576l-128 303h206l61 -303h-139z" />
    <glyph glyph-name="Idieresis" unicode="&#xcf;" horiz-adv-x="534" 
d="M54 0l246 1400h218l-246 -1400h-218zM168 1594l33 168h177l-34 -168h-176zM550 1594l34 168h176l-33 -168h-177z" />
    <glyph glyph-name="uni1E2E" unicode="&#x1e2e;" horiz-adv-x="534" 
d="M54 0l246 1400h218l-246 -1400h-218zM542 1579l30 159h176l-30 -159h-176zM164 1579l30 159h176l-30 -159h-176zM325 1836l19 137l361 190l-32 -211z" />
    <glyph glyph-name="Idotaccent" unicode="&#x130;" horiz-adv-x="534" 
d="M54 0l246 1400h218l-246 -1400h-218zM345 1583l33 186h195l-33 -186h-195z" />
    <glyph glyph-name="uni1ECA" unicode="&#x1eca;" horiz-adv-x="534" 
d="M54 0l246 1400h218l-246 -1400h-218zM6 -348l36 186h191l-36 -186h-191z" />
    <glyph glyph-name="Igrave" unicode="&#xcc;" horiz-adv-x="534" 
d="M54 0l246 1400h218l-246 -1400h-218zM619 1559l-339 144l37 210l326 -217z" />
    <glyph glyph-name="uni1EC8" unicode="&#x1ec8;" horiz-adv-x="534" 
d="M54 0l246 1400h218l-246 -1400h-218zM396 1539q47 37 81 70.5t34 76.5q0 54 -66 54q-31 0 -64 -10.5t-67 -26.5l-14 109q39 17 80.5 27t86.5 10q71 0 119.5 -35.5t48.5 -101.5q0 -80 -52.5 -136.5t-128.5 -105.5z" />
    <glyph glyph-name="uni020A" unicode="&#x20a;" horiz-adv-x="534" 
d="M54 0l246 1400h218l-246 -1400h-218zM144 1559q12 67 56 124t115.5 92t168.5 35q130 0 192.5 -60t62.5 -146q0 -11 -1 -22t-3 -23h-164q2 15 2 27q0 47 -31 70.5t-81 23.5q-56 0 -98.5 -30t-53.5 -91h-165z" />
    <glyph glyph-name="Imacron" unicode="&#x12a;" horiz-adv-x="534" 
d="M54 0l246 1400h218l-246 -1400h-218zM124 1586l26 143h635l-25 -143h-636z" />
    <glyph glyph-name="Iogonek" unicode="&#x12e;" horiz-adv-x="534" 
d="M54 0l246 1400h218l-246 -1400h-218zM169 10l103 -10q-47 -32 -91.5 -68.5t-73.5 -78t-29 -87.5q0 -74 74 -74q33 0 61 7.5t58 22.5l13 -103q-30 -15 -71.5 -26.5t-94.5 -11.5q-73 0 -121 36.5t-48 102.5q0 86 67 162t153 128z" />
    <glyph glyph-name="Itilde" unicode="&#x128;" horiz-adv-x="534" 
d="M54 0l246 1400h218l-246 -1400h-218zM611 1570q-44 0 -90 22t-90 43.5t-81 21.5q-32 0 -52 -19t-27 -52h-149q22 113 75.5 172t133.5 59q47 0 90 -22t83.5 -43.5t79.5 -21.5q32 0 51 19t25 58h153q-24 -123 -74 -180t-128 -57z" />
    <glyph glyph-name="J" unicode="J" horiz-adv-x="535" 
d="M-147 -344l8 146h36q44 0 74 18t50 61t33 119l247 1400h218l-257 -1457q-25 -142 -117 -214.5t-235 -72.5h-57z" />
    <glyph glyph-name="Jcircumflex" unicode="&#x134;" horiz-adv-x="535" 
d="M-147 -344l8 146h36q44 0 74 18t50 61t33 119l247 1400h218l-257 -1457q-25 -142 -117 -214.5t-235 -72.5h-57zM688 1500l-235 137l-236 -113l23 133l245 157l225 -181z" />
    <glyph glyph-name="K" unicode="K" horiz-adv-x="1144" 
d="M782 0l-362 741l571 659h263l-665 -731l23 160l414 -829h-244zM54 0l246 1400h218l-246 -1400h-218z" />
    <glyph glyph-name="uni0136" unicode="&#x136;" horiz-adv-x="1144" 
d="M782 0l-362 741l571 659h263l-665 -731l23 160l414 -829h-244zM54 0l246 1400h218l-246 -1400h-218zM430 -537h-79l93 174h-74l31 181h199l-32 -181z" />
    <glyph glyph-name="L" unicode="L" horiz-adv-x="954" 
d="M54 0l246 1400h218l-227 -1292l-80 96h650l-37 -204h-770z" />
    <glyph glyph-name="uni01C7" unicode="&#x1c7;" horiz-adv-x="1488" 
d="M54 0l246 1400h218l-227 -1292l-80 96h650l-37 -204h-770zM807 -344l8 146h36q44 0 74 18t50 61t33 119l247 1400h218l-257 -1457q-25 -142 -117 -214.5t-235 -72.5h-57z" />
    <glyph glyph-name="Lacute" unicode="&#x139;" horiz-adv-x="954" 
d="M54 0l246 1400h218l-227 -1292l-80 96h650l-37 -204h-770zM270 1524l19 137l361 190l-32 -211z" />
    <glyph glyph-name="Lcaron" unicode="&#x13d;" horiz-adv-x="954" 
d="M54 0l246 1400h218l-227 -1292l-80 96h650l-37 -204h-770zM862 1058l62 342h189l-118 -342h-133z" />
    <glyph glyph-name="uni013B" unicode="&#x13b;" horiz-adv-x="954" 
d="M54 0l246 1400h218l-227 -1292l-80 96h650l-37 -204h-770zM381 -537h-79l93 174h-74l31 181h199l-32 -181z" />
    <glyph glyph-name="Ldot" unicode="&#x13f;" horiz-adv-x="954" 
d="M54 0l246 1400h218l-227 -1292l-80 96h650l-37 -204h-770zM629 661l39 228h215l-40 -228h-214z" />
    <glyph glyph-name="uni1E36" unicode="&#x1e36;" horiz-adv-x="954" 
d="M54 0l246 1400h218l-227 -1292l-80 96h650l-37 -204h-770zM320 -348l36 186h191l-36 -186h-191z" />
    <glyph glyph-name="uni01C8" unicode="&#x1c8;" horiz-adv-x="1406" 
d="M54 0l246 1400h218l-227 -1292l-80 96h650l-37 -204h-770zM788 -484l10 166q56 5 83.5 21t41 54t25.5 108l198 1123h210l-213 -1205q-21 -115 -89.5 -183t-189.5 -78zM1180 1180l39 220h210l-39 -220h-210z" />
    <glyph glyph-name="uni1E3A" unicode="&#x1e3a;" horiz-adv-x="954" 
d="M54 0l246 1400h218l-227 -1292l-80 96h650l-37 -204h-770zM105 -332l29 150h631l-30 -150h-630z" />
    <glyph glyph-name="Lslash" unicode="&#x141;" horiz-adv-x="954" 
d="M37 673l31 169l757 285l-30 -169zM54 0l246 1400h218l-227 -1292l-80 96h650l-37 -204h-770z" />
    <glyph glyph-name="M" unicode="M" horiz-adv-x="1552" 
d="M-10 0l425 1400h193l219 -765l-80 12l482 753h192l-68 -1400h-228l69 1086l49 -17l-515 -753l-254 766l59 1l-315 -1083h-228z" />
    <glyph glyph-name="uni1E42" unicode="&#x1e42;" horiz-adv-x="1552" 
d="M-10 0l425 1400h193l219 -765l-80 12l482 753h192l-68 -1400h-228l69 1086l49 -17l-515 -753l-254 766l59 1l-315 -1083h-228zM514 -348l36 186h191l-36 -186h-191z" />
    <glyph glyph-name="N" unicode="N" horiz-adv-x="1336" 
d="M54 0l246 1400h222l443 -1078l-55 -5l191 1083h219l-248 -1400h-180l-473 1134l55 6l-202 -1140h-218z" />
    <glyph glyph-name="uni01CA" unicode="&#x1ca;" horiz-adv-x="1871" 
d="M54 0l246 1400h222l443 -1078l-55 -5l191 1083h219l-248 -1400h-180l-473 1134l55 6l-202 -1140h-218zM1189 -344l8 146h36q44 0 74 18t50 61t33 119l247 1400h218l-257 -1457q-25 -142 -117 -214.5t-235 -72.5h-57z" />
    <glyph glyph-name="Nacute" unicode="&#x143;" horiz-adv-x="1336" 
d="M54 0l246 1400h222l443 -1078l-55 -5l191 1083h219l-248 -1400h-180l-473 1134l55 6l-202 -1140h-218zM672 1524l19 137l361 190l-32 -211z" />
    <glyph glyph-name="Ncaron" unicode="&#x147;" horiz-adv-x="1336" 
d="M54 0l246 1400h222l443 -1078l-55 -5l191 1083h219l-248 -1400h-180l-473 1134l55 6l-202 -1140h-218zM823 1500l-226 181l22 129l233 -138l243 136l-23 -147z" />
    <glyph glyph-name="uni0145" unicode="&#x145;" horiz-adv-x="1336" 
d="M54 0l246 1400h222l443 -1078l-55 -5l191 1083h219l-248 -1400h-180l-473 1134l55 6l-202 -1140h-218zM486 -537h-79l93 174h-74l31 181h199l-32 -181z" />
    <glyph glyph-name="uni1E44" unicode="&#x1e44;" horiz-adv-x="1336" 
d="M54 0l246 1400h222l443 -1078l-55 -5l191 1083h219l-248 -1400h-180l-473 1134l55 6l-202 -1140h-218zM747 1583l33 186h195l-33 -186h-195z" />
    <glyph glyph-name="uni1E46" unicode="&#x1e46;" horiz-adv-x="1336" 
d="M54 0l246 1400h222l443 -1078l-55 -5l191 1083h219l-248 -1400h-180l-473 1134l55 6l-202 -1140h-218zM425 -348l36 186h191l-36 -186h-191z" />
    <glyph glyph-name="Eng" unicode="&#x14a;" horiz-adv-x="1368" 
d="M476 1084l-192 -1084h-218l248 1400h185zM474 1250q97 88 206.5 133t229.5 45q126 0 210 -51t126 -141.5t42 -208.5q0 -35 -4 -70t-10 -73l-141 -806q-27 -158 -100.5 -261t-178.5 -153.5t-231 -50.5q-116 0 -216 41l60 196q43 -16 88 -25t92 -9q101 0 172.5 62t94.5 194
l137 784q6 31 8 57.5t2 49.5q0 126 -62.5 194t-186.5 68q-111 0 -199.5 -49t-149.5 -119z" />
    <glyph glyph-name="uni01CB" unicode="&#x1cb;" horiz-adv-x="1768" 
d="M54 0l246 1400h222l443 -1078l-55 -5l191 1083h219l-248 -1400h-180l-473 1134l55 6l-202 -1140h-218zM1150 -484l10 166q56 5 83.5 21t41 54t25.5 108l198 1123h210l-213 -1205q-21 -115 -89.5 -183t-189.5 -78zM1542 1180l39 220h210l-39 -220h-210z" />
    <glyph glyph-name="uni1E48" unicode="&#x1e48;" horiz-adv-x="1336" 
d="M54 0l246 1400h222l443 -1078l-55 -5l191 1083h219l-248 -1400h-180l-473 1134l55 6l-202 -1140h-218zM210 -332l29 150h631l-30 -150h-630z" />
    <glyph glyph-name="Ntilde" unicode="&#xd1;" horiz-adv-x="1336" 
d="M54 0l246 1400h222l443 -1078l-55 -5l191 1083h219l-248 -1400h-180l-473 1134l55 6l-202 -1140h-218zM997 1567q-44 0 -90.5 19.5t-90 38.5t-78.5 19q-25 0 -44 -15.5t-23 -49.5h-139q18 100 67 152t124 52q44 0 89.5 -19t89 -38.5t80.5 -19.5q26 0 44 17.5t23 49.5h139
q-15 -102 -65.5 -154t-125.5 -52z" />
    <glyph glyph-name="O" unicode="O" horiz-adv-x="1447" 
d="M621 -28q-163 0 -283 71t-184.5 204.5t-64.5 320.5q0 185 61 342t169 273t248 180.5t298 64.5q163 0 282.5 -71t184.5 -204.5t65 -320.5q0 -185 -61.5 -342t-169 -273t-247.5 -180.5t-298 -64.5zM657 175q116 0 208.5 53t157.5 143.5t99.5 205.5t34.5 239
q0 120 -34.5 212.5t-107 144.5t-187.5 52q-116 0 -208.5 -53t-157 -143.5t-99 -205t-34.5 -239.5q0 -119 34.5 -211.5t106.5 -145t187 -52.5z" />
    <glyph glyph-name="Oacute" unicode="&#xd3;" horiz-adv-x="1447" 
d="M621 -28q-163 0 -283 71t-184.5 204.5t-64.5 320.5q0 185 61 342t169 273t248 180.5t298 64.5q163 0 282.5 -71t184.5 -204.5t65 -320.5q0 -185 -61.5 -342t-169 -273t-247.5 -180.5t-298 -64.5zM657 175q116 0 208.5 53t157.5 143.5t99.5 205.5t34.5 239
q0 120 -34.5 212.5t-107 144.5t-187.5 52q-116 0 -208.5 -53t-157 -143.5t-99 -205t-34.5 -239.5q0 -119 34.5 -211.5t106.5 -145t187 -52.5zM728 1558l28 148l382 212l-36 -234z" />
    <glyph glyph-name="Obreve" unicode="&#x14e;" horiz-adv-x="1447" 
d="M621 -28q-163 0 -283 71t-184.5 204.5t-64.5 320.5q0 185 61 342t169 273t248 180.5t298 64.5q163 0 282.5 -71t184.5 -204.5t65 -320.5q0 -185 -61.5 -342t-169 -273t-247.5 -180.5t-298 -64.5zM657 175q116 0 208.5 53t157.5 143.5t99.5 205.5t34.5 239
q0 120 -34.5 212.5t-107 144.5t-187.5 52q-116 0 -208.5 -53t-157 -143.5t-99 -205t-34.5 -239.5q0 -119 34.5 -211.5t106.5 -145t187 -52.5zM895 1529q-132 0 -196 61t-64 145q0 11 1.5 22.5t2.5 22.5h164q-1 -6 -2 -13.5t-1 -14.5q0 -46 32 -70t83 -24q57 0 101 31t54 91
h166q-18 -111 -106 -181t-235 -70z" />
    <glyph glyph-name="Ocircumflex" unicode="&#xd4;" horiz-adv-x="1447" 
d="M621 -28q-163 0 -283 71t-184.5 204.5t-64.5 320.5q0 185 61 342t169 273t248 180.5t298 64.5q163 0 282.5 -71t184.5 -204.5t65 -320.5q0 -185 -61.5 -342t-169 -273t-247.5 -180.5t-298 -64.5zM657 175q116 0 208.5 53t157.5 143.5t99.5 205.5t34.5 239
q0 120 -34.5 212.5t-107 144.5t-187.5 52q-116 0 -208.5 -53t-157 -143.5t-99 -205t-34.5 -239.5q0 -119 34.5 -211.5t106.5 -145t187 -52.5zM675 1553l32 143l259 194l215 -221l-28 -137l-225 162z" />
    <glyph glyph-name="uni1ED0" unicode="&#x1ed0;" horiz-adv-x="1447" 
d="M621 -28q-163 0 -283 71t-184.5 204.5t-64.5 320.5q0 185 61 342t169 273t248 180.5t298 64.5q163 0 282.5 -71t184.5 -204.5t65 -320.5q0 -185 -61.5 -342t-169 -273t-247.5 -180.5t-298 -64.5zM657 175q116 0 208.5 53t157.5 143.5t99.5 205.5t34.5 239
q0 120 -34.5 212.5t-107 144.5t-187.5 52q-116 0 -208.5 -53t-157 -143.5t-99 -205t-34.5 -239.5q0 -119 34.5 -211.5t106.5 -145t187 -52.5zM1148 1508l-235 137l-236 -113l23 133l245 158l225 -182zM1062 1804l158 229h208l-226 -229h-140z" />
    <glyph glyph-name="uni1ED8" unicode="&#x1ed8;" horiz-adv-x="1447" 
d="M621 -28q-163 0 -283 71t-184.5 204.5t-64.5 320.5q0 185 61 342t169 273t248 180.5t298 64.5q163 0 282.5 -71t184.5 -204.5t65 -320.5q0 -185 -61.5 -342t-169 -273t-247.5 -180.5t-298 -64.5zM657 175q116 0 208.5 53t157.5 143.5t99.5 205.5t34.5 239
q0 120 -34.5 212.5t-107 144.5t-187.5 52q-116 0 -208.5 -53t-157 -143.5t-99 -205t-34.5 -239.5q0 -119 34.5 -211.5t106.5 -145t187 -52.5zM1147 1500l-235 137l-236 -113l23 133l245 157l225 -181zM445 -348l36 186h191l-36 -186h-191z" />
    <glyph glyph-name="uni1ED2" unicode="&#x1ed2;" horiz-adv-x="1447" 
d="M621 -28q-163 0 -283 71t-184.5 204.5t-64.5 320.5q0 185 61 342t169 273t248 180.5t298 64.5q163 0 282.5 -71t184.5 -204.5t65 -320.5q0 -185 -61.5 -342t-169 -273t-247.5 -180.5t-298 -64.5zM657 175q116 0 208.5 53t157.5 143.5t99.5 205.5t34.5 239
q0 120 -34.5 212.5t-107 144.5t-187.5 52q-116 0 -208.5 -53t-157 -143.5t-99 -205t-34.5 -239.5q0 -119 34.5 -211.5t106.5 -145t187 -52.5zM1148 1508l-235 137l-236 -113l23 133l245 158l225 -182zM1069 1804l-128 243h200l66 -243h-138z" />
    <glyph glyph-name="uni1ED4" unicode="&#x1ed4;" horiz-adv-x="1447" 
d="M621 -28q-163 0 -283 71t-184.5 204.5t-64.5 320.5q0 185 61 342t169 273t248 180.5t298 64.5q163 0 282.5 -71t184.5 -204.5t65 -320.5q0 -185 -61.5 -342t-169 -273t-247.5 -180.5t-298 -64.5zM657 175q116 0 208.5 53t157.5 143.5t99.5 205.5t34.5 239
q0 120 -34.5 212.5t-107 144.5t-187.5 52q-116 0 -208.5 -53t-157 -143.5t-99 -205t-34.5 -239.5q0 -119 34.5 -211.5t106.5 -145t187 -52.5zM1147 1500l-235 137l-236 -113l23 133l245 157l225 -181zM1100 1744l-5 84q84 24 84 81q0 53 -69 53q-29 0 -60.5 -9.5
t-63.5 -24.5l-15 110q37 17 78.5 26t85.5 9q73 0 121 -35t48 -100q0 -77 -55 -124.5t-149 -69.5z" />
    <glyph glyph-name="uni1ED6" unicode="&#x1ed6;" horiz-adv-x="1447" 
d="M621 -28q-163 0 -283 71t-184.5 204.5t-64.5 320.5q0 185 61 342t169 273t248 180.5t298 64.5q163 0 282.5 -71t184.5 -204.5t65 -320.5q0 -185 -61.5 -342t-169 -273t-247.5 -180.5t-298 -64.5zM657 175q116 0 208.5 53t157.5 143.5t99.5 205.5t34.5 239
q0 120 -34.5 212.5t-107 144.5t-187.5 52q-116 0 -208.5 -53t-157 -143.5t-99 -205t-34.5 -239.5q0 -119 34.5 -211.5t106.5 -145t187 -52.5zM1147 1500l-235 137l-236 -113l23 133l245 157l225 -181zM1117 1872q-43 0 -90 19.5t-90.5 38.5t-77.5 19q-25 0 -44 -15.5
t-24 -49.5h-139q18 100 67 152t124 52q44 0 90 -19t89 -38.5t80 -19.5q57 0 67 67h140q-16 -102 -66 -154t-126 -52z" />
    <glyph glyph-name="uni020C" unicode="&#x20c;" horiz-adv-x="1447" 
d="M621 -28q-163 0 -283 71t-184.5 204.5t-64.5 320.5q0 185 61 342t169 273t248 180.5t298 64.5q163 0 282.5 -71t184.5 -204.5t65 -320.5q0 -185 -61.5 -342t-169 -273t-247.5 -180.5t-298 -64.5zM657 175q116 0 208.5 53t157.5 143.5t99.5 205.5t34.5 239
q0 120 -34.5 212.5t-107 144.5t-187.5 52q-116 0 -208.5 -53t-157 -143.5t-99 -205t-34.5 -239.5q0 -119 34.5 -211.5t106.5 -145t187 -52.5zM690 1576l-141 303h207l73 -303h-139zM972 1576l-128 303h206l61 -303h-139z" />
    <glyph glyph-name="Odieresis" unicode="&#xd6;" horiz-adv-x="1447" 
d="M621 -28q-163 0 -283 71t-184.5 204.5t-64.5 320.5q0 185 61 342t169 273t248 180.5t298 64.5q163 0 282.5 -71t184.5 -204.5t65 -320.5q0 -185 -61.5 -342t-169 -273t-247.5 -180.5t-298 -64.5zM657 175q116 0 208.5 53t157.5 143.5t99.5 205.5t34.5 239
q0 120 -34.5 212.5t-107 144.5t-187.5 52q-116 0 -208.5 -53t-157 -143.5t-99 -205t-34.5 -239.5q0 -119 34.5 -211.5t106.5 -145t187 -52.5zM627 1594l33 168h177l-34 -168h-176zM1009 1594l34 168h176l-33 -168h-177z" />
    <glyph glyph-name="uni022A" unicode="&#x22a;" horiz-adv-x="1447" 
d="M621 -28q-163 0 -283 71t-184.5 204.5t-64.5 320.5q0 185 61 342t169 273t248 180.5t298 64.5q163 0 282.5 -71t184.5 -204.5t65 -320.5q0 -185 -61.5 -342t-169 -273t-247.5 -180.5t-298 -64.5zM657 175q116 0 208.5 53t157.5 143.5t99.5 205.5t34.5 239
q0 120 -34.5 212.5t-107 144.5t-187.5 52q-116 0 -208.5 -53t-157 -143.5t-99 -205t-34.5 -239.5q0 -119 34.5 -211.5t106.5 -145t187 -52.5zM1001 1579l30 159h176l-30 -159h-176zM623 1579l30 159h176l-30 -159h-176zM638 1897l26 143h635l-25 -143h-636z" />
    <glyph glyph-name="uni0230" unicode="&#x230;" horiz-adv-x="1447" 
d="M621 -28q-163 0 -283 71t-184.5 204.5t-64.5 320.5q0 185 61 342t169 273t248 180.5t298 64.5q163 0 282.5 -71t184.5 -204.5t65 -320.5q0 -185 -61.5 -342t-169 -273t-247.5 -180.5t-298 -64.5zM657 175q116 0 208.5 53t157.5 143.5t99.5 205.5t34.5 239
q0 120 -34.5 212.5t-107 144.5t-187.5 52q-116 0 -208.5 -53t-157 -143.5t-99 -205t-34.5 -239.5q0 -119 34.5 -211.5t106.5 -145t187 -52.5zM805 1583l33 186h195l-33 -186h-195zM644 1929l26 143h635l-25 -143h-636z" />
    <glyph glyph-name="uni1ECC" unicode="&#x1ecc;" horiz-adv-x="1447" 
d="M621 -28q-163 0 -283 71t-184.5 204.5t-64.5 320.5q0 185 61 342t169 273t248 180.5t298 64.5q163 0 282.5 -71t184.5 -204.5t65 -320.5q0 -185 -61.5 -342t-169 -273t-247.5 -180.5t-298 -64.5zM657 175q116 0 208.5 53t157.5 143.5t99.5 205.5t34.5 239
q0 120 -34.5 212.5t-107 144.5t-187.5 52q-116 0 -208.5 -53t-157 -143.5t-99 -205t-34.5 -239.5q0 -119 34.5 -211.5t106.5 -145t187 -52.5zM445 -348l36 186h191l-36 -186h-191z" />
    <glyph glyph-name="Ograve" unicode="&#xd2;" horiz-adv-x="1447" 
d="M621 -28q-163 0 -283 71t-184.5 204.5t-64.5 320.5q0 185 61 342t169 273t248 180.5t298 64.5q163 0 282.5 -71t184.5 -204.5t65 -320.5q0 -185 -61.5 -342t-169 -273t-247.5 -180.5t-298 -64.5zM657 175q116 0 208.5 53t157.5 143.5t99.5 205.5t34.5 239
q0 120 -34.5 212.5t-107 144.5t-187.5 52q-116 0 -208.5 -53t-157 -143.5t-99 -205t-34.5 -239.5q0 -119 34.5 -211.5t106.5 -145t187 -52.5zM1079 1559l-339 144l37 210l326 -217z" />
    <glyph glyph-name="uni1ECE" unicode="&#x1ece;" horiz-adv-x="1447" 
d="M621 -28q-163 0 -283 71t-184.5 204.5t-64.5 320.5q0 185 61 342t169 273t248 180.5t298 64.5q163 0 282.5 -71t184.5 -204.5t65 -320.5q0 -185 -61.5 -342t-169 -273t-247.5 -180.5t-298 -64.5zM657 175q116 0 208.5 53t157.5 143.5t99.5 205.5t34.5 239
q0 120 -34.5 212.5t-107 144.5t-187.5 52q-116 0 -208.5 -53t-157 -143.5t-99 -205t-34.5 -239.5q0 -119 34.5 -211.5t106.5 -145t187 -52.5zM856 1539q47 37 81 70.5t34 76.5q0 54 -66 54q-31 0 -64 -10.5t-67 -26.5l-14 109q39 17 80.5 27t86.5 10q71 0 119.5 -35.5
t48.5 -101.5q0 -80 -52.5 -136.5t-128.5 -105.5z" />
    <glyph glyph-name="Ohorn" unicode="&#x1a0;" horiz-adv-x="1447" 
d="M621 -28q-163 0 -283 71t-184.5 204.5t-64.5 320.5q0 185 61 342t169 273t248 180.5t298 64.5q163 0 282.5 -71t184.5 -204.5t65 -320.5q0 -185 -61.5 -342t-169 -273t-247.5 -180.5t-298 -64.5zM657 175q116 0 208.5 53t157.5 143.5t99.5 205.5t34.5 239
q0 120 -34.5 212.5t-107 144.5t-187.5 52q-116 0 -208.5 -53t-157 -143.5t-99 -205t-34.5 -239.5q0 -119 34.5 -211.5t106.5 -145t187 -52.5zM998 1254l27 146q75 0 123 34.5t63 113.5h189q-18 -90 -75.5 -156t-142.5 -102t-184 -36z" />
    <glyph glyph-name="uni1EDA" unicode="&#x1eda;" horiz-adv-x="1447" 
d="M621 -28q-163 0 -283 71t-184.5 204.5t-64.5 320.5q0 185 61 342t169 273t248 180.5t298 64.5q163 0 282.5 -71t184.5 -204.5t65 -320.5q0 -185 -61.5 -342t-169 -273t-247.5 -180.5t-298 -64.5zM657 175q116 0 208.5 53t157.5 143.5t99.5 205.5t34.5 239
q0 120 -34.5 212.5t-107 144.5t-187.5 52q-116 0 -208.5 -53t-157 -143.5t-99 -205t-34.5 -239.5q0 -119 34.5 -211.5t106.5 -145t187 -52.5zM998 1254l27 146q75 0 123 34.5t63 113.5h189q-18 -90 -75.5 -156t-142.5 -102t-184 -36zM728 1558l28 148l382 212l-36 -234z" />
    <glyph glyph-name="uni1EE2" unicode="&#x1ee2;" horiz-adv-x="1447" 
d="M621 -28q-163 0 -283 71t-184.5 204.5t-64.5 320.5q0 185 61 342t169 273t248 180.5t298 64.5q163 0 282.5 -71t184.5 -204.5t65 -320.5q0 -185 -61.5 -342t-169 -273t-247.5 -180.5t-298 -64.5zM657 175q116 0 208.5 53t157.5 143.5t99.5 205.5t34.5 239
q0 120 -34.5 212.5t-107 144.5t-187.5 52q-116 0 -208.5 -53t-157 -143.5t-99 -205t-34.5 -239.5q0 -119 34.5 -211.5t106.5 -145t187 -52.5zM998 1254l27 146q75 0 123 34.5t63 113.5h189q-18 -90 -75.5 -156t-142.5 -102t-184 -36zM445 -348l36 186h191l-36 -186h-191z
" />
    <glyph glyph-name="uni1EDC" unicode="&#x1edc;" horiz-adv-x="1447" 
d="M621 -28q-163 0 -283 71t-184.5 204.5t-64.5 320.5q0 185 61 342t169 273t248 180.5t298 64.5q163 0 282.5 -71t184.5 -204.5t65 -320.5q0 -185 -61.5 -342t-169 -273t-247.5 -180.5t-298 -64.5zM657 175q116 0 208.5 53t157.5 143.5t99.5 205.5t34.5 239
q0 120 -34.5 212.5t-107 144.5t-187.5 52q-116 0 -208.5 -53t-157 -143.5t-99 -205t-34.5 -239.5q0 -119 34.5 -211.5t106.5 -145t187 -52.5zM998 1254l27 146q75 0 123 34.5t63 113.5h189q-18 -90 -75.5 -156t-142.5 -102t-184 -36zM1079 1559l-339 144l37 210l326 -217z
" />
    <glyph glyph-name="uni1EDE" unicode="&#x1ede;" horiz-adv-x="1447" 
d="M621 -28q-163 0 -283 71t-184.5 204.5t-64.5 320.5q0 185 61 342t169 273t248 180.5t298 64.5q163 0 282.5 -71t184.5 -204.5t65 -320.5q0 -185 -61.5 -342t-169 -273t-247.5 -180.5t-298 -64.5zM657 175q116 0 208.5 53t157.5 143.5t99.5 205.5t34.5 239
q0 120 -34.5 212.5t-107 144.5t-187.5 52q-116 0 -208.5 -53t-157 -143.5t-99 -205t-34.5 -239.5q0 -119 34.5 -211.5t106.5 -145t187 -52.5zM998 1254l27 146q75 0 123 34.5t63 113.5h189q-18 -90 -75.5 -156t-142.5 -102t-184 -36zM856 1539q47 37 81 70.5t34 76.5
q0 54 -66 54q-31 0 -64 -10.5t-67 -26.5l-14 109q39 17 80.5 27t86.5 10q71 0 119.5 -35.5t48.5 -101.5q0 -80 -52.5 -136.5t-128.5 -105.5z" />
    <glyph glyph-name="uni1EE0" unicode="&#x1ee0;" horiz-adv-x="1447" 
d="M621 -28q-163 0 -283 71t-184.5 204.5t-64.5 320.5q0 185 61 342t169 273t248 180.5t298 64.5q163 0 282.5 -71t184.5 -204.5t65 -320.5q0 -185 -61.5 -342t-169 -273t-247.5 -180.5t-298 -64.5zM657 175q116 0 208.5 53t157.5 143.5t99.5 205.5t34.5 239
q0 120 -34.5 212.5t-107 144.5t-187.5 52q-116 0 -208.5 -53t-157 -143.5t-99 -205t-34.5 -239.5q0 -119 34.5 -211.5t106.5 -145t187 -52.5zM998 1254l27 146q75 0 123 34.5t63 113.5h189q-18 -90 -75.5 -156t-142.5 -102t-184 -36zM1071 1570q-44 0 -90 22t-90 43.5
t-81 21.5q-32 0 -52 -19t-27 -52h-149q22 113 75.5 172t133.5 59q47 0 90 -22t83.5 -43.5t79.5 -21.5q32 0 51 19t25 58h153q-24 -123 -74 -180t-128 -57z" />
    <glyph glyph-name="Ohungarumlaut" unicode="&#x150;" horiz-adv-x="1447" 
d="M621 -28q-163 0 -283 71t-184.5 204.5t-64.5 320.5q0 185 61 342t169 273t248 180.5t298 64.5q163 0 282.5 -71t184.5 -204.5t65 -320.5q0 -185 -61.5 -342t-169 -273t-247.5 -180.5t-298 -64.5zM657 175q116 0 208.5 53t157.5 143.5t99.5 205.5t34.5 239
q0 120 -34.5 212.5t-107 144.5t-187.5 52q-116 0 -208.5 -53t-157 -143.5t-99 -205t-34.5 -239.5q0 -119 34.5 -211.5t106.5 -145t187 -52.5zM967 1576l178 303h208l-245 -303h-141zM683 1576l166 303h208l-233 -303h-141z" />
    <glyph glyph-name="uni020E" unicode="&#x20e;" horiz-adv-x="1447" 
d="M621 -28q-163 0 -283 71t-184.5 204.5t-64.5 320.5q0 185 61 342t169 273t248 180.5t298 64.5q163 0 282.5 -71t184.5 -204.5t65 -320.5q0 -185 -61.5 -342t-169 -273t-247.5 -180.5t-298 -64.5zM657 175q116 0 208.5 53t157.5 143.5t99.5 205.5t34.5 239
q0 120 -34.5 212.5t-107 144.5t-187.5 52q-116 0 -208.5 -53t-157 -143.5t-99 -205t-34.5 -239.5q0 -119 34.5 -211.5t106.5 -145t187 -52.5zM604 1559q12 67 56 124t115.5 92t168.5 35q130 0 192.5 -60t62.5 -146q0 -11 -1 -22t-3 -23h-164q2 15 2 27q0 47 -31 70.5
t-81 23.5q-56 0 -98.5 -30t-53.5 -91h-165z" />
    <glyph glyph-name="Omacron" unicode="&#x14c;" horiz-adv-x="1447" 
d="M621 -28q-163 0 -283 71t-184.5 204.5t-64.5 320.5q0 185 61 342t169 273t248 180.5t298 64.5q163 0 282.5 -71t184.5 -204.5t65 -320.5q0 -185 -61.5 -342t-169 -273t-247.5 -180.5t-298 -64.5zM657 175q116 0 208.5 53t157.5 143.5t99.5 205.5t34.5 239
q0 120 -34.5 212.5t-107 144.5t-187.5 52q-116 0 -208.5 -53t-157 -143.5t-99 -205t-34.5 -239.5q0 -119 34.5 -211.5t106.5 -145t187 -52.5zM584 1586l26 143h635l-25 -143h-636z" />
    <glyph glyph-name="uni1E52" unicode="&#x1e52;" horiz-adv-x="1447" 
d="M621 -28q-163 0 -283 71t-184.5 204.5t-64.5 320.5q0 185 61 342t169 273t248 180.5t298 64.5q163 0 282.5 -71t184.5 -204.5t65 -320.5q0 -185 -61.5 -342t-169 -273t-247.5 -180.5t-298 -64.5zM657 175q116 0 208.5 53t157.5 143.5t99.5 205.5t34.5 239
q0 120 -34.5 212.5t-107 144.5t-187.5 52q-116 0 -208.5 -53t-157 -143.5t-99 -205t-34.5 -239.5q0 -119 34.5 -211.5t106.5 -145t187 -52.5zM584 1586l26 143h635l-25 -143h-636zM800 1843l19 137l361 190l-32 -211z" />
    <glyph glyph-name="uni1E50" unicode="&#x1e50;" horiz-adv-x="1447" 
d="M621 -28q-163 0 -283 71t-184.5 204.5t-64.5 320.5q0 185 61 342t169 273t248 180.5t298 64.5q163 0 282.5 -71t184.5 -204.5t65 -320.5q0 -185 -61.5 -342t-169 -273t-247.5 -180.5t-298 -64.5zM657 175q116 0 208.5 53t157.5 143.5t99.5 205.5t34.5 239
q0 120 -34.5 212.5t-107 144.5t-187.5 52q-116 0 -208.5 -53t-157 -143.5t-99 -205t-34.5 -239.5q0 -119 34.5 -211.5t106.5 -145t187 -52.5zM584 1586l26 143h635l-25 -143h-636zM1141 1843l-341 116l37 199l329 -190z" />
    <glyph glyph-name="uni01EA" unicode="&#x1ea;" horiz-adv-x="1447" 
d="M621 -28q-163 0 -283 71t-184.5 204.5t-64.5 320.5q0 185 61 342t169 273t248 180.5t298 64.5q163 0 282.5 -71t184.5 -204.5t65 -320.5q0 -185 -61.5 -342t-169 -273t-247.5 -180.5t-298 -64.5zM657 175q116 0 208.5 53t157.5 143.5t99.5 205.5t34.5 239
q0 120 -34.5 212.5t-107 144.5t-187.5 52q-116 0 -208.5 -53t-157 -143.5t-99 -205t-34.5 -239.5q0 -119 34.5 -211.5t106.5 -145t187 -52.5zM647 10l103 -10q-47 -32 -91.5 -68.5t-73.5 -78t-29 -87.5q0 -74 74 -74q33 0 61 7.5t58 22.5l13 -103q-30 -15 -71.5 -26.5
t-94.5 -11.5q-73 0 -121 36.5t-48 102.5q0 86 67 162t153 128z" />
    <glyph glyph-name="Oslash" unicode="&#xd8;" horiz-adv-x="1447" 
d="M1255 1488h192l-1217 -1576h-190zM621 -28q-163 0 -283 71t-184.5 204.5t-64.5 320.5q0 185 61 342t169 273t248 180.5t298 64.5q163 0 282.5 -71t184.5 -204.5t65 -320.5q0 -185 -61.5 -342t-169 -273t-247.5 -180.5t-298 -64.5zM657 175q116 0 208.5 53t157.5 143.5
t99.5 205.5t34.5 239q0 120 -34.5 212.5t-107 144.5t-187.5 52q-116 0 -208.5 -53t-157 -143.5t-99 -205t-34.5 -239.5q0 -119 34.5 -211.5t106.5 -145t187 -52.5z" />
    <glyph glyph-name="Oslashacute" unicode="&#x1fe;" horiz-adv-x="1447" 
d="M1255 1488h192l-1217 -1576h-190zM621 -28q-163 0 -283 71t-184.5 204.5t-64.5 320.5q0 185 61 342t169 273t248 180.5t298 64.5q163 0 282.5 -71t184.5 -204.5t65 -320.5q0 -185 -61.5 -342t-169 -273t-247.5 -180.5t-298 -64.5zM657 175q116 0 208.5 53t157.5 143.5
t99.5 205.5t34.5 239q0 120 -34.5 212.5t-107 144.5t-187.5 52q-116 0 -208.5 -53t-157 -143.5t-99 -205t-34.5 -239.5q0 -119 34.5 -211.5t106.5 -145t187 -52.5zM730 1524l19 137l361 190l-32 -211z" />
    <glyph glyph-name="Otilde" unicode="&#xd5;" horiz-adv-x="1447" 
d="M621 -28q-163 0 -283 71t-184.5 204.5t-64.5 320.5q0 185 61 342t169 273t248 180.5t298 64.5q163 0 282.5 -71t184.5 -204.5t65 -320.5q0 -185 -61.5 -342t-169 -273t-247.5 -180.5t-298 -64.5zM657 175q116 0 208.5 53t157.5 143.5t99.5 205.5t34.5 239
q0 120 -34.5 212.5t-107 144.5t-187.5 52q-116 0 -208.5 -53t-157 -143.5t-99 -205t-34.5 -239.5q0 -119 34.5 -211.5t106.5 -145t187 -52.5zM1071 1570q-44 0 -90 22t-90 43.5t-81 21.5q-32 0 -52 -19t-27 -52h-149q22 113 75.5 172t133.5 59q47 0 90 -22t83.5 -43.5
t79.5 -21.5q32 0 51 19t25 58h153q-24 -123 -74 -180t-128 -57z" />
    <glyph glyph-name="uni1E4C" unicode="&#x1e4c;" horiz-adv-x="1447" 
d="M621 -28q-163 0 -283 71t-184.5 204.5t-64.5 320.5q0 185 61 342t169 273t248 180.5t298 64.5q163 0 282.5 -71t184.5 -204.5t65 -320.5q0 -185 -61.5 -342t-169 -273t-247.5 -180.5t-298 -64.5zM657 175q116 0 208.5 53t157.5 143.5t99.5 205.5t34.5 239
q0 120 -34.5 212.5t-107 144.5t-187.5 52q-116 0 -208.5 -53t-157 -143.5t-99 -205t-34.5 -239.5q0 -119 34.5 -211.5t106.5 -145t187 -52.5zM1055 1567q-44 0 -90.5 19.5t-90 38.5t-78.5 19q-25 0 -44 -15.5t-23 -49.5h-139q18 100 67 152t124 52q44 0 89.5 -19t89 -38.5
t80.5 -19.5q26 0 44 17.5t23 49.5h139q-15 -102 -65.5 -154t-125.5 -52zM789 1866l19 137l361 190l-32 -211z" />
    <glyph glyph-name="uni1E4E" unicode="&#x1e4e;" horiz-adv-x="1447" 
d="M621 -28q-163 0 -283 71t-184.5 204.5t-64.5 320.5q0 185 61 342t169 273t248 180.5t298 64.5q163 0 282.5 -71t184.5 -204.5t65 -320.5q0 -185 -61.5 -342t-169 -273t-247.5 -180.5t-298 -64.5zM657 175q116 0 208.5 53t157.5 143.5t99.5 205.5t34.5 239
q0 120 -34.5 212.5t-107 144.5t-187.5 52q-116 0 -208.5 -53t-157 -143.5t-99 -205t-34.5 -239.5q0 -119 34.5 -211.5t106.5 -145t187 -52.5zM1055 1567q-44 0 -90.5 19.5t-90 38.5t-78.5 19q-25 0 -44 -15.5t-23 -49.5h-139q18 100 67 152t124 52q44 0 89.5 -19t89 -38.5
t80.5 -19.5q26 0 44 17.5t23 49.5h139q-15 -102 -65.5 -154t-125.5 -52zM1060 1920l30 159h176l-30 -159h-176zM682 1920l30 159h176l-30 -159h-176z" />
    <glyph glyph-name="uni022C" unicode="&#x22c;" horiz-adv-x="1447" 
d="M621 -28q-163 0 -283 71t-184.5 204.5t-64.5 320.5q0 185 61 342t169 273t248 180.5t298 64.5q163 0 282.5 -71t184.5 -204.5t65 -320.5q0 -185 -61.5 -342t-169 -273t-247.5 -180.5t-298 -64.5zM657 175q116 0 208.5 53t157.5 143.5t99.5 205.5t34.5 239
q0 120 -34.5 212.5t-107 144.5t-187.5 52q-116 0 -208.5 -53t-157 -143.5t-99 -205t-34.5 -239.5q0 -119 34.5 -211.5t106.5 -145t187 -52.5zM1055 1567q-44 0 -90.5 19.5t-90 38.5t-78.5 19q-25 0 -44 -15.5t-23 -49.5h-139q18 100 67 152t124 52q44 0 89.5 -19t89 -38.5
t80.5 -19.5q26 0 44 17.5t23 49.5h139q-15 -102 -65.5 -154t-125.5 -52zM643 1927l26 143h635l-25 -143h-636z" />
    <glyph glyph-name="OE" unicode="&#x152;" horiz-adv-x="1994" 
d="M588 -28q-149 0 -261.5 70t-175 203t-62.5 323q0 183 57.5 339t158.5 273t232.5 182.5t280.5 65.5q151 0 258 -79t163.5 -212.5t56.5 -294.5q0 -179 -52.5 -337t-148 -277.5t-225 -187.5t-282.5 -68zM643 175q116 0 206 53.5t152.5 145.5t95 208.5t32.5 241.5
q0 117 -33 208t-102.5 142t-178.5 51q-112 0 -202 -53t-153.5 -143.5t-96.5 -205t-33 -239.5q0 -119 33 -211.5t102 -145t178 -52.5zM1013 0l246 1400h791l-36 -204h-693l114 96l-209 -1184l-80 96h711l-36 -204h-808zM1263 629l36 204h521l-36 -204h-521z" />
    <glyph glyph-name="P" unicode="P" horiz-adv-x="1118" 
d="M314 677h307q92 0 157.5 39.5t100 110.5t34.5 168q0 102 -46 159t-157 57h-318l115 97l-232 -1308h-221l246 1400h424q139 0 232 -43t139 -128t46 -211q0 -142 -42.5 -244.5t-117 -168t-171 -97t-204.5 -31.5h-327z" />
    <glyph glyph-name="Thorn" unicode="&#xde;" horiz-adv-x="1051" 
d="M37 0l248 1400h220l-248 -1400h-220zM246 360l34 189h303q126 0 193 54.5t67 156.5q0 49 -21 82.5t-65 50.5t-111 17h-303l33 188h325q183 0 276.5 -79.5t93.5 -223.5q0 -137 -62 -234t-174.5 -149t-263.5 -52h-325z" />
    <glyph glyph-name="Q" unicode="Q" horiz-adv-x="1446" 
d="M621 -28q-163 0 -283 71t-184.5 204.5t-64.5 320.5q0 185 61 342t169 273t248 180.5t298 64.5q163 0 282.5 -71t184.5 -204.5t65 -320.5q0 -174 -62 -329.5t-170.5 -275t-248.5 -187.5t-295 -68zM657 175q116 0 209.5 55t159.5 147.5t101 206.5t35 232q0 120 -35.5 212.5
t-109.5 144.5t-189 52q-116 0 -208.5 -53t-157 -143.5t-99 -205t-34.5 -239.5q0 -119 34.5 -211.5t106.5 -145t187 -52.5zM1126 -5l-389 403l150 146l387 -406z" />
    <glyph glyph-name="R" unicode="R" horiz-adv-x="1171" 
d="M54 0l246 1400h417q213 0 320 -88.5t107 -261.5q0 -109 -35 -192.5t-94.5 -145t-132.5 -100.5t-151 -58t-149 -19h-322l30 205h332q95 0 159.5 40t97 106t32.5 144q0 81 -43 134t-152 53h-333l125 97l-233 -1314h-221zM800 0l-202 601l220 50l211 -651h-229z" />
    <glyph glyph-name="Racute" unicode="&#x154;" horiz-adv-x="1171" 
d="M54 0l246 1400h417q213 0 320 -88.5t107 -261.5q0 -109 -35 -192.5t-94.5 -145t-132.5 -100.5t-151 -58t-149 -19h-322l30 205h332q95 0 159.5 40t97 106t32.5 144q0 81 -43 134t-152 53h-333l125 97l-233 -1314h-221zM800 0l-202 601l220 50l211 -651h-229zM619 1524
l19 137l361 190l-32 -211z" />
    <glyph glyph-name="Rcaron" unicode="&#x158;" horiz-adv-x="1171" 
d="M54 0l246 1400h417q213 0 320 -88.5t107 -261.5q0 -109 -35 -192.5t-94.5 -145t-132.5 -100.5t-151 -58t-149 -19h-322l30 205h332q95 0 159.5 40t97 106t32.5 144q0 81 -43 134t-152 53h-333l125 97l-233 -1314h-221zM800 0l-202 601l220 50l211 -651h-229zM770 1500
l-226 181l22 129l233 -138l243 136l-23 -147z" />
    <glyph glyph-name="uni0156" unicode="&#x156;" horiz-adv-x="1171" 
d="M54 0l246 1400h417q213 0 320 -88.5t107 -261.5q0 -109 -35 -192.5t-94.5 -145t-132.5 -100.5t-151 -58t-149 -19h-322l30 205h332q95 0 159.5 40t97 106t32.5 144q0 81 -43 134t-152 53h-333l125 97l-233 -1314h-221zM800 0l-202 601l220 50l211 -651h-229zM440 -537
h-79l93 174h-74l31 181h199l-32 -181z" />
    <glyph glyph-name="uni0210" unicode="&#x210;" horiz-adv-x="1171" 
d="M54 0l246 1400h417q213 0 320 -88.5t107 -261.5q0 -109 -35 -192.5t-94.5 -145t-132.5 -100.5t-151 -58t-149 -19h-322l30 205h332q95 0 159.5 40t97 106t32.5 144q0 81 -43 134t-152 53h-333l125 97l-233 -1314h-221zM800 0l-202 601l220 50l211 -651h-229zM579 1576
l-141 303h207l73 -303h-139zM861 1576l-128 303h206l61 -303h-139z" />
    <glyph glyph-name="uni1E5A" unicode="&#x1e5a;" horiz-adv-x="1171" 
d="M54 0l246 1400h417q213 0 320 -88.5t107 -261.5q0 -109 -35 -192.5t-94.5 -145t-132.5 -100.5t-151 -58t-149 -19h-322l30 205h332q95 0 159.5 40t97 106t32.5 144q0 81 -43 134t-152 53h-333l125 97l-233 -1314h-221zM800 0l-202 601l220 50l211 -651h-229zM379 -348
l36 186h191l-36 -186h-191z" />
    <glyph glyph-name="uni0212" unicode="&#x212;" horiz-adv-x="1171" 
d="M54 0l246 1400h417q213 0 320 -88.5t107 -261.5q0 -109 -35 -192.5t-94.5 -145t-132.5 -100.5t-151 -58t-149 -19h-322l30 205h332q95 0 159.5 40t97 106t32.5 144q0 81 -43 134t-152 53h-333l125 97l-233 -1314h-221zM800 0l-202 601l220 50l211 -651h-229zM492 1559
q12 67 56 124t115.5 92t168.5 35q130 0 192.5 -60t62.5 -146q0 -11 -1 -22t-3 -23h-164q2 15 2 27q0 47 -31 70.5t-81 23.5q-56 0 -98.5 -30t-53.5 -91h-165z" />
    <glyph glyph-name="uni1E5E" unicode="&#x1e5e;" horiz-adv-x="1171" 
d="M54 0l246 1400h417q213 0 320 -88.5t107 -261.5q0 -109 -35 -192.5t-94.5 -145t-132.5 -100.5t-151 -58t-149 -19h-322l30 205h332q95 0 159.5 40t97 106t32.5 144q0 81 -43 134t-152 53h-333l125 97l-233 -1314h-221zM800 0l-202 601l220 50l211 -651h-229zM164 -332
l29 150h631l-30 -150h-630z" />
    <glyph glyph-name="S" unicode="S" horiz-adv-x="1100" 
d="M428 -28q-140 0 -247 29.5t-170 65.5l71 252q59 -52 154 -98t222 -46q83 0 150.5 22t106.5 68.5t39 120.5q0 68 -32.5 111t-93 74t-141.5 62q-65 25 -125.5 52.5t-107 66t-74 94t-27.5 133.5q0 79 33 158.5t98.5 145t166.5 105.5t236 40q136 0 241 -33t165 -68l-62 -228
q-90 62 -173.5 94t-186.5 32q-68 0 -133 -20.5t-108 -65t-43 -116.5q0 -80 63.5 -120.5t167.5 -78.5q69 -26 136.5 -54.5t123.5 -70.5t90 -106t34 -160q0 -80 -28.5 -161.5t-94.5 -149.5t-176.5 -109t-274.5 -41z" />
    <glyph glyph-name="Sacute" unicode="&#x15a;" horiz-adv-x="1100" 
d="M428 -28q-140 0 -247 29.5t-170 65.5l71 252q59 -52 154 -98t222 -46q83 0 150.5 22t106.5 68.5t39 120.5q0 68 -32.5 111t-93 74t-141.5 62q-65 25 -125.5 52.5t-107 66t-74 94t-27.5 133.5q0 79 33 158.5t98.5 145t166.5 105.5t236 40q136 0 241 -33t165 -68l-62 -228
q-90 62 -173.5 94t-186.5 32q-68 0 -133 -20.5t-108 -65t-43 -116.5q0 -80 63.5 -120.5t167.5 -78.5q69 -26 136.5 -54.5t123.5 -70.5t90 -106t34 -160q0 -80 -28.5 -161.5t-94.5 -149.5t-176.5 -109t-274.5 -41zM557 1524l19 137l361 190l-32 -211z" />
    <glyph glyph-name="uni1E64" unicode="&#x1e64;" horiz-adv-x="1100" 
d="M428 -28q-140 0 -247 29.5t-170 65.5l71 252q59 -52 154 -98t222 -46q83 0 150.5 22t106.5 68.5t39 120.5q0 68 -32.5 111t-93 74t-141.5 62q-65 25 -125.5 52.5t-107 66t-74 94t-27.5 133.5q0 79 33 158.5t98.5 145t166.5 105.5t236 40q136 0 241 -33t165 -68l-62 -228
q-90 62 -173.5 94t-186.5 32q-68 0 -133 -20.5t-108 -65t-43 -116.5q0 -80 63.5 -120.5t167.5 -78.5q69 -26 136.5 -54.5t123.5 -70.5t90 -106t34 -160q0 -80 -28.5 -161.5t-94.5 -149.5t-176.5 -109t-274.5 -41zM557 1524l19 137l361 190l-32 -211zM702 1947l33 186h195
l-33 -186h-195z" />
    <glyph glyph-name="Scaron" unicode="&#x160;" horiz-adv-x="1100" 
d="M428 -28q-140 0 -247 29.5t-170 65.5l71 252q59 -52 154 -98t222 -46q83 0 150.5 22t106.5 68.5t39 120.5q0 68 -32.5 111t-93 74t-141.5 62q-65 25 -125.5 52.5t-107 66t-74 94t-27.5 133.5q0 79 33 158.5t98.5 145t166.5 105.5t236 40q136 0 241 -33t165 -68l-62 -228
q-90 62 -173.5 94t-186.5 32q-68 0 -133 -20.5t-108 -65t-43 -116.5q0 -80 63.5 -120.5t167.5 -78.5q69 -26 136.5 -54.5t123.5 -70.5t90 -106t34 -160q0 -80 -28.5 -161.5t-94.5 -149.5t-176.5 -109t-274.5 -41zM720 1529l-214 222l28 137l225 -163l278 163l-27 -161z" />
    <glyph glyph-name="uni1E66" unicode="&#x1e66;" horiz-adv-x="1100" 
d="M428 -28q-140 0 -247 29.5t-170 65.5l71 252q59 -52 154 -98t222 -46q83 0 150.5 22t106.5 68.5t39 120.5q0 68 -32.5 111t-93 74t-141.5 62q-65 25 -125.5 52.5t-107 66t-74 94t-27.5 133.5q0 79 33 158.5t98.5 145t166.5 105.5t236 40q136 0 241 -33t165 -68l-62 -228
q-90 62 -173.5 94t-186.5 32q-68 0 -133 -20.5t-108 -65t-43 -116.5q0 -80 63.5 -120.5t167.5 -78.5q69 -26 136.5 -54.5t123.5 -70.5t90 -106t34 -160q0 -80 -28.5 -161.5t-94.5 -149.5t-176.5 -109t-274.5 -41zM708 1500l-226 181l22 129l233 -138l243 136l-23 -147z
M680 1879l33 186h195l-33 -186h-195z" />
    <glyph glyph-name="Scedilla" unicode="&#x15e;" horiz-adv-x="1100" 
d="M428 -28q-140 0 -247 29.5t-170 65.5l71 252q59 -52 154 -98t222 -46q83 0 150.5 22t106.5 68.5t39 120.5q0 68 -32.5 111t-93 74t-141.5 62q-65 25 -125.5 52.5t-107 66t-74 94t-27.5 133.5q0 79 33 158.5t98.5 145t166.5 105.5t236 40q136 0 241 -33t165 -68l-62 -228
q-90 62 -173.5 94t-186.5 32q-68 0 -133 -20.5t-108 -65t-43 -116.5q0 -80 63.5 -120.5t167.5 -78.5q69 -26 136.5 -54.5t123.5 -70.5t90 -106t34 -160q0 -80 -28.5 -161.5t-94.5 -149.5t-176.5 -109t-274.5 -41zM455 -158l-66 30q27 9 51.5 14.5t52.5 5.5q71 0 111.5 -36
t40.5 -101q0 -96 -73.5 -157t-181.5 -61q-52 0 -89.5 11.5t-64.5 26.5l53 106q28 -15 57.5 -24.5t64.5 -9.5q52 0 81 24t29 59q0 65 -89 65q-23 0 -46.5 -3.5t-51.5 -11.5l93 220h105z" />
    <glyph glyph-name="Scircumflex" unicode="&#x15c;" horiz-adv-x="1100" 
d="M428 -28q-140 0 -247 29.5t-170 65.5l71 252q59 -52 154 -98t222 -46q83 0 150.5 22t106.5 68.5t39 120.5q0 68 -32.5 111t-93 74t-141.5 62q-65 25 -125.5 52.5t-107 66t-74 94t-27.5 133.5q0 79 33 158.5t98.5 145t166.5 105.5t236 40q136 0 241 -33t165 -68l-62 -228
q-90 62 -173.5 94t-186.5 32q-68 0 -133 -20.5t-108 -65t-43 -116.5q0 -80 63.5 -120.5t167.5 -78.5q69 -26 136.5 -54.5t123.5 -70.5t90 -106t34 -160q0 -80 -28.5 -161.5t-94.5 -149.5t-176.5 -109t-274.5 -41zM974 1500l-235 137l-236 -113l23 133l245 157l225 -181z" />
    <glyph glyph-name="uni0218" unicode="&#x218;" horiz-adv-x="1100" 
d="M428 -28q-140 0 -247 29.5t-170 65.5l71 252q59 -52 154 -98t222 -46q83 0 150.5 22t106.5 68.5t39 120.5q0 68 -32.5 111t-93 74t-141.5 62q-65 25 -125.5 52.5t-107 66t-74 94t-27.5 133.5q0 79 33 158.5t98.5 145t166.5 105.5t236 40q136 0 241 -33t165 -68l-62 -228
q-90 62 -173.5 94t-186.5 32q-68 0 -133 -20.5t-108 -65t-43 -116.5q0 -80 63.5 -120.5t167.5 -78.5q69 -26 136.5 -54.5t123.5 -70.5t90 -106t34 -160q0 -80 -28.5 -161.5t-94.5 -149.5t-176.5 -109t-274.5 -41zM377 -537h-79l93 174h-74l31 181h199l-32 -181z" />
    <glyph glyph-name="uni1E60" unicode="&#x1e60;" horiz-adv-x="1100" 
d="M428 -28q-140 0 -247 29.5t-170 65.5l71 252q59 -52 154 -98t222 -46q83 0 150.5 22t106.5 68.5t39 120.5q0 68 -32.5 111t-93 74t-141.5 62q-65 25 -125.5 52.5t-107 66t-74 94t-27.5 133.5q0 79 33 158.5t98.5 145t166.5 105.5t236 40q136 0 241 -33t165 -68l-62 -228
q-90 62 -173.5 94t-186.5 32q-68 0 -133 -20.5t-108 -65t-43 -116.5q0 -80 63.5 -120.5t167.5 -78.5q69 -26 136.5 -54.5t123.5 -70.5t90 -106t34 -160q0 -80 -28.5 -161.5t-94.5 -149.5t-176.5 -109t-274.5 -41zM632 1583l33 186h195l-33 -186h-195z" />
    <glyph glyph-name="uni1E62" unicode="&#x1e62;" horiz-adv-x="1100" 
d="M428 -28q-140 0 -247 29.5t-170 65.5l71 252q59 -52 154 -98t222 -46q83 0 150.5 22t106.5 68.5t39 120.5q0 68 -32.5 111t-93 74t-141.5 62q-65 25 -125.5 52.5t-107 66t-74 94t-27.5 133.5q0 79 33 158.5t98.5 145t166.5 105.5t236 40q136 0 241 -33t165 -68l-62 -228
q-90 62 -173.5 94t-186.5 32q-68 0 -133 -20.5t-108 -65t-43 -116.5q0 -80 63.5 -120.5t167.5 -78.5q69 -26 136.5 -54.5t123.5 -70.5t90 -106t34 -160q0 -80 -28.5 -161.5t-94.5 -149.5t-176.5 -109t-274.5 -41zM316 -348l36 186h191l-36 -186h-191z" />
    <glyph glyph-name="uni1E68" unicode="&#x1e68;" horiz-adv-x="1100" 
d="M428 -28q-140 0 -247 29.5t-170 65.5l71 252q59 -52 154 -98t222 -46q83 0 150.5 22t106.5 68.5t39 120.5q0 68 -32.5 111t-93 74t-141.5 62q-65 25 -125.5 52.5t-107 66t-74 94t-27.5 133.5q0 79 33 158.5t98.5 145t166.5 105.5t236 40q136 0 241 -33t165 -68l-62 -228
q-90 62 -173.5 94t-186.5 32q-68 0 -133 -20.5t-108 -65t-43 -116.5q0 -80 63.5 -120.5t167.5 -78.5q69 -26 136.5 -54.5t123.5 -70.5t90 -106t34 -160q0 -80 -28.5 -161.5t-94.5 -149.5t-176.5 -109t-274.5 -41zM632 1583l33 186h195l-33 -186h-195zM316 -348l36 186h191
l-36 -186h-191z" />
    <glyph glyph-name="uni1E9E" unicode="&#x1e9e;" horiz-adv-x="1195" 
d="M43 0l168 950q30 168 110 273.5t197.5 155t257.5 49.5q121 0 222 -29.5t176 -72.5l-38 -176l-345 -428l-92 92q188 -5 298.5 -103.5t110.5 -270.5q0 -140 -64 -245.5t-176.5 -164t-256.5 -58.5q-50 0 -102 8t-94 20l37 200q32 -11 71 -18t81 -7q118 0 191 68t73 187
q0 104 -64.5 158t-174.5 61l-33 2l31 165l397 486l-13 -126q-49 25 -106 39.5t-132 14.5q-133 0 -226.5 -73t-122.5 -231l-163 -926h-218z" />
    <glyph glyph-name="uni018F" unicode="&#x18f;" horiz-adv-x="1361" 
d="M585 175q118 0 209.5 54t154 146.5t95 210t32.5 244.5q0 186 -93.5 290.5t-275.5 104.5q-113 0 -225.5 -28.5t-219.5 -73.5l7 194q106 49 233 80t263 31q177 0 300 -71t186.5 -199.5t63.5 -301.5q0 -177 -56.5 -336.5t-159.5 -283t-242.5 -194t-306.5 -70.5
q-226 0 -360 126t-134 352q0 66 15 142t37 131h1102l-36 -193h-879q-3 -20 -5 -38.5t-2 -37.5q1 -126 73 -202.5t224 -76.5z" />
    <glyph glyph-name="T" unicode="T" horiz-adv-x="1081" 
d="M327 0l217 1238h218l-217 -1238h-218zM167 1196l36 204h958l-36 -204h-958z" />
    <glyph glyph-name="Tbar" unicode="&#x166;" horiz-adv-x="1081" 
d="M189 636l26 142h717l-26 -142h-717zM327 0l217 1238h218l-217 -1238h-218zM167 1196l36 204h958l-36 -204h-958z" />
    <glyph glyph-name="Tcaron" unicode="&#x164;" horiz-adv-x="1081" 
d="M327 0l217 1238h218l-217 -1238h-218zM167 1196l36 204h958l-36 -204h-958zM694 1500l-226 181l22 129l233 -138l243 136l-23 -147z" />
    <glyph glyph-name="uni0162" unicode="&#x162;" horiz-adv-x="1081" 
d="M327 0l217 1238h218l-217 -1238h-218zM167 1196l36 204h958l-36 -204h-958zM418 -158l-66 30q27 9 51.5 14.5t52.5 5.5q71 0 111.5 -36t40.5 -101q0 -96 -73.5 -157t-181.5 -61q-52 0 -89.5 11.5t-64.5 26.5l53 106q28 -15 57.5 -24.5t64.5 -9.5q52 0 81 24t29 59
q0 65 -89 65q-23 0 -46.5 -3.5t-51.5 -11.5l93 220h105z" />
    <glyph glyph-name="uni021A" unicode="&#x21a;" horiz-adv-x="1081" 
d="M327 0l217 1238h218l-217 -1238h-218zM167 1196l36 204h958l-36 -204h-958zM340 -537h-79l93 174h-74l31 181h199l-32 -181z" />
    <glyph glyph-name="uni1E6C" unicode="&#x1e6c;" horiz-adv-x="1081" 
d="M327 0l217 1238h218l-217 -1238h-218zM167 1196l36 204h958l-36 -204h-958zM279 -348l36 186h191l-36 -186h-191z" />
    <glyph glyph-name="uni1E6E" unicode="&#x1e6e;" horiz-adv-x="1081" 
d="M327 0l217 1238h218l-217 -1238h-218zM167 1196l36 204h958l-36 -204h-958zM64 -332l29 150h631l-30 -150h-630z" />
    <glyph glyph-name="U" unicode="U" horiz-adv-x="1359" 
d="M572 -28q-226 0 -335 117.5t-109 325.5q0 29 4 80.5t13 101.5l142 803h218l-126 -714q-10 -53 -16.5 -109.5t-6.5 -104.5q1 -86 23.5 -153t77 -105.5t150.5 -38.5q105 0 176.5 45t117.5 119.5t72.5 165t42.5 181.5l126 714h218l-142 -803q-33 -190 -115.5 -330.5
t-215 -217.5t-315.5 -77z" />
    <glyph glyph-name="Uacute" unicode="&#xda;" horiz-adv-x="1359" 
d="M572 -28q-226 0 -335 117.5t-109 325.5q0 29 4 80.5t13 101.5l142 803h218l-126 -714q-10 -53 -16.5 -109.5t-6.5 -104.5q1 -86 23.5 -153t77 -105.5t150.5 -38.5q105 0 176.5 45t117.5 119.5t72.5 165t42.5 181.5l126 714h218l-142 -803q-33 -190 -115.5 -330.5
t-215 -217.5t-315.5 -77zM686 1558l28 148l382 212l-36 -234z" />
    <glyph glyph-name="Ubreve" unicode="&#x16c;" horiz-adv-x="1359" 
d="M572 -28q-226 0 -335 117.5t-109 325.5q0 29 4 80.5t13 101.5l142 803h218l-126 -714q-10 -53 -16.5 -109.5t-6.5 -104.5q1 -86 23.5 -153t77 -105.5t150.5 -38.5q105 0 176.5 45t117.5 119.5t72.5 165t42.5 181.5l126 714h218l-142 -803q-33 -190 -115.5 -330.5
t-215 -217.5t-315.5 -77zM853 1529q-132 0 -196 61t-64 145q0 11 1.5 22.5t2.5 22.5h164q-1 -6 -2 -13.5t-1 -14.5q0 -46 32 -70t83 -24q57 0 101 31t54 91h166q-18 -111 -106 -181t-235 -70z" />
    <glyph glyph-name="Ucircumflex" unicode="&#xdb;" horiz-adv-x="1359" 
d="M572 -28q-226 0 -335 117.5t-109 325.5q0 29 4 80.5t13 101.5l142 803h218l-126 -714q-10 -53 -16.5 -109.5t-6.5 -104.5q1 -86 23.5 -153t77 -105.5t150.5 -38.5q105 0 176.5 45t117.5 119.5t72.5 165t42.5 181.5l126 714h218l-142 -803q-33 -190 -115.5 -330.5
t-215 -217.5t-315.5 -77zM633 1553l32 143l259 194l215 -221l-28 -137l-225 162z" />
    <glyph glyph-name="uni0214" unicode="&#x214;" horiz-adv-x="1359" 
d="M572 -28q-226 0 -335 117.5t-109 325.5q0 29 4 80.5t13 101.5l142 803h218l-126 -714q-10 -53 -16.5 -109.5t-6.5 -104.5q1 -86 23.5 -153t77 -105.5t150.5 -38.5q105 0 176.5 45t117.5 119.5t72.5 165t42.5 181.5l126 714h218l-142 -803q-33 -190 -115.5 -330.5
t-215 -217.5t-315.5 -77zM648 1576l-141 303h207l73 -303h-139zM930 1576l-128 303h206l61 -303h-139z" />
    <glyph glyph-name="Udieresis" unicode="&#xdc;" horiz-adv-x="1359" 
d="M572 -28q-226 0 -335 117.5t-109 325.5q0 29 4 80.5t13 101.5l142 803h218l-126 -714q-10 -53 -16.5 -109.5t-6.5 -104.5q1 -86 23.5 -153t77 -105.5t150.5 -38.5q105 0 176.5 45t117.5 119.5t72.5 165t42.5 181.5l126 714h218l-142 -803q-33 -190 -115.5 -330.5
t-215 -217.5t-315.5 -77zM585 1594l33 168h177l-34 -168h-176zM967 1594l34 168h176l-33 -168h-177z" />
    <glyph glyph-name="uni1EE4" unicode="&#x1ee4;" horiz-adv-x="1359" 
d="M572 -28q-226 0 -335 117.5t-109 325.5q0 29 4 80.5t13 101.5l142 803h218l-126 -714q-10 -53 -16.5 -109.5t-6.5 -104.5q1 -86 23.5 -153t77 -105.5t150.5 -38.5q105 0 176.5 45t117.5 119.5t72.5 165t42.5 181.5l126 714h218l-142 -803q-33 -190 -115.5 -330.5
t-215 -217.5t-315.5 -77zM408 -348l36 186h191l-36 -186h-191z" />
    <glyph glyph-name="Ugrave" unicode="&#xd9;" horiz-adv-x="1359" 
d="M572 -28q-226 0 -335 117.5t-109 325.5q0 29 4 80.5t13 101.5l142 803h218l-126 -714q-10 -53 -16.5 -109.5t-6.5 -104.5q1 -86 23.5 -153t77 -105.5t150.5 -38.5q105 0 176.5 45t117.5 119.5t72.5 165t42.5 181.5l126 714h218l-142 -803q-33 -190 -115.5 -330.5
t-215 -217.5t-315.5 -77zM1037 1559l-339 144l37 210l326 -217z" />
    <glyph glyph-name="uni1EE6" unicode="&#x1ee6;" horiz-adv-x="1359" 
d="M572 -28q-226 0 -335 117.5t-109 325.5q0 29 4 80.5t13 101.5l142 803h218l-126 -714q-10 -53 -16.5 -109.5t-6.5 -104.5q1 -86 23.5 -153t77 -105.5t150.5 -38.5q105 0 176.5 45t117.5 119.5t72.5 165t42.5 181.5l126 714h218l-142 -803q-33 -190 -115.5 -330.5
t-215 -217.5t-315.5 -77zM814 1539q47 37 81 70.5t34 76.5q0 54 -66 54q-31 0 -64 -10.5t-67 -26.5l-14 109q39 17 80.5 27t86.5 10q71 0 119.5 -35.5t48.5 -101.5q0 -80 -52.5 -136.5t-128.5 -105.5z" />
    <glyph glyph-name="Uhorn" unicode="&#x1af;" horiz-adv-x="1359" 
d="M572 -28q-226 0 -335 117.5t-109 325.5q0 29 4 80.5t13 101.5l142 803h218l-126 -714q-10 -53 -16.5 -109.5t-6.5 -104.5q1 -86 23.5 -153t77 -105.5t150.5 -38.5q105 0 176.5 45t117.5 119.5t72.5 165t42.5 181.5l126 714h218l-142 -803q-33 -190 -115.5 -330.5
t-215 -217.5t-315.5 -77zM1205 1254l27 146q75 0 123 34.5t63 113.5h189q-18 -90 -75.5 -156t-142.5 -102t-184 -36z" />
    <glyph glyph-name="uni1EE8" unicode="&#x1ee8;" horiz-adv-x="1359" 
d="M572 -28q-226 0 -335 117.5t-109 325.5q0 29 4 80.5t13 101.5l142 803h218l-126 -714q-10 -53 -16.5 -109.5t-6.5 -104.5q1 -86 23.5 -153t77 -105.5t150.5 -38.5q105 0 176.5 45t117.5 119.5t72.5 165t42.5 181.5l126 714h218l-142 -803q-33 -190 -115.5 -330.5
t-215 -217.5t-315.5 -77zM1205 1254l27 146q75 0 123 34.5t63 113.5h189q-18 -90 -75.5 -156t-142.5 -102t-184 -36zM686 1558l28 148l382 212l-36 -234z" />
    <glyph glyph-name="uni1EF0" unicode="&#x1ef0;" horiz-adv-x="1359" 
d="M572 -28q-226 0 -335 117.5t-109 325.5q0 29 4 80.5t13 101.5l142 803h218l-126 -714q-10 -53 -16.5 -109.5t-6.5 -104.5q1 -86 23.5 -153t77 -105.5t150.5 -38.5q105 0 176.5 45t117.5 119.5t72.5 165t42.5 181.5l126 714h218l-142 -803q-33 -190 -115.5 -330.5
t-215 -217.5t-315.5 -77zM1205 1254l27 146q75 0 123 34.5t63 113.5h189q-18 -90 -75.5 -156t-142.5 -102t-184 -36zM408 -348l36 186h191l-36 -186h-191z" />
    <glyph glyph-name="uni1EEA" unicode="&#x1eea;" horiz-adv-x="1359" 
d="M572 -28q-226 0 -335 117.5t-109 325.5q0 29 4 80.5t13 101.5l142 803h218l-126 -714q-10 -53 -16.5 -109.5t-6.5 -104.5q1 -86 23.5 -153t77 -105.5t150.5 -38.5q105 0 176.5 45t117.5 119.5t72.5 165t42.5 181.5l126 714h218l-142 -803q-33 -190 -115.5 -330.5
t-215 -217.5t-315.5 -77zM1205 1254l27 146q75 0 123 34.5t63 113.5h189q-18 -90 -75.5 -156t-142.5 -102t-184 -36zM1037 1559l-339 144l37 210l326 -217z" />
    <glyph glyph-name="uni1EEC" unicode="&#x1eec;" horiz-adv-x="1359" 
d="M572 -28q-226 0 -335 117.5t-109 325.5q0 29 4 80.5t13 101.5l142 803h218l-126 -714q-10 -53 -16.5 -109.5t-6.5 -104.5q1 -86 23.5 -153t77 -105.5t150.5 -38.5q105 0 176.5 45t117.5 119.5t72.5 165t42.5 181.5l126 714h218l-142 -803q-33 -190 -115.5 -330.5
t-215 -217.5t-315.5 -77zM1205 1254l27 146q75 0 123 34.5t63 113.5h189q-18 -90 -75.5 -156t-142.5 -102t-184 -36zM814 1539q47 37 81 70.5t34 76.5q0 54 -66 54q-31 0 -64 -10.5t-67 -26.5l-14 109q39 17 80.5 27t86.5 10q71 0 119.5 -35.5t48.5 -101.5
q0 -80 -52.5 -136.5t-128.5 -105.5z" />
    <glyph glyph-name="uni1EEE" unicode="&#x1eee;" horiz-adv-x="1359" 
d="M572 -28q-226 0 -335 117.5t-109 325.5q0 29 4 80.5t13 101.5l142 803h218l-126 -714q-10 -53 -16.5 -109.5t-6.5 -104.5q1 -86 23.5 -153t77 -105.5t150.5 -38.5q105 0 176.5 45t117.5 119.5t72.5 165t42.5 181.5l126 714h218l-142 -803q-33 -190 -115.5 -330.5
t-215 -217.5t-315.5 -77zM1205 1254l27 146q75 0 123 34.5t63 113.5h189q-18 -90 -75.5 -156t-142.5 -102t-184 -36zM1029 1570q-44 0 -90 22t-90 43.5t-81 21.5q-32 0 -52 -19t-27 -52h-149q22 113 75.5 172t133.5 59q47 0 90 -22t83.5 -43.5t79.5 -21.5q32 0 51 19t25 58
h153q-24 -123 -74 -180t-128 -57z" />
    <glyph glyph-name="Uhungarumlaut" unicode="&#x170;" horiz-adv-x="1359" 
d="M572 -28q-226 0 -335 117.5t-109 325.5q0 29 4 80.5t13 101.5l142 803h218l-126 -714q-10 -53 -16.5 -109.5t-6.5 -104.5q1 -86 23.5 -153t77 -105.5t150.5 -38.5q105 0 176.5 45t117.5 119.5t72.5 165t42.5 181.5l126 714h218l-142 -803q-33 -190 -115.5 -330.5
t-215 -217.5t-315.5 -77zM925 1576l178 303h208l-245 -303h-141zM641 1576l166 303h208l-233 -303h-141z" />
    <glyph glyph-name="uni0216" unicode="&#x216;" horiz-adv-x="1359" 
d="M572 -28q-226 0 -335 117.5t-109 325.5q0 29 4 80.5t13 101.5l142 803h218l-126 -714q-10 -53 -16.5 -109.5t-6.5 -104.5q1 -86 23.5 -153t77 -105.5t150.5 -38.5q105 0 176.5 45t117.5 119.5t72.5 165t42.5 181.5l126 714h218l-142 -803q-33 -190 -115.5 -330.5
t-215 -217.5t-315.5 -77zM562 1559q12 67 56 124t115.5 92t168.5 35q130 0 192.5 -60t62.5 -146q0 -11 -1 -22t-3 -23h-164q2 15 2 27q0 47 -31 70.5t-81 23.5q-56 0 -98.5 -30t-53.5 -91h-165z" />
    <glyph glyph-name="Umacron" unicode="&#x16a;" horiz-adv-x="1359" 
d="M572 -28q-226 0 -335 117.5t-109 325.5q0 29 4 80.5t13 101.5l142 803h218l-126 -714q-10 -53 -16.5 -109.5t-6.5 -104.5q1 -86 23.5 -153t77 -105.5t150.5 -38.5q105 0 176.5 45t117.5 119.5t72.5 165t42.5 181.5l126 714h218l-142 -803q-33 -190 -115.5 -330.5
t-215 -217.5t-315.5 -77zM542 1586l26 143h635l-25 -143h-636z" />
    <glyph glyph-name="uni1E7A" unicode="&#x1e7a;" horiz-adv-x="1359" 
d="M572 -28q-226 0 -335 117.5t-109 325.5q0 29 4 80.5t13 101.5l142 803h218l-126 -714q-10 -53 -16.5 -109.5t-6.5 -104.5q1 -86 23.5 -153t77 -105.5t150.5 -38.5q105 0 176.5 45t117.5 119.5t72.5 165t42.5 181.5l126 714h218l-142 -803q-33 -190 -115.5 -330.5
t-215 -217.5t-315.5 -77zM542 1586l26 143h635l-25 -143h-636zM1029 1898l30 159h176l-30 -159h-176zM651 1898l30 159h176l-30 -159h-176z" />
    <glyph glyph-name="Uogonek" unicode="&#x172;" horiz-adv-x="1359" 
d="M572 -28q-226 0 -335 117.5t-109 325.5q0 29 4 80.5t13 101.5l142 803h218l-126 -714q-10 -53 -16.5 -109.5t-6.5 -104.5q1 -86 23.5 -153t77 -105.5t150.5 -38.5q105 0 176.5 45t117.5 119.5t72.5 165t42.5 181.5l126 714h218l-142 -803q-33 -190 -115.5 -330.5
t-215 -217.5t-315.5 -77zM635 10l103 -10q-47 -32 -91.5 -68.5t-73.5 -78t-29 -87.5q0 -74 74 -74q33 0 61 7.5t58 22.5l13 -103q-30 -15 -71.5 -26.5t-94.5 -11.5q-73 0 -121 36.5t-48 102.5q0 86 67 162t153 128z" />
    <glyph glyph-name="Uring" unicode="&#x16e;" horiz-adv-x="1359" 
d="M572 -28q-226 0 -335 117.5t-109 325.5q0 29 4 80.5t13 101.5l142 803h218l-126 -714q-10 -53 -16.5 -109.5t-6.5 -104.5q1 -86 23.5 -153t77 -105.5t150.5 -38.5q105 0 176.5 45t117.5 119.5t72.5 165t42.5 181.5l126 714h218l-142 -803q-33 -190 -115.5 -330.5
t-215 -217.5t-315.5 -77zM853 1511q-87 0 -130.5 46.5t-43.5 113.5q0 64 32 116.5t85 83.5t116 31q87 0 130 -47.5t43 -113.5q0 -64 -31 -116t-84 -83t-117 -31zM864 1606q47 0 79.5 36.5t31.5 82.5q0 37 -21 59t-54 22q-44 0 -78 -35.5t-34 -83.5q0 -38 22 -59.5t54 -21.5z
" />
    <glyph glyph-name="Utilde" unicode="&#x168;" horiz-adv-x="1359" 
d="M572 -28q-226 0 -335 117.5t-109 325.5q0 29 4 80.5t13 101.5l142 803h218l-126 -714q-10 -53 -16.5 -109.5t-6.5 -104.5q1 -86 23.5 -153t77 -105.5t150.5 -38.5q105 0 176.5 45t117.5 119.5t72.5 165t42.5 181.5l126 714h218l-142 -803q-33 -190 -115.5 -330.5
t-215 -217.5t-315.5 -77zM1029 1570q-44 0 -90 22t-90 43.5t-81 21.5q-32 0 -52 -19t-27 -52h-149q22 113 75.5 172t133.5 59q47 0 90 -22t83.5 -43.5t79.5 -21.5q32 0 51 19t25 58h153q-24 -123 -74 -180t-128 -57z" />
    <glyph glyph-name="uni1E78" unicode="&#x1e78;" horiz-adv-x="1359" 
d="M572 -28q-226 0 -335 117.5t-109 325.5q0 29 4 80.5t13 101.5l142 803h218l-126 -714q-10 -53 -16.5 -109.5t-6.5 -104.5q1 -86 23.5 -153t77 -105.5t150.5 -38.5q105 0 176.5 45t117.5 119.5t72.5 165t42.5 181.5l126 714h218l-142 -803q-33 -190 -115.5 -330.5
t-215 -217.5t-315.5 -77zM1013 1567q-44 0 -90.5 19.5t-90 38.5t-78.5 19q-25 0 -44 -15.5t-23 -49.5h-139q18 100 67 152t124 52q44 0 89.5 -19t89 -38.5t80.5 -19.5q26 0 44 17.5t23 49.5h139q-15 -102 -65.5 -154t-125.5 -52zM747 1866l19 137l361 190l-32 -211z" />
    <glyph glyph-name="V" unicode="V" horiz-adv-x="1226" 
d="M374 0l-228 1400h228l192 -1238l-59 9l613 1229h227l-717 -1400h-256z" />
    <glyph glyph-name="W" unicode="W" horiz-adv-x="1816" 
d="M298 0l-117 1400h228l75 -1190l-47 9l524 1165h187l116 -1161l-49 7l491 1170h227l-626 -1400h-204l-118 1155l52 -9l-525 -1146h-214z" />
    <glyph glyph-name="Wacute" unicode="&#x1e82;" horiz-adv-x="1816" 
d="M298 0l-117 1400h228l75 -1190l-47 9l524 1165h187l116 -1161l-49 7l491 1170h227l-626 -1400h-204l-118 1155l52 -9l-525 -1146h-214zM915 1524l19 137l361 190l-32 -211z" />
    <glyph glyph-name="Wcircumflex" unicode="&#x174;" horiz-adv-x="1816" 
d="M298 0l-117 1400h228l75 -1190l-47 9l524 1165h187l116 -1161l-49 7l491 1170h227l-626 -1400h-204l-118 1155l52 -9l-525 -1146h-214zM1332 1500l-235 137l-236 -113l23 133l245 157l225 -181z" />
    <glyph glyph-name="Wdieresis" unicode="&#x1e84;" horiz-adv-x="1816" 
d="M298 0l-117 1400h228l75 -1190l-47 9l524 1165h187l116 -1161l-49 7l491 1170h227l-626 -1400h-204l-118 1155l52 -9l-525 -1146h-214zM1186 1579l30 159h176l-30 -159h-176zM808 1579l30 159h176l-30 -159h-176z" />
    <glyph glyph-name="Wgrave" unicode="&#x1e80;" horiz-adv-x="1816" 
d="M298 0l-117 1400h228l75 -1190l-47 9l524 1165h187l116 -1161l-49 7l491 1170h227l-626 -1400h-204l-118 1155l52 -9l-525 -1146h-214zM1256 1524l-341 116l37 199l329 -190z" />
    <glyph glyph-name="X" unicode="X" horiz-adv-x="1170" 
d="M-86 0l594 755l93 -168l-442 -587h-245zM720 726l333 -726h-245l-243 564l-80 138l-310 698h252l219 -549zM702 680l-86 154l421 566h245z" />
    <glyph glyph-name="Y" unicode="Y" horiz-adv-x="1140" 
d="M350 0l128 731l20 -187l-346 856h230l264 -664l-94 13l479 651h230l-638 -843l77 174l-130 -731h-220z" />
    <glyph glyph-name="Yacute" unicode="&#xdd;" horiz-adv-x="1140" 
d="M350 0l128 731l20 -187l-346 856h230l264 -664l-94 13l479 651h230l-638 -843l77 174l-130 -731h-220zM564 1558l28 148l382 212l-36 -234z" />
    <glyph glyph-name="Ycircumflex" unicode="&#x176;" horiz-adv-x="1140" 
d="M350 0l128 731l20 -187l-346 856h230l264 -664l-94 13l479 651h230l-638 -843l77 174l-130 -731h-220zM983 1500l-235 137l-236 -113l23 133l245 157l225 -181z" />
    <glyph glyph-name="Ydieresis" unicode="&#x178;" horiz-adv-x="1140" 
d="M350 0l128 731l20 -187l-346 856h230l264 -664l-94 13l479 651h230l-638 -843l77 174l-130 -731h-220zM464 1594l33 168h177l-34 -168h-176zM846 1594l34 168h176l-33 -168h-177z" />
    <glyph glyph-name="uni1E8E" unicode="&#x1e8e;" horiz-adv-x="1140" 
d="M350 0l128 731l20 -187l-346 856h230l264 -664l-94 13l479 651h230l-638 -843l77 174l-130 -731h-220zM641 1583l33 186h195l-33 -186h-195z" />
    <glyph glyph-name="uni1EF4" unicode="&#x1ef4;" horiz-adv-x="1140" 
d="M350 0l128 731l20 -187l-346 856h230l264 -664l-94 13l479 651h230l-638 -843l77 174l-130 -731h-220zM303 -348l36 186h191l-36 -186h-191z" />
    <glyph glyph-name="Ygrave" unicode="&#x1ef2;" horiz-adv-x="1140" 
d="M350 0l128 731l20 -187l-346 856h230l264 -664l-94 13l479 651h230l-638 -843l77 174l-130 -731h-220zM915 1559l-339 144l37 210l326 -217z" />
    <glyph glyph-name="uni1EF6" unicode="&#x1ef6;" horiz-adv-x="1140" 
d="M350 0l128 731l20 -187l-346 856h230l264 -664l-94 13l479 651h230l-638 -843l77 174l-130 -731h-220zM693 1539q47 37 81 70.5t34 76.5q0 54 -66 54q-31 0 -64 -10.5t-67 -26.5l-14 109q39 17 80.5 27t86.5 10q71 0 119.5 -35.5t48.5 -101.5q0 -80 -52.5 -136.5
t-128.5 -105.5z" />
    <glyph glyph-name="uni0232" unicode="&#x232;" horiz-adv-x="1140" 
d="M350 0l128 731l20 -187l-346 856h230l264 -664l-94 13l479 651h230l-638 -843l77 174l-130 -731h-220zM421 1586l26 143h635l-25 -143h-636z" />
    <glyph glyph-name="uni1EF8" unicode="&#x1ef8;" horiz-adv-x="1140" 
d="M350 0l128 731l20 -187l-346 856h230l264 -664l-94 13l479 651h230l-638 -843l77 174l-130 -731h-220zM907 1570q-44 0 -90 22t-90 43.5t-81 21.5q-32 0 -52 -19t-27 -52h-149q22 113 75.5 172t133.5 59q47 0 90 -22t83.5 -43.5t79.5 -21.5q32 0 51 19t25 58h153
q-24 -123 -74 -180t-128 -57z" />
    <glyph glyph-name="Z" unicode="Z" horiz-adv-x="1031" 
d="M-80 0l893 1276l42 -80h-641l36 204h903l-895 -1276l-41 80h641l-36 -204h-902z" />
    <glyph glyph-name="Zacute" unicode="&#x179;" horiz-adv-x="1031" 
d="M-80 0l893 1276l42 -80h-641l36 204h903l-895 -1276l-41 80h641l-36 -204h-902zM562 1524l19 137l361 190l-32 -211z" />
    <glyph glyph-name="Zcaron" unicode="&#x17d;" horiz-adv-x="1031" 
d="M-80 0l893 1276l42 -80h-641l36 204h903l-895 -1276l-41 80h641l-36 -204h-902zM726 1529l-214 222l28 137l225 -163l278 163l-27 -161z" />
    <glyph glyph-name="Zdotaccent" unicode="&#x17b;" horiz-adv-x="1031" 
d="M-80 0l893 1276l42 -80h-641l36 204h903l-895 -1276l-41 80h641l-36 -204h-902zM637 1583l33 186h195l-33 -186h-195z" />
    <glyph glyph-name="uni1E92" unicode="&#x1e92;" horiz-adv-x="1031" 
d="M-80 0l893 1276l42 -80h-641l36 204h903l-895 -1276l-41 80h641l-36 -204h-902zM214 -348l36 186h191l-36 -186h-191z" />
    <glyph glyph-name="Iacute_J.loclNLD" horiz-adv-x="1364" 
d="M572 -28q-222 0 -330.5 113t-113.5 313l228 53q3 -80 27 -142.5t78 -98t146 -35.5q105 0 176.5 45t117.5 119.5t72.5 165t42.5 181.5l126 714h218l-142 -803q-33 -190 -115.5 -330.5t-215 -217.5t-315.5 -77zM144 592l143 808h218l-127 -714q-4 -23 -7.5 -47t-6.5 -47
h-220zM248 1524l19 137l361 190l-32 -211zM1110 1524l19 137l361 190l-32 -211z" />
    <glyph glyph-name="a" unicode="a" horiz-adv-x="1117" 
d="M384 -20q-106 0 -183.5 51t-119.5 141.5t-42 209.5q0 118 38.5 229.5t109.5 201t169.5 142t218.5 52.5q58 0 108.5 -16t91 -54t66.5 -104l-71 -26l68 181h184l-117 -689q-8 -47 -8 -77q0 -46 21 -59.5t75 -13.5l-53 -169q-69 0 -115.5 6t-77 27.5t-50 65.5t-33.5 120
l61 -41q-39 -50 -89 -90.5t-112.5 -64t-139.5 -23.5zM454 159q68 0 122.5 32t93.5 89t59.5 130.5t20.5 156.5q0 131 -51.5 196t-142.5 65q-87 0 -154.5 -56.5t-106 -150t-38.5 -203.5q0 -111 46.5 -185t150.5 -74z" />
    <glyph glyph-name="aacute" unicode="&#xe1;" horiz-adv-x="1117" 
d="M384 -20q-106 0 -183.5 51t-119.5 141.5t-42 209.5q0 118 38.5 229.5t109.5 201t169.5 142t218.5 52.5q58 0 108.5 -16t91 -54t66.5 -104l-71 -26l68 181h184l-117 -689q-8 -47 -8 -77q0 -46 21 -59.5t75 -13.5l-53 -169q-69 0 -115.5 6t-77 27.5t-50 65.5t-33.5 120
l61 -41q-39 -50 -89 -90.5t-112.5 -64t-139.5 -23.5zM454 159q68 0 122.5 32t93.5 89t59.5 130.5t20.5 156.5q0 131 -51.5 196t-142.5 65q-87 0 -154.5 -56.5t-106 -150t-38.5 -203.5q0 -111 46.5 -185t150.5 -74zM510 1146l28 148l382 212l-36 -234z" />
    <glyph glyph-name="abreve" unicode="&#x103;" horiz-adv-x="1117" 
d="M384 -20q-106 0 -183.5 51t-119.5 141.5t-42 209.5q0 118 38.5 229.5t109.5 201t169.5 142t218.5 52.5q58 0 108.5 -16t91 -54t66.5 -104l-71 -26l68 181h184l-117 -689q-8 -47 -8 -77q0 -46 21 -59.5t75 -13.5l-53 -169q-69 0 -115.5 6t-77 27.5t-50 65.5t-33.5 120
l61 -41q-39 -50 -89 -90.5t-112.5 -64t-139.5 -23.5zM454 159q68 0 122.5 32t93.5 89t59.5 130.5t20.5 156.5q0 131 -51.5 196t-142.5 65q-87 0 -154.5 -56.5t-106 -150t-38.5 -203.5q0 -111 46.5 -185t150.5 -74zM699 1161q-128 0 -192 62t-64 149q0 14 1.5 27.5t5.5 26.5
h157q-2 -7 -3.5 -16t-1.5 -18q0 -44 30 -67.5t81 -23.5q57 0 99.5 32t53.5 93h172q-22 -114 -107.5 -189.5t-231.5 -75.5z" />
    <glyph glyph-name="uni1EAF" unicode="&#x1eaf;" horiz-adv-x="1117" 
d="M384 -20q-106 0 -183.5 51t-119.5 141.5t-42 209.5q0 118 38.5 229.5t109.5 201t169.5 142t218.5 52.5q58 0 108.5 -16t91 -54t66.5 -104l-71 -26l68 181h184l-117 -689q-8 -47 -8 -77q0 -46 21 -59.5t75 -13.5l-53 -169q-69 0 -115.5 6t-77 27.5t-50 65.5t-33.5 120
l61 -41q-39 -50 -89 -90.5t-112.5 -64t-139.5 -23.5zM454 159q68 0 122.5 32t93.5 89t59.5 130.5t20.5 156.5q0 131 -51.5 196t-142.5 65q-87 0 -154.5 -56.5t-106 -150t-38.5 -203.5q0 -111 46.5 -185t150.5 -74zM692 1117q-132 0 -196 61t-64 145q0 11 1.5 22.5t2.5 22.5
h164q-1 -6 -2 -13.5t-1 -14.5q0 -46 32 -70t83 -24q57 0 101 31t54 91h166q-18 -111 -106 -181t-235 -70zM609 1451l20 138l361 190l-32 -212z" />
    <glyph glyph-name="uni1EB7" unicode="&#x1eb7;" horiz-adv-x="1117" 
d="M384 -20q-106 0 -183.5 51t-119.5 141.5t-42 209.5q0 118 38.5 229.5t109.5 201t169.5 142t218.5 52.5q58 0 108.5 -16t91 -54t66.5 -104l-71 -26l68 181h184l-117 -689q-8 -47 -8 -77q0 -46 21 -59.5t75 -13.5l-53 -169q-69 0 -115.5 6t-77 27.5t-50 65.5t-33.5 120
l61 -41q-39 -50 -89 -90.5t-112.5 -64t-139.5 -23.5zM454 159q68 0 122.5 32t93.5 89t59.5 130.5t20.5 156.5q0 131 -51.5 196t-142.5 65q-87 0 -154.5 -56.5t-106 -150t-38.5 -203.5q0 -111 46.5 -185t150.5 -74zM699 1161q-128 0 -192 62t-64 149q0 14 1.5 27.5t5.5 26.5
h157q-2 -7 -3.5 -16t-1.5 -18q0 -44 30 -67.5t81 -23.5q57 0 99.5 32t53.5 93h172q-22 -114 -107.5 -189.5t-231.5 -75.5zM264 -348l36 186h191l-36 -186h-191z" />
    <glyph glyph-name="uni1EB1" unicode="&#x1eb1;" horiz-adv-x="1117" 
d="M384 -20q-106 0 -183.5 51t-119.5 141.5t-42 209.5q0 118 38.5 229.5t109.5 201t169.5 142t218.5 52.5q58 0 108.5 -16t91 -54t66.5 -104l-71 -26l68 181h184l-117 -689q-8 -47 -8 -77q0 -46 21 -59.5t75 -13.5l-53 -169q-69 0 -115.5 6t-77 27.5t-50 65.5t-33.5 120
l61 -41q-39 -50 -89 -90.5t-112.5 -64t-139.5 -23.5zM454 159q68 0 122.5 32t93.5 89t59.5 130.5t20.5 156.5q0 131 -51.5 196t-142.5 65q-87 0 -154.5 -56.5t-106 -150t-38.5 -203.5q0 -111 46.5 -185t150.5 -74zM681 1116q-132 0 -196 61t-64 145q0 11 1.5 22.5t2.5 22.5
h164q-1 -6 -2 -13.5t-1 -14.5q0 -46 32 -70t83 -24q57 0 101 31t54 91h166q-18 -111 -106 -181t-235 -70zM940 1450l-341 116l36 200l330 -190z" />
    <glyph glyph-name="uni1EB3" unicode="&#x1eb3;" horiz-adv-x="1117" 
d="M384 -20q-106 0 -183.5 51t-119.5 141.5t-42 209.5q0 118 38.5 229.5t109.5 201t169.5 142t218.5 52.5q58 0 108.5 -16t91 -54t66.5 -104l-71 -26l68 181h184l-117 -689q-8 -47 -8 -77q0 -46 21 -59.5t75 -13.5l-53 -169q-69 0 -115.5 6t-77 27.5t-50 65.5t-33.5 120
l61 -41q-39 -50 -89 -90.5t-112.5 -64t-139.5 -23.5zM454 159q68 0 122.5 32t93.5 89t59.5 130.5t20.5 156.5q0 131 -51.5 196t-142.5 65q-87 0 -154.5 -56.5t-106 -150t-38.5 -203.5q0 -111 46.5 -185t150.5 -74zM708 1125q-132 0 -196 61t-64 145q0 11 1.5 22.5t2.5 22.5
h164q-1 -6 -2 -13.5t-1 -14.5q0 -46 32 -70t83 -24q57 0 101 31t54 91h166q-18 -111 -106 -181t-235 -70zM766 1407l-5 83q41 13 62.5 33t21.5 48q0 53 -69 53q-29 0 -60.5 -9.5t-63.5 -24.5l-15 111q37 16 78.5 25t85.5 9q73 0 120.5 -35t47.5 -100q0 -77 -55 -124.5
t-148 -68.5z" />
    <glyph glyph-name="uni1EB5" unicode="&#x1eb5;" horiz-adv-x="1117" 
d="M384 -20q-106 0 -183.5 51t-119.5 141.5t-42 209.5q0 118 38.5 229.5t109.5 201t169.5 142t218.5 52.5q58 0 108.5 -16t91 -54t66.5 -104l-71 -26l68 181h184l-117 -689q-8 -47 -8 -77q0 -46 21 -59.5t75 -13.5l-53 -169q-69 0 -115.5 6t-77 27.5t-50 65.5t-33.5 120
l61 -41q-39 -50 -89 -90.5t-112.5 -64t-139.5 -23.5zM454 159q68 0 122.5 32t93.5 89t59.5 130.5t20.5 156.5q0 131 -51.5 196t-142.5 65q-87 0 -154.5 -56.5t-106 -150t-38.5 -203.5q0 -111 46.5 -185t150.5 -74zM702 1117q-131 0 -195.5 61t-64.5 145q0 11 1.5 22.5
t2.5 22.5h164q-1 -6 -2 -13.5t-1 -14.5q0 -46 32 -70t83 -24q57 0 101.5 31t54.5 91h166q-19 -111 -107 -181t-235 -70zM932 1463q-43 0 -90 19.5t-90.5 38.5t-78.5 19q-25 0 -44 -15.5t-23 -49.5h-139q18 100 67 152t124 52q44 0 89.5 -19t89 -38.5t80.5 -19.5
q26 0 44 17.5t23 49.5h139q-15 -102 -65.5 -154t-125.5 -52z" />
    <glyph glyph-name="acircumflex" unicode="&#xe2;" horiz-adv-x="1117" 
d="M384 -20q-106 0 -183.5 51t-119.5 141.5t-42 209.5q0 118 38.5 229.5t109.5 201t169.5 142t218.5 52.5q58 0 108.5 -16t91 -54t66.5 -104l-71 -26l68 181h184l-117 -689q-8 -47 -8 -77q0 -46 21 -59.5t75 -13.5l-53 -169q-69 0 -115.5 6t-77 27.5t-50 65.5t-33.5 120
l61 -41q-39 -50 -89 -90.5t-112.5 -64t-139.5 -23.5zM454 159q68 0 122.5 32t93.5 89t59.5 130.5t20.5 156.5q0 131 -51.5 196t-142.5 65q-87 0 -154.5 -56.5t-106 -150t-38.5 -203.5q0 -111 46.5 -185t150.5 -74zM457 1141l32 143l259 194l215 -221l-28 -137l-225 162z" />
    <glyph glyph-name="uni1EA5" unicode="&#x1ea5;" horiz-adv-x="1117" 
d="M384 -20q-106 0 -183.5 51t-119.5 141.5t-42 209.5q0 118 38.5 229.5t109.5 201t169.5 142t218.5 52.5q58 0 108.5 -16t91 -54t66.5 -104l-71 -26l68 181h184l-117 -689q-8 -47 -8 -77q0 -46 21 -59.5t75 -13.5l-53 -169q-69 0 -115.5 6t-77 27.5t-50 65.5t-33.5 120
l61 -41q-39 -50 -89 -90.5t-112.5 -64t-139.5 -23.5zM454 159q68 0 122.5 32t93.5 89t59.5 130.5t20.5 156.5q0 131 -51.5 196t-142.5 65q-87 0 -154.5 -56.5t-106 -150t-38.5 -203.5q0 -111 46.5 -185t150.5 -74zM931 1096l-235 137l-236 -113l23 133l245 158l225 -182z
M845 1392l158 229h208l-226 -229h-140z" />
    <glyph glyph-name="uni1EAD" unicode="&#x1ead;" horiz-adv-x="1117" 
d="M384 -20q-106 0 -183.5 51t-119.5 141.5t-42 209.5q0 118 38.5 229.5t109.5 201t169.5 142t218.5 52.5q58 0 108.5 -16t91 -54t66.5 -104l-71 -26l68 181h184l-117 -689q-8 -47 -8 -77q0 -46 21 -59.5t75 -13.5l-53 -169q-69 0 -115.5 6t-77 27.5t-50 65.5t-33.5 120
l61 -41q-39 -50 -89 -90.5t-112.5 -64t-139.5 -23.5zM454 159q68 0 122.5 32t93.5 89t59.5 130.5t20.5 156.5q0 131 -51.5 196t-142.5 65q-87 0 -154.5 -56.5t-106 -150t-38.5 -203.5q0 -111 46.5 -185t150.5 -74zM457 1141l32 143l259 194l215 -221l-28 -137l-225 162z
M264 -348l36 186h191l-36 -186h-191z" />
    <glyph glyph-name="uni1EA7" unicode="&#x1ea7;" horiz-adv-x="1117" 
d="M384 -20q-106 0 -183.5 51t-119.5 141.5t-42 209.5q0 118 38.5 229.5t109.5 201t169.5 142t218.5 52.5q58 0 108.5 -16t91 -54t66.5 -104l-71 -26l68 181h184l-117 -689q-8 -47 -8 -77q0 -46 21 -59.5t75 -13.5l-53 -169q-69 0 -115.5 6t-77 27.5t-50 65.5t-33.5 120
l61 -41q-39 -50 -89 -90.5t-112.5 -64t-139.5 -23.5zM454 159q68 0 122.5 32t93.5 89t59.5 130.5t20.5 156.5q0 131 -51.5 196t-142.5 65q-87 0 -154.5 -56.5t-106 -150t-38.5 -203.5q0 -111 46.5 -185t150.5 -74zM930 1096l-235 137l-236 -113l23 133l245 158l225 -182z
M851 1392l-128 243h200l66 -243h-138z" />
    <glyph glyph-name="uni1EA9" unicode="&#x1ea9;" horiz-adv-x="1117" 
d="M384 -20q-106 0 -183.5 51t-119.5 141.5t-42 209.5q0 118 38.5 229.5t109.5 201t169.5 142t218.5 52.5q58 0 108.5 -16t91 -54t66.5 -104l-71 -26l68 181h184l-117 -689q-8 -47 -8 -77q0 -46 21 -59.5t75 -13.5l-53 -169q-69 0 -115.5 6t-77 27.5t-50 65.5t-33.5 120
l61 -41q-39 -50 -89 -90.5t-112.5 -64t-139.5 -23.5zM454 159q68 0 122.5 32t93.5 89t59.5 130.5t20.5 156.5q0 131 -51.5 196t-142.5 65q-87 0 -154.5 -56.5t-106 -150t-38.5 -203.5q0 -111 46.5 -185t150.5 -74zM929 1088l-235 137l-236 -113l23 133l245 157l225 -181z
M882 1332l-5 84q84 24 84 81q0 53 -69 53q-29 0 -60.5 -9.5t-63.5 -24.5l-15 110q37 17 78.5 26t85.5 9q73 0 121 -35t48 -100q0 -77 -55 -124.5t-149 -69.5z" />
    <glyph glyph-name="uni1EAB" unicode="&#x1eab;" horiz-adv-x="1117" 
d="M384 -20q-106 0 -183.5 51t-119.5 141.5t-42 209.5q0 118 38.5 229.5t109.5 201t169.5 142t218.5 52.5q58 0 108.5 -16t91 -54t66.5 -104l-71 -26l68 181h184l-117 -689q-8 -47 -8 -77q0 -46 21 -59.5t75 -13.5l-53 -169q-69 0 -115.5 6t-77 27.5t-50 65.5t-33.5 120
l61 -41q-39 -50 -89 -90.5t-112.5 -64t-139.5 -23.5zM454 159q68 0 122.5 32t93.5 89t59.5 130.5t20.5 156.5q0 131 -51.5 196t-142.5 65q-87 0 -154.5 -56.5t-106 -150t-38.5 -203.5q0 -111 46.5 -185t150.5 -74zM929 1088l-235 137l-236 -113l23 133l245 157l225 -181z
M899 1460q-43 0 -90 19.5t-90.5 38.5t-77.5 19q-25 0 -44 -15.5t-24 -49.5h-139q18 100 67 152t124 52q44 0 90 -19t89 -38.5t80 -19.5q57 0 67 67h140q-16 -102 -66 -154t-126 -52z" />
    <glyph glyph-name="uni0201" unicode="&#x201;" horiz-adv-x="1117" 
d="M384 -20q-106 0 -183.5 51t-119.5 141.5t-42 209.5q0 118 38.5 229.5t109.5 201t169.5 142t218.5 52.5q58 0 108.5 -16t91 -54t66.5 -104l-71 -26l68 181h184l-117 -689q-8 -47 -8 -77q0 -46 21 -59.5t75 -13.5l-53 -169q-69 0 -115.5 6t-77 27.5t-50 65.5t-33.5 120
l61 -41q-39 -50 -89 -90.5t-112.5 -64t-139.5 -23.5zM454 159q68 0 122.5 32t93.5 89t59.5 130.5t20.5 156.5q0 131 -51.5 196t-142.5 65q-87 0 -154.5 -56.5t-106 -150t-38.5 -203.5q0 -111 46.5 -185t150.5 -74zM902 1164h-143l-136 343h210zM617 1164h-143l-149 343h211z
" />
    <glyph glyph-name="adieresis" unicode="&#xe4;" horiz-adv-x="1117" 
d="M384 -20q-106 0 -183.5 51t-119.5 141.5t-42 209.5q0 118 38.5 229.5t109.5 201t169.5 142t218.5 52.5q58 0 108.5 -16t91 -54t66.5 -104l-71 -26l68 181h184l-117 -689q-8 -47 -8 -77q0 -46 21 -59.5t75 -13.5l-53 -169q-69 0 -115.5 6t-77 27.5t-50 65.5t-33.5 120
l61 -41q-39 -50 -89 -90.5t-112.5 -64t-139.5 -23.5zM454 159q68 0 122.5 32t93.5 89t59.5 130.5t20.5 156.5q0 131 -51.5 196t-142.5 65q-87 0 -154.5 -56.5t-106 -150t-38.5 -203.5q0 -111 46.5 -185t150.5 -74zM410 1182l33 168h177l-34 -168h-176zM792 1182l34 168h176
l-33 -168h-177z" />
    <glyph glyph-name="uni1EA1" unicode="&#x1ea1;" horiz-adv-x="1117" 
d="M384 -20q-106 0 -183.5 51t-119.5 141.5t-42 209.5q0 118 38.5 229.5t109.5 201t169.5 142t218.5 52.5q58 0 108.5 -16t91 -54t66.5 -104l-71 -26l68 181h184l-117 -689q-8 -47 -8 -77q0 -46 21 -59.5t75 -13.5l-53 -169q-69 0 -115.5 6t-77 27.5t-50 65.5t-33.5 120
l61 -41q-39 -50 -89 -90.5t-112.5 -64t-139.5 -23.5zM454 159q68 0 122.5 32t93.5 89t59.5 130.5t20.5 156.5q0 131 -51.5 196t-142.5 65q-87 0 -154.5 -56.5t-106 -150t-38.5 -203.5q0 -111 46.5 -185t150.5 -74zM264 -348l36 186h191l-36 -186h-191z" />
    <glyph glyph-name="agrave" unicode="&#xe0;" horiz-adv-x="1117" 
d="M384 -20q-106 0 -183.5 51t-119.5 141.5t-42 209.5q0 118 38.5 229.5t109.5 201t169.5 142t218.5 52.5q58 0 108.5 -16t91 -54t66.5 -104l-71 -26l68 181h184l-117 -689q-8 -47 -8 -77q0 -46 21 -59.5t75 -13.5l-53 -169q-69 0 -115.5 6t-77 27.5t-50 65.5t-33.5 120
l61 -41q-39 -50 -89 -90.5t-112.5 -64t-139.5 -23.5zM454 159q68 0 122.5 32t93.5 89t59.5 130.5t20.5 156.5q0 131 -51.5 196t-142.5 65q-87 0 -154.5 -56.5t-106 -150t-38.5 -203.5q0 -111 46.5 -185t150.5 -74zM861 1147l-339 144l37 210l326 -217z" />
    <glyph glyph-name="uni1EA3" unicode="&#x1ea3;" horiz-adv-x="1117" 
d="M384 -20q-106 0 -183.5 51t-119.5 141.5t-42 209.5q0 118 38.5 229.5t109.5 201t169.5 142t218.5 52.5q58 0 108.5 -16t91 -54t66.5 -104l-71 -26l68 181h184l-117 -689q-8 -47 -8 -77q0 -46 21 -59.5t75 -13.5l-53 -169q-69 0 -115.5 6t-77 27.5t-50 65.5t-33.5 120
l61 -41q-39 -50 -89 -90.5t-112.5 -64t-139.5 -23.5zM454 159q68 0 122.5 32t93.5 89t59.5 130.5t20.5 156.5q0 131 -51.5 196t-142.5 65q-87 0 -154.5 -56.5t-106 -150t-38.5 -203.5q0 -111 46.5 -185t150.5 -74zM638 1127q47 37 81 70.5t34 76.5q0 54 -66 54
q-31 0 -64 -10.5t-67 -26.5l-14 109q39 17 80.5 27t86.5 10q71 0 119.5 -35.5t48.5 -101.5q0 -80 -52.5 -136.5t-128.5 -105.5z" />
    <glyph glyph-name="uni0203" unicode="&#x203;" horiz-adv-x="1117" 
d="M384 -20q-106 0 -183.5 51t-119.5 141.5t-42 209.5q0 118 38.5 229.5t109.5 201t169.5 142t218.5 52.5q58 0 108.5 -16t91 -54t66.5 -104l-71 -26l68 181h184l-117 -689q-8 -47 -8 -77q0 -46 21 -59.5t75 -13.5l-53 -169q-69 0 -115.5 6t-77 27.5t-50 65.5t-33.5 120
l61 -41q-39 -50 -89 -90.5t-112.5 -64t-139.5 -23.5zM454 159q68 0 122.5 32t93.5 89t59.5 130.5t20.5 156.5q0 131 -51.5 196t-142.5 65q-87 0 -154.5 -56.5t-106 -150t-38.5 -203.5q0 -111 46.5 -185t150.5 -74zM726 1426q131 0 194 -63.5t63 -153.5q0 -12 -1 -23.5
t-3 -24.5h-161q2 8 2 14.5v12.5q0 48 -31.5 73t-83.5 25q-58 0 -102 -31.5t-55 -93.5h-166q12 71 56.5 131t117.5 97t170 37z" />
    <glyph glyph-name="amacron" unicode="&#x101;" horiz-adv-x="1117" 
d="M384 -20q-106 0 -183.5 51t-119.5 141.5t-42 209.5q0 118 38.5 229.5t109.5 201t169.5 142t218.5 52.5q58 0 108.5 -16t91 -54t66.5 -104l-71 -26l68 181h184l-117 -689q-8 -47 -8 -77q0 -46 21 -59.5t75 -13.5l-53 -169q-69 0 -115.5 6t-77 27.5t-50 65.5t-33.5 120
l61 -41q-39 -50 -89 -90.5t-112.5 -64t-139.5 -23.5zM454 159q68 0 122.5 32t93.5 89t59.5 130.5t20.5 156.5q0 131 -51.5 196t-142.5 65q-87 0 -154.5 -56.5t-106 -150t-38.5 -203.5q0 -111 46.5 -185t150.5 -74zM377 1190l29 150h631l-30 -150h-630z" />
    <glyph glyph-name="aogonek" unicode="&#x105;" horiz-adv-x="1117" 
d="M384 -20q-106 0 -183.5 51t-119.5 141.5t-42 209.5q0 118 38.5 229.5t109.5 201t169.5 142t218.5 52.5q58 0 108.5 -16t91 -54t66.5 -104l-71 -26l68 181h184l-117 -689q-8 -47 -8 -77q0 -46 21 -59.5t75 -13.5l-53 -169q-69 0 -115.5 6t-77 27.5t-50 65.5t-33.5 120
l61 -41q-39 -50 -89 -90.5t-112.5 -64t-139.5 -23.5zM454 159q68 0 122.5 32t93.5 89t59.5 130.5t20.5 156.5q0 131 -51.5 196t-142.5 65q-87 0 -154.5 -56.5t-106 -150t-38.5 -203.5q0 -111 46.5 -185t150.5 -74zM800 10l103 -10q-47 -32 -91.5 -68.5t-73.5 -78t-29 -87.5
q0 -74 74 -74q33 0 61 7.5t58 22.5l13 -103q-30 -15 -71.5 -26.5t-94.5 -11.5q-73 0 -121 36.5t-48 102.5q0 86 67 162t153 128z" />
    <glyph glyph-name="aring" unicode="&#xe5;" horiz-adv-x="1117" 
d="M384 -20q-106 0 -183.5 51t-119.5 141.5t-42 209.5q0 118 38.5 229.5t109.5 201t169.5 142t218.5 52.5q58 0 108.5 -16t91 -54t66.5 -104l-71 -26l68 181h184l-117 -689q-8 -47 -8 -77q0 -46 21 -59.5t75 -13.5l-53 -169q-69 0 -115.5 6t-77 27.5t-50 65.5t-33.5 120
l61 -41q-39 -50 -89 -90.5t-112.5 -64t-139.5 -23.5zM454 159q68 0 122.5 32t93.5 89t59.5 130.5t20.5 156.5q0 131 -51.5 196t-142.5 65q-87 0 -154.5 -56.5t-106 -150t-38.5 -203.5q0 -111 46.5 -185t150.5 -74zM680 1138q-85 0 -128.5 46t-43.5 111q0 66 33.5 120
t89.5 86t123 32q85 0 128.5 -45.5t43.5 -111.5t-33 -120.5t-88.5 -86t-124.5 -31.5zM697 1232q48 0 83 37t35 87q0 37 -22 59.5t-56 22.5q-47 0 -82 -37.5t-35 -87.5q0 -37 22 -59t55 -22z" />
    <glyph glyph-name="aringacute" unicode="&#x1fb;" horiz-adv-x="1117" 
d="M384 -20q-106 0 -183.5 51t-119.5 141.5t-42 209.5q0 118 38.5 229.5t109.5 201t169.5 142t218.5 52.5q58 0 108.5 -16t91 -54t66.5 -104l-71 -26l68 181h184l-117 -689q-8 -47 -8 -77q0 -46 21 -59.5t75 -13.5l-53 -169q-69 0 -115.5 6t-77 27.5t-50 65.5t-33.5 120
l61 -41q-39 -50 -89 -90.5t-112.5 -64t-139.5 -23.5zM454 159q68 0 122.5 32t93.5 89t59.5 130.5t20.5 156.5q0 131 -51.5 196t-142.5 65q-87 0 -154.5 -56.5t-106 -150t-38.5 -203.5q0 -111 46.5 -185t150.5 -74zM677 1099q-87 0 -130.5 46.5t-43.5 113.5q0 64 32 116.5
t85 83.5t116 31q87 0 130 -47.5t43 -113.5q0 -64 -31 -116t-84 -83t-117 -31zM688 1194q47 0 79.5 36.5t31.5 82.5q0 37 -21 59t-54 22q-44 0 -78 -35.5t-34 -83.5q0 -38 22 -59.5t54 -21.5zM589 1550l19 137l361 190l-32 -211z" />
    <glyph glyph-name="atilde" unicode="&#xe3;" horiz-adv-x="1117" 
d="M384 -20q-106 0 -183.5 51t-119.5 141.5t-42 209.5q0 118 38.5 229.5t109.5 201t169.5 142t218.5 52.5q58 0 108.5 -16t91 -54t66.5 -104l-71 -26l68 181h184l-117 -689q-8 -47 -8 -77q0 -46 21 -59.5t75 -13.5l-53 -169q-69 0 -115.5 6t-77 27.5t-50 65.5t-33.5 120
l61 -41q-39 -50 -89 -90.5t-112.5 -64t-139.5 -23.5zM454 159q68 0 122.5 32t93.5 89t59.5 130.5t20.5 156.5q0 131 -51.5 196t-142.5 65q-87 0 -154.5 -56.5t-106 -150t-38.5 -203.5q0 -111 46.5 -185t150.5 -74zM853 1158q-44 0 -90 22t-90 43.5t-81 21.5q-32 0 -52 -19
t-27 -52h-149q22 113 75.5 172t133.5 59q47 0 90 -22t83.5 -43.5t79.5 -21.5q32 0 51 19t25 58h153q-24 -123 -74 -180t-128 -57z" />
    <glyph glyph-name="ae" unicode="&#xe6;" horiz-adv-x="1490" 
d="M601 477q-59 2 -127 -10t-129 -40t-99.5 -74.5t-38.5 -114.5q0 -50 30 -74t74 -24q47 0 100.5 27t96 84t58.5 149q4 21 6.5 38t5 38t5.5 54t7 85q8 107 -20.5 158t-129.5 51q-61 0 -121 -16.5t-135 -49.5l10 167q89 41 173.5 61.5t162.5 20.5q54 0 103 -13t84.5 -47
t51 -96.5t3.5 -160.5l-16 43q19 87 76.5 148.5t139.5 93.5t170 32q137 0 218 -86.5t81 -241.5q0 -56 -11 -103t-32 -105h-692l34 143h504q4 19 5 37.5t1 31.5q-1 67 -36 106t-115 39q-73 0 -130 -36t-95.5 -96t-58.5 -132.5t-20 -146.5q0 -96 31.5 -155t82.5 -86t111 -27
q44 0 93 10.5t99 27.5t96 40l-12 -169q-64 -31 -144 -54.5t-177 -23.5q-158 0 -245.5 69t-99.5 208l52 -10q-52 -85 -118.5 -147t-147.5 -95.5t-180 -33.5q-125 0 -189 60.5t-64 162.5q0 106 43 179.5t113.5 120.5t155 73.5t167.5 38t149 15.5z" />
    <glyph glyph-name="aeacute" unicode="&#x1fd;" horiz-adv-x="1490" 
d="M601 477q-59 2 -127 -10t-129 -40t-99.5 -74.5t-38.5 -114.5q0 -50 30 -74t74 -24q47 0 100.5 27t96 84t58.5 149q4 21 6.5 38t5 38t5.5 54t7 85q8 107 -20.5 158t-129.5 51q-61 0 -121 -16.5t-135 -49.5l10 167q89 41 173.5 61.5t162.5 20.5q54 0 103 -13t84.5 -47
t51 -96.5t3.5 -160.5l-16 43q19 87 76.5 148.5t139.5 93.5t170 32q137 0 218 -86.5t81 -241.5q0 -56 -11 -103t-32 -105h-692l34 143h504q4 19 5 37.5t1 31.5q-1 67 -36 106t-115 39q-73 0 -130 -36t-95.5 -96t-58.5 -132.5t-20 -146.5q0 -96 31.5 -155t82.5 -86t111 -27
q44 0 93 10.5t99 27.5t96 40l-12 -169q-64 -31 -144 -54.5t-177 -23.5q-158 0 -245.5 69t-99.5 208l52 -10q-52 -85 -118.5 -147t-147.5 -95.5t-180 -33.5q-125 0 -189 60.5t-64 162.5q0 106 43 179.5t113.5 120.5t155 73.5t167.5 38t149 15.5zM690 1146l28 148l382 212
l-36 -234z" />
    <glyph glyph-name="b" unicode="b" horiz-adv-x="1074" 
d="M517 -20q-114 0 -191.5 53t-116.5 148l56 36l-59 -217h-189l264 1500h211l-124 -704l-32 34q43 67 97 105.5t111.5 55t110.5 16.5q115 0 192 -56.5t115.5 -151.5t38.5 -210q0 -134 -36 -245.5t-101.5 -193t-154.5 -126t-192 -44.5zM496 159q85 0 150 54.5t101.5 147.5
t36.5 207t-45 187t-144 73q-86 0 -154.5 -54t-108 -148t-39.5 -214q0 -129 53.5 -191t149.5 -62z" />
    <glyph glyph-name="c" unicode="c" horiz-adv-x="852" 
d="M425 -20q-138 0 -222 56.5t-122.5 151.5t-38.5 212t36 226t107.5 195t177.5 136t244 50q83 0 148 -18t105 -47l-54 -183q-45 32 -95 50.5t-105 18.5q-112 0 -190 -54t-118 -146t-40 -202q0 -124 56 -196t177 -72q104 0 223 69l-11 -179q-49 -28 -118.5 -48t-159.5 -20z
" />
    <glyph glyph-name="cacute" unicode="&#x107;" horiz-adv-x="852" 
d="M425 -20q-138 0 -222 56.5t-122.5 151.5t-38.5 212t36 226t107.5 195t177.5 136t244 50q83 0 148 -18t105 -47l-54 -183q-45 32 -95 50.5t-105 18.5q-112 0 -190 -54t-118 -146t-40 -202q0 -124 56 -196t177 -72q104 0 223 69l-11 -179q-49 -28 -118.5 -48t-159.5 -20z
M481 1146l28 148l382 212l-36 -234z" />
    <glyph glyph-name="ccaron" unicode="&#x10d;" horiz-adv-x="852" 
d="M425 -20q-138 0 -222 56.5t-122.5 151.5t-38.5 212t36 226t107.5 195t177.5 136t244 50q83 0 148 -18t105 -47l-54 -183q-45 32 -95 50.5t-105 18.5q-112 0 -190 -54t-118 -146t-40 -202q0 -124 56 -196t177 -72q104 0 223 69l-11 -179q-49 -28 -118.5 -48t-159.5 -20z
M647 1117l-214 222l28 137l225 -163l278 163l-27 -161z" />
    <glyph glyph-name="ccedilla" unicode="&#xe7;" horiz-adv-x="852" 
d="M425 -20q-138 0 -222 56.5t-122.5 151.5t-38.5 212t36 226t107.5 195t177.5 136t244 50q83 0 148 -18t105 -47l-54 -183q-45 32 -95 50.5t-105 18.5q-112 0 -190 -54t-118 -146t-40 -202q0 -124 56 -196t177 -72q104 0 223 69l-11 -179q-49 -28 -118.5 -48t-159.5 -20z
M410 -158l-66 30q27 9 51.5 14.5t52.5 5.5q71 0 111.5 -36t40.5 -101q0 -96 -73.5 -157t-181.5 -61q-52 0 -89.5 11.5t-64.5 26.5l53 106q28 -15 57.5 -24.5t64.5 -9.5q52 0 81 24t29 59q0 65 -89 65q-23 0 -46.5 -3.5t-51.5 -11.5l93 220h105z" />
    <glyph glyph-name="uni1E09" unicode="&#x1e09;" horiz-adv-x="852" 
d="M425 -20q-138 0 -222 56.5t-122.5 151.5t-38.5 212t36 226t107.5 195t177.5 136t244 50q83 0 148 -18t105 -47l-54 -183q-45 32 -95 50.5t-105 18.5q-112 0 -190 -54t-118 -146t-40 -202q0 -124 56 -196t177 -72q104 0 223 69l-11 -179q-49 -28 -118.5 -48t-159.5 -20z
M410 -158l-66 30q27 9 51.5 14.5t52.5 5.5q71 0 111.5 -36t40.5 -101q0 -96 -73.5 -157t-181.5 -61q-52 0 -89.5 11.5t-64.5 26.5l53 106q28 -15 57.5 -24.5t64.5 -9.5q52 0 81 24t29 59q0 65 -89 65q-23 0 -46.5 -3.5t-51.5 -11.5l93 220h105zM481 1146l28 148l382 212
l-36 -234z" />
    <glyph glyph-name="ccircumflex" unicode="&#x109;" horiz-adv-x="852" 
d="M425 -20q-138 0 -222 56.5t-122.5 151.5t-38.5 212t36 226t107.5 195t177.5 136t244 50q83 0 148 -18t105 -47l-54 -183q-45 32 -95 50.5t-105 18.5q-112 0 -190 -54t-118 -146t-40 -202q0 -124 56 -196t177 -72q104 0 223 69l-11 -179q-49 -28 -118.5 -48t-159.5 -20z
M428 1141l32 143l259 194l215 -221l-28 -137l-225 162z" />
    <glyph glyph-name="cdotaccent" unicode="&#x10b;" horiz-adv-x="852" 
d="M425 -20q-138 0 -222 56.5t-122.5 151.5t-38.5 212t36 226t107.5 195t177.5 136t244 50q83 0 148 -18t105 -47l-54 -183q-45 32 -95 50.5t-105 18.5q-112 0 -190 -54t-118 -146t-40 -202q0 -124 56 -196t177 -72q104 0 223 69l-11 -179q-49 -28 -118.5 -48t-159.5 -20z
M567 1191l36 186h191l-36 -186h-191z" />
    <glyph glyph-name="d" unicode="d" horiz-adv-x="1075" 
d="M379 -20q-106 0 -182.5 54.5t-117 147t-40.5 208.5t36 226.5t103.5 198.5t160 140t206.5 52q79 0 135.5 -27.5t95 -77.5t63.5 -117l-59 7l124 708h210l-264 -1500h-195l25 213l36 -40q-69 -92 -155 -142.5t-182 -50.5zM450 159q64 0 118.5 30.5t95.5 86t63.5 130
t22.5 161.5q0 127 -50 194t-143 67q-87 0 -155 -57t-106.5 -151.5t-38.5 -206.5q0 -109 45.5 -181.5t147.5 -72.5z" />
    <glyph glyph-name="eth" unicode="&#xf0;" horiz-adv-x="985" 
d="M386 -25q-117 0 -200.5 48t-128 131.5t-44.5 189.5q0 135 58 250.5t160.5 186.5t237.5 71q78 0 130.5 -25.5t84 -62t46.5 -68.5l-26 -33q14 145 -23.5 270t-118.5 220.5t-198 151.5l69 97q139 -54 244.5 -157t165 -249t59.5 -329q0 -208 -65.5 -363.5t-181.5 -242
t-269 -86.5zM408 156q63 0 120 37.5t92.5 106.5t35.5 164t-43 152.5t-127 57.5q-79 0 -137.5 -43t-90.5 -112t-32 -148q0 -91 46 -153t136 -62zM363 991l-57 122l556 237l55 -122z" />
    <glyph glyph-name="dcaron" unicode="&#x10f;" horiz-adv-x="1171" 
d="M379 -20q-106 0 -182.5 54.5t-117 147t-40.5 208.5t36 226.5t103.5 198.5t160 140t206.5 52q79 0 135.5 -27.5t95 -77.5t63.5 -117l-59 7l124 708h210l-264 -1500h-195l25 213l36 -40q-69 -92 -155 -142.5t-182 -50.5zM450 159q64 0 118.5 30.5t95.5 86t63.5 130
t22.5 161.5q0 127 -50 194t-143 67q-87 0 -155 -57t-106.5 -151.5t-38.5 -206.5q0 -109 45.5 -181.5t147.5 -72.5zM1128 1158l62 342h189l-118 -342h-133z" />
    <glyph glyph-name="dcroat" unicode="&#x111;" horiz-adv-x="1075" 
d="M379 -20q-106 0 -182.5 54.5t-117 147t-40.5 208.5t36 226.5t103.5 198.5t160 140t206.5 52q79 0 135.5 -27.5t95 -77.5t63.5 -117l-59 7l124 708h210l-264 -1500h-195l25 213l36 -40q-69 -92 -155 -142.5t-182 -50.5zM450 159q64 0 118.5 30.5t95.5 86t63.5 130
t22.5 161.5q0 127 -50 194t-143 67q-87 0 -155 -57t-106.5 -151.5t-38.5 -206.5q0 -109 45.5 -181.5t147.5 -72.5zM600 1176l26 143h570l-26 -143h-570z" />
    <glyph glyph-name="uni1E0D" unicode="&#x1e0d;" horiz-adv-x="1075" 
d="M379 -20q-106 0 -182.5 54.5t-117 147t-40.5 208.5t36 226.5t103.5 198.5t160 140t206.5 52q79 0 135.5 -27.5t95 -77.5t63.5 -117l-59 7l124 708h210l-264 -1500h-195l25 213l36 -40q-69 -92 -155 -142.5t-182 -50.5zM450 159q64 0 118.5 30.5t95.5 86t63.5 130
t22.5 161.5q0 127 -50 194t-143 67q-87 0 -155 -57t-106.5 -151.5t-38.5 -206.5q0 -109 45.5 -181.5t147.5 -72.5zM380 -348l36 186h191l-36 -186h-191z" />
    <glyph glyph-name="uni1E0F" unicode="&#x1e0f;" horiz-adv-x="1075" 
d="M379 -20q-106 0 -182.5 54.5t-117 147t-40.5 208.5t36 226.5t103.5 198.5t160 140t206.5 52q79 0 135.5 -27.5t95 -77.5t63.5 -117l-59 7l124 708h210l-264 -1500h-195l25 213l36 -40q-69 -92 -155 -142.5t-182 -50.5zM450 159q64 0 118.5 30.5t95.5 86t63.5 130
t22.5 161.5q0 127 -50 194t-143 67q-87 0 -155 -57t-106.5 -151.5t-38.5 -206.5q0 -109 45.5 -181.5t147.5 -72.5zM165 -332l29 150h631l-30 -150h-630z" />
    <glyph glyph-name="uni01C6" unicode="&#x1c6;" horiz-adv-x="1961" 
d="M379 -20q-106 0 -182.5 54.5t-117 147t-40.5 208.5t36 226.5t103.5 198.5t160 140t206.5 52q79 0 135.5 -27.5t95 -77.5t63.5 -117l-59 7l124 708h210l-264 -1500h-195l25 213l36 -40q-69 -92 -155 -142.5t-182 -50.5zM450 159q64 0 118.5 30.5t95.5 86t63.5 130
t22.5 161.5q0 127 -50 194t-143 67q-87 0 -155 -57t-106.5 -151.5t-38.5 -206.5q0 -109 45.5 -181.5t147.5 -72.5zM1018 0l650 894l40 -79h-528l30 173h776l-649 -894l-40 80h529l-32 -174h-776zM1623 1117l-214 222l28 137l225 -163l278 163l-27 -161z" />
    <glyph glyph-name="e" unicode="e" horiz-adv-x="941" 
d="M247 575q39 -13 73.5 -19t80.5 -6q121 0 188 26.5t93.5 66.5t26.5 79q0 42 -21.5 65t-53.5 32t-62 9q-73 0 -132.5 -39t-102.5 -106.5t-67 -153.5l-8 -58q-6 -121 26 -189t90 -95.5t127 -27.5q72 0 148.5 18t140.5 50l-17 -171q-58 -33 -139.5 -54.5t-180.5 -21.5
q-143 0 -235.5 57t-137.5 153.5t-45 216.5q0 115 39 222.5t111.5 192.5t173 135t223.5 50q150 0 228.5 -74t78.5 -193q0 -70 -29.5 -130.5t-88 -105t-145.5 -69t-203 -24.5q-57 0 -110 6.5t-85 16.5z" />
    <glyph glyph-name="eacute" unicode="&#xe9;" horiz-adv-x="941" 
d="M247 575q39 -13 73.5 -19t80.5 -6q121 0 188 26.5t93.5 66.5t26.5 79q0 42 -21.5 65t-53.5 32t-62 9q-73 0 -132.5 -39t-102.5 -106.5t-67 -153.5l-8 -58q-6 -121 26 -189t90 -95.5t127 -27.5q72 0 148.5 18t140.5 50l-17 -171q-58 -33 -139.5 -54.5t-180.5 -21.5
q-143 0 -235.5 57t-137.5 153.5t-45 216.5q0 115 39 222.5t111.5 192.5t173 135t223.5 50q150 0 228.5 -74t78.5 -193q0 -70 -29.5 -130.5t-88 -105t-145.5 -69t-203 -24.5q-57 0 -110 6.5t-85 16.5zM461 1146l28 148l382 212l-36 -234z" />
    <glyph glyph-name="ebreve" unicode="&#x115;" horiz-adv-x="941" 
d="M247 575q39 -13 73.5 -19t80.5 -6q121 0 188 26.5t93.5 66.5t26.5 79q0 42 -21.5 65t-53.5 32t-62 9q-73 0 -132.5 -39t-102.5 -106.5t-67 -153.5l-8 -58q-6 -121 26 -189t90 -95.5t127 -27.5q72 0 148.5 18t140.5 50l-17 -171q-58 -33 -139.5 -54.5t-180.5 -21.5
q-143 0 -235.5 57t-137.5 153.5t-45 216.5q0 115 39 222.5t111.5 192.5t173 135t223.5 50q150 0 228.5 -74t78.5 -193q0 -70 -29.5 -130.5t-88 -105t-145.5 -69t-203 -24.5q-57 0 -110 6.5t-85 16.5zM651 1161q-128 0 -192 62t-64 149q0 14 1.5 27.5t5.5 26.5h157
q-2 -7 -3.5 -16t-1.5 -18q0 -44 30 -67.5t81 -23.5q57 0 99.5 32t53.5 93h172q-22 -114 -107.5 -189.5t-231.5 -75.5z" />
    <glyph glyph-name="ecaron" unicode="&#x11b;" horiz-adv-x="941" 
d="M247 575q39 -13 73.5 -19t80.5 -6q121 0 188 26.5t93.5 66.5t26.5 79q0 42 -21.5 65t-53.5 32t-62 9q-73 0 -132.5 -39t-102.5 -106.5t-67 -153.5l-8 -58q-6 -121 26 -189t90 -95.5t127 -27.5q72 0 148.5 18t140.5 50l-17 -171q-58 -33 -139.5 -54.5t-180.5 -21.5
q-143 0 -235.5 57t-137.5 153.5t-45 216.5q0 115 39 222.5t111.5 192.5t173 135t223.5 50q150 0 228.5 -74t78.5 -193q0 -70 -29.5 -130.5t-88 -105t-145.5 -69t-203 -24.5q-57 0 -110 6.5t-85 16.5zM627 1117l-214 222l28 137l225 -163l278 163l-27 -161z" />
    <glyph glyph-name="uni1E1D" unicode="&#x1e1d;" horiz-adv-x="941" 
d="M247 575q39 -13 73.5 -19t80.5 -6q121 0 188 26.5t93.5 66.5t26.5 79q0 42 -21.5 65t-53.5 32t-62 9q-73 0 -132.5 -39t-102.5 -106.5t-67 -153.5l-8 -58q-6 -121 26 -189t90 -95.5t127 -27.5q72 0 148.5 18t140.5 50l-17 -171q-58 -33 -139.5 -54.5t-180.5 -21.5
q-143 0 -235.5 57t-137.5 153.5t-45 216.5q0 115 39 222.5t111.5 192.5t173 135t223.5 50q150 0 228.5 -74t78.5 -193q0 -70 -29.5 -130.5t-88 -105t-145.5 -69t-203 -24.5q-57 0 -110 6.5t-85 16.5zM462 -158l-66 30q27 9 51.5 14.5t52.5 5.5q71 0 111.5 -36t40.5 -101
q0 -96 -73.5 -157t-181.5 -61q-52 0 -89.5 11.5t-64.5 26.5l53 106q28 -15 57.5 -24.5t64.5 -9.5q52 0 81 24t29 59q0 65 -89 65q-23 0 -46.5 -3.5t-51.5 -11.5l93 220h105zM651 1161q-128 0 -192 62t-64 149q0 14 1.5 27.5t5.5 26.5h157q-2 -7 -3.5 -16t-1.5 -18
q0 -44 30 -67.5t81 -23.5q57 0 99.5 32t53.5 93h172q-22 -114 -107.5 -189.5t-231.5 -75.5z" />
    <glyph glyph-name="ecircumflex" unicode="&#xea;" horiz-adv-x="941" 
d="M247 575q39 -13 73.5 -19t80.5 -6q121 0 188 26.5t93.5 66.5t26.5 79q0 42 -21.5 65t-53.5 32t-62 9q-73 0 -132.5 -39t-102.5 -106.5t-67 -153.5l-8 -58q-6 -121 26 -189t90 -95.5t127 -27.5q72 0 148.5 18t140.5 50l-17 -171q-58 -33 -139.5 -54.5t-180.5 -21.5
q-143 0 -235.5 57t-137.5 153.5t-45 216.5q0 115 39 222.5t111.5 192.5t173 135t223.5 50q150 0 228.5 -74t78.5 -193q0 -70 -29.5 -130.5t-88 -105t-145.5 -69t-203 -24.5q-57 0 -110 6.5t-85 16.5zM408 1141l32 143l259 194l215 -221l-28 -137l-225 162z" />
    <glyph glyph-name="uni1EBF" unicode="&#x1ebf;" horiz-adv-x="941" 
d="M247 575q39 -13 73.5 -19t80.5 -6q121 0 188 26.5t93.5 66.5t26.5 79q0 42 -21.5 65t-53.5 32t-62 9q-73 0 -132.5 -39t-102.5 -106.5t-67 -153.5l-8 -58q-6 -121 26 -189t90 -95.5t127 -27.5q72 0 148.5 18t140.5 50l-17 -171q-58 -33 -139.5 -54.5t-180.5 -21.5
q-143 0 -235.5 57t-137.5 153.5t-45 216.5q0 115 39 222.5t111.5 192.5t173 135t223.5 50q150 0 228.5 -74t78.5 -193q0 -70 -29.5 -130.5t-88 -105t-145.5 -69t-203 -24.5q-57 0 -110 6.5t-85 16.5zM882 1096l-235 137l-236 -113l23 133l245 158l225 -182zM796 1392
l158 229h208l-226 -229h-140z" />
    <glyph glyph-name="uni1EC7" unicode="&#x1ec7;" horiz-adv-x="941" 
d="M247 575q39 -13 73.5 -19t80.5 -6q121 0 188 26.5t93.5 66.5t26.5 79q0 42 -21.5 65t-53.5 32t-62 9q-73 0 -132.5 -39t-102.5 -106.5t-67 -153.5l-8 -58q-6 -121 26 -189t90 -95.5t127 -27.5q72 0 148.5 18t140.5 50l-17 -171q-58 -33 -139.5 -54.5t-180.5 -21.5
q-143 0 -235.5 57t-137.5 153.5t-45 216.5q0 115 39 222.5t111.5 192.5t173 135t223.5 50q150 0 228.5 -74t78.5 -193q0 -70 -29.5 -130.5t-88 -105t-145.5 -69t-203 -24.5q-57 0 -110 6.5t-85 16.5zM408 1141l32 143l259 194l215 -221l-28 -137l-225 162zM323 -348l36 186
h191l-36 -186h-191z" />
    <glyph glyph-name="uni1EC1" unicode="&#x1ec1;" horiz-adv-x="941" 
d="M247 575q39 -13 73.5 -19t80.5 -6q121 0 188 26.5t93.5 66.5t26.5 79q0 42 -21.5 65t-53.5 32t-62 9q-73 0 -132.5 -39t-102.5 -106.5t-67 -153.5l-8 -58q-6 -121 26 -189t90 -95.5t127 -27.5q72 0 148.5 18t140.5 50l-17 -171q-58 -33 -139.5 -54.5t-180.5 -21.5
q-143 0 -235.5 57t-137.5 153.5t-45 216.5q0 115 39 222.5t111.5 192.5t173 135t223.5 50q150 0 228.5 -74t78.5 -193q0 -70 -29.5 -130.5t-88 -105t-145.5 -69t-203 -24.5q-57 0 -110 6.5t-85 16.5zM881 1096l-235 137l-236 -113l23 133l245 158l225 -182zM802 1392
l-128 243h200l66 -243h-138z" />
    <glyph glyph-name="uni1EC3" unicode="&#x1ec3;" horiz-adv-x="941" 
d="M247 575q39 -13 73.5 -19t80.5 -6q121 0 188 26.5t93.5 66.5t26.5 79q0 42 -21.5 65t-53.5 32t-62 9q-73 0 -132.5 -39t-102.5 -106.5t-67 -153.5l-8 -58q-6 -121 26 -189t90 -95.5t127 -27.5q72 0 148.5 18t140.5 50l-17 -171q-58 -33 -139.5 -54.5t-180.5 -21.5
q-143 0 -235.5 57t-137.5 153.5t-45 216.5q0 115 39 222.5t111.5 192.5t173 135t223.5 50q150 0 228.5 -74t78.5 -193q0 -70 -29.5 -130.5t-88 -105t-145.5 -69t-203 -24.5q-57 0 -110 6.5t-85 16.5zM880 1088l-235 137l-236 -113l23 133l245 157l225 -181zM833 1332l-5 84
q84 24 84 81q0 53 -69 53q-29 0 -60.5 -9.5t-63.5 -24.5l-15 110q37 17 78.5 26t85.5 9q73 0 121 -35t48 -100q0 -77 -55 -124.5t-149 -69.5z" />
    <glyph glyph-name="uni1EC5" unicode="&#x1ec5;" horiz-adv-x="941" 
d="M247 575q39 -13 73.5 -19t80.5 -6q121 0 188 26.5t93.5 66.5t26.5 79q0 42 -21.5 65t-53.5 32t-62 9q-73 0 -132.5 -39t-102.5 -106.5t-67 -153.5l-8 -58q-6 -121 26 -189t90 -95.5t127 -27.5q72 0 148.5 18t140.5 50l-17 -171q-58 -33 -139.5 -54.5t-180.5 -21.5
q-143 0 -235.5 57t-137.5 153.5t-45 216.5q0 115 39 222.5t111.5 192.5t173 135t223.5 50q150 0 228.5 -74t78.5 -193q0 -70 -29.5 -130.5t-88 -105t-145.5 -69t-203 -24.5q-57 0 -110 6.5t-85 16.5zM880 1088l-235 137l-236 -113l23 133l245 157l225 -181zM850 1460
q-43 0 -90 19.5t-90.5 38.5t-77.5 19q-25 0 -44 -15.5t-24 -49.5h-139q18 100 67 152t124 52q44 0 90 -19t89 -38.5t80 -19.5q57 0 67 67h140q-16 -102 -66 -154t-126 -52z" />
    <glyph glyph-name="uni0205" unicode="&#x205;" horiz-adv-x="941" 
d="M247 575q39 -13 73.5 -19t80.5 -6q121 0 188 26.5t93.5 66.5t26.5 79q0 42 -21.5 65t-53.5 32t-62 9q-73 0 -132.5 -39t-102.5 -106.5t-67 -153.5l-8 -58q-6 -121 26 -189t90 -95.5t127 -27.5q72 0 148.5 18t140.5 50l-17 -171q-58 -33 -139.5 -54.5t-180.5 -21.5
q-143 0 -235.5 57t-137.5 153.5t-45 216.5q0 115 39 222.5t111.5 192.5t173 135t223.5 50q150 0 228.5 -74t78.5 -193q0 -70 -29.5 -130.5t-88 -105t-145.5 -69t-203 -24.5q-57 0 -110 6.5t-85 16.5zM853 1164h-143l-136 343h210zM568 1164h-143l-149 343h211z" />
    <glyph glyph-name="edieresis" unicode="&#xeb;" horiz-adv-x="941" 
d="M247 575q39 -13 73.5 -19t80.5 -6q121 0 188 26.5t93.5 66.5t26.5 79q0 42 -21.5 65t-53.5 32t-62 9q-73 0 -132.5 -39t-102.5 -106.5t-67 -153.5l-8 -58q-6 -121 26 -189t90 -95.5t127 -27.5q72 0 148.5 18t140.5 50l-17 -171q-58 -33 -139.5 -54.5t-180.5 -21.5
q-143 0 -235.5 57t-137.5 153.5t-45 216.5q0 115 39 222.5t111.5 192.5t173 135t223.5 50q150 0 228.5 -74t78.5 -193q0 -70 -29.5 -130.5t-88 -105t-145.5 -69t-203 -24.5q-57 0 -110 6.5t-85 16.5zM361 1182l33 168h177l-34 -168h-176zM743 1182l34 168h176l-33 -168h-177
z" />
    <glyph glyph-name="edotaccent" unicode="&#x117;" horiz-adv-x="941" 
d="M247 575q39 -13 73.5 -19t80.5 -6q121 0 188 26.5t93.5 66.5t26.5 79q0 42 -21.5 65t-53.5 32t-62 9q-73 0 -132.5 -39t-102.5 -106.5t-67 -153.5l-8 -58q-6 -121 26 -189t90 -95.5t127 -27.5q72 0 148.5 18t140.5 50l-17 -171q-58 -33 -139.5 -54.5t-180.5 -21.5
q-143 0 -235.5 57t-137.5 153.5t-45 216.5q0 115 39 222.5t111.5 192.5t173 135t223.5 50q150 0 228.5 -74t78.5 -193q0 -70 -29.5 -130.5t-88 -105t-145.5 -69t-203 -24.5q-57 0 -110 6.5t-85 16.5zM546 1191l36 186h191l-36 -186h-191z" />
    <glyph glyph-name="uni1EB9" unicode="&#x1eb9;" horiz-adv-x="941" 
d="M247 575q39 -13 73.5 -19t80.5 -6q121 0 188 26.5t93.5 66.5t26.5 79q0 42 -21.5 65t-53.5 32t-62 9q-73 0 -132.5 -39t-102.5 -106.5t-67 -153.5l-8 -58q-6 -121 26 -189t90 -95.5t127 -27.5q72 0 148.5 18t140.5 50l-17 -171q-58 -33 -139.5 -54.5t-180.5 -21.5
q-143 0 -235.5 57t-137.5 153.5t-45 216.5q0 115 39 222.5t111.5 192.5t173 135t223.5 50q150 0 228.5 -74t78.5 -193q0 -70 -29.5 -130.5t-88 -105t-145.5 -69t-203 -24.5q-57 0 -110 6.5t-85 16.5zM323 -348l36 186h191l-36 -186h-191z" />
    <glyph glyph-name="egrave" unicode="&#xe8;" horiz-adv-x="941" 
d="M247 575q39 -13 73.5 -19t80.5 -6q121 0 188 26.5t93.5 66.5t26.5 79q0 42 -21.5 65t-53.5 32t-62 9q-73 0 -132.5 -39t-102.5 -106.5t-67 -153.5l-8 -58q-6 -121 26 -189t90 -95.5t127 -27.5q72 0 148.5 18t140.5 50l-17 -171q-58 -33 -139.5 -54.5t-180.5 -21.5
q-143 0 -235.5 57t-137.5 153.5t-45 216.5q0 115 39 222.5t111.5 192.5t173 135t223.5 50q150 0 228.5 -74t78.5 -193q0 -70 -29.5 -130.5t-88 -105t-145.5 -69t-203 -24.5q-57 0 -110 6.5t-85 16.5zM812 1147l-339 144l37 210l326 -217z" />
    <glyph glyph-name="uni1EBB" unicode="&#x1ebb;" horiz-adv-x="941" 
d="M247 575q39 -13 73.5 -19t80.5 -6q121 0 188 26.5t93.5 66.5t26.5 79q0 42 -21.5 65t-53.5 32t-62 9q-73 0 -132.5 -39t-102.5 -106.5t-67 -153.5l-8 -58q-6 -121 26 -189t90 -95.5t127 -27.5q72 0 148.5 18t140.5 50l-17 -171q-58 -33 -139.5 -54.5t-180.5 -21.5
q-143 0 -235.5 57t-137.5 153.5t-45 216.5q0 115 39 222.5t111.5 192.5t173 135t223.5 50q150 0 228.5 -74t78.5 -193q0 -70 -29.5 -130.5t-88 -105t-145.5 -69t-203 -24.5q-57 0 -110 6.5t-85 16.5zM589 1127q47 37 81 70.5t34 76.5q0 54 -66 54q-31 0 -64 -10.5t-67 -26.5
l-14 109q39 17 80.5 27t86.5 10q71 0 119.5 -35.5t48.5 -101.5q0 -80 -52.5 -136.5t-128.5 -105.5z" />
    <glyph glyph-name="uni0207" unicode="&#x207;" horiz-adv-x="941" 
d="M247 575q39 -13 73.5 -19t80.5 -6q121 0 188 26.5t93.5 66.5t26.5 79q0 42 -21.5 65t-53.5 32t-62 9q-73 0 -132.5 -39t-102.5 -106.5t-67 -153.5l-8 -58q-6 -121 26 -189t90 -95.5t127 -27.5q72 0 148.5 18t140.5 50l-17 -171q-58 -33 -139.5 -54.5t-180.5 -21.5
q-143 0 -235.5 57t-137.5 153.5t-45 216.5q0 115 39 222.5t111.5 192.5t173 135t223.5 50q150 0 228.5 -74t78.5 -193q0 -70 -29.5 -130.5t-88 -105t-145.5 -69t-203 -24.5q-57 0 -110 6.5t-85 16.5zM677 1426q131 0 194 -63.5t63 -153.5q0 -12 -1 -23.5t-3 -24.5h-161
q2 8 2 14.5v12.5q0 48 -31.5 73t-83.5 25q-58 0 -102 -31.5t-55 -93.5h-166q12 71 56.5 131t117.5 97t170 37z" />
    <glyph glyph-name="emacron" unicode="&#x113;" horiz-adv-x="941" 
d="M247 575q39 -13 73.5 -19t80.5 -6q121 0 188 26.5t93.5 66.5t26.5 79q0 42 -21.5 65t-53.5 32t-62 9q-73 0 -132.5 -39t-102.5 -106.5t-67 -153.5l-8 -58q-6 -121 26 -189t90 -95.5t127 -27.5q72 0 148.5 18t140.5 50l-17 -171q-58 -33 -139.5 -54.5t-180.5 -21.5
q-143 0 -235.5 57t-137.5 153.5t-45 216.5q0 115 39 222.5t111.5 192.5t173 135t223.5 50q150 0 228.5 -74t78.5 -193q0 -70 -29.5 -130.5t-88 -105t-145.5 -69t-203 -24.5q-57 0 -110 6.5t-85 16.5zM328 1190l29 150h631l-30 -150h-630z" />
    <glyph glyph-name="uni1E17" unicode="&#x1e17;" horiz-adv-x="941" 
d="M247 575q39 -13 73.5 -19t80.5 -6q121 0 188 26.5t93.5 66.5t26.5 79q0 42 -21.5 65t-53.5 32t-62 9q-73 0 -132.5 -39t-102.5 -106.5t-67 -153.5l-8 -58q-6 -121 26 -189t90 -95.5t127 -27.5q72 0 148.5 18t140.5 50l-17 -171q-58 -33 -139.5 -54.5t-180.5 -21.5
q-143 0 -235.5 57t-137.5 153.5t-45 216.5q0 115 39 222.5t111.5 192.5t173 135t223.5 50q150 0 228.5 -74t78.5 -193q0 -70 -29.5 -130.5t-88 -105t-145.5 -69t-203 -24.5q-57 0 -110 6.5t-85 16.5zM317 1174l26 143h635l-25 -143h-636zM533 1432l19 137l361 190l-32 -211z
" />
    <glyph glyph-name="uni1E15" unicode="&#x1e15;" horiz-adv-x="941" 
d="M247 575q39 -13 73.5 -19t80.5 -6q121 0 188 26.5t93.5 66.5t26.5 79q0 42 -21.5 65t-53.5 32t-62 9q-73 0 -132.5 -39t-102.5 -106.5t-67 -153.5l-8 -58q-6 -121 26 -189t90 -95.5t127 -27.5q72 0 148.5 18t140.5 50l-17 -171q-58 -33 -139.5 -54.5t-180.5 -21.5
q-143 0 -235.5 57t-137.5 153.5t-45 216.5q0 115 39 222.5t111.5 192.5t173 135t223.5 50q150 0 228.5 -74t78.5 -193q0 -70 -29.5 -130.5t-88 -105t-145.5 -69t-203 -24.5q-57 0 -110 6.5t-85 16.5zM317 1174l26 143h635l-25 -143h-636zM874 1432l-341 116l37 199l329 -190
z" />
    <glyph glyph-name="eogonek" unicode="&#x119;" horiz-adv-x="941" 
d="M247 575q39 -13 73.5 -19t80.5 -6q121 0 188 26.5t93.5 66.5t26.5 79q0 42 -21.5 65t-53.5 32t-62 9q-73 0 -132.5 -39t-102.5 -106.5t-67 -153.5l-8 -58q-6 -121 26 -189t90 -95.5t127 -27.5q72 0 148.5 18t140.5 50l-17 -171q-58 -33 -139.5 -54.5t-180.5 -21.5
q-143 0 -235.5 57t-137.5 153.5t-45 216.5q0 115 39 222.5t111.5 192.5t173 135t223.5 50q150 0 228.5 -74t78.5 -193q0 -70 -29.5 -130.5t-88 -105t-145.5 -69t-203 -24.5q-57 0 -110 6.5t-85 16.5zM674 66l103 -10q-47 -32 -91.5 -68.5t-73.5 -78t-29 -87.5q0 -74 74 -74
q33 0 61 7.5t58 22.5l13 -103q-30 -15 -71.5 -26.5t-94.5 -11.5q-73 0 -121 36.5t-48 102.5q0 86 67 162t153 128z" />
    <glyph glyph-name="uni1EBD" unicode="&#x1ebd;" horiz-adv-x="941" 
d="M247 575q39 -13 73.5 -19t80.5 -6q121 0 188 26.5t93.5 66.5t26.5 79q0 42 -21.5 65t-53.5 32t-62 9q-73 0 -132.5 -39t-102.5 -106.5t-67 -153.5l-8 -58q-6 -121 26 -189t90 -95.5t127 -27.5q72 0 148.5 18t140.5 50l-17 -171q-58 -33 -139.5 -54.5t-180.5 -21.5
q-143 0 -235.5 57t-137.5 153.5t-45 216.5q0 115 39 222.5t111.5 192.5t173 135t223.5 50q150 0 228.5 -74t78.5 -193q0 -70 -29.5 -130.5t-88 -105t-145.5 -69t-203 -24.5q-57 0 -110 6.5t-85 16.5zM804 1158q-44 0 -90 22t-90 43.5t-81 21.5q-32 0 -52 -19t-27 -52h-149
q22 113 75.5 172t133.5 59q47 0 90 -22t83.5 -43.5t79.5 -21.5q32 0 51 19t25 58h153q-24 -123 -74 -180t-128 -57z" />
    <glyph glyph-name="f" unicode="f" horiz-adv-x="633" 
d="M286 1232q13 73 44.5 133.5t94 97.5t165.5 37q49 0 92.5 -7.5t68.5 -12.5l-53 -175q-29 9 -50.5 12t-39.5 3q-47 0 -71 -20t-36 -64.5t-26 -120.5l-196 -1115h-210zM75 821l49 167h546l-30 -167h-565z" />
    <glyph glyph-name="g" unicode="g" horiz-adv-x="942" 
d="M391 227q-151 0 -235 84t-84 240q0 117 55 221t155.5 169.5t237.5 65.5q146 0 231.5 -86.5t85.5 -238.5q0 -85 -31.5 -166t-90 -146.5t-140.5 -104t-184 -38.5zM416 384q71 0 122.5 40t79 105t27.5 139q0 87 -39 133t-114 46q-72 0 -123 -39.5t-78 -103t-27 -138.5
q0 -87 39 -134.5t113 -47.5zM301 -500q-143 0 -228 39t-122.5 98.5t-37.5 119.5q0 47 22 97t70 95.5t126 77.5l144 -56q-45 -12 -85.5 -38.5t-67 -62.5t-26.5 -79q0 -59 58 -97.5t166 -38.5q84 0 148 22.5t100.5 58.5t36.5 78q0 49 -40 74.5t-104 39t-135.5 25t-135.5 30
t-104 53.5t-40 97q0 42 34.5 89t109.5 80l109 -52q-22 -11 -37 -26.5t-15 -36.5q0 -34 57 -50.5t174 -37.5q46 -9 102 -23.5t107 -41.5t83.5 -72t32.5 -116q0 -90 -60.5 -169t-173 -128t-268.5 -49zM787 842l-69 92q35 22 94 39.5t130 17.5h45l-40 -135h-71q-10 0 -37.5 -3
t-51.5 -11z" />
    <glyph glyph-name="gbreve" unicode="&#x11f;" horiz-adv-x="942" 
d="M391 227q-151 0 -235 84t-84 240q0 117 55 221t155.5 169.5t237.5 65.5q146 0 231.5 -86.5t85.5 -238.5q0 -85 -31.5 -166t-90 -146.5t-140.5 -104t-184 -38.5zM416 384q71 0 122.5 40t79 105t27.5 139q0 87 -39 133t-114 46q-72 0 -123 -39.5t-78 -103t-27 -138.5
q0 -87 39 -134.5t113 -47.5zM301 -500q-143 0 -228 39t-122.5 98.5t-37.5 119.5q0 47 22 97t70 95.5t126 77.5l144 -56q-45 -12 -85.5 -38.5t-67 -62.5t-26.5 -79q0 -59 58 -97.5t166 -38.5q84 0 148 22.5t100.5 58.5t36.5 78q0 49 -40 74.5t-104 39t-135.5 25t-135.5 30
t-104 53.5t-40 97q0 42 34.5 89t109.5 80l109 -52q-22 -11 -37 -26.5t-15 -36.5q0 -34 57 -50.5t174 -37.5q46 -9 102 -23.5t107 -41.5t83.5 -72t32.5 -116q0 -90 -60.5 -169t-173 -128t-268.5 -49zM787 842l-69 92q35 22 94 39.5t130 17.5h45l-40 -135h-71q-10 0 -37.5 -3
t-51.5 -11zM554 1161q-128 0 -192 62t-64 149q0 14 1.5 27.5t5.5 26.5h157q-2 -7 -3.5 -16t-1.5 -18q0 -44 30 -67.5t81 -23.5q57 0 99.5 32t53.5 93h172q-22 -114 -107.5 -189.5t-231.5 -75.5z" />
    <glyph glyph-name="gcaron" unicode="&#x1e7;" horiz-adv-x="942" 
d="M391 227q-151 0 -235 84t-84 240q0 117 55 221t155.5 169.5t237.5 65.5q146 0 231.5 -86.5t85.5 -238.5q0 -85 -31.5 -166t-90 -146.5t-140.5 -104t-184 -38.5zM416 384q71 0 122.5 40t79 105t27.5 139q0 87 -39 133t-114 46q-72 0 -123 -39.5t-78 -103t-27 -138.5
q0 -87 39 -134.5t113 -47.5zM301 -500q-143 0 -228 39t-122.5 98.5t-37.5 119.5q0 47 22 97t70 95.5t126 77.5l144 -56q-45 -12 -85.5 -38.5t-67 -62.5t-26.5 -79q0 -59 58 -97.5t166 -38.5q84 0 148 22.5t100.5 58.5t36.5 78q0 49 -40 74.5t-104 39t-135.5 25t-135.5 30
t-104 53.5t-40 97q0 42 34.5 89t109.5 80l109 -52q-22 -11 -37 -26.5t-15 -36.5q0 -34 57 -50.5t174 -37.5q46 -9 102 -23.5t107 -41.5t83.5 -72t32.5 -116q0 -90 -60.5 -169t-173 -128t-268.5 -49zM787 842l-69 92q35 22 94 39.5t130 17.5h45l-40 -135h-71q-10 0 -37.5 -3
t-51.5 -11zM530 1117l-214 222l28 137l225 -163l278 163l-27 -161z" />
    <glyph glyph-name="gcircumflex" unicode="&#x11d;" horiz-adv-x="942" 
d="M391 227q-151 0 -235 84t-84 240q0 117 55 221t155.5 169.5t237.5 65.5q146 0 231.5 -86.5t85.5 -238.5q0 -85 -31.5 -166t-90 -146.5t-140.5 -104t-184 -38.5zM416 384q71 0 122.5 40t79 105t27.5 139q0 87 -39 133t-114 46q-72 0 -123 -39.5t-78 -103t-27 -138.5
q0 -87 39 -134.5t113 -47.5zM301 -500q-143 0 -228 39t-122.5 98.5t-37.5 119.5q0 47 22 97t70 95.5t126 77.5l144 -56q-45 -12 -85.5 -38.5t-67 -62.5t-26.5 -79q0 -59 58 -97.5t166 -38.5q84 0 148 22.5t100.5 58.5t36.5 78q0 49 -40 74.5t-104 39t-135.5 25t-135.5 30
t-104 53.5t-40 97q0 42 34.5 89t109.5 80l109 -52q-22 -11 -37 -26.5t-15 -36.5q0 -34 57 -50.5t174 -37.5q46 -9 102 -23.5t107 -41.5t83.5 -72t32.5 -116q0 -90 -60.5 -169t-173 -128t-268.5 -49zM787 842l-69 92q35 22 94 39.5t130 17.5h45l-40 -135h-71q-10 0 -37.5 -3
t-51.5 -11zM311 1141l32 143l259 194l215 -221l-28 -137l-225 162z" />
    <glyph glyph-name="uni0123" unicode="&#x123;" horiz-adv-x="942" 
d="M391 227q-151 0 -235 84t-84 240q0 117 55 221t155.5 169.5t237.5 65.5q146 0 231.5 -86.5t85.5 -238.5q0 -85 -31.5 -166t-90 -146.5t-140.5 -104t-184 -38.5zM416 384q71 0 122.5 40t79 105t27.5 139q0 87 -39 133t-114 46q-72 0 -123 -39.5t-78 -103t-27 -138.5
q0 -87 39 -134.5t113 -47.5zM301 -500q-143 0 -228 39t-122.5 98.5t-37.5 119.5q0 47 22 97t70 95.5t126 77.5l144 -56q-45 -12 -85.5 -38.5t-67 -62.5t-26.5 -79q0 -59 58 -97.5t166 -38.5q84 0 148 22.5t100.5 58.5t36.5 78q0 49 -40 74.5t-104 39t-135.5 25t-135.5 30
t-104 53.5t-40 97q0 42 34.5 89t109.5 80l109 -52q-22 -11 -37 -26.5t-15 -36.5q0 -34 57 -50.5t174 -37.5q46 -9 102 -23.5t107 -41.5t83.5 -72t32.5 -116q0 -90 -60.5 -169t-173 -128t-268.5 -49zM787 842l-69 92q35 22 94 39.5t130 17.5h45l-40 -135h-71q-10 0 -37.5 -3
t-51.5 -11z" />
    <glyph glyph-name="gdotaccent" unicode="&#x121;" horiz-adv-x="942" 
d="M391 227q-151 0 -235 84t-84 240q0 117 55 221t155.5 169.5t237.5 65.5q146 0 231.5 -86.5t85.5 -238.5q0 -85 -31.5 -166t-90 -146.5t-140.5 -104t-184 -38.5zM416 384q71 0 122.5 40t79 105t27.5 139q0 87 -39 133t-114 46q-72 0 -123 -39.5t-78 -103t-27 -138.5
q0 -87 39 -134.5t113 -47.5zM301 -500q-143 0 -228 39t-122.5 98.5t-37.5 119.5q0 47 22 97t70 95.5t126 77.5l144 -56q-45 -12 -85.5 -38.5t-67 -62.5t-26.5 -79q0 -59 58 -97.5t166 -38.5q84 0 148 22.5t100.5 58.5t36.5 78q0 49 -40 74.5t-104 39t-135.5 25t-135.5 30
t-104 53.5t-40 97q0 42 34.5 89t109.5 80l109 -52q-22 -11 -37 -26.5t-15 -36.5q0 -34 57 -50.5t174 -37.5q46 -9 102 -23.5t107 -41.5t83.5 -72t32.5 -116q0 -90 -60.5 -169t-173 -128t-268.5 -49zM787 842l-69 92q35 22 94 39.5t130 17.5h45l-40 -135h-71q-10 0 -37.5 -3
t-51.5 -11zM449 1191l36 186h191l-36 -186h-191z" />
    <glyph glyph-name="uni1E21" unicode="&#x1e21;" horiz-adv-x="942" 
d="M391 227q-151 0 -235 84t-84 240q0 117 55 221t155.5 169.5t237.5 65.5q146 0 231.5 -86.5t85.5 -238.5q0 -85 -31.5 -166t-90 -146.5t-140.5 -104t-184 -38.5zM416 384q71 0 122.5 40t79 105t27.5 139q0 87 -39 133t-114 46q-72 0 -123 -39.5t-78 -103t-27 -138.5
q0 -87 39 -134.5t113 -47.5zM301 -500q-143 0 -228 39t-122.5 98.5t-37.5 119.5q0 47 22 97t70 95.5t126 77.5l144 -56q-45 -12 -85.5 -38.5t-67 -62.5t-26.5 -79q0 -59 58 -97.5t166 -38.5q84 0 148 22.5t100.5 58.5t36.5 78q0 49 -40 74.5t-104 39t-135.5 25t-135.5 30
t-104 53.5t-40 97q0 42 34.5 89t109.5 80l109 -52q-22 -11 -37 -26.5t-15 -36.5q0 -34 57 -50.5t174 -37.5q46 -9 102 -23.5t107 -41.5t83.5 -72t32.5 -116q0 -90 -60.5 -169t-173 -128t-268.5 -49zM787 842l-69 92q35 22 94 39.5t130 17.5h45l-40 -135h-71q-10 0 -37.5 -3
t-51.5 -11zM231 1190l29 150h631l-30 -150h-630z" />
    <glyph glyph-name="h" unicode="h" horiz-adv-x="1039" 
d="M17 0l264 1500h212l-266 -1500h-210zM616 0l84 491q9 54 15 98.5t6 81.5q0 73 -38 115t-108 42q-72 0 -127 -33.5t-106 -89.5l29 172q69 71 138.5 100.5t151.5 29.5q92 0 152.5 -40t90.5 -108.5t30 -153.5q0 -33 -4.5 -81t-16.5 -115l-87 -509h-210z" />
    <glyph glyph-name="hbar" unicode="&#x127;" horiz-adv-x="1039" 
d="M17 0l264 1500h212l-266 -1500h-210zM616 0l84 491q9 54 15 98.5t6 81.5q0 73 -38 115t-108 42q-72 0 -127 -33.5t-106 -89.5l29 172q69 71 138.5 100.5t151.5 29.5q92 0 152.5 -40t90.5 -108.5t30 -153.5q0 -33 -4.5 -81t-16.5 -115l-87 -509h-210zM112 1176l26 143h570
l-26 -143h-570z" />
    <glyph glyph-name="uni1E2B" unicode="&#x1e2b;" horiz-adv-x="1039" 
d="M17 0l264 1500h212l-266 -1500h-210zM616 0l84 491q9 54 15 98.5t6 81.5q0 73 -38 115t-108 42q-72 0 -127 -33.5t-106 -89.5l29 172q69 71 138.5 100.5t151.5 29.5q92 0 152.5 -40t90.5 -108.5t30 -153.5q0 -33 -4.5 -81t-16.5 -115l-87 -509h-210zM354 -447
q-128 0 -192 62t-64 149q0 14 1.5 27.5t5.5 26.5h157q-2 -7 -3.5 -16t-1.5 -18q0 -44 30 -67.5t81 -23.5q57 0 99.5 32t53.5 93h172q-22 -114 -107.5 -189.5t-231.5 -75.5z" />
    <glyph glyph-name="hcircumflex" unicode="&#x125;" horiz-adv-x="1039" 
d="M17 0l264 1500h212l-266 -1500h-210zM616 0l84 491q9 54 15 98.5t6 81.5q0 73 -38 115t-108 42q-72 0 -127 -33.5t-106 -89.5l29 172q69 71 138.5 100.5t151.5 29.5q92 0 152.5 -40t90.5 -108.5t30 -153.5q0 -33 -4.5 -81t-16.5 -115l-87 -509h-210zM664 1600l-235 137
l-236 -113l23 133l245 157l225 -181z" />
    <glyph glyph-name="uni1E25" unicode="&#x1e25;" horiz-adv-x="1039" 
d="M17 0l264 1500h212l-266 -1500h-210zM616 0l84 491q9 54 15 98.5t6 81.5q0 73 -38 115t-108 42q-72 0 -127 -33.5t-106 -89.5l29 172q69 71 138.5 100.5t151.5 29.5q92 0 152.5 -40t90.5 -108.5t30 -153.5q0 -33 -4.5 -81t-16.5 -115l-87 -509h-210zM264 -348l36 186h191
l-36 -186h-191z" />
    <glyph glyph-name="i" unicode="i" horiz-adv-x="452" 
d="M17 0l174 988h210l-174 -988h-210zM226 1180l37 220h211l-38 -220h-210z" />
    <glyph glyph-name="dotlessi" unicode="&#x131;" horiz-adv-x="452" 
d="M17 0l174 988h210l-174 -988h-210z" />
    <glyph glyph-name="iacute" unicode="&#xed;" horiz-adv-x="452" 
d="M17 0l174 988h210l-174 -988h-210zM155 1146l28 148l382 212l-36 -234z" />
    <glyph glyph-name="ibreve" unicode="&#x12d;" horiz-adv-x="452" 
d="M17 0l174 988h210l-174 -988h-210zM344 1161q-128 0 -192 62t-64 149q0 14 1.5 27.5t5.5 26.5h157q-2 -7 -3.5 -16t-1.5 -18q0 -44 30 -67.5t81 -23.5q57 0 99.5 32t53.5 93h172q-22 -114 -107.5 -189.5t-231.5 -75.5z" />
    <glyph glyph-name="icircumflex" unicode="&#xee;" horiz-adv-x="452" 
d="M17 0l174 988h210l-174 -988h-210zM101 1141l32 143l259 194l215 -221l-28 -137l-225 162z" />
    <glyph glyph-name="uni0209" unicode="&#x209;" horiz-adv-x="452" 
d="M17 0l174 988h210l-174 -988h-210zM547 1164h-143l-136 343h210zM262 1164h-143l-149 343h211z" />
    <glyph glyph-name="idieresis" unicode="&#xef;" horiz-adv-x="452" 
d="M17 0l174 988h210l-174 -988h-210zM54 1182l33 168h177l-34 -168h-176zM436 1182l34 168h176l-33 -168h-177z" />
    <glyph glyph-name="uni1E2F" unicode="&#x1e2f;" horiz-adv-x="452" 
d="M17 0l174 988h210l-174 -988h-210zM428 1167l30 159h176l-30 -159h-176zM50 1167l30 159h176l-30 -159h-176zM211 1424l19 137l361 190l-32 -211z" />
    <glyph glyph-name="i.loclTRK" horiz-adv-x="452" 
d="M17 0l174 988h210l-174 -988h-210zM240 1191l36 186h191l-36 -186h-191z" />
    <glyph glyph-name="uni1ECB" unicode="&#x1ecb;" horiz-adv-x="452" 
d="M17 0l174 988h210l-174 -988h-210zM226 1180l37 220h211l-38 -220h-210zM-36 -348l36 186h191l-36 -186h-191z" />
    <glyph glyph-name="igrave" unicode="&#xec;" horiz-adv-x="452" 
d="M17 0l174 988h210l-174 -988h-210zM506 1147l-339 144l37 210l326 -217z" />
    <glyph glyph-name="uni1EC9" unicode="&#x1ec9;" horiz-adv-x="452" 
d="M17 0l174 988h210l-174 -988h-210zM283 1127q47 37 81 70.5t34 76.5q0 54 -66 54q-31 0 -64 -10.5t-67 -26.5l-14 109q39 17 80.5 27t86.5 10q71 0 119.5 -35.5t48.5 -101.5q0 -80 -52.5 -136.5t-128.5 -105.5z" />
    <glyph glyph-name="uni020B" unicode="&#x20b;" horiz-adv-x="452" 
d="M17 0l174 988h210l-174 -988h-210zM371 1426q131 0 194 -63.5t63 -153.5q0 -12 -1 -23.5t-3 -24.5h-161q2 8 2 14.5v12.5q0 48 -31.5 73t-83.5 25q-58 0 -102 -31.5t-55 -93.5h-166q12 71 56.5 131t117.5 97t170 37z" />
    <glyph glyph-name="ij" unicode="&#x133;" horiz-adv-x="904" 
d="M17 0l174 988h210l-174 -988h-210zM226 1180l37 220h211l-38 -220h-210zM286 -484l10 166q56 5 83.5 21t41 54t25.5 108l198 1123h210l-213 -1205q-21 -115 -89.5 -183t-189.5 -78zM678 1180l39 220h210l-39 -220h-210z" />
    <glyph glyph-name="imacron" unicode="&#x12b;" horiz-adv-x="452" 
d="M17 0l174 988h210l-174 -988h-210zM22 1190l29 150h631l-30 -150h-630z" />
    <glyph glyph-name="iogonek" unicode="&#x12f;" horiz-adv-x="452" 
d="M17 0l174 988h210l-174 -988h-210zM240 1191l36 186h191l-36 -186h-191zM124 10l103 -10q-47 -32 -91.5 -68.5t-73.5 -78t-29 -87.5q0 -74 74 -74q33 0 61 7.5t58 22.5l13 -103q-30 -15 -71.5 -26.5t-94.5 -11.5q-73 0 -121 36.5t-48 102.5q0 86 67 162t153 128z" />
    <glyph glyph-name="itilde" unicode="&#x129;" horiz-adv-x="452" 
d="M17 0l174 988h210l-174 -988h-210zM498 1158q-44 0 -90 22t-90 43.5t-81 21.5q-32 0 -52 -19t-27 -52h-149q22 113 75.5 172t133.5 59q47 0 90 -22t83.5 -43.5t79.5 -21.5q32 0 51 19t25 58h153q-24 -123 -74 -180t-128 -57z" />
    <glyph glyph-name="j" unicode="j" horiz-adv-x="453" 
d="M-166 -484l10 166q56 5 83.5 21t41 54t25.5 108l198 1123h210l-213 -1205q-21 -115 -89.5 -183t-189.5 -78zM226 1180l39 220h210l-39 -220h-210z" />
    <glyph glyph-name="uni0237" unicode="&#x237;" horiz-adv-x="453" 
d="M-166 -484l10 166q55 5 83 20.5t41.5 53.5t25.5 109l198 1123h210l-213 -1205q-21 -115 -89.5 -183t-189.5 -78z" />
    <glyph glyph-name="jcircumflex" unicode="&#x135;" horiz-adv-x="453" 
d="M-166 -484l10 166q55 5 83 20.5t41.5 53.5t25.5 109l198 1123h210l-213 -1205q-21 -115 -89.5 -183t-189.5 -78zM102 1141l32 143l259 194l215 -221l-28 -137l-225 162z" />
    <glyph glyph-name="k" unicode="k" horiz-adv-x="900" 
d="M17 0l264 1500h211l-265 -1500h-210zM537 0l-248 520l419 468h242l-497 -536l23 160l302 -612h-241z" />
    <glyph glyph-name="uni0137" unicode="&#x137;" horiz-adv-x="900" 
d="M17 0l264 1500h211l-265 -1500h-210zM537 0l-248 520l419 468h242l-497 -536l23 160l302 -612h-241zM286 -537h-79l93 174h-74l31 181h199l-32 -181z" />
    <glyph glyph-name="kgreenlandic" unicode="&#x138;" horiz-adv-x="953" 
d="M17 0l173 988h211l-74 -419l428 419h258l-501 -471l324 -517h-239l-284 484l-86 -484h-210z" />
    <glyph glyph-name="l" unicode="l" horiz-adv-x="493" 
d="M246 -20q-107 0 -152.5 53.5t-45.5 129.5q0 22 5.5 60.5t17.5 106.5l206 1170h210l-208 -1189q-6 -38 -8.5 -57.5t-2.5 -31.5q0 -48 25.5 -60.5t78.5 -12.5l-52 -169h-74z" />
    <glyph glyph-name="lacute" unicode="&#x13a;" horiz-adv-x="493" 
d="M246 -20q-107 0 -152.5 53.5t-45.5 129.5q0 22 5.5 60.5t17.5 106.5l206 1170h210l-208 -1189q-6 -38 -8.5 -57.5t-2.5 -31.5q0 -48 25.5 -60.5t78.5 -12.5l-52 -169h-74zM243 1624l19 137l361 190l-32 -211z" />
    <glyph glyph-name="lcaron" unicode="&#x13e;" horiz-adv-x="543" 
d="M246 -20q-107 0 -152.5 53.5t-45.5 129.5q0 22 5.5 60.5t17.5 106.5l206 1170h210l-208 -1189q-6 -38 -8.5 -57.5t-2.5 -31.5q0 -48 25.5 -60.5t78.5 -12.5l-52 -169h-74zM502 1158l62 342h189l-118 -342h-133z" />
    <glyph glyph-name="uni013C" unicode="&#x13c;" horiz-adv-x="493" 
d="M246 -20q-107 0 -152.5 53.5t-45.5 129.5q0 22 5.5 60.5t17.5 106.5l206 1170h210l-208 -1189q-6 -38 -8.5 -57.5t-2.5 -31.5q0 -48 25.5 -60.5t78.5 -12.5l-52 -169h-74zM133 -537h-79l93 174h-74l31 181h199l-32 -181z" />
    <glyph glyph-name="ldot" unicode="&#x140;" horiz-adv-x="603" 
d="M246 -20q-107 0 -152.5 53.5t-45.5 129.5q0 22 5.5 60.5t17.5 106.5l206 1170h210l-208 -1189q-6 -38 -8.5 -57.5t-2.5 -31.5q0 -48 25.5 -60.5t78.5 -12.5l-52 -169h-74zM456 727l37 206h184l-37 -206h-184z" />
    <glyph glyph-name="uni1E37" unicode="&#x1e37;" horiz-adv-x="493" 
d="M246 -20q-107 0 -152.5 53.5t-45.5 129.5q0 22 5.5 60.5t17.5 106.5l206 1170h210l-208 -1189q-6 -38 -8.5 -57.5t-2.5 -31.5q0 -48 25.5 -60.5t78.5 -12.5l-52 -169h-74zM72 -348l36 186h191l-36 -186h-191z" />
    <glyph glyph-name="uni01C9" unicode="&#x1c9;" horiz-adv-x="946" 
d="M246 -20q-107 0 -152.5 53.5t-45.5 129.5q0 22 5.5 60.5t17.5 106.5l206 1170h210l-208 -1189q-6 -38 -8.5 -57.5t-2.5 -31.5q0 -48 25.5 -60.5t78.5 -12.5l-52 -169h-74zM327 -484l10 166q56 5 83.5 21t41 54t25.5 108l198 1123h210l-213 -1205q-21 -115 -89.5 -183
t-189.5 -78zM719 1180l39 220h210l-39 -220h-210z" />
    <glyph glyph-name="uni1E3B" unicode="&#x1e3b;" horiz-adv-x="493" 
d="M246 -20q-107 0 -152.5 53.5t-45.5 129.5q0 22 5.5 60.5t17.5 106.5l206 1170h210l-208 -1189q-6 -38 -8.5 -57.5t-2.5 -31.5q0 -48 25.5 -60.5t78.5 -12.5l-52 -169h-74zM-143 -332l29 150h631l-30 -150h-630z" />
    <glyph glyph-name="lslash" unicode="&#x142;" horiz-adv-x="493" 
d="M-1 689l27 153l543 203l-28 -153zM246 -20q-107 0 -152.5 53.5t-45.5 129.5q0 22 5.5 60.5t17.5 106.5l206 1170h210l-208 -1189q-6 -38 -8.5 -57.5t-2.5 -31.5q0 -48 25.5 -60.5t78.5 -12.5l-52 -169h-74z" />
    <glyph glyph-name="m" unicode="m" horiz-adv-x="1632" 
d="M17 0l174 988h170v-236l-134 -752h-210zM614 0q30 171 49.5 285.5t31.5 185t18 109t8 57t2 31.5q0 95 -44.5 127.5t-109.5 32.5q-71 0 -126.5 -30.5t-98.5 -92.5l4 178q65 65 134 94.5t146 29.5q62 0 121.5 -22.5t102.5 -80t55 -164.5l38 -46l-122 -694h-209zM1208 0
q32 181 52.5 298.5t32 187t17 105t7 50.5t1.5 25q0 89 -37 125.5t-110 36.5q-85 0 -135.5 -38t-75.5 -93t-34 -108l-62 185q16 58 65.5 111.5t126.5 87.5t178 34q149 0 223 -79.5t74 -223.5q0 -14 -1.5 -33.5t-7.5 -59t-18 -113t-33 -194.5t-53 -304h-210z" />
    <glyph glyph-name="uni1E43" unicode="&#x1e43;" horiz-adv-x="1632" 
d="M17 0l174 988h170v-236l-134 -752h-210zM614 0q30 171 49.5 285.5t31.5 185t18 109t8 57t2 31.5q0 95 -44.5 127.5t-109.5 32.5q-71 0 -126.5 -30.5t-98.5 -92.5l4 178q65 65 134 94.5t146 29.5q62 0 121.5 -22.5t102.5 -80t55 -164.5l38 -46l-122 -694h-209zM1208 0
q32 181 52.5 298.5t32 187t17 105t7 50.5t1.5 25q0 89 -37 125.5t-110 36.5q-85 0 -135.5 -38t-75.5 -93t-34 -108l-62 185q16 58 65.5 111.5t126.5 87.5t178 34q149 0 223 -79.5t74 -223.5q0 -14 -1.5 -33.5t-7.5 -59t-18 -113t-33 -194.5t-53 -304h-210zM559 -348l36 186
h191l-36 -186h-191z" />
    <glyph glyph-name="n" unicode="n" horiz-adv-x="1048" 
d="M17 0l174 988h181l-1 -179l-144 -809h-210zM624 0q31 175 50.5 290t31 184t16.5 105t6.5 51t1.5 24q0 90 -37.5 132t-119.5 42q-70 0 -128 -31t-101 -93l15 187q71 64 140 90t148 26q156 0 226.5 -87.5t70.5 -236.5q0 -13 -1.5 -31.5t-7 -57t-17 -110.5t-32 -189
t-52.5 -295h-210z" />
    <glyph glyph-name="nacute" unicode="&#x144;" horiz-adv-x="1048" 
d="M17 0l174 988h181l-1 -179l-144 -809h-210zM624 0q31 175 50.5 290t31 184t16.5 105t6.5 51t1.5 24q0 90 -37.5 132t-119.5 42q-70 0 -128 -31t-101 -93l15 187q71 64 140 90t148 26q156 0 226.5 -87.5t70.5 -236.5q0 -13 -1.5 -31.5t-7 -57t-17 -110.5t-32 -189
t-52.5 -295h-210zM468 1138l28 148l382 212l-36 -234z" />
    <glyph glyph-name="napostrophe" unicode="&#x149;" horiz-adv-x="1076" 
d="M45 0l174 988h181l-1 -179l-144 -809h-210zM652 0q31 175 50.5 290t31 184t16.5 105t6.5 51t1.5 24q0 90 -37.5 132t-119.5 42q-70 0 -128 -31t-101 -93l15 187q71 64 140 90t148 26q156 0 226.5 -87.5t70.5 -236.5q0 -13 -1.5 -31.5t-7 -57t-17 -110.5t-32 -189
t-52.5 -295h-210zM150 1045h-79l93 174h-74l31 181h199l-32 -181z" />
    <glyph glyph-name="ncaron" unicode="&#x148;" horiz-adv-x="1048" 
d="M17 0l174 988h181l-1 -179l-144 -809h-210zM624 0q31 175 50.5 290t31 184t16.5 105t6.5 51t1.5 24q0 90 -37.5 132t-119.5 42q-70 0 -128 -31t-101 -93l15 187q71 64 140 90t148 26q156 0 226.5 -87.5t70.5 -236.5q0 -13 -1.5 -31.5t-7 -57t-17 -110.5t-32 -189
t-52.5 -295h-210zM634 1109l-214 222l28 137l225 -163l278 163l-27 -161z" />
    <glyph glyph-name="uni0146" unicode="&#x146;" horiz-adv-x="1048" 
d="M17 0l174 988h181l-1 -179l-144 -809h-210zM624 0q31 175 50.5 290t31 184t16.5 105t6.5 51t1.5 24q0 90 -37.5 132t-119.5 42q-70 0 -128 -31t-101 -93l15 187q71 64 140 90t148 26q156 0 226.5 -87.5t70.5 -236.5q0 -13 -1.5 -31.5t-7 -57t-17 -110.5t-32 -189
t-52.5 -295h-210zM329 -537h-79l93 174h-74l31 181h199l-32 -181z" />
    <glyph glyph-name="uni1E45" unicode="&#x1e45;" horiz-adv-x="1048" 
d="M17 0l174 988h181l-1 -179l-144 -809h-210zM624 0q31 175 50.5 290t31 184t16.5 105t6.5 51t1.5 24q0 90 -37.5 132t-119.5 42q-70 0 -128 -31t-101 -93l15 187q71 64 140 90t148 26q156 0 226.5 -87.5t70.5 -236.5q0 -13 -1.5 -31.5t-7 -57t-17 -110.5t-32 -189
t-52.5 -295h-210zM553 1183l36 186h191l-36 -186h-191z" />
    <glyph glyph-name="uni1E47" unicode="&#x1e47;" horiz-adv-x="1048" 
d="M17 0l174 988h181l-1 -179l-144 -809h-210zM624 0q31 175 50.5 290t31 184t16.5 105t6.5 51t1.5 24q0 90 -37.5 132t-119.5 42q-70 0 -128 -31t-101 -93l15 187q71 64 140 90t148 26q156 0 226.5 -87.5t70.5 -236.5q0 -13 -1.5 -31.5t-7 -57t-17 -110.5t-32 -189
t-52.5 -295h-210zM269 -348l36 186h191l-36 -186h-191z" />
    <glyph glyph-name="eng" unicode="&#x14b;" horiz-adv-x="1142" 
d="M890 30q-34 -194 -147 -291t-276 -97q-105 0 -197 34l57 175q35 -14 70 -22t71 -8q55 0 98 22t72 67t41 112l91 517q5 30 8.5 55.5t3.5 52.5q0 93 -37.5 137t-120.5 44q-67 0 -125 -26.5t-101 -78.5l-127 -723h-210l174 988h180l-2 -89q75 59 147.5 83.5t146.5 24.5
q151 0 218.5 -88t67.5 -234q0 -28 -3 -64.5t-10 -72.5z" />
    <glyph glyph-name="uni01CC" unicode="&#x1cc;" horiz-adv-x="1500" 
d="M17 0l174 988h181l-1 -179l-144 -809h-210zM624 0q31 175 50.5 290t31 184t16.5 105t6.5 51t1.5 24q0 90 -37.5 132t-119.5 42q-70 0 -128 -31t-101 -93l15 187q71 64 140 90t148 26q156 0 226.5 -87.5t70.5 -236.5q0 -13 -1.5 -31.5t-7 -57t-17 -110.5t-32 -189
t-52.5 -295h-210zM882 -484l10 166q56 5 83.5 21t41 54t25.5 108l198 1123h210l-213 -1205q-21 -115 -89.5 -183t-189.5 -78zM1274 1180l39 220h210l-39 -220h-210z" />
    <glyph glyph-name="uni1E49" unicode="&#x1e49;" horiz-adv-x="1048" 
d="M17 0l174 988h181l-1 -179l-144 -809h-210zM624 0q31 175 50.5 290t31 184t16.5 105t6.5 51t1.5 24q0 90 -37.5 132t-119.5 42q-70 0 -128 -31t-101 -93l15 187q71 64 140 90t148 26q156 0 226.5 -87.5t70.5 -236.5q0 -13 -1.5 -31.5t-7 -57t-17 -110.5t-32 -189
t-52.5 -295h-210zM54 -332l29 150h631l-30 -150h-630z" />
    <glyph glyph-name="ntilde" unicode="&#xf1;" horiz-adv-x="1048" 
d="M17 0l174 988h181l-1 -179l-144 -809h-210zM624 0q31 175 50.5 290t31 184t16.5 105t6.5 51t1.5 24q0 90 -37.5 132t-119.5 42q-70 0 -128 -31t-101 -93l15 187q71 64 140 90t148 26q156 0 226.5 -87.5t70.5 -236.5q0 -13 -1.5 -31.5t-7 -57t-17 -110.5t-32 -189
t-52.5 -295h-210zM811 1150q-44 0 -90 22t-90 43.5t-81 21.5q-32 0 -52 -19t-27 -52h-149q22 113 75.5 172t133.5 59q47 0 90 -22t83.5 -43.5t79.5 -21.5q32 0 51 19t25 58h153q-24 -123 -74 -180t-128 -57z" />
    <glyph glyph-name="o" unicode="o" horiz-adv-x="1058" 
d="M427 -20q-131 0 -217 56t-128.5 151.5t-42.5 213.5q0 120 41 228.5t115.5 193.5t176.5 134.5t224 49.5q131 0 217.5 -56.5t129 -152.5t42.5 -213q0 -119 -41 -227.5t-115.5 -194t-176.5 -134.5t-225 -49zM457 159q94 0 164.5 55.5t109 149t38.5 205.5q0 126 -51 192.5
t-151 66.5q-94 0 -164.5 -55.5t-109.5 -148.5t-39 -206q0 -124 50.5 -191.5t152.5 -67.5z" />
    <glyph glyph-name="oacute" unicode="&#xf3;" horiz-adv-x="1058" 
d="M427 -20q-131 0 -217 56t-128.5 151.5t-42.5 213.5q0 120 41 228.5t115.5 193.5t176.5 134.5t224 49.5q131 0 217.5 -56.5t129 -152.5t42.5 -213q0 -119 -41 -227.5t-115.5 -194t-176.5 -134.5t-225 -49zM457 159q94 0 164.5 55.5t109 149t38.5 205.5q0 126 -51 192.5
t-151 66.5q-94 0 -164.5 -55.5t-109.5 -148.5t-39 -206q0 -124 50.5 -191.5t152.5 -67.5zM465 1146l28 148l382 212l-36 -234z" />
    <glyph glyph-name="obreve" unicode="&#x14f;" horiz-adv-x="1058" 
d="M427 -20q-131 0 -217 56t-128.5 151.5t-42.5 213.5q0 120 41 228.5t115.5 193.5t176.5 134.5t224 49.5q131 0 217.5 -56.5t129 -152.5t42.5 -213q0 -119 -41 -227.5t-115.5 -194t-176.5 -134.5t-225 -49zM457 159q94 0 164.5 55.5t109 149t38.5 205.5q0 126 -51 192.5
t-151 66.5q-94 0 -164.5 -55.5t-109.5 -148.5t-39 -206q0 -124 50.5 -191.5t152.5 -67.5zM655 1161q-128 0 -192 62t-64 149q0 14 1.5 27.5t5.5 26.5h157q-2 -7 -3.5 -16t-1.5 -18q0 -44 30 -67.5t81 -23.5q57 0 99.5 32t53.5 93h172q-22 -114 -107.5 -189.5t-231.5 -75.5z
" />
    <glyph glyph-name="ocircumflex" unicode="&#xf4;" horiz-adv-x="1058" 
d="M427 -20q-131 0 -217 56t-128.5 151.5t-42.5 213.5q0 120 41 228.5t115.5 193.5t176.5 134.5t224 49.5q131 0 217.5 -56.5t129 -152.5t42.5 -213q0 -119 -41 -227.5t-115.5 -194t-176.5 -134.5t-225 -49zM457 159q94 0 164.5 55.5t109 149t38.5 205.5q0 126 -51 192.5
t-151 66.5q-94 0 -164.5 -55.5t-109.5 -148.5t-39 -206q0 -124 50.5 -191.5t152.5 -67.5zM412 1141l32 143l259 194l215 -221l-28 -137l-225 162z" />
    <glyph glyph-name="uni1ED1" unicode="&#x1ed1;" horiz-adv-x="1058" 
d="M427 -20q-131 0 -217 56t-128.5 151.5t-42.5 213.5q0 120 41 228.5t115.5 193.5t176.5 134.5t224 49.5q131 0 217.5 -56.5t129 -152.5t42.5 -213q0 -119 -41 -227.5t-115.5 -194t-176.5 -134.5t-225 -49zM457 159q94 0 164.5 55.5t109 149t38.5 205.5q0 126 -51 192.5
t-151 66.5q-94 0 -164.5 -55.5t-109.5 -148.5t-39 -206q0 -124 50.5 -191.5t152.5 -67.5zM886 1096l-235 137l-236 -113l23 133l245 158l225 -182zM800 1392l158 229h208l-226 -229h-140z" />
    <glyph glyph-name="uni1ED9" unicode="&#x1ed9;" horiz-adv-x="1058" 
d="M427 -20q-131 0 -217 56t-128.5 151.5t-42.5 213.5q0 120 41 228.5t115.5 193.5t176.5 134.5t224 49.5q131 0 217.5 -56.5t129 -152.5t42.5 -213q0 -119 -41 -227.5t-115.5 -194t-176.5 -134.5t-225 -49zM457 159q94 0 164.5 55.5t109 149t38.5 205.5q0 126 -51 192.5
t-151 66.5q-94 0 -164.5 -55.5t-109.5 -148.5t-39 -206q0 -124 50.5 -191.5t152.5 -67.5zM412 1141l32 143l259 194l215 -221l-28 -137l-225 162zM261 -348l36 186h191l-36 -186h-191z" />
    <glyph glyph-name="uni1ED3" unicode="&#x1ed3;" horiz-adv-x="1058" 
d="M427 -20q-131 0 -217 56t-128.5 151.5t-42.5 213.5q0 120 41 228.5t115.5 193.5t176.5 134.5t224 49.5q131 0 217.5 -56.5t129 -152.5t42.5 -213q0 -119 -41 -227.5t-115.5 -194t-176.5 -134.5t-225 -49zM457 159q94 0 164.5 55.5t109 149t38.5 205.5q0 126 -51 192.5
t-151 66.5q-94 0 -164.5 -55.5t-109.5 -148.5t-39 -206q0 -124 50.5 -191.5t152.5 -67.5zM885 1096l-235 137l-236 -113l23 133l245 158l225 -182zM806 1392l-128 243h200l66 -243h-138z" />
    <glyph glyph-name="uni1ED5" unicode="&#x1ed5;" horiz-adv-x="1058" 
d="M427 -20q-131 0 -217 56t-128.5 151.5t-42.5 213.5q0 120 41 228.5t115.5 193.5t176.5 134.5t224 49.5q131 0 217.5 -56.5t129 -152.5t42.5 -213q0 -119 -41 -227.5t-115.5 -194t-176.5 -134.5t-225 -49zM457 159q94 0 164.5 55.5t109 149t38.5 205.5q0 126 -51 192.5
t-151 66.5q-94 0 -164.5 -55.5t-109.5 -148.5t-39 -206q0 -124 50.5 -191.5t152.5 -67.5zM884 1088l-235 137l-236 -113l23 133l245 157l225 -181zM837 1332l-5 84q84 24 84 81q0 53 -69 53q-29 0 -60.5 -9.5t-63.5 -24.5l-15 110q37 17 78.5 26t85.5 9q73 0 121 -35
t48 -100q0 -77 -55 -124.5t-149 -69.5z" />
    <glyph glyph-name="uni1ED7" unicode="&#x1ed7;" horiz-adv-x="1058" 
d="M427 -20q-131 0 -217 56t-128.5 151.5t-42.5 213.5q0 120 41 228.5t115.5 193.5t176.5 134.5t224 49.5q131 0 217.5 -56.5t129 -152.5t42.5 -213q0 -119 -41 -227.5t-115.5 -194t-176.5 -134.5t-225 -49zM457 159q94 0 164.5 55.5t109 149t38.5 205.5q0 126 -51 192.5
t-151 66.5q-94 0 -164.5 -55.5t-109.5 -148.5t-39 -206q0 -124 50.5 -191.5t152.5 -67.5zM884 1088l-235 137l-236 -113l23 133l245 157l225 -181zM854 1460q-43 0 -90 19.5t-90.5 38.5t-77.5 19q-25 0 -44 -15.5t-24 -49.5h-139q18 100 67 152t124 52q44 0 90 -19t89 -38.5
t80 -19.5q57 0 67 67h140q-16 -102 -66 -154t-126 -52z" />
    <glyph glyph-name="uni020D" unicode="&#x20d;" horiz-adv-x="1058" 
d="M427 -20q-131 0 -217 56t-128.5 151.5t-42.5 213.5q0 120 41 228.5t115.5 193.5t176.5 134.5t224 49.5q131 0 217.5 -56.5t129 -152.5t42.5 -213q0 -119 -41 -227.5t-115.5 -194t-176.5 -134.5t-225 -49zM457 159q94 0 164.5 55.5t109 149t38.5 205.5q0 126 -51 192.5
t-151 66.5q-94 0 -164.5 -55.5t-109.5 -148.5t-39 -206q0 -124 50.5 -191.5t152.5 -67.5zM857 1164h-143l-136 343h210zM572 1164h-143l-149 343h211z" />
    <glyph glyph-name="odieresis" unicode="&#xf6;" horiz-adv-x="1058" 
d="M427 -20q-131 0 -217 56t-128.5 151.5t-42.5 213.5q0 120 41 228.5t115.5 193.5t176.5 134.5t224 49.5q131 0 217.5 -56.5t129 -152.5t42.5 -213q0 -119 -41 -227.5t-115.5 -194t-176.5 -134.5t-225 -49zM457 159q94 0 164.5 55.5t109 149t38.5 205.5q0 126 -51 192.5
t-151 66.5q-94 0 -164.5 -55.5t-109.5 -148.5t-39 -206q0 -124 50.5 -191.5t152.5 -67.5zM365 1182l33 168h177l-34 -168h-176zM747 1182l34 168h176l-33 -168h-177z" />
    <glyph glyph-name="uni022B" unicode="&#x22b;" horiz-adv-x="1058" 
d="M427 -20q-131 0 -217 56t-128.5 151.5t-42.5 213.5q0 120 41 228.5t115.5 193.5t176.5 134.5t224 49.5q131 0 217.5 -56.5t129 -152.5t42.5 -213q0 -119 -41 -227.5t-115.5 -194t-176.5 -134.5t-225 -49zM457 159q94 0 164.5 55.5t109 149t38.5 205.5q0 126 -51 192.5
t-151 66.5q-94 0 -164.5 -55.5t-109.5 -148.5t-39 -206q0 -124 50.5 -191.5t152.5 -67.5zM738 1167l30 159h176l-30 -159h-176zM360 1167l30 159h176l-30 -159h-176zM376 1486l26 143h635l-25 -143h-636z" />
    <glyph glyph-name="uni0231" unicode="&#x231;" horiz-adv-x="1058" 
d="M427 -20q-131 0 -217 56t-128.5 151.5t-42.5 213.5q0 120 41 228.5t115.5 193.5t176.5 134.5t224 49.5q131 0 217.5 -56.5t129 -152.5t42.5 -213q0 -119 -41 -227.5t-115.5 -194t-176.5 -134.5t-225 -49zM457 159q94 0 164.5 55.5t109 149t38.5 205.5q0 126 -51 192.5
t-151 66.5q-94 0 -164.5 -55.5t-109.5 -148.5t-39 -206q0 -124 50.5 -191.5t152.5 -67.5zM542 1171l33 186h195l-33 -186h-195zM382 1518l26 143h635l-25 -143h-636z" />
    <glyph glyph-name="uni1ECD" unicode="&#x1ecd;" horiz-adv-x="1058" 
d="M427 -20q-131 0 -217 56t-128.5 151.5t-42.5 213.5q0 120 41 228.5t115.5 193.5t176.5 134.5t224 49.5q131 0 217.5 -56.5t129 -152.5t42.5 -213q0 -119 -41 -227.5t-115.5 -194t-176.5 -134.5t-225 -49zM457 159q94 0 164.5 55.5t109 149t38.5 205.5q0 126 -51 192.5
t-151 66.5q-94 0 -164.5 -55.5t-109.5 -148.5t-39 -206q0 -124 50.5 -191.5t152.5 -67.5zM261 -348l36 186h191l-36 -186h-191z" />
    <glyph glyph-name="ograve" unicode="&#xf2;" horiz-adv-x="1058" 
d="M427 -20q-131 0 -217 56t-128.5 151.5t-42.5 213.5q0 120 41 228.5t115.5 193.5t176.5 134.5t224 49.5q131 0 217.5 -56.5t129 -152.5t42.5 -213q0 -119 -41 -227.5t-115.5 -194t-176.5 -134.5t-225 -49zM457 159q94 0 164.5 55.5t109 149t38.5 205.5q0 126 -51 192.5
t-151 66.5q-94 0 -164.5 -55.5t-109.5 -148.5t-39 -206q0 -124 50.5 -191.5t152.5 -67.5zM816 1147l-339 144l37 210l326 -217z" />
    <glyph glyph-name="uni1ECF" unicode="&#x1ecf;" horiz-adv-x="1058" 
d="M427 -20q-131 0 -217 56t-128.5 151.5t-42.5 213.5q0 120 41 228.5t115.5 193.5t176.5 134.5t224 49.5q131 0 217.5 -56.5t129 -152.5t42.5 -213q0 -119 -41 -227.5t-115.5 -194t-176.5 -134.5t-225 -49zM457 159q94 0 164.5 55.5t109 149t38.5 205.5q0 126 -51 192.5
t-151 66.5q-94 0 -164.5 -55.5t-109.5 -148.5t-39 -206q0 -124 50.5 -191.5t152.5 -67.5zM593 1127q47 37 81 70.5t34 76.5q0 54 -66 54q-31 0 -64 -10.5t-67 -26.5l-14 109q39 17 80.5 27t86.5 10q71 0 119.5 -35.5t48.5 -101.5q0 -80 -52.5 -136.5t-128.5 -105.5z" />
    <glyph glyph-name="ohorn" unicode="&#x1a1;" horiz-adv-x="1058" 
d="M427 -20q-131 0 -217 56t-128.5 151.5t-42.5 213.5q0 120 41 228.5t115.5 193.5t176.5 134.5t224 49.5q131 0 217.5 -56.5t129 -152.5t42.5 -213q0 -119 -41 -227.5t-115.5 -194t-176.5 -134.5t-225 -49zM457 159q94 0 164.5 55.5t109 149t38.5 205.5q0 126 -51 192.5
t-151 66.5q-94 0 -164.5 -55.5t-109.5 -148.5t-39 -206q0 -124 50.5 -191.5t152.5 -67.5zM658 842l27 146q75 0 123 34.5t63 113.5h189q-18 -90 -75.5 -156t-142.5 -102t-184 -36z" />
    <glyph glyph-name="uni1EDB" unicode="&#x1edb;" horiz-adv-x="1058" 
d="M427 -20q-131 0 -217 56t-128.5 151.5t-42.5 213.5q0 120 41 228.5t115.5 193.5t176.5 134.5t224 49.5q131 0 217.5 -56.5t129 -152.5t42.5 -213q0 -119 -41 -227.5t-115.5 -194t-176.5 -134.5t-225 -49zM457 159q94 0 164.5 55.5t109 149t38.5 205.5q0 126 -51 192.5
t-151 66.5q-94 0 -164.5 -55.5t-109.5 -148.5t-39 -206q0 -124 50.5 -191.5t152.5 -67.5zM658 842l27 146q75 0 123 34.5t63 113.5h189q-18 -90 -75.5 -156t-142.5 -102t-184 -36zM465 1146l28 148l382 212l-36 -234z" />
    <glyph glyph-name="uni1EE3" unicode="&#x1ee3;" horiz-adv-x="1058" 
d="M427 -20q-131 0 -217 56t-128.5 151.5t-42.5 213.5q0 120 41 228.5t115.5 193.5t176.5 134.5t224 49.5q131 0 217.5 -56.5t129 -152.5t42.5 -213q0 -119 -41 -227.5t-115.5 -194t-176.5 -134.5t-225 -49zM457 159q94 0 164.5 55.5t109 149t38.5 205.5q0 126 -51 192.5
t-151 66.5q-94 0 -164.5 -55.5t-109.5 -148.5t-39 -206q0 -124 50.5 -191.5t152.5 -67.5zM658 842l27 146q75 0 123 34.5t63 113.5h189q-18 -90 -75.5 -156t-142.5 -102t-184 -36zM261 -348l36 186h191l-36 -186h-191z" />
    <glyph glyph-name="uni1EDD" unicode="&#x1edd;" horiz-adv-x="1058" 
d="M427 -20q-131 0 -217 56t-128.5 151.5t-42.5 213.5q0 120 41 228.5t115.5 193.5t176.5 134.5t224 49.5q131 0 217.5 -56.5t129 -152.5t42.5 -213q0 -119 -41 -227.5t-115.5 -194t-176.5 -134.5t-225 -49zM457 159q94 0 164.5 55.5t109 149t38.5 205.5q0 126 -51 192.5
t-151 66.5q-94 0 -164.5 -55.5t-109.5 -148.5t-39 -206q0 -124 50.5 -191.5t152.5 -67.5zM658 842l27 146q75 0 123 34.5t63 113.5h189q-18 -90 -75.5 -156t-142.5 -102t-184 -36zM816 1147l-339 144l37 210l326 -217z" />
    <glyph glyph-name="uni1EDF" unicode="&#x1edf;" horiz-adv-x="1058" 
d="M427 -20q-131 0 -217 56t-128.5 151.5t-42.5 213.5q0 120 41 228.5t115.5 193.5t176.5 134.5t224 49.5q131 0 217.5 -56.5t129 -152.5t42.5 -213q0 -119 -41 -227.5t-115.5 -194t-176.5 -134.5t-225 -49zM457 159q94 0 164.5 55.5t109 149t38.5 205.5q0 126 -51 192.5
t-151 66.5q-94 0 -164.5 -55.5t-109.5 -148.5t-39 -206q0 -124 50.5 -191.5t152.5 -67.5zM658 842l27 146q75 0 123 34.5t63 113.5h189q-18 -90 -75.5 -156t-142.5 -102t-184 -36zM593 1127q47 37 81 70.5t34 76.5q0 54 -66 54q-31 0 -64 -10.5t-67 -26.5l-14 109
q39 17 80.5 27t86.5 10q71 0 119.5 -35.5t48.5 -101.5q0 -80 -52.5 -136.5t-128.5 -105.5z" />
    <glyph glyph-name="uni1EE1" unicode="&#x1ee1;" horiz-adv-x="1058" 
d="M427 -20q-131 0 -217 56t-128.5 151.5t-42.5 213.5q0 120 41 228.5t115.5 193.5t176.5 134.5t224 49.5q131 0 217.5 -56.5t129 -152.5t42.5 -213q0 -119 -41 -227.5t-115.5 -194t-176.5 -134.5t-225 -49zM457 159q94 0 164.5 55.5t109 149t38.5 205.5q0 126 -51 192.5
t-151 66.5q-94 0 -164.5 -55.5t-109.5 -148.5t-39 -206q0 -124 50.5 -191.5t152.5 -67.5zM658 842l27 146q75 0 123 34.5t63 113.5h189q-18 -90 -75.5 -156t-142.5 -102t-184 -36zM808 1158q-44 0 -90 22t-90 43.5t-81 21.5q-32 0 -52 -19t-27 -52h-149q22 113 75.5 172
t133.5 59q47 0 90 -22t83.5 -43.5t79.5 -21.5q32 0 51 19t25 58h153q-24 -123 -74 -180t-128 -57z" />
    <glyph glyph-name="ohungarumlaut" unicode="&#x151;" horiz-adv-x="1058" 
d="M427 -20q-131 0 -217 56t-128.5 151.5t-42.5 213.5q0 120 41 228.5t115.5 193.5t176.5 134.5t224 49.5q131 0 217.5 -56.5t129 -152.5t42.5 -213q0 -119 -41 -227.5t-115.5 -194t-176.5 -134.5t-225 -49zM457 159q94 0 164.5 55.5t109 149t38.5 205.5q0 126 -51 192.5
t-151 66.5q-94 0 -164.5 -55.5t-109.5 -148.5t-39 -206q0 -124 50.5 -191.5t152.5 -67.5zM422 1164l212 343h210l-279 -343h-143zM708 1164l224 343h211l-292 -343h-143z" />
    <glyph glyph-name="uni020F" unicode="&#x20f;" horiz-adv-x="1058" 
d="M427 -20q-131 0 -217 56t-128.5 151.5t-42.5 213.5q0 120 41 228.5t115.5 193.5t176.5 134.5t224 49.5q131 0 217.5 -56.5t129 -152.5t42.5 -213q0 -119 -41 -227.5t-115.5 -194t-176.5 -134.5t-225 -49zM457 159q94 0 164.5 55.5t109 149t38.5 205.5q0 126 -51 192.5
t-151 66.5q-94 0 -164.5 -55.5t-109.5 -148.5t-39 -206q0 -124 50.5 -191.5t152.5 -67.5zM681 1426q131 0 194 -63.5t63 -153.5q0 -12 -1 -23.5t-3 -24.5h-161q2 8 2 14.5v12.5q0 48 -31.5 73t-83.5 25q-58 0 -102 -31.5t-55 -93.5h-166q12 71 56.5 131t117.5 97t170 37z
" />
    <glyph glyph-name="omacron" unicode="&#x14d;" horiz-adv-x="1058" 
d="M427 -20q-131 0 -217 56t-128.5 151.5t-42.5 213.5q0 120 41 228.5t115.5 193.5t176.5 134.5t224 49.5q131 0 217.5 -56.5t129 -152.5t42.5 -213q0 -119 -41 -227.5t-115.5 -194t-176.5 -134.5t-225 -49zM457 159q94 0 164.5 55.5t109 149t38.5 205.5q0 126 -51 192.5
t-151 66.5q-94 0 -164.5 -55.5t-109.5 -148.5t-39 -206q0 -124 50.5 -191.5t152.5 -67.5zM332 1190l29 150h631l-30 -150h-630z" />
    <glyph glyph-name="uni1E53" unicode="&#x1e53;" horiz-adv-x="1058" 
d="M427 -20q-131 0 -217 56t-128.5 151.5t-42.5 213.5q0 120 41 228.5t115.5 193.5t176.5 134.5t224 49.5q131 0 217.5 -56.5t129 -152.5t42.5 -213q0 -119 -41 -227.5t-115.5 -194t-176.5 -134.5t-225 -49zM457 159q94 0 164.5 55.5t109 149t38.5 205.5q0 126 -51 192.5
t-151 66.5q-94 0 -164.5 -55.5t-109.5 -148.5t-39 -206q0 -124 50.5 -191.5t152.5 -67.5zM321 1174l26 143h635l-25 -143h-636zM537 1432l19 137l361 190l-32 -211z" />
    <glyph glyph-name="uni1E51" unicode="&#x1e51;" horiz-adv-x="1058" 
d="M427 -20q-131 0 -217 56t-128.5 151.5t-42.5 213.5q0 120 41 228.5t115.5 193.5t176.5 134.5t224 49.5q131 0 217.5 -56.5t129 -152.5t42.5 -213q0 -119 -41 -227.5t-115.5 -194t-176.5 -134.5t-225 -49zM457 159q94 0 164.5 55.5t109 149t38.5 205.5q0 126 -51 192.5
t-151 66.5q-94 0 -164.5 -55.5t-109.5 -148.5t-39 -206q0 -124 50.5 -191.5t152.5 -67.5zM321 1174l26 143h635l-25 -143h-636zM878 1432l-341 116l37 199l329 -190z" />
    <glyph glyph-name="uni01EB" unicode="&#x1eb;" horiz-adv-x="1058" 
d="M427 -20q-131 0 -217 56t-128.5 151.5t-42.5 213.5q0 120 41 228.5t115.5 193.5t176.5 134.5t224 49.5q131 0 217.5 -56.5t129 -152.5t42.5 -213q0 -119 -41 -227.5t-115.5 -194t-176.5 -134.5t-225 -49zM457 159q94 0 164.5 55.5t109 149t38.5 205.5q0 126 -51 192.5
t-151 66.5q-94 0 -164.5 -55.5t-109.5 -148.5t-39 -206q0 -124 50.5 -191.5t152.5 -67.5zM450 10l103 -10q-47 -32 -91.5 -68.5t-73.5 -78t-29 -87.5q0 -74 74 -74q33 0 61 7.5t58 22.5l13 -103q-30 -15 -71.5 -26.5t-94.5 -11.5q-73 0 -121 36.5t-48 102.5q0 86 67 162
t153 128z" />
    <glyph glyph-name="oslash" unicode="&#xf8;" horiz-adv-x="1058" 
d="M860 1060h166l-859 -1140h-166zM427 -20q-131 0 -217 56t-128.5 151.5t-42.5 213.5q0 120 41 228.5t115.5 193.5t176.5 134.5t224 49.5q131 0 217.5 -56.5t129 -152.5t42.5 -213q0 -119 -41 -227.5t-115.5 -194t-176.5 -134.5t-225 -49zM457 159q94 0 164.5 55.5t109 149
t38.5 205.5q0 126 -51 192.5t-151 66.5q-94 0 -164.5 -55.5t-109.5 -148.5t-39 -206q0 -124 50.5 -191.5t152.5 -67.5z" />
    <glyph glyph-name="oslashacute" unicode="&#x1ff;" horiz-adv-x="1058" 
d="M860 1060h166l-859 -1140h-166zM427 -20q-131 0 -217 56t-128.5 151.5t-42.5 213.5q0 120 41 228.5t115.5 193.5t176.5 134.5t224 49.5q131 0 217.5 -56.5t129 -152.5t42.5 -213q0 -119 -41 -227.5t-115.5 -194t-176.5 -134.5t-225 -49zM457 159q94 0 164.5 55.5t109 149
t38.5 205.5q0 126 -51 192.5t-151 66.5q-94 0 -164.5 -55.5t-109.5 -148.5t-39 -206q0 -124 50.5 -191.5t152.5 -67.5zM465 1146l28 148l382 212l-36 -234z" />
    <glyph glyph-name="otilde" unicode="&#xf5;" horiz-adv-x="1058" 
d="M427 -20q-131 0 -217 56t-128.5 151.5t-42.5 213.5q0 120 41 228.5t115.5 193.5t176.5 134.5t224 49.5q131 0 217.5 -56.5t129 -152.5t42.5 -213q0 -119 -41 -227.5t-115.5 -194t-176.5 -134.5t-225 -49zM457 159q94 0 164.5 55.5t109 149t38.5 205.5q0 126 -51 192.5
t-151 66.5q-94 0 -164.5 -55.5t-109.5 -148.5t-39 -206q0 -124 50.5 -191.5t152.5 -67.5zM808 1158q-44 0 -90 22t-90 43.5t-81 21.5q-32 0 -52 -19t-27 -52h-149q22 113 75.5 172t133.5 59q47 0 90 -22t83.5 -43.5t79.5 -21.5q32 0 51 19t25 58h153q-24 -123 -74 -180
t-128 -57z" />
    <glyph glyph-name="uni1E4D" unicode="&#x1e4d;" horiz-adv-x="1058" 
d="M427 -20q-131 0 -217 56t-128.5 151.5t-42.5 213.5q0 120 41 228.5t115.5 193.5t176.5 134.5t224 49.5q131 0 217.5 -56.5t129 -152.5t42.5 -213q0 -119 -41 -227.5t-115.5 -194t-176.5 -134.5t-225 -49zM457 159q94 0 164.5 55.5t109 149t38.5 205.5q0 126 -51 192.5
t-151 66.5q-94 0 -164.5 -55.5t-109.5 -148.5t-39 -206q0 -124 50.5 -191.5t152.5 -67.5zM793 1155q-44 0 -90.5 19.5t-90 38.5t-78.5 19q-25 0 -44 -15.5t-23 -49.5h-139q18 100 67 152t124 52q44 0 89.5 -19t89 -38.5t80.5 -19.5q26 0 44 17.5t23 49.5h139
q-15 -102 -65.5 -154t-125.5 -52zM527 1454l19 137l361 190l-32 -211z" />
    <glyph glyph-name="uni1E4F" unicode="&#x1e4f;" horiz-adv-x="1058" 
d="M427 -20q-131 0 -217 56t-128.5 151.5t-42.5 213.5q0 120 41 228.5t115.5 193.5t176.5 134.5t224 49.5q131 0 217.5 -56.5t129 -152.5t42.5 -213q0 -119 -41 -227.5t-115.5 -194t-176.5 -134.5t-225 -49zM457 159q94 0 164.5 55.5t109 149t38.5 205.5q0 126 -51 192.5
t-151 66.5q-94 0 -164.5 -55.5t-109.5 -148.5t-39 -206q0 -124 50.5 -191.5t152.5 -67.5zM793 1155q-44 0 -90.5 19.5t-90 38.5t-78.5 19q-25 0 -44 -15.5t-23 -49.5h-139q18 100 67 152t124 52q44 0 89.5 -19t89 -38.5t80.5 -19.5q26 0 44 17.5t23 49.5h139
q-15 -102 -65.5 -154t-125.5 -52zM798 1509l30 159h176l-30 -159h-176zM420 1509l30 159h176l-30 -159h-176z" />
    <glyph glyph-name="uni022D" unicode="&#x22d;" horiz-adv-x="1058" 
d="M427 -20q-131 0 -217 56t-128.5 151.5t-42.5 213.5q0 120 41 228.5t115.5 193.5t176.5 134.5t224 49.5q131 0 217.5 -56.5t129 -152.5t42.5 -213q0 -119 -41 -227.5t-115.5 -194t-176.5 -134.5t-225 -49zM457 159q94 0 164.5 55.5t109 149t38.5 205.5q0 126 -51 192.5
t-151 66.5q-94 0 -164.5 -55.5t-109.5 -148.5t-39 -206q0 -124 50.5 -191.5t152.5 -67.5zM793 1155q-44 0 -90.5 19.5t-90 38.5t-78.5 19q-25 0 -44 -15.5t-23 -49.5h-139q18 100 67 152t124 52q44 0 89.5 -19t89 -38.5t80.5 -19.5q26 0 44 17.5t23 49.5h139
q-15 -102 -65.5 -154t-125.5 -52zM381 1516l26 143h635l-25 -143h-636z" />
    <glyph glyph-name="oe" unicode="&#x153;" horiz-adv-x="1680" 
d="M938 614h473q2 11 3.5 27t1.5 26q0 67 -35 114t-117 47q-98 0 -165 -65.5t-100 -178.5q-13 -55 -20 -97.5t-7 -77.5q0 -95 32 -152t84.5 -82.5t113.5 -25.5q70 0 154 23t146 55l-18 -178q-57 -27 -137 -48t-177 -21q-166 0 -256.5 65.5t-121.5 184.5l61 -3
q-70 -118 -184 -182.5t-246 -64.5q-126 0 -211.5 57t-128.5 153t-43 213q0 121 40 230t114 193t177 132.5t228 48.5q87 0 159 -28t121.5 -83t67.5 -136l-64 4q48 80 113 134t140.5 81.5t155.5 27.5q152 0 244.5 -91.5t92.5 -250.5q0 -77 -13.5 -116t-28.5 -78h-679zM456 159
q98 0 169 58t109.5 152.5t38.5 204.5q0 112 -50 183t-149 71t-170.5 -54.5t-110.5 -149t-39 -214.5q0 -114 51.5 -182.5t150.5 -68.5z" />
    <glyph glyph-name="p" unicode="p" horiz-adv-x="1076" 
d="M-69 -484l260 1472h178l-4 -215l-48 46q76 86 155 137t188 51q112 0 188 -54.5t114.5 -149t38.5 -214.5q0 -125 -35 -235t-100.5 -194.5t-156.5 -132t-203 -47.5q-108 0 -181 52t-107 148l46 35l-123 -699h-210zM492 159q86 0 152 56t103 150t37 207t-44 184.5t-140 71.5
q-84 0 -154 -52.5t-111.5 -146.5t-41.5 -219q0 -130 53.5 -190.5t145.5 -60.5z" />
    <glyph glyph-name="thorn" unicode="&#xfe;" horiz-adv-x="1076" 
d="M-69 -484l350 1984h210l-124 -695l-30 52q64 68 144 109t184 41q111 0 185.5 -54.5t112.5 -149t38 -214.5q0 -125 -35 -235t-100.5 -194.5t-156.5 -132t-203 -47.5q-108 0 -181 52t-107 148l46 35l-123 -699h-210zM492 159q86 0 152 56t103 150t37 207t-44 184.5
t-140 71.5q-84 0 -154 -52.5t-111.5 -146.5t-41.5 -219q0 -130 53.5 -190.5t145.5 -60.5z" />
    <glyph glyph-name="q" unicode="q" horiz-adv-x="1076" 
d="M555 -484l121 683l32 -41q-66 -87 -151.5 -132.5t-170.5 -45.5q-117 0 -194 54.5t-115 147t-38 208.5q0 118 37 228.5t106 198.5t165 139t212 51t177 -55t110 -159l-70 -25l82 220h167l-259 -1472h-211zM453 159q84 0 151 51.5t106 144.5t39 216q0 131 -49.5 194
t-139.5 63t-158 -56.5t-106.5 -150t-38.5 -203.5q0 -113 47 -186t149 -73z" />
    <glyph glyph-name="r" unicode="r" horiz-adv-x="642" 
d="M17 0l174 988h191l-27 -284l-125 -704h-213zM343 673l12 161q42 54 92 95t105 64t111 23h46l-79 -213h-78q-41 0 -82.5 -18.5t-75.5 -48.5t-51 -63z" />
    <glyph glyph-name="racute" unicode="&#x155;" horiz-adv-x="642" 
d="M17 0l174 988h191l-27 -284l-125 -704h-213zM343 673l12 161q42 54 92 95t105 64t111 23h46l-79 -213h-78q-41 0 -82.5 -18.5t-75.5 -48.5t-51 -63zM299 1146l28 148l382 212l-36 -234z" />
    <glyph glyph-name="rcaron" unicode="&#x159;" horiz-adv-x="642" 
d="M17 0l174 988h191l-27 -284l-125 -704h-213zM343 673l12 161q42 54 92 95t105 64t111 23h46l-79 -213h-78q-41 0 -82.5 -18.5t-75.5 -48.5t-51 -63zM465 1117l-214 222l28 137l225 -163l278 163l-27 -161z" />
    <glyph glyph-name="uni0157" unicode="&#x157;" horiz-adv-x="642" 
d="M17 0l174 988h191l-27 -284l-125 -704h-213zM343 673l12 161q42 54 92 95t105 64t111 23h46l-79 -213h-78q-41 0 -82.5 -18.5t-75.5 -48.5t-51 -63zM27 -537h-79l93 174h-74l31 181h199l-32 -181z" />
    <glyph glyph-name="uni0211" unicode="&#x211;" horiz-adv-x="642" 
d="M17 0l174 988h191l-27 -284l-125 -704h-213zM343 673l12 161q42 54 92 95t105 64t111 23h46l-79 -213h-78q-41 0 -82.5 -18.5t-75.5 -48.5t-51 -63zM692 1164h-143l-136 343h210zM407 1164h-143l-149 343h211z" />
    <glyph glyph-name="uni1E5B" unicode="&#x1e5b;" horiz-adv-x="642" 
d="M17 0l174 988h191l-27 -284l-125 -704h-213zM343 673l12 161q42 54 92 95t105 64t111 23h46l-79 -213h-78q-41 0 -82.5 -18.5t-75.5 -48.5t-51 -63zM-34 -348l36 186h191l-36 -186h-191z" />
    <glyph glyph-name="uni0213" unicode="&#x213;" horiz-adv-x="642" 
d="M17 0l174 988h191l-27 -284l-125 -704h-213zM343 673l12 161q42 54 92 95t105 64t111 23h46l-79 -213h-78q-41 0 -82.5 -18.5t-75.5 -48.5t-51 -63zM515 1426q131 0 194 -63.5t63 -153.5q0 -12 -1 -23.5t-3 -24.5h-161q2 8 2 14.5v12.5q0 48 -31.5 73t-83.5 25
q-58 0 -102 -31.5t-55 -93.5h-166q12 71 56.5 131t117.5 97t170 37z" />
    <glyph glyph-name="uni1E5F" unicode="&#x1e5f;" horiz-adv-x="642" 
d="M17 0l174 988h191l-27 -284l-125 -704h-213zM343 673l12 161q42 54 92 95t105 64t111 23h46l-79 -213h-78q-41 0 -82.5 -18.5t-75.5 -48.5t-51 -63zM-249 -332l29 150h631l-30 -150h-630z" />
    <glyph glyph-name="s" unicode="s" horiz-adv-x="801" 
d="M289 -20q-111 0 -188 27t-124 54l54 190q42 -31 113 -65.5t162 -34.5q87 0 127.5 37t40.5 92q0 65 -43 93.5t-105 47.5q-61 21 -114.5 47.5t-85.5 73.5t-32 127q0 84 42 161.5t130 127t227 49.5q93 0 159 -21t108 -47l-51 -180q-39 37 -98 64t-137 27q-76 0 -126.5 -32.5
t-50.5 -99.5q0 -62 48 -88t137 -58q54 -20 102 -49t77.5 -78.5t29.5 -128.5q0 -54 -20 -113t-65.5 -109.5t-123.5 -82t-193 -31.5z" />
    <glyph glyph-name="sacute" unicode="&#x15b;" horiz-adv-x="801" 
d="M289 -20q-111 0 -188 27t-124 54l54 190q42 -31 113 -65.5t162 -34.5q87 0 127.5 37t40.5 92q0 65 -43 93.5t-105 47.5q-61 21 -114.5 47.5t-85.5 73.5t-32 127q0 84 42 161.5t130 127t227 49.5q93 0 159 -21t108 -47l-51 -180q-39 37 -98 64t-137 27q-76 0 -126.5 -32.5
t-50.5 -99.5q0 -62 48 -88t137 -58q54 -20 102 -49t77.5 -78.5t29.5 -128.5q0 -54 -20 -113t-65.5 -109.5t-123.5 -82t-193 -31.5zM346 1138l28 148l382 212l-36 -234z" />
    <glyph glyph-name="uni1E65" unicode="&#x1e65;" horiz-adv-x="801" 
d="M289 -20q-111 0 -188 27t-124 54l54 190q42 -31 113 -65.5t162 -34.5q87 0 127.5 37t40.5 92q0 65 -43 93.5t-105 47.5q-61 21 -114.5 47.5t-85.5 73.5t-32 127q0 84 42 161.5t130 127t227 49.5q93 0 159 -21t108 -47l-51 -180q-39 37 -98 64t-137 27q-76 0 -126.5 -32.5
t-50.5 -99.5q0 -62 48 -88t137 -58q54 -20 102 -49t77.5 -78.5t29.5 -128.5q0 -54 -20 -113t-65.5 -109.5t-123.5 -82t-193 -31.5zM348 1104l19 137l361 190l-32 -211zM493 1527l33 186h195l-33 -186h-195z" />
    <glyph glyph-name="scaron" unicode="&#x161;" horiz-adv-x="801" 
d="M289 -20q-111 0 -188 27t-124 54l54 190q42 -31 113 -65.5t162 -34.5q87 0 127.5 37t40.5 92q0 65 -43 93.5t-105 47.5q-61 21 -114.5 47.5t-85.5 73.5t-32 127q0 84 42 161.5t130 127t227 49.5q93 0 159 -21t108 -47l-51 -180q-39 37 -98 64t-137 27q-76 0 -126.5 -32.5
t-50.5 -99.5q0 -62 48 -88t137 -58q54 -20 102 -49t77.5 -78.5t29.5 -128.5q0 -54 -20 -113t-65.5 -109.5t-123.5 -82t-193 -31.5zM512 1109l-214 222l28 137l225 -163l278 163l-27 -161z" />
    <glyph glyph-name="uni1E67" unicode="&#x1e67;" horiz-adv-x="801" 
d="M289 -20q-111 0 -188 27t-124 54l54 190q42 -31 113 -65.5t162 -34.5q87 0 127.5 37t40.5 92q0 65 -43 93.5t-105 47.5q-61 21 -114.5 47.5t-85.5 73.5t-32 127q0 84 42 161.5t130 127t227 49.5q93 0 159 -21t108 -47l-51 -180q-39 37 -98 64t-137 27q-76 0 -126.5 -32.5
t-50.5 -99.5q0 -62 48 -88t137 -58q54 -20 102 -49t77.5 -78.5t29.5 -128.5q0 -54 -20 -113t-65.5 -109.5t-123.5 -82t-193 -31.5zM500 1080l-226 181l22 129l233 -138l243 136l-23 -147zM471 1459l33 186h195l-33 -186h-195z" />
    <glyph glyph-name="scedilla" unicode="&#x15f;" horiz-adv-x="801" 
d="M289 -20q-111 0 -188 27t-124 54l54 190q42 -31 113 -65.5t162 -34.5q87 0 127.5 37t40.5 92q0 65 -43 93.5t-105 47.5q-61 21 -114.5 47.5t-85.5 73.5t-32 127q0 84 42 161.5t130 127t227 49.5q93 0 159 -21t108 -47l-51 -180q-39 37 -98 64t-137 27q-76 0 -126.5 -32.5
t-50.5 -99.5q0 -62 48 -88t137 -58q54 -20 102 -49t77.5 -78.5t29.5 -128.5q0 -54 -20 -113t-65.5 -109.5t-123.5 -82t-193 -31.5zM277 -158l-66 30q27 9 51.5 14.5t52.5 5.5q71 0 111.5 -36t40.5 -101q0 -96 -73.5 -157t-181.5 -61q-52 0 -89.5 11.5t-64.5 26.5l53 106
q28 -15 57.5 -24.5t64.5 -9.5q52 0 81 24t29 59q0 65 -89 65q-23 0 -46.5 -3.5t-51.5 -11.5l93 220h105z" />
    <glyph glyph-name="scircumflex" unicode="&#x15d;" horiz-adv-x="801" 
d="M289 -20q-111 0 -188 27t-124 54l54 190q42 -31 113 -65.5t162 -34.5q87 0 127.5 37t40.5 92q0 65 -43 93.5t-105 47.5q-61 21 -114.5 47.5t-85.5 73.5t-32 127q0 84 42 161.5t130 127t227 49.5q93 0 159 -21t108 -47l-51 -180q-39 37 -98 64t-137 27q-76 0 -126.5 -32.5
t-50.5 -99.5q0 -62 48 -88t137 -58q54 -20 102 -49t77.5 -78.5t29.5 -128.5q0 -54 -20 -113t-65.5 -109.5t-123.5 -82t-193 -31.5zM293 1133l32 143l259 194l215 -221l-28 -137l-225 162z" />
    <glyph glyph-name="uni0219" unicode="&#x219;" horiz-adv-x="801" 
d="M289 -20q-111 0 -188 27t-124 54l54 190q42 -31 113 -65.5t162 -34.5q87 0 127.5 37t40.5 92q0 65 -43 93.5t-105 47.5q-61 21 -114.5 47.5t-85.5 73.5t-32 127q0 84 42 161.5t130 127t227 49.5q93 0 159 -21t108 -47l-51 -180q-39 37 -98 64t-137 27q-76 0 -126.5 -32.5
t-50.5 -99.5q0 -62 48 -88t137 -58q54 -20 102 -49t77.5 -78.5t29.5 -128.5q0 -54 -20 -113t-65.5 -109.5t-123.5 -82t-193 -31.5zM199 -537h-79l93 174h-74l31 181h199l-32 -181z" />
    <glyph glyph-name="uni1E61" unicode="&#x1e61;" horiz-adv-x="801" 
d="M289 -20q-111 0 -188 27t-124 54l54 190q42 -31 113 -65.5t162 -34.5q87 0 127.5 37t40.5 92q0 65 -43 93.5t-105 47.5q-61 21 -114.5 47.5t-85.5 73.5t-32 127q0 84 42 161.5t130 127t227 49.5q93 0 159 -21t108 -47l-51 -180q-39 37 -98 64t-137 27q-76 0 -126.5 -32.5
t-50.5 -99.5q0 -62 48 -88t137 -58q54 -20 102 -49t77.5 -78.5t29.5 -128.5q0 -54 -20 -113t-65.5 -109.5t-123.5 -82t-193 -31.5zM431 1183l36 186h191l-36 -186h-191z" />
    <glyph glyph-name="uni1E63" unicode="&#x1e63;" horiz-adv-x="801" 
d="M289 -20q-111 0 -188 27t-124 54l54 190q42 -31 113 -65.5t162 -34.5q87 0 127.5 37t40.5 92q0 65 -43 93.5t-105 47.5q-61 21 -114.5 47.5t-85.5 73.5t-32 127q0 84 42 161.5t130 127t227 49.5q93 0 159 -21t108 -47l-51 -180q-39 37 -98 64t-137 27q-76 0 -126.5 -32.5
t-50.5 -99.5q0 -62 48 -88t137 -58q54 -20 102 -49t77.5 -78.5t29.5 -128.5q0 -54 -20 -113t-65.5 -109.5t-123.5 -82t-193 -31.5zM138 -348l36 186h191l-36 -186h-191z" />
    <glyph glyph-name="uni1E69" unicode="&#x1e69;" horiz-adv-x="801" 
d="M289 -20q-111 0 -188 27t-124 54l54 190q42 -31 113 -65.5t162 -34.5q87 0 127.5 37t40.5 92q0 65 -43 93.5t-105 47.5q-61 21 -114.5 47.5t-85.5 73.5t-32 127q0 84 42 161.5t130 127t227 49.5q93 0 159 -21t108 -47l-51 -180q-39 37 -98 64t-137 27q-76 0 -126.5 -32.5
t-50.5 -99.5q0 -62 48 -88t137 -58q54 -20 102 -49t77.5 -78.5t29.5 -128.5q0 -54 -20 -113t-65.5 -109.5t-123.5 -82t-193 -31.5zM431 1183l36 186h191l-36 -186h-191zM138 -348l36 186h191l-36 -186h-191z" />
    <glyph glyph-name="germandbls" unicode="&#xdf;" horiz-adv-x="1172" 
d="M595 -28q-57 0 -107 5.5t-104 18.5l29 178q50 -11 100.5 -17t106.5 -6q101 0 173 47t72 138q0 58 -29 98t-71 71t-84 61.5t-71 69.5t-29 96q0 71 54 136t140 141q61 54 96.5 100.5t35.5 112.5q-1 59 -44.5 93t-124.5 34q-118 0 -189 -69.5t-93 -192.5l-191 -1087h-211
l145 821h-139l48 167h120l16 95q26 150 101.5 249t186.5 147.5t243 48.5q160 0 252 -71.5t92 -189.5q0 -103 -42.5 -168t-118.5 -136q-72 -67 -114 -108.5t-42 -89.5q0 -40 28 -71.5t69.5 -62t82.5 -68t69.5 -87.5t28.5 -121q1 -90 -38.5 -160.5t-107.5 -120t-155 -76
t-184 -26.5z" />
    <glyph glyph-name="uni0259" unicode="&#x259;" horiz-adv-x="941" 
d="M694 413q-39 13 -73.5 19t-80.5 6q-121 0 -188 -26.5t-93.5 -66.5t-26.5 -79q0 -42 21.5 -65t53.5 -32t62 -9q73 0 132.5 39t102.5 106.5t67 153.5l8 58q6 121 -26 189t-90 95.5t-127 27.5q-72 0 -148.5 -18t-140.5 -50l17 171q58 33 139.5 54.5t180.5 21.5
q143 0 235.5 -57t137.5 -153.5t45 -216.5q0 -115 -39 -222.5t-111.5 -192.5t-173 -135t-223.5 -50q-150 0 -228.5 74t-78.5 193q0 70 29.5 130.5t88 105t145.5 69t203 24.5q57 0 110 -6.5t85 -16.5z" />
    <glyph glyph-name="t" unicode="t" horiz-adv-x="636" 
d="M309 -20q-112 0 -159 58.5t-47 135.5q0 6 2 22t10.5 67.5t27.5 162t53 303t88 492.5l213 22l-175 -1021q0 -51 30 -62t107 -11h58l-49 -169h-159zM73 821l48 167h546l-31 -167h-563z" />
    <glyph glyph-name="tbar" unicode="&#x167;" horiz-adv-x="637" 
d="M11 469l28 143h560l-27 -143h-561zM310 -20q-112 0 -159 58.5t-47 135.5q0 6 2 22t10.5 67.5t27.5 162t53 303t88 492.5l213 22l-175 -1021q0 -51 30 -62t107 -11h58l-49 -169h-159zM74 821l48 167h546l-31 -167h-563z" />
    <glyph glyph-name="tcaron" unicode="&#x165;" horiz-adv-x="636" 
d="M309 -20q-112 0 -159 58.5t-47 135.5q0 6 2 22t10.5 67.5t27.5 162t53 303t88 492.5l213 22l-175 -1021q0 -51 30 -62t107 -11h58l-49 -169h-159zM73 821l48 167h546l-31 -167h-563zM564 1086l62 342h189l-118 -342h-133z" />
    <glyph glyph-name="uni0163" unicode="&#x163;" horiz-adv-x="636" 
d="M309 -20q-112 0 -159 58.5t-47 135.5q0 6 2 22t10.5 67.5t27.5 162t53 303t88 492.5l213 22l-175 -1021q0 -51 30 -62t107 -11h58l-49 -169h-159zM73 821l48 167h546l-31 -167h-563zM300 -158l-66 30q27 9 51.5 14.5t52.5 5.5q71 0 111.5 -36t40.5 -101q0 -96 -73.5 -157
t-181.5 -61q-52 0 -89.5 11.5t-64.5 26.5l53 106q28 -15 57.5 -24.5t64.5 -9.5q52 0 81 24t29 59q0 65 -89 65q-23 0 -46.5 -3.5t-51.5 -11.5l93 220h105z" />
    <glyph glyph-name="uni021B" unicode="&#x21b;" horiz-adv-x="636" 
d="M309 -20q-112 0 -159 58.5t-47 135.5q0 6 2 22t10.5 67.5t27.5 162t53 303t88 492.5l213 22l-175 -1021q0 -51 30 -62t107 -11h58l-49 -169h-159zM73 821l48 167h546l-31 -167h-563zM222 -537h-79l93 174h-74l31 181h199l-32 -181z" />
    <glyph glyph-name="uni1E97" unicode="&#x1e97;" horiz-adv-x="636" 
d="M309 -20q-112 0 -159 58.5t-47 135.5q0 6 2 22t10.5 67.5t27.5 162t53 303t88 492.5l213 22l-175 -1021q0 -51 30 -62t107 -11h58l-49 -169h-159zM73 821l48 167h546l-31 -167h-563zM147 1418l33 168h177l-34 -168h-176zM529 1418l34 168h176l-33 -168h-177z" />
    <glyph glyph-name="uni1E6D" unicode="&#x1e6d;" horiz-adv-x="636" 
d="M309 -20q-112 0 -159 58.5t-47 135.5q0 6 2 22t10.5 67.5t27.5 162t53 303t88 492.5l213 22l-175 -1021q0 -51 30 -62t107 -11h58l-49 -169h-159zM73 821l48 167h546l-31 -167h-563zM161 -348l36 186h191l-36 -186h-191z" />
    <glyph glyph-name="uni1E6F" unicode="&#x1e6f;" horiz-adv-x="636" 
d="M309 -20q-112 0 -159 58.5t-47 135.5q0 6 2 22t10.5 67.5t27.5 162t53 303t88 492.5l213 22l-175 -1021q0 -51 30 -62t107 -11h58l-49 -169h-159zM73 821l48 167h546l-31 -167h-563zM-54 -332l29 150h631l-30 -150h-630z" />
    <glyph glyph-name="u" unicode="u" horiz-adv-x="1028" 
d="M362 -20q-144 0 -218.5 82.5t-74.5 228.5q0 25 3.5 57t11.5 77l96 563h210l-92 -539q-7 -39 -10 -66t-3 -45q0 -178 153 -178q62 0 116 28.5t96 86.5l-22 -170q-53 -55 -116.5 -90t-149.5 -35zM609 0l17 187l141 801h210l-173 -988h-195z" />
    <glyph glyph-name="uacute" unicode="&#xfa;" horiz-adv-x="1028" 
d="M362 -20q-144 0 -218.5 82.5t-74.5 228.5q0 25 3.5 57t11.5 77l96 563h210l-92 -539q-7 -39 -10 -66t-3 -45q0 -178 153 -178q62 0 116 28.5t96 86.5l-22 -170q-53 -55 -116.5 -90t-149.5 -35zM609 0l17 187l141 801h210l-173 -988h-195zM437 1146l28 148l382 212
l-36 -234z" />
    <glyph glyph-name="ubreve" unicode="&#x16d;" horiz-adv-x="1028" 
d="M362 -20q-144 0 -218.5 82.5t-74.5 228.5q0 25 3.5 57t11.5 77l96 563h210l-92 -539q-7 -39 -10 -66t-3 -45q0 -178 153 -178q62 0 116 28.5t96 86.5l-22 -170q-53 -55 -116.5 -90t-149.5 -35zM609 0l17 187l141 801h210l-173 -988h-195zM627 1161q-128 0 -192 62
t-64 149q0 14 1.5 27.5t5.5 26.5h157q-2 -7 -3.5 -16t-1.5 -18q0 -44 30 -67.5t81 -23.5q57 0 99.5 32t53.5 93h172q-22 -114 -107.5 -189.5t-231.5 -75.5z" />
    <glyph glyph-name="ucircumflex" unicode="&#xfb;" horiz-adv-x="1028" 
d="M362 -20q-144 0 -218.5 82.5t-74.5 228.5q0 25 3.5 57t11.5 77l96 563h210l-92 -539q-7 -39 -10 -66t-3 -45q0 -178 153 -178q62 0 116 28.5t96 86.5l-22 -170q-53 -55 -116.5 -90t-149.5 -35zM609 0l17 187l141 801h210l-173 -988h-195zM384 1141l32 143l259 194
l215 -221l-28 -137l-225 162z" />
    <glyph glyph-name="uni0215" unicode="&#x215;" horiz-adv-x="1028" 
d="M362 -20q-144 0 -218.5 82.5t-74.5 228.5q0 25 3.5 57t11.5 77l96 563h210l-92 -539q-7 -39 -10 -66t-3 -45q0 -178 153 -178q62 0 116 28.5t96 86.5l-22 -170q-53 -55 -116.5 -90t-149.5 -35zM609 0l17 187l141 801h210l-173 -988h-195zM829 1164h-143l-136 343h210z
M544 1164h-143l-149 343h211z" />
    <glyph glyph-name="udieresis" unicode="&#xfc;" horiz-adv-x="1028" 
d="M362 -20q-144 0 -218.5 82.5t-74.5 228.5q0 25 3.5 57t11.5 77l96 563h210l-92 -539q-7 -39 -10 -66t-3 -45q0 -178 153 -178q62 0 116 28.5t96 86.5l-22 -170q-53 -55 -116.5 -90t-149.5 -35zM609 0l17 187l141 801h210l-173 -988h-195zM337 1182l33 168h177l-34 -168
h-176zM719 1182l34 168h176l-33 -168h-177z" />
    <glyph glyph-name="uni1EE5" unicode="&#x1ee5;" horiz-adv-x="1028" 
d="M362 -20q-144 0 -218.5 82.5t-74.5 228.5q0 25 3.5 57t11.5 77l96 563h210l-92 -539q-7 -39 -10 -66t-3 -45q0 -178 153 -178q62 0 116 28.5t96 86.5l-22 -170q-53 -55 -116.5 -90t-149.5 -35zM609 0l17 187l141 801h210l-173 -988h-195zM196 -348l36 186h191l-36 -186
h-191z" />
    <glyph glyph-name="ugrave" unicode="&#xf9;" horiz-adv-x="1028" 
d="M362 -20q-144 0 -218.5 82.5t-74.5 228.5q0 25 3.5 57t11.5 77l96 563h210l-92 -539q-7 -39 -10 -66t-3 -45q0 -178 153 -178q62 0 116 28.5t96 86.5l-22 -170q-53 -55 -116.5 -90t-149.5 -35zM609 0l17 187l141 801h210l-173 -988h-195zM788 1147l-339 144l37 210
l326 -217z" />
    <glyph glyph-name="uni1EE7" unicode="&#x1ee7;" horiz-adv-x="1028" 
d="M362 -20q-144 0 -218.5 82.5t-74.5 228.5q0 25 3.5 57t11.5 77l96 563h210l-92 -539q-7 -39 -10 -66t-3 -45q0 -178 153 -178q62 0 116 28.5t96 86.5l-22 -170q-53 -55 -116.5 -90t-149.5 -35zM609 0l17 187l141 801h210l-173 -988h-195zM565 1127q47 37 81 70.5t34 76.5
q0 54 -66 54q-31 0 -64 -10.5t-67 -26.5l-14 109q39 17 80.5 27t86.5 10q71 0 119.5 -35.5t48.5 -101.5q0 -80 -52.5 -136.5t-128.5 -105.5z" />
    <glyph glyph-name="uhorn" unicode="&#x1b0;" horiz-adv-x="1028" 
d="M362 -20q-144 0 -218.5 82.5t-74.5 228.5q0 25 3.5 57t11.5 77l96 563h210l-92 -539q-7 -39 -10 -66t-3 -45q0 -178 153 -178q62 0 116 28.5t96 86.5l-22 -170q-53 -55 -116.5 -90t-149.5 -35zM609 0l17 187l141 801h210l-173 -988h-195zM827 842l27 146q75 0 123 34.5
t63 113.5h189q-18 -90 -75.5 -156t-142.5 -102t-184 -36z" />
    <glyph glyph-name="uni1EE9" unicode="&#x1ee9;" horiz-adv-x="1028" 
d="M362 -20q-144 0 -218.5 82.5t-74.5 228.5q0 25 3.5 57t11.5 77l96 563h210l-92 -539q-7 -39 -10 -66t-3 -45q0 -178 153 -178q62 0 116 28.5t96 86.5l-22 -170q-53 -55 -116.5 -90t-149.5 -35zM609 0l17 187l141 801h210l-173 -988h-195zM827 842l27 146q75 0 123 34.5
t63 113.5h189q-18 -90 -75.5 -156t-142.5 -102t-184 -36zM437 1146l28 148l382 212l-36 -234z" />
    <glyph glyph-name="uni1EF1" unicode="&#x1ef1;" horiz-adv-x="1028" 
d="M362 -20q-144 0 -218.5 82.5t-74.5 228.5q0 25 3.5 57t11.5 77l96 563h210l-92 -539q-7 -39 -10 -66t-3 -45q0 -178 153 -178q62 0 116 28.5t96 86.5l-22 -170q-53 -55 -116.5 -90t-149.5 -35zM609 0l17 187l141 801h210l-173 -988h-195zM827 842l27 146q75 0 123 34.5
t63 113.5h189q-18 -90 -75.5 -156t-142.5 -102t-184 -36zM196 -348l36 186h191l-36 -186h-191z" />
    <glyph glyph-name="uni1EEB" unicode="&#x1eeb;" horiz-adv-x="1028" 
d="M362 -20q-144 0 -218.5 82.5t-74.5 228.5q0 25 3.5 57t11.5 77l96 563h210l-92 -539q-7 -39 -10 -66t-3 -45q0 -178 153 -178q62 0 116 28.5t96 86.5l-22 -170q-53 -55 -116.5 -90t-149.5 -35zM609 0l17 187l141 801h210l-173 -988h-195zM827 842l27 146q75 0 123 34.5
t63 113.5h189q-18 -90 -75.5 -156t-142.5 -102t-184 -36zM788 1147l-339 144l37 210l326 -217z" />
    <glyph glyph-name="uni1EED" unicode="&#x1eed;" horiz-adv-x="1028" 
d="M362 -20q-144 0 -218.5 82.5t-74.5 228.5q0 25 3.5 57t11.5 77l96 563h210l-92 -539q-7 -39 -10 -66t-3 -45q0 -178 153 -178q62 0 116 28.5t96 86.5l-22 -170q-53 -55 -116.5 -90t-149.5 -35zM609 0l17 187l141 801h210l-173 -988h-195zM827 842l27 146q75 0 123 34.5
t63 113.5h189q-18 -90 -75.5 -156t-142.5 -102t-184 -36zM565 1127q47 37 81 70.5t34 76.5q0 54 -66 54q-31 0 -64 -10.5t-67 -26.5l-14 109q39 17 80.5 27t86.5 10q71 0 119.5 -35.5t48.5 -101.5q0 -80 -52.5 -136.5t-128.5 -105.5z" />
    <glyph glyph-name="uni1EEF" unicode="&#x1eef;" horiz-adv-x="1028" 
d="M362 -20q-144 0 -218.5 82.5t-74.5 228.5q0 25 3.5 57t11.5 77l96 563h210l-92 -539q-7 -39 -10 -66t-3 -45q0 -178 153 -178q62 0 116 28.5t96 86.5l-22 -170q-53 -55 -116.5 -90t-149.5 -35zM609 0l17 187l141 801h210l-173 -988h-195zM827 842l27 146q75 0 123 34.5
t63 113.5h189q-18 -90 -75.5 -156t-142.5 -102t-184 -36zM780 1158q-44 0 -90 22t-90 43.5t-81 21.5q-32 0 -52 -19t-27 -52h-149q22 113 75.5 172t133.5 59q47 0 90 -22t83.5 -43.5t79.5 -21.5q32 0 51 19t25 58h153q-24 -123 -74 -180t-128 -57z" />
    <glyph glyph-name="uhungarumlaut" unicode="&#x171;" horiz-adv-x="1028" 
d="M362 -20q-144 0 -218.5 82.5t-74.5 228.5q0 25 3.5 57t11.5 77l96 563h210l-92 -539q-7 -39 -10 -66t-3 -45q0 -178 153 -178q62 0 116 28.5t96 86.5l-22 -170q-53 -55 -116.5 -90t-149.5 -35zM609 0l17 187l141 801h210l-173 -988h-195zM394 1164l212 343h210l-279 -343
h-143zM680 1164l224 343h211l-292 -343h-143z" />
    <glyph glyph-name="uni0217" unicode="&#x217;" horiz-adv-x="1028" 
d="M362 -20q-144 0 -218.5 82.5t-74.5 228.5q0 25 3.5 57t11.5 77l96 563h210l-92 -539q-7 -39 -10 -66t-3 -45q0 -178 153 -178q62 0 116 28.5t96 86.5l-22 -170q-53 -55 -116.5 -90t-149.5 -35zM609 0l17 187l141 801h210l-173 -988h-195zM653 1426q131 0 194 -63.5
t63 -153.5q0 -12 -1 -23.5t-3 -24.5h-161q2 8 2 14.5v12.5q0 48 -31.5 73t-83.5 25q-58 0 -102 -31.5t-55 -93.5h-166q12 71 56.5 131t117.5 97t170 37z" />
    <glyph glyph-name="umacron" unicode="&#x16b;" horiz-adv-x="1028" 
d="M362 -20q-144 0 -218.5 82.5t-74.5 228.5q0 25 3.5 57t11.5 77l96 563h210l-92 -539q-7 -39 -10 -66t-3 -45q0 -178 153 -178q62 0 116 28.5t96 86.5l-22 -170q-53 -55 -116.5 -90t-149.5 -35zM609 0l17 187l141 801h210l-173 -988h-195zM304 1190l29 150h631l-30 -150
h-630z" />
    <glyph glyph-name="uni1E7B" unicode="&#x1e7b;" horiz-adv-x="1028" 
d="M362 -20q-144 0 -218.5 82.5t-74.5 228.5q0 25 3.5 57t11.5 77l96 563h210l-92 -539q-7 -39 -10 -66t-3 -45q0 -178 153 -178q62 0 116 28.5t96 86.5l-22 -170q-53 -55 -116.5 -90t-149.5 -35zM609 0l17 187l141 801h210l-173 -988h-195zM293 1174l26 143h635l-25 -143
h-636zM780 1486l30 159h176l-30 -159h-176zM402 1486l30 159h176l-30 -159h-176z" />
    <glyph glyph-name="uogonek" unicode="&#x173;" horiz-adv-x="1028" 
d="M362 -20q-144 0 -218.5 82.5t-74.5 228.5q0 25 3.5 57t11.5 77l96 563h210l-92 -539q-7 -39 -10 -66t-3 -45q0 -178 153 -178q62 0 116 28.5t96 86.5l-22 -170q-53 -55 -116.5 -90t-149.5 -35zM609 0l17 187l141 801h210l-173 -988h-195zM701 10l103 -10
q-47 -32 -91.5 -68.5t-73.5 -78t-29 -87.5q0 -74 74 -74q33 0 61 7.5t58 22.5l13 -103q-30 -15 -71.5 -26.5t-94.5 -11.5q-73 0 -121 36.5t-48 102.5q0 86 67 162t153 128z" />
    <glyph glyph-name="uring" unicode="&#x16f;" horiz-adv-x="1028" 
d="M362 -20q-144 0 -218.5 82.5t-74.5 228.5q0 25 3.5 57t11.5 77l96 563h210l-92 -539q-7 -39 -10 -66t-3 -45q0 -178 153 -178q62 0 116 28.5t96 86.5l-22 -170q-53 -55 -116.5 -90t-149.5 -35zM609 0l17 187l141 801h210l-173 -988h-195zM607 1138q-85 0 -128.5 46
t-43.5 111q0 66 33.5 120t89.5 86t123 32q85 0 128.5 -45.5t43.5 -111.5t-33 -120.5t-88.5 -86t-124.5 -31.5zM624 1232q48 0 83 37t35 87q0 37 -22 59.5t-56 22.5q-47 0 -82 -37.5t-35 -87.5q0 -37 22 -59t55 -22z" />
    <glyph glyph-name="utilde" unicode="&#x169;" horiz-adv-x="1028" 
d="M362 -20q-144 0 -218.5 82.5t-74.5 228.5q0 25 3.5 57t11.5 77l96 563h210l-92 -539q-7 -39 -10 -66t-3 -45q0 -178 153 -178q62 0 116 28.5t96 86.5l-22 -170q-53 -55 -116.5 -90t-149.5 -35zM609 0l17 187l141 801h210l-173 -988h-195zM780 1158q-44 0 -90 22t-90 43.5
t-81 21.5q-32 0 -52 -19t-27 -52h-149q22 113 75.5 172t133.5 59q47 0 90 -22t83.5 -43.5t79.5 -21.5q32 0 51 19t25 58h153q-24 -123 -74 -180t-128 -57z" />
    <glyph glyph-name="uni1E79" unicode="&#x1e79;" horiz-adv-x="1028" 
d="M362 -20q-144 0 -218.5 82.5t-74.5 228.5q0 25 3.5 57t11.5 77l96 563h210l-92 -539q-7 -39 -10 -66t-3 -45q0 -178 153 -178q62 0 116 28.5t96 86.5l-22 -170q-53 -55 -116.5 -90t-149.5 -35zM609 0l17 187l141 801h210l-173 -988h-195zM765 1155q-44 0 -90.5 19.5
t-90 38.5t-78.5 19q-25 0 -44 -15.5t-23 -49.5h-139q18 100 67 152t124 52q44 0 89.5 -19t89 -38.5t80.5 -19.5q26 0 44 17.5t23 49.5h139q-15 -102 -65.5 -154t-125.5 -52zM499 1454l19 137l361 190l-32 -211z" />
    <glyph glyph-name="v" unicode="v" horiz-adv-x="914" 
d="M250 0l-178 988h213l118 -841l-57 10l410 831h213l-526 -988h-193z" />
    <glyph glyph-name="w" unicode="w" horiz-adv-x="1359" 
d="M194 0l-97 988h215l37 -844l-43 8l346 811h185l60 -819l-44 7l333 837h215l-445 -988h-191l-77 791l51 -9l-355 -782h-190z" />
    <glyph glyph-name="wacute" unicode="&#x1e83;" horiz-adv-x="1359" 
d="M194 0l-97 988h215l37 -844l-43 8l346 811h185l60 -819l-44 7l333 837h215l-445 -988h-191l-77 791l51 -9l-355 -782h-190zM603 1146l28 148l382 212l-36 -234z" />
    <glyph glyph-name="wcircumflex" unicode="&#x175;" horiz-adv-x="1359" 
d="M194 0l-97 988h215l37 -844l-43 8l346 811h185l60 -819l-44 7l333 837h215l-445 -988h-191l-77 791l51 -9l-355 -782h-190zM550 1141l32 143l259 194l215 -221l-28 -137l-225 162z" />
    <glyph glyph-name="wdieresis" unicode="&#x1e85;" horiz-adv-x="1359" 
d="M194 0l-97 988h215l37 -844l-43 8l346 811h185l60 -819l-44 7l333 837h215l-445 -988h-191l-77 791l51 -9l-355 -782h-190zM503 1182l33 168h177l-34 -168h-176zM885 1182l34 168h176l-33 -168h-177z" />
    <glyph glyph-name="wgrave" unicode="&#x1e81;" horiz-adv-x="1359" 
d="M194 0l-97 988h215l37 -844l-43 8l346 811h185l60 -819l-44 7l333 837h215l-445 -988h-191l-77 791l51 -9l-355 -782h-190zM954 1147l-339 144l37 210l326 -217z" />
    <glyph glyph-name="x" unicode="x" horiz-adv-x="914" 
d="M539 0l-139 361l-79 119l-220 508h247l125 -370l73 -117l239 -501h-246zM-76 0l413 524l90 -147l-257 -377h-246zM532 461l-83 145l257 382h250z" />
    <glyph glyph-name="y" unicode="y" horiz-adv-x="972" 
d="M-18 -484l351 623l-26 -182l-241 1031h233l148 -788l-64 10l414 778h233l-831 -1472h-217z" />
    <glyph glyph-name="yacute" unicode="&#xfd;" horiz-adv-x="972" 
d="M-18 -484l351 623l-26 -182l-241 1031h233l148 -788l-64 10l414 778h233l-831 -1472h-217zM407 1146l28 148l382 212l-36 -234z" />
    <glyph glyph-name="ycircumflex" unicode="&#x177;" horiz-adv-x="972" 
d="M-18 -484l351 623l-26 -182l-241 1031h233l148 -788l-64 10l414 778h233l-831 -1472h-217zM354 1141l32 143l259 194l215 -221l-28 -137l-225 162z" />
    <glyph glyph-name="ydieresis" unicode="&#xff;" horiz-adv-x="972" 
d="M-18 -484l351 623l-26 -182l-241 1031h233l148 -788l-64 10l414 778h233l-831 -1472h-217zM306 1182l33 168h177l-34 -168h-176zM688 1182l34 168h176l-33 -168h-177z" />
    <glyph glyph-name="uni1E8F" unicode="&#x1e8f;" horiz-adv-x="972" 
d="M-18 -484l351 623l-26 -182l-241 1031h233l148 -788l-64 10l414 778h233l-831 -1472h-217zM492 1191l36 186h191l-36 -186h-191z" />
    <glyph glyph-name="uni1EF5" unicode="&#x1ef5;" horiz-adv-x="972" 
d="M-18 -484l351 623l-26 -182l-241 1031h233l148 -788l-64 10l414 778h233l-831 -1472h-217zM506 -348l36 186h191l-36 -186h-191z" />
    <glyph glyph-name="ygrave" unicode="&#x1ef3;" horiz-adv-x="972" 
d="M-18 -484l351 623l-26 -182l-241 1031h233l148 -788l-64 10l414 778h233l-831 -1472h-217zM758 1147l-339 144l37 210l326 -217z" />
    <glyph glyph-name="uni1EF7" unicode="&#x1ef7;" horiz-adv-x="972" 
d="M-18 -484l351 623l-26 -182l-241 1031h233l148 -788l-64 10l414 778h233l-831 -1472h-217zM535 1127q47 37 81 70.5t34 76.5q0 54 -66 54q-31 0 -64 -10.5t-67 -26.5l-14 109q39 17 80.5 27t86.5 10q71 0 119.5 -35.5t48.5 -101.5q0 -80 -52.5 -136.5t-128.5 -105.5z" />
    <glyph glyph-name="uni0233" unicode="&#x233;" horiz-adv-x="972" 
d="M-18 -484l351 623l-26 -182l-241 1031h233l148 -788l-64 10l414 778h233l-831 -1472h-217zM274 1190l29 150h631l-30 -150h-630z" />
    <glyph glyph-name="uni1EF9" unicode="&#x1ef9;" horiz-adv-x="972" 
d="M-18 -484l351 623l-26 -182l-241 1031h233l148 -788l-64 10l414 778h233l-831 -1472h-217zM750 1158q-44 0 -90 22t-90 43.5t-81 21.5q-32 0 -52 -19t-27 -52h-149q22 113 75.5 172t133.5 59q47 0 90 -22t83.5 -43.5t79.5 -21.5q32 0 51 19t25 58h153q-24 -123 -74 -180
t-128 -57z" />
    <glyph glyph-name="z" unicode="z" horiz-adv-x="886" 
d="M-57 0l650 894l40 -79h-528l30 173h776l-649 -894l-40 80h529l-32 -174h-776z" />
    <glyph glyph-name="zacute" unicode="&#x17a;" horiz-adv-x="886" 
d="M-57 0l650 894l40 -79h-528l30 173h776l-649 -894l-40 80h529l-32 -174h-776zM382 1146l28 148l382 212l-36 -234z" />
    <glyph glyph-name="zcaron" unicode="&#x17e;" horiz-adv-x="886" 
d="M-57 0l650 894l40 -79h-528l30 173h776l-649 -894l-40 80h529l-32 -174h-776zM548 1117l-214 222l28 137l225 -163l278 163l-27 -161z" />
    <glyph glyph-name="zdotaccent" unicode="&#x17c;" horiz-adv-x="886" 
d="M-57 0l650 894l40 -79h-528l30 173h776l-649 -894l-40 80h529l-32 -174h-776zM467 1191l36 186h191l-36 -186h-191z" />
    <glyph glyph-name="uni1E93" unicode="&#x1e93;" horiz-adv-x="886" 
d="M-57 0l650 894l40 -79h-528l30 173h776l-649 -894l-40 80h529l-32 -174h-776zM174 -348l36 186h191l-36 -186h-191z" />
    <glyph glyph-name="iacute_j.loclNLD" horiz-adv-x="891" 
d="M171 1142l25 138l334 218l-37 -210zM618 1142l24 138l335 218l-38 -210zM17 0l174 988h210l-174 -988h-210zM286 -484l9 166q56 5 83.5 20.5t41 53.5t26.5 109l198 1123h210l-213 -1205q-21 -115 -89.5 -183t-189.5 -78z" />
    <glyph glyph-name="ordfeminine" unicode="&#xaa;" horiz-adv-x="622" 
d="M265 868q-70 0 -112 38t-41 105q0 63 33.5 105.5t88.5 70t121 42.5t131 21l-18 -115q-38 -2 -77 -12.5t-65 -31.5t-26 -57q0 -41 51 -41q21 0 40.5 6.5t39.5 20.5l23 130q3 22 6.5 42.5t6.5 38.5t3 31q1 24 -17.5 36.5t-66.5 12.5q-41 0 -83 -8.5t-89 -24.5l14 138
q61 21 117 30.5t111 9.5q91 0 142.5 -40.5t51.5 -121.5q0 -12 -1.5 -25.5t-3.5 -24.5l-29 -163q-2 -14 -4 -23.5t-2 -19.5q0 -16 8 -22t26 -6h6l-37 -142h-59q-68 0 -100 32.5t-3 109.5l19 -32q-10 -34 -43.5 -58.5t-77 -38t-84.5 -13.5z" />
    <glyph glyph-name="ordmasculine" unicode="&#xba;" horiz-adv-x="664" 
d="M372 868q-124 0 -188 71t-64 169q0 97 48 176t129.5 125.5t178.5 46.5q125 0 189 -69t64 -168q0 -105 -49 -184t-130 -123t-178 -44zM396 1002q49 0 83.5 30.5t52 78t17.5 99.5t-24 82.5t-73 30.5q-50 0 -84 -30.5t-51.5 -77t-17.5 -95.5q0 -54 24.5 -86t72.5 -32z" />
    <glyph glyph-name="pi" unicode="&#x3c0;" horiz-adv-x="1343" 
d="M475 854l-151 -854h-209l151 854h209zM1009 854l-101 -566q-2 -13 -3.5 -24.5t-1.5 -22.5q0 -85 85 -85q26 0 50.5 4t43.5 10l-30 -160q-27 -12 -70.5 -21t-91.5 -9q-99 0 -152 49t-53 143q0 22 2.5 40t6.5 40l107 602h208zM58 821l29 167h1145l-29 -167h-1145z" />
    <glyph glyph-name="zero" unicode="0" horiz-adv-x="1364" 
d="M533 -28q-148 0 -251 67.5t-157 190.5t-54 289q0 174 51 337t146 292t227 204.5t294 75.5q145 0 249 -65.5t159 -184.5t55 -281q0 -173 -51.5 -338t-146.5 -297.5t-227 -211t-294 -78.5zM567 169q114 0 200 64t144 169.5t87.5 232t29.5 251.5q0 175 -74.5 261t-198.5 86
q-116 0 -202 -63t-143 -166.5t-85.5 -228.5t-28.5 -250q0 -177 71.5 -266.5t199.5 -89.5z" />
    <glyph glyph-name="one" unicode="1" horiz-adv-x="672" 
d="M133 0l210 1185l56 -45q-63 -47 -112 -77t-91 -47.5t-83 -27.5l6 194q52 14 113 48t116 78.5t89 91.5h158l-248 -1400h-214z" />
    <glyph glyph-name="two" unicode="2" horiz-adv-x="1003" 
d="M-60 1l465 574q90 112 150.5 194t91.5 150.5t31 137.5q0 77 -41.5 121.5t-119.5 44.5q-100 0 -189 -50t-178 -125l12 225q87 68 192.5 111.5t223.5 43.5q164 0 244.5 -89.5t80.5 -227.5q0 -112 -43.5 -212.5t-121 -204.5t-178.5 -225l-281 -342l-35 75h565l-36 -201h-833
z" />
    <glyph glyph-name="three" unicode="3" horiz-adv-x="1035" 
d="M358 -28q-121 0 -225.5 34t-192.5 88l87 193q79 -55 162 -89t178 -34q115 0 189.5 63.5t74.5 180.5q1 103 -62 159.5t-194 56.5h-98l36 201h95q131 0 212.5 64.5t81.5 177.5q0 82 -48 125.5t-137 43.5q-79 0 -158.5 -31.5t-156.5 -78.5l2 207q79 44 173 69.5t200 25.5
q167 0 260.5 -88.5t93.5 -229.5q0 -98 -45 -179.5t-125 -138t-185 -78.5l7 46q129 -29 202.5 -116.5t73.5 -227.5q0 -130 -65.5 -230t-179.5 -157t-256 -57z" />
    <glyph glyph-name="four" unicode="4" horiz-adv-x="1146" 
d="M580 0l201 1139l42 -63l-536 -617l-36 67h789l-33 -182h-1052l926 1056h154l-248 -1400h-207z" />
    <glyph glyph-name="five" unicode="5" horiz-adv-x="1019" 
d="M339 -27q-116 0 -211 29t-178 86l101 183q69 -45 139 -73.5t160 -28.5t157.5 36t105.5 100.5t38 150.5q0 115 -70 179t-202 64q-66 0 -130.5 -6t-129.5 -19l212 726h641l-49 -209h-556l126 94l-154 -511l-58 87q43 11 89.5 16t95.5 5q193 0 300 -108t107 -290
q0 -153 -71 -268t-192.5 -179t-270.5 -64z" />
    <glyph glyph-name="six" unicode="6" horiz-adv-x="1121" 
d="M463 -28q-125 0 -218.5 50.5t-145 143.5t-51.5 219q0 162 67.5 318t182.5 294.5t260 248.5t298 182l124 -150q-82 -36 -172.5 -88.5t-178 -119.5t-162.5 -146.5t-127.5 -171.5t-71.5 -194l-34 82q64 91 165.5 146t234.5 55q163 0 260.5 -101t97.5 -262q0 -142 -69 -256.5
t-188 -182t-272 -67.5zM480 156q85 0 152 41.5t105 109.5t38 148q0 88 -54.5 144.5t-146.5 56.5q-88 0 -157 -41.5t-108 -109.5t-39 -149q1 -90 59.5 -145t150.5 -55z" />
    <glyph glyph-name="seven" unicode="7" horiz-adv-x="998" 
d="M38 0l740 1286l46 -91h-661l36 205h879l-811 -1400h-229z" />
    <glyph glyph-name="eight" unicode="8" horiz-adv-x="1175" 
d="M579 683q-100 0 -180 38t-126 106t-47 160q0 124 62.5 224t170.5 158.5t242 58.5q122 0 198 -42.5t111.5 -113t35.5 -153.5q0 -129 -62.5 -227t-168.5 -153.5t-236 -55.5zM605 852q105 0 169.5 68.5t64.5 164.5q0 73 -40.5 116t-124.5 43q-106 0 -174 -66.5t-68 -163.5
q1 -70 45.5 -116t127.5 -46zM463 -28q-126 0 -220 44t-145.5 123t-51.5 186q0 109 43 200.5t120 160t177.5 106t214.5 37.5q187 0 295.5 -95t108.5 -255q0 -148 -73.5 -262.5t-196.5 -179.5t-272 -65zM483 164q91 0 160.5 38t108.5 103.5t39 149.5q-1 93 -58 149.5
t-162 56.5q-90 0 -160 -41t-109.5 -110.5t-39.5 -154.5q1 -88 58.5 -139.5t162.5 -51.5z" />
    <glyph glyph-name="nine" unicode="9" horiz-adv-x="1139" 
d="M641 1428q125 0 218.5 -50.5t145 -143.5t51.5 -219q0 -162 -67.5 -318t-182.5 -294.5t-260 -248.5t-298 -182l-124 150q82 36 172.5 88.5t178 119.5t162.5 146.5t127.5 171.5t71.5 194l34 -82q-64 -91 -165.5 -146t-234.5 -55q-163 0 -260.5 101t-97.5 262
q0 142 69 256.5t188 182t272 67.5zM624 1244q-85 0 -152 -41.5t-105 -109.5t-38 -148q0 -88 54.5 -144.5t146.5 -56.5q88 0 157 41.5t108 109.5t39 149q-1 90 -59.5 145t-150.5 55z" />
    <glyph glyph-name="uni2080" unicode="&#x2080;" horiz-adv-x="748" 
d="M219 -144q-137 0 -205.5 85t-68.5 220q1 128 52.5 241t144.5 183.5t217 70.5q131 0 204 -80t74 -214q0 -98 -30 -188.5t-85 -162t-131.5 -113.5t-171.5 -42zM246 13q70 0 116.5 52.5t69.5 129.5t23 150q0 78 -32.5 116t-89.5 38q-72 0 -117.5 -52.5t-67.5 -129.5
t-22 -149q0 -75 30 -115t90 -40z" />
    <glyph glyph-name="uni2081" unicode="&#x2081;" horiz-adv-x="431" 
d="M32 -116l113 642l46 -42q-52 -52 -102.5 -80.5t-94.5 -39.5l12 144q52 17 108 50.5t90 69.5h127l-132 -744h-167z" />
    <glyph glyph-name="uni2082" unicode="&#x2082;" horiz-adv-x="594" 
d="M-107 -116l278 316q58 65 90 116t32 102q0 36 -22 58.5t-67 22.5q-55 0 -105.5 -25.5t-97.5 -60.5l15 167q51 31 116.5 53.5t134.5 22.5q101 0 158 -52t57 -137q0 -89 -50 -166t-124 -163l-202 -232l-6 130h345l-27 -152h-525z" />
    <glyph glyph-name="uni2083" unicode="&#x2083;" horiz-adv-x="598" 
d="M114 -144q-74 0 -135.5 18.5t-110.5 50.5l65 151q40 -31 82 -51t98 -20q61 0 97.5 27t36.5 78q0 40 -27 63.5t-85 23.5h-58l26 140h60q56 0 90 27t34 69q0 33 -22 53.5t-70 20.5t-93.5 -16t-89.5 -43l13 157q52 24 110.5 37.5t124.5 13.5q101 0 155.5 -49.5t54.5 -128.5
q0 -80 -48.5 -135.5t-128.5 -82.5l4 24q61 -17 96 -57t35 -108q0 -77 -43 -136.5t-114.5 -93t-156.5 -33.5z" />
    <glyph glyph-name="uni2084" unicode="&#x2084;" horiz-adv-x="652" 
d="M385 -116h-149l115 632l45 -42l-303 -347l-52 45h493l-23 -129h-649l521 585h134z" />
    <glyph glyph-name="uni2085" unicode="&#x2085;" horiz-adv-x="608" 
d="M122 -144q-67 0 -122.5 14t-105.5 41l63 151q38 -26 79 -41.5t92 -15.5q62 0 98.5 29t36.5 83q0 45 -33 70.5t-99 25.5q-41 0 -78.5 -4t-71.5 -11l121 430h399l-37 -149h-313l73 88l-77 -265l-46 41q25 7 53.5 11t56.5 4q114 0 173.5 -57t60.5 -157q0 -86 -43.5 -151
t-117 -101t-162.5 -36z" />
    <glyph glyph-name="uni2086" unicode="&#x2086;" horiz-adv-x="594" 
d="M175 -144q-116 0 -181.5 65.5t-65.5 177.5q0 122 68 229.5t176.5 191t233.5 136.5l80 -110q-92 -35 -180.5 -91.5t-152.5 -131t-79 -162.5l-26 63q36 56 95.5 87t130.5 31q98 0 152 -54.5t54 -140.5q0 -83 -40.5 -148.5t-109.5 -104t-155 -38.5zM190 -7q55 0 90.5 38
t35.5 90q0 37 -24 61t-66 24q-54 0 -91.5 -37.5t-37.5 -88.5q0 -38 25 -62.5t68 -24.5z" />
    <glyph glyph-name="uni2087" unicode="&#x2087;" horiz-adv-x="576" 
d="M-56 -116l421 687l32 -80h-390l25 149h539l-464 -756h-163z" />
    <glyph glyph-name="uni2088" unicode="&#x2088;" horiz-adv-x="602" 
d="M284 656q102 0 148 -50t46 -118q0 -69 -36 -123t-97 -85.5t-137 -31.5q-93 0 -145.5 45t-52.5 118q0 70 36.5 125.5t98.5 87.5t139 32zM228 357q43 0 69.5 31.5t26.5 71.5q0 29 -16.5 46t-49.5 17q-46 0 -71.5 -32t-25.5 -69q0 -28 17.5 -46.5t49.5 -18.5zM140 -144
q-111 0 -176 54t-65 141q0 81 43.5 143.5t117 98t162.5 35.5q112 0 175 -52.5t63 -142.5q0 -83 -43 -145t-115.5 -97t-161.5 -35zM163 -10q61 0 96.5 42t35.5 94q0 40 -24 64t-68 24q-60 0 -95.5 -38t-35.5 -98q0 -40 23.5 -64t67.5 -24z" />
    <glyph glyph-name="uni2089" unicode="&#x2089;" horiz-adv-x="649" 
d="M288 656q112 0 176.5 -65t64.5 -179q0 -123 -68 -229.5t-176.5 -190t-233.5 -136.5l-79 110q91 35 179.5 91.5t152.5 131t79 162.5l26 -63q-35 -55 -92.5 -86.5t-127.5 -31.5q-98 0 -155 55.5t-57 142.5q0 81 41.5 146.5t112 103.5t157.5 38zM267 514q-53 0 -88 -36.5
t-35 -86.5q0 -35 23.5 -58t63.5 -23q52 0 88.5 36t36.5 86q0 37 -23.5 59.5t-65.5 22.5z" />
    <glyph glyph-name="zero.dnom" horiz-adv-x="748" 
d="M239 -28q-137 0 -205.5 85t-68.5 220q1 128 52.5 241t144.5 183.5t217 70.5q131 0 204 -80t74 -214q0 -98 -30 -188.5t-85 -162t-131.5 -113.5t-171.5 -42zM266 129q70 0 116.5 52.5t69.5 129.5t23 150q0 78 -32.5 116t-89.5 38q-72 0 -117.5 -52.5t-67.5 -129.5
t-22 -149q0 -75 30 -115t90 -40z" />
    <glyph glyph-name="one.dnom" horiz-adv-x="432" 
d="M53 0l113 642l46 -42q-52 -52 -102.5 -80.5t-94.5 -39.5l12 144q52 17 108 50.5t90 69.5h127l-132 -744h-167z" />
    </font>
</defs>
</svg>
