<?xml version="1.0" standalone="no"?>
<!DOCTYPE svg PUBLIC "-//W3C//DTD SVG 1.1//EN" "http://www.w3.org/Graphics/SVG/1.1/DTD/svg11.dtd" >
<svg xmlns="http://www.w3.org/2000/svg" xmlns:xlink="http://www.w3.org/1999/xlink" version="1.1">
<metadata>
Created by FontForge 20190801 at Wed Jul 22 20:33:01 2020
 By Unknown
Copyright 2018 The Cabin Project Authors (https://github.com/impallari/Cabin)
</metadata>
<defs>
<font id="Cabin-Regular" horiz-adv-x="0" >
  <font-face 
    font-family="Cabin"
    font-weight="400"
    font-stretch="normal"
    units-per-em="2000"
    panose-1="0 0 0 0 0 0 0 0 0 0"
    ascent="1600"
    descent="-400"
    x-height="980"
    cap-height="1400"
    bbox="-430 -608 2518 2276"
    underline-thickness="50"
    underline-position="-125"
    unicode-range="U+000D-25CA"
  />
<missing-glyph horiz-adv-x="1206" 
d="M100 0v1400h1006v-1400h-1006zM260 140h686v1120h-686v-1120z" />
    <glyph glyph-name=".notdef" horiz-adv-x="1206" 
d="M100 0v1400h1006v-1400h-1006zM260 140h686v1120h-686v-1120z" />
    <glyph glyph-name="A" unicode="A" horiz-adv-x="1232" 
d="M916 378h-600v172h600v-172zM588 1214h56l-430 -1214h-200l502 1400h200l502 -1400h-200z" />
    <glyph glyph-name="Aacute" unicode="&#xc1;" horiz-adv-x="1232" 
d="M916 378h-600v172h600v-172zM588 1214h56l-430 -1214h-200l502 1400h200l502 -1400h-200zM430 1528v116l374 190v-190z" />
    <glyph glyph-name="Abreve" unicode="&#x102;" horiz-adv-x="1232" 
d="M916 378h-600v172h600v-172zM588 1214h56l-430 -1214h-200l502 1400h200l502 -1400h-200zM616 1528q-100 0 -164.5 34t-96 89t-31.5 117h160q0 -58 39 -87t93 -29t93 29t39 87h160q0 -62 -31.5 -117t-96 -89t-164.5 -34z" />
    <glyph glyph-name="uni1EAE" unicode="&#x1eae;" horiz-adv-x="1232" 
d="M916 378h-600v172h600v-172zM588 1214h56l-430 -1214h-200l502 1400h200l502 -1400h-200zM616 1528q-100 0 -164.5 34t-96 89t-31.5 117h160q0 -58 39 -87t93 -29t93 29t39 87h160q0 -62 -31.5 -117t-96 -89t-164.5 -34zM430 1856v116l374 190v-190z" />
    <glyph glyph-name="uni1EB6" unicode="&#x1eb6;" horiz-adv-x="1232" 
d="M916 378h-600v172h600v-172zM588 1214h56l-430 -1214h-200l502 1400h200l502 -1400h-200zM616 1572q-100 0 -164.5 36t-96 94t-31.5 124h160q0 -61 39 -91.5t93 -30.5t93 30.5t39 91.5h160q0 -66 -31.5 -124t-96 -94t-164.5 -36zM520 -342v180h192v-180h-192z" />
    <glyph glyph-name="uni1EB0" unicode="&#x1eb0;" horiz-adv-x="1232" 
d="M916 378h-600v172h600v-172zM588 1214h56l-430 -1214h-200l502 1400h200l502 -1400h-200zM616 1526q-100 0 -164.5 34t-96 89t-31.5 117h160q0 -58 39 -87t93 -29t93 29t39 87h160q0 -62 -31.5 -117t-96 -89t-164.5 -34zM802 1854l-374 116v190l374 -190v-116z" />
    <glyph glyph-name="uni1EB2" unicode="&#x1eb2;" horiz-adv-x="1232" 
d="M916 378h-600v172h600v-172zM588 1214h56l-430 -1214h-200l502 1400h200l502 -1400h-200zM616 1528q-100 0 -164.5 34t-96 89t-31.5 117h160q0 -58 39 -87t93 -29t93 29t39 87h160q0 -62 -31.5 -117t-96 -89t-164.5 -34zM634 1800l-18 80q35 12 52.5 31t17.5 47
q0 33 -22 48.5t-60 15.5q-31 0 -62.5 -10.5t-63.5 -27.5l-34 102q33 18 73.5 28t86.5 10q83 0 140.5 -40t57.5 -114q0 -66 -39.5 -108t-128.5 -62z" />
    <glyph glyph-name="uni1EB4" unicode="&#x1eb4;" horiz-adv-x="1232" 
d="M916 378h-600v172h600v-172zM588 1214h56l-430 -1214h-200l502 1400h200l502 -1400h-200zM616 1528q-100 0 -164.5 34t-96 89t-31.5 117h160q0 -58 39 -87t93 -29t93 29t39 87h160q0 -62 -31.5 -117t-96 -89t-164.5 -34zM782 1862q-46 0 -96.5 20.5t-98 41t-85.5 20.5
q-68 0 -68 -72h-130q0 98 38.5 149t107.5 51q46 0 96.5 -20.5t98 -41t85.5 -20.5q68 0 68 72h130q0 -97 -38.5 -148.5t-107.5 -51.5z" />
    <glyph glyph-name="Acircumflex" unicode="&#xc2;" horiz-adv-x="1232" 
d="M916 378h-600v172h600v-172zM588 1214h56l-430 -1214h-200l502 1400h200l502 -1400h-200zM362 1506v122l254 180l254 -180v-122l-254 132z" />
    <glyph glyph-name="uni1EA4" unicode="&#x1ea4;" horiz-adv-x="1232" 
d="M916 378h-600v172h600v-172zM588 1214h56l-430 -1214h-200l502 1400h200l502 -1400h-200zM362 1506v122l254 180l254 -180v-122l-254 132zM766 1798l132 234h196l-196 -234h-132z" />
    <glyph glyph-name="uni1EAC" unicode="&#x1eac;" horiz-adv-x="1232" 
d="M916 378h-600v172h600v-172zM588 1214h56l-430 -1214h-200l502 1400h200l502 -1400h-200zM362 1548v122l254 220l254 -220v-122l-254 160zM520 -342v180h192v-180h-192z" />
    <glyph glyph-name="uni1EA6" unicode="&#x1ea6;" horiz-adv-x="1232" 
d="M916 378h-600v172h600v-172zM588 1214h56l-430 -1214h-200l502 1400h200l502 -1400h-200zM362 1506v122l254 180l254 -180v-122l-254 132zM794 1798l-174 234h190l112 -234h-128z" />
    <glyph glyph-name="uni1EA8" unicode="&#x1ea8;" horiz-adv-x="1232" 
d="M916 378h-600v172h600v-172zM588 1214h56l-430 -1214h-200l502 1400h200l502 -1400h-200zM362 1506v122l254 180l254 -180v-122l-254 132zM808 1744l-18 80q35 12 52.5 31t17.5 47q0 33 -22 48.5t-60 15.5q-31 0 -62.5 -10.5t-63.5 -27.5l-34 102q33 18 73.5 28t86.5 10
q83 0 140.5 -40t57.5 -114q0 -66 -39.5 -108t-128.5 -62z" />
    <glyph glyph-name="uni1EAA" unicode="&#x1eaa;" horiz-adv-x="1232" 
d="M916 378h-600v172h600v-172zM588 1214h56l-430 -1214h-200l502 1400h200l502 -1400h-200zM362 1506v122l254 180l254 -180v-122l-254 132zM782 1890q-46 0 -96.5 20.5t-98 41t-85.5 20.5q-68 0 -68 -72h-130q0 98 38.5 149t107.5 51q46 0 96.5 -20.5t98 -41t85.5 -20.5
q68 0 68 72h130q0 -97 -38.5 -148.5t-107.5 -51.5z" />
    <glyph glyph-name="uni0200" unicode="&#x200;" horiz-adv-x="1232" 
d="M916 378h-600v172h600v-172zM588 1214h56l-430 -1214h-200l502 1400h200l502 -1400h-200zM824 1576h-132l-180 294h196zM544 1576h-132l-190 294h196z" />
    <glyph glyph-name="Adieresis" unicode="&#xc4;" horiz-adv-x="1232" 
d="M916 378h-600v172h600v-172zM588 1214h56l-430 -1214h-200l502 1400h200l502 -1400h-200zM338 1588v150h172v-150h-172zM722 1588v150h172v-150h-172z" />
    <glyph glyph-name="uni1EA0" unicode="&#x1ea0;" horiz-adv-x="1232" 
d="M916 378h-600v172h600v-172zM588 1214h56l-430 -1214h-200l502 1400h200l502 -1400h-200zM520 -342v180h192v-180h-192z" />
    <glyph glyph-name="Agrave" unicode="&#xc0;" horiz-adv-x="1232" 
d="M916 378h-600v172h600v-172zM588 1214h56l-430 -1214h-200l502 1400h200l502 -1400h-200zM802 1528l-374 116v190l374 -190v-116z" />
    <glyph glyph-name="uni1EA2" unicode="&#x1ea2;" horiz-adv-x="1232" 
d="M916 378h-600v172h600v-172zM588 1214h56l-430 -1214h-200l502 1400h200l502 -1400h-200zM614 1520l-18 80q35 12 52.5 31t17.5 47q0 33 -22 48.5t-60 15.5q-31 0 -62.5 -10.5t-63.5 -27.5l-34 102q33 18 73.5 28t86.5 10q83 0 140.5 -40t57.5 -114q0 -66 -39.5 -108
t-128.5 -62z" />
    <glyph glyph-name="uni0202" unicode="&#x202;" horiz-adv-x="1232" 
d="M916 378h-600v172h600v-172zM588 1214h56l-430 -1214h-200l502 1400h200l502 -1400h-200zM616 1798q100 0 164.5 -34t96 -89t31.5 -117h-160q0 59 -39 87.5t-93 28.5t-93 -28.5t-39 -87.5h-160q0 62 31.5 117t96 89t164.5 34z" />
    <glyph glyph-name="Amacron" unicode="&#x100;" horiz-adv-x="1232" 
d="M916 378h-600v172h600v-172zM588 1214h56l-430 -1214h-200l502 1400h200l502 -1400h-200zM296 1586v136h640v-136h-640z" />
    <glyph glyph-name="Aogonek" unicode="&#x104;" horiz-adv-x="1232" 
d="M916 378h-600v172h600v-172zM588 1214h56l-430 -1214h-200l502 1400h200l502 -1400h-200zM1074 0h106q-70 -54 -113 -105t-43 -107q0 -51 26.5 -76.5t69.5 -25.5q35 0 65.5 9t60.5 25l30 -98q-28 -15 -70 -26.5t-96 -11.5q-84 0 -143 44t-59 128q0 80 53 145t113 99z" />
    <glyph glyph-name="Aring" unicode="&#xc5;" horiz-adv-x="1232" 
d="M916 378h-600v172h600v-172zM588 1214h56l-430 -1214h-200l502 1400h200l502 -1400h-200zM616 1512q-103 0 -155.5 60t-52.5 136q0 75 53 135.5t155 60.5q104 0 156 -60.5t52 -135.5q0 -76 -51.5 -136t-156.5 -60zM616 1600q42 0 75 28.5t33 79.5q0 48 -32 78t-76 30
q-43 0 -75.5 -30t-32.5 -78q0 -51 33 -79.5t75 -28.5z" />
    <glyph glyph-name="Aringacute" unicode="&#x1fa;" horiz-adv-x="1232" 
d="M916 378h-600v172h600v-172zM588 1214h56l-430 -1214h-200l502 1400h200l502 -1400h-200zM616 1512q-103 0 -155.5 60t-52.5 136q0 75 53 135.5t155 60.5q104 0 156 -60.5t52 -135.5q0 -76 -51.5 -136t-156.5 -60zM616 1600q42 0 75 28.5t33 79.5q0 48 -32 78t-76 30
q-43 0 -75.5 -30t-32.5 -78q0 -51 33 -79.5t75 -28.5zM430 1970v116l374 190v-190z" />
    <glyph glyph-name="Atilde" unicode="&#xc3;" horiz-adv-x="1232" 
d="M916 378h-600v172h600v-172zM588 1214h56l-430 -1214h-200l502 1400h200l502 -1400h-200zM782 1576q-46 0 -96.5 20.5t-98 41t-85.5 20.5q-68 0 -68 -72h-130q0 98 38.5 149t107.5 51q46 0 96.5 -20.5t98 -41t85.5 -20.5q68 0 68 72h130q0 -97 -38.5 -148.5t-107.5 -51.5
z" />
    <glyph glyph-name="AE" unicode="&#xc6;" horiz-adv-x="1732" 
d="M-14 0l684 1400h966v-174h-624v-408h482v-172h-482v-474h644v-172h-872v1222l-612 -1222h-186zM310 360v184h506v-184h-506z" />
    <glyph glyph-name="AEacute" unicode="&#x1fc;" horiz-adv-x="1732" 
d="M-14 0l684 1400h966v-174h-624v-408h482v-172h-482v-474h644v-172h-872v1222l-612 -1222h-186zM310 360v184h506v-184h-506zM968 1528v116l374 190v-190z" />
    <glyph glyph-name="B" unicode="B" horiz-adv-x="1194" 
d="M160 0v1400h442q188 0 295 -84.5t107 -257.5q0 -117 -51 -206t-153 -116l28 32q146 -24 226 -116.5t80 -251.5q0 -184 -118.5 -292t-327.5 -108h-528zM350 172h322q116 0 185 58t69 176q0 132 -70.5 186t-183.5 54h-322v-474zM350 818h228q102 0 166 41t64 165
q0 123 -64 164.5t-166 41.5h-228v-412z" />
    <glyph glyph-name="C" unicode="C" horiz-adv-x="1232" 
d="M784 -28q-204 0 -363.5 89.5t-251 253t-91.5 385.5t92.5 385.5t254 253t367.5 89.5q107 0 204 -23t170 -59l-20 -176q-75 36 -165 61t-191 25q-165 0 -277 -74.5t-169.5 -200.5t-57.5 -281t56.5 -281t168 -200.5t275.5 -74.5q104 0 192.5 22.5t167.5 61.5l20 -176
q-75 -34 -169 -57t-213 -23z" />
    <glyph glyph-name="Cacute" unicode="&#x106;" horiz-adv-x="1232" 
d="M784 -28q-204 0 -363.5 89.5t-251 253t-91.5 385.5t92.5 385.5t254 253t367.5 89.5q107 0 204 -23t170 -59l-20 -176q-75 36 -165 61t-191 25q-165 0 -277 -74.5t-169.5 -200.5t-57.5 -281t56.5 -281t168 -200.5t275.5 -74.5q104 0 192.5 22.5t167.5 61.5l20 -176
q-75 -34 -169 -57t-213 -23zM566 1528v116l374 190v-190z" />
    <glyph glyph-name="Ccaron" unicode="&#x10c;" horiz-adv-x="1232" 
d="M784 -28q-204 0 -363.5 89.5t-251 253t-91.5 385.5t92.5 385.5t254 253t367.5 89.5q107 0 204 -23t170 -59l-20 -176q-75 36 -165 61t-191 25q-165 0 -277 -74.5t-169.5 -200.5t-57.5 -281t56.5 -281t168 -200.5t275.5 -74.5q104 0 192.5 22.5t167.5 61.5l20 -176
q-75 -34 -169 -57t-213 -23zM498 1860v-122l254 -180l254 180v122l-254 -132z" />
    <glyph glyph-name="Ccedilla" unicode="&#xc7;" horiz-adv-x="1232" 
d="M784 -28q-204 0 -363.5 89.5t-251 253t-91.5 385.5t92.5 385.5t254 253t367.5 89.5q107 0 204 -23t170 -59l-20 -176q-75 36 -165 61t-191 25q-165 0 -277 -74.5t-169.5 -200.5t-57.5 -281t56.5 -281t168 -200.5t275.5 -74.5q104 0 192.5 22.5t167.5 61.5l20 -176
q-75 -34 -169 -57t-213 -23zM772 -158l-66 30q24 9 47.5 14.5t50.5 5.5q81 0 127.5 -43.5t46.5 -118.5q0 -88 -61.5 -135t-150.5 -47q-51 0 -90 11.5t-66 26.5l30 98q30 -16 61 -25t65 -9q44 0 70 19.5t26 56.5q0 36 -24.5 58t-75.5 22q-22 0 -44 -3.5t-48 -12.5l52 210h100
z" />
    <glyph glyph-name="uni1E08" unicode="&#x1e08;" horiz-adv-x="1232" 
d="M784 -28q-204 0 -363.5 89.5t-251 253t-91.5 385.5t92.5 385.5t254 253t367.5 89.5q107 0 204 -23t170 -59l-20 -176q-75 36 -165 61t-191 25q-165 0 -277 -74.5t-169.5 -200.5t-57.5 -281t56.5 -281t168 -200.5t275.5 -74.5q104 0 192.5 22.5t167.5 61.5l20 -176
q-75 -34 -169 -57t-213 -23zM772 -158l-66 30q24 9 47.5 14.5t50.5 5.5q81 0 127.5 -43.5t46.5 -118.5q0 -88 -61.5 -135t-150.5 -47q-51 0 -90 11.5t-66 26.5l30 98q30 -16 61 -25t65 -9q44 0 70 19.5t26 56.5q0 36 -24.5 58t-75.5 22q-22 0 -44 -3.5t-48 -12.5l52 210h100
zM566 1528v116l374 190v-190z" />
    <glyph glyph-name="Ccircumflex" unicode="&#x108;" horiz-adv-x="1232" 
d="M784 -28q-204 0 -363.5 89.5t-251 253t-91.5 385.5t92.5 385.5t254 253t367.5 89.5q107 0 204 -23t170 -59l-20 -176q-75 36 -165 61t-191 25q-165 0 -277 -74.5t-169.5 -200.5t-57.5 -281t56.5 -281t168 -200.5t275.5 -74.5q104 0 192.5 22.5t167.5 61.5l20 -176
q-75 -34 -169 -57t-213 -23zM498 1506v122l254 180l254 -180v-122l-254 132z" />
    <glyph glyph-name="Cdotaccent" unicode="&#x10a;" horiz-adv-x="1232" 
d="M784 -28q-204 0 -363.5 89.5t-251 253t-91.5 385.5t92.5 385.5t254 253t367.5 89.5q107 0 204 -23t170 -59l-20 -176q-75 36 -165 61t-191 25q-165 0 -277 -74.5t-169.5 -200.5t-57.5 -281t56.5 -281t168 -200.5t275.5 -74.5q104 0 192.5 22.5t167.5 61.5l20 -176
q-75 -34 -169 -57t-213 -23zM656 1582v180h192v-180h-192z" />
    <glyph glyph-name="D" unicode="D" horiz-adv-x="1454" 
d="M160 0v1400h518q203 0 360 -83t246.5 -239.5t89.5 -377.5t-89.5 -377.5t-246.5 -239.5t-360 -83h-518zM350 172h328q160 0 268.5 66.5t164 185.5t55.5 276t-55.5 276t-164 185.5t-268.5 66.5h-328v-1056z" />
    <glyph glyph-name="uni01C4" unicode="&#x1c4;" horiz-adv-x="2510" 
d="M160 0v1400h518q203 0 360 -83t246.5 -239.5t89.5 -377.5t-89.5 -377.5t-246.5 -239.5t-360 -83h-518zM350 172h328q160 0 268.5 66.5t164 185.5t55.5 276t-55.5 276t-164 185.5t-268.5 66.5h-328v-1056zM1430 0l802 1300l36 -72h-748v172h976l-806 -1300l-34 72h830
v-172h-1056zM1754 1860v-122l254 -180l254 180v122l-254 -132z" />
    <glyph glyph-name="Eth" unicode="&#xd0;" horiz-adv-x="1458" 
d="M176 0v626h-140v168h140v606h512q201 0 356.5 -83t244.5 -239.5t89 -377.5t-89 -377.5t-244.5 -239.5t-356.5 -83h-512zM356 174h332q242 0 364 144t122 382q0 239 -122 383.5t-364 144.5h-332v-434h266v-168h-266v-452z" />
    <glyph glyph-name="Dcaron" unicode="&#x10e;" horiz-adv-x="1454" 
d="M160 0v1400h518q203 0 360 -83t246.5 -239.5t89.5 -377.5t-89.5 -377.5t-246.5 -239.5t-360 -83h-518zM350 172h328q160 0 268.5 66.5t164 185.5t55.5 276t-55.5 276t-164 185.5t-268.5 66.5h-328v-1056zM474 1860v-122l254 -180l254 180v122l-254 -132z" />
    <glyph glyph-name="Dcroat" unicode="&#x110;" horiz-adv-x="1458" 
d="M176 0v626h-140v168h140v606h512q201 0 356.5 -83t244.5 -239.5t89 -377.5t-89 -377.5t-244.5 -239.5t-356.5 -83h-512zM356 174h332q242 0 364 144t122 382q0 239 -122 383.5t-364 144.5h-332v-434h266v-168h-266v-452z" />
    <glyph glyph-name="uni1E0C" unicode="&#x1e0c;" horiz-adv-x="1454" 
d="M160 0v1400h518q203 0 360 -83t246.5 -239.5t89.5 -377.5t-89.5 -377.5t-246.5 -239.5t-360 -83h-518zM350 172h328q160 0 268.5 66.5t164 185.5t55.5 276t-55.5 276t-164 185.5t-268.5 66.5h-328v-1056zM632 -342v180h192v-180h-192z" />
    <glyph glyph-name="uni1E0E" unicode="&#x1e0e;" horiz-adv-x="1454" 
d="M160 0v1400h518q203 0 360 -83t246.5 -239.5t89.5 -377.5t-89.5 -377.5t-246.5 -239.5t-360 -83h-518zM350 172h328q160 0 268.5 66.5t164 185.5t55.5 276t-55.5 276t-164 185.5t-268.5 66.5h-328v-1056zM408 -324v142h640v-142h-640z" />
    <glyph glyph-name="uni01C5" unicode="&#x1c5;" horiz-adv-x="2384" 
d="M160 0v1400h518q203 0 360 -83t246.5 -239.5t89.5 -377.5t-89.5 -377.5t-246.5 -239.5t-360 -83h-518zM350 172h328q160 0 268.5 66.5t164 185.5t55.5 276t-55.5 276t-164 185.5t-268.5 66.5h-328v-1056zM1486 0l606 912l22 -90h-596v158h816l-606 -912l-22 90h618v-158
h-838zM1925 1136l-254 220v122l254 -160l254 160v-122z" />
    <glyph glyph-name="E" unicode="E" horiz-adv-x="1108" 
d="M160 0v1400h854v-172h-664v-410h528v-172h-528v-474h682v-172h-872z" />
    <glyph glyph-name="Eacute" unicode="&#xc9;" horiz-adv-x="1108" 
d="M160 0v1400h854v-172h-664v-410h528v-172h-528v-474h682v-172h-872zM422 1528v116l374 190v-190z" />
    <glyph glyph-name="Ebreve" unicode="&#x114;" horiz-adv-x="1108" 
d="M160 0v1400h854v-172h-664v-410h528v-172h-528v-474h682v-172h-872zM608 1528q-100 0 -164.5 34t-96 89t-31.5 117h160q0 -58 39 -87t93 -29t93 29t39 87h160q0 -62 -31.5 -117t-96 -89t-164.5 -34z" />
    <glyph glyph-name="Ecaron" unicode="&#x11a;" horiz-adv-x="1108" 
d="M160 0v1400h854v-172h-664v-410h528v-172h-528v-474h682v-172h-872zM354 1860v-122l254 -180l254 180v122l-254 -132z" />
    <glyph glyph-name="uni1E1C" unicode="&#x1e1c;" horiz-adv-x="1108" 
d="M160 0v1400h854v-172h-664v-410h528v-172h-528v-474h682v-172h-872zM618 -158l-66 30q24 9 47.5 14.5t50.5 5.5q81 0 127.5 -43.5t46.5 -118.5q0 -88 -61.5 -135t-150.5 -47q-51 0 -90 11.5t-66 26.5l30 98q30 -16 61 -25t65 -9q44 0 70 19.5t26 56.5q0 36 -24.5 58
t-75.5 22q-22 0 -44 -3.5t-48 -12.5l52 210h100zM608 1528q-100 0 -164.5 34t-96 89t-31.5 117h160q0 -58 39 -87t93 -29t93 29t39 87h160q0 -62 -31.5 -117t-96 -89t-164.5 -34z" />
    <glyph glyph-name="Ecircumflex" unicode="&#xca;" horiz-adv-x="1108" 
d="M160 0v1400h854v-172h-664v-410h528v-172h-528v-474h682v-172h-872zM354 1506v122l254 180l254 -180v-122l-254 132z" />
    <glyph glyph-name="uni1EBE" unicode="&#x1ebe;" horiz-adv-x="1108" 
d="M160 0v1400h854v-172h-664v-410h528v-172h-528v-474h682v-172h-872zM354 1506v122l254 180l254 -180v-122l-254 132zM758 1798l132 234h196l-196 -234h-132z" />
    <glyph glyph-name="uni1EC6" unicode="&#x1ec6;" horiz-adv-x="1108" 
d="M160 0v1400h854v-172h-664v-410h528v-172h-528v-474h682v-172h-872zM354 1506v122l254 180l254 -180v-122l-254 132zM516 -342v180h192v-180h-192z" />
    <glyph glyph-name="uni1EC0" unicode="&#x1ec0;" horiz-adv-x="1108" 
d="M160 0v1400h854v-172h-664v-410h528v-172h-528v-474h682v-172h-872zM354 1506v122l254 180l254 -180v-122l-254 132zM786 1798l-174 234h190l112 -234h-128z" />
    <glyph glyph-name="uni1EC2" unicode="&#x1ec2;" horiz-adv-x="1108" 
d="M160 0v1400h854v-172h-664v-410h528v-172h-528v-474h682v-172h-872zM354 1506v122l254 180l254 -180v-122l-254 132zM800 1744l-18 80q35 12 52.5 31t17.5 47q0 33 -22 48.5t-60 15.5q-31 0 -62.5 -10.5t-63.5 -27.5l-34 102q33 18 73.5 28t86.5 10q83 0 140.5 -40
t57.5 -114q0 -66 -39.5 -108t-128.5 -62z" />
    <glyph glyph-name="uni1EC4" unicode="&#x1ec4;" horiz-adv-x="1108" 
d="M160 0v1400h854v-172h-664v-410h528v-172h-528v-474h682v-172h-872zM354 1506v122l254 180l254 -180v-122l-254 132zM774 1890q-46 0 -96.5 20.5t-98 41t-85.5 20.5q-68 0 -68 -72h-130q0 98 38.5 149t107.5 51q46 0 96.5 -20.5t98 -41t85.5 -20.5q68 0 68 72h130
q0 -97 -38.5 -148.5t-107.5 -51.5z" />
    <glyph glyph-name="uni0204" unicode="&#x204;" horiz-adv-x="1108" 
d="M160 0v1400h854v-172h-664v-410h528v-172h-528v-474h682v-172h-872zM816 1576h-132l-180 294h196zM536 1576h-132l-190 294h196z" />
    <glyph glyph-name="Edieresis" unicode="&#xcb;" horiz-adv-x="1108" 
d="M160 0v1400h854v-172h-664v-410h528v-172h-528v-474h682v-172h-872zM330 1588v150h172v-150h-172zM714 1588v150h172v-150h-172z" />
    <glyph glyph-name="Edotaccent" unicode="&#x116;" horiz-adv-x="1108" 
d="M160 0v1400h854v-172h-664v-410h528v-172h-528v-474h682v-172h-872zM512 1582v180h192v-180h-192z" />
    <glyph glyph-name="uni1EB8" unicode="&#x1eb8;" horiz-adv-x="1108" 
d="M160 0v1400h854v-172h-664v-410h528v-172h-528v-474h682v-172h-872zM516 -342v180h192v-180h-192z" />
    <glyph glyph-name="Egrave" unicode="&#xc8;" horiz-adv-x="1108" 
d="M160 0v1400h854v-172h-664v-410h528v-172h-528v-474h682v-172h-872zM794 1528l-374 116v190l374 -190v-116z" />
    <glyph glyph-name="uni1EBA" unicode="&#x1eba;" horiz-adv-x="1108" 
d="M160 0v1400h854v-172h-664v-410h528v-172h-528v-474h682v-172h-872zM606 1520l-18 80q35 12 52.5 31t17.5 47q0 33 -22 48.5t-60 15.5q-31 0 -62.5 -10.5t-63.5 -27.5l-34 102q33 18 73.5 28t86.5 10q83 0 140.5 -40t57.5 -114q0 -66 -39.5 -108t-128.5 -62z" />
    <glyph glyph-name="uni0206" unicode="&#x206;" horiz-adv-x="1108" 
d="M160 0v1400h854v-172h-664v-410h528v-172h-528v-474h682v-172h-872zM608 1798q100 0 164.5 -34t96 -89t31.5 -117h-160q0 59 -39 87.5t-93 28.5t-93 -28.5t-39 -87.5h-160q0 62 31.5 117t96 89t164.5 34z" />
    <glyph glyph-name="Emacron" unicode="&#x112;" horiz-adv-x="1108" 
d="M160 0v1400h854v-172h-664v-410h528v-172h-528v-474h682v-172h-872zM288 1586v136h640v-136h-640z" />
    <glyph glyph-name="uni1E16" unicode="&#x1e16;" horiz-adv-x="1108" 
d="M160 0v1400h854v-172h-664v-410h528v-172h-528v-474h682v-172h-872zM288 1586v136h640v-136h-640zM422 1872v116l374 190v-190z" />
    <glyph glyph-name="uni1E14" unicode="&#x1e14;" horiz-adv-x="1108" 
d="M160 0v1400h854v-172h-664v-410h528v-172h-528v-474h682v-172h-872zM288 1586v136h640v-136h-640zM794 1872l-374 116v190l374 -190v-116z" />
    <glyph glyph-name="Eogonek" unicode="&#x118;" horiz-adv-x="1108" 
d="M160 0v1400h854v-172h-664v-410h528v-172h-528v-474h682v-172h-872zM926 0h106q-70 -54 -113 -105t-43 -107q0 -51 26.5 -76.5t69.5 -25.5q35 0 65.5 9t60.5 25l30 -98q-28 -15 -70 -26.5t-96 -11.5q-84 0 -143 44t-59 128q0 80 53 145t113 99z" />
    <glyph glyph-name="uni1EBC" unicode="&#x1ebc;" horiz-adv-x="1108" 
d="M160 0v1400h854v-172h-664v-410h528v-172h-528v-474h682v-172h-872zM774 1576q-46 0 -96.5 20.5t-98 41t-85.5 20.5q-68 0 -68 -72h-130q0 98 38.5 149t107.5 51q46 0 96.5 -20.5t98 -41t85.5 -20.5q68 0 68 72h130q0 -97 -38.5 -148.5t-107.5 -51.5z" />
    <glyph glyph-name="F" unicode="F" horiz-adv-x="1046" 
d="M160 0v1400h854v-172h-664v-410h512v-172h-512v-646h-190z" />
    <glyph glyph-name="G" unicode="G" horiz-adv-x="1344" 
d="M764 -28q-194 0 -349.5 89.5t-246 253.5t-90.5 387q0 221 93.5 384t257 252.5t373.5 89.5q113 0 215.5 -23.5t178.5 -56.5l-18 -166q-82 32 -174 53t-196 21q-179 0 -294.5 -74.5t-171.5 -200.5t-56 -281q0 -160 57 -285.5t175 -198t300 -72.5q45 0 112 8t122 30v348
h-220v172h410v-624q-82 -45 -204 -75.5t-274 -30.5z" />
    <glyph glyph-name="Gbreve" unicode="&#x11e;" horiz-adv-x="1344" 
d="M764 -28q-194 0 -349.5 89.5t-246 253.5t-90.5 387q0 221 93.5 384t257 252.5t373.5 89.5q113 0 215.5 -23.5t178.5 -56.5l-18 -166q-82 32 -174 53t-196 21q-179 0 -294.5 -74.5t-171.5 -200.5t-56 -281q0 -160 57 -285.5t175 -198t300 -72.5q45 0 112 8t122 30v348
h-220v172h410v-624q-82 -45 -204 -75.5t-274 -30.5zM806 1528q-100 0 -164.5 34t-96 89t-31.5 117h160q0 -58 39 -87t93 -29t93 29t39 87h160q0 -62 -31.5 -117t-96 -89t-164.5 -34z" />
    <glyph glyph-name="Gcaron" unicode="&#x1e6;" horiz-adv-x="1344" 
d="M764 -28q-194 0 -349.5 89.5t-246 253.5t-90.5 387q0 221 93.5 384t257 252.5t373.5 89.5q113 0 215.5 -23.5t178.5 -56.5l-18 -166q-82 32 -174 53t-196 21q-179 0 -294.5 -74.5t-171.5 -200.5t-56 -281q0 -160 57 -285.5t175 -198t300 -72.5q45 0 112 8t122 30v348
h-220v172h410v-624q-82 -45 -204 -75.5t-274 -30.5zM552 1860v-122l254 -180l254 180v122l-254 -132z" />
    <glyph glyph-name="Gcircumflex" unicode="&#x11c;" horiz-adv-x="1344" 
d="M764 -28q-194 0 -349.5 89.5t-246 253.5t-90.5 387q0 221 93.5 384t257 252.5t373.5 89.5q113 0 215.5 -23.5t178.5 -56.5l-18 -166q-82 32 -174 53t-196 21q-179 0 -294.5 -74.5t-171.5 -200.5t-56 -281q0 -160 57 -285.5t175 -198t300 -72.5q45 0 112 8t122 30v348
h-220v172h410v-624q-82 -45 -204 -75.5t-274 -30.5zM552 1506v122l254 180l254 -180v-122l-254 132z" />
    <glyph glyph-name="uni0122" unicode="&#x122;" horiz-adv-x="1344" 
d="M764 -28q-194 0 -349.5 89.5t-246 253.5t-90.5 387q0 221 93.5 384t257 252.5t373.5 89.5q113 0 215.5 -23.5t178.5 -56.5l-18 -166q-82 32 -174 53t-196 21q-179 0 -294.5 -74.5t-171.5 -200.5t-56 -281q0 -160 57 -285.5t175 -198t300 -72.5q45 0 112 8t122 30v348
h-220v172h410v-624q-82 -45 -204 -75.5t-274 -30.5zM798 -608h-114l72 214h-70v212h216v-192z" />
    <glyph glyph-name="Gdotaccent" unicode="&#x120;" horiz-adv-x="1344" 
d="M764 -28q-194 0 -349.5 89.5t-246 253.5t-90.5 387q0 221 93.5 384t257 252.5t373.5 89.5q113 0 215.5 -23.5t178.5 -56.5l-18 -166q-82 32 -174 53t-196 21q-179 0 -294.5 -74.5t-171.5 -200.5t-56 -281q0 -160 57 -285.5t175 -198t300 -72.5q45 0 112 8t122 30v348
h-220v172h410v-624q-82 -45 -204 -75.5t-274 -30.5zM710 1582v180h192v-180h-192z" />
    <glyph glyph-name="uni1E20" unicode="&#x1e20;" horiz-adv-x="1344" 
d="M764 -28q-194 0 -349.5 89.5t-246 253.5t-90.5 387q0 221 93.5 384t257 252.5t373.5 89.5q113 0 215.5 -23.5t178.5 -56.5l-18 -166q-82 32 -174 53t-196 21q-179 0 -294.5 -74.5t-171.5 -200.5t-56 -281q0 -160 57 -285.5t175 -198t300 -72.5q45 0 112 8t122 30v348
h-220v172h410v-624q-82 -45 -204 -75.5t-274 -30.5zM486 1586v136h640v-136h-640z" />
    <glyph glyph-name="H" unicode="H" horiz-adv-x="1412" 
d="M160 0v1400h190v-578h712v578h190v-1400h-190v642h-712v-642h-190z" />
    <glyph glyph-name="Hbar" unicode="&#x126;" horiz-adv-x="1492" 
d="M160 0v1400h190v-578h792v578h190v-1400h-190v642h-792v-642h-190zM20 1000v128h1452v-128h-1452z" />
    <glyph glyph-name="uni1E2A" unicode="&#x1e2a;" horiz-adv-x="1412" 
d="M160 0v1400h190v-578h712v578h190v-1400h-190v642h-712v-642h-190zM706 -436q-100 0 -164.5 36t-96 94t-31.5 124h160q0 -61 39 -91.5t93 -30.5t93 30.5t39 91.5h160q0 -66 -31.5 -124t-96 -94t-164.5 -36z" />
    <glyph glyph-name="Hcircumflex" unicode="&#x124;" horiz-adv-x="1412" 
d="M160 0v1400h190v-578h712v578h190v-1400h-190v642h-712v-642h-190zM452 1506v122l254 180l254 -180v-122l-254 132z" />
    <glyph glyph-name="uni1E24" unicode="&#x1e24;" horiz-adv-x="1412" 
d="M160 0v1400h190v-578h712v578h190v-1400h-190v642h-712v-642h-190zM610 -342v180h192v-180h-192z" />
    <glyph glyph-name="I" unicode="I" horiz-adv-x="510" 
d="M160 0v1400h190v-1400h-190z" />
    <glyph glyph-name="IJ" unicode="&#x132;" horiz-adv-x="1368" 
d="M342 488q11 -95 46 -173t106 -124.5t190 -46.5q112 0 181 42t105.5 113.5t50 161.5t13.5 185v754h190v-806q0 -192 -58.5 -331.5t-178.5 -215t-303 -75.5q-241 0 -373 130.5t-159 359.5zM144 646v754h190v-754h-190z" />
    <glyph glyph-name="Iacute" unicode="&#xcd;" horiz-adv-x="510" 
d="M160 0v1400h190v-1400h-190zM70 1528v116l374 190v-190z" />
    <glyph glyph-name="Ibreve" unicode="&#x12c;" horiz-adv-x="510" 
d="M160 0v1400h190v-1400h-190zM256 1528q-100 0 -164.5 34t-96 89t-31.5 117h160q0 -58 39 -87t93 -29t93 29t39 87h160q0 -62 -31.5 -117t-96 -89t-164.5 -34z" />
    <glyph glyph-name="Icircumflex" unicode="&#xce;" horiz-adv-x="510" 
d="M160 0v1400h190v-1400h-190zM2 1506v122l254 180l254 -180v-122l-254 132z" />
    <glyph glyph-name="uni0208" unicode="&#x208;" horiz-adv-x="510" 
d="M160 0v1400h190v-1400h-190zM464 1576h-132l-180 294h196zM184 1576h-132l-190 294h196z" />
    <glyph glyph-name="Idieresis" unicode="&#xcf;" horiz-adv-x="510" 
d="M160 0v1400h190v-1400h-190zM-22 1588v150h172v-150h-172zM362 1588v150h172v-150h-172z" />
    <glyph glyph-name="uni1E2E" unicode="&#x1e2e;" horiz-adv-x="510" 
d="M160 0v1400h190v-1400h-190zM-22 1588v150h172v-150h-172zM362 1588v150h172v-150h-172zM70 1848v116l374 190v-190z" />
    <glyph glyph-name="Idotaccent" unicode="&#x130;" horiz-adv-x="510" 
d="M160 0v1400h190v-1400h-190zM160 1582v180h192v-180h-192z" />
    <glyph glyph-name="uni1ECA" unicode="&#x1eca;" horiz-adv-x="510" 
d="M160 0v1400h190v-1400h-190zM160 -342v180h192v-180h-192z" />
    <glyph glyph-name="Igrave" unicode="&#xcc;" horiz-adv-x="510" 
d="M160 0v1400h190v-1400h-190zM442 1528l-374 116v190l374 -190v-116z" />
    <glyph glyph-name="uni1EC8" unicode="&#x1ec8;" horiz-adv-x="510" 
d="M160 0v1400h190v-1400h-190zM254 1520l-18 80q35 12 52.5 31t17.5 47q0 33 -22 48.5t-60 15.5q-31 0 -62.5 -10.5t-63.5 -27.5l-34 102q33 18 73.5 28t86.5 10q83 0 140.5 -40t57.5 -114q0 -66 -39.5 -108t-128.5 -62z" />
    <glyph glyph-name="uni020A" unicode="&#x20a;" horiz-adv-x="510" 
d="M160 0v1400h190v-1400h-190zM256 1798q100 0 164.5 -34t96 -89t31.5 -117h-160q0 59 -39 87.5t-93 28.5t-93 -28.5t-39 -87.5h-160q0 62 31.5 117t96 89t164.5 34z" />
    <glyph glyph-name="Imacron" unicode="&#x12a;" horiz-adv-x="510" 
d="M160 0v1400h190v-1400h-190zM-64 1586v136h640v-136h-640z" />
    <glyph glyph-name="Iogonek" unicode="&#x12e;" horiz-adv-x="510" 
d="M160 0v1400h190v-1400h-190zM244 0h106q-70 -54 -113 -105t-43 -107q0 -51 26.5 -76.5t69.5 -25.5q35 0 65.5 9t60.5 25l30 -98q-28 -15 -70 -26.5t-96 -11.5q-84 0 -143 44t-59 128q0 80 53 145t113 99z" />
    <glyph glyph-name="Itilde" unicode="&#x128;" horiz-adv-x="510" 
d="M160 0v1400h190v-1400h-190zM422 1576q-46 0 -96.5 20.5t-98 41t-85.5 20.5q-68 0 -68 -72h-130q0 98 38.5 149t107.5 51q46 0 96.5 -20.5t98 -41t85.5 -20.5q68 0 68 72h130q0 -97 -38.5 -148.5t-107.5 -51.5z" />
    <glyph glyph-name="J" unicode="J" horiz-adv-x="510" 
d="M-14 -344l-26 164q108 0 154 47t46 149v1384h190v-1428q0 -165 -77 -240.5t-235 -75.5h-52z" />
    <glyph glyph-name="Jcircumflex" unicode="&#x134;" horiz-adv-x="510" 
d="M-14 -344l-26 164q108 0 154 47t46 149v1384h190v-1428q0 -165 -77 -240.5t-235 -75.5h-52zM2 1506v122l254 180l254 -180v-122l-254 132z" />
    <glyph glyph-name="K" unicode="K" horiz-adv-x="1132" 
d="M888 0l-518 742l518 658h230l-532 -654l538 -746h-236zM160 0v1400h190v-1400h-190z" />
    <glyph glyph-name="uni0136" unicode="&#x136;" horiz-adv-x="1132" 
d="M888 0l-518 742l518 658h230l-532 -654l538 -746h-236zM160 0v1400h190v-1400h-190zM654 -608h-114l72 214h-70v212h216v-192z" />
    <glyph glyph-name="L" unicode="L" horiz-adv-x="1002" 
d="M160 0v1400h190v-1228h642v-172h-832z" />
    <glyph glyph-name="uni01C7" unicode="&#x1c7;" horiz-adv-x="1512" 
d="M160 0v1400h190v-1228h642v-172h-832zM988 -344l-26 164q108 0 154 47t46 149v1384h190v-1428q0 -165 -77 -240.5t-235 -75.5h-52z" />
    <glyph glyph-name="Lacute" unicode="&#x139;" horiz-adv-x="1002" 
d="M160 0v1400h190v-1228h642v-172h-832zM70 1528v116l374 190v-190z" />
    <glyph glyph-name="Lcaron" unicode="&#x13d;" horiz-adv-x="1002" 
d="M160 0v1400h190v-1228h642v-172h-832zM804 1066v334h188l-56 -334h-132z" />
    <glyph glyph-name="uni013B" unicode="&#x13b;" horiz-adv-x="1002" 
d="M160 0v1400h190v-1228h642v-172h-832zM582 -608h-114l72 214h-70v212h216v-192z" />
    <glyph glyph-name="Ldot" unicode="&#x13f;" horiz-adv-x="1002" 
d="M160 0v1400h190v-1228h642v-172h-832zM654 666v204h204v-204h-204z" />
    <glyph glyph-name="uni1E36" unicode="&#x1e36;" horiz-adv-x="1002" 
d="M160 0v1400h190v-1228h642v-172h-832zM480 -342v180h192v-180h-192z" />
    <glyph glyph-name="uni01C8" unicode="&#x1c8;" horiz-adv-x="1426" 
d="M160 0v1400h190v-1228h642v-172h-832zM998 -484l-20 138q59 6 90.5 22.5t43.5 57.5t12 120v1126h180v-1194q0 -94 -40.5 -148t-97.5 -79t-108 -33zM1124 1200v200h180v-200h-180z" />
    <glyph glyph-name="uni1E3A" unicode="&#x1e3a;" horiz-adv-x="1002" 
d="M160 0v1400h190v-1228h642v-172h-832zM256 -324v142h640v-142h-640z" />
    <glyph glyph-name="Lslash" unicode="&#x141;" horiz-adv-x="1002" 
d="M160 0v1400h190v-1228h642v-172h-832zM20 724v134l752 204v-134z" />
    <glyph glyph-name="M" unicode="M" horiz-adv-x="1624" 
d="M96 0l188 1400h162l368 -694l364 694h164l186 -1400h-200l-142 1142l50 -8l-420 -802l-428 802l50 8l-142 -1142h-200z" />
    <glyph glyph-name="uni1E42" unicode="&#x1e42;" horiz-adv-x="1624" 
d="M96 0l188 1400h162l368 -694l364 694h164l186 -1400h-200l-142 1142l50 -8l-420 -802l-428 802l50 8l-142 -1142h-200zM716 -342v180h192v-180h-192z" />
    <glyph glyph-name="N" unicode="N" horiz-adv-x="1408" 
d="M160 0v1400h206l690 -1048v1048h192v-1400h-162l-736 1106v-1106h-190z" />
    <glyph glyph-name="uni01CA" unicode="&#x1ca;" horiz-adv-x="1918" 
d="M160 0v1400h206l690 -1048v1048h192v-1400h-162l-736 1106v-1106h-190zM1394 -344l-26 164q108 0 154 47t46 149v1384h190v-1428q0 -165 -77 -240.5t-235 -75.5h-52z" />
    <glyph glyph-name="Nacute" unicode="&#x143;" horiz-adv-x="1408" 
d="M160 0v1400h206l690 -1048v1048h192v-1400h-162l-736 1106v-1106h-190zM526 1528v116l374 190v-190z" />
    <glyph glyph-name="Ncaron" unicode="&#x147;" horiz-adv-x="1408" 
d="M160 0v1400h206l690 -1048v1048h192v-1400h-162l-736 1106v-1106h-190zM458 1860v-122l254 -180l254 180v122l-254 -132z" />
    <glyph glyph-name="uni0145" unicode="&#x145;" horiz-adv-x="1408" 
d="M160 0v1400h206l690 -1048v1048h192v-1400h-162l-736 1106v-1106h-190zM724 -608h-114l72 214h-70v212h216v-192z" />
    <glyph glyph-name="uni1E44" unicode="&#x1e44;" horiz-adv-x="1408" 
d="M160 0v1400h206l690 -1048v1048h192v-1400h-162l-736 1106v-1106h-190zM616 1582v180h192v-180h-192z" />
    <glyph glyph-name="uni1E46" unicode="&#x1e46;" horiz-adv-x="1408" 
d="M160 0v1400h206l690 -1048v1048h192v-1400h-162l-736 1106v-1106h-190zM622 -342v180h192v-180h-192z" />
    <glyph glyph-name="Eng" unicode="&#x14a;" horiz-adv-x="1418" 
d="M1290 100q0 -159 -60.5 -263t-166.5 -155.5t-243 -51.5q-83 0 -162 22l26 168q36 -9 73.5 -13.5t74.5 -4.5q120 0 193 69.5t73 208.5v820q0 171 -92 263.5t-274 92.5q-132 0 -227.5 -39.5t-152.5 -104.5v-1112h-192v1400h162l12 -134q86 80 199.5 121t240.5 41
q172 0 286.5 -63.5t172 -178t57.5 -266.5v-820z" />
    <glyph glyph-name="uni01CB" unicode="&#x1cb;" horiz-adv-x="1814" 
d="M160 0v1400h206l690 -1048v1048h192v-1400h-162l-736 1106v-1106h-190zM1386 -484l-20 138q59 6 90.5 22.5t43.5 57.5t12 120v1126h180v-1194q0 -94 -40.5 -148t-97.5 -79t-108 -33zM1512 1200v200h180v-200h-180z" />
    <glyph glyph-name="uni1E48" unicode="&#x1e48;" horiz-adv-x="1408" 
d="M160 0v1400h206l690 -1048v1048h192v-1400h-162l-736 1106v-1106h-190zM398 -324v142h640v-142h-640z" />
    <glyph glyph-name="Ntilde" unicode="&#xd1;" horiz-adv-x="1408" 
d="M160 0v1400h206l690 -1048v1048h192v-1400h-162l-736 1106v-1106h-190zM878 1576q-46 0 -96.5 20.5t-98 41t-85.5 20.5q-68 0 -68 -72h-130q0 98 38.5 149t107.5 51q46 0 96.5 -20.5t98 -41t85.5 -20.5q68 0 68 72h130q0 -97 -38.5 -148.5t-107.5 -51.5z" />
    <glyph glyph-name="O" unicode="O" horiz-adv-x="1540" 
d="M770 -28q-200 0 -356 89.5t-245 253t-89 385.5t89 385.5t245 253t356 89.5t356 -89.5t245 -253t89 -385.5t-89 -385.5t-245 -253t-356 -89.5zM770 156q161 0 269 72.5t162.5 196t54.5 275.5t-54.5 275.5t-162.5 196t-269 72.5t-269 -72.5t-162.5 -196t-54.5 -275.5
t54.5 -275.5t162.5 -196t269 -72.5z" />
    <glyph glyph-name="Oacute" unicode="&#xd3;" horiz-adv-x="1540" 
d="M770 -28q-200 0 -356 89.5t-245 253t-89 385.5t89 385.5t245 253t356 89.5t356 -89.5t245 -253t89 -385.5t-89 -385.5t-245 -253t-356 -89.5zM770 156q161 0 269 72.5t162.5 196t54.5 275.5t-54.5 275.5t-162.5 196t-269 72.5t-269 -72.5t-162.5 -196t-54.5 -275.5
t54.5 -275.5t162.5 -196t269 -72.5zM584 1528v116l374 190v-190z" />
    <glyph glyph-name="Obreve" unicode="&#x14e;" horiz-adv-x="1540" 
d="M770 -28q-200 0 -356 89.5t-245 253t-89 385.5t89 385.5t245 253t356 89.5t356 -89.5t245 -253t89 -385.5t-89 -385.5t-245 -253t-356 -89.5zM770 156q161 0 269 72.5t162.5 196t54.5 275.5t-54.5 275.5t-162.5 196t-269 72.5t-269 -72.5t-162.5 -196t-54.5 -275.5
t54.5 -275.5t162.5 -196t269 -72.5zM770 1528q-100 0 -164.5 34t-96 89t-31.5 117h160q0 -58 39 -87t93 -29t93 29t39 87h160q0 -62 -31.5 -117t-96 -89t-164.5 -34z" />
    <glyph glyph-name="Ocircumflex" unicode="&#xd4;" horiz-adv-x="1540" 
d="M770 -28q-200 0 -356 89.5t-245 253t-89 385.5t89 385.5t245 253t356 89.5t356 -89.5t245 -253t89 -385.5t-89 -385.5t-245 -253t-356 -89.5zM770 156q161 0 269 72.5t162.5 196t54.5 275.5t-54.5 275.5t-162.5 196t-269 72.5t-269 -72.5t-162.5 -196t-54.5 -275.5
t54.5 -275.5t162.5 -196t269 -72.5zM516 1506v122l254 180l254 -180v-122l-254 132z" />
    <glyph glyph-name="uni1ED0" unicode="&#x1ed0;" horiz-adv-x="1540" 
d="M770 -28q-200 0 -356 89.5t-245 253t-89 385.5t89 385.5t245 253t356 89.5t356 -89.5t245 -253t89 -385.5t-89 -385.5t-245 -253t-356 -89.5zM770 156q161 0 269 72.5t162.5 196t54.5 275.5t-54.5 275.5t-162.5 196t-269 72.5t-269 -72.5t-162.5 -196t-54.5 -275.5
t54.5 -275.5t162.5 -196t269 -72.5zM516 1506v122l254 180l254 -180v-122l-254 132zM920 1798l132 234h196l-196 -234h-132z" />
    <glyph glyph-name="uni1ED8" unicode="&#x1ed8;" horiz-adv-x="1540" 
d="M770 -28q-200 0 -356 89.5t-245 253t-89 385.5t89 385.5t245 253t356 89.5t356 -89.5t245 -253t89 -385.5t-89 -385.5t-245 -253t-356 -89.5zM770 156q161 0 269 72.5t162.5 196t54.5 275.5t-54.5 275.5t-162.5 196t-269 72.5t-269 -72.5t-162.5 -196t-54.5 -275.5
t54.5 -275.5t162.5 -196t269 -72.5zM516 1548v122l254 220l254 -220v-122l-254 160zM674 -342v180h192v-180h-192z" />
    <glyph glyph-name="uni1ED2" unicode="&#x1ed2;" horiz-adv-x="1540" 
d="M770 -28q-200 0 -356 89.5t-245 253t-89 385.5t89 385.5t245 253t356 89.5t356 -89.5t245 -253t89 -385.5t-89 -385.5t-245 -253t-356 -89.5zM770 156q161 0 269 72.5t162.5 196t54.5 275.5t-54.5 275.5t-162.5 196t-269 72.5t-269 -72.5t-162.5 -196t-54.5 -275.5
t54.5 -275.5t162.5 -196t269 -72.5zM516 1506v122l254 180l254 -180v-122l-254 132zM948 1798l-174 234h190l112 -234h-128z" />
    <glyph glyph-name="uni1ED4" unicode="&#x1ed4;" horiz-adv-x="1540" 
d="M770 -28q-200 0 -356 89.5t-245 253t-89 385.5t89 385.5t245 253t356 89.5t356 -89.5t245 -253t89 -385.5t-89 -385.5t-245 -253t-356 -89.5zM770 156q161 0 269 72.5t162.5 196t54.5 275.5t-54.5 275.5t-162.5 196t-269 72.5t-269 -72.5t-162.5 -196t-54.5 -275.5
t54.5 -275.5t162.5 -196t269 -72.5zM516 1506v122l254 180l254 -180v-122l-254 132zM962 1744l-18 80q35 12 52.5 31t17.5 47q0 33 -22 48.5t-60 15.5q-31 0 -62.5 -10.5t-63.5 -27.5l-34 102q33 18 73.5 28t86.5 10q83 0 140.5 -40t57.5 -114q0 -66 -39.5 -108t-128.5 -62z
" />
    <glyph glyph-name="uni1ED6" unicode="&#x1ed6;" horiz-adv-x="1540" 
d="M770 -28q-200 0 -356 89.5t-245 253t-89 385.5t89 385.5t245 253t356 89.5t356 -89.5t245 -253t89 -385.5t-89 -385.5t-245 -253t-356 -89.5zM770 156q161 0 269 72.5t162.5 196t54.5 275.5t-54.5 275.5t-162.5 196t-269 72.5t-269 -72.5t-162.5 -196t-54.5 -275.5
t54.5 -275.5t162.5 -196t269 -72.5zM516 1506v122l254 180l254 -180v-122l-254 132zM936 1890q-46 0 -96.5 20.5t-98 41t-85.5 20.5q-68 0 -68 -72h-130q0 98 38.5 149t107.5 51q46 0 96.5 -20.5t98 -41t85.5 -20.5q68 0 68 72h130q0 -97 -38.5 -148.5t-107.5 -51.5z" />
    <glyph glyph-name="uni020C" unicode="&#x20c;" horiz-adv-x="1540" 
d="M770 -28q-200 0 -356 89.5t-245 253t-89 385.5t89 385.5t245 253t356 89.5t356 -89.5t245 -253t89 -385.5t-89 -385.5t-245 -253t-356 -89.5zM770 156q161 0 269 72.5t162.5 196t54.5 275.5t-54.5 275.5t-162.5 196t-269 72.5t-269 -72.5t-162.5 -196t-54.5 -275.5
t54.5 -275.5t162.5 -196t269 -72.5zM978 1576h-132l-180 294h196zM698 1576h-132l-190 294h196z" />
    <glyph glyph-name="Odieresis" unicode="&#xd6;" horiz-adv-x="1540" 
d="M770 -28q-200 0 -356 89.5t-245 253t-89 385.5t89 385.5t245 253t356 89.5t356 -89.5t245 -253t89 -385.5t-89 -385.5t-245 -253t-356 -89.5zM770 156q161 0 269 72.5t162.5 196t54.5 275.5t-54.5 275.5t-162.5 196t-269 72.5t-269 -72.5t-162.5 -196t-54.5 -275.5
t54.5 -275.5t162.5 -196t269 -72.5zM492 1588v150h172v-150h-172zM876 1588v150h172v-150h-172z" />
    <glyph glyph-name="uni022A" unicode="&#x22a;" horiz-adv-x="1540" 
d="M770 -28q-200 0 -356 89.5t-245 253t-89 385.5t89 385.5t245 253t356 89.5t356 -89.5t245 -253t89 -385.5t-89 -385.5t-245 -253t-356 -89.5zM770 156q161 0 269 72.5t162.5 196t54.5 275.5t-54.5 275.5t-162.5 196t-269 72.5t-269 -72.5t-162.5 -196t-54.5 -275.5
t54.5 -275.5t162.5 -196t269 -72.5zM492 1588v150h172v-150h-172zM876 1588v150h172v-150h-172zM450 1906v136h640v-136h-640z" />
    <glyph glyph-name="uni0230" unicode="&#x230;" horiz-adv-x="1540" 
d="M770 -28q-200 0 -356 89.5t-245 253t-89 385.5t89 385.5t245 253t356 89.5t356 -89.5t245 -253t89 -385.5t-89 -385.5t-245 -253t-356 -89.5zM770 156q161 0 269 72.5t162.5 196t54.5 275.5t-54.5 275.5t-162.5 196t-269 72.5t-269 -72.5t-162.5 -196t-54.5 -275.5
t54.5 -275.5t162.5 -196t269 -72.5zM674 1582v180h192v-180h-192zM450 1918v136h640v-136h-640z" />
    <glyph glyph-name="uni1ECC" unicode="&#x1ecc;" horiz-adv-x="1540" 
d="M770 -28q-200 0 -356 89.5t-245 253t-89 385.5t89 385.5t245 253t356 89.5t356 -89.5t245 -253t89 -385.5t-89 -385.5t-245 -253t-356 -89.5zM770 156q161 0 269 72.5t162.5 196t54.5 275.5t-54.5 275.5t-162.5 196t-269 72.5t-269 -72.5t-162.5 -196t-54.5 -275.5
t54.5 -275.5t162.5 -196t269 -72.5zM674 -342v180h192v-180h-192z" />
    <glyph glyph-name="Ograve" unicode="&#xd2;" horiz-adv-x="1540" 
d="M770 -28q-200 0 -356 89.5t-245 253t-89 385.5t89 385.5t245 253t356 89.5t356 -89.5t245 -253t89 -385.5t-89 -385.5t-245 -253t-356 -89.5zM770 156q161 0 269 72.5t162.5 196t54.5 275.5t-54.5 275.5t-162.5 196t-269 72.5t-269 -72.5t-162.5 -196t-54.5 -275.5
t54.5 -275.5t162.5 -196t269 -72.5zM956 1528l-374 116v190l374 -190v-116z" />
    <glyph glyph-name="uni1ECE" unicode="&#x1ece;" horiz-adv-x="1540" 
d="M770 -28q-200 0 -356 89.5t-245 253t-89 385.5t89 385.5t245 253t356 89.5t356 -89.5t245 -253t89 -385.5t-89 -385.5t-245 -253t-356 -89.5zM770 156q161 0 269 72.5t162.5 196t54.5 275.5t-54.5 275.5t-162.5 196t-269 72.5t-269 -72.5t-162.5 -196t-54.5 -275.5
t54.5 -275.5t162.5 -196t269 -72.5zM768 1520l-18 80q35 12 52.5 31t17.5 47q0 33 -22 48.5t-60 15.5q-31 0 -62.5 -10.5t-63.5 -27.5l-34 102q33 18 73.5 28t86.5 10q83 0 140.5 -40t57.5 -114q0 -66 -39.5 -108t-128.5 -62z" />
    <glyph glyph-name="Ohorn" unicode="&#x1a0;" horiz-adv-x="1540" 
d="M770 -28q-200 0 -356 89.5t-245 253t-89 385.5t89 385.5t245 253t356 89.5t356 -89.5t245 -253t89 -385.5t-89 -385.5t-245 -253t-356 -89.5zM770 156q161 0 269 72.5t162.5 196t54.5 275.5t-54.5 275.5t-162.5 196t-269 72.5t-269 -72.5t-162.5 -196t-54.5 -275.5
t54.5 -275.5t162.5 -196t269 -72.5zM958 1262v138q75 0 117.5 34.5t42.5 113.5h172q0 -76 -44 -141t-119 -105t-169 -40z" />
    <glyph glyph-name="uni1EDA" unicode="&#x1eda;" horiz-adv-x="1540" 
d="M770 -28q-200 0 -356 89.5t-245 253t-89 385.5t89 385.5t245 253t356 89.5t356 -89.5t245 -253t89 -385.5t-89 -385.5t-245 -253t-356 -89.5zM770 156q161 0 269 72.5t162.5 196t54.5 275.5t-54.5 275.5t-162.5 196t-269 72.5t-269 -72.5t-162.5 -196t-54.5 -275.5
t54.5 -275.5t162.5 -196t269 -72.5zM958 1262v138q75 0 117.5 34.5t42.5 113.5h172q0 -76 -44 -141t-119 -105t-169 -40zM584 1528v116l374 190v-190z" />
    <glyph glyph-name="uni1EE2" unicode="&#x1ee2;" horiz-adv-x="1540" 
d="M770 -28q-200 0 -356 89.5t-245 253t-89 385.5t89 385.5t245 253t356 89.5t356 -89.5t245 -253t89 -385.5t-89 -385.5t-245 -253t-356 -89.5zM770 156q161 0 269 72.5t162.5 196t54.5 275.5t-54.5 275.5t-162.5 196t-269 72.5t-269 -72.5t-162.5 -196t-54.5 -275.5
t54.5 -275.5t162.5 -196t269 -72.5zM958 1262v138q75 0 117.5 34.5t42.5 113.5h172q0 -76 -44 -141t-119 -105t-169 -40zM674 -342v180h192v-180h-192z" />
    <glyph glyph-name="uni1EDC" unicode="&#x1edc;" horiz-adv-x="1540" 
d="M770 -28q-200 0 -356 89.5t-245 253t-89 385.5t89 385.5t245 253t356 89.5t356 -89.5t245 -253t89 -385.5t-89 -385.5t-245 -253t-356 -89.5zM770 156q161 0 269 72.5t162.5 196t54.5 275.5t-54.5 275.5t-162.5 196t-269 72.5t-269 -72.5t-162.5 -196t-54.5 -275.5
t54.5 -275.5t162.5 -196t269 -72.5zM958 1262v138q75 0 117.5 34.5t42.5 113.5h172q0 -76 -44 -141t-119 -105t-169 -40zM956 1528l-374 116v190l374 -190v-116z" />
    <glyph glyph-name="uni1EDE" unicode="&#x1ede;" horiz-adv-x="1540" 
d="M770 -28q-200 0 -356 89.5t-245 253t-89 385.5t89 385.5t245 253t356 89.5t356 -89.5t245 -253t89 -385.5t-89 -385.5t-245 -253t-356 -89.5zM770 156q161 0 269 72.5t162.5 196t54.5 275.5t-54.5 275.5t-162.5 196t-269 72.5t-269 -72.5t-162.5 -196t-54.5 -275.5
t54.5 -275.5t162.5 -196t269 -72.5zM958 1262v138q75 0 117.5 34.5t42.5 113.5h172q0 -76 -44 -141t-119 -105t-169 -40zM768 1520l-18 80q35 12 52.5 31t17.5 47q0 33 -22 48.5t-60 15.5q-31 0 -62.5 -10.5t-63.5 -27.5l-34 102q33 18 73.5 28t86.5 10q83 0 140.5 -40
t57.5 -114q0 -66 -39.5 -108t-128.5 -62z" />
    <glyph glyph-name="uni1EE0" unicode="&#x1ee0;" horiz-adv-x="1540" 
d="M770 -28q-200 0 -356 89.5t-245 253t-89 385.5t89 385.5t245 253t356 89.5t356 -89.5t245 -253t89 -385.5t-89 -385.5t-245 -253t-356 -89.5zM770 156q161 0 269 72.5t162.5 196t54.5 275.5t-54.5 275.5t-162.5 196t-269 72.5t-269 -72.5t-162.5 -196t-54.5 -275.5
t54.5 -275.5t162.5 -196t269 -72.5zM958 1262v138q75 0 117.5 34.5t42.5 113.5h172q0 -76 -44 -141t-119 -105t-169 -40zM936 1576q-46 0 -96.5 20.5t-98 41t-85.5 20.5q-68 0 -68 -72h-130q0 98 38.5 149t107.5 51q46 0 96.5 -20.5t98 -41t85.5 -20.5q68 0 68 72h130
q0 -97 -38.5 -148.5t-107.5 -51.5z" />
    <glyph glyph-name="Ohungarumlaut" unicode="&#x150;" horiz-adv-x="1540" 
d="M770 -28q-200 0 -356 89.5t-245 253t-89 385.5t89 385.5t245 253t356 89.5t356 -89.5t245 -253t89 -385.5t-89 -385.5t-245 -253t-356 -89.5zM770 156q161 0 269 72.5t162.5 196t54.5 275.5t-54.5 275.5t-162.5 196t-269 72.5t-269 -72.5t-162.5 -196t-54.5 -275.5
t54.5 -275.5t162.5 -196t269 -72.5zM562 1576l132 294h196l-196 -294h-132zM842 1576l142 294h196l-206 -294h-132z" />
    <glyph glyph-name="uni020E" unicode="&#x20e;" horiz-adv-x="1540" 
d="M770 -28q-200 0 -356 89.5t-245 253t-89 385.5t89 385.5t245 253t356 89.5t356 -89.5t245 -253t89 -385.5t-89 -385.5t-245 -253t-356 -89.5zM770 156q161 0 269 72.5t162.5 196t54.5 275.5t-54.5 275.5t-162.5 196t-269 72.5t-269 -72.5t-162.5 -196t-54.5 -275.5
t54.5 -275.5t162.5 -196t269 -72.5zM770 1798q100 0 164.5 -34t96 -89t31.5 -117h-160q0 59 -39 87.5t-93 28.5t-93 -28.5t-39 -87.5h-160q0 62 31.5 117t96 89t164.5 34z" />
    <glyph glyph-name="Omacron" unicode="&#x14c;" horiz-adv-x="1540" 
d="M770 -28q-200 0 -356 89.5t-245 253t-89 385.5t89 385.5t245 253t356 89.5t356 -89.5t245 -253t89 -385.5t-89 -385.5t-245 -253t-356 -89.5zM770 156q161 0 269 72.5t162.5 196t54.5 275.5t-54.5 275.5t-162.5 196t-269 72.5t-269 -72.5t-162.5 -196t-54.5 -275.5
t54.5 -275.5t162.5 -196t269 -72.5zM450 1586v136h640v-136h-640z" />
    <glyph glyph-name="uni1E52" unicode="&#x1e52;" horiz-adv-x="1540" 
d="M770 -28q-200 0 -356 89.5t-245 253t-89 385.5t89 385.5t245 253t356 89.5t356 -89.5t245 -253t89 -385.5t-89 -385.5t-245 -253t-356 -89.5zM770 156q161 0 269 72.5t162.5 196t54.5 275.5t-54.5 275.5t-162.5 196t-269 72.5t-269 -72.5t-162.5 -196t-54.5 -275.5
t54.5 -275.5t162.5 -196t269 -72.5zM450 1586v136h640v-136h-640zM584 1872v116l374 190v-190z" />
    <glyph glyph-name="uni1E50" unicode="&#x1e50;" horiz-adv-x="1540" 
d="M770 -28q-200 0 -356 89.5t-245 253t-89 385.5t89 385.5t245 253t356 89.5t356 -89.5t245 -253t89 -385.5t-89 -385.5t-245 -253t-356 -89.5zM770 156q161 0 269 72.5t162.5 196t54.5 275.5t-54.5 275.5t-162.5 196t-269 72.5t-269 -72.5t-162.5 -196t-54.5 -275.5
t54.5 -275.5t162.5 -196t269 -72.5zM450 1586v136h640v-136h-640zM956 1872l-374 116v190l374 -190v-116z" />
    <glyph glyph-name="uni01EA" unicode="&#x1ea;" horiz-adv-x="1540" 
d="M770 -28q-200 0 -356 89.5t-245 253t-89 385.5t89 385.5t245 253t356 89.5t356 -89.5t245 -253t89 -385.5t-89 -385.5t-245 -253t-356 -89.5zM770 156q161 0 269 72.5t162.5 196t54.5 275.5t-54.5 275.5t-162.5 196t-269 72.5t-269 -72.5t-162.5 -196t-54.5 -275.5
t54.5 -275.5t162.5 -196t269 -72.5zM824 0h106q-70 -54 -113 -105t-43 -107q0 -51 26.5 -76.5t69.5 -25.5q35 0 65.5 9t60.5 25l30 -98q-28 -15 -70 -26.5t-96 -11.5q-84 0 -143 44t-59 128q0 80 53 145t113 99z" />
    <glyph glyph-name="Oslash" unicode="&#xd8;" horiz-adv-x="1540" 
d="M140 -88l1078 1576h182l-1078 -1576h-182zM770 -28q-200 0 -356 89.5t-245 253t-89 385.5t89 385.5t245 253t356 89.5t356 -89.5t245 -253t89 -385.5t-89 -385.5t-245 -253t-356 -89.5zM770 156q161 0 269 72.5t162.5 196t54.5 275.5t-54.5 275.5t-162.5 196t-269 72.5
t-269 -72.5t-162.5 -196t-54.5 -275.5t54.5 -275.5t162.5 -196t269 -72.5z" />
    <glyph glyph-name="Oslashacute" unicode="&#x1fe;" horiz-adv-x="1540" 
d="M140 -88l1078 1576h182l-1078 -1576h-182zM770 -28q-200 0 -356 89.5t-245 253t-89 385.5t89 385.5t245 253t356 89.5t356 -89.5t245 -253t89 -385.5t-89 -385.5t-245 -253t-356 -89.5zM770 156q161 0 269 72.5t162.5 196t54.5 275.5t-54.5 275.5t-162.5 196t-269 72.5
t-269 -72.5t-162.5 -196t-54.5 -275.5t54.5 -275.5t162.5 -196t269 -72.5zM582 1528v116l374 190v-190z" />
    <glyph glyph-name="Otilde" unicode="&#xd5;" horiz-adv-x="1540" 
d="M770 -28q-200 0 -356 89.5t-245 253t-89 385.5t89 385.5t245 253t356 89.5t356 -89.5t245 -253t89 -385.5t-89 -385.5t-245 -253t-356 -89.5zM770 156q161 0 269 72.5t162.5 196t54.5 275.5t-54.5 275.5t-162.5 196t-269 72.5t-269 -72.5t-162.5 -196t-54.5 -275.5
t54.5 -275.5t162.5 -196t269 -72.5zM936 1576q-46 0 -96.5 20.5t-98 41t-85.5 20.5q-68 0 -68 -72h-130q0 98 38.5 149t107.5 51q46 0 96.5 -20.5t98 -41t85.5 -20.5q68 0 68 72h130q0 -97 -38.5 -148.5t-107.5 -51.5z" />
    <glyph glyph-name="uni1E4C" unicode="&#x1e4c;" horiz-adv-x="1540" 
d="M770 -28q-200 0 -356 89.5t-245 253t-89 385.5t89 385.5t245 253t356 89.5t356 -89.5t245 -253t89 -385.5t-89 -385.5t-245 -253t-356 -89.5zM770 156q161 0 269 72.5t162.5 196t54.5 275.5t-54.5 275.5t-162.5 196t-269 72.5t-269 -72.5t-162.5 -196t-54.5 -275.5
t54.5 -275.5t162.5 -196t269 -72.5zM936 1576q-46 0 -96.5 20.5t-98 41t-85.5 20.5q-68 0 -68 -72h-130q0 98 38.5 149t107.5 51q46 0 96.5 -20.5t98 -41t85.5 -20.5q68 0 68 72h130q0 -97 -38.5 -148.5t-107.5 -51.5zM584 1880v116l374 190v-190z" />
    <glyph glyph-name="uni1E4E" unicode="&#x1e4e;" horiz-adv-x="1540" 
d="M770 -28q-200 0 -356 89.5t-245 253t-89 385.5t89 385.5t245 253t356 89.5t356 -89.5t245 -253t89 -385.5t-89 -385.5t-245 -253t-356 -89.5zM770 156q161 0 269 72.5t162.5 196t54.5 275.5t-54.5 275.5t-162.5 196t-269 72.5t-269 -72.5t-162.5 -196t-54.5 -275.5
t54.5 -275.5t162.5 -196t269 -72.5zM936 1576q-46 0 -96.5 20.5t-98 41t-85.5 20.5q-68 0 -68 -72h-130q0 98 38.5 149t107.5 51q46 0 96.5 -20.5t98 -41t85.5 -20.5q68 0 68 72h130q0 -97 -38.5 -148.5t-107.5 -51.5zM492 1940v150h172v-150h-172zM876 1940v150h172v-150
h-172z" />
    <glyph glyph-name="uni022C" unicode="&#x22c;" horiz-adv-x="1540" 
d="M770 -28q-200 0 -356 89.5t-245 253t-89 385.5t89 385.5t245 253t356 89.5t356 -89.5t245 -253t89 -385.5t-89 -385.5t-245 -253t-356 -89.5zM770 156q161 0 269 72.5t162.5 196t54.5 275.5t-54.5 275.5t-162.5 196t-269 72.5t-269 -72.5t-162.5 -196t-54.5 -275.5
t54.5 -275.5t162.5 -196t269 -72.5zM936 1576q-46 0 -96.5 20.5t-98 41t-85.5 20.5q-68 0 -68 -72h-130q0 98 38.5 149t107.5 51q46 0 96.5 -20.5t98 -41t85.5 -20.5q68 0 68 72h130q0 -97 -38.5 -148.5t-107.5 -51.5zM450 1938v136h640v-136h-640z" />
    <glyph glyph-name="OE" unicode="&#x152;" horiz-adv-x="2142" 
d="M744 -28q-193 0 -343 89.5t-235.5 253t-85.5 385.5t85.5 385.5t235.5 253t343 89.5q134 0 253 -51t209.5 -146.5t142 -229.5t51.5 -301q0 -166 -51.5 -300.5t-142 -230t-209.5 -146.5t-253 -51zM756 144q159 0 264.5 73.5t157.5 199.5t52 283t-52 283t-157.5 199.5
t-264.5 73.5q-160 0 -265.5 -73.5t-158 -199.5t-52.5 -283t52.5 -283t158 -199.5t265.5 -73.5zM1248 0v1398h802v-170h-620v-410h476v-172h-476v-474h638v-172h-820z" />
    <glyph glyph-name="P" unicode="P" horiz-adv-x="1144" 
d="M160 0v1400h462q141 0 248 -45t166.5 -145t59.5 -264q0 -161 -59.5 -261.5t-166.5 -147.5t-248 -47h-262v-490h-200zM360 660h234q153 0 229.5 69.5t76.5 214.5q0 146 -72.5 216t-233.5 70h-234v-570z" />
    <glyph glyph-name="Thorn" unicode="&#xde;" horiz-adv-x="1148" 
d="M160 0v1400h200v-310h330q215 0 312.5 -97.5t97.5 -256.5t-98.5 -256.5t-311.5 -97.5h-330v-382h-200zM360 552h316q113 0 170.5 47t57.5 137t-57.5 137t-170.5 47h-316v-368z" />
    <glyph glyph-name="Q" unicode="Q" horiz-adv-x="1540" 
d="M882 404l108 110l440 -432l-108 -110zM770 -28q-200 0 -356 89.5t-245 253t-89 385.5t89 385.5t245 253t356 89.5t356 -89.5t245 -253t89 -385.5t-89 -385.5t-245 -253t-356 -89.5zM770 156q161 0 269 72.5t162.5 196t54.5 275.5t-54.5 275.5t-162.5 196t-269 72.5
t-269 -72.5t-162.5 -196t-54.5 -275.5t54.5 -275.5t162.5 -196t269 -72.5z" />
    <glyph glyph-name="R" unicode="R" horiz-adv-x="1206" 
d="M160 0v1400h454q146 0 255 -45t169 -139t60 -242q0 -144 -62.5 -241t-181.5 -153l314 -580h-232l-284 546h-5h-5h-282v-546h-200zM360 716h252q143 0 215.5 69t72.5 189q0 122 -72.5 189t-215.5 67h-252v-514z" />
    <glyph glyph-name="Racute" unicode="&#x154;" horiz-adv-x="1206" 
d="M160 0v1400h454q146 0 255 -45t169 -139t60 -242q0 -144 -62.5 -241t-181.5 -153l314 -580h-232l-284 546h-5h-5h-282v-546h-200zM360 716h252q143 0 215.5 69t72.5 189q0 122 -72.5 189t-215.5 67h-252v-514zM428 1528v116l374 190v-190z" />
    <glyph glyph-name="Rcaron" unicode="&#x158;" horiz-adv-x="1206" 
d="M160 0v1400h454q146 0 255 -45t169 -139t60 -242q0 -144 -62.5 -241t-181.5 -153l314 -580h-232l-284 546h-5h-5h-282v-546h-200zM360 716h252q143 0 215.5 69t72.5 189q0 122 -72.5 189t-215.5 67h-252v-514zM360 1860v-122l254 -180l254 180v122l-254 -132z" />
    <glyph glyph-name="uni0156" unicode="&#x156;" horiz-adv-x="1206" 
d="M160 0v1400h454q146 0 255 -45t169 -139t60 -242q0 -144 -62.5 -241t-181.5 -153l314 -580h-232l-284 546h-5h-5h-282v-546h-200zM360 716h252q143 0 215.5 69t72.5 189q0 122 -72.5 189t-215.5 67h-252v-514zM668 -608h-114l72 214h-70v212h216v-192z" />
    <glyph glyph-name="uni0210" unicode="&#x210;" horiz-adv-x="1206" 
d="M160 0v1400h454q146 0 255 -45t169 -139t60 -242q0 -144 -62.5 -241t-181.5 -153l314 -580h-232l-284 546h-5h-5h-282v-546h-200zM360 716h252q143 0 215.5 69t72.5 189q0 122 -72.5 189t-215.5 67h-252v-514zM822 1576h-132l-180 294h196zM542 1576h-132l-190 294h196z
" />
    <glyph glyph-name="uni1E5A" unicode="&#x1e5a;" horiz-adv-x="1206" 
d="M160 0v1400h454q146 0 255 -45t169 -139t60 -242q0 -144 -62.5 -241t-181.5 -153l314 -580h-232l-284 546h-5h-5h-282v-546h-200zM360 716h252q143 0 215.5 69t72.5 189q0 122 -72.5 189t-215.5 67h-252v-514zM566 -342v180h192v-180h-192z" />
    <glyph glyph-name="uni0212" unicode="&#x212;" horiz-adv-x="1206" 
d="M160 0v1400h454q146 0 255 -45t169 -139t60 -242q0 -144 -62.5 -241t-181.5 -153l314 -580h-232l-284 546h-5h-5h-282v-546h-200zM360 716h252q143 0 215.5 69t72.5 189q0 122 -72.5 189t-215.5 67h-252v-514zM614 1798q100 0 164.5 -34t96 -89t31.5 -117h-160
q0 59 -39 87.5t-93 28.5t-93 -28.5t-39 -87.5h-160q0 62 31.5 117t96 89t164.5 34z" />
    <glyph glyph-name="uni1E5E" unicode="&#x1e5e;" horiz-adv-x="1206" 
d="M160 0v1400h454q146 0 255 -45t169 -139t60 -242q0 -144 -62.5 -241t-181.5 -153l314 -580h-232l-284 546h-5h-5h-282v-546h-200zM360 716h252q143 0 215.5 69t72.5 189q0 122 -72.5 189t-215.5 67h-252v-514zM342 -324v142h640v-142h-640z" />
    <glyph glyph-name="S" unicode="S" horiz-adv-x="1168" 
d="M560 -28q-87 0 -174 13t-161 33.5t-123 43.5l26 202q54 -26 130.5 -54t165.5 -47t180 -19q135 0 214.5 49.5t79.5 154.5q0 79 -40 129.5t-120.5 86.5t-201.5 72q-115 34 -212 80.5t-155.5 125t-58.5 208.5q0 111 57.5 196.5t169 133.5t273.5 48q138 0 253.5 -30
t190.5 -66l-20 -202q-114 68 -217.5 97t-214.5 29q-123 0 -203.5 -46t-80.5 -150q0 -70 36 -114.5t107 -76t177 -63.5q146 -44 251 -100.5t161 -139t56 -204.5q0 -90 -34 -162t-102 -123t-170.5 -78t-239.5 -27z" />
    <glyph glyph-name="Sacute" unicode="&#x15a;" horiz-adv-x="1168" 
d="M560 -28q-87 0 -174 13t-161 33.5t-123 43.5l26 202q54 -26 130.5 -54t165.5 -47t180 -19q135 0 214.5 49.5t79.5 154.5q0 79 -40 129.5t-120.5 86.5t-201.5 72q-115 34 -212 80.5t-155.5 125t-58.5 208.5q0 111 57.5 196.5t169 133.5t273.5 48q138 0 253.5 -30
t190.5 -66l-20 -202q-114 68 -217.5 97t-214.5 29q-123 0 -203.5 -46t-80.5 -150q0 -70 36 -114.5t107 -76t177 -63.5q146 -44 251 -100.5t161 -139t56 -204.5q0 -90 -34 -162t-102 -123t-170.5 -78t-239.5 -27zM446 1528v116l374 190v-190z" />
    <glyph glyph-name="uni1E64" unicode="&#x1e64;" horiz-adv-x="1168" 
d="M560 -28q-87 0 -174 13t-161 33.5t-123 43.5l26 202q54 -26 130.5 -54t165.5 -47t180 -19q135 0 214.5 49.5t79.5 154.5q0 79 -40 129.5t-120.5 86.5t-201.5 72q-115 34 -212 80.5t-155.5 125t-58.5 208.5q0 111 57.5 196.5t169 133.5t273.5 48q138 0 253.5 -30
t190.5 -66l-20 -202q-114 68 -217.5 97t-214.5 29q-123 0 -203.5 -46t-80.5 -150q0 -70 36 -114.5t107 -76t177 -63.5q146 -44 251 -100.5t161 -139t56 -204.5q0 -90 -34 -162t-102 -123t-170.5 -78t-239.5 -27zM446 1528v116l374 190v-190zM536 1926v180h192v-180h-192z
" />
    <glyph glyph-name="Scaron" unicode="&#x160;" horiz-adv-x="1168" 
d="M560 -28q-87 0 -174 13t-161 33.5t-123 43.5l26 202q54 -26 130.5 -54t165.5 -47t180 -19q135 0 214.5 49.5t79.5 154.5q0 79 -40 129.5t-120.5 86.5t-201.5 72q-115 34 -212 80.5t-155.5 125t-58.5 208.5q0 111 57.5 196.5t169 133.5t273.5 48q138 0 253.5 -30
t190.5 -66l-20 -202q-114 68 -217.5 97t-214.5 29q-123 0 -203.5 -46t-80.5 -150q0 -70 36 -114.5t107 -76t177 -63.5q146 -44 251 -100.5t161 -139t56 -204.5q0 -90 -34 -162t-102 -123t-170.5 -78t-239.5 -27zM378 1860v-122l254 -180l254 180v122l-254 -132z" />
    <glyph glyph-name="uni1E66" unicode="&#x1e66;" horiz-adv-x="1168" 
d="M560 -28q-87 0 -174 13t-161 33.5t-123 43.5l26 202q54 -26 130.5 -54t165.5 -47t180 -19q135 0 214.5 49.5t79.5 154.5q0 79 -40 129.5t-120.5 86.5t-201.5 72q-115 34 -212 80.5t-155.5 125t-58.5 208.5q0 111 57.5 196.5t169 133.5t273.5 48q138 0 253.5 -30
t190.5 -66l-20 -202q-114 68 -217.5 97t-214.5 29q-123 0 -203.5 -46t-80.5 -150q0 -70 36 -114.5t107 -76t177 -63.5q146 -44 251 -100.5t161 -139t56 -204.5q0 -90 -34 -162t-102 -123t-170.5 -78t-239.5 -27zM378 1860v-122l254 -180l254 180v122l-254 -132zM536 1952
v180h192v-180h-192z" />
    <glyph glyph-name="Scedilla" unicode="&#x15e;" horiz-adv-x="1168" 
d="M560 -28q-87 0 -174 13t-161 33.5t-123 43.5l26 202q54 -26 130.5 -54t165.5 -47t180 -19q135 0 214.5 49.5t79.5 154.5q0 79 -40 129.5t-120.5 86.5t-201.5 72q-115 34 -212 80.5t-155.5 125t-58.5 208.5q0 111 57.5 196.5t169 133.5t273.5 48q138 0 253.5 -30
t190.5 -66l-20 -202q-114 68 -217.5 97t-214.5 29q-123 0 -203.5 -46t-80.5 -150q0 -70 36 -114.5t107 -76t177 -63.5q146 -44 251 -100.5t161 -139t56 -204.5q0 -90 -34 -162t-102 -123t-170.5 -78t-239.5 -27zM592 -158l-66 30q24 9 47.5 14.5t50.5 5.5q81 0 127.5 -43.5
t46.5 -118.5q0 -88 -61.5 -135t-150.5 -47q-51 0 -90 11.5t-66 26.5l30 98q30 -16 61 -25t65 -9q44 0 70 19.5t26 56.5q0 36 -24.5 58t-75.5 22q-22 0 -44 -3.5t-48 -12.5l52 210h100z" />
    <glyph glyph-name="Scircumflex" unicode="&#x15c;" horiz-adv-x="1168" 
d="M560 -28q-87 0 -174 13t-161 33.5t-123 43.5l26 202q54 -26 130.5 -54t165.5 -47t180 -19q135 0 214.5 49.5t79.5 154.5q0 79 -40 129.5t-120.5 86.5t-201.5 72q-115 34 -212 80.5t-155.5 125t-58.5 208.5q0 111 57.5 196.5t169 133.5t273.5 48q138 0 253.5 -30
t190.5 -66l-20 -202q-114 68 -217.5 97t-214.5 29q-123 0 -203.5 -46t-80.5 -150q0 -70 36 -114.5t107 -76t177 -63.5q146 -44 251 -100.5t161 -139t56 -204.5q0 -90 -34 -162t-102 -123t-170.5 -78t-239.5 -27zM378 1506v122l254 180l254 -180v-122l-254 132z" />
    <glyph glyph-name="uni0218" unicode="&#x218;" horiz-adv-x="1168" 
d="M560 -28q-87 0 -174 13t-161 33.5t-123 43.5l26 202q54 -26 130.5 -54t165.5 -47t180 -19q135 0 214.5 49.5t79.5 154.5q0 79 -40 129.5t-120.5 86.5t-201.5 72q-115 34 -212 80.5t-155.5 125t-58.5 208.5q0 111 57.5 196.5t169 133.5t273.5 48q138 0 253.5 -30
t190.5 -66l-20 -202q-114 68 -217.5 97t-214.5 29q-123 0 -203.5 -46t-80.5 -150q0 -70 36 -114.5t107 -76t177 -63.5q146 -44 251 -100.5t161 -139t56 -204.5q0 -90 -34 -162t-102 -123t-170.5 -78t-239.5 -27zM592 -608h-114l72 214h-70v212h216v-192z" />
    <glyph glyph-name="uni1E60" unicode="&#x1e60;" horiz-adv-x="1168" 
d="M560 -28q-87 0 -174 13t-161 33.5t-123 43.5l26 202q54 -26 130.5 -54t165.5 -47t180 -19q135 0 214.5 49.5t79.5 154.5q0 79 -40 129.5t-120.5 86.5t-201.5 72q-115 34 -212 80.5t-155.5 125t-58.5 208.5q0 111 57.5 196.5t169 133.5t273.5 48q138 0 253.5 -30
t190.5 -66l-20 -202q-114 68 -217.5 97t-214.5 29q-123 0 -203.5 -46t-80.5 -150q0 -70 36 -114.5t107 -76t177 -63.5q146 -44 251 -100.5t161 -139t56 -204.5q0 -90 -34 -162t-102 -123t-170.5 -78t-239.5 -27zM536 1582v180h192v-180h-192z" />
    <glyph glyph-name="uni1E62" unicode="&#x1e62;" horiz-adv-x="1168" 
d="M560 -28q-87 0 -174 13t-161 33.5t-123 43.5l26 202q54 -26 130.5 -54t165.5 -47t180 -19q135 0 214.5 49.5t79.5 154.5q0 79 -40 129.5t-120.5 86.5t-201.5 72q-115 34 -212 80.5t-155.5 125t-58.5 208.5q0 111 57.5 196.5t169 133.5t273.5 48q138 0 253.5 -30
t190.5 -66l-20 -202q-114 68 -217.5 97t-214.5 29q-123 0 -203.5 -46t-80.5 -150q0 -70 36 -114.5t107 -76t177 -63.5q146 -44 251 -100.5t161 -139t56 -204.5q0 -90 -34 -162t-102 -123t-170.5 -78t-239.5 -27zM490 -342v180h192v-180h-192z" />
    <glyph glyph-name="uni1E68" unicode="&#x1e68;" horiz-adv-x="1168" 
d="M560 -28q-87 0 -174 13t-161 33.5t-123 43.5l26 202q54 -26 130.5 -54t165.5 -47t180 -19q135 0 214.5 49.5t79.5 154.5q0 79 -40 129.5t-120.5 86.5t-201.5 72q-115 34 -212 80.5t-155.5 125t-58.5 208.5q0 111 57.5 196.5t169 133.5t273.5 48q138 0 253.5 -30
t190.5 -66l-20 -202q-114 68 -217.5 97t-214.5 29q-123 0 -203.5 -46t-80.5 -150q0 -70 36 -114.5t107 -76t177 -63.5q146 -44 251 -100.5t161 -139t56 -204.5q0 -90 -34 -162t-102 -123t-170.5 -78t-239.5 -27zM536 1582v180h192v-180h-192zM490 -342v180h192v-180h-192z
" />
    <glyph glyph-name="uni1E9E" unicode="&#x1e9e;" horiz-adv-x="1230" 
d="M160 0v982q0 150 64.5 249t179.5 148t266 49q129 0 234 -33.5t178 -84.5v-152l-356 -428l-44 84q124 0 231 -41.5t173 -133.5t66 -243q0 -144 -62.5 -238t-162.5 -140t-213 -46q-54 0 -102 7.5t-98 20.5v164q86 -20 186 -20q116 0 184 66.5t68 183.5q0 132 -79 204
t-235 72h-48v152l384 468l-16 -84q-48 24 -120 43t-168 19q-145 0 -232.5 -75t-87.5 -207v-986h-190z" />
    <glyph glyph-name="uni018F" unicode="&#x18f;" horiz-adv-x="1398" 
d="M1110 684q0 267 -127 419.5t-367 152.5q-121 0 -235.5 -29.5t-222.5 -76.5l-36 160q107 51 238 84.5t278 33.5q209 0 361.5 -91t235.5 -258.5t83 -398.5q0 -145 -44 -273t-128 -226t-205.5 -153.5t-276.5 -55.5q-175 0 -311.5 69.5t-214.5 201.5t-78 321q0 30 2.5 65.5
t9.5 72.5h1126v-168h-930q0 -178 97.5 -284t304.5 -106q204 0 322 145t118 395z" />
    <glyph glyph-name="T" unicode="T" horiz-adv-x="1066" 
d="M438 0v1228h-408v172h1006v-172h-408v-1228h-190z" />
    <glyph glyph-name="Tbar" unicode="&#x166;" horiz-adv-x="1066" 
d="M438 0v1228h-408v172h1006v-172h-408v-1228h-190zM178 654v126h710v-126h-710z" />
    <glyph glyph-name="Tcaron" unicode="&#x164;" horiz-adv-x="1066" 
d="M438 0v1228h-408v172h1006v-172h-408v-1228h-190zM534 1536l-254 220v122l254 -160l254 160v-122z" />
    <glyph glyph-name="uni0162" unicode="&#x162;" horiz-adv-x="1066" 
d="M438 0v1228h-408v172h1006v-172h-408v-1228h-190zM540 -158l-66 30q24 9 47.5 14.5t50.5 5.5q81 0 127.5 -43.5t46.5 -118.5q0 -88 -61.5 -135t-150.5 -47q-51 0 -90 11.5t-66 26.5l30 98q30 -16 61 -25t65 -9q44 0 70 19.5t26 56.5q0 36 -24.5 58t-75.5 22
q-22 0 -44 -3.5t-48 -12.5l52 210h100z" />
    <glyph glyph-name="uni021A" unicode="&#x21a;" horiz-adv-x="1066" 
d="M438 0v1228h-408v172h1006v-172h-408v-1228h-190zM540 -608h-114l72 214h-70v212h216v-192z" />
    <glyph glyph-name="uni1E6C" unicode="&#x1e6c;" horiz-adv-x="1066" 
d="M438 0v1228h-408v172h1006v-172h-408v-1228h-190zM438 -342v180h192v-180h-192z" />
    <glyph glyph-name="uni1E6E" unicode="&#x1e6e;" horiz-adv-x="1066" 
d="M438 0v1228h-408v172h1006v-172h-408v-1228h-190zM214 -324v142h640v-142h-640z" />
    <glyph glyph-name="U" unicode="U" horiz-adv-x="1448" 
d="M724 -28q-197 0 -325.5 75.5t-191.5 215t-63 331.5v806h190v-754q0 -96 15 -186t55.5 -161t118 -113t201.5 -42q125 0 202 42t117.5 113.5t55.5 161.5t15 185v754h190v-806q0 -192 -63 -331.5t-191.5 -215t-325.5 -75.5z" />
    <glyph glyph-name="Uacute" unicode="&#xda;" horiz-adv-x="1448" 
d="M724 -28q-197 0 -325.5 75.5t-191.5 215t-63 331.5v806h190v-754q0 -96 15 -186t55.5 -161t118 -113t201.5 -42q125 0 202 42t117.5 113.5t55.5 161.5t15 185v754h190v-806q0 -192 -63 -331.5t-191.5 -215t-325.5 -75.5zM538 1528v116l374 190v-190z" />
    <glyph glyph-name="Ubreve" unicode="&#x16c;" horiz-adv-x="1448" 
d="M724 -28q-197 0 -325.5 75.5t-191.5 215t-63 331.5v806h190v-754q0 -96 15 -186t55.5 -161t118 -113t201.5 -42q125 0 202 42t117.5 113.5t55.5 161.5t15 185v754h190v-806q0 -192 -63 -331.5t-191.5 -215t-325.5 -75.5zM724 1528q-100 0 -164.5 34t-96 89t-31.5 117h160
q0 -58 39 -87t93 -29t93 29t39 87h160q0 -62 -31.5 -117t-96 -89t-164.5 -34z" />
    <glyph glyph-name="Ucircumflex" unicode="&#xdb;" horiz-adv-x="1448" 
d="M724 -28q-197 0 -325.5 75.5t-191.5 215t-63 331.5v806h190v-754q0 -96 15 -186t55.5 -161t118 -113t201.5 -42q125 0 202 42t117.5 113.5t55.5 161.5t15 185v754h190v-806q0 -192 -63 -331.5t-191.5 -215t-325.5 -75.5zM470 1506v122l254 180l254 -180v-122l-254 132z
" />
    <glyph glyph-name="uni0214" unicode="&#x214;" horiz-adv-x="1448" 
d="M724 -28q-197 0 -325.5 75.5t-191.5 215t-63 331.5v806h190v-754q0 -96 15 -186t55.5 -161t118 -113t201.5 -42q125 0 202 42t117.5 113.5t55.5 161.5t15 185v754h190v-806q0 -192 -63 -331.5t-191.5 -215t-325.5 -75.5zM932 1576h-132l-196 334h196zM652 1576h-132
l-206 334h196z" />
    <glyph glyph-name="Udieresis" unicode="&#xdc;" horiz-adv-x="1448" 
d="M724 -28q-197 0 -325.5 75.5t-191.5 215t-63 331.5v806h190v-754q0 -96 15 -186t55.5 -161t118 -113t201.5 -42q125 0 202 42t117.5 113.5t55.5 161.5t15 185v754h190v-806q0 -192 -63 -331.5t-191.5 -215t-325.5 -75.5zM446 1588v150h172v-150h-172zM830 1588v150h172
v-150h-172z" />
    <glyph glyph-name="uni1EE4" unicode="&#x1ee4;" horiz-adv-x="1448" 
d="M724 -28q-197 0 -325.5 75.5t-191.5 215t-63 331.5v806h190v-754q0 -96 15 -186t55.5 -161t118 -113t201.5 -42q125 0 202 42t117.5 113.5t55.5 161.5t15 185v754h190v-806q0 -192 -63 -331.5t-191.5 -215t-325.5 -75.5zM628 -342v180h192v-180h-192z" />
    <glyph glyph-name="Ugrave" unicode="&#xd9;" horiz-adv-x="1448" 
d="M724 -28q-197 0 -325.5 75.5t-191.5 215t-63 331.5v806h190v-754q0 -96 15 -186t55.5 -161t118 -113t201.5 -42q125 0 202 42t117.5 113.5t55.5 161.5t15 185v754h190v-806q0 -192 -63 -331.5t-191.5 -215t-325.5 -75.5zM910 1528l-374 116v190l374 -190v-116z" />
    <glyph glyph-name="uni1EE6" unicode="&#x1ee6;" horiz-adv-x="1448" 
d="M724 -28q-197 0 -325.5 75.5t-191.5 215t-63 331.5v806h190v-754q0 -96 15 -186t55.5 -161t118 -113t201.5 -42q125 0 202 42t117.5 113.5t55.5 161.5t15 185v754h190v-806q0 -192 -63 -331.5t-191.5 -215t-325.5 -75.5zM722 1520l-18 80q35 12 52.5 31t17.5 47
q0 33 -22 48.5t-60 15.5q-31 0 -62.5 -10.5t-63.5 -27.5l-34 102q33 18 73.5 28t86.5 10q83 0 140.5 -40t57.5 -114q0 -66 -39.5 -108t-128.5 -62z" />
    <glyph glyph-name="Uhorn" unicode="&#x1af;" horiz-adv-x="1448" 
d="M724 -28q-197 0 -325.5 75.5t-191.5 215t-63 331.5v806h190v-754q0 -96 15 -186t55.5 -161t118 -113t201.5 -42q125 0 202 42t117.5 113.5t55.5 161.5t15 185v754h190v-806q0 -192 -63 -331.5t-191.5 -215t-325.5 -75.5zM1210 1262v138q75 0 117.5 34.5t42.5 113.5h172
q0 -76 -44 -141t-119 -105t-169 -40z" />
    <glyph glyph-name="uni1EE8" unicode="&#x1ee8;" horiz-adv-x="1448" 
d="M724 -28q-197 0 -325.5 75.5t-191.5 215t-63 331.5v806h190v-754q0 -96 15 -186t55.5 -161t118 -113t201.5 -42q125 0 202 42t117.5 113.5t55.5 161.5t15 185v754h190v-806q0 -192 -63 -331.5t-191.5 -215t-325.5 -75.5zM1210 1262v138q75 0 117.5 34.5t42.5 113.5h172
q0 -76 -44 -141t-119 -105t-169 -40zM538 1528v116l374 190v-190z" />
    <glyph glyph-name="uni1EF0" unicode="&#x1ef0;" horiz-adv-x="1448" 
d="M724 -28q-197 0 -325.5 75.5t-191.5 215t-63 331.5v806h190v-754q0 -96 15 -186t55.5 -161t118 -113t201.5 -42q125 0 202 42t117.5 113.5t55.5 161.5t15 185v754h190v-806q0 -192 -63 -331.5t-191.5 -215t-325.5 -75.5zM1210 1262v138q75 0 117.5 34.5t42.5 113.5h172
q0 -76 -44 -141t-119 -105t-169 -40zM628 -342v180h192v-180h-192z" />
    <glyph glyph-name="uni1EEA" unicode="&#x1eea;" horiz-adv-x="1448" 
d="M724 -28q-197 0 -325.5 75.5t-191.5 215t-63 331.5v806h190v-754q0 -96 15 -186t55.5 -161t118 -113t201.5 -42q125 0 202 42t117.5 113.5t55.5 161.5t15 185v754h190v-806q0 -192 -63 -331.5t-191.5 -215t-325.5 -75.5zM1210 1262v138q75 0 117.5 34.5t42.5 113.5h172
q0 -76 -44 -141t-119 -105t-169 -40zM910 1528l-374 116v190l374 -190v-116z" />
    <glyph glyph-name="uni1EEC" unicode="&#x1eec;" horiz-adv-x="1448" 
d="M724 -28q-197 0 -325.5 75.5t-191.5 215t-63 331.5v806h190v-754q0 -96 15 -186t55.5 -161t118 -113t201.5 -42q125 0 202 42t117.5 113.5t55.5 161.5t15 185v754h190v-806q0 -192 -63 -331.5t-191.5 -215t-325.5 -75.5zM1210 1262v138q75 0 117.5 34.5t42.5 113.5h172
q0 -76 -44 -141t-119 -105t-169 -40zM722 1520l-18 80q35 12 52.5 31t17.5 47q0 33 -22 48.5t-60 15.5q-31 0 -62.5 -10.5t-63.5 -27.5l-34 102q33 18 73.5 28t86.5 10q83 0 140.5 -40t57.5 -114q0 -66 -39.5 -108t-128.5 -62z" />
    <glyph glyph-name="uni1EEE" unicode="&#x1eee;" horiz-adv-x="1448" 
d="M724 -28q-197 0 -325.5 75.5t-191.5 215t-63 331.5v806h190v-754q0 -96 15 -186t55.5 -161t118 -113t201.5 -42q125 0 202 42t117.5 113.5t55.5 161.5t15 185v754h190v-806q0 -192 -63 -331.5t-191.5 -215t-325.5 -75.5zM1210 1262v138q75 0 117.5 34.5t42.5 113.5h172
q0 -76 -44 -141t-119 -105t-169 -40zM890 1576q-46 0 -96.5 20.5t-98 41t-85.5 20.5q-68 0 -68 -72h-130q0 98 38.5 149t107.5 51q46 0 96.5 -20.5t98 -41t85.5 -20.5q68 0 68 72h130q0 -97 -38.5 -148.5t-107.5 -51.5z" />
    <glyph glyph-name="Uhungarumlaut" unicode="&#x170;" horiz-adv-x="1448" 
d="M724 -28q-197 0 -325.5 75.5t-191.5 215t-63 331.5v806h190v-754q0 -96 15 -186t55.5 -161t118 -113t201.5 -42q125 0 202 42t117.5 113.5t55.5 161.5t15 185v754h190v-806q0 -192 -63 -331.5t-191.5 -215t-325.5 -75.5zM516 1576l132 294h196l-196 -294h-132zM796 1576
l142 294h196l-206 -294h-132z" />
    <glyph glyph-name="uni0216" unicode="&#x216;" horiz-adv-x="1448" 
d="M724 -28q-197 0 -325.5 75.5t-191.5 215t-63 331.5v806h190v-754q0 -96 15 -186t55.5 -161t118 -113t201.5 -42q125 0 202 42t117.5 113.5t55.5 161.5t15 185v754h190v-806q0 -192 -63 -331.5t-191.5 -215t-325.5 -75.5zM724 1798q100 0 164.5 -34t96 -89t31.5 -117h-160
q0 59 -39 87.5t-93 28.5t-93 -28.5t-39 -87.5h-160q0 62 31.5 117t96 89t164.5 34z" />
    <glyph glyph-name="Umacron" unicode="&#x16a;" horiz-adv-x="1448" 
d="M724 -28q-197 0 -325.5 75.5t-191.5 215t-63 331.5v806h190v-754q0 -96 15 -186t55.5 -161t118 -113t201.5 -42q125 0 202 42t117.5 113.5t55.5 161.5t15 185v754h190v-806q0 -192 -63 -331.5t-191.5 -215t-325.5 -75.5zM404 1586v136h640v-136h-640z" />
    <glyph glyph-name="uni1E7A" unicode="&#x1e7a;" horiz-adv-x="1448" 
d="M724 -28q-197 0 -325.5 75.5t-191.5 215t-63 331.5v806h190v-754q0 -96 15 -186t55.5 -161t118 -113t201.5 -42q125 0 202 42t117.5 113.5t55.5 161.5t15 185v754h190v-806q0 -192 -63 -331.5t-191.5 -215t-325.5 -75.5zM404 1586v136h640v-136h-640zM446 1932v150h172
v-150h-172zM830 1932v150h172v-150h-172z" />
    <glyph glyph-name="Uogonek" unicode="&#x172;" horiz-adv-x="1448" 
d="M724 -28q-197 0 -325.5 75.5t-191.5 215t-63 331.5v806h190v-754q0 -96 15 -186t55.5 -161t118 -113t201.5 -42q125 0 202 42t117.5 113.5t55.5 161.5t15 185v754h190v-806q0 -192 -63 -331.5t-191.5 -215t-325.5 -75.5zM818 0h106q-70 -54 -113 -105t-43 -107
q0 -51 26.5 -76.5t69.5 -25.5q35 0 65.5 9t60.5 25l30 -98q-28 -15 -70 -26.5t-96 -11.5q-84 0 -143 44t-59 128q0 80 53 145t113 99z" />
    <glyph glyph-name="Uring" unicode="&#x16e;" horiz-adv-x="1448" 
d="M724 -28q-197 0 -325.5 75.5t-191.5 215t-63 331.5v806h190v-754q0 -96 15 -186t55.5 -161t118 -113t201.5 -42q125 0 202 42t117.5 113.5t55.5 161.5t15 185v754h190v-806q0 -192 -63 -331.5t-191.5 -215t-325.5 -75.5zM724 1512q-103 0 -155.5 60t-52.5 136
q0 75 53 135.5t155 60.5q104 0 156 -60.5t52 -135.5q0 -76 -51.5 -136t-156.5 -60zM724 1600q42 0 75 28.5t33 79.5q0 48 -32 78t-76 30q-43 0 -75.5 -30t-32.5 -78q0 -51 33 -79.5t75 -28.5z" />
    <glyph glyph-name="Utilde" unicode="&#x168;" horiz-adv-x="1448" 
d="M724 -28q-197 0 -325.5 75.5t-191.5 215t-63 331.5v806h190v-754q0 -96 15 -186t55.5 -161t118 -113t201.5 -42q125 0 202 42t117.5 113.5t55.5 161.5t15 185v754h190v-806q0 -192 -63 -331.5t-191.5 -215t-325.5 -75.5zM890 1576q-46 0 -96.5 20.5t-98 41t-85.5 20.5
q-68 0 -68 -72h-130q0 98 38.5 149t107.5 51q46 0 96.5 -20.5t98 -41t85.5 -20.5q68 0 68 72h130q0 -97 -38.5 -148.5t-107.5 -51.5z" />
    <glyph glyph-name="uni1E78" unicode="&#x1e78;" horiz-adv-x="1448" 
d="M724 -28q-197 0 -325.5 75.5t-191.5 215t-63 331.5v806h190v-754q0 -96 15 -186t55.5 -161t118 -113t201.5 -42q125 0 202 42t117.5 113.5t55.5 161.5t15 185v754h190v-806q0 -192 -63 -331.5t-191.5 -215t-325.5 -75.5zM890 1576q-46 0 -96.5 20.5t-98 41t-85.5 20.5
q-68 0 -68 -72h-130q0 98 38.5 149t107.5 51q46 0 96.5 -20.5t98 -41t85.5 -20.5q68 0 68 72h130q0 -97 -38.5 -148.5t-107.5 -51.5zM538 1880v116l374 190v-190z" />
    <glyph glyph-name="V" unicode="V" horiz-adv-x="1220" 
d="M510 0l-502 1400h200l430 -1214h-56l430 1214h200l-502 -1400h-200z" />
    <glyph glyph-name="W" unicode="W" horiz-adv-x="1892" 
d="M404 0l-396 1400h200l296 -1154l342 1126h200l342 -1126l296 1154h200l-396 -1400h-202l-340 1126l-340 -1126h-202z" />
    <glyph glyph-name="Wacute" unicode="&#x1e82;" horiz-adv-x="1892" 
d="M404 0l-396 1400h200l296 -1154l342 1126h200l342 -1126l296 1154h200l-396 -1400h-202l-340 1126l-340 -1126h-202zM766 1528v116l374 190v-190z" />
    <glyph glyph-name="Wcircumflex" unicode="&#x174;" horiz-adv-x="1892" 
d="M404 0l-396 1400h200l296 -1154l342 1126h200l342 -1126l296 1154h200l-396 -1400h-202l-340 1126l-340 -1126h-202zM698 1506v122l254 180l254 -180v-122l-254 132z" />
    <glyph glyph-name="Wdieresis" unicode="&#x1e84;" horiz-adv-x="1892" 
d="M404 0l-396 1400h200l296 -1154l342 1126h200l342 -1126l296 1154h200l-396 -1400h-202l-340 1126l-340 -1126h-202zM674 1588v150h172v-150h-172zM1058 1588v150h172v-150h-172z" />
    <glyph glyph-name="Wgrave" unicode="&#x1e80;" horiz-adv-x="1892" 
d="M404 0l-396 1400h200l296 -1154l342 1126h200l342 -1126l296 1154h200l-396 -1400h-202l-340 1126l-340 -1126h-202zM1138 1528l-374 116v190l374 -190v-116z" />
    <glyph glyph-name="X" unicode="X" horiz-adv-x="1186" 
d="M8 0l476 706l-468 694h220l358 -530l356 530h220l-466 -694l474 -706h-220l-364 542l-366 -542h-220z" />
    <glyph glyph-name="Y" unicode="Y" horiz-adv-x="1134" 
d="M472 0v606l-494 794h216l416 -680h-88l416 680h216l-492 -794v-606h-190z" />
    <glyph glyph-name="Yacute" unicode="&#xdd;" horiz-adv-x="1134" 
d="M472 0v606l-494 794h216l416 -680h-88l416 680h216l-492 -794v-606h-190zM380 1528v116l374 190v-190z" />
    <glyph glyph-name="Ycircumflex" unicode="&#x176;" horiz-adv-x="1134" 
d="M472 0v606l-494 794h216l416 -680h-88l416 680h216l-492 -794v-606h-190zM312 1506v122l254 180l254 -180v-122l-254 132z" />
    <glyph glyph-name="Ydieresis" unicode="&#x178;" horiz-adv-x="1134" 
d="M472 0v606l-494 794h216l416 -680h-88l416 680h216l-492 -794v-606h-190zM288 1588v150h172v-150h-172zM672 1588v150h172v-150h-172z" />
    <glyph glyph-name="uni1E8E" unicode="&#x1e8e;" horiz-adv-x="1134" 
d="M472 0v606l-494 794h216l416 -680h-88l416 680h216l-492 -794v-606h-190zM470 1582v180h192v-180h-192z" />
    <glyph glyph-name="uni1EF4" unicode="&#x1ef4;" horiz-adv-x="1134" 
d="M472 0v606l-494 794h216l416 -680h-88l416 680h216l-492 -794v-606h-190zM472 -342v180h192v-180h-192z" />
    <glyph glyph-name="Ygrave" unicode="&#x1ef2;" horiz-adv-x="1134" 
d="M472 0v606l-494 794h216l416 -680h-88l416 680h216l-492 -794v-606h-190zM752 1528l-374 116v190l374 -190v-116z" />
    <glyph glyph-name="uni1EF6" unicode="&#x1ef6;" horiz-adv-x="1134" 
d="M472 0v606l-494 794h216l416 -680h-88l416 680h216l-492 -794v-606h-190zM564 1520l-18 80q35 12 52.5 31t17.5 47q0 33 -22 48.5t-60 15.5q-31 0 -62.5 -10.5t-63.5 -27.5l-34 102q33 18 73.5 28t86.5 10q83 0 140.5 -40t57.5 -114q0 -66 -39.5 -108t-128.5 -62z" />
    <glyph glyph-name="uni0232" unicode="&#x232;" horiz-adv-x="1134" 
d="M472 0v606l-494 794h216l416 -680h-88l416 680h216l-492 -794v-606h-190zM246 1586v136h640v-136h-640z" />
    <glyph glyph-name="uni1EF8" unicode="&#x1ef8;" horiz-adv-x="1134" 
d="M472 0v606l-494 794h216l416 -680h-88l416 680h216l-492 -794v-606h-190zM732 1576q-46 0 -96.5 20.5t-98 41t-85.5 20.5q-68 0 -68 -72h-130q0 98 38.5 149t107.5 51q46 0 96.5 -20.5t98 -41t85.5 -20.5q68 0 68 72h130q0 -97 -38.5 -148.5t-107.5 -51.5z" />
    <glyph glyph-name="Z" unicode="Z" horiz-adv-x="1098" 
d="M18 0l802 1300l36 -72h-748v172h976l-806 -1300l-34 72h830v-172h-1056z" />
    <glyph glyph-name="Zacute" unicode="&#x179;" horiz-adv-x="1098" 
d="M18 0l802 1300l36 -72h-748v172h976l-806 -1300l-34 72h830v-172h-1056zM410 1528v116l374 190v-190z" />
    <glyph glyph-name="Zcaron" unicode="&#x17d;" horiz-adv-x="1098" 
d="M18 0l802 1300l36 -72h-748v172h976l-806 -1300l-34 72h830v-172h-1056zM342 1860v-122l254 -180l254 180v122l-254 -132z" />
    <glyph glyph-name="Zdotaccent" unicode="&#x17b;" horiz-adv-x="1098" 
d="M18 0l802 1300l36 -72h-748v172h976l-806 -1300l-34 72h830v-172h-1056zM500 1582v180h192v-180h-192z" />
    <glyph glyph-name="uni1E92" unicode="&#x1e92;" horiz-adv-x="1098" 
d="M18 0l802 1300l36 -72h-748v172h976l-806 -1300l-34 72h830v-172h-1056zM410 -342v180h192v-180h-192z" />
    <glyph glyph-name="Iacute_J.loclNLD" horiz-adv-x="1368" 
d="M342 488q11 -95 46 -173t106 -124.5t190 -46.5q112 0 181 42t105.5 113.5t50 161.5t13.5 185v754h190v-806q0 -192 -58.5 -331.5t-178.5 -215t-303 -75.5q-241 0 -373 130.5t-159 359.5zM144 646v754h190v-754h-190zM54 1528v116l374 190v-190zM940 1528v116l374 190
v-190z" />
    <glyph glyph-name="a" unicode="a" horiz-adv-x="960" 
d="M350 -20q-91 0 -159 37t-105.5 101t-37.5 146q0 83 36.5 142.5t98 99t137.5 63t157.5 34t156.5 11.5q0 140 -55 183t-159 43q-55 0 -117.5 -17t-140.5 -71l-26 146q59 45 147 73.5t185 28.5q124 0 200 -43.5t111 -146.5t35 -280v-200q0 -70 6.5 -115.5t30 -68t75.5 -22.5
h18l-28 -144h-14q-87 0 -134.5 17t-72.5 49t-45 78q-55 -64 -130 -104t-170 -40zM384 124q72 0 139.5 36t110.5 96v234q-143 -5 -231.5 -28t-129.5 -69t-41 -119q0 -79 42.5 -114.5t109.5 -35.5z" />
    <glyph glyph-name="aacute" unicode="&#xe1;" horiz-adv-x="960" 
d="M350 -20q-91 0 -159 37t-105.5 101t-37.5 146q0 83 36.5 142.5t98 99t137.5 63t157.5 34t156.5 11.5q0 140 -55 183t-159 43q-55 0 -117.5 -17t-140.5 -71l-26 146q59 45 147 73.5t185 28.5q124 0 200 -43.5t111 -146.5t35 -280v-200q0 -70 6.5 -115.5t30 -68t75.5 -22.5
h18l-28 -144h-14q-87 0 -134.5 17t-72.5 49t-45 78q-55 -64 -130 -104t-170 -40zM384 124q72 0 139.5 36t110.5 96v234q-143 -5 -231.5 -28t-129.5 -69t-41 -119q0 -79 42.5 -114.5t109.5 -35.5zM282 1152v122l374 220v-196z" />
    <glyph glyph-name="abreve" unicode="&#x103;" horiz-adv-x="960" 
d="M350 -20q-91 0 -159 37t-105.5 101t-37.5 146q0 83 36.5 142.5t98 99t137.5 63t157.5 34t156.5 11.5q0 140 -55 183t-159 43q-55 0 -117.5 -17t-140.5 -71l-26 146q59 45 147 73.5t185 28.5q124 0 200 -43.5t111 -146.5t35 -280v-200q0 -70 6.5 -115.5t30 -68t75.5 -22.5
h18l-28 -144h-14q-87 0 -134.5 17t-72.5 49t-45 78q-55 -64 -130 -104t-170 -40zM384 124q72 0 139.5 36t110.5 96v234q-143 -5 -231.5 -28t-129.5 -69t-41 -119q0 -79 42.5 -114.5t109.5 -35.5zM468 1152q-100 0 -164.5 36t-96 94t-31.5 124h160q0 -61 39 -91.5t93 -30.5
t93 30.5t39 91.5h160q0 -66 -31.5 -124t-96 -94t-164.5 -36z" />
    <glyph glyph-name="uni1EAF" unicode="&#x1eaf;" horiz-adv-x="960" 
d="M350 -20q-91 0 -159 37t-105.5 101t-37.5 146q0 83 36.5 142.5t98 99t137.5 63t157.5 34t156.5 11.5q0 140 -55 183t-159 43q-55 0 -117.5 -17t-140.5 -71l-26 146q59 45 147 73.5t185 28.5q124 0 200 -43.5t111 -146.5t35 -280v-200q0 -70 6.5 -115.5t30 -68t75.5 -22.5
h18l-28 -144h-14q-87 0 -134.5 17t-72.5 49t-45 78q-55 -64 -130 -104t-170 -40zM384 124q72 0 139.5 36t110.5 96v234q-143 -5 -231.5 -28t-129.5 -69t-41 -119q0 -79 42.5 -114.5t109.5 -35.5zM468 1108q-100 0 -164.5 34t-96 89t-31.5 117h160q0 -58 39 -87t93 -29t93 29
t39 87h160q0 -62 -31.5 -117t-96 -89t-164.5 -34zM282 1436v116l374 190v-190z" />
    <glyph glyph-name="uni1EB7" unicode="&#x1eb7;" horiz-adv-x="960" 
d="M350 -20q-91 0 -159 37t-105.5 101t-37.5 146q0 83 36.5 142.5t98 99t137.5 63t157.5 34t156.5 11.5q0 140 -55 183t-159 43q-55 0 -117.5 -17t-140.5 -71l-26 146q59 45 147 73.5t185 28.5q124 0 200 -43.5t111 -146.5t35 -280v-200q0 -70 6.5 -115.5t30 -68t75.5 -22.5
h18l-28 -144h-14q-87 0 -134.5 17t-72.5 49t-45 78q-55 -64 -130 -104t-170 -40zM384 124q72 0 139.5 36t110.5 96v234q-143 -5 -231.5 -28t-129.5 -69t-41 -119q0 -79 42.5 -114.5t109.5 -35.5zM468 1152q-100 0 -164.5 36t-96 94t-31.5 124h160q0 -61 39 -91.5t93 -30.5
t93 30.5t39 91.5h160q0 -66 -31.5 -124t-96 -94t-164.5 -36zM384 -342v180h192v-180h-192z" />
    <glyph glyph-name="uni1EB1" unicode="&#x1eb1;" horiz-adv-x="960" 
d="M350 -20q-91 0 -159 37t-105.5 101t-37.5 146q0 83 36.5 142.5t98 99t137.5 63t157.5 34t156.5 11.5q0 140 -55 183t-159 43q-55 0 -117.5 -17t-140.5 -71l-26 146q59 45 147 73.5t185 28.5q124 0 200 -43.5t111 -146.5t35 -280v-200q0 -70 6.5 -115.5t30 -68t75.5 -22.5
h18l-28 -144h-14q-87 0 -134.5 17t-72.5 49t-45 78q-55 -64 -130 -104t-170 -40zM384 124q72 0 139.5 36t110.5 96v234q-143 -5 -231.5 -28t-129.5 -69t-41 -119q0 -79 42.5 -114.5t109.5 -35.5zM468 1106q-100 0 -164.5 34t-96 89t-31.5 117h160q0 -58 39 -87t93 -29t93 29
t39 87h160q0 -62 -31.5 -117t-96 -89t-164.5 -34zM654 1434l-374 116v190l374 -190v-116z" />
    <glyph glyph-name="uni1EB3" unicode="&#x1eb3;" horiz-adv-x="960" 
d="M350 -20q-91 0 -159 37t-105.5 101t-37.5 146q0 83 36.5 142.5t98 99t137.5 63t157.5 34t156.5 11.5q0 140 -55 183t-159 43q-55 0 -117.5 -17t-140.5 -71l-26 146q59 45 147 73.5t185 28.5q124 0 200 -43.5t111 -146.5t35 -280v-200q0 -70 6.5 -115.5t30 -68t75.5 -22.5
h18l-28 -144h-14q-87 0 -134.5 17t-72.5 49t-45 78q-55 -64 -130 -104t-170 -40zM384 124q72 0 139.5 36t110.5 96v234q-143 -5 -231.5 -28t-129.5 -69t-41 -119q0 -79 42.5 -114.5t109.5 -35.5zM468 1108q-100 0 -164.5 34t-96 89t-31.5 117h160q0 -58 39 -87t93 -29t93 29
t39 87h160q0 -62 -31.5 -117t-96 -89t-164.5 -34zM486 1380l-18 80q35 12 52.5 31t17.5 47q0 33 -22 48.5t-60 15.5q-31 0 -62.5 -10.5t-63.5 -27.5l-34 102q33 18 73.5 28t86.5 10q83 0 140.5 -40t57.5 -114q0 -66 -39.5 -108t-128.5 -62z" />
    <glyph glyph-name="uni1EB5" unicode="&#x1eb5;" horiz-adv-x="960" 
d="M350 -20q-91 0 -159 37t-105.5 101t-37.5 146q0 83 36.5 142.5t98 99t137.5 63t157.5 34t156.5 11.5q0 140 -55 183t-159 43q-55 0 -117.5 -17t-140.5 -71l-26 146q59 45 147 73.5t185 28.5q124 0 200 -43.5t111 -146.5t35 -280v-200q0 -70 6.5 -115.5t30 -68t75.5 -22.5
h18l-28 -144h-14q-87 0 -134.5 17t-72.5 49t-45 78q-55 -64 -130 -104t-170 -40zM384 124q72 0 139.5 36t110.5 96v234q-143 -5 -231.5 -28t-129.5 -69t-41 -119q0 -79 42.5 -114.5t109.5 -35.5zM468 1108q-100 0 -164.5 34t-96 89t-31.5 117h160q0 -58 39 -87t93 -29t93 29
t39 87h160q0 -62 -31.5 -117t-96 -89t-164.5 -34zM634 1442q-46 0 -96.5 20.5t-98 41t-85.5 20.5q-68 0 -68 -72h-130q0 98 38.5 149t107.5 51q46 0 96.5 -20.5t98 -41t85.5 -20.5q68 0 68 72h130q0 -97 -38.5 -148.5t-107.5 -51.5z" />
    <glyph glyph-name="acircumflex" unicode="&#xe2;" horiz-adv-x="960" 
d="M350 -20q-91 0 -159 37t-105.5 101t-37.5 146q0 83 36.5 142.5t98 99t137.5 63t157.5 34t156.5 11.5q0 140 -55 183t-159 43q-55 0 -117.5 -17t-140.5 -71l-26 146q59 45 147 73.5t185 28.5q124 0 200 -43.5t111 -146.5t35 -280v-200q0 -70 6.5 -115.5t30 -68t75.5 -22.5
h18l-28 -144h-14q-87 0 -134.5 17t-72.5 49t-45 78q-55 -64 -130 -104t-170 -40zM384 124q72 0 139.5 36t110.5 96v234q-143 -5 -231.5 -28t-129.5 -69t-41 -119q0 -79 42.5 -114.5t109.5 -35.5zM214 1128v122l254 220l254 -220v-122l-254 160z" />
    <glyph glyph-name="uni1EA5" unicode="&#x1ea5;" horiz-adv-x="960" 
d="M350 -20q-91 0 -159 37t-105.5 101t-37.5 146q0 83 36.5 142.5t98 99t137.5 63t157.5 34t156.5 11.5q0 140 -55 183t-159 43q-55 0 -117.5 -17t-140.5 -71l-26 146q59 45 147 73.5t185 28.5q124 0 200 -43.5t111 -146.5t35 -280v-200q0 -70 6.5 -115.5t30 -68t75.5 -22.5
h18l-28 -144h-14q-87 0 -134.5 17t-72.5 49t-45 78q-55 -64 -130 -104t-170 -40zM384 124q72 0 139.5 36t110.5 96v234q-143 -5 -231.5 -28t-129.5 -69t-41 -119q0 -79 42.5 -114.5t109.5 -35.5zM214 1086v122l254 180l254 -180v-122l-254 132zM618 1378l132 234h196
l-196 -234h-132z" />
    <glyph glyph-name="uni1EAD" unicode="&#x1ead;" horiz-adv-x="960" 
d="M350 -20q-91 0 -159 37t-105.5 101t-37.5 146q0 83 36.5 142.5t98 99t137.5 63t157.5 34t156.5 11.5q0 140 -55 183t-159 43q-55 0 -117.5 -17t-140.5 -71l-26 146q59 45 147 73.5t185 28.5q124 0 200 -43.5t111 -146.5t35 -280v-200q0 -70 6.5 -115.5t30 -68t75.5 -22.5
h18l-28 -144h-14q-87 0 -134.5 17t-72.5 49t-45 78q-55 -64 -130 -104t-170 -40zM384 124q72 0 139.5 36t110.5 96v234q-143 -5 -231.5 -28t-129.5 -69t-41 -119q0 -79 42.5 -114.5t109.5 -35.5zM214 1128v122l254 220l254 -220v-122l-254 160zM384 -342v180h192v-180h-192z
" />
    <glyph glyph-name="uni1EA7" unicode="&#x1ea7;" horiz-adv-x="960" 
d="M350 -20q-91 0 -159 37t-105.5 101t-37.5 146q0 83 36.5 142.5t98 99t137.5 63t157.5 34t156.5 11.5q0 140 -55 183t-159 43q-55 0 -117.5 -17t-140.5 -71l-26 146q59 45 147 73.5t185 28.5q124 0 200 -43.5t111 -146.5t35 -280v-200q0 -70 6.5 -115.5t30 -68t75.5 -22.5
h18l-28 -144h-14q-87 0 -134.5 17t-72.5 49t-45 78q-55 -64 -130 -104t-170 -40zM384 124q72 0 139.5 36t110.5 96v234q-143 -5 -231.5 -28t-129.5 -69t-41 -119q0 -79 42.5 -114.5t109.5 -35.5zM214 1086v122l254 180l254 -180v-122l-254 132zM646 1378l-174 234h190
l112 -234h-128z" />
    <glyph glyph-name="uni1EA9" unicode="&#x1ea9;" horiz-adv-x="960" 
d="M350 -20q-91 0 -159 37t-105.5 101t-37.5 146q0 83 36.5 142.5t98 99t137.5 63t157.5 34t156.5 11.5q0 140 -55 183t-159 43q-55 0 -117.5 -17t-140.5 -71l-26 146q59 45 147 73.5t185 28.5q124 0 200 -43.5t111 -146.5t35 -280v-200q0 -70 6.5 -115.5t30 -68t75.5 -22.5
h18l-28 -144h-14q-87 0 -134.5 17t-72.5 49t-45 78q-55 -64 -130 -104t-170 -40zM384 124q72 0 139.5 36t110.5 96v234q-143 -5 -231.5 -28t-129.5 -69t-41 -119q0 -79 42.5 -114.5t109.5 -35.5zM214 1086v122l254 180l254 -180v-122l-254 132zM660 1324l-18 80
q35 12 52.5 31t17.5 47q0 33 -22 48.5t-60 15.5q-31 0 -62.5 -10.5t-63.5 -27.5l-34 102q33 18 73.5 28t86.5 10q83 0 140.5 -40t57.5 -114q0 -66 -39.5 -108t-128.5 -62z" />
    <glyph glyph-name="uni1EAB" unicode="&#x1eab;" horiz-adv-x="960" 
d="M350 -20q-91 0 -159 37t-105.5 101t-37.5 146q0 83 36.5 142.5t98 99t137.5 63t157.5 34t156.5 11.5q0 140 -55 183t-159 43q-55 0 -117.5 -17t-140.5 -71l-26 146q59 45 147 73.5t185 28.5q124 0 200 -43.5t111 -146.5t35 -280v-200q0 -70 6.5 -115.5t30 -68t75.5 -22.5
h18l-28 -144h-14q-87 0 -134.5 17t-72.5 49t-45 78q-55 -64 -130 -104t-170 -40zM384 124q72 0 139.5 36t110.5 96v234q-143 -5 -231.5 -28t-129.5 -69t-41 -119q0 -79 42.5 -114.5t109.5 -35.5zM214 1086v122l254 180l254 -180v-122l-254 132zM634 1470q-46 0 -96.5 20.5
t-98 41t-85.5 20.5q-68 0 -68 -72h-130q0 98 38.5 149t107.5 51q46 0 96.5 -20.5t98 -41t85.5 -20.5q68 0 68 72h130q0 -97 -38.5 -148.5t-107.5 -51.5z" />
    <glyph glyph-name="uni0201" unicode="&#x201;" horiz-adv-x="960" 
d="M350 -20q-91 0 -159 37t-105.5 101t-37.5 146q0 83 36.5 142.5t98 99t137.5 63t157.5 34t156.5 11.5q0 140 -55 183t-159 43q-55 0 -117.5 -17t-140.5 -71l-26 146q59 45 147 73.5t185 28.5q124 0 200 -43.5t111 -146.5t35 -280v-200q0 -70 6.5 -115.5t30 -68t75.5 -22.5
h18l-28 -144h-14q-87 0 -134.5 17t-72.5 49t-45 78q-55 -64 -130 -104t-170 -40zM384 124q72 0 139.5 36t110.5 96v234q-143 -5 -231.5 -28t-129.5 -69t-41 -119q0 -79 42.5 -114.5t109.5 -35.5zM676 1156h-132l-196 334h196zM396 1156h-132l-206 334h196z" />
    <glyph glyph-name="adieresis" unicode="&#xe4;" horiz-adv-x="960" 
d="M350 -20q-91 0 -159 37t-105.5 101t-37.5 146q0 83 36.5 142.5t98 99t137.5 63t157.5 34t156.5 11.5q0 140 -55 183t-159 43q-55 0 -117.5 -17t-140.5 -71l-26 146q59 45 147 73.5t185 28.5q124 0 200 -43.5t111 -146.5t35 -280v-200q0 -70 6.5 -115.5t30 -68t75.5 -22.5
h18l-28 -144h-14q-87 0 -134.5 17t-72.5 49t-45 78q-55 -64 -130 -104t-170 -40zM384 124q72 0 139.5 36t110.5 96v234q-143 -5 -231.5 -28t-129.5 -69t-41 -119q0 -79 42.5 -114.5t109.5 -35.5zM574 1182v160h172v-160h-172zM190 1182v160h172v-160h-172z" />
    <glyph glyph-name="uni1EA1" unicode="&#x1ea1;" horiz-adv-x="960" 
d="M350 -20q-91 0 -159 37t-105.5 101t-37.5 146q0 83 36.5 142.5t98 99t137.5 63t157.5 34t156.5 11.5q0 140 -55 183t-159 43q-55 0 -117.5 -17t-140.5 -71l-26 146q59 45 147 73.5t185 28.5q124 0 200 -43.5t111 -146.5t35 -280v-200q0 -70 6.5 -115.5t30 -68t75.5 -22.5
h18l-28 -144h-14q-87 0 -134.5 17t-72.5 49t-45 78q-55 -64 -130 -104t-170 -40zM384 124q72 0 139.5 36t110.5 96v234q-143 -5 -231.5 -28t-129.5 -69t-41 -119q0 -79 42.5 -114.5t109.5 -35.5zM384 -342v180h192v-180h-192z" />
    <glyph glyph-name="agrave" unicode="&#xe0;" horiz-adv-x="960" 
d="M350 -20q-91 0 -159 37t-105.5 101t-37.5 146q0 83 36.5 142.5t98 99t137.5 63t157.5 34t156.5 11.5q0 140 -55 183t-159 43q-55 0 -117.5 -17t-140.5 -71l-26 146q59 45 147 73.5t185 28.5q124 0 200 -43.5t111 -146.5t35 -280v-200q0 -70 6.5 -115.5t30 -68t75.5 -22.5
h18l-28 -144h-14q-87 0 -134.5 17t-72.5 49t-45 78q-55 -64 -130 -104t-170 -40zM384 124q72 0 139.5 36t110.5 96v234q-143 -5 -231.5 -28t-129.5 -69t-41 -119q0 -79 42.5 -114.5t109.5 -35.5zM654 1152l-374 146v196l374 -220v-122z" />
    <glyph glyph-name="uni1EA3" unicode="&#x1ea3;" horiz-adv-x="960" 
d="M350 -20q-91 0 -159 37t-105.5 101t-37.5 146q0 83 36.5 142.5t98 99t137.5 63t157.5 34t156.5 11.5q0 140 -55 183t-159 43q-55 0 -117.5 -17t-140.5 -71l-26 146q59 45 147 73.5t185 28.5q124 0 200 -43.5t111 -146.5t35 -280v-200q0 -70 6.5 -115.5t30 -68t75.5 -22.5
h18l-28 -144h-14q-87 0 -134.5 17t-72.5 49t-45 78q-55 -64 -130 -104t-170 -40zM384 124q72 0 139.5 36t110.5 96v234q-143 -5 -231.5 -28t-129.5 -69t-41 -119q0 -79 42.5 -114.5t109.5 -35.5zM498 1050l-68 66q47 47 67.5 72.5t20.5 61.5t-22 54t-60 18
q-31 0 -62.5 -10.5t-63.5 -27.5l-34 102q33 18 73.5 28t86.5 10q83 0 140.5 -43.5t57.5 -124.5q0 -63 -33.5 -108t-102.5 -98z" />
    <glyph glyph-name="uni0203" unicode="&#x203;" horiz-adv-x="960" 
d="M350 -20q-91 0 -159 37t-105.5 101t-37.5 146q0 83 36.5 142.5t98 99t137.5 63t157.5 34t156.5 11.5q0 140 -55 183t-159 43q-55 0 -117.5 -17t-140.5 -71l-26 146q59 45 147 73.5t185 28.5q124 0 200 -43.5t111 -146.5t35 -280v-200q0 -70 6.5 -115.5t30 -68t75.5 -22.5
h18l-28 -144h-14q-87 0 -134.5 17t-72.5 49t-45 78q-55 -64 -130 -104t-170 -40zM384 124q72 0 139.5 36t110.5 96v234q-143 -5 -231.5 -28t-129.5 -69t-41 -119q0 -79 42.5 -114.5t109.5 -35.5zM468 1406q100 0 164.5 -36t96 -94t31.5 -124h-160q0 62 -39 92t-93 30
t-93 -30t-39 -92h-160q0 66 31.5 124t96 94t164.5 36z" />
    <glyph glyph-name="amacron" unicode="&#x101;" horiz-adv-x="960" 
d="M350 -20q-91 0 -159 37t-105.5 101t-37.5 146q0 83 36.5 142.5t98 99t137.5 63t157.5 34t156.5 11.5q0 140 -55 183t-159 43q-55 0 -117.5 -17t-140.5 -71l-26 146q59 45 147 73.5t185 28.5q124 0 200 -43.5t111 -146.5t35 -280v-200q0 -70 6.5 -115.5t30 -68t75.5 -22.5
h18l-28 -144h-14q-87 0 -134.5 17t-72.5 49t-45 78q-55 -64 -130 -104t-170 -40zM384 124q72 0 139.5 36t110.5 96v234q-143 -5 -231.5 -28t-129.5 -69t-41 -119q0 -79 42.5 -114.5t109.5 -35.5zM148 1182v142h640v-142h-640z" />
    <glyph glyph-name="aogonek" unicode="&#x105;" horiz-adv-x="960" 
d="M350 -20q-91 0 -159 37t-105.5 101t-37.5 146q0 83 36.5 142.5t98 99t137.5 63t157.5 34t156.5 11.5q0 140 -55 183t-159 43q-55 0 -117.5 -17t-140.5 -71l-26 146q59 45 147 73.5t185 28.5q124 0 200 -43.5t111 -146.5t35 -280v-200q0 -70 6.5 -115.5t30 -68t75.5 -22.5
h18l-28 -144h-14q-87 0 -134.5 17t-72.5 49t-45 78q-55 -64 -130 -104t-170 -40zM384 124q72 0 139.5 36t110.5 96v234q-143 -5 -231.5 -28t-129.5 -69t-41 -119q0 -79 42.5 -114.5t109.5 -35.5zM792 0h106q-70 -54 -113 -105t-43 -107q0 -51 26.5 -76.5t69.5 -25.5
q35 0 65.5 9t60.5 25l30 -98q-28 -15 -70 -26.5t-96 -11.5q-84 0 -143 44t-59 128q0 80 53 145t113 99z" />
    <glyph glyph-name="aring" unicode="&#xe5;" horiz-adv-x="960" 
d="M350 -20q-91 0 -159 37t-105.5 101t-37.5 146q0 83 36.5 142.5t98 99t137.5 63t157.5 34t156.5 11.5q0 140 -55 183t-159 43q-55 0 -117.5 -17t-140.5 -71l-26 146q59 45 147 73.5t185 28.5q124 0 200 -43.5t111 -146.5t35 -280v-200q0 -70 6.5 -115.5t30 -68t75.5 -22.5
h18l-28 -144h-14q-87 0 -134.5 17t-72.5 49t-45 78q-55 -64 -130 -104t-170 -40zM384 124q72 0 139.5 36t110.5 96v234q-143 -5 -231.5 -28t-129.5 -69t-41 -119q0 -79 42.5 -114.5t109.5 -35.5zM468 1136q-103 0 -155.5 61t-52.5 139q0 77 53 138.5t155 61.5
q104 0 156 -61.5t52 -138.5q0 -78 -51.5 -139t-156.5 -61zM468 1224q44 0 78 30t34 82q0 50 -33.5 81t-78.5 31t-78.5 -31t-33.5 -81q0 -52 34.5 -82t77.5 -30z" />
    <glyph glyph-name="aringacute" unicode="&#x1fb;" horiz-adv-x="960" 
d="M350 -20q-91 0 -159 37t-105.5 101t-37.5 146q0 83 36.5 142.5t98 99t137.5 63t157.5 34t156.5 11.5q0 140 -55 183t-159 43q-55 0 -117.5 -17t-140.5 -71l-26 146q59 45 147 73.5t185 28.5q124 0 200 -43.5t111 -146.5t35 -280v-200q0 -70 6.5 -115.5t30 -68t75.5 -22.5
h18l-28 -144h-14q-87 0 -134.5 17t-72.5 49t-45 78q-55 -64 -130 -104t-170 -40zM384 124q72 0 139.5 36t110.5 96v234q-143 -5 -231.5 -28t-129.5 -69t-41 -119q0 -79 42.5 -114.5t109.5 -35.5zM468 1136q-103 0 -155.5 61t-52.5 139q0 77 53 138.5t155 61.5
q104 0 156 -61.5t52 -138.5q0 -78 -51.5 -139t-156.5 -61zM468 1224q44 0 78 30t34 82q0 50 -33.5 81t-78.5 31t-78.5 -31t-33.5 -81q0 -52 34.5 -82t77.5 -30zM282 1614v116l374 190v-190z" />
    <glyph glyph-name="atilde" unicode="&#xe3;" horiz-adv-x="960" 
d="M350 -20q-91 0 -159 37t-105.5 101t-37.5 146q0 83 36.5 142.5t98 99t137.5 63t157.5 34t156.5 11.5q0 140 -55 183t-159 43q-55 0 -117.5 -17t-140.5 -71l-26 146q59 45 147 73.5t185 28.5q124 0 200 -43.5t111 -146.5t35 -280v-200q0 -70 6.5 -115.5t30 -68t75.5 -22.5
h18l-28 -144h-14q-87 0 -134.5 17t-72.5 49t-45 78q-55 -64 -130 -104t-170 -40zM384 124q72 0 139.5 36t110.5 96v234q-143 -5 -231.5 -28t-129.5 -69t-41 -119q0 -79 42.5 -114.5t109.5 -35.5zM628 1160q-50 0 -97 23.5t-91 47t-86 23.5q-68 0 -68 -78h-150q5 108 48 165
t124 57q50 0 97 -23.5t91 -47t86 -23.5q68 0 68 78h150q-4 -108 -47.5 -165t-124.5 -57z" />
    <glyph glyph-name="ae" unicode="&#xe6;" horiz-adv-x="1560" 
d="M370 -20q-97 0 -169.5 37t-112.5 101t-40 146q0 111 61.5 180t159 106t209.5 50.5t212 13.5h624q0 96 -53.5 161t-164.5 65q-120 0 -194 -82.5t-74 -241.5q0 -142 48 -224t126 -117t168 -35q63 0 127.5 15t134.5 43l24 -142q-57 -31 -132 -53.5t-176 -22.5
q-166 0 -279.5 71t-172 188.5t-58.5 258.5v88q0 125 -46 189.5t-172 64.5q-55 0 -117.5 -17t-140.5 -71l-26 146q59 45 147 73.5t185 28.5q143 0 222.5 -58t107.5 -202l-96 -12q51 120 158 196t252 76q123 0 210 -54t132.5 -147.5t45.5 -212.5q0 -21 -1.5 -45.5t-6.5 -50.5
h-836q-228 0 -326 -53t-98 -163q0 -79 48 -114.5t124 -35.5q93 0 170.5 47.5t129.5 134.5l60 -84q-55 -103 -162 -172.5t-232 -69.5z" />
    <glyph glyph-name="aeacute" unicode="&#x1fd;" horiz-adv-x="1560" 
d="M370 -20q-97 0 -169.5 37t-112.5 101t-40 146q0 111 61.5 180t159 106t209.5 50.5t212 13.5h624q0 96 -53.5 161t-164.5 65q-120 0 -194 -82.5t-74 -241.5q0 -142 48 -224t126 -117t168 -35q63 0 127.5 15t134.5 43l24 -142q-57 -31 -132 -53.5t-176 -22.5
q-166 0 -279.5 71t-172 188.5t-58.5 258.5v88q0 125 -46 189.5t-172 64.5q-55 0 -117.5 -17t-140.5 -71l-26 146q59 45 147 73.5t185 28.5q143 0 222.5 -58t107.5 -202l-96 -12q51 120 158 196t252 76q123 0 210 -54t132.5 -147.5t45.5 -212.5q0 -21 -1.5 -45.5t-6.5 -50.5
h-836q-228 0 -326 -53t-98 -163q0 -79 48 -114.5t124 -35.5q93 0 170.5 47.5t129.5 134.5l60 -84q-55 -103 -162 -172.5t-232 -69.5zM624 1152v122l374 220v-196z" />
    <glyph glyph-name="b" unicode="b" horiz-adv-x="1110" 
d="M604 -20q-103 0 -199.5 49.5t-134.5 146.5l44 32l-34 -208h-160v1500h180v-712l-38 28q50 81 143 132.5t199 51.5q137 0 236 -71.5t152.5 -188t53.5 -250.5q0 -143 -59 -258.5t-159 -183.5t-224 -68zM582 140q86 0 149 47.5t97 127t34 175.5q0 100 -34 179t-97 125
t-149 46q-77 0 -143.5 -38.5t-107.5 -116t-41 -195.5q0 -123 41 -200t107.5 -113.5t143.5 -36.5z" />
    <glyph glyph-name="c" unicode="c" horiz-adv-x="908" 
d="M572 -20q-166 0 -278.5 67.5t-170 182t-57.5 254.5q0 146 55.5 263t170.5 185t294 68q77 0 145.5 -15.5t122.5 -42.5l-28 -158q-55 26 -116.5 41t-127.5 15q-162 0 -247 -92t-85 -256q0 -160 81 -257t247 -97q68 0 130.5 16t119.5 44l24 -144q-40 -28 -117 -51t-163 -23z
" />
    <glyph glyph-name="cacute" unicode="&#x107;" horiz-adv-x="908" 
d="M572 -20q-166 0 -278.5 67.5t-170 182t-57.5 254.5q0 146 55.5 263t170.5 185t294 68q77 0 145.5 -15.5t122.5 -42.5l-28 -158q-55 26 -116.5 41t-127.5 15q-162 0 -247 -92t-85 -256q0 -160 81 -257t247 -97q68 0 130.5 16t119.5 44l24 -144q-40 -28 -117 -51t-163 -23z
M358 1152v122l374 220v-196z" />
    <glyph glyph-name="ccaron" unicode="&#x10d;" horiz-adv-x="908" 
d="M572 -20q-166 0 -278.5 67.5t-170 182t-57.5 254.5q0 146 55.5 263t170.5 185t294 68q77 0 145.5 -15.5t122.5 -42.5l-28 -158q-55 26 -116.5 41t-127.5 15q-162 0 -247 -92t-85 -256q0 -160 81 -257t247 -97q68 0 130.5 16t119.5 44l24 -144q-40 -28 -117 -51t-163 -23z
M544 1116l-254 220v122l254 -160l254 160v-122z" />
    <glyph glyph-name="ccedilla" unicode="&#xe7;" horiz-adv-x="908" 
d="M572 -20q-166 0 -278.5 67.5t-170 182t-57.5 254.5q0 146 55.5 263t170.5 185t294 68q77 0 145.5 -15.5t122.5 -42.5l-28 -158q-55 26 -116.5 41t-127.5 15q-162 0 -247 -92t-85 -256q0 -160 81 -257t247 -97q68 0 130.5 16t119.5 44l24 -144q-40 -28 -117 -51t-163 -23z
M536 -158l-66 30q24 9 47.5 14.5t50.5 5.5q81 0 127.5 -43.5t46.5 -118.5q0 -88 -61.5 -135t-150.5 -47q-51 0 -90 11.5t-66 26.5l30 98q30 -16 61 -25t65 -9q44 0 70 19.5t26 56.5q0 36 -24.5 58t-75.5 22q-22 0 -44 -3.5t-48 -12.5l52 210h100z" />
    <glyph glyph-name="uni1E09" unicode="&#x1e09;" horiz-adv-x="908" 
d="M572 -20q-166 0 -278.5 67.5t-170 182t-57.5 254.5q0 146 55.5 263t170.5 185t294 68q77 0 145.5 -15.5t122.5 -42.5l-28 -158q-55 26 -116.5 41t-127.5 15q-162 0 -247 -92t-85 -256q0 -160 81 -257t247 -97q68 0 130.5 16t119.5 44l24 -144q-40 -28 -117 -51t-163 -23z
M536 -158l-66 30q24 9 47.5 14.5t50.5 5.5q81 0 127.5 -43.5t46.5 -118.5q0 -88 -61.5 -135t-150.5 -47q-51 0 -90 11.5t-66 26.5l30 98q30 -16 61 -25t65 -9q44 0 70 19.5t26 56.5q0 36 -24.5 58t-75.5 22q-22 0 -44 -3.5t-48 -12.5l52 210h100zM358 1152v122l374 220v-196
z" />
    <glyph glyph-name="ccircumflex" unicode="&#x109;" horiz-adv-x="908" 
d="M572 -20q-166 0 -278.5 67.5t-170 182t-57.5 254.5q0 146 55.5 263t170.5 185t294 68q77 0 145.5 -15.5t122.5 -42.5l-28 -158q-55 26 -116.5 41t-127.5 15q-162 0 -247 -92t-85 -256q0 -160 81 -257t247 -97q68 0 130.5 16t119.5 44l24 -144q-40 -28 -117 -51t-163 -23z
M290 1128v122l254 220l254 -220v-122l-254 160z" />
    <glyph glyph-name="cdotaccent" unicode="&#x10b;" horiz-adv-x="908" 
d="M572 -20q-166 0 -278.5 67.5t-170 182t-57.5 254.5q0 146 55.5 263t170.5 185t294 68q77 0 145.5 -15.5t122.5 -42.5l-28 -158q-55 26 -116.5 41t-127.5 15q-162 0 -247 -92t-85 -256q0 -160 81 -257t247 -97q68 0 130.5 16t119.5 44l24 -144q-40 -28 -117 -51t-163 -23z
M448 1182v180h192v-180h-192z" />
    <glyph glyph-name="d" unicode="d" horiz-adv-x="1110" 
d="M510 -20q-125 0 -226 68t-160.5 183t-59.5 257q0 135 54.5 252t154.5 188.5t237 71.5q98 0 189.5 -42.5t148.5 -141.5l-38 -26v710h180v-1500h-160l-34 208l46 -32q-43 -97 -135 -146.5t-197 -49.5zM542 140q68 0 134.5 35t110 111.5t43.5 201.5q0 116 -43.5 194.5
t-110 118t-134.5 39.5q-92 0 -158 -46t-101 -125.5t-35 -180.5q0 -95 35 -174t101 -126.5t158 -47.5z" />
    <glyph glyph-name="eth" unicode="&#xf0;" horiz-adv-x="1034" 
d="M498 -24q-139 0 -238 60.5t-151.5 159.5t-52.5 214q0 119 55 219.5t152 161.5t223 61q108 0 182 -43.5t104 -106.5l-18 -18q-10 141 -66 271t-157.5 224.5t-248.5 128.5l30 94q147 -14 267.5 -95.5t207.5 -208t134 -278t47 -306.5q0 -125 -35.5 -224.5t-99 -169.5
t-149 -107t-186.5 -37zM506 142q117 0 188.5 78t71.5 196q0 119 -69.5 194.5t-188.5 75.5q-84 0 -144 -37.5t-92 -98.5t-32 -130q0 -114 71.5 -196t194.5 -82zM348 998l-66 108l508 294l64 -108z" />
    <glyph glyph-name="dcaron" unicode="&#x10f;" horiz-adv-x="1242" 
d="M510 -20q-125 0 -226 68t-160.5 183t-59.5 257q0 135 54.5 252t154.5 188.5t237 71.5q98 0 189.5 -42.5t148.5 -141.5l-38 -26v710h180v-1500h-160l-34 208l46 -32q-43 -97 -135 -146.5t-197 -49.5zM542 140q68 0 134.5 35t110 111.5t43.5 201.5q0 116 -43.5 194.5
t-110 118t-134.5 39.5q-92 0 -158 -46t-101 -125.5t-35 -180.5q0 -95 35 -174t101 -126.5t158 -47.5zM1090 1166v334h188l-56 -334h-132z" />
    <glyph glyph-name="dcroat" unicode="&#x111;" horiz-adv-x="1110" 
d="M510 1174v140h632v-140h-632zM510 -20q-125 0 -226 68t-160.5 183t-59.5 257q0 135 54.5 252t154.5 188.5t237 71.5q98 0 189.5 -42.5t148.5 -141.5l-38 -26v710h180v-1500h-160l-34 208l46 -32q-43 -97 -135 -146.5t-197 -49.5zM542 140q68 0 134.5 35t110 111.5
t43.5 201.5q0 116 -43.5 194.5t-110 118t-134.5 39.5q-92 0 -158 -46t-101 -125.5t-35 -180.5q0 -95 35 -174t101 -126.5t158 -47.5z" />
    <glyph glyph-name="uni1E0D" unicode="&#x1e0d;" horiz-adv-x="1110" 
d="M510 -20q-125 0 -226 68t-160.5 183t-59.5 257q0 135 54.5 252t154.5 188.5t237 71.5q98 0 189.5 -42.5t148.5 -141.5l-38 -26v710h180v-1500h-160l-34 208l46 -32q-43 -97 -135 -146.5t-197 -49.5zM542 140q68 0 134.5 35t110 111.5t43.5 201.5q0 116 -43.5 194.5
t-110 118t-134.5 39.5q-92 0 -158 -46t-101 -125.5t-35 -180.5q0 -95 35 -174t101 -126.5t158 -47.5zM460 -342v180h192v-180h-192z" />
    <glyph glyph-name="uni1E0F" unicode="&#x1e0f;" horiz-adv-x="1110" 
d="M510 -20q-125 0 -226 68t-160.5 183t-59.5 257q0 135 54.5 252t154.5 188.5t237 71.5q98 0 189.5 -42.5t148.5 -141.5l-38 -26v710h180v-1500h-160l-34 208l46 -32q-43 -97 -135 -146.5t-197 -49.5zM542 140q68 0 134.5 35t110 111.5t43.5 201.5q0 116 -43.5 194.5
t-110 118t-134.5 39.5q-92 0 -158 -46t-101 -125.5t-35 -180.5q0 -95 35 -174t101 -126.5t158 -47.5zM236 -324v142h640v-142h-640z" />
    <glyph glyph-name="uni01C6" unicode="&#x1c6;" horiz-adv-x="2052" 
d="M510 -20q-125 0 -226 68t-160.5 183t-59.5 257q0 135 54.5 252t154.5 188.5t237 71.5q98 0 189.5 -42.5t148.5 -141.5l-38 -26v710h180v-1500h-160l-34 208l46 -32q-43 -97 -135 -146.5t-197 -49.5zM542 140q68 0 134.5 35t110 111.5t43.5 201.5q0 116 -43.5 194.5
t-110 118t-134.5 39.5q-92 0 -158 -46t-101 -125.5t-35 -180.5q0 -95 35 -174t101 -126.5t158 -47.5zM1154 0l606 912l22 -90h-596v158h816l-606 -912l-22 90h618v-158h-838zM1593 1136l-254 220v122l254 -160l254 160v-122z" />
    <glyph glyph-name="e" unicode="e" horiz-adv-x="1024" 
d="M592 -20q-173 0 -291 71t-178.5 188.5t-60.5 258.5q0 137 56.5 251t164 182.5t259.5 68.5q122 0 217.5 -48.5t150 -141t54.5 -224.5q0 -21 -1.5 -45.5t-6.5 -50.5h-710q13 -136 65 -212t131 -107t172 -31q68 0 142 14t140 44l24 -142q-57 -25 -139 -50.5t-189 -25.5z
M262 614h516q0 69 -26 120t-79 78.5t-135 27.5q-120 0 -184.5 -59.5t-91.5 -166.5z" />
    <glyph glyph-name="eacute" unicode="&#xe9;" horiz-adv-x="1024" 
d="M592 -20q-173 0 -291 71t-178.5 188.5t-60.5 258.5q0 137 56.5 251t164 182.5t259.5 68.5q122 0 217.5 -48.5t150 -141t54.5 -224.5q0 -21 -1.5 -45.5t-6.5 -50.5h-710q13 -136 65 -212t131 -107t172 -31q68 0 142 14t140 44l24 -142q-57 -25 -139 -50.5t-189 -25.5z
M262 614h516q0 69 -26 120t-79 78.5t-135 27.5q-120 0 -184.5 -59.5t-91.5 -166.5zM370 1152v122l374 220v-196z" />
    <glyph glyph-name="ebreve" unicode="&#x115;" horiz-adv-x="1024" 
d="M592 -20q-173 0 -291 71t-178.5 188.5t-60.5 258.5q0 137 56.5 251t164 182.5t259.5 68.5q122 0 217.5 -48.5t150 -141t54.5 -224.5q0 -21 -1.5 -45.5t-6.5 -50.5h-710q13 -136 65 -212t131 -107t172 -31q68 0 142 14t140 44l24 -142q-57 -25 -139 -50.5t-189 -25.5z
M262 614h516q0 69 -26 120t-79 78.5t-135 27.5q-120 0 -184.5 -59.5t-91.5 -166.5zM556 1152q-100 0 -164.5 36t-96 94t-31.5 124h160q0 -61 39 -91.5t93 -30.5t93 30.5t39 91.5h160q0 -66 -31.5 -124t-96 -94t-164.5 -36z" />
    <glyph glyph-name="ecaron" unicode="&#x11b;" horiz-adv-x="1024" 
d="M592 -20q-173 0 -291 71t-178.5 188.5t-60.5 258.5q0 137 56.5 251t164 182.5t259.5 68.5q122 0 217.5 -48.5t150 -141t54.5 -224.5q0 -21 -1.5 -45.5t-6.5 -50.5h-710q13 -136 65 -212t131 -107t172 -31q68 0 142 14t140 44l24 -142q-57 -25 -139 -50.5t-189 -25.5z
M262 614h516q0 69 -26 120t-79 78.5t-135 27.5q-120 0 -184.5 -59.5t-91.5 -166.5zM556 1116l-254 220v122l254 -160l254 160v-122z" />
    <glyph glyph-name="uni1E1D" unicode="&#x1e1d;" horiz-adv-x="1024" 
d="M592 -20q-173 0 -291 71t-178.5 188.5t-60.5 258.5q0 137 56.5 251t164 182.5t259.5 68.5q122 0 217.5 -48.5t150 -141t54.5 -224.5q0 -21 -1.5 -45.5t-6.5 -50.5h-710q13 -136 65 -212t131 -107t172 -31q68 0 142 14t140 44l24 -142q-57 -25 -139 -50.5t-189 -25.5z
M262 614h516q0 69 -26 120t-79 78.5t-135 27.5q-120 0 -184.5 -59.5t-91.5 -166.5zM518 -158l-66 30q24 9 47.5 14.5t50.5 5.5q81 0 127.5 -43.5t46.5 -118.5q0 -88 -61.5 -135t-150.5 -47q-51 0 -90 11.5t-66 26.5l30 98q30 -16 61 -25t65 -9q44 0 70 19.5t26 56.5
q0 36 -24.5 58t-75.5 22q-22 0 -44 -3.5t-48 -12.5l52 210h100zM556 1152q-100 0 -164.5 36t-96 94t-31.5 124h160q0 -61 39 -91.5t93 -30.5t93 30.5t39 91.5h160q0 -66 -31.5 -124t-96 -94t-164.5 -36z" />
    <glyph glyph-name="ecircumflex" unicode="&#xea;" horiz-adv-x="1024" 
d="M592 -20q-173 0 -291 71t-178.5 188.5t-60.5 258.5q0 137 56.5 251t164 182.5t259.5 68.5q122 0 217.5 -48.5t150 -141t54.5 -224.5q0 -21 -1.5 -45.5t-6.5 -50.5h-710q13 -136 65 -212t131 -107t172 -31q68 0 142 14t140 44l24 -142q-57 -25 -139 -50.5t-189 -25.5z
M262 614h516q0 69 -26 120t-79 78.5t-135 27.5q-120 0 -184.5 -59.5t-91.5 -166.5zM302 1128v122l254 220l254 -220v-122l-254 160z" />
    <glyph glyph-name="uni1EBF" unicode="&#x1ebf;" horiz-adv-x="1024" 
d="M592 -20q-173 0 -291 71t-178.5 188.5t-60.5 258.5q0 137 56.5 251t164 182.5t259.5 68.5q122 0 217.5 -48.5t150 -141t54.5 -224.5q0 -21 -1.5 -45.5t-6.5 -50.5h-710q13 -136 65 -212t131 -107t172 -31q68 0 142 14t140 44l24 -142q-57 -25 -139 -50.5t-189 -25.5z
M262 614h516q0 69 -26 120t-79 78.5t-135 27.5q-120 0 -184.5 -59.5t-91.5 -166.5zM302 1086v122l254 180l254 -180v-122l-254 132zM706 1378l132 234h196l-196 -234h-132z" />
    <glyph glyph-name="uni1EC7" unicode="&#x1ec7;" horiz-adv-x="1024" 
d="M592 -20q-173 0 -291 71t-178.5 188.5t-60.5 258.5q0 137 56.5 251t164 182.5t259.5 68.5q122 0 217.5 -48.5t150 -141t54.5 -224.5q0 -21 -1.5 -45.5t-6.5 -50.5h-710q13 -136 65 -212t131 -107t172 -31q68 0 142 14t140 44l24 -142q-57 -25 -139 -50.5t-189 -25.5z
M262 614h516q0 69 -26 120t-79 78.5t-135 27.5q-120 0 -184.5 -59.5t-91.5 -166.5zM302 1128v122l254 220l254 -220v-122l-254 160zM416 -342v180h192v-180h-192z" />
    <glyph glyph-name="uni1EC1" unicode="&#x1ec1;" horiz-adv-x="1024" 
d="M592 -20q-173 0 -291 71t-178.5 188.5t-60.5 258.5q0 137 56.5 251t164 182.5t259.5 68.5q122 0 217.5 -48.5t150 -141t54.5 -224.5q0 -21 -1.5 -45.5t-6.5 -50.5h-710q13 -136 65 -212t131 -107t172 -31q68 0 142 14t140 44l24 -142q-57 -25 -139 -50.5t-189 -25.5z
M262 614h516q0 69 -26 120t-79 78.5t-135 27.5q-120 0 -184.5 -59.5t-91.5 -166.5zM302 1086v122l254 180l254 -180v-122l-254 132zM734 1378l-174 234h190l112 -234h-128z" />
    <glyph glyph-name="uni1EC3" unicode="&#x1ec3;" horiz-adv-x="1024" 
d="M592 -20q-173 0 -291 71t-178.5 188.5t-60.5 258.5q0 137 56.5 251t164 182.5t259.5 68.5q122 0 217.5 -48.5t150 -141t54.5 -224.5q0 -21 -1.5 -45.5t-6.5 -50.5h-710q13 -136 65 -212t131 -107t172 -31q68 0 142 14t140 44l24 -142q-57 -25 -139 -50.5t-189 -25.5z
M262 614h516q0 69 -26 120t-79 78.5t-135 27.5q-120 0 -184.5 -59.5t-91.5 -166.5zM302 1086v122l254 180l254 -180v-122l-254 132zM748 1324l-18 80q35 12 52.5 31t17.5 47q0 33 -22 48.5t-60 15.5q-31 0 -62.5 -10.5t-63.5 -27.5l-34 102q33 18 73.5 28t86.5 10
q83 0 140.5 -40t57.5 -114q0 -66 -39.5 -108t-128.5 -62z" />
    <glyph glyph-name="uni1EC5" unicode="&#x1ec5;" horiz-adv-x="1024" 
d="M592 -20q-173 0 -291 71t-178.5 188.5t-60.5 258.5q0 137 56.5 251t164 182.5t259.5 68.5q122 0 217.5 -48.5t150 -141t54.5 -224.5q0 -21 -1.5 -45.5t-6.5 -50.5h-710q13 -136 65 -212t131 -107t172 -31q68 0 142 14t140 44l24 -142q-57 -25 -139 -50.5t-189 -25.5z
M262 614h516q0 69 -26 120t-79 78.5t-135 27.5q-120 0 -184.5 -59.5t-91.5 -166.5zM302 1086v122l254 180l254 -180v-122l-254 132zM722 1470q-46 0 -96.5 20.5t-98 41t-85.5 20.5q-68 0 -68 -72h-130q0 98 38.5 149t107.5 51q46 0 96.5 -20.5t98 -41t85.5 -20.5q68 0 68 72
h130q0 -97 -38.5 -148.5t-107.5 -51.5z" />
    <glyph glyph-name="uni0205" unicode="&#x205;" horiz-adv-x="1024" 
d="M592 -20q-173 0 -291 71t-178.5 188.5t-60.5 258.5q0 137 56.5 251t164 182.5t259.5 68.5q122 0 217.5 -48.5t150 -141t54.5 -224.5q0 -21 -1.5 -45.5t-6.5 -50.5h-710q13 -136 65 -212t131 -107t172 -31q68 0 142 14t140 44l24 -142q-57 -25 -139 -50.5t-189 -25.5z
M262 614h516q0 69 -26 120t-79 78.5t-135 27.5q-120 0 -184.5 -59.5t-91.5 -166.5zM764 1156h-132l-196 334h196zM484 1156h-132l-206 334h196z" />
    <glyph glyph-name="edieresis" unicode="&#xeb;" horiz-adv-x="1024" 
d="M592 -20q-173 0 -291 71t-178.5 188.5t-60.5 258.5q0 137 56.5 251t164 182.5t259.5 68.5q122 0 217.5 -48.5t150 -141t54.5 -224.5q0 -21 -1.5 -45.5t-6.5 -50.5h-710q13 -136 65 -212t131 -107t172 -31q68 0 142 14t140 44l24 -142q-57 -25 -139 -50.5t-189 -25.5z
M262 614h516q0 69 -26 120t-79 78.5t-135 27.5q-120 0 -184.5 -59.5t-91.5 -166.5zM662 1182v160h172v-160h-172zM278 1182v160h172v-160h-172z" />
    <glyph glyph-name="edotaccent" unicode="&#x117;" horiz-adv-x="1024" 
d="M592 -20q-173 0 -291 71t-178.5 188.5t-60.5 258.5q0 137 56.5 251t164 182.5t259.5 68.5q122 0 217.5 -48.5t150 -141t54.5 -224.5q0 -21 -1.5 -45.5t-6.5 -50.5h-710q13 -136 65 -212t131 -107t172 -31q68 0 142 14t140 44l24 -142q-57 -25 -139 -50.5t-189 -25.5z
M262 614h516q0 69 -26 120t-79 78.5t-135 27.5q-120 0 -184.5 -59.5t-91.5 -166.5zM460 1182v180h192v-180h-192z" />
    <glyph glyph-name="uni1EB9" unicode="&#x1eb9;" horiz-adv-x="1024" 
d="M592 -20q-173 0 -291 71t-178.5 188.5t-60.5 258.5q0 137 56.5 251t164 182.5t259.5 68.5q122 0 217.5 -48.5t150 -141t54.5 -224.5q0 -21 -1.5 -45.5t-6.5 -50.5h-710q13 -136 65 -212t131 -107t172 -31q68 0 142 14t140 44l24 -142q-57 -25 -139 -50.5t-189 -25.5z
M262 614h516q0 69 -26 120t-79 78.5t-135 27.5q-120 0 -184.5 -59.5t-91.5 -166.5zM416 -342v180h192v-180h-192z" />
    <glyph glyph-name="egrave" unicode="&#xe8;" horiz-adv-x="1024" 
d="M592 -20q-173 0 -291 71t-178.5 188.5t-60.5 258.5q0 137 56.5 251t164 182.5t259.5 68.5q122 0 217.5 -48.5t150 -141t54.5 -224.5q0 -21 -1.5 -45.5t-6.5 -50.5h-710q13 -136 65 -212t131 -107t172 -31q68 0 142 14t140 44l24 -142q-57 -25 -139 -50.5t-189 -25.5z
M262 614h516q0 69 -26 120t-79 78.5t-135 27.5q-120 0 -184.5 -59.5t-91.5 -166.5zM742 1152l-374 146v196l374 -220v-122z" />
    <glyph glyph-name="uni1EBB" unicode="&#x1ebb;" horiz-adv-x="1024" 
d="M592 -20q-173 0 -291 71t-178.5 188.5t-60.5 258.5q0 137 56.5 251t164 182.5t259.5 68.5q122 0 217.5 -48.5t150 -141t54.5 -224.5q0 -21 -1.5 -45.5t-6.5 -50.5h-710q13 -136 65 -212t131 -107t172 -31q68 0 142 14t140 44l24 -142q-57 -25 -139 -50.5t-189 -25.5z
M262 614h516q0 69 -26 120t-79 78.5t-135 27.5q-120 0 -184.5 -59.5t-91.5 -166.5zM586 1050l-68 66q47 47 67.5 72.5t20.5 61.5t-22 54t-60 18q-31 0 -62.5 -10.5t-63.5 -27.5l-34 102q33 18 73.5 28t86.5 10q83 0 140.5 -43.5t57.5 -124.5q0 -63 -33.5 -108t-102.5 -98z
" />
    <glyph glyph-name="uni0207" unicode="&#x207;" horiz-adv-x="1024" 
d="M592 -20q-173 0 -291 71t-178.5 188.5t-60.5 258.5q0 137 56.5 251t164 182.5t259.5 68.5q122 0 217.5 -48.5t150 -141t54.5 -224.5q0 -21 -1.5 -45.5t-6.5 -50.5h-710q13 -136 65 -212t131 -107t172 -31q68 0 142 14t140 44l24 -142q-57 -25 -139 -50.5t-189 -25.5z
M262 614h516q0 69 -26 120t-79 78.5t-135 27.5q-120 0 -184.5 -59.5t-91.5 -166.5zM556 1406q100 0 164.5 -36t96 -94t31.5 -124h-160q0 62 -39 92t-93 30t-93 -30t-39 -92h-160q0 66 31.5 124t96 94t164.5 36z" />
    <glyph glyph-name="emacron" unicode="&#x113;" horiz-adv-x="1024" 
d="M592 -20q-173 0 -291 71t-178.5 188.5t-60.5 258.5q0 137 56.5 251t164 182.5t259.5 68.5q122 0 217.5 -48.5t150 -141t54.5 -224.5q0 -21 -1.5 -45.5t-6.5 -50.5h-710q13 -136 65 -212t131 -107t172 -31q68 0 142 14t140 44l24 -142q-57 -25 -139 -50.5t-189 -25.5z
M262 614h516q0 69 -26 120t-79 78.5t-135 27.5q-120 0 -184.5 -59.5t-91.5 -166.5zM236 1182v142h640v-142h-640z" />
    <glyph glyph-name="uni1E17" unicode="&#x1e17;" horiz-adv-x="1024" 
d="M592 -20q-173 0 -291 71t-178.5 188.5t-60.5 258.5q0 137 56.5 251t164 182.5t259.5 68.5q122 0 217.5 -48.5t150 -141t54.5 -224.5q0 -21 -1.5 -45.5t-6.5 -50.5h-710q13 -136 65 -212t131 -107t172 -31q68 0 142 14t140 44l24 -142q-57 -25 -139 -50.5t-189 -25.5z
M262 614h516q0 69 -26 120t-79 78.5t-135 27.5q-120 0 -184.5 -59.5t-91.5 -166.5zM236 1166v136h640v-136h-640zM370 1452v116l374 190v-190z" />
    <glyph glyph-name="uni1E15" unicode="&#x1e15;" horiz-adv-x="1024" 
d="M592 -20q-173 0 -291 71t-178.5 188.5t-60.5 258.5q0 137 56.5 251t164 182.5t259.5 68.5q122 0 217.5 -48.5t150 -141t54.5 -224.5q0 -21 -1.5 -45.5t-6.5 -50.5h-710q13 -136 65 -212t131 -107t172 -31q68 0 142 14t140 44l24 -142q-57 -25 -139 -50.5t-189 -25.5z
M262 614h516q0 69 -26 120t-79 78.5t-135 27.5q-120 0 -184.5 -59.5t-91.5 -166.5zM236 1166v136h640v-136h-640zM742 1452l-374 116v190l374 -190v-116z" />
    <glyph glyph-name="eogonek" unicode="&#x119;" horiz-adv-x="1024" 
d="M592 -20q-173 0 -291 71t-178.5 188.5t-60.5 258.5q0 137 56.5 251t164 182.5t259.5 68.5q122 0 217.5 -48.5t150 -141t54.5 -224.5q0 -21 -1.5 -45.5t-6.5 -50.5h-710q13 -136 65 -212t131 -107t172 -31q68 0 142 14t140 44l24 -142q-57 -25 -139 -50.5t-189 -25.5z
M262 614h516q0 69 -26 120t-79 78.5t-135 27.5q-120 0 -184.5 -59.5t-91.5 -166.5zM814 56h106q-70 -54 -113 -105t-43 -107q0 -51 26.5 -76.5t69.5 -25.5q35 0 65.5 9t60.5 25l30 -98q-28 -15 -70 -26.5t-96 -11.5q-84 0 -143 44t-59 128q0 80 53 145t113 99z" />
    <glyph glyph-name="uni1EBD" unicode="&#x1ebd;" horiz-adv-x="1024" 
d="M592 -20q-173 0 -291 71t-178.5 188.5t-60.5 258.5q0 137 56.5 251t164 182.5t259.5 68.5q122 0 217.5 -48.5t150 -141t54.5 -224.5q0 -21 -1.5 -45.5t-6.5 -50.5h-710q13 -136 65 -212t131 -107t172 -31q68 0 142 14t140 44l24 -142q-57 -25 -139 -50.5t-189 -25.5z
M262 614h516q0 69 -26 120t-79 78.5t-135 27.5q-120 0 -184.5 -59.5t-91.5 -166.5zM716 1160q-50 0 -97 23.5t-91 47t-86 23.5q-68 0 -68 -78h-150q5 108 48 165t124 57q50 0 97 -23.5t91 -47t86 -23.5q68 0 68 78h150q-4 -108 -47.5 -165t-124.5 -57z" />
    <glyph glyph-name="uni0259" unicode="&#x259;" horiz-adv-x="1024" 
d="M432 1000q173 0 291 -71t178.5 -188.5t60.5 -258.5q0 -137 -56.5 -251t-164 -182.5t-259.5 -68.5q-122 0 -217.5 48.5t-150 141t-54.5 224.5q0 21 1.5 45.5t6.5 50.5h710q-13 136 -65 212t-131 107t-172 31q-68 0 -142 -14t-140 -44l-24 142q57 25 139 50.5t189 25.5z
M762 366h-516q0 -69 26 -120t79 -78.5t135 -27.5q120 0 184.5 59.5t91.5 166.5z" />
    <glyph glyph-name="f" unicode="f" horiz-adv-x="662" 
d="M190 0v840h-170l24 140h146v232q0 131 70 209.5t206 78.5q50 0 87.5 -7t68.5 -19l-28 -152q-24 9 -47 13.5t-53 4.5q-58 0 -91 -32.5t-33 -107.5v-220h264v-140h-264v-840h-180z" />
    <glyph glyph-name="g" unicode="g" horiz-adv-x="996" 
d="M518 -500q-134 0 -239.5 33t-166 98t-60.5 161q0 80 45.5 137.5t124.5 92.5q-47 23 -71.5 54.5t-24.5 69.5q0 45 27.5 81.5t88.5 60.5q-82 51 -126 137.5t-44 192.5q0 107 48 193.5t138.5 137.5t217.5 51q68 0 128.5 -20t111.5 -56q45 26 106.5 43t137.5 17h8.5h7.5
l-22 -120h-23h-23q-10 0 -46 -3t-66 -11q41 -48 63.5 -107.5t22.5 -124.5q0 -112 -48.5 -200.5t-139.5 -140t-218 -51.5q-36 0 -69 4.5t-63 13.5q-46 -15 -46 -52q0 -22 26 -38.5t84 -25.5l262 -42q159 -25 245.5 -92t86.5 -190q0 -102 -59.5 -169.5t-168.5 -101t-256 -33.5
zM534 -340q138 0 212 35.5t74 104.5q0 54 -46.5 85t-133.5 47l-279 47q-55 -24 -96 -64.5t-41 -94.5q0 -84 84.5 -122t225.5 -38zM476 370q114 0 174 68.5t60 177.5q0 105 -60 172.5t-174 67.5t-173 -67.5t-59 -172.5q0 -109 59 -177.5t173 -68.5z" />
    <glyph glyph-name="gbreve" unicode="&#x11f;" horiz-adv-x="996" 
d="M518 -500q-134 0 -239.5 33t-166 98t-60.5 161q0 80 45.5 137.5t124.5 92.5q-47 23 -71.5 54.5t-24.5 69.5q0 45 27.5 81.5t88.5 60.5q-82 51 -126 137.5t-44 192.5q0 107 48 193.5t138.5 137.5t217.5 51q68 0 128.5 -20t111.5 -56q45 26 106.5 43t137.5 17h8.5h7.5
l-22 -120h-23h-23q-10 0 -46 -3t-66 -11q41 -48 63.5 -107.5t22.5 -124.5q0 -112 -48.5 -200.5t-139.5 -140t-218 -51.5q-36 0 -69 4.5t-63 13.5q-46 -15 -46 -52q0 -22 26 -38.5t84 -25.5l262 -42q159 -25 245.5 -92t86.5 -190q0 -102 -59.5 -169.5t-168.5 -101t-256 -33.5
zM534 -340q138 0 212 35.5t74 104.5q0 54 -46.5 85t-133.5 47l-279 47q-55 -24 -96 -64.5t-41 -94.5q0 -84 84.5 -122t225.5 -38zM476 370q114 0 174 68.5t60 177.5q0 105 -60 172.5t-174 67.5t-173 -67.5t-59 -172.5q0 -109 59 -177.5t173 -68.5zM506 1152
q-100 0 -164.5 36t-96 94t-31.5 124h160q0 -61 39 -91.5t93 -30.5t93 30.5t39 91.5h160q0 -66 -31.5 -124t-96 -94t-164.5 -36z" />
    <glyph glyph-name="gcaron" unicode="&#x1e7;" horiz-adv-x="996" 
d="M518 -500q-134 0 -239.5 33t-166 98t-60.5 161q0 80 45.5 137.5t124.5 92.5q-47 23 -71.5 54.5t-24.5 69.5q0 45 27.5 81.5t88.5 60.5q-82 51 -126 137.5t-44 192.5q0 107 48 193.5t138.5 137.5t217.5 51q68 0 128.5 -20t111.5 -56q45 26 106.5 43t137.5 17h8.5h7.5
l-22 -120h-23h-23q-10 0 -46 -3t-66 -11q41 -48 63.5 -107.5t22.5 -124.5q0 -112 -48.5 -200.5t-139.5 -140t-218 -51.5q-36 0 -69 4.5t-63 13.5q-46 -15 -46 -52q0 -22 26 -38.5t84 -25.5l262 -42q159 -25 245.5 -92t86.5 -190q0 -102 -59.5 -169.5t-168.5 -101t-256 -33.5
zM534 -340q138 0 212 35.5t74 104.5q0 54 -46.5 85t-133.5 47l-279 47q-55 -24 -96 -64.5t-41 -94.5q0 -84 84.5 -122t225.5 -38zM476 370q114 0 174 68.5t60 177.5q0 105 -60 172.5t-174 67.5t-173 -67.5t-59 -172.5q0 -109 59 -177.5t173 -68.5zM506 1116l-254 220v122
l254 -160l254 160v-122z" />
    <glyph glyph-name="gcircumflex" unicode="&#x11d;" horiz-adv-x="996" 
d="M518 -500q-134 0 -239.5 33t-166 98t-60.5 161q0 80 45.5 137.5t124.5 92.5q-47 23 -71.5 54.5t-24.5 69.5q0 45 27.5 81.5t88.5 60.5q-82 51 -126 137.5t-44 192.5q0 107 48 193.5t138.5 137.5t217.5 51q68 0 128.5 -20t111.5 -56q45 26 106.5 43t137.5 17h8.5h7.5
l-22 -120h-23h-23q-10 0 -46 -3t-66 -11q41 -48 63.5 -107.5t22.5 -124.5q0 -112 -48.5 -200.5t-139.5 -140t-218 -51.5q-36 0 -69 4.5t-63 13.5q-46 -15 -46 -52q0 -22 26 -38.5t84 -25.5l262 -42q159 -25 245.5 -92t86.5 -190q0 -102 -59.5 -169.5t-168.5 -101t-256 -33.5
zM534 -340q138 0 212 35.5t74 104.5q0 54 -46.5 85t-133.5 47l-279 47q-55 -24 -96 -64.5t-41 -94.5q0 -84 84.5 -122t225.5 -38zM476 370q114 0 174 68.5t60 177.5q0 105 -60 172.5t-174 67.5t-173 -67.5t-59 -172.5q0 -109 59 -177.5t173 -68.5zM252 1128v122l254 220
l254 -220v-122l-254 160z" />
    <glyph glyph-name="uni0123" unicode="&#x123;" horiz-adv-x="996" 
d="M518 -500q-134 0 -239.5 33t-166 98t-60.5 161q0 80 45.5 137.5t124.5 92.5q-47 23 -71.5 54.5t-24.5 69.5q0 45 27.5 81.5t88.5 60.5q-82 51 -126 137.5t-44 192.5q0 107 48 193.5t138.5 137.5t217.5 51q68 0 128.5 -20t111.5 -56q45 26 106.5 43t137.5 17h8.5h7.5
l-22 -120h-23h-23q-10 0 -46 -3t-66 -11q41 -48 63.5 -107.5t22.5 -124.5q0 -112 -48.5 -200.5t-139.5 -140t-218 -51.5q-36 0 -69 4.5t-63 13.5q-46 -15 -46 -52q0 -22 26 -38.5t84 -25.5l262 -42q159 -25 245.5 -92t86.5 -190q0 -102 -59.5 -169.5t-168.5 -101t-256 -33.5
zM534 -340q138 0 212 35.5t74 104.5q0 54 -46.5 85t-133.5 47l-279 47q-55 -24 -96 -64.5t-41 -94.5q0 -84 84.5 -122t225.5 -38zM476 370q114 0 174 68.5t60 177.5q0 105 -60 172.5t-174 67.5t-173 -67.5t-59 -172.5q0 -109 59 -177.5t173 -68.5zM502 1578h114l-72 -214h70
v-212h-216v192z" />
    <glyph glyph-name="gdotaccent" unicode="&#x121;" horiz-adv-x="996" 
d="M518 -500q-134 0 -239.5 33t-166 98t-60.5 161q0 80 45.5 137.5t124.5 92.5q-47 23 -71.5 54.5t-24.5 69.5q0 45 27.5 81.5t88.5 60.5q-82 51 -126 137.5t-44 192.5q0 107 48 193.5t138.5 137.5t217.5 51q68 0 128.5 -20t111.5 -56q45 26 106.5 43t137.5 17h8.5h7.5
l-22 -120h-23h-23q-10 0 -46 -3t-66 -11q41 -48 63.5 -107.5t22.5 -124.5q0 -112 -48.5 -200.5t-139.5 -140t-218 -51.5q-36 0 -69 4.5t-63 13.5q-46 -15 -46 -52q0 -22 26 -38.5t84 -25.5l262 -42q159 -25 245.5 -92t86.5 -190q0 -102 -59.5 -169.5t-168.5 -101t-256 -33.5
zM534 -340q138 0 212 35.5t74 104.5q0 54 -46.5 85t-133.5 47l-279 47q-55 -24 -96 -64.5t-41 -94.5q0 -84 84.5 -122t225.5 -38zM476 370q114 0 174 68.5t60 177.5q0 105 -60 172.5t-174 67.5t-173 -67.5t-59 -172.5q0 -109 59 -177.5t173 -68.5zM410 1182v180h192v-180
h-192z" />
    <glyph glyph-name="uni1E21" unicode="&#x1e21;" horiz-adv-x="996" 
d="M518 -500q-134 0 -239.5 33t-166 98t-60.5 161q0 80 45.5 137.5t124.5 92.5q-47 23 -71.5 54.5t-24.5 69.5q0 45 27.5 81.5t88.5 60.5q-82 51 -126 137.5t-44 192.5q0 107 48 193.5t138.5 137.5t217.5 51q68 0 128.5 -20t111.5 -56q45 26 106.5 43t137.5 17h8.5h7.5
l-22 -120h-23h-23q-10 0 -46 -3t-66 -11q41 -48 63.5 -107.5t22.5 -124.5q0 -112 -48.5 -200.5t-139.5 -140t-218 -51.5q-36 0 -69 4.5t-63 13.5q-46 -15 -46 -52q0 -22 26 -38.5t84 -25.5l262 -42q159 -25 245.5 -92t86.5 -190q0 -102 -59.5 -169.5t-168.5 -101t-256 -33.5
zM534 -340q138 0 212 35.5t74 104.5q0 54 -46.5 85t-133.5 47l-279 47q-55 -24 -96 -64.5t-41 -94.5q0 -84 84.5 -122t225.5 -38zM476 370q114 0 174 68.5t60 177.5q0 105 -60 172.5t-174 67.5t-173 -67.5t-59 -172.5q0 -109 59 -177.5t173 -68.5zM186 1182v142h640v-142
h-640z" />
    <glyph glyph-name="h" unicode="h" horiz-adv-x="1084" 
d="M120 0v1500h182v-690l-64 4q69 87 148.5 136.5t203.5 49.5q127 0 212 -57t127.5 -159t42.5 -238v-546h-180v524q0 162 -59.5 239t-182.5 77q-93 0 -164.5 -50t-113.5 -134l30 110v-766h-182z" />
    <glyph glyph-name="hbar" unicode="&#x127;" horiz-adv-x="1084" 
d="M120 0v1500h182v-674h-34q57 90 137.5 132t198.5 42q134 0 215 -60.5t117 -167.5t36 -248v-524h-180v524q0 174 -51.5 245t-182.5 71q-106 0 -174 -44t-112 -140l30 132v-788h-182zM-32 1174v140h634v-140h-634z" />
    <glyph glyph-name="uni1E2B" unicode="&#x1e2b;" horiz-adv-x="1084" 
d="M120 0v1500h182v-690l-64 4q69 87 148.5 136.5t203.5 49.5q127 0 212 -57t127.5 -159t42.5 -238v-546h-180v524q0 162 -59.5 239t-182.5 77q-93 0 -164.5 -50t-113.5 -134l30 110v-766h-182zM548 -436q-100 0 -164.5 36t-96 94t-31.5 124h160q0 -61 39 -91.5t93 -30.5
t93 30.5t39 91.5h160q0 -66 -31.5 -124t-96 -94t-164.5 -36z" />
    <glyph glyph-name="hcircumflex" unicode="&#x125;" horiz-adv-x="1084" 
d="M120 0v1500h182v-690l-64 4q69 87 148.5 136.5t203.5 49.5q127 0 212 -57t127.5 -159t42.5 -238v-546h-180v524q0 162 -59.5 239t-182.5 77q-93 0 -164.5 -50t-113.5 -134l30 110v-766h-182zM-42 1566v122l254 180l254 -180v-122l-254 132z" />
    <glyph glyph-name="uni1E25" unicode="&#x1e25;" horiz-adv-x="1084" 
d="M120 0v1500h182v-690l-64 4q69 87 148.5 136.5t203.5 49.5q127 0 212 -57t127.5 -159t42.5 -238v-546h-180v524q0 162 -59.5 239t-182.5 77q-93 0 -164.5 -50t-113.5 -134l30 110v-766h-182zM452 -342v180h192v-180h-192z" />
    <glyph glyph-name="i" unicode="i" horiz-adv-x="424" 
d="M122 0v980h180v-980h-180zM122 1200v200h180v-200h-180z" />
    <glyph glyph-name="dotlessi" unicode="&#x131;" horiz-adv-x="424" 
d="M122 0v980h180v-980h-180z" />
    <glyph glyph-name="iacute" unicode="&#xed;" horiz-adv-x="424" 
d="M122 0v980h180v-980h-180zM26 1152v122l374 220v-196z" />
    <glyph glyph-name="ibreve" unicode="&#x12d;" horiz-adv-x="424" 
d="M122 0v980h180v-980h-180zM212 1152q-100 0 -164.5 36t-96 94t-31.5 124h160q0 -61 39 -91.5t93 -30.5t93 30.5t39 91.5h160q0 -66 -31.5 -124t-96 -94t-164.5 -36z" />
    <glyph glyph-name="icircumflex" unicode="&#xee;" horiz-adv-x="424" 
d="M122 0v980h180v-980h-180zM-42 1128v122l254 220l254 -220v-122l-254 160z" />
    <glyph glyph-name="uni0209" unicode="&#x209;" horiz-adv-x="424" 
d="M122 0v980h180v-980h-180zM420 1156h-132l-196 334h196zM140 1156h-132l-206 334h196z" />
    <glyph glyph-name="idieresis" unicode="&#xef;" horiz-adv-x="424" 
d="M122 0v980h180v-980h-180zM318 1182v160h172v-160h-172zM-66 1182v160h172v-160h-172z" />
    <glyph glyph-name="uni1E2F" unicode="&#x1e2f;" horiz-adv-x="424" 
d="M122 0v980h180v-980h-180zM-66 1168v150h172v-150h-172zM318 1168v150h172v-150h-172zM26 1428v116l374 190v-190z" />
    <glyph glyph-name="i.loclTRK" horiz-adv-x="424" 
d="M122 0v980h180v-980h-180zM116 1182v180h192v-180h-192z" />
    <glyph glyph-name="uni1ECB" unicode="&#x1ecb;" horiz-adv-x="424" 
d="M122 0v980h180v-980h-180zM122 1200v200h180v-200h-180zM116 -342v180h192v-180h-192z" />
    <glyph glyph-name="igrave" unicode="&#xec;" horiz-adv-x="424" 
d="M122 0v980h180v-980h-180zM398 1152l-374 146v196l374 -220v-122z" />
    <glyph glyph-name="uni1EC9" unicode="&#x1ec9;" horiz-adv-x="424" 
d="M122 0v980h180v-980h-180zM242 1050l-68 66q47 47 67.5 72.5t20.5 61.5t-22 54t-60 18q-31 0 -62.5 -10.5t-63.5 -27.5l-34 102q33 18 73.5 28t86.5 10q83 0 140.5 -43.5t57.5 -124.5q0 -63 -33.5 -108t-102.5 -98z" />
    <glyph glyph-name="uni020B" unicode="&#x20b;" horiz-adv-x="424" 
d="M122 0v980h180v-980h-180zM212 1406q100 0 164.5 -36t96 -94t31.5 -124h-160q0 62 -39 92t-93 30t-93 -30t-39 -92h-160q0 66 31.5 124t96 94t164.5 36z" />
    <glyph glyph-name="ij" unicode="&#x133;" horiz-adv-x="848" 
d="M122 0v980h180v-980h-180zM122 1200v200h180v-200h-180zM420 -484l-20 138q59 6 90.5 22.5t43.5 57.5t12 120v1126h180v-1194q0 -94 -40.5 -148t-97.5 -79t-108 -33zM546 1200v200h180v-200h-180z" />
    <glyph glyph-name="imacron" unicode="&#x12b;" horiz-adv-x="424" 
d="M122 0v980h180v-980h-180zM-108 1182v142h640v-142h-640z" />
    <glyph glyph-name="iogonek" unicode="&#x12f;" horiz-adv-x="424" 
d="M122 0v980h180v-980h-180zM122 1200v200h180v-200h-180zM196 0h106q-70 -54 -113 -105t-43 -107q0 -51 26.5 -76.5t69.5 -25.5q35 0 65.5 9t60.5 25l30 -98q-28 -15 -70 -26.5t-96 -11.5q-84 0 -143 44t-59 128q0 80 53 145t113 99z" />
    <glyph glyph-name="itilde" unicode="&#x129;" horiz-adv-x="424" 
d="M122 0v980h180v-980h-180zM372 1160q-50 0 -97 23.5t-91 47t-86 23.5q-68 0 -68 -78h-150q5 108 48 165t124 57q50 0 97 -23.5t91 -47t86 -23.5q68 0 68 78h150q-4 -108 -47.5 -165t-124.5 -57z" />
    <glyph glyph-name="j" unicode="j" horiz-adv-x="424" 
d="M-4 -484l-20 138q59 6 90.5 22.5t43.5 57.5t12 120v1126h180v-1194q0 -94 -40.5 -148t-97.5 -79t-108 -33zM122 1200v200h180v-200h-180z" />
    <glyph glyph-name="uni0237" unicode="&#x237;" horiz-adv-x="424" 
d="M-4 -484l-20 138q59 6 90.5 22.5t43.5 57.5t12 120v1126h180v-1194q0 -94 -40.5 -148t-97.5 -79t-108 -33z" />
    <glyph glyph-name="jcircumflex" unicode="&#x135;" horiz-adv-x="424" 
d="M-4 -484l-20 138q59 6 90.5 22.5t43.5 57.5t12 120v1126h180v-1194q0 -94 -40.5 -148t-97.5 -79t-108 -33zM-42 1128v122l254 220l254 -220v-122l-254 160z" />
    <glyph glyph-name="k" unicode="k" horiz-adv-x="896" 
d="M120 0v1500h180v-962l360 442h220l-390 -456l400 -524h-220l-370 498v-498h-180z" />
    <glyph glyph-name="uni0137" unicode="&#x137;" horiz-adv-x="896" 
d="M120 0v1500h180v-962l360 442h220l-390 -456l400 -524h-220l-370 498v-498h-180zM492 -608h-114l72 214h-70v212h216v-192z" />
    <glyph glyph-name="kgreenlandic" unicode="&#x138;" horiz-adv-x="1004" 
d="M122 0v980h180v-456l460 456h220l-504 -472l514 -508h-220l-470 484v-484h-180z" />
    <glyph glyph-name="l" unicode="l" horiz-adv-x="472" 
d="M374 -20q-95 0 -150.5 34.5t-79.5 88.5t-24 113v1284h180v-1180q0 -84 11 -126t44.5 -56t102.5 -14l-26 -144h-58z" />
    <glyph glyph-name="lacute" unicode="&#x13a;" horiz-adv-x="472" 
d="M374 -20q-95 0 -150.5 34.5t-79.5 88.5t-24 113v1284h180v-1180q0 -84 11 -126t44.5 -56t102.5 -14l-26 -144h-58zM24 1628v116l374 190v-190z" />
    <glyph glyph-name="lcaron" unicode="&#x13e;" horiz-adv-x="556" 
d="M374 -20q-95 0 -150.5 34.5t-79.5 88.5t-24 113v1284h180v-1180q0 -84 11 -126t44.5 -56t102.5 -14l-26 -144h-58zM400 1166v334h188l-56 -334h-132z" />
    <glyph glyph-name="uni013C" unicode="&#x13c;" horiz-adv-x="472" 
d="M374 -20q-95 0 -150.5 34.5t-79.5 88.5t-24 113v1284h180v-1180q0 -84 11 -126t44.5 -56t102.5 -14l-26 -144h-58zM306 -608h-114l72 214h-70v212h216v-192z" />
    <glyph glyph-name="ldot" unicode="&#x140;" horiz-adv-x="562" 
d="M374 -20q-95 0 -150.5 34.5t-79.5 88.5t-24 113v1284h180v-1180q0 -84 11 -126t44.5 -56t102.5 -14l-26 -144h-58zM402 740v180h180v-180h-180z" />
    <glyph glyph-name="uni1E37" unicode="&#x1e37;" horiz-adv-x="472" 
d="M374 -20q-95 0 -150.5 34.5t-79.5 88.5t-24 113v1284h180v-1180q0 -84 11 -126t44.5 -56t102.5 -14l-26 -144h-58zM204 -342v180h192v-180h-192z" />
    <glyph glyph-name="uni01C9" unicode="&#x1c9;" horiz-adv-x="896" 
d="M374 -20q-95 0 -150.5 34.5t-79.5 88.5t-24 113v1284h180v-1180q0 -84 11 -126t44.5 -56t102.5 -14l-26 -144h-58zM468 -484l-20 138q59 6 90.5 22.5t43.5 57.5t12 120v1126h180v-1194q0 -94 -40.5 -148t-97.5 -79t-108 -33zM594 1200v200h180v-200h-180z" />
    <glyph glyph-name="uni1E3B" unicode="&#x1e3b;" horiz-adv-x="472" 
d="M374 -20q-95 0 -150.5 34.5t-79.5 88.5t-24 113v1284h180v-1180q0 -84 11 -126t44.5 -56t102.5 -14l-26 -144h-58zM-20 -324v142h640v-142h-640z" />
    <glyph glyph-name="lslash" unicode="&#x142;" horiz-adv-x="472" 
d="M374 -20q-95 0 -150.5 34.5t-79.5 88.5t-24 113v1284h180v-1180q0 -84 11 -126t44.5 -56t102.5 -14l-26 -144h-58zM-20 792v136l480 128v-136z" />
    <glyph glyph-name="m" unicode="m" horiz-adv-x="1754" 
d="M122 0v980h140l36 -188l-68 32q92 99 179 137.5t183 38.5q72 0 138.5 -23.5t120 -82t85.5 -162.5l-50 22q44 114 135 180t245 66q123 0 207 -45.5t126.5 -139t42.5 -237.5v-578h-180v576q0 138 -54 201t-176 63q-86 0 -138 -26.5t-78.5 -68.5t-35 -89t-8.5 -88v-568h-180
v540q0 120 -29 185t-81 90t-120 25q-99 0 -177 -43.5t-105 -138.5l22 98v-756h-180z" />
    <glyph glyph-name="uni1E43" unicode="&#x1e43;" horiz-adv-x="1754" 
d="M122 0v980h140l36 -188l-68 32q92 99 179 137.5t183 38.5q72 0 138.5 -23.5t120 -82t85.5 -162.5l-50 22q44 114 135 180t245 66q123 0 207 -45.5t126.5 -139t42.5 -237.5v-578h-180v576q0 138 -54 201t-176 63q-86 0 -138 -26.5t-78.5 -68.5t-35 -89t-8.5 -88v-568h-180
v540q0 120 -29 185t-81 90t-120 25q-99 0 -177 -43.5t-105 -138.5l22 98v-756h-180zM786 -342v180h192v-180h-192z" />
    <glyph glyph-name="n" unicode="n" horiz-adv-x="1118" 
d="M122 0v980h140l36 -188l-70 30q99 110 193.5 144t184.5 34q215 0 307.5 -124t92.5 -336v-540h-180v540q0 156 -58 228t-198 72q-99 0 -181.5 -43.5t-108.5 -138.5l22 110v-768h-180z" />
    <glyph glyph-name="nacute" unicode="&#x144;" horiz-adv-x="1118" 
d="M122 0v980h140l36 -188l-70 30q99 110 193.5 144t184.5 34q215 0 307.5 -124t92.5 -336v-540h-180v540q0 156 -58 228t-198 72q-99 0 -181.5 -43.5t-108.5 -138.5l22 110v-768h-180zM402 1152v122l374 220v-196z" />
    <glyph glyph-name="napostrophe" unicode="&#x149;" horiz-adv-x="1390" 
d="M222 974h-114l72 214h-70v212h216v-192zM394 0v980h140l36 -188l-70 30q99 110 193.5 144t184.5 34q215 0 307.5 -124t92.5 -336v-540h-180v540q0 156 -58 228t-198 72q-99 0 -181.5 -43.5t-108.5 -138.5l22 110v-768h-180z" />
    <glyph glyph-name="ncaron" unicode="&#x148;" horiz-adv-x="1118" 
d="M122 0v980h140l36 -188l-70 30q99 110 193.5 144t184.5 34q215 0 307.5 -124t92.5 -336v-540h-180v540q0 156 -58 228t-198 72q-99 0 -181.5 -43.5t-108.5 -138.5l22 110v-768h-180zM588 1116l-254 220v122l254 -160l254 160v-122z" />
    <glyph glyph-name="uni0146" unicode="&#x146;" horiz-adv-x="1118" 
d="M122 0v980h140l36 -188l-70 30q99 110 193.5 144t184.5 34q215 0 307.5 -124t92.5 -336v-540h-180v540q0 156 -58 228t-198 72q-99 0 -181.5 -43.5t-108.5 -138.5l22 110v-768h-180zM570 -608h-114l72 214h-70v212h216v-192z" />
    <glyph glyph-name="uni1E45" unicode="&#x1e45;" horiz-adv-x="1118" 
d="M122 0v980h140l36 -188l-70 30q99 110 193.5 144t184.5 34q215 0 307.5 -124t92.5 -336v-540h-180v540q0 156 -58 228t-198 72q-99 0 -181.5 -43.5t-108.5 -138.5l22 110v-768h-180zM492 1182v180h192v-180h-192z" />
    <glyph glyph-name="uni1E47" unicode="&#x1e47;" horiz-adv-x="1118" 
d="M122 0v980h140l36 -188l-70 30q99 110 193.5 144t184.5 34q215 0 307.5 -124t92.5 -336v-540h-180v540q0 156 -58 228t-198 72q-99 0 -181.5 -43.5t-108.5 -138.5l22 110v-768h-180zM468 -342v180h192v-180h-192z" />
    <glyph glyph-name="eng" unicode="&#x14b;" horiz-adv-x="1118" 
d="M1006 48q0 -137 -52.5 -227t-144 -134.5t-209.5 -44.5q-42 0 -83 6t-79 16l26 156q72 -18 148 -18q96 0 155 56t59 170v512q0 156 -58 228t-198 72q-84 0 -157 -31t-111 -97v-712h-180v980h140l20 -104q84 75 165 99.5t159 24.5q215 0 307.5 -124t92.5 -336v-492z" />
    <glyph glyph-name="uni01CC" unicode="&#x1cc;" horiz-adv-x="1542" 
d="M122 0v980h140l36 -188l-70 30q99 110 193.5 144t184.5 34q215 0 307.5 -124t92.5 -336v-540h-180v540q0 156 -58 228t-198 72q-99 0 -181.5 -43.5t-108.5 -138.5l22 110v-768h-180zM1114 -484l-20 138q59 6 90.5 22.5t43.5 57.5t12 120v1126h180v-1194q0 -94 -40.5 -148
t-97.5 -79t-108 -33zM1240 1200v200h180v-200h-180z" />
    <glyph glyph-name="uni1E49" unicode="&#x1e49;" horiz-adv-x="1118" 
d="M122 0v980h140l36 -188l-70 30q99 110 193.5 144t184.5 34q215 0 307.5 -124t92.5 -336v-540h-180v540q0 156 -58 228t-198 72q-99 0 -181.5 -43.5t-108.5 -138.5l22 110v-768h-180zM244 -324v142h640v-142h-640z" />
    <glyph glyph-name="ntilde" unicode="&#xf1;" horiz-adv-x="1118" 
d="M122 0v980h140l36 -188l-70 30q99 110 193.5 144t184.5 34q215 0 307.5 -124t92.5 -336v-540h-180v540q0 156 -58 228t-198 72q-99 0 -181.5 -43.5t-108.5 -138.5l22 110v-768h-180zM748 1160q-50 0 -97 23.5t-91 47t-86 23.5q-68 0 -68 -78h-150q5 108 48 165t124 57
q50 0 97 -23.5t91 -47t86 -23.5q68 0 68 78h150q-4 -108 -47.5 -165t-124.5 -57z" />
    <glyph glyph-name="o" unicode="o" horiz-adv-x="1100" 
d="M550 -20q-154 0 -262.5 68.5t-166 184t-57.5 257.5t57.5 257.5t166 184t262.5 68.5q153 0 262 -68.5t166.5 -184t57.5 -257.5t-57.5 -257.5t-166.5 -184t-262 -68.5zM550 140q146 0 224 92.5t78 257.5t-78 257.5t-224 92.5q-145 0 -223.5 -92.5t-78.5 -257.5t78.5 -257.5
t223.5 -92.5z" />
    <glyph glyph-name="oacute" unicode="&#xf3;" horiz-adv-x="1100" 
d="M550 -20q-154 0 -262.5 68.5t-166 184t-57.5 257.5t57.5 257.5t166 184t262.5 68.5q153 0 262 -68.5t166.5 -184t57.5 -257.5t-57.5 -257.5t-166.5 -184t-262 -68.5zM550 140q146 0 224 92.5t78 257.5t-78 257.5t-224 92.5q-145 0 -223.5 -92.5t-78.5 -257.5t78.5 -257.5
t223.5 -92.5zM364 1152v122l374 220v-196z" />
    <glyph glyph-name="obreve" unicode="&#x14f;" horiz-adv-x="1100" 
d="M550 -20q-154 0 -262.5 68.5t-166 184t-57.5 257.5t57.5 257.5t166 184t262.5 68.5q153 0 262 -68.5t166.5 -184t57.5 -257.5t-57.5 -257.5t-166.5 -184t-262 -68.5zM550 140q146 0 224 92.5t78 257.5t-78 257.5t-224 92.5q-145 0 -223.5 -92.5t-78.5 -257.5t78.5 -257.5
t223.5 -92.5zM550 1152q-100 0 -164.5 36t-96 94t-31.5 124h160q0 -61 39 -91.5t93 -30.5t93 30.5t39 91.5h160q0 -66 -31.5 -124t-96 -94t-164.5 -36z" />
    <glyph glyph-name="ocircumflex" unicode="&#xf4;" horiz-adv-x="1100" 
d="M550 -20q-154 0 -262.5 68.5t-166 184t-57.5 257.5t57.5 257.5t166 184t262.5 68.5q153 0 262 -68.5t166.5 -184t57.5 -257.5t-57.5 -257.5t-166.5 -184t-262 -68.5zM550 140q146 0 224 92.5t78 257.5t-78 257.5t-224 92.5q-145 0 -223.5 -92.5t-78.5 -257.5t78.5 -257.5
t223.5 -92.5zM296 1128v122l254 220l254 -220v-122l-254 160z" />
    <glyph glyph-name="uni1ED1" unicode="&#x1ed1;" horiz-adv-x="1100" 
d="M550 -20q-154 0 -262.5 68.5t-166 184t-57.5 257.5t57.5 257.5t166 184t262.5 68.5q153 0 262 -68.5t166.5 -184t57.5 -257.5t-57.5 -257.5t-166.5 -184t-262 -68.5zM550 140q146 0 224 92.5t78 257.5t-78 257.5t-224 92.5q-145 0 -223.5 -92.5t-78.5 -257.5t78.5 -257.5
t223.5 -92.5zM296 1086v122l254 180l254 -180v-122l-254 132zM700 1378l132 234h196l-196 -234h-132z" />
    <glyph glyph-name="uni1ED9" unicode="&#x1ed9;" horiz-adv-x="1100" 
d="M550 -20q-154 0 -262.5 68.5t-166 184t-57.5 257.5t57.5 257.5t166 184t262.5 68.5q153 0 262 -68.5t166.5 -184t57.5 -257.5t-57.5 -257.5t-166.5 -184t-262 -68.5zM550 140q146 0 224 92.5t78 257.5t-78 257.5t-224 92.5q-145 0 -223.5 -92.5t-78.5 -257.5t78.5 -257.5
t223.5 -92.5zM296 1128v122l254 220l254 -220v-122l-254 160zM454 -342v180h192v-180h-192z" />
    <glyph glyph-name="uni1ED3" unicode="&#x1ed3;" horiz-adv-x="1100" 
d="M550 -20q-154 0 -262.5 68.5t-166 184t-57.5 257.5t57.5 257.5t166 184t262.5 68.5q153 0 262 -68.5t166.5 -184t57.5 -257.5t-57.5 -257.5t-166.5 -184t-262 -68.5zM550 140q146 0 224 92.5t78 257.5t-78 257.5t-224 92.5q-145 0 -223.5 -92.5t-78.5 -257.5t78.5 -257.5
t223.5 -92.5zM296 1086v122l254 180l254 -180v-122l-254 132zM728 1378l-174 234h190l112 -234h-128z" />
    <glyph glyph-name="uni1ED5" unicode="&#x1ed5;" horiz-adv-x="1100" 
d="M550 -20q-154 0 -262.5 68.5t-166 184t-57.5 257.5t57.5 257.5t166 184t262.5 68.5q153 0 262 -68.5t166.5 -184t57.5 -257.5t-57.5 -257.5t-166.5 -184t-262 -68.5zM550 140q146 0 224 92.5t78 257.5t-78 257.5t-224 92.5q-145 0 -223.5 -92.5t-78.5 -257.5t78.5 -257.5
t223.5 -92.5zM296 1086v122l254 180l254 -180v-122l-254 132zM742 1324l-18 80q35 12 52.5 31t17.5 47q0 33 -22 48.5t-60 15.5q-31 0 -62.5 -10.5t-63.5 -27.5l-34 102q33 18 73.5 28t86.5 10q83 0 140.5 -40t57.5 -114q0 -66 -39.5 -108t-128.5 -62z" />
    <glyph glyph-name="uni1ED7" unicode="&#x1ed7;" horiz-adv-x="1100" 
d="M550 -20q-154 0 -262.5 68.5t-166 184t-57.5 257.5t57.5 257.5t166 184t262.5 68.5q153 0 262 -68.5t166.5 -184t57.5 -257.5t-57.5 -257.5t-166.5 -184t-262 -68.5zM550 140q146 0 224 92.5t78 257.5t-78 257.5t-224 92.5q-145 0 -223.5 -92.5t-78.5 -257.5t78.5 -257.5
t223.5 -92.5zM296 1086v122l254 180l254 -180v-122l-254 132zM716 1470q-46 0 -96.5 20.5t-98 41t-85.5 20.5q-68 0 -68 -72h-130q0 98 38.5 149t107.5 51q46 0 96.5 -20.5t98 -41t85.5 -20.5q68 0 68 72h130q0 -97 -38.5 -148.5t-107.5 -51.5z" />
    <glyph glyph-name="uni020D" unicode="&#x20d;" horiz-adv-x="1100" 
d="M550 -20q-154 0 -262.5 68.5t-166 184t-57.5 257.5t57.5 257.5t166 184t262.5 68.5q153 0 262 -68.5t166.5 -184t57.5 -257.5t-57.5 -257.5t-166.5 -184t-262 -68.5zM550 140q146 0 224 92.5t78 257.5t-78 257.5t-224 92.5q-145 0 -223.5 -92.5t-78.5 -257.5t78.5 -257.5
t223.5 -92.5zM758 1156h-132l-196 334h196zM478 1156h-132l-206 334h196z" />
    <glyph glyph-name="odieresis" unicode="&#xf6;" horiz-adv-x="1100" 
d="M550 -20q-154 0 -262.5 68.5t-166 184t-57.5 257.5t57.5 257.5t166 184t262.5 68.5q153 0 262 -68.5t166.5 -184t57.5 -257.5t-57.5 -257.5t-166.5 -184t-262 -68.5zM550 140q146 0 224 92.5t78 257.5t-78 257.5t-224 92.5q-145 0 -223.5 -92.5t-78.5 -257.5t78.5 -257.5
t223.5 -92.5zM656 1182v160h172v-160h-172zM272 1182v160h172v-160h-172z" />
    <glyph glyph-name="uni022B" unicode="&#x22b;" horiz-adv-x="1100" 
d="M550 -20q-154 0 -262.5 68.5t-166 184t-57.5 257.5t57.5 257.5t166 184t262.5 68.5q153 0 262 -68.5t166.5 -184t57.5 -257.5t-57.5 -257.5t-166.5 -184t-262 -68.5zM550 140q146 0 224 92.5t78 257.5t-78 257.5t-224 92.5q-145 0 -223.5 -92.5t-78.5 -257.5t78.5 -257.5
t223.5 -92.5zM272 1168v150h172v-150h-172zM656 1168v150h172v-150h-172zM230 1486v136h640v-136h-640z" />
    <glyph glyph-name="uni0231" unicode="&#x231;" horiz-adv-x="1100" 
d="M550 -20q-154 0 -262.5 68.5t-166 184t-57.5 257.5t57.5 257.5t166 184t262.5 68.5q153 0 262 -68.5t166.5 -184t57.5 -257.5t-57.5 -257.5t-166.5 -184t-262 -68.5zM550 140q146 0 224 92.5t78 257.5t-78 257.5t-224 92.5q-145 0 -223.5 -92.5t-78.5 -257.5t78.5 -257.5
t223.5 -92.5zM454 1162v180h192v-180h-192zM230 1498v136h640v-136h-640z" />
    <glyph glyph-name="uni1ECD" unicode="&#x1ecd;" horiz-adv-x="1100" 
d="M550 -20q-154 0 -262.5 68.5t-166 184t-57.5 257.5t57.5 257.5t166 184t262.5 68.5q153 0 262 -68.5t166.5 -184t57.5 -257.5t-57.5 -257.5t-166.5 -184t-262 -68.5zM550 140q146 0 224 92.5t78 257.5t-78 257.5t-224 92.5q-145 0 -223.5 -92.5t-78.5 -257.5t78.5 -257.5
t223.5 -92.5zM454 -342v180h192v-180h-192z" />
    <glyph glyph-name="ograve" unicode="&#xf2;" horiz-adv-x="1100" 
d="M550 -20q-154 0 -262.5 68.5t-166 184t-57.5 257.5t57.5 257.5t166 184t262.5 68.5q153 0 262 -68.5t166.5 -184t57.5 -257.5t-57.5 -257.5t-166.5 -184t-262 -68.5zM550 140q146 0 224 92.5t78 257.5t-78 257.5t-224 92.5q-145 0 -223.5 -92.5t-78.5 -257.5t78.5 -257.5
t223.5 -92.5zM736 1152l-374 146v196l374 -220v-122z" />
    <glyph glyph-name="uni1ECF" unicode="&#x1ecf;" horiz-adv-x="1100" 
d="M550 -20q-154 0 -262.5 68.5t-166 184t-57.5 257.5t57.5 257.5t166 184t262.5 68.5q153 0 262 -68.5t166.5 -184t57.5 -257.5t-57.5 -257.5t-166.5 -184t-262 -68.5zM550 140q146 0 224 92.5t78 257.5t-78 257.5t-224 92.5q-145 0 -223.5 -92.5t-78.5 -257.5t78.5 -257.5
t223.5 -92.5zM580 1050l-68 66q47 47 67.5 72.5t20.5 61.5t-22 54t-60 18q-31 0 -62.5 -10.5t-63.5 -27.5l-34 102q33 18 73.5 28t86.5 10q83 0 140.5 -43.5t57.5 -124.5q0 -63 -33.5 -108t-102.5 -98z" />
    <glyph glyph-name="ohorn" unicode="&#x1a1;" horiz-adv-x="1100" 
d="M550 -20q-154 0 -262.5 68.5t-166 184t-57.5 257.5t57.5 257.5t166 184t262.5 68.5q153 0 262 -68.5t166.5 -184t57.5 -257.5t-57.5 -257.5t-166.5 -184t-262 -68.5zM550 140q146 0 224 92.5t78 257.5t-78 257.5t-224 92.5q-145 0 -223.5 -92.5t-78.5 -257.5t78.5 -257.5
t223.5 -92.5zM678 842v138q75 0 117.5 34.5t42.5 113.5h172q0 -76 -44 -141t-119 -105t-169 -40z" />
    <glyph glyph-name="uni1EDB" unicode="&#x1edb;" horiz-adv-x="1100" 
d="M550 -20q-154 0 -262.5 68.5t-166 184t-57.5 257.5t57.5 257.5t166 184t262.5 68.5q153 0 262 -68.5t166.5 -184t57.5 -257.5t-57.5 -257.5t-166.5 -184t-262 -68.5zM550 140q146 0 224 92.5t78 257.5t-78 257.5t-224 92.5q-145 0 -223.5 -92.5t-78.5 -257.5t78.5 -257.5
t223.5 -92.5zM678 842v138q75 0 117.5 34.5t42.5 113.5h172q0 -76 -44 -141t-119 -105t-169 -40zM364 1152v122l374 220v-196z" />
    <glyph glyph-name="uni1EE3" unicode="&#x1ee3;" horiz-adv-x="1100" 
d="M550 -20q-154 0 -262.5 68.5t-166 184t-57.5 257.5t57.5 257.5t166 184t262.5 68.5q153 0 262 -68.5t166.5 -184t57.5 -257.5t-57.5 -257.5t-166.5 -184t-262 -68.5zM550 140q146 0 224 92.5t78 257.5t-78 257.5t-224 92.5q-145 0 -223.5 -92.5t-78.5 -257.5t78.5 -257.5
t223.5 -92.5zM678 842v138q75 0 117.5 34.5t42.5 113.5h172q0 -76 -44 -141t-119 -105t-169 -40zM454 -342v180h192v-180h-192z" />
    <glyph glyph-name="uni1EDD" unicode="&#x1edd;" horiz-adv-x="1100" 
d="M550 -20q-154 0 -262.5 68.5t-166 184t-57.5 257.5t57.5 257.5t166 184t262.5 68.5q153 0 262 -68.5t166.5 -184t57.5 -257.5t-57.5 -257.5t-166.5 -184t-262 -68.5zM550 140q146 0 224 92.5t78 257.5t-78 257.5t-224 92.5q-145 0 -223.5 -92.5t-78.5 -257.5t78.5 -257.5
t223.5 -92.5zM678 842v138q75 0 117.5 34.5t42.5 113.5h172q0 -76 -44 -141t-119 -105t-169 -40zM736 1152l-374 146v196l374 -220v-122z" />
    <glyph glyph-name="uni1EDF" unicode="&#x1edf;" horiz-adv-x="1100" 
d="M550 -20q-154 0 -262.5 68.5t-166 184t-57.5 257.5t57.5 257.5t166 184t262.5 68.5q153 0 262 -68.5t166.5 -184t57.5 -257.5t-57.5 -257.5t-166.5 -184t-262 -68.5zM550 140q146 0 224 92.5t78 257.5t-78 257.5t-224 92.5q-145 0 -223.5 -92.5t-78.5 -257.5t78.5 -257.5
t223.5 -92.5zM678 842v138q75 0 117.5 34.5t42.5 113.5h172q0 -76 -44 -141t-119 -105t-169 -40zM580 1050l-68 66q47 47 67.5 72.5t20.5 61.5t-22 54t-60 18q-31 0 -62.5 -10.5t-63.5 -27.5l-34 102q33 18 73.5 28t86.5 10q83 0 140.5 -43.5t57.5 -124.5q0 -63 -33.5 -108
t-102.5 -98z" />
    <glyph glyph-name="uni1EE1" unicode="&#x1ee1;" horiz-adv-x="1100" 
d="M550 -20q-154 0 -262.5 68.5t-166 184t-57.5 257.5t57.5 257.5t166 184t262.5 68.5q153 0 262 -68.5t166.5 -184t57.5 -257.5t-57.5 -257.5t-166.5 -184t-262 -68.5zM550 140q146 0 224 92.5t78 257.5t-78 257.5t-224 92.5q-145 0 -223.5 -92.5t-78.5 -257.5t78.5 -257.5
t223.5 -92.5zM678 842v138q75 0 117.5 34.5t42.5 113.5h172q0 -76 -44 -141t-119 -105t-169 -40zM710 1160q-50 0 -97 23.5t-91 47t-86 23.5q-68 0 -68 -78h-150q5 108 48 165t124 57q50 0 97 -23.5t91 -47t86 -23.5q68 0 68 78h150q-4 -108 -47.5 -165t-124.5 -57z" />
    <glyph glyph-name="ohungarumlaut" unicode="&#x151;" horiz-adv-x="1100" 
d="M550 -20q-154 0 -262.5 68.5t-166 184t-57.5 257.5t57.5 257.5t166 184t262.5 68.5q153 0 262 -68.5t166.5 -184t57.5 -257.5t-57.5 -257.5t-166.5 -184t-262 -68.5zM550 140q146 0 224 92.5t78 257.5t-78 257.5t-224 92.5q-145 0 -223.5 -92.5t-78.5 -257.5t78.5 -257.5
t223.5 -92.5zM622 1156l166 334h196l-230 -334h-132zM342 1156l156 334h196l-220 -334h-132z" />
    <glyph glyph-name="uni020F" unicode="&#x20f;" horiz-adv-x="1100" 
d="M550 -20q-154 0 -262.5 68.5t-166 184t-57.5 257.5t57.5 257.5t166 184t262.5 68.5q153 0 262 -68.5t166.5 -184t57.5 -257.5t-57.5 -257.5t-166.5 -184t-262 -68.5zM550 140q146 0 224 92.5t78 257.5t-78 257.5t-224 92.5q-145 0 -223.5 -92.5t-78.5 -257.5t78.5 -257.5
t223.5 -92.5zM550 1406q100 0 164.5 -36t96 -94t31.5 -124h-160q0 62 -39 92t-93 30t-93 -30t-39 -92h-160q0 66 31.5 124t96 94t164.5 36z" />
    <glyph glyph-name="omacron" unicode="&#x14d;" horiz-adv-x="1100" 
d="M550 -20q-154 0 -262.5 68.5t-166 184t-57.5 257.5t57.5 257.5t166 184t262.5 68.5q153 0 262 -68.5t166.5 -184t57.5 -257.5t-57.5 -257.5t-166.5 -184t-262 -68.5zM550 140q146 0 224 92.5t78 257.5t-78 257.5t-224 92.5q-145 0 -223.5 -92.5t-78.5 -257.5t78.5 -257.5
t223.5 -92.5zM230 1182v142h640v-142h-640z" />
    <glyph glyph-name="uni1E53" unicode="&#x1e53;" horiz-adv-x="1100" 
d="M550 -20q-154 0 -262.5 68.5t-166 184t-57.5 257.5t57.5 257.5t166 184t262.5 68.5q153 0 262 -68.5t166.5 -184t57.5 -257.5t-57.5 -257.5t-166.5 -184t-262 -68.5zM550 140q146 0 224 92.5t78 257.5t-78 257.5t-224 92.5q-145 0 -223.5 -92.5t-78.5 -257.5t78.5 -257.5
t223.5 -92.5zM230 1166v136h640v-136h-640zM364 1452v116l374 190v-190z" />
    <glyph glyph-name="uni1E51" unicode="&#x1e51;" horiz-adv-x="1100" 
d="M550 -20q-154 0 -262.5 68.5t-166 184t-57.5 257.5t57.5 257.5t166 184t262.5 68.5q153 0 262 -68.5t166.5 -184t57.5 -257.5t-57.5 -257.5t-166.5 -184t-262 -68.5zM550 140q146 0 224 92.5t78 257.5t-78 257.5t-224 92.5q-145 0 -223.5 -92.5t-78.5 -257.5t78.5 -257.5
t223.5 -92.5zM230 1166v136h640v-136h-640zM736 1452l-374 116v190l374 -190v-116z" />
    <glyph glyph-name="uni01EB" unicode="&#x1eb;" horiz-adv-x="1100" 
d="M550 -20q-154 0 -262.5 68.5t-166 184t-57.5 257.5t57.5 257.5t166 184t262.5 68.5q153 0 262 -68.5t166.5 -184t57.5 -257.5t-57.5 -257.5t-166.5 -184t-262 -68.5zM550 140q146 0 224 92.5t78 257.5t-78 257.5t-224 92.5q-145 0 -223.5 -92.5t-78.5 -257.5t78.5 -257.5
t223.5 -92.5zM590 0h106q-70 -54 -113 -105t-43 -107q0 -51 26.5 -76.5t69.5 -25.5q35 0 65.5 9t60.5 25l30 -98q-28 -15 -70 -26.5t-96 -11.5q-84 0 -143 44t-59 128q0 80 53 145t113 99z" />
    <glyph glyph-name="oslash" unicode="&#xf8;" horiz-adv-x="1100" 
d="M822 1060h162l-706 -1140h-162zM550 -20q-154 0 -262.5 68.5t-166 184t-57.5 257.5t57.5 257.5t166 184t262.5 68.5q153 0 262 -68.5t166.5 -184t57.5 -257.5t-57.5 -257.5t-166.5 -184t-262 -68.5zM550 140q146 0 224 92.5t78 257.5t-78 257.5t-224 92.5
q-145 0 -223.5 -92.5t-78.5 -257.5t78.5 -257.5t223.5 -92.5z" />
    <glyph glyph-name="oslashacute" unicode="&#x1ff;" horiz-adv-x="1100" 
d="M822 1060h162l-706 -1140h-162zM550 -20q-154 0 -262.5 68.5t-166 184t-57.5 257.5t57.5 257.5t166 184t262.5 68.5q153 0 262 -68.5t166.5 -184t57.5 -257.5t-57.5 -257.5t-166.5 -184t-262 -68.5zM550 140q146 0 224 92.5t78 257.5t-78 257.5t-224 92.5
q-145 0 -223.5 -92.5t-78.5 -257.5t78.5 -257.5t223.5 -92.5zM364 1152v122l374 220v-196z" />
    <glyph glyph-name="otilde" unicode="&#xf5;" horiz-adv-x="1100" 
d="M550 -20q-154 0 -262.5 68.5t-166 184t-57.5 257.5t57.5 257.5t166 184t262.5 68.5q153 0 262 -68.5t166.5 -184t57.5 -257.5t-57.5 -257.5t-166.5 -184t-262 -68.5zM550 140q146 0 224 92.5t78 257.5t-78 257.5t-224 92.5q-145 0 -223.5 -92.5t-78.5 -257.5t78.5 -257.5
t223.5 -92.5zM710 1160q-50 0 -97 23.5t-91 47t-86 23.5q-68 0 -68 -78h-150q5 108 48 165t124 57q50 0 97 -23.5t91 -47t86 -23.5q68 0 68 78h150q-4 -108 -47.5 -165t-124.5 -57z" />
    <glyph glyph-name="uni1E4D" unicode="&#x1e4d;" horiz-adv-x="1100" 
d="M550 -20q-154 0 -262.5 68.5t-166 184t-57.5 257.5t57.5 257.5t166 184t262.5 68.5q153 0 262 -68.5t166.5 -184t57.5 -257.5t-57.5 -257.5t-166.5 -184t-262 -68.5zM550 140q146 0 224 92.5t78 257.5t-78 257.5t-224 92.5q-145 0 -223.5 -92.5t-78.5 -257.5t78.5 -257.5
t223.5 -92.5zM716 1156q-46 0 -96.5 20.5t-98 41t-85.5 20.5q-68 0 -68 -72h-130q0 98 38.5 149t107.5 51q46 0 96.5 -20.5t98 -41t85.5 -20.5q68 0 68 72h130q0 -97 -38.5 -148.5t-107.5 -51.5zM364 1460v116l374 190v-190z" />
    <glyph glyph-name="uni1E4F" unicode="&#x1e4f;" horiz-adv-x="1100" 
d="M550 -20q-154 0 -262.5 68.5t-166 184t-57.5 257.5t57.5 257.5t166 184t262.5 68.5q153 0 262 -68.5t166.5 -184t57.5 -257.5t-57.5 -257.5t-166.5 -184t-262 -68.5zM550 140q146 0 224 92.5t78 257.5t-78 257.5t-224 92.5q-145 0 -223.5 -92.5t-78.5 -257.5t78.5 -257.5
t223.5 -92.5zM716 1156q-46 0 -96.5 20.5t-98 41t-85.5 20.5q-68 0 -68 -72h-130q0 98 38.5 149t107.5 51q46 0 96.5 -20.5t98 -41t85.5 -20.5q68 0 68 72h130q0 -97 -38.5 -148.5t-107.5 -51.5zM272 1520v150h172v-150h-172zM656 1520v150h172v-150h-172z" />
    <glyph glyph-name="uni022D" unicode="&#x22d;" horiz-adv-x="1100" 
d="M550 -20q-154 0 -262.5 68.5t-166 184t-57.5 257.5t57.5 257.5t166 184t262.5 68.5q153 0 262 -68.5t166.5 -184t57.5 -257.5t-57.5 -257.5t-166.5 -184t-262 -68.5zM550 140q146 0 224 92.5t78 257.5t-78 257.5t-224 92.5q-145 0 -223.5 -92.5t-78.5 -257.5t78.5 -257.5
t223.5 -92.5zM716 1156q-46 0 -96.5 20.5t-98 41t-85.5 20.5q-68 0 -68 -72h-130q0 98 38.5 149t107.5 51q46 0 96.5 -20.5t98 -41t85.5 -20.5q68 0 68 72h130q0 -97 -38.5 -148.5t-107.5 -51.5zM230 1518v136h640v-136h-640z" />
    <glyph glyph-name="oe" unicode="&#x153;" horiz-adv-x="1804" 
d="M550 -20q-154 0 -262.5 68.5t-166 184t-57.5 257.5t57.5 257.5t166 184t262.5 68.5q147 0 252 -70t160 -186l-52 -6q54 117 159 189.5t253 72.5q122 0 217.5 -48.5t150 -141t54.5 -224.5q0 -21 -1.5 -45.5t-6.5 -50.5h-710q13 -136 65 -212t131 -107t172 -31q68 0 142 14
t140 44l24 -142q-57 -25 -139 -50.5t-189 -25.5q-175 0 -292.5 79.5t-173.5 206.5l70 -2q-52 -127 -161 -205.5t-265 -78.5zM550 140q146 0 224 92.5t78 257.5t-78 257.5t-224 92.5q-145 0 -223.5 -92.5t-78.5 -257.5t78.5 -257.5t223.5 -92.5zM1042 614h516q0 69 -26 120
t-79 78.5t-135 27.5q-120 0 -184.5 -59.5t-91.5 -166.5z" />
    <glyph glyph-name="p" unicode="p" horiz-adv-x="1114" 
d="M122 -484v1464h140l32 -224l-50 36q62 96 153 152t223 56q134 0 230 -68t147 -183.5t51 -258.5t-48 -258.5t-143 -183.5t-237 -68q-117 0 -211.5 48.5t-136.5 145.5l30 36v-694h-180zM586 140q131 0 204.5 92.5t73.5 257.5t-73.5 257.5t-204.5 92.5q-81 0 -147.5 -38.5
t-106.5 -116t-40 -195.5q0 -123 40 -200t106.5 -113.5t147.5 -36.5z" />
    <glyph glyph-name="thorn" unicode="&#xfe;" horiz-adv-x="1162" 
d="M120 -482v1982h180v-710l-40 20q74 99 168 144.5t208 45.5q145 0 248 -70t157.5 -186t54.5 -254q0 -137 -53 -253t-155.5 -186.5t-251.5 -70.5q-129 0 -222 48t-144 142l30 28v-680h-180zM606 124q152 0 230 104.5t78 261.5q0 156 -78 253t-230 97q-99 0 -170.5 -42
t-110.5 -120.5t-39 -187.5q0 -110 39 -192.5t110.5 -128t170.5 -45.5z" />
    <glyph glyph-name="q" unicode="q" horiz-adv-x="1114" 
d="M812 -484v694l30 -36q-40 -97 -130.5 -145.5t-207.5 -48.5q-145 0 -242.5 68t-146.5 183.5t-49 258.5q0 134 52 250.5t149.5 188t234.5 71.5q138 0 222.5 -54.5t145.5 -153.5l-50 -36l32 224h140v-1464h-180zM528 140q81 0 147.5 36.5t106.5 113.5t40 200
q0 177 -86 263.5t-208 86.5q-130 0 -204 -92.5t-74 -257.5t74 -257.5t204 -92.5z" />
    <glyph glyph-name="r" unicode="r" horiz-adv-x="632" 
d="M122 0v980h148l22 -162q75 93 143.5 137.5t146.5 44.5q25 0 46 -6l-18 -198q-13 3 -27.5 4.5t-32.5 1.5q-78 0 -143.5 -34.5t-92.5 -75.5v-692h-192z" />
    <glyph glyph-name="racute" unicode="&#x155;" horiz-adv-x="632" 
d="M122 0v980h148l22 -162q75 93 143.5 137.5t146.5 44.5q25 0 46 -6l-18 -198q-13 3 -27.5 4.5t-32.5 1.5q-78 0 -143.5 -34.5t-92.5 -75.5v-692h-192zM236 1152v122l374 220v-196z" />
    <glyph glyph-name="rcaron" unicode="&#x159;" horiz-adv-x="632" 
d="M122 0v980h148l22 -162q75 93 143.5 137.5t146.5 44.5q25 0 46 -6l-18 -198q-13 3 -27.5 4.5t-32.5 1.5q-78 0 -143.5 -34.5t-92.5 -75.5v-692h-192zM422 1116l-254 220v122l254 -160l254 160v-122z" />
    <glyph glyph-name="uni0157" unicode="&#x157;" horiz-adv-x="632" 
d="M122 0v980h148l22 -162q75 93 143.5 137.5t146.5 44.5q25 0 46 -6l-18 -198q-13 3 -27.5 4.5t-32.5 1.5q-78 0 -143.5 -34.5t-92.5 -75.5v-692h-192zM224 -608h-114l72 214h-70v212h216v-192z" />
    <glyph glyph-name="uni0211" unicode="&#x211;" horiz-adv-x="632" 
d="M122 0v980h148l22 -162q75 93 143.5 137.5t146.5 44.5q25 0 46 -6l-18 -198q-13 3 -27.5 4.5t-32.5 1.5q-78 0 -143.5 -34.5t-92.5 -75.5v-692h-192zM630 1156h-132l-196 334h196zM350 1156h-132l-206 334h196z" />
    <glyph glyph-name="uni1E5B" unicode="&#x1e5b;" horiz-adv-x="632" 
d="M122 0v980h148l22 -162q75 93 143.5 137.5t146.5 44.5q25 0 46 -6l-18 -198q-13 3 -27.5 4.5t-32.5 1.5q-78 0 -143.5 -34.5t-92.5 -75.5v-692h-192zM122 -342v180h192v-180h-192z" />
    <glyph glyph-name="uni0213" unicode="&#x213;" horiz-adv-x="632" 
d="M122 0v980h148l22 -162q75 93 143.5 137.5t146.5 44.5q25 0 46 -6l-18 -198q-13 3 -27.5 4.5t-32.5 1.5q-78 0 -143.5 -34.5t-92.5 -75.5v-692h-192zM422 1406q100 0 164.5 -36t96 -94t31.5 -124h-160q0 62 -39 92t-93 30t-93 -30t-39 -92h-160q0 66 31.5 124t96 94
t164.5 36z" />
    <glyph glyph-name="uni1E5F" unicode="&#x1e5f;" horiz-adv-x="632" 
d="M122 0v980h148l22 -162q75 93 143.5 137.5t146.5 44.5q25 0 46 -6l-18 -198q-13 3 -27.5 4.5t-32.5 1.5q-78 0 -143.5 -34.5t-92.5 -75.5v-692h-192zM-102 -324v142h640v-142h-640z" />
    <glyph glyph-name="s" unicode="s" horiz-adv-x="828" 
d="M400 -20q-130 0 -215.5 31t-120.5 55l22 174q32 -28 113 -64t193 -36q95 0 145.5 32t50.5 90q0 51 -32.5 82.5t-78 50t-85.5 29.5q-67 18 -138.5 45.5t-120.5 82.5t-49 154q0 75 36 142.5t117 109.5t215 42q98 0 159.5 -20.5t106.5 -43.5l-22 -164q-43 36 -100 61
t-140 25q-84 0 -137 -31.5t-53 -100.5t56.5 -98t171.5 -64q36 -10 83.5 -29t92.5 -51t74.5 -83.5t29.5 -128.5q0 -65 -31 -132.5t-112 -113.5t-231 -46z" />
    <glyph glyph-name="sacute" unicode="&#x15b;" horiz-adv-x="828" 
d="M400 -20q-130 0 -215.5 31t-120.5 55l22 174q32 -28 113 -64t193 -36q95 0 145.5 32t50.5 90q0 51 -32.5 82.5t-78 50t-85.5 29.5q-67 18 -138.5 45.5t-120.5 82.5t-49 154q0 75 36 142.5t117 109.5t215 42q98 0 159.5 -20.5t106.5 -43.5l-22 -164q-43 36 -100 61
t-140 25q-84 0 -137 -31.5t-53 -100.5t56.5 -98t171.5 -64q36 -10 83.5 -29t92.5 -51t74.5 -83.5t29.5 -128.5q0 -65 -31 -132.5t-112 -113.5t-231 -46zM258 1152v122l374 220v-196z" />
    <glyph glyph-name="uni1E65" unicode="&#x1e65;" horiz-adv-x="828" 
d="M400 -20q-130 0 -215.5 31t-120.5 55l22 174q32 -28 113 -64t193 -36q95 0 145.5 32t50.5 90q0 51 -32.5 82.5t-78 50t-85.5 29.5q-67 18 -138.5 45.5t-120.5 82.5t-49 154q0 75 36 142.5t117 109.5t215 42q98 0 159.5 -20.5t106.5 -43.5l-22 -164q-43 36 -100 61
t-140 25q-84 0 -137 -31.5t-53 -100.5t56.5 -98t171.5 -64q36 -10 83.5 -29t92.5 -51t74.5 -83.5t29.5 -128.5q0 -65 -31 -132.5t-112 -113.5t-231 -46zM258 1108v116l374 190v-190zM348 1506v180h192v-180h-192z" />
    <glyph glyph-name="scaron" unicode="&#x161;" horiz-adv-x="828" 
d="M400 -20q-130 0 -215.5 31t-120.5 55l22 174q32 -28 113 -64t193 -36q95 0 145.5 32t50.5 90q0 51 -32.5 82.5t-78 50t-85.5 29.5q-67 18 -138.5 45.5t-120.5 82.5t-49 154q0 75 36 142.5t117 109.5t215 42q98 0 159.5 -20.5t106.5 -43.5l-22 -164q-43 36 -100 61
t-140 25q-84 0 -137 -31.5t-53 -100.5t56.5 -98t171.5 -64q36 -10 83.5 -29t92.5 -51t74.5 -83.5t29.5 -128.5q0 -65 -31 -132.5t-112 -113.5t-231 -46zM444 1116l-254 220v122l254 -160l254 160v-122z" />
    <glyph glyph-name="uni1E67" unicode="&#x1e67;" horiz-adv-x="828" 
d="M400 -20q-130 0 -215.5 31t-120.5 55l22 174q32 -28 113 -64t193 -36q95 0 145.5 32t50.5 90q0 51 -32.5 82.5t-78 50t-85.5 29.5q-67 18 -138.5 45.5t-120.5 82.5t-49 154q0 75 36 142.5t117 109.5t215 42q98 0 159.5 -20.5t106.5 -43.5l-22 -164q-43 36 -100 61
t-140 25q-84 0 -137 -31.5t-53 -100.5t56.5 -98t171.5 -64q36 -10 83.5 -29t92.5 -51t74.5 -83.5t29.5 -128.5q0 -65 -31 -132.5t-112 -113.5t-231 -46zM190 1440v-122l254 -180l254 180v122l-254 -132zM348 1532v180h192v-180h-192z" />
    <glyph glyph-name="scedilla" unicode="&#x15f;" horiz-adv-x="828" 
d="M400 -20q-130 0 -215.5 31t-120.5 55l22 174q32 -28 113 -64t193 -36q95 0 145.5 32t50.5 90q0 51 -32.5 82.5t-78 50t-85.5 29.5q-67 18 -138.5 45.5t-120.5 82.5t-49 154q0 75 36 142.5t117 109.5t215 42q98 0 159.5 -20.5t106.5 -43.5l-22 -164q-43 36 -100 61
t-140 25q-84 0 -137 -31.5t-53 -100.5t56.5 -98t171.5 -64q36 -10 83.5 -29t92.5 -51t74.5 -83.5t29.5 -128.5q0 -65 -31 -132.5t-112 -113.5t-231 -46zM422 -158l-66 30q24 9 47.5 14.5t50.5 5.5q81 0 127.5 -43.5t46.5 -118.5q0 -88 -61.5 -135t-150.5 -47q-51 0 -90 11.5
t-66 26.5l30 98q30 -16 61 -25t65 -9q44 0 70 19.5t26 56.5q0 36 -24.5 58t-75.5 22q-22 0 -44 -3.5t-48 -12.5l52 210h100z" />
    <glyph glyph-name="scircumflex" unicode="&#x15d;" horiz-adv-x="828" 
d="M400 -20q-130 0 -215.5 31t-120.5 55l22 174q32 -28 113 -64t193 -36q95 0 145.5 32t50.5 90q0 51 -32.5 82.5t-78 50t-85.5 29.5q-67 18 -138.5 45.5t-120.5 82.5t-49 154q0 75 36 142.5t117 109.5t215 42q98 0 159.5 -20.5t106.5 -43.5l-22 -164q-43 36 -100 61
t-140 25q-84 0 -137 -31.5t-53 -100.5t56.5 -98t171.5 -64q36 -10 83.5 -29t92.5 -51t74.5 -83.5t29.5 -128.5q0 -65 -31 -132.5t-112 -113.5t-231 -46zM190 1128v122l254 220l254 -220v-122l-254 160z" />
    <glyph glyph-name="uni0219" unicode="&#x219;" horiz-adv-x="828" 
d="M400 -20q-130 0 -215.5 31t-120.5 55l22 174q32 -28 113 -64t193 -36q95 0 145.5 32t50.5 90q0 51 -32.5 82.5t-78 50t-85.5 29.5q-67 18 -138.5 45.5t-120.5 82.5t-49 154q0 75 36 142.5t117 109.5t215 42q98 0 159.5 -20.5t106.5 -43.5l-22 -164q-43 36 -100 61
t-140 25q-84 0 -137 -31.5t-53 -100.5t56.5 -98t171.5 -64q36 -10 83.5 -29t92.5 -51t74.5 -83.5t29.5 -128.5q0 -65 -31 -132.5t-112 -113.5t-231 -46zM422 -608h-114l72 214h-70v212h216v-192z" />
    <glyph glyph-name="uni1E61" unicode="&#x1e61;" horiz-adv-x="828" 
d="M400 -20q-130 0 -215.5 31t-120.5 55l22 174q32 -28 113 -64t193 -36q95 0 145.5 32t50.5 90q0 51 -32.5 82.5t-78 50t-85.5 29.5q-67 18 -138.5 45.5t-120.5 82.5t-49 154q0 75 36 142.5t117 109.5t215 42q98 0 159.5 -20.5t106.5 -43.5l-22 -164q-43 36 -100 61
t-140 25q-84 0 -137 -31.5t-53 -100.5t56.5 -98t171.5 -64q36 -10 83.5 -29t92.5 -51t74.5 -83.5t29.5 -128.5q0 -65 -31 -132.5t-112 -113.5t-231 -46zM348 1182v180h192v-180h-192z" />
    <glyph glyph-name="uni1E63" unicode="&#x1e63;" horiz-adv-x="828" 
d="M400 -20q-130 0 -215.5 31t-120.5 55l22 174q32 -28 113 -64t193 -36q95 0 145.5 32t50.5 90q0 51 -32.5 82.5t-78 50t-85.5 29.5q-67 18 -138.5 45.5t-120.5 82.5t-49 154q0 75 36 142.5t117 109.5t215 42q98 0 159.5 -20.5t106.5 -43.5l-22 -164q-43 36 -100 61
t-140 25q-84 0 -137 -31.5t-53 -100.5t56.5 -98t171.5 -64q36 -10 83.5 -29t92.5 -51t74.5 -83.5t29.5 -128.5q0 -65 -31 -132.5t-112 -113.5t-231 -46zM320 -342v180h192v-180h-192z" />
    <glyph glyph-name="uni1E69" unicode="&#x1e69;" horiz-adv-x="828" 
d="M400 -20q-130 0 -215.5 31t-120.5 55l22 174q32 -28 113 -64t193 -36q95 0 145.5 32t50.5 90q0 51 -32.5 82.5t-78 50t-85.5 29.5q-67 18 -138.5 45.5t-120.5 82.5t-49 154q0 75 36 142.5t117 109.5t215 42q98 0 159.5 -20.5t106.5 -43.5l-22 -164q-43 36 -100 61
t-140 25q-84 0 -137 -31.5t-53 -100.5t56.5 -98t171.5 -64q36 -10 83.5 -29t92.5 -51t74.5 -83.5t29.5 -128.5q0 -65 -31 -132.5t-112 -113.5t-231 -46zM348 1182v180h192v-180h-192zM320 -342v180h192v-180h-192z" />
    <glyph glyph-name="germandbls" unicode="&#xdf;" horiz-adv-x="1154" 
d="M692 -28q-55 0 -105 6.5t-103 21.5v140q51 -13 103 -20.5t107 -7.5q105 0 166.5 47t61.5 129q0 71 -36.5 117.5t-90.5 80.5l-108 68t-90.5 79.5t-36.5 116.5q0 72 36 126.5t114 135.5q48 50 73 87.5t25 94.5q0 78 -52.5 126t-151.5 48q-123 0 -184.5 -70.5t-61.5 -193.5
v-1104h-172v840h-150l16 140h134v120q0 216 117.5 322t304.5 106q170 0 272 -81t102 -221q0 -63 -15.5 -108.5t-40.5 -80.5t-54 -67q-61 -69 -96.5 -110t-35.5 -88q0 -49 36.5 -83.5t90.5 -67t108 -73.5t90.5 -100.5t36.5 -149.5q0 -111 -58.5 -183t-152 -107.5
t-199.5 -35.5z" />
    <glyph glyph-name="t" unicode="t" horiz-adv-x="674" 
d="M460 -20q-93 0 -149 34t-81.5 87.5t-25.5 112.5v626h-168l16 140h152v242l180 18v-260h258v-140h-258v-516q0 -94 11 -136t54.5 -53t140.5 -11h46l-14 -144h-162z" />
    <glyph glyph-name="tbar" unicode="&#x167;" horiz-adv-x="674" 
d="M460 -20q-93 0 -149 34t-81.5 87.5t-25.5 112.5v626h-168l16 140h152v242l180 18v-260h258v-140h-258v-516q0 -94 11 -136t54.5 -53t140.5 -11h46l-14 -144h-162zM36 484v126h596v-126h-596z" />
    <glyph glyph-name="tcaron" unicode="&#x165;" horiz-adv-x="674" 
d="M460 -20q-93 0 -149 34t-81.5 87.5t-25.5 112.5v626h-168l16 140h152v242l180 18v-260h258v-140h-258v-516q0 -94 11 -136t54.5 -53t140.5 -11h46l-14 -144h-162zM484 1082v334h188l-56 -334h-132z" />
    <glyph glyph-name="uni0163" unicode="&#x163;" horiz-adv-x="674" 
d="M460 -20q-93 0 -149 34t-81.5 87.5t-25.5 112.5v626h-168l16 140h152v242l180 18v-260h258v-140h-258v-516q0 -94 11 -136t54.5 -53t140.5 -11h46l-14 -144h-162zM462 -158l-66 30q24 9 47.5 14.5t50.5 5.5q81 0 127.5 -43.5t46.5 -118.5q0 -88 -61.5 -135t-150.5 -47
q-51 0 -90 11.5t-66 26.5l30 98q30 -16 61 -25t65 -9q44 0 70 19.5t26 56.5q0 36 -24.5 58t-75.5 22q-22 0 -44 -3.5t-48 -12.5l52 210h100z" />
    <glyph glyph-name="uni021B" unicode="&#x21b;" horiz-adv-x="674" 
d="M460 -20q-93 0 -149 34t-81.5 87.5t-25.5 112.5v626h-168l16 140h152v242l180 18v-260h258v-140h-258v-516q0 -94 11 -136t54.5 -53t140.5 -11h46l-14 -144h-162zM462 -608h-114l72 214h-70v212h216v-192z" />
    <glyph glyph-name="uni1E97" unicode="&#x1e97;" horiz-adv-x="674" 
d="M460 -20q-93 0 -149 34t-81.5 87.5t-25.5 112.5v626h-168l16 140h152v242l180 18v-260h258v-140h-258v-516q0 -94 11 -136t54.5 -53t140.5 -11h46l-14 -144h-162zM400 1426v160h172v-160h-172zM16 1426v160h172v-160h-172z" />
    <glyph glyph-name="uni1E6D" unicode="&#x1e6d;" horiz-adv-x="674" 
d="M460 -20q-93 0 -149 34t-81.5 87.5t-25.5 112.5v626h-168l16 140h152v242l180 18v-260h258v-140h-258v-516q0 -94 11 -136t54.5 -53t140.5 -11h46l-14 -144h-162zM360 -342v180h192v-180h-192z" />
    <glyph glyph-name="uni1E6F" unicode="&#x1e6f;" horiz-adv-x="674" 
d="M460 -20q-93 0 -149 34t-81.5 87.5t-25.5 112.5v626h-168l16 140h152v242l180 18v-260h258v-140h-258v-516q0 -94 11 -136t54.5 -53t140.5 -11h46l-14 -144h-162zM136 -324v142h640v-142h-640z" />
    <glyph glyph-name="u" unicode="u" horiz-adv-x="1048" 
d="M474 -20q-115 0 -196 46.5t-123.5 141.5t-42.5 242v570h180v-520q0 -156 53.5 -238t174.5 -82q83 0 154 40t98 128l-26 -98v770h180v-980h-160l-36 192l48 -32q-49 -91 -119.5 -135.5t-184.5 -44.5z" />
    <glyph glyph-name="uacute" unicode="&#xfa;" horiz-adv-x="1048" 
d="M474 -20q-115 0 -196 46.5t-123.5 141.5t-42.5 242v570h180v-520q0 -156 53.5 -238t174.5 -82q83 0 154 40t98 128l-26 -98v770h180v-980h-160l-36 192l48 -32q-49 -91 -119.5 -135.5t-184.5 -44.5zM338 1152v122l374 220v-196z" />
    <glyph glyph-name="ubreve" unicode="&#x16d;" horiz-adv-x="1048" 
d="M474 -20q-115 0 -196 46.5t-123.5 141.5t-42.5 242v570h180v-520q0 -156 53.5 -238t174.5 -82q83 0 154 40t98 128l-26 -98v770h180v-980h-160l-36 192l48 -32q-49 -91 -119.5 -135.5t-184.5 -44.5zM524 1152q-100 0 -164.5 36t-96 94t-31.5 124h160q0 -61 39 -91.5
t93 -30.5t93 30.5t39 91.5h160q0 -66 -31.5 -124t-96 -94t-164.5 -36z" />
    <glyph glyph-name="ucircumflex" unicode="&#xfb;" horiz-adv-x="1048" 
d="M474 -20q-115 0 -196 46.5t-123.5 141.5t-42.5 242v570h180v-520q0 -156 53.5 -238t174.5 -82q83 0 154 40t98 128l-26 -98v770h180v-980h-160l-36 192l48 -32q-49 -91 -119.5 -135.5t-184.5 -44.5zM270 1128v122l254 220l254 -220v-122l-254 160z" />
    <glyph glyph-name="uni0215" unicode="&#x215;" horiz-adv-x="1048" 
d="M474 -20q-115 0 -196 46.5t-123.5 141.5t-42.5 242v570h180v-520q0 -156 53.5 -238t174.5 -82q83 0 154 40t98 128l-26 -98v770h180v-980h-160l-36 192l48 -32q-49 -91 -119.5 -135.5t-184.5 -44.5zM732 1156h-132l-196 334h196zM452 1156h-132l-206 334h196z" />
    <glyph glyph-name="udieresis" unicode="&#xfc;" horiz-adv-x="1048" 
d="M474 -20q-115 0 -196 46.5t-123.5 141.5t-42.5 242v570h180v-520q0 -156 53.5 -238t174.5 -82q83 0 154 40t98 128l-26 -98v770h180v-980h-160l-36 192l48 -32q-49 -91 -119.5 -135.5t-184.5 -44.5zM630 1182v160h172v-160h-172zM246 1182v160h172v-160h-172z" />
    <glyph glyph-name="uni1EE5" unicode="&#x1ee5;" horiz-adv-x="1048" 
d="M474 -20q-115 0 -196 46.5t-123.5 141.5t-42.5 242v570h180v-520q0 -156 53.5 -238t174.5 -82q83 0 154 40t98 128l-26 -98v770h180v-980h-160l-36 192l48 -32q-49 -91 -119.5 -135.5t-184.5 -44.5zM428 -342v180h192v-180h-192z" />
    <glyph glyph-name="ugrave" unicode="&#xf9;" horiz-adv-x="1048" 
d="M474 -20q-115 0 -196 46.5t-123.5 141.5t-42.5 242v570h180v-520q0 -156 53.5 -238t174.5 -82q83 0 154 40t98 128l-26 -98v770h180v-980h-160l-36 192l48 -32q-49 -91 -119.5 -135.5t-184.5 -44.5zM710 1152l-374 146v196l374 -220v-122z" />
    <glyph glyph-name="uni1EE7" unicode="&#x1ee7;" horiz-adv-x="1048" 
d="M474 -20q-115 0 -196 46.5t-123.5 141.5t-42.5 242v570h180v-520q0 -156 53.5 -238t174.5 -82q83 0 154 40t98 128l-26 -98v770h180v-980h-160l-36 192l48 -32q-49 -91 -119.5 -135.5t-184.5 -44.5zM554 1050l-68 66q47 47 67.5 72.5t20.5 61.5t-22 54t-60 18
q-31 0 -62.5 -10.5t-63.5 -27.5l-34 102q33 18 73.5 28t86.5 10q83 0 140.5 -43.5t57.5 -124.5q0 -63 -33.5 -108t-102.5 -98z" />
    <glyph glyph-name="uhorn" unicode="&#x1b0;" horiz-adv-x="1048" 
d="M474 -20q-115 0 -196 46.5t-123.5 141.5t-42.5 242v570h180v-520q0 -156 53.5 -238t174.5 -82q83 0 154 40t98 128l-26 -98v770h180v-980h-160l-36 192l48 -32q-49 -91 -119.5 -135.5t-184.5 -44.5zM828 842v138q75 0 117.5 34.5t42.5 113.5h172q0 -76 -44 -141
t-119 -105t-169 -40z" />
    <glyph glyph-name="uni1EE9" unicode="&#x1ee9;" horiz-adv-x="1048" 
d="M474 -20q-115 0 -196 46.5t-123.5 141.5t-42.5 242v570h180v-520q0 -156 53.5 -238t174.5 -82q83 0 154 40t98 128l-26 -98v770h180v-980h-160l-36 192l48 -32q-49 -91 -119.5 -135.5t-184.5 -44.5zM828 842v138q75 0 117.5 34.5t42.5 113.5h172q0 -76 -44 -141
t-119 -105t-169 -40zM338 1152v122l374 220v-196z" />
    <glyph glyph-name="uni1EF1" unicode="&#x1ef1;" horiz-adv-x="1048" 
d="M474 -20q-115 0 -196 46.5t-123.5 141.5t-42.5 242v570h180v-520q0 -156 53.5 -238t174.5 -82q83 0 154 40t98 128l-26 -98v770h180v-980h-160l-36 192l48 -32q-49 -91 -119.5 -135.5t-184.5 -44.5zM828 842v138q75 0 117.5 34.5t42.5 113.5h172q0 -76 -44 -141
t-119 -105t-169 -40zM428 -342v180h192v-180h-192z" />
    <glyph glyph-name="uni1EEB" unicode="&#x1eeb;" horiz-adv-x="1048" 
d="M474 -20q-115 0 -196 46.5t-123.5 141.5t-42.5 242v570h180v-520q0 -156 53.5 -238t174.5 -82q83 0 154 40t98 128l-26 -98v770h180v-980h-160l-36 192l48 -32q-49 -91 -119.5 -135.5t-184.5 -44.5zM828 842v138q75 0 117.5 34.5t42.5 113.5h172q0 -76 -44 -141
t-119 -105t-169 -40zM710 1152l-374 146v196l374 -220v-122z" />
    <glyph glyph-name="uni1EED" unicode="&#x1eed;" horiz-adv-x="1048" 
d="M474 -20q-115 0 -196 46.5t-123.5 141.5t-42.5 242v570h180v-520q0 -156 53.5 -238t174.5 -82q83 0 154 40t98 128l-26 -98v770h180v-980h-160l-36 192l48 -32q-49 -91 -119.5 -135.5t-184.5 -44.5zM828 842v138q75 0 117.5 34.5t42.5 113.5h172q0 -76 -44 -141
t-119 -105t-169 -40zM554 1050l-68 66q47 47 67.5 72.5t20.5 61.5t-22 54t-60 18q-31 0 -62.5 -10.5t-63.5 -27.5l-34 102q33 18 73.5 28t86.5 10q83 0 140.5 -43.5t57.5 -124.5q0 -63 -33.5 -108t-102.5 -98z" />
    <glyph glyph-name="uni1EEF" unicode="&#x1eef;" horiz-adv-x="1048" 
d="M474 -20q-115 0 -196 46.5t-123.5 141.5t-42.5 242v570h180v-520q0 -156 53.5 -238t174.5 -82q83 0 154 40t98 128l-26 -98v770h180v-980h-160l-36 192l48 -32q-49 -91 -119.5 -135.5t-184.5 -44.5zM828 842v138q75 0 117.5 34.5t42.5 113.5h172q0 -76 -44 -141
t-119 -105t-169 -40zM684 1160q-50 0 -97 23.5t-91 47t-86 23.5q-68 0 -68 -78h-150q5 108 48 165t124 57q50 0 97 -23.5t91 -47t86 -23.5q68 0 68 78h150q-4 -108 -47.5 -165t-124.5 -57z" />
    <glyph glyph-name="uhungarumlaut" unicode="&#x171;" horiz-adv-x="1048" 
d="M474 -20q-115 0 -196 46.5t-123.5 141.5t-42.5 242v570h180v-520q0 -156 53.5 -238t174.5 -82q83 0 154 40t98 128l-26 -98v770h180v-980h-160l-36 192l48 -32q-49 -91 -119.5 -135.5t-184.5 -44.5zM596 1156l166 334h196l-230 -334h-132zM316 1156l156 334h196
l-220 -334h-132z" />
    <glyph glyph-name="uni0217" unicode="&#x217;" horiz-adv-x="1048" 
d="M474 -20q-115 0 -196 46.5t-123.5 141.5t-42.5 242v570h180v-520q0 -156 53.5 -238t174.5 -82q83 0 154 40t98 128l-26 -98v770h180v-980h-160l-36 192l48 -32q-49 -91 -119.5 -135.5t-184.5 -44.5zM524 1406q100 0 164.5 -36t96 -94t31.5 -124h-160q0 62 -39 92t-93 30
t-93 -30t-39 -92h-160q0 66 31.5 124t96 94t164.5 36z" />
    <glyph glyph-name="umacron" unicode="&#x16b;" horiz-adv-x="1048" 
d="M474 -20q-115 0 -196 46.5t-123.5 141.5t-42.5 242v570h180v-520q0 -156 53.5 -238t174.5 -82q83 0 154 40t98 128l-26 -98v770h180v-980h-160l-36 192l48 -32q-49 -91 -119.5 -135.5t-184.5 -44.5zM204 1182v142h640v-142h-640z" />
    <glyph glyph-name="uni1E7B" unicode="&#x1e7b;" horiz-adv-x="1048" 
d="M474 -20q-115 0 -196 46.5t-123.5 141.5t-42.5 242v570h180v-520q0 -156 53.5 -238t174.5 -82q83 0 154 40t98 128l-26 -98v770h180v-980h-160l-36 192l48 -32q-49 -91 -119.5 -135.5t-184.5 -44.5zM204 1166v136h640v-136h-640zM246 1512v150h172v-150h-172zM630 1512
v150h172v-150h-172z" />
    <glyph glyph-name="uogonek" unicode="&#x173;" horiz-adv-x="1048" 
d="M474 -20q-115 0 -196 46.5t-123.5 141.5t-42.5 242v570h180v-520q0 -156 53.5 -238t174.5 -82q83 0 154 40t98 128l-26 -98v770h180v-980h-160l-36 192l48 -32q-49 -91 -119.5 -135.5t-184.5 -44.5zM820 0h106q-70 -54 -113 -105t-43 -107q0 -51 26.5 -76.5t69.5 -25.5
q35 0 65.5 9t60.5 25l30 -98q-28 -15 -70 -26.5t-96 -11.5q-84 0 -143 44t-59 128q0 80 53 145t113 99z" />
    <glyph glyph-name="uring" unicode="&#x16f;" horiz-adv-x="1048" 
d="M474 -20q-115 0 -196 46.5t-123.5 141.5t-42.5 242v570h180v-520q0 -156 53.5 -238t174.5 -82q83 0 154 40t98 128l-26 -98v770h180v-980h-160l-36 192l48 -32q-49 -91 -119.5 -135.5t-184.5 -44.5zM524 1136q-103 0 -155.5 61t-52.5 139q0 77 53 138.5t155 61.5
q104 0 156 -61.5t52 -138.5q0 -78 -51.5 -139t-156.5 -61zM524 1224q44 0 78 30t34 82q0 50 -33.5 81t-78.5 31t-78.5 -31t-33.5 -81q0 -52 34.5 -82t77.5 -30z" />
    <glyph glyph-name="utilde" unicode="&#x169;" horiz-adv-x="1048" 
d="M474 -20q-115 0 -196 46.5t-123.5 141.5t-42.5 242v570h180v-520q0 -156 53.5 -238t174.5 -82q83 0 154 40t98 128l-26 -98v770h180v-980h-160l-36 192l48 -32q-49 -91 -119.5 -135.5t-184.5 -44.5zM684 1160q-50 0 -97 23.5t-91 47t-86 23.5q-68 0 -68 -78h-150
q5 108 48 165t124 57q50 0 97 -23.5t91 -47t86 -23.5q68 0 68 78h150q-4 -108 -47.5 -165t-124.5 -57z" />
    <glyph glyph-name="uni1E79" unicode="&#x1e79;" horiz-adv-x="1048" 
d="M474 -20q-115 0 -196 46.5t-123.5 141.5t-42.5 242v570h180v-520q0 -156 53.5 -238t174.5 -82q83 0 154 40t98 128l-26 -98v770h180v-980h-160l-36 192l48 -32q-49 -91 -119.5 -135.5t-184.5 -44.5zM690 1156q-46 0 -96.5 20.5t-98 41t-85.5 20.5q-68 0 -68 -72h-130
q0 98 38.5 149t107.5 51q46 0 96.5 -20.5t98 -41t85.5 -20.5q68 0 68 72h130q0 -97 -38.5 -148.5t-107.5 -51.5zM338 1460v116l374 190v-190z" />
    <glyph glyph-name="v" unicode="v" horiz-adv-x="984" 
d="M392 0l-374 980h200l274 -782l272 782h202l-372 -980h-202z" />
    <glyph glyph-name="w" unicode="w" horiz-adv-x="1450" 
d="M318 0l-294 980h212l188 -782l208 752h186l210 -752l188 782h212l-296 -980h-202l-204 724l-206 -724h-202z" />
    <glyph glyph-name="wacute" unicode="&#x1e83;" horiz-adv-x="1450" 
d="M318 0l-294 980h212l188 -782l208 752h186l210 -752l188 782h212l-296 -980h-202l-204 724l-206 -724h-202zM540 1152v122l374 220v-196z" />
    <glyph glyph-name="wcircumflex" unicode="&#x175;" horiz-adv-x="1450" 
d="M318 0l-294 980h212l188 -782l208 752h186l210 -752l188 782h212l-296 -980h-202l-204 724l-206 -724h-202zM472 1128v122l254 220l254 -220v-122l-254 160z" />
    <glyph glyph-name="wdieresis" unicode="&#x1e85;" horiz-adv-x="1450" 
d="M318 0l-294 980h212l188 -782l208 752h186l210 -752l188 782h212l-296 -980h-202l-204 724l-206 -724h-202zM832 1182v160h172v-160h-172zM448 1182v160h172v-160h-172z" />
    <glyph glyph-name="wgrave" unicode="&#x1e81;" horiz-adv-x="1450" 
d="M318 0l-294 980h212l188 -782l208 752h186l210 -752l188 782h212l-296 -980h-202l-204 724l-206 -724h-202zM912 1152l-374 146v196l374 -220v-122z" />
    <glyph glyph-name="x" unicode="x" horiz-adv-x="948" 
d="M22 0l342 488l-334 492h202l246 -388l226 388h210l-322 -476l334 -504h-202l-248 386l-252 -386h-202z" />
    <glyph glyph-name="y" unicode="y" horiz-adv-x="1010" 
d="M196 -484l226 528l-408 936h200l306 -728l276 728h200l-600 -1464h-200z" />
    <glyph glyph-name="yacute" unicode="&#xfd;" horiz-adv-x="1010" 
d="M196 -484l226 528l-408 936h200l306 -728l276 728h200l-600 -1464h-200zM320 1152v122l374 220v-196z" />
    <glyph glyph-name="ycircumflex" unicode="&#x177;" horiz-adv-x="1010" 
d="M196 -484l226 528l-408 936h200l306 -728l276 728h200l-600 -1464h-200zM252 1128v122l254 220l254 -220v-122l-254 160z" />
    <glyph glyph-name="ydieresis" unicode="&#xff;" horiz-adv-x="1010" 
d="M196 -484l226 528l-408 936h200l306 -728l276 728h200l-600 -1464h-200zM612 1182v160h172v-160h-172zM228 1182v160h172v-160h-172z" />
    <glyph glyph-name="uni1E8F" unicode="&#x1e8f;" horiz-adv-x="1010" 
d="M196 -484l226 528l-408 936h200l306 -728l276 728h200l-600 -1464h-200zM410 1182v180h192v-180h-192z" />
    <glyph glyph-name="uni1EF5" unicode="&#x1ef5;" horiz-adv-x="1010" 
d="M196 -484l226 528l-408 936h200l306 -728l276 728h200l-600 -1464h-200zM598 -342v180h192v-180h-192z" />
    <glyph glyph-name="ygrave" unicode="&#x1ef3;" horiz-adv-x="1010" 
d="M196 -484l226 528l-408 936h200l306 -728l276 728h200l-600 -1464h-200zM692 1152l-374 146v196l374 -220v-122z" />
    <glyph glyph-name="uni1EF7" unicode="&#x1ef7;" horiz-adv-x="1010" 
d="M196 -484l226 528l-408 936h200l306 -728l276 728h200l-600 -1464h-200zM536 1050l-68 66q47 47 67.5 72.5t20.5 61.5t-22 54t-60 18q-31 0 -62.5 -10.5t-63.5 -27.5l-34 102q33 18 73.5 28t86.5 10q83 0 140.5 -43.5t57.5 -124.5q0 -63 -33.5 -108t-102.5 -98z" />
    <glyph glyph-name="uni0233" unicode="&#x233;" horiz-adv-x="1010" 
d="M196 -484l226 528l-408 936h200l306 -728l276 728h200l-600 -1464h-200zM186 1182v142h640v-142h-640z" />
    <glyph glyph-name="uni1EF9" unicode="&#x1ef9;" horiz-adv-x="1010" 
d="M196 -484l226 528l-408 936h200l306 -728l276 728h200l-600 -1464h-200zM666 1160q-50 0 -97 23.5t-91 47t-86 23.5q-68 0 -68 -78h-150q5 108 48 165t124 57q50 0 97 -23.5t91 -47t86 -23.5q68 0 68 78h150q-4 -108 -47.5 -165t-124.5 -57z" />
    <glyph glyph-name="z" unicode="z" horiz-adv-x="942" 
d="M44 0l606 912l22 -90h-596v158h816l-606 -912l-22 90h618v-158h-838z" />
    <glyph glyph-name="zacute" unicode="&#x17a;" horiz-adv-x="942" 
d="M44 0l606 912l22 -90h-596v158h816l-606 -912l-22 90h618v-158h-838zM297 1172v122l374 220v-196z" />
    <glyph glyph-name="zcaron" unicode="&#x17e;" horiz-adv-x="942" 
d="M44 0l606 912l22 -90h-596v158h816l-606 -912l-22 90h618v-158h-838zM483 1136l-254 220v122l254 -160l254 160v-122z" />
    <glyph glyph-name="zdotaccent" unicode="&#x17c;" horiz-adv-x="942" 
d="M44 0l606 912l22 -90h-596v158h816l-606 -912l-22 90h618v-158h-838zM387 1202v180h192v-180h-192z" />
    <glyph glyph-name="uni1E93" unicode="&#x1e93;" horiz-adv-x="942" 
d="M44 0l606 912l22 -90h-596v158h816l-606 -912l-22 90h618v-158h-838zM375 -342v180h192v-180h-192z" />
    <glyph glyph-name="iacute_j.loclNLD" horiz-adv-x="848" 
d="M88 1152v122l254 200v-196zM510 1152v122l254 200v-196zM122 0v980h180v-980h-180zM420 -484l-20 138q59 6 90.5 22.5t43.5 57.5t12 120v1126h180v-1194q0 -94 -40 -148t-97.5 -79t-108.5 -33z" />
    <glyph glyph-name="ordfeminine" unicode="&#xaa;" horiz-adv-x="698" 
d="M240 868q-72 0 -123 44.5t-51 125.5q0 60 36 98.5t90.5 61t111.5 32t98 10.5q-1 42 -25 63t-81 21q-40 0 -79 -10t-87 -30l-12 120q54 24 108.5 35t109.5 11q101 0 159.5 -50t58.5 -166v-160q0 -63 10.5 -73.5t41.5 -10.5h20l-14 -122h-54q-49 0 -83 17.5t-51 44.5
q-30 -30 -80 -46t-104 -16zM296 980q26 0 54.5 8t53.5 26v126q-72 -6 -126 -27t-54 -71q0 -31 19.5 -46.5t52.5 -15.5z" />
    <glyph glyph-name="ordmasculine" unicode="&#xba;" horiz-adv-x="740" 
d="M370 868q-96 0 -164 40.5t-104 107t-36 144.5t36 144t104 106t164 40t164 -40t104 -106t36 -144t-36 -144.5t-104 -107t-164 -40.5zM370 988q72 0 111 48.5t39 123.5t-39 123.5t-111 48.5t-111 -48.5t-39 -123.5t39 -123.5t111 -48.5z" />
    <glyph glyph-name="pi" unicode="&#x3c0;" horiz-adv-x="1304" 
d="M1138 136q32 0 60.5 6.5t49.5 15.5v-140q-28 -15 -75 -26.5t-101 -11.5q-115 0 -170.5 69.5t-55.5 202.5v588h-390v-840h-180v840h-236v140h1216v-140h-232v-560q0 -144 114 -144z" />
    <glyph glyph-name="zero" unicode="0" horiz-adv-x="1396" 
d="M698 -28q-185 0 -317 95t-202.5 262t-70.5 383t75 377t208 250t307 89q178 0 310.5 -89t206 -250t73.5 -377t-70 -383t-202 -262t-318 -95zM698 144q124 0 210.5 66t132 193t45.5 309q0 273 -105.5 408.5t-282.5 135.5q-168 0 -278 -135.5t-110 -408.5q0 -182 45.5 -309
t132 -193t210.5 -66z" />
    <glyph glyph-name="one" unicode="1" horiz-adv-x="652" 
d="M308 0v1126q-72 -58 -119 -83t-89 -39l-32 178q54 18 110.5 51.5t105 76.5t78.5 90h130v-1400h-184z" />
    <glyph glyph-name="two" unicode="2" horiz-adv-x="1048" 
d="M114 2l382 580q63 95 108 173t68.5 144.5t23.5 126.5q0 104 -58.5 165t-159.5 61q-100 0 -184.5 -43t-155.5 -115l-24 200q69 56 166.5 96t217.5 40q128 0 215 -51t131 -138t44 -195q0 -93 -25 -176.5t-75 -173.5t-124 -202l-212 -320h490v-172h-828z" />
    <glyph glyph-name="three" unicode="3" horiz-adv-x="1082" 
d="M480 -28q-115 0 -214.5 30t-185.5 76l46 176q86 -49 169.5 -79.5t186.5 -30.5q131 0 204.5 65.5t73.5 168.5q0 116 -80 186t-250 70h-88v172h88q129 0 204.5 61t75.5 167q0 113 -58 167.5t-166 54.5q-85 0 -159 -33t-145 -81l-32 194q77 44 166.5 68t195.5 24
q130 0 220.5 -47t138 -130.5t47.5 -192.5q0 -136 -79.5 -229.5t-214.5 -122.5v46q159 -31 248.5 -120.5t89.5 -247.5q0 -128 -63.5 -220.5t-172.5 -142t-246 -49.5z" />
    <glyph glyph-name="four" unicode="4" horiz-adv-x="1156" 
d="M730 0v362h-690l744 1038h138v-876h180v-162h-180v-362h-192zM320 470l-34 54h444v626l34 -56z" />
    <glyph glyph-name="five" unicode="5" horiz-adv-x="1082" 
d="M492 -28q-111 0 -213 29t-177 77l46 176q74 -40 154 -69t180 -29q134 0 217 75.5t83 202.5q0 144 -90 219t-234 75q-76 0 -143.5 -11t-138.5 -29l86 712h660l-8 -180h-496l-52 -438l-42 82q45 9 95 14.5t101 5.5q149 0 254 -58.5t160.5 -160.5t55.5 -231
q0 -142 -65.5 -245.5t-178 -160t-254.5 -56.5z" />
    <glyph glyph-name="six" unicode="6" horiz-adv-x="1136" 
d="M590 -28q-147 0 -251.5 65.5t-159.5 182.5t-55 272q0 165 54.5 310t145 265.5t200.5 211.5t220 149l130 -122q-89 -44 -171.5 -104.5t-152 -134t-122 -159.5t-81.5 -182.5t-29 -201.5l-64 108q48 96 147.5 152t232.5 56q122 0 216 -55.5t147 -151.5t53 -217
q0 -130 -58 -230t-161.5 -157t-240.5 -57zM590 136q120 0 192 79.5t72 194.5q0 113 -72 189.5t-192 76.5t-193 -77t-73 -191q0 -118 73 -195t193 -77z" />
    <glyph glyph-name="seven" unicode="7" horiz-adv-x="1006" 
d="M180 0l564 1306l52 -86h-716v180h906l-606 -1400h-200z" />
    <glyph glyph-name="eight" unicode="8" horiz-adv-x="1212" 
d="M606 -28q-150 0 -259 54.5t-168 151t-59 222.5q0 130 61 227t170.5 151t254.5 54t254.5 -54t170.5 -151t61 -227q0 -126 -59.5 -222.5t-168.5 -151t-258 -54.5zM606 144q138 0 214 70.5t76 185.5q0 120 -76 198t-214 78t-214 -78t-76 -198q0 -115 76 -185.5t214 -70.5z
M606 686q-117 0 -212.5 46.5t-152.5 128.5t-57 189q0 92 43 179t136 143t243 56t241 -56t132 -143t41 -179q0 -107 -51 -189t-144 -128.5t-219 -46.5zM606 842q111 0 167.5 61.5t56.5 146.5q0 92 -56.5 149t-167.5 57t-171.5 -57t-60.5 -149q0 -85 60.5 -146.5t171.5 -61.5z
" />
    <glyph glyph-name="nine" unicode="9" horiz-adv-x="1136" 
d="M412 0l-130 122q83 43 161.5 100.5t146.5 129t119 154t80 176t29 194.5l64 -108q-48 -96 -147 -152t-233 -56q-122 0 -216 55.5t-147 151.5t-53 217q0 130 58 230t161.5 157t240.5 57q147 0 251.5 -65.5t159.5 -182.5t55 -272q0 -160 -53 -300.5t-140.5 -257
t-193.5 -205.5t-213 -145zM546 724q120 0 193 77t73 191q0 119 -73 195.5t-193 76.5t-192 -79t-72 -195q0 -112 72 -189t192 -77z" />
    <glyph glyph-name="uni2080" unicode="&#x2080;" horiz-adv-x="784" 
d="M392 -144q-104 0 -178.5 52.5t-114 144t-39.5 209.5q0 179 92.5 286.5t239.5 107.5q150 0 241 -107.5t91 -286.5q0 -118 -39 -209.5t-113.5 -144t-179.5 -52.5zM392 0q81 0 124.5 68t43.5 194t-45.5 188t-122.5 62q-72 0 -120 -62t-48 -188t43.5 -194t124.5 -68z" />
    <glyph glyph-name="uni2081" unicode="&#x2081;" horiz-adv-x="474" 
d="M196 -116v558q-30 -27 -59.5 -42.5t-58.5 -23.5l-14 132q48 17 96.5 50.5t75.5 69.5h110v-744h-150z" />
    <glyph glyph-name="uni2082" unicode="&#x2082;" horiz-adv-x="664" 
d="M74 -116l222 316q54 78 72 119.5t18 84.5q0 45 -27.5 76.5t-80.5 31.5q-58 0 -105.5 -26.5t-86.5 -59.5l-14 154q39 29 101 52.5t129 23.5q111 0 179.5 -65.5t68.5 -166.5q0 -44 -9 -82.5t-34.5 -86t-74.5 -117.5l-162 -232l-18 114h336v-136h-514z" />
    <glyph glyph-name="uni2083" unicode="&#x2083;" horiz-adv-x="714" 
d="M330 -144q-72 0 -134.5 15.5t-115.5 42.5l38 136q47 -28 92 -46t102 -18q60 0 94 26.5t34 77.5t-31.5 81.5t-102.5 30.5h-56v130h58q54 0 86 26t32 74q0 41 -29 67.5t-89 26.5q-48 0 -89.5 -15t-80.5 -41l-14 138q45 23 98.5 35.5t117.5 12.5q113 0 176.5 -54.5
t63.5 -143.5q0 -82 -41 -128.5t-101 -69.5v24q77 -18 121.5 -68.5t44.5 -131.5q0 -106 -78.5 -167t-195.5 -61z" />
    <glyph glyph-name="uni2084" unicode="&#x2084;" horiz-adv-x="744" 
d="M434 -116v158h-398l418 586h112v-468h98v-118h-98v-158h-132zM238 122l-50 38h246v138v218l48 -42l-104 -152z" />
    <glyph glyph-name="uni2085" unicode="&#x2085;" horiz-adv-x="664" 
d="M304 -144q-60 0 -112 13.5t-102 38.5l38 136q42 -27 84.5 -42.5t91.5 -15.5q59 0 95.5 30.5t36.5 87.5q0 56 -38 90t-110 34q-42 0 -81.5 -6.5t-74.5 -15.5l46 422h386l-8 -130h-310l56 84l-34 -280l-50 40q54 16 112 16q128 0 194 -66.5t66 -177.5q0 -124 -81.5 -191
t-204.5 -67z" />
    <glyph glyph-name="uni2086" unicode="&#x2086;" horiz-adv-x="694" 
d="M366 -144q-142 0 -212 78.5t-70 207.5q0 118 52.5 216.5t139 173.5t188.5 124l90 -96q-84 -36 -161.5 -95t-127 -136.5t-49.5 -168.5l-34 64q26 56 79 87t123 31q110 0 179 -69t69 -173q0 -106 -73.5 -175t-192.5 -69zM362 -14q53 0 84.5 33t31.5 81t-31.5 80t-84.5 32
q-52 0 -85 -32t-33 -80q0 -49 33 -81.5t85 -32.5z" />
    <glyph glyph-name="uni2087" unicode="&#x2087;" horiz-adv-x="664" 
d="M134 -116l312 704l42 -78h-404v130h534l-340 -756h-144z" />
    <glyph glyph-name="uni2088" unicode="&#x2088;" horiz-adv-x="628" 
d="M314 -144q-127 0 -200.5 65t-73.5 167q0 108 75.5 174t198.5 66t198.5 -66t75.5 -174q0 -102 -74 -167t-200 -65zM314 -18q59 0 91.5 33.5t32.5 88.5q0 53 -32.5 86.5t-91.5 33.5q-60 0 -92 -33.5t-32 -86.5q0 -55 32 -88.5t92 -33.5zM314 354q44 0 67 26t23 62
q0 39 -23 63.5t-67 24.5q-43 0 -66.5 -24.5t-23.5 -63.5q0 -36 23.5 -62t66.5 -26zM314 248q-105 0 -167.5 56t-62.5 146q0 80 58 143t176 63q116 0 171 -63t55 -143q0 -90 -62.5 -146t-167.5 -56z" />
    <glyph glyph-name="uni2089" unicode="&#x2089;" horiz-adv-x="694" 
d="M328 656q143 0 212.5 -78.5t69.5 -207.5q0 -118 -52.5 -216t-139 -173.5t-188.5 -124.5l-90 96q84 36 161.5 95t127 136.5t49.5 168.5l34 -64q-25 -55 -78 -86.5t-124 -31.5q-109 0 -178.5 69.5t-69.5 172.5q0 107 74 175.5t192 68.5zM332 526q-52 0 -84 -33t-32 -81
t32 -80t84 -32q53 0 85.5 32t32.5 80q0 50 -32.5 82t-85.5 32z" />
    <glyph glyph-name="zero.dnom" horiz-adv-x="784" 
d="M392 -28q-104 0 -178.5 52.5t-114 144t-39.5 209.5q0 179 92.5 286.5t239.5 107.5q150 0 241 -107.5t91 -286.5q0 -118 -39 -209.5t-113.5 -144t-179.5 -52.5zM392 116q81 0 124.5 68t43.5 194t-45.5 188t-122.5 62q-72 0 -120 -62t-48 -188t43.5 -194t124.5 -68z" />
    <glyph glyph-name="one.dnom" horiz-adv-x="474" 
d="M196 0v558q-30 -27 -59.5 -42.5t-58.5 -23.5l-14 132q48 17 96.5 50.5t75.5 69.5h110v-744h-150z" />
    <glyph glyph-name="two.dnom" horiz-adv-x="664" 
d="M74 0l222 316q54 78 72 119.5t18 84.5q0 45 -27.5 76.5t-80.5 31.5q-58 0 -105.5 -26.5t-86.5 -59.5l-14 154q39 29 101 52.5t129 23.5q111 0 179.5 -65.5t68.5 -166.5q0 -44 -9 -82.5t-34.5 -86t-74.5 -117.5l-162 -232l-18 114h336v-136h-514z" />
    <glyph glyph-name="three.dnom" horiz-adv-x="714" 
d="M330 -28q-72 0 -134.5 15.5t-115.5 42.5l38 136q47 -28 92 -46t102 -18q60 0 94 26.5t34 77.5t-31.5 81.5t-102.5 30.5h-56v130h58q54 0 86 26t32 74q0 41 -29 67.5t-89 26.5q-48 0 -89.5 -15t-80.5 -41l-14 138q45 23 98.5 35.5t117.5 12.5q113 0 176.5 -54.5
t63.5 -143.5q0 -82 -41 -128.5t-101 -69.5v24q77 -18 121.5 -68.5t44.5 -131.5q0 -106 -78.5 -167t-195.5 -61z" />
    <glyph glyph-name="four.dnom" horiz-adv-x="744" 
d="M434 0v158h-398l418 586h112v-468h98v-118h-98v-158h-132zM238 238l-50 38h246v138v218l48 -42l-104 -152z" />
    <glyph glyph-name="five.dnom" horiz-adv-x="664" 
d="M304 -28q-60 0 -112 13.5t-102 38.5l38 136q42 -27 84.5 -42.5t91.5 -15.5q59 0 95.5 30.5t36.5 87.5q0 56 -38 90t-110 34q-42 0 -81.5 -6.5t-74.5 -15.5l46 422h386l-8 -130h-310l56 84l-34 -280l-50 40q54 16 112 16q128 0 194 -66.5t66 -177.5q0 -124 -81.5 -191
t-204.5 -67z" />
    <glyph glyph-name="six.dnom" horiz-adv-x="694" 
d="M366 -28q-142 0 -212 78.5t-70 207.5q0 118 52.5 216.5t139 173.5t188.5 124l90 -96q-84 -36 -161.5 -95t-127 -136.5t-49.5 -168.5l-34 64q26 56 79 87t123 31q110 0 179 -69t69 -173q0 -106 -73.5 -175t-192.5 -69zM362 102q53 0 84.5 33t31.5 81t-31.5 80t-84.5 32
q-52 0 -85 -32t-33 -80q0 -49 33 -81.5t85 -32.5z" />
    <glyph glyph-name="seven.dnom" horiz-adv-x="664" 
d="M134 0l312 704l42 -78h-404v130h534l-340 -756h-144z" />
    <glyph glyph-name="eight.dnom" horiz-adv-x="628" 
d="M314 -28q-127 0 -200.5 65t-73.5 167q0 108 75.5 174t198.5 66t198.5 -66t75.5 -174q0 -102 -74 -167t-200 -65zM314 98q59 0 91.5 33.5t32.5 88.5q0 53 -32.5 86.5t-91.5 33.5q-60 0 -92 -33.5t-32 -86.5q0 -55 32 -88.5t92 -33.5zM314 470q44 0 67 26t23 62
q0 39 -23 63.5t-67 24.5q-43 0 -66.5 -24.5t-23.5 -63.5q0 -36 23.5 -62t66.5 -26zM314 364q-105 0 -167.5 56t-62.5 146q0 80 58 143t176 63q116 0 171 -63t55 -143q0 -90 -62.5 -146t-167.5 -56z" />
    <glyph glyph-name="nine.dnom" horiz-adv-x="694" 
d="M328 772q143 0 212.5 -78.5t69.5 -207.5q0 -118 -52.5 -216t-139 -173.5t-188.5 -124.5l-90 96q84 36 161.5 95t127 136.5t49.5 168.5l34 -64q-25 -55 -78 -86.5t-124 -31.5q-109 0 -178.5 69.5t-69.5 172.5q0 107 74 175.5t192 68.5zM332 642q-52 0 -84 -33t-32 -81
t32 -80t84 -32q53 0 85.5 32t32.5 80q0 50 -32.5 82t-85.5 32z" />
    <glyph glyph-name="zero.numr" horiz-adv-x="784" 
d="M392 628q-104 0 -178.5 52.5t-114 144t-39.5 209.5q0 179 92.5 286.5t239.5 107.5q150 0 241 -107.5t91 -286.5q0 -118 -39 -209.5t-113.5 -144t-179.5 -52.5zM392 772q81 0 124.5 68t43.5 194t-45.5 188t-122.5 62q-72 0 -120 -62t-48 -188t43.5 -194t124.5 -68z" />
    <glyph glyph-name="one.numr" horiz-adv-x="474" 
d="M196 656v558q-30 -27 -59.5 -42.5t-58.5 -23.5l-14 132q48 17 96.5 50.5t75.5 69.5h110v-744h-150z" />
    <glyph glyph-name="two.numr" horiz-adv-x="664" 
d="M74 656l222 316q54 78 72 119.5t18 84.5q0 45 -27.5 76.5t-80.5 31.5q-58 0 -105.5 -26.5t-86.5 -59.5l-14 154q39 29 101 52.5t129 23.5q111 0 179.5 -65.5t68.5 -166.5q0 -44 -9 -82.5t-34.5 -86t-74.5 -117.5l-162 -232l-18 114h336v-136h-514z" />
    <glyph glyph-name="three.numr" horiz-adv-x="714" 
d="M330 628q-72 0 -134.5 15.5t-115.5 42.5l38 136q47 -28 92 -46t102 -18q60 0 94 26.5t34 77.5t-31.5 81.5t-102.5 30.5h-56v130h58q54 0 86 26t32 74q0 41 -29 67.5t-89 26.5q-48 0 -89.5 -15t-80.5 -41l-14 138q45 23 98.5 35.5t117.5 12.5q113 0 176.5 -54.5
t63.5 -143.5q0 -82 -41 -128.5t-101 -69.5v24q77 -18 121.5 -68.5t44.5 -131.5q0 -106 -78.5 -167t-195.5 -61z" />
    <glyph glyph-name="four.numr" horiz-adv-x="744" 
d="M434 656v158h-398l418 586h112v-468h98v-118h-98v-158h-132zM238 894l-50 38h246v138v218l48 -42l-104 -152z" />
    <glyph glyph-name="five.numr" horiz-adv-x="664" 
d="M304 628q-60 0 -112 13.5t-102 38.5l38 136q42 -27 84.5 -42.5t91.5 -15.5q59 0 95.5 30.5t36.5 87.5q0 56 -38 90t-110 34q-42 0 -81.5 -6.5t-74.5 -15.5l46 422h386l-8 -130h-310l56 84l-34 -280l-50 40q54 16 112 16q128 0 194 -66.5t66 -177.5q0 -124 -81.5 -191
t-204.5 -67z" />
    <glyph glyph-name="six.numr" horiz-adv-x="694" 
d="M366 628q-142 0 -212 78.5t-70 207.5q0 118 52.5 216.5t139 173.5t188.5 124l90 -96q-84 -36 -161.5 -95t-127 -136.5t-49.5 -168.5l-34 64q26 56 79 87t123 31q110 0 179 -69t69 -173q0 -106 -73.5 -175t-192.5 -69zM362 758q53 0 84.5 33t31.5 81t-31.5 80t-84.5 32
q-52 0 -85 -32t-33 -80q0 -49 33 -81.5t85 -32.5z" />
    <glyph glyph-name="seven.numr" horiz-adv-x="664" 
d="M134 644l312 704l42 -78h-404v130h534l-340 -756h-144z" />
    <glyph glyph-name="eight.numr" horiz-adv-x="628" 
d="M314 628q-127 0 -200.5 65t-73.5 167q0 108 75.5 174t198.5 66t198.5 -66t75.5 -174q0 -102 -74 -167t-200 -65zM314 754q59 0 91.5 33.5t32.5 88.5q0 53 -32.5 86.5t-91.5 33.5q-60 0 -92 -33.5t-32 -86.5q0 -55 32 -88.5t92 -33.5zM314 1126q44 0 67 26t23 62
q0 39 -23 63.5t-67 24.5q-43 0 -66.5 -24.5t-23.5 -63.5q0 -36 23.5 -62t66.5 -26zM314 1020q-105 0 -167.5 56t-62.5 146q0 80 58 143t176 63q116 0 171 -63t55 -143q0 -90 -62.5 -146t-167.5 -56z" />
    <glyph glyph-name="nine.numr" horiz-adv-x="694" 
d="M328 1428q143 0 212.5 -78.5t69.5 -207.5q0 -118 -52.5 -216t-139 -173.5t-188.5 -124.5l-90 96q84 36 161.5 95t127 136.5t49.5 168.5l34 -64q-25 -55 -78 -86.5t-124 -31.5q-109 0 -178.5 69.5t-69.5 172.5q0 107 74 175.5t192 68.5zM332 1298q-52 0 -84 -33t-32 -81
t32 -80t84 -32q53 0 85.5 32t32.5 80q0 50 -32.5 82t-85.5 32z" />
    <glyph glyph-name="uni2070" unicode="&#x2070;" horiz-adv-x="784" 
d="M392 744q-104 0 -178.5 52.5t-114 144t-39.5 209.5q0 179 92.5 286.5t239.5 107.5q150 0 241 -107.5t91 -286.5q0 -118 -39 -209.5t-113.5 -144t-179.5 -52.5zM392 888q81 0 124.5 68t43.5 194t-45.5 188t-122.5 62q-72 0 -120 -62t-48 -188t43.5 -194t124.5 -68z" />
    <glyph glyph-name="uni00B9" unicode="&#xb9;" horiz-adv-x="474" 
d="M196 772v558q-30 -27 -59.5 -42.5t-58.5 -23.5l-14 132q48 17 96.5 50.5t75.5 69.5h110v-744h-150z" />
    <glyph glyph-name="uni00B2" unicode="&#xb2;" horiz-adv-x="664" 
d="M74 772l222 316q54 78 72 119.5t18 84.5q0 45 -27.5 76.5t-80.5 31.5q-58 0 -105.5 -26.5t-86.5 -59.5l-14 154q39 29 101 52.5t129 23.5q111 0 179.5 -65.5t68.5 -166.5q0 -44 -9 -82.5t-34.5 -86t-74.5 -117.5l-162 -232l-18 114h336v-136h-514z" />
    <glyph glyph-name="uni00B3" unicode="&#xb3;" horiz-adv-x="714" 
d="M330 744q-72 0 -134.5 15.5t-115.5 42.5l38 136q47 -28 92 -46t102 -18q60 0 94 26.5t34 77.5t-31.5 81.5t-102.5 30.5h-56v130h58q54 0 86 26t32 74q0 41 -29 67.5t-89 26.5q-48 0 -89.5 -15t-80.5 -41l-14 138q45 23 98.5 35.5t117.5 12.5q113 0 176.5 -54.5
t63.5 -143.5q0 -82 -41 -128.5t-101 -69.5v24q77 -18 121.5 -68.5t44.5 -131.5q0 -106 -78.5 -167t-195.5 -61z" />
    <glyph glyph-name="uni2074" unicode="&#x2074;" horiz-adv-x="744" 
d="M434 772v158h-398l418 586h112v-468h98v-118h-98v-158h-132zM238 1010l-50 38h246v138v218l48 -42l-104 -152z" />
    <glyph glyph-name="uni2075" unicode="&#x2075;" horiz-adv-x="664" 
d="M304 744q-60 0 -112 13.5t-102 38.5l38 136q42 -27 84.5 -42.5t91.5 -15.5q59 0 95.5 30.5t36.5 87.5q0 56 -38 90t-110 34q-42 0 -81.5 -6.5t-74.5 -15.5l46 422h386l-8 -130h-310l56 84l-34 -280l-50 40q54 16 112 16q128 0 194 -66.5t66 -177.5q0 -124 -81.5 -191
t-204.5 -67z" />
    <glyph glyph-name="uni2076" unicode="&#x2076;" horiz-adv-x="694" 
d="M366 744q-142 0 -212 78.5t-70 207.5q0 118 52.5 216.5t139 173.5t188.5 124l90 -96q-84 -36 -161.5 -95t-127 -136.5t-49.5 -168.5l-34 64q26 56 79 87t123 31q110 0 179 -69t69 -173q0 -106 -73.5 -175t-192.5 -69zM362 874q53 0 84.5 33t31.5 81t-31.5 80t-84.5 32
q-52 0 -85 -32t-33 -80q0 -49 33 -81.5t85 -32.5z" />
    <glyph glyph-name="uni2077" unicode="&#x2077;" horiz-adv-x="664" 
d="M134 772l312 704l42 -78h-404v130h534l-340 -756h-144z" />
    <glyph glyph-name="uni2078" unicode="&#x2078;" horiz-adv-x="628" 
d="M314 744q-127 0 -200.5 65t-73.5 167q0 108 75.5 174t198.5 66t198.5 -66t75.5 -174q0 -102 -74 -167t-200 -65zM314 870q59 0 91.5 33.5t32.5 88.5q0 53 -32.5 86.5t-91.5 33.5q-60 0 -92 -33.5t-32 -86.5q0 -55 32 -88.5t92 -33.5zM314 1242q44 0 67 26t23 62
q0 39 -23 63.5t-67 24.5q-43 0 -66.5 -24.5t-23.5 -63.5q0 -36 23.5 -62t66.5 -26zM314 1136q-105 0 -167.5 56t-62.5 146q0 80 58 143t176 63q116 0 171 -63t55 -143q0 -90 -62.5 -146t-167.5 -56z" />
    <glyph glyph-name="uni2079" unicode="&#x2079;" horiz-adv-x="694" 
d="M328 1544q143 0 212.5 -78.5t69.5 -207.5q0 -118 -52.5 -216t-139 -173.5t-188.5 -124.5l-90 96q84 36 161.5 95t127 136.5t49.5 168.5l34 -64q-25 -55 -78 -86.5t-124 -31.5q-109 0 -178.5 69.5t-69.5 172.5q0 107 74 175.5t192 68.5zM332 1414q-52 0 -84 -33t-32 -81
t32 -80t84 -32q53 0 85.5 32t32.5 80q0 50 -32.5 82t-85.5 32z" />
    <glyph glyph-name="fraction" unicode="&#x2044;" horiz-adv-x="174" 
d="M-430 0l806 1400h168l-804 -1400h-170z" />
    <glyph glyph-name="onehalf" unicode="&#xbd;" horiz-adv-x="1358" 
d="M192 656v558q-30 -27 -59.5 -42.5t-58.5 -23.5l-14 132q48 17 96.5 50.5t75.5 69.5h110v-744h-150zM100 0l806 1400h168l-804 -1400h-170zM784 0l222 316q54 78 72 119.5t18 84.5q0 45 -27.5 76.5t-80.5 31.5q-58 0 -105.5 -26.5t-86.5 -59.5l-14 154q39 29 101 52.5
t129 23.5q111 0 179.5 -65.5t68.5 -166.5q0 -44 -9 -82.5t-34.5 -86t-74.5 -117.5l-162 -232l-18 114h336v-136h-514z" />
    <glyph glyph-name="onequarter" unicode="&#xbc;" horiz-adv-x="1264" 
d="M192 656v558q-30 -27 -59.5 -42.5t-58.5 -23.5l-14 132q48 17 96.5 50.5t75.5 69.5h110v-744h-150zM120 0l806 1400h168l-804 -1400h-170zM958 0v158h-398l418 586h112v-468h98v-118h-98v-158h-132zM762 238l-50 38h246v138v218l48 -42l-104 -152z" />
    <glyph glyph-name="threequarters" unicode="&#xbe;" horiz-adv-x="1408" 
d="M330 628q-72 0 -134.5 15.5t-115.5 42.5l38 136q47 -28 92 -46t102 -18q60 0 94 26.5t34 77.5t-31.5 81.5t-102.5 30.5h-56v130h58q54 0 86 26t32 74q0 41 -29 67.5t-89 26.5q-48 0 -89.5 -15t-80.5 -41l-14 138q45 23 98.5 35.5t117.5 12.5q113 0 176.5 -54.5
t63.5 -143.5q0 -82 -41 -128.5t-101 -69.5v24q77 -18 121.5 -68.5t44.5 -131.5q0 -106 -78.5 -167t-195.5 -61zM264 0l806 1400h168l-804 -1400h-170zM1102 0v158h-398l418 586h112v-468h98v-118h-98v-158h-132zM906 238l-50 38h246v138v218l48 -42l-104 -152z" />
    <glyph glyph-name="asterisk" unicode="*" horiz-adv-x="854" 
d="M68 954l276 164l-276 162l54 96l260 -178l-10 302h110l-10 -302l260 178l54 -96l-276 -162l276 -164l-54 -96l-260 178l10 -302h-110l10 302l-260 -178z" />
    <glyph glyph-name="backslash" unicode="\" horiz-adv-x="606" 
d="M476 -170l-496 1570h190l496 -1570h-190z" />
    <glyph glyph-name="periodcentered" unicode="&#xb7;" horiz-adv-x="476" 
d="M114 426v260h248v-260h-248z" />
    <glyph glyph-name="bullet" unicode="&#x2022;" horiz-adv-x="612" 
d="M306 338q-90 0 -154 64t-64 154t64 154t154 64t154 -64t64 -154t-64 -154t-154 -64z" />
    <glyph glyph-name="colon" unicode=":" horiz-adv-x="416" 
d="M100 768v212h216v-212h-216zM100 0v212h216v-212h-216z" />
    <glyph glyph-name="comma" unicode="," horiz-adv-x="432" 
d="M228 -214h-114l72 214h-70v212h216v-192z" />
    <glyph glyph-name="ellipsis" unicode="&#x2026;" horiz-adv-x="1208" 
d="M100 0v212h216v-212h-216zM496 0v212h216v-212h-216zM892 0v212h216v-212h-216z" />
    <glyph glyph-name="exclam" unicode="!" horiz-adv-x="484" 
d="M158 344v52l-40 1004h248l-40 -1004v-52h-168zM134 0v212h216v-212h-216z" />
    <glyph glyph-name="exclamdown" unicode="&#xa1;" horiz-adv-x="484" 
d="M158 656v-52l-40 -1004h248l-40 1004v52h-168zM134 1000v-212h216v212h-216z" />
    <glyph glyph-name="numbersign" unicode="#" horiz-adv-x="1408" 
d="M134 -22l172 454h-240l80 182h230l90 230h-252l58 170h258l148 386h162l-150 -386h266l150 386h160l-148 -386h226l-58 -170h-232l-90 -230h256l-82 -182h-244l-172 -454h-162l174 454h-266l-174 -454h-160zM538 614h264l90 230h-264z" />
    <glyph glyph-name="period" unicode="." horiz-adv-x="416" 
d="M100 0v212h216v-212h-216z" />
    <glyph glyph-name="question" unicode="?" horiz-adv-x="924" 
d="M310 344v50q0 87 24 152t61.5 117.5t78.5 102.5q66 81 104 140.5t38 143.5q0 71 -32.5 116.5t-83 67.5t-104.5 22q-75 0 -138.5 -21.5t-119.5 -54.5l-18 162q60 38 138.5 62t183.5 24q125 0 210 -49.5t128.5 -130t43.5 -174.5q0 -78 -25 -138t-64 -111t-81 -103
q-60 -73 -108 -145.5t-48 -170.5v-62h-188zM296 0v212h216v-212h-216z" />
    <glyph glyph-name="questiondown" unicode="&#xbf;" horiz-adv-x="784" 
d="M584 656v-50q0 -87 -24 -152t-61.5 -117.5t-78.5 -102.5q-66 -81 -104 -140.5t-38 -143.5q0 -71 32.5 -116.5t83 -67.5t104.5 -22q75 0 138.5 21.5t119.5 54.5l18 -162q-60 -38 -138.5 -62t-183.5 -24q-125 0 -210 49.5t-128.5 130t-43.5 174.5q0 78 25 138t64 111
t81 103q60 73 108 145.5t48 170.5v62h188zM598 1000v-212h-216v212h216z" />
    <glyph glyph-name="quotedbl" unicode="&#x22;" horiz-adv-x="644" 
d="M108 980l-36 420h200l-36 -420h-128zM408 980l-36 420h200l-36 -420h-128z" />
    <glyph glyph-name="quotesingle" unicode="'" horiz-adv-x="344" 
d="M108 980l-36 420h200l-36 -420h-128z" />
    <glyph glyph-name="semicolon" unicode=";" horiz-adv-x="432" 
d="M228 -214h-114l72 214h-70v212h216v-192zM116 768v212h216v-212h-216z" />
    <glyph glyph-name="slash" unicode="/" horiz-adv-x="646" 
d="M-20 -170l536 1570h190l-536 -1570h-190z" />
    <glyph glyph-name="underscore" unicode="_" horiz-adv-x="1132" 
d="M6 -244v172h1120v-172h-1120z" />
    <glyph glyph-name="periodcentered.loclCAT.case" horiz-adv-x="476" 
d="M136 454v204h204v-204h-204z" />
    <glyph glyph-name="periodcentered.loclCAT" horiz-adv-x="476" 
d="M148 466v180h180v-180h-180z" />
    <glyph glyph-name="braceleft" unicode="{" horiz-adv-x="616" 
d="M538 -272q-187 0 -270.5 84t-83.5 216q0 68 8 153.5t8 158.5q0 108 -34 161t-126 53v120q92 0 126 53t34 161q0 74 -8 159.5t-8 152.5q0 132 83.5 216t270.5 84h74v-138h-54q-109 0 -168.5 -49.5t-59.5 -172.5q0 -70 8 -156.5t8 -155.5q0 -102 -50 -150.5t-134 -71.5v16
q84 -22 134 -71t50 -151q0 -69 -8 -155t-8 -157q0 -123 59.5 -172.5t168.5 -49.5h54v-138h-74z" />
    <glyph glyph-name="braceright" unicode="}" horiz-adv-x="616" 
d="M4 -272v138h54q110 0 169 49.5t59 172.5q0 71 -8 157t-8 155q0 102 50 151t134 71v-16q-84 23 -134 71.5t-50 150.5q0 69 8 155.5t8 156.5q0 123 -59 172.5t-169 49.5h-54v138h74q188 0 271 -84t83 -216q0 -67 -8 -152.5t-8 -159.5q0 -108 34.5 -161t125.5 -53v-120
q-91 0 -125.5 -53t-34.5 -161q0 -73 8 -158.5t8 -153.5q0 -132 -83 -216t-271 -84h-74z" />
    <glyph glyph-name="bracketleft" unicode="[" horiz-adv-x="654" 
d="M140 -270v1770h514v-136h-348v-1498h348v-136h-514z" />
    <glyph glyph-name="bracketright" unicode="]" horiz-adv-x="654" 
d="M0 -270v136h348v1498h-348v136h514v-1770h-514z" />
    <glyph glyph-name="parenleft" unicode="(" horiz-adv-x="626" 
d="M408 -272q-74 108 -135 237t-97 289t-36 360t36 360t97 289t135 237h158q-100 -168 -173 -383.5t-73 -502.5q0 -286 73 -502t173 -384h-158z" />
    <glyph glyph-name="parenright" unicode=")" horiz-adv-x="626" 
d="M60 -272q101 168 173.5 384t72.5 502q0 287 -72.5 502.5t-173.5 383.5h158q74 -108 135 -237t97 -289t36 -360t-36 -360t-97 -289t-135 -237h-158z" />
    <glyph glyph-name="emdash" unicode="&#x2014;" horiz-adv-x="1432" 
d="M0 536v172h1432v-172h-1432z" />
    <glyph glyph-name="endash" unicode="&#x2013;" horiz-adv-x="1088" 
d="M0 536v172h1088v-172h-1088z" />
    <glyph glyph-name="figuredash" unicode="&#x2012;" horiz-adv-x="1396" 
d="M0 536v172h1396v-172h-1396z" />
    <glyph glyph-name="uni2015" unicode="&#x2015;" horiz-adv-x="1432" 
d="M0 536v172h1432v-172h-1432z" />
    <glyph glyph-name="hyphen" unicode="-" horiz-adv-x="848" 
d="M114 536v172h620v-172h-620z" />
    <glyph glyph-name="uni2010" unicode="&#x2010;" horiz-adv-x="848" 
d="M114 536v172h620v-172h-620z" />
    <glyph glyph-name="uni00AD" unicode="&#xad;" horiz-adv-x="888" 
d="M134 536v172h620v-172h-620z" />
    <glyph glyph-name="guillemotleft" unicode="&#xab;" horiz-adv-x="1164" 
d="M346 156l-318 412l318 412h218l-318 -412l318 -412h-218zM866 156l-318 412l318 412h218l-318 -412l318 -412h-218z" />
    <glyph glyph-name="guillemotright" unicode="&#xbb;" horiz-adv-x="1166" 
d="M602 156l318 412l-318 412h218l318 -412l-318 -412h-218zM82 156l318 412l-318 412h218l318 -412l-318 -412h-218z" />
    <glyph glyph-name="guilsinglleft" unicode="&#x2039;" horiz-adv-x="644" 
d="M346 156l-318 412l318 412h218l-318 -412l318 -412h-218z" />
    <glyph glyph-name="guilsinglright" unicode="&#x203a;" horiz-adv-x="646" 
d="M82 156l318 412l-318 412h218l318 -412l-318 -412h-218z" />
    <glyph glyph-name="quotedblbase" unicode="&#x201e;" horiz-adv-x="698" 
d="M174 -214h-114l72 214h-70v212h216v-192zM494 -214h-114l72 214h-70v212h216v-192z" />
    <glyph glyph-name="quotedblleft" unicode="&#x201c;" horiz-adv-x="712" 
d="M218 1400h114l-72 -214h70v-212h-216v192zM538 1400h114l-72 -214h70v-212h-216v192z" />
    <glyph glyph-name="quotedblright" unicode="&#x201d;" horiz-adv-x="698" 
d="M174 974h-114l72 214h-70v212h216v-192zM494 974h-114l72 214h-70v212h216v-192z" />
    <glyph glyph-name="quoteleft" unicode="&#x2018;" horiz-adv-x="392" 
d="M218 1400h114l-72 -214h70v-212h-216v192z" />
    <glyph glyph-name="quoteright" unicode="&#x2019;" horiz-adv-x="378" 
d="M174 974h-114l72 214h-70v212h216v-192z" />
    <glyph glyph-name="quotesinglbase" unicode="&#x201a;" horiz-adv-x="378" 
d="M174 -214h-114l72 214h-70v212h216v-192z" />
    <glyph glyph-name="uni2007" unicode="&#x2007;" horiz-adv-x="1396" 
 />
    <glyph glyph-name="uni200A" unicode="&#x200a;" horiz-adv-x="200" 
 />
    <glyph glyph-name="uni2008" unicode="&#x2008;" horiz-adv-x="416" 
 />
    <glyph glyph-name="space" unicode=" " horiz-adv-x="450" 
 />
    <glyph glyph-name="uni00A0" unicode="&#xa0;" horiz-adv-x="450" 
 />
    <glyph glyph-name="uni2009" unicode="&#x2009;" horiz-adv-x="400" 
 />
    <glyph glyph-name="uni200B" unicode="&#x200b;" 
 />
    <glyph glyph-name="CR" unicode="&#xd;" horiz-adv-x="450" 
 />
    <glyph glyph-name="uni20B5" unicode="&#x20b5;" horiz-adv-x="1232" 
d="M784 -28q-204 0 -363.5 89.5t-251 253t-91.5 385.5t92.5 385.5t254 253t367.5 89.5q107 0 204 -23t170 -59l-20 -176q-75 36 -165 61t-191 25q-165 0 -277 -74.5t-169.5 -200.5t-57.5 -281t56.5 -281t168 -200.5t275.5 -74.5q104 0 192.5 22.5t167.5 61.5l20 -176
q-75 -34 -169 -57t-213 -23zM696 -288l20 356h116l20 -356h-156zM716 1346l-20 342h156l-20 -342h-116z" />
    <glyph glyph-name="cent" unicode="&#xa2;" horiz-adv-x="908" 
d="M572 -20q-166 0 -278.5 67.5t-170 182t-57.5 254.5q0 146 55.5 263t170.5 185t294 68q77 0 145.5 -15.5t122.5 -42.5l-28 -158q-55 26 -116.5 41t-127.5 15q-162 0 -247 -92t-85 -256q0 -160 81 -257t247 -97q68 0 130.5 16t119.5 44l24 -144q-40 -28 -117 -51t-163 -23z
M488 -288l20 356h116l20 -356h-156zM508 918l-20 342h156l-20 -342h-116z" />
    <glyph glyph-name="colonmonetary" unicode="&#x20a1;" horiz-adv-x="1232" 
d="M784 -28q-204 0 -363.5 89.5t-251 253t-91.5 385.5t92.5 385.5t254 253t367.5 89.5q107 0 204 -23t170 -59l-20 -176q-75 36 -165 61t-191 25q-165 0 -277 -74.5t-169.5 -200.5t-57.5 -281t56.5 -281t168 -200.5t275.5 -74.5q104 0 192.5 22.5t167.5 61.5l20 -176
q-75 -34 -169 -57t-213 -23zM398 -228l260 1856h140l-260 -1856h-140zM706 -228l260 1856h140l-260 -1856h-140z" />
    <glyph glyph-name="currency" unicode="&#xa4;" horiz-adv-x="1392" 
d="M696 1204q151 0 266.5 -68t180.5 -183t65 -257q0 -146 -65.5 -261t-181 -181t-265.5 -66q-152 0 -267.5 67t-180 182t-64.5 259t66 259t181.5 182t264.5 67zM696 1040q-109 0 -183 -46t-111.5 -124t-37.5 -174t37.5 -174t111.5 -124t183 -46t183 46t111.5 124t37.5 174
t-37.5 174t-111.5 124t-183 46zM176 1272l238 -238l-60 -52l-234 234zM362 418l56 -56l-242 -242l-56 56zM1028 420l244 -244l-56 -56l-244 244zM1216 1272l56 -56l-242 -242l-56 56z" />
    <glyph glyph-name="dollar" unicode="$" horiz-adv-x="1168" 
d="M560 -28q-87 0 -174 13t-161 33.5t-123 43.5l26 202q54 -26 130.5 -54t165.5 -47t180 -19q135 0 214.5 49.5t79.5 154.5q0 79 -40 129.5t-120.5 86.5t-201.5 72q-115 34 -212 80.5t-155.5 125t-58.5 208.5q0 111 57.5 196.5t169 133.5t273.5 48q138 0 253.5 -30
t190.5 -66l-20 -202q-114 68 -217.5 97t-214.5 29q-123 0 -203.5 -46t-80.5 -150q0 -70 36 -114.5t107 -76t177 -63.5q146 -44 251 -100.5t161 -139t56 -204.5q0 -90 -34 -162t-102 -123t-170.5 -78t-239.5 -27zM542 -288l20 356h116l20 -356h-156zM562 1346l-20 342h156
l-20 -342h-116z" />
    <glyph glyph-name="dong" unicode="&#x20ab;" horiz-adv-x="1110" 
d="M522 -20q-137 0 -240 66t-160.5 180.5t-57.5 261.5q0 135 54.5 252t154.5 188.5t237 71.5q110 0 195 -43.5t143 -120.5l-38 -46v710h180v-1500h-160l-34 208l46 -52q-42 -87 -130.5 -131.5t-189.5 -44.5zM158 -262v146h832v-146h-832zM542 140q68 0 134.5 35t110 111.5
t43.5 201.5q0 116 -43.5 194.5t-110 118t-134.5 39.5q-92 0 -158 -46t-101 -125.5t-35 -180.5q0 -95 35 -174t101 -126.5t158 -47.5zM494 1190v126h592v-126h-592z" />
    <glyph glyph-name="Euro" unicode="&#x20ac;" horiz-adv-x="1308" 
d="M860 -28q-204 0 -363.5 89.5t-251 253t-91.5 385.5t92.5 385.5t254 253t367.5 89.5q107 0 204 -23t170 -59l-20 -176q-75 36 -165 61t-191 25q-165 0 -277 -74.5t-169.5 -200.5t-57.5 -281t56.5 -281t168 -200.5t275.5 -74.5q104 0 192.5 22.5t167.5 61.5l20 -176
q-75 -34 -169 -57t-213 -23zM-20 460v148h1018v-148h-1018zM-20 804v148h1018v-148h-1018z" />
    <glyph glyph-name="florin" unicode="&#x192;" horiz-adv-x="682" 
d="M24 840l16 140h638l-16 -140h-638zM260 120q-33 -205 -135 -306.5t-261 -101.5q-42 0 -76 5t-64 17l14 166q48 -16 104 -16q96 0 150.5 52t75.5 178l146 906q33 206 135 307t261 101q42 0 76 -5t64 -17l-14 -166q-22 8 -49.5 12t-54.5 4q-96 0 -151 -52.5t-75 -177.5z
" />
    <glyph glyph-name="franc" unicode="&#x20a3;" horiz-adv-x="1086" 
d="M200 0v1400h854v-172h-664v-410h512v-172h-512v-646h-190zM40 276v148h758v-148h-758z" />
    <glyph glyph-name="uni20B2" unicode="&#x20b2;" horiz-adv-x="1344" 
d="M764 -28q-194 0 -349.5 89.5t-246 253.5t-90.5 387q0 221 93.5 384t257 252.5t373.5 89.5q113 0 215.5 -23.5t178.5 -56.5l-18 -166q-82 32 -174 53t-196 21q-179 0 -294.5 -74.5t-171.5 -200.5t-56 -281q0 -160 57 -285.5t175 -198t300 -72.5q45 0 112 8t122 30v348
h-220v172h410v-624q-82 -45 -204 -75.5t-274 -30.5zM724 -288l20 356h116l20 -356h-156zM744 1346l-20 342h156l-20 -342h-116z" />
    <glyph glyph-name="uni20AD" unicode="&#x20ad;" horiz-adv-x="1194" 
d="M928 0l-518 742l518 658h230l-532 -654l538 -746h-236zM200 0v1400h190v-1400h-190zM40 668v144h1038v-144h-1038z" />
    <glyph glyph-name="lira" unicode="&#x20a4;" horiz-adv-x="1040" 
d="M310 98l-44 82h712v-180h-878q48 110 81.5 205.5t56 198t36.5 232.5l38 364q20 198 114.5 313t281.5 115q72 0 135.5 -17.5t124.5 -52.5l-20 -202q-57 48 -110 74t-116 26q-100 0 -154 -65t-66 -175l-38 -364q-14 -130 -32.5 -222.5t-47.5 -169.5t-74 -162zM120 772v148
h732v-148h-732zM120 472v148h732v-148h-732z" />
    <glyph glyph-name="uni20BA" unicode="&#x20ba;" horiz-adv-x="1124" 
d="M390 1400v-1228h62q198 0 300 115t102 347v56h190v-56q0 -218 -75 -358.5t-211 -208t-320 -67.5h-238v1400h190zM40 592v158l912 280v-158zM40 892v158l912 280v-158z" />
    <glyph glyph-name="uni20BC" unicode="&#x20bc;" horiz-adv-x="1388" 
d="M720 1168q197 0 325.5 -73t191.5 -208t63 -321v-566h-190v514q0 92 -15 178t-55.5 154.5t-117.5 109t-202 40.5q-124 0 -201.5 -40t-118 -108.5t-55.5 -155t-15 -178.5v-514h-190v566q0 186 63 321t191.5 208t325.5 73zM626 0v1400h190v-1400h-190z" />
    <glyph glyph-name="uni20A6" unicode="&#x20a6;" horiz-adv-x="1626" 
d="M266 0v1400h206l690 -1048v1048h192v-1400h-162l-736 1106v-1106h-190zM120 672v148h1386v-148h-1386z" />
    <glyph glyph-name="peseta" unicode="&#x20a7;" horiz-adv-x="2538" 
d="M160 0v1400h432q138 0 242.5 -45t163 -145t58.5 -264q0 -161 -58.5 -261.5t-163 -147.5t-242.5 -47h-232v-490h-200zM360 660h204q147 0 220.5 69.5t73.5 214.5q0 146 -69.5 216t-224.5 70h-204v-570zM1544 -20q-93 0 -149 34t-81.5 87.5t-25.5 112.5v626h-168l16 140
h152v242l180 18v-260h258v-140h-258v-516q0 -94 11 -136t54.5 -53t140.5 -11h46l-14 -144h-162zM2110 -20q-130 0 -215.5 31t-120.5 55l22 174q21 -19 64.5 -42.5t105 -40.5t136.5 -17q95 0 145.5 32t50.5 90q0 51 -32.5 82.5t-78 50t-85.5 29.5q-67 18 -138.5 45.5
t-120.5 82.5t-49 154q0 75 36 142.5t117 109.5t215 42q98 0 159.5 -20.5t106.5 -43.5l-22 -164q-43 36 -100 61t-140 25q-84 0 -137 -31.5t-53 -100.5q0 -46 25 -72.5t75.5 -46t127.5 -43.5q82 -26 145 -61t99 -90t36 -141q0 -49 -16.5 -100t-58 -94.5t-114 -70.5
t-185.5 -27z" />
    </font>
</defs>
</svg>
